<svg xmlns="http://www.w3.org/2000/svg" width="241" height="198" viewBox="0 0 241 198">
  <g id="Grupo_99463" data-name="Grupo 99463" transform="translate(-270.919 -431.809)">
    <g id="Grupo_98029" data-name="Grupo 98029" transform="translate(-7 -102.191)">
      <rect id="Rectángulo_32944" data-name="Rectángulo 32944" width="241" height="198" transform="translate(277.919 534)" fill="#e8fff5"/>
    </g>
    <g id="ajustes" transform="translate(312.189 463.287)">
      <path id="Trazado_145603" data-name="Trazado 145603" d="M315.422,196.466H273.166a17.166,17.166,0,0,1,0-34.333h42.256a17.166,17.166,0,0,1,0,34.333Zm0,0" transform="translate(-176.77 -111.954)" fill="#5cd8a0"/>
      <path id="Trazado_145604" data-name="Trazado 145604" d="M393.343,180.36c0-9.218-5.912-16.692-13.2-16.692s-13.205,7.474-13.205,16.692,5.912,16.691,13.205,16.691S393.343,189.578,393.343,180.36Zm0,0" transform="translate(-253.371 -113.014)" fill="#15ac68"/>
      <path id="Trazado_145605" data-name="Trazado 145605" d="M332.588,25.7a17.13,17.13,0,0,1-17.166,17.166H273.166a17.166,17.166,0,0,1,0-34.332h42.256A17.166,17.166,0,0,1,332.588,25.7Zm0,0" transform="translate(-176.77 -5.894)" fill="#fb9e36"/>
      <path id="Trazado_145606" data-name="Trazado 145606" d="M332.588,332.9a17.132,17.132,0,0,1-17.166,17.167H273.166a17.166,17.166,0,0,1,0-34.333h42.256A17.166,17.166,0,0,1,332.588,332.9Zm0,0" transform="translate(-176.77 -218.018)" fill="#fb9e36"/>
      <path id="Trazado_145607" data-name="Trazado 145607" d="M324.666,25.7A17.132,17.132,0,0,1,307.5,42.867H273.166a17.166,17.166,0,0,1,0-34.332H307.5A17.165,17.165,0,0,1,324.666,25.7Zm0,0" transform="translate(-176.77 -5.894)" fill="#f1d54e"/>
      <path id="Trazado_145608" data-name="Trazado 145608" d="M324.666,332.9A17.134,17.134,0,0,1,307.5,350.067H273.166a17.166,17.166,0,0,1,0-34.333H307.5A17.167,17.167,0,0,1,324.666,332.9Zm0,0" transform="translate(-176.77 -218.018)" fill="#f1d54e"/>
      <g id="Grupo_99462" data-name="Grupo 99462" transform="translate(79.23 2.641)">
        <path id="Trazado_145609" data-name="Trazado 145609" d="M290.333,25.7a17.165,17.165,0,0,1-17.167,17.166,16.256,16.256,0,0,1-3.96-.475,17.151,17.151,0,0,1,0-33.381,16.256,16.256,0,0,1,3.96-.475A17.166,17.166,0,0,1,290.333,25.7Zm0,0" transform="translate(-256 -8.535)" fill="#cfd8dc"/>
        <path id="Trazado_145610" data-name="Trazado 145610" d="M426.864,179.3A17.166,17.166,0,0,1,409.7,196.465a16.265,16.265,0,0,1-3.962-.475,17.151,17.151,0,0,1,0-33.383,16.266,16.266,0,0,1,3.962-.475A17.166,17.166,0,0,1,426.864,179.3Zm0,0" transform="translate(-350.276 -114.595)" fill="#cfd8dc"/>
        <path id="Trazado_145611" data-name="Trazado 145611" d="M290.333,332.9a17.167,17.167,0,0,1-17.167,17.167,16.316,16.316,0,0,1-3.96-.476,17.151,17.151,0,0,1,0-33.381,16.255,16.255,0,0,1,3.96-.475A17.166,17.166,0,0,1,290.333,332.9Zm0,0" transform="translate(-256 -220.659)" fill="#cfd8dc"/>
      </g>
      <path id="Trazado_145612" data-name="Trazado 145612" d="M282.409,26.761c0-9.218-5.912-16.691-13.2-16.691S256,17.543,256,26.761s5.912,16.691,13.205,16.691S282.409,35.979,282.409,26.761Zm0,0" transform="translate(-176.77 -6.954)" fill="#f5f5f5"/>
      <path id="Trazado_145613" data-name="Trazado 145613" d="M418.945,180.36c0-9.218-5.912-16.692-13.205-16.692s-13.2,7.474-13.2,16.692,5.912,16.691,13.2,16.691S418.945,189.578,418.945,180.36Zm0,0" transform="translate(-271.049 -113.014)" fill="#f5f5f5"/>
      <path id="Trazado_145614" data-name="Trazado 145614" d="M282.409,333.96c0-9.218-5.912-16.691-13.2-16.691S256,324.742,256,333.96s5.912,16.691,13.205,16.691S282.409,343.179,282.409,333.96Zm0,0" transform="translate(-176.77 -219.078)" fill="#f5f5f5"/>
      <path id="Trazado_145615" data-name="Trazado 145615" d="M309.529,39.615H267.272a19.807,19.807,0,0,1,0-39.615h42.256a19.807,19.807,0,0,1,0,39.615ZM267.272,5.282a14.525,14.525,0,0,0,0,29.051h42.256a14.525,14.525,0,0,0,0-29.051Zm0,0" transform="translate(-170.877)" fill="#0a5936"/>
      <path id="Trazado_145616" data-name="Trazado 145616" d="M267.272,39.615A19.807,19.807,0,1,1,287.08,19.807,19.808,19.808,0,0,1,267.272,39.615Zm0-34.333A14.525,14.525,0,1,0,281.8,19.807,14.525,14.525,0,0,0,267.272,5.282Zm0,0" transform="translate(-170.877)" fill="#0a5936"/>
      <path id="Trazado_145617" data-name="Trazado 145617" d="M416.984,52.692a2.632,2.632,0,0,1-1.867-.774L401.912,38.713a2.641,2.641,0,0,1,3.734-3.734l13.205,13.205a2.641,2.641,0,0,1-1.868,4.508Zm0,0" transform="translate(-277.012 -23.641)" fill="#0a5936"/>
      <path id="Trazado_145618" data-name="Trazado 145618" d="M309.529,193.216H267.272a19.807,19.807,0,1,1,0-39.615h42.256a19.807,19.807,0,0,1,0,39.615Zm-42.256-34.333a14.526,14.526,0,0,0,0,29.051h42.256a14.526,14.526,0,0,0,0-29.051Zm0,0" transform="translate(-170.877 -106.063)" fill="#0a5936"/>
      <path id="Trazado_145619" data-name="Trazado 145619" d="M403.807,193.216a19.807,19.807,0,1,1,19.807-19.807A19.808,19.808,0,0,1,403.807,193.216Zm0-34.333a14.526,14.526,0,1,0,14.525,14.525A14.525,14.525,0,0,0,403.807,158.883Zm0,0" transform="translate(-265.156 -106.063)" fill="#0a5936"/>
      <path id="Trazado_145620" data-name="Trazado 145620" d="M403.71,52.692a2.641,2.641,0,0,1-1.868-4.508l13.205-13.205a2.641,2.641,0,0,1,3.734,3.734L405.577,51.919A2.632,2.632,0,0,1,403.71,52.692Zm0,0" transform="translate(-276.942 -23.641)" fill="#0a5936"/>
      <path id="Trazado_145621" data-name="Trazado 145621" d="M309.529,346.814H267.272a19.807,19.807,0,1,1,0-39.615h42.256a19.807,19.807,0,0,1,0,39.615Zm-42.256-34.333a14.525,14.525,0,0,0,0,29.051h42.256a14.525,14.525,0,0,0,0-29.051Zm0,0" transform="translate(-170.877 -212.124)" fill="#0a5936"/>
      <path id="Trazado_145622" data-name="Trazado 145622" d="M267.272,346.814a19.807,19.807,0,1,1,19.807-19.807A19.808,19.808,0,0,1,267.272,346.814Zm0-34.333A14.525,14.525,0,1,0,281.8,327.007,14.526,14.526,0,0,0,267.272,312.481Zm0,0" transform="translate(-170.877 -212.124)" fill="#0a5936"/>
      <path id="Trazado_145623" data-name="Trazado 145623" d="M416.984,359.893a2.632,2.632,0,0,1-1.867-.774l-13.205-13.205a2.641,2.641,0,0,1,3.734-3.734l13.205,13.205a2.641,2.641,0,0,1-1.868,4.508Zm0,0" transform="translate(-277.012 -235.766)" fill="#0a5936"/>
      <path id="Trazado_145624" data-name="Trazado 145624" d="M403.71,359.893a2.641,2.641,0,0,1-1.868-4.508l13.205-13.205a2.641,2.641,0,0,1,3.734,3.734l-13.205,13.205A2.632,2.632,0,0,1,403.71,359.893Zm0,0" transform="translate(-276.942 -235.766)" fill="#0a5936"/>
      <path id="Trazado_145625" data-name="Trazado 145625" d="M298.129,206.292a2.628,2.628,0,0,1-1.868-.774l-5.282-5.282a2.641,2.641,0,0,1,3.734-3.734l3.415,3.415,11.337-11.338a2.641,2.641,0,0,1,3.734,3.734L300,205.519A2.627,2.627,0,0,1,298.129,206.292Zm0,0" transform="translate(-200.412 -129.704)" fill="#fff"/>
      <path id="Trazado_145626" data-name="Trazado 145626" d="M68.666,39.415H2.642a2.641,2.641,0,1,1,0-5.282H68.666a2.641,2.641,0,0,1,0,5.282Zm0,0" transform="translate(0 -23.569)" fill="#0a5936"/>
      <path id="Trazado_145627" data-name="Trazado 145627" d="M36.973,73.548H2.642a2.641,2.641,0,1,1,0-5.282H36.973a2.641,2.641,0,1,1,0,5.282Zm0,0" transform="translate(0 -47.138)" fill="#0a5936"/>
      <path id="Trazado_145628" data-name="Trazado 145628" d="M158.272,73.548H147.708a2.641,2.641,0,1,1,0-5.282h10.564a2.641,2.641,0,0,1,0,5.282Zm0,0" transform="translate(-100.17 -47.138)" fill="#0a5936"/>
      <path id="Trazado_145629" data-name="Trazado 145629" d="M68.666,193.016H2.642a2.641,2.641,0,1,1,0-5.282H68.666a2.641,2.641,0,0,1,0,5.282Zm0,0" transform="translate(0 -129.632)" fill="#0a5936"/>
      <path id="Trazado_145630" data-name="Trazado 145630" d="M36.973,227.149H2.642a2.641,2.641,0,1,1,0-5.282H36.973a2.641,2.641,0,1,1,0,5.282Zm0,0" transform="translate(0 -153.201)" fill="#0a5936"/>
      <path id="Trazado_145631" data-name="Trazado 145631" d="M158.272,227.149H147.708a2.641,2.641,0,1,1,0-5.282h10.564a2.641,2.641,0,0,1,0,5.282Zm0,0" transform="translate(-100.17 -153.201)" fill="#0a5936"/>
      <path id="Trazado_145632" data-name="Trazado 145632" d="M68.666,346.614H2.642a2.641,2.641,0,1,1,0-5.282H68.666a2.641,2.641,0,0,1,0,5.282Zm0,0" transform="translate(0 -235.693)" fill="#0a5936"/>
      <path id="Trazado_145633" data-name="Trazado 145633" d="M36.973,380.748H2.642a2.642,2.642,0,0,1,0-5.283H36.973a2.642,2.642,0,0,1,0,5.283Zm0,0" transform="translate(0 -259.262)" fill="#0a5936"/>
      <path id="Trazado_145634" data-name="Trazado 145634" d="M158.272,380.748H147.708a2.642,2.642,0,0,1,0-5.283h10.564a2.642,2.642,0,0,1,0,5.283Zm0,0" transform="translate(-100.17 -259.262)" fill="#0a5936"/>
    </g>
  </g>
</svg>
