<svg xmlns="http://www.w3.org/2000/svg" width="241" height="198" viewBox="0 0 241 198">
  <g id="Grupo_99288" data-name="Grupo 99288" transform="translate(-3642 8285)">
    <g id="Grupo_99244" data-name="Grupo 99244" transform="translate(2637.5 -11597)">
      <g id="Grupo_98029" data-name="Grupo 98029" transform="translate(726.581 2778)">
        <rect id="Rectángulo_32944" data-name="Rectángulo 32944" width="241" height="198" transform="translate(277.919 534)" fill="#d7fced"/>
      </g>
    </g>
    <g id="sale-report" transform="translate(3691 -8250.234)">
      <g id="Layer_22" data-name="Layer 22" transform="translate(3.246 3.246)">
        <path id="Trazado_144988" data-name="Trazado 144988" d="M2,2H112.04V136.743H2Z" transform="translate(-2 -2)" fill="#c8cded"/>
        <path id="Trazado_144989" data-name="Trazado 144989" d="M105.3,127.76V2H2V127.76Z" transform="translate(-2 -2)" fill="#e2e7f6"/>
        <ellipse id="Elipse_4667" data-name="Elipse 4667" cx="20.5" cy="20" rx="20.5" ry="20" transform="translate(8.754 24.988)" fill="#f1d54e"/>
        <path id="Trazado_144990" data-name="Trazado 144990" d="M35.211,33.211H15V13A20.211,20.211,0,0,1,35.211,33.211Z" transform="translate(14.194 11.703)" fill="#f0ae42"/>
        <path id="Trazado_144991" data-name="Trazado 144991" d="M39,32H90.651V90.389H39Z" transform="translate(44.091 35.371)" fill="#f4a93c"/>
        <path id="Trazado_144992" data-name="Trazado 144992" d="M83.914,81.406V32H39V83.651H81.669A2.246,2.246,0,0,0,83.914,81.406Z" transform="translate(44.091 35.371)" fill="#f1d54e"/>
        <path id="Trazado_144993" data-name="Trazado 144993" d="M71.949,41.966H67.457V37.474a8.983,8.983,0,0,0-17.966,0v4.491H45V37.474a13.474,13.474,0,1,1,26.949,0Z" transform="translate(51.566 25.406)" fill="#686868"/>
        <path id="Trazado_144994" data-name="Trazado 144994" d="M68.9,2v8.983H15V2" transform="translate(14.194 -2)" fill="#5cd8a0"/>
        <path id="Trazado_144995" data-name="Trazado 144995" d="M64.406,4.246V2H15V6.491H62.16A2.246,2.246,0,0,0,64.406,4.246Z" transform="translate(14.194 -2)" fill="#d2f6e6"/>
        <path id="Trazado_144996" data-name="Trazado 144996" d="M6,51h8.983V66.72H6Z" transform="translate(2.983 59.04)" fill="#d2f6e6"/>
        <path id="Trazado_144997" data-name="Trazado 144997" d="M10.491,59.983V51H6V62.229H8.246A2.246,2.246,0,0,0,10.491,59.983Z" transform="translate(2.983 59.04)" fill="#5cd8a0"/>
        <path id="Trazado_144998" data-name="Trazado 144998" d="M14,46h8.983V72.949H14Z" transform="translate(12.949 52.812)" fill="#5cd8a0"/>
        <path id="Trazado_144999" data-name="Trazado 144999" d="M18.491,66.211V46H14V68.457h2.246A2.246,2.246,0,0,0,18.491,66.211Z" transform="translate(12.949 52.812)" fill="#5cd8a0"/>
        <path id="Trazado_145001" data-name="Trazado 145001" d="M26.491,71.194V42H22V73.44h2.246A2.246,2.246,0,0,0,26.491,71.194Z" transform="translate(22.914 47.829)" fill="#5cd8a0"/>
        <path id="Trazado_145002" data-name="Trazado 145002" d="M30,38h8.983V82.914H30Z" transform="translate(32.88 42.846)" fill="#5cd8a0"/>
        <path id="Trazado_145003" data-name="Trazado 145003" d="M34.491,76.177V38H30V78.423h2.246A2.246,2.246,0,0,0,34.491,76.177Z" transform="translate(32.88 42.846)" fill="#5cd8a0"/>
        <path id="Trazado_145004" data-name="Trazado 145004" d="M7.468,67.154,4.293,63.979l15.72-15.72a2.246,2.246,0,0,1,3.175,0l5.149,5.149L42.47,39.276a2.246,2.246,0,0,1,3.175,0L50.8,44.425,64.927,30.293,68.1,33.468l-15.72,15.72a2.246,2.246,0,0,1-3.175,0l-5.149-5.149L29.926,58.171a2.246,2.246,0,0,1-3.175,0L21.6,53.022Z" transform="translate(0.856 33.245)" fill="#6bc13b"/>
        <path id="Trazado_145005" data-name="Trazado 145005" d="M59.481,55.436V42.15a6.737,6.737,0,0,1,4.491,6.324h4.491a11.249,11.249,0,0,0-8.983-11V35H54.989v2.47a11.229,11.229,0,0,0,0,22.008V72.766A6.737,6.737,0,0,1,50.5,66.44H46.006a11.249,11.249,0,0,0,8.983,11v2.47h4.491v-2.47a11.229,11.229,0,0,0,0-22.008ZM50.5,48.474a6.737,6.737,0,0,1,4.491-6.324V54.8A6.737,6.737,0,0,1,50.5,48.474Zm8.983,24.29V60.116a6.7,6.7,0,0,1,0,12.648Z" transform="translate(52.805 39.109)" fill="#fce797"/>
        <g id="Grupo_99262" data-name="Grupo 99262" transform="translate(56.143 26.949)">
          <path id="Trazado_145006" data-name="Trazado 145006" d="M31,14H55.7v4.491H31Z" transform="translate(-22.017 -14)" fill="#9da1bf"/>
          <path id="Trazado_145007" data-name="Trazado 145007" d="M44,14h8.983v4.491H44Z" transform="translate(-5.823 -14)" fill="#9da1bf"/>
          <path id="Trazado_145008" data-name="Trazado 145008" d="M27,18H74.16v4.491H27Z" transform="translate(-27 -9.017)" fill="#9da1bf"/>
          <path id="Trazado_145009" data-name="Trazado 145009" d="M27,22H74.16v4.491H27Z" transform="translate(-27 -4.034)" fill="#9da1bf"/>
        </g>
      </g>
      <g id="Layer_32" data-name="Layer 32" transform="translate(1 1)">
        <path id="Trazado_145010" data-name="Trazado 145010" d="M137.989,68.371H126.76V66.126a13.488,13.488,0,0,0-11.229-13.272V3.246A2.246,2.246,0,0,0,113.286,1H3.246A2.246,2.246,0,0,0,1,3.246V137.989a2.246,2.246,0,0,0,2.246,2.246h110.04a2.246,2.246,0,0,0,2.246-2.246v-6.737h22.457a2.246,2.246,0,0,0,2.246-2.246V70.617A2.246,2.246,0,0,0,137.989,68.371Zm-15.72-2.246v2.246h-6.737V57.462A8.983,8.983,0,0,1,122.269,66.126ZM111.04,68.371H104.3V66.126a8.983,8.983,0,0,1,6.737-8.664ZM34.686,5.491H84.091V9.983H34.686ZM111.04,135.743H5.491V5.491h24.7v6.737a2.246,2.246,0,0,0,2.246,2.246h53.9a2.246,2.246,0,0,0,2.246-2.246V5.491H111.04V52.854A13.488,13.488,0,0,0,99.812,66.126v2.246H86.337a2.246,2.246,0,0,0-2.246,2.246v58.389a2.246,2.246,0,0,0,2.246,2.246h24.7Zm24.7-8.983H88.583v-53.9h47.16Z" transform="translate(-1 -1)" fill="#0a5936"/>
        <path id="Trazado_145011" data-name="Trazado 145011" d="M27.457,56.914A22.457,22.457,0,1,0,5,34.457,22.457,22.457,0,0,0,27.457,56.914Zm17.811-24.7H29.7V16.646A17.984,17.984,0,0,1,45.268,32.211ZM25.211,16.646V34.457A2.246,2.246,0,0,0,27.457,36.7H45.268A17.966,17.966,0,1,1,25.211,16.646Z" transform="translate(3.983 12.703)" fill="#0a5936"/>
        <path id="Trazado_145012" data-name="Trazado 145012" d="M16.229,50H7.246A2.246,2.246,0,0,0,5,52.246v15.72a2.246,2.246,0,0,0,2.246,2.246h8.983a2.246,2.246,0,0,0,2.246-2.246V52.246A2.246,2.246,0,0,0,16.229,50ZM13.983,65.72H9.491V54.491h4.491Z" transform="translate(3.983 60.04)" fill="#0a5936"/>
        <path id="Trazado_145013" data-name="Trazado 145013" d="M24.229,45H15.246A2.246,2.246,0,0,0,13,47.246V74.194a2.246,2.246,0,0,0,2.246,2.246h8.983a2.246,2.246,0,0,0,2.246-2.246V47.246A2.246,2.246,0,0,0,24.229,45ZM21.983,71.949H17.491V49.491h4.491Z" transform="translate(13.949 53.811)" fill="#0a5936"/>
        <path id="Trazado_145014" data-name="Trazado 145014" d="M32.229,41H23.246A2.246,2.246,0,0,0,21,43.246V79.177a2.246,2.246,0,0,0,2.246,2.246h8.983a2.246,2.246,0,0,0,2.246-2.246V43.246A2.246,2.246,0,0,0,32.229,41ZM29.983,76.931H25.491V45.491h4.491Z" transform="translate(23.914 48.829)" fill="#0a5936"/>
        <path id="Trazado_145015" data-name="Trazado 145015" d="M40.229,37H31.246A2.246,2.246,0,0,0,29,39.246V84.16a2.246,2.246,0,0,0,2.246,2.246h8.983a2.246,2.246,0,0,0,2.246-2.246V39.246A2.246,2.246,0,0,0,40.229,37ZM37.983,81.914H33.491V41.491h4.491Z" transform="translate(33.88 43.846)" fill="#0a5936"/>
        <path id="Trazado_145016" data-name="Trazado 145016" d="M29.926,58.171,44.058,44.039l5.149,5.149a2.246,2.246,0,0,0,3.175,0L68.1,33.468l-3.175-3.175L50.8,44.425l-5.149-5.149a2.246,2.246,0,0,0-3.175,0L28.338,53.408l-5.149-5.149a2.246,2.246,0,0,0-3.175,0L4.293,63.979l3.175,3.175L21.6,53.022l5.149,5.149a2.246,2.246,0,0,0,3.175,0Z" transform="translate(3.102 35.491)" fill="#0a5936"/>
        <path id="Trazado_145017" data-name="Trazado 145017" d="M50.5,66.44H46.006a11.249,11.249,0,0,0,8.983,11v2.47h4.491v-2.47a11.229,11.229,0,0,0,0-22.008V42.15a6.737,6.737,0,0,1,4.491,6.324h4.491a11.249,11.249,0,0,0-8.983-11V35H54.989v2.47a11.229,11.229,0,0,0,0,22.008V72.766A6.737,6.737,0,0,1,50.5,66.44Zm13.474,0a6.737,6.737,0,0,1-4.491,6.324V60.116a6.737,6.737,0,0,1,4.491,6.324ZM50.5,48.474a6.737,6.737,0,0,1,4.491-6.324V54.8A6.737,6.737,0,0,1,50.5,48.474Z" transform="translate(55.051 41.354)" fill="#0a5936"/>
        <path id="Trazado_145018" data-name="Trazado 145018" d="M31,14H55.7v4.491H31Z" transform="translate(36.371 15.194)" fill="#0a5936"/>
        <path id="Trazado_145019" data-name="Trazado 145019" d="M44,14h8.983v4.491H44Z" transform="translate(52.566 15.194)" fill="#0a5936"/>
        <path id="Trazado_145020" data-name="Trazado 145020" d="M27,18H74.16v4.491H27Z" transform="translate(31.389 20.177)" fill="#0a5936"/>
        <path id="Trazado_145021" data-name="Trazado 145021" d="M27,22H74.16v4.491H27Z" transform="translate(31.389 25.16)" fill="#0a5936"/>
      </g>
    </g>
  </g>
</svg>
