<svg xmlns="http://www.w3.org/2000/svg" width="338" height="257" viewBox="0 0 338 257">
  <g id="Grupo_99140" data-name="Grupo 99140" transform="translate(-3314 10207)">
    <rect id="Rectángulo_33524" data-name="Rectángulo 33524" width="338" height="257" transform="translate(3314 -10207)" fill="none"/>
    <g id="Grupo_99138" data-name="Grupo 99138" transform="translate(2974.696 -10310.642)">
      <g id="Grupo_99130" data-name="Grupo 99130" transform="translate(376.01 157.53)">
        <g id="Grupo_99114" data-name="Grupo 99114" transform="translate(203.918 -39.904)">
          <rect id="Rectángulo_33525" data-name="Rectángulo 33525" width="73.121" height="122.854" transform="translate(75.413 122.854) rotate(180)" fill="#aed3ff"/>
          <rect id="Rectángulo_33526" data-name="Rectángulo 33526" width="73.121" height="122.854" fill="#f1d54e"/>
          <rect id="Rectángulo_33527" data-name="Rectángulo 33527" width="63.335" height="42.792" transform="translate(4.98 6.863)" fill="#f3f9ff"/>
          <rect id="Rectángulo_33528" data-name="Rectángulo 33528" width="33.992" height="22.848" transform="translate(33.231 89.812)" fill="#f3f9ff"/>
          <path id="Trazado_144433" data-name="Trazado 144433" d="M2713.473,623.242s10.814-1.347,17.422,4.74,18.918.539,23.874,0c8.618-.938,15.374,1.881,17.377,4.981v9.3h-58.673Z" transform="translate(-2705.882 -594.538)" fill="#ee9849"/>
          <rect id="Rectángulo_33529" data-name="Rectángulo 33529" width="0.453" height="14.518" transform="translate(15.973 13.741)" fill="#a6c7f9"/>
          <rect id="Rectángulo_33530" data-name="Rectángulo 33530" width="0.453" height="14.518" transform="translate(33.756 19.971)" fill="#a6c7f9"/>
          <rect id="Rectángulo_33531" data-name="Rectángulo 33531" width="0.453" height="14.518" transform="translate(52.106 16.686)" fill="#a6c7f9"/>
          <path id="Trazado_144434" data-name="Trazado 144434" d="M2815.407,493.363h-3.474a.379.379,0,0,1-.377-.378h0a.378.378,0,0,1,.377-.378h3.474a.378.378,0,0,1,.377.378h0A.378.378,0,0,1,2815.407,493.363Z" transform="translate(-2793.922 -477.394)" fill="#a6c7f9"/>
          <path id="Trazado_144435" data-name="Trazado 144435" d="M2815.407,506.637h-3.474a.378.378,0,0,1-.377-.378h0a.379.379,0,0,1,.377-.378h3.474a.379.379,0,0,1,.377.378h0A.378.378,0,0,1,2815.407,506.637Z" transform="translate(-2793.922 -489.309)" fill="#a6c7f9"/>
          <path id="Trazado_144436" data-name="Trazado 144436" d="M2986.5,565.635h-3.474a.379.379,0,0,1-.378-.378h0a.379.379,0,0,1,.378-.378h3.474a.379.379,0,0,1,.377.378h0A.379.379,0,0,1,2986.5,565.635Z" transform="translate(-2947.495 -542.266)" fill="#a6c7f9"/>
          <path id="Trazado_144437" data-name="Trazado 144437" d="M2986.5,578.636h-3.474a.379.379,0,0,1-.378-.378h0a.379.379,0,0,1,.378-.377h3.474a.379.379,0,0,1,.377.377h0A.379.379,0,0,1,2986.5,578.636Z" transform="translate(-2947.495 -553.936)" fill="#a6c7f9"/>
          <path id="Trazado_144438" data-name="Trazado 144438" d="M3168.655,512.168h-3.474a.379.379,0,0,1-.377-.378h0a.379.379,0,0,1,.377-.378h3.474a.379.379,0,0,1,.377.378h0A.379.379,0,0,1,3168.655,512.168Z" transform="translate(-3110.999 -494.274)" fill="#a6c7f9"/>
          <path id="Trazado_144439" data-name="Trazado 144439" d="M3168.655,525.17h-3.474a.379.379,0,0,1-.377-.378h0a.379.379,0,0,1,.377-.378h3.474a.379.379,0,0,1,.377.378h0A.379.379,0,0,1,3168.655,525.17Z" transform="translate(-3110.999 -505.944)" fill="#a6c7f9"/>
          <g id="Grupo_99108" data-name="Grupo 99108" transform="translate(55.808 54.348)">
            <path id="Trazado_144440" data-name="Trazado 144440" d="M3184.363,881.051a6.254,6.254,0,1,1,6.254,6.254A6.254,6.254,0,0,1,3184.363,881.051Z" transform="translate(-3184.363 -874.797)" fill="#f3f9ff"/>
            <path id="Trazado_144441" data-name="Trazado 144441" d="M3217.245,885.7a5.723,5.723,0,0,1-9.592,4.218l3.869-4.218v-5.723A5.723,5.723,0,0,1,3217.245,885.7Z" transform="translate(-3205.269 -879.444)" fill="#c65447"/>
            <path id="Trazado_144442" data-name="Trazado 144442" d="M3204.623,923h-2.055a.173.173,0,0,1-.173-.172h0a.173.173,0,0,1,.173-.172h2.055a.172.172,0,0,1,.172.172h0A.173.173,0,0,1,3204.623,923Z" transform="translate(-3200.548 -917.759)" fill="#a6c7f9"/>
          </g>
          <g id="Grupo_99109" data-name="Grupo 99109" transform="translate(40.281 54.348)">
            <circle id="Elipse_4642" data-name="Elipse 4642" cx="6.254" cy="6.254" r="6.254" transform="translate(0 0)" fill="#f3f9ff"/>
            <path id="Trazado_144443" data-name="Trazado 144443" d="M3043.626,885.7l3.517,4.516a5.724,5.724,0,1,1,2.183-5.038Z" transform="translate(-3037.373 -879.444)" fill="#e57970"/>
            <path id="Trazado_144444" data-name="Trazado 144444" d="M3122.8,946.672h-1.431a.173.173,0,0,1-.172-.172h0a.173.173,0,0,1,.172-.172h1.431a.172.172,0,0,1,.172.172h0A.172.172,0,0,1,3122.8,946.672Z" transform="translate(-3112.138 -939.004)" fill="#a6c7f9"/>
          </g>
          <g id="Grupo_99110" data-name="Grupo 99110" transform="translate(55.808 71.572)">
            <path id="Trazado_144445" data-name="Trazado 144445" d="M3184.363,1049.264a6.254,6.254,0,1,1,6.254,6.254A6.254,6.254,0,0,1,3184.363,1049.264Z" transform="translate(-3184.363 -1043.01)" fill="#f3f9ff"/>
            <path id="Trazado_144446" data-name="Trazado 144446" d="M3217.245,1053.91a5.723,5.723,0,0,1-9.592,4.218l3.869-4.218v-5.724A5.724,5.724,0,0,1,3217.245,1053.91Z" transform="translate(-3205.269 -1047.656)" fill="#ee9849"/>
            <path id="Trazado_144447" data-name="Trazado 144447" d="M3204.623,1091.216h-2.055a.173.173,0,0,1-.173-.172h0a.173.173,0,0,1,.173-.172h2.055a.172.172,0,0,1,.172.172h0A.173.173,0,0,1,3204.623,1091.216Z" transform="translate(-3200.548 -1085.971)" fill="#a6c7f9"/>
          </g>
          <g id="Grupo_99111" data-name="Grupo 99111" transform="translate(40.281 71.572)">
            <path id="Trazado_144448" data-name="Trazado 144448" d="M3032.729,1049.264a6.254,6.254,0,1,1,6.254,6.254A6.254,6.254,0,0,1,3032.729,1049.264Z" transform="translate(-3032.729 -1043.01)" fill="#f3f9ff"/>
            <path id="Trazado_144449" data-name="Trazado 144449" d="M3049.326,1053.387a5.723,5.723,0,1,0-2.183,5.039l-3.517-4.516Z" transform="translate(-3037.373 -1047.656)" fill="#c65447"/>
            <path id="Trazado_144450" data-name="Trazado 144450" d="M3122.8,1114.885h-1.431a.173.173,0,0,1-.172-.172h0a.173.173,0,0,1,.172-.172h1.431a.172.172,0,0,1,.172.172h0A.173.173,0,0,1,3122.8,1114.885Z" transform="translate(-3112.137 -1107.217)" fill="#a6c7f9"/>
          </g>
          <g id="Grupo_99112" data-name="Grupo 99112" transform="translate(34.557 92.628)">
            <path id="Trazado_144451" data-name="Trazado 144451" d="M3008.027,1267.083h-31.2v-18.435h.388v18.047h30.813Z" transform="translate(-2976.827 -1248.647)" fill="#a6c7f9"/>
          </g>
          <g id="Grupo_99113" data-name="Grupo 99113" transform="translate(36.43 93.38)">
            <path id="Trazado_144452" data-name="Trazado 144452" d="M3002.994,1291.366c-3.82-3.04-7.881,0-7.881,0v5.2h28.554v-13.436C3015.907,1283.324,3006.814,1294.406,3002.994,1291.366Z" transform="translate(-2995.113 -1280.349)" fill="#a6c7f9"/>
            <path id="Trazado_144453" data-name="Trazado 144453" d="M2995.44,1256.645h13.3a.327.327,0,1,0,0-.654h-13.3a.327.327,0,1,0,0,.654Z" transform="translate(-2995.113 -1255.991)" fill="#a6c7f9"/>
            <path id="Trazado_144454" data-name="Trazado 144454" d="M2995.44,1272.246h13.3a.327.327,0,1,0,0-.654h-13.3a.327.327,0,1,0,0,.654Z" transform="translate(-2995.113 -1269.995)" fill="#a6c7f9"/>
            <path id="Rectángulo_33532" data-name="Rectángulo 33532" d="M.327,0H9.018a.327.327,0,0,1,.327.327v0a.327.327,0,0,1-.327.327H.327A.327.327,0,0,1,0,.327v0A.327.327,0,0,1,.327,0Z" transform="translate(0 3.106)" fill="#a6c7f9"/>
          </g>
        </g>
        <g id="Grupo_99119" data-name="Grupo 99119" transform="translate(91.772 0)">
          <rect id="Rectángulo_33533" data-name="Rectángulo 33533" width="100.048" height="150.884" fill="#f1d54e"/>
          <rect id="Rectángulo_33534" data-name="Rectángulo 33534" width="80.55" height="89.783" transform="translate(9.667 8.44)" fill="#f3f9ff"/>
          <circle id="Elipse_4643" data-name="Elipse 4643" cx="14.487" cy="14.487" r="14.487" transform="translate(5.379 126.908) rotate(-45)" fill="#f3f9ff"/>
          <path id="Trazado_144455" data-name="Trazado 144455" d="M1701.6,1289.585a12.245,12.245,0,1,0-4.818,9.736l-7.427-9.736,11.443,4.368A12.228,12.228,0,0,0,1701.6,1289.585Z" transform="translate(-1663.491 -1162.677)" fill="#ee9849"/>
          <circle id="Elipse_4644" data-name="Elipse 4644" cx="14.487" cy="14.487" r="14.487" transform="translate(57.796 137.679) rotate(-76.718)" fill="#f3f9ff"/>
          <path id="Trazado_144456" data-name="Trazado 144456" d="M2171.392,1277.339a12.245,12.245,0,0,0-8.727,20.836l8.727-8.59,11.443,4.368a12.254,12.254,0,0,0-11.443-16.613Z" transform="translate(-2096.168 -1162.677)" fill="#ee9849"/>
          <g id="Grupo_99115" data-name="Grupo 99115" transform="translate(67.849 120.691)">
            <path id="Trazado_144457" data-name="Trazado 144457" d="M2212.305,1336.222h-5.213a.373.373,0,0,0-.372.372h0a.373.373,0,0,0,.372.372h5.213a.373.373,0,0,0,.372-.372h0A.373.373,0,0,0,2212.305,1336.222Z" transform="translate(-2206.72 -1336.222)" fill="#dd7c2c"/>
            <path id="Trazado_144458" data-name="Trazado 144458" d="M2212.305,1347.736h-5.213a.372.372,0,0,0,0,.745h5.213a.372.372,0,0,0,0-.745Z" transform="translate(-2206.72 -1346.557)" fill="#dd7c2c"/>
            <path id="Trazado_144459" data-name="Trazado 144459" d="M2209.245,1359.252h-2.152a.372.372,0,0,0,0,.745h2.152a.372.372,0,1,0,0-.745Z" transform="translate(-2206.72 -1356.894)" fill="#dd7c2c"/>
          </g>
          <g id="Grupo_99116" data-name="Grupo 99116" transform="translate(18.391 120.691)">
            <path id="Trazado_144460" data-name="Trazado 144460" d="M1729.288,1336.222h-5.213a.373.373,0,0,0-.372.372h0a.373.373,0,0,0,.372.372h5.213a.373.373,0,0,0,.372-.372h0A.373.373,0,0,0,1729.288,1336.222Z" transform="translate(-1723.703 -1336.222)" fill="#dd7c2c"/>
            <path id="Trazado_144461" data-name="Trazado 144461" d="M1729.288,1347.736h-5.213a.372.372,0,0,0,0,.745h5.213a.372.372,0,0,0,0-.745Z" transform="translate(-1723.703 -1346.557)" fill="#dd7c2c"/>
            <path id="Trazado_144462" data-name="Trazado 144462" d="M1726.228,1359.252h-2.153a.372.372,0,0,0,0,.745h2.153a.372.372,0,0,0,0-.745Z" transform="translate(-1723.703 -1356.894)" fill="#dd7c2c"/>
          </g>
          <g id="Grupo_99117" data-name="Grupo 99117" transform="translate(16.84 25.767)">
            <rect id="Rectángulo_33535" data-name="Rectángulo 33535" width="8.5" height="52.95" transform="translate(0 14.759)" fill="#a6c7f9"/>
            <rect id="Rectángulo_33536" data-name="Rectángulo 33536" width="8.5" height="67.709" transform="translate(13.925)" fill="#a6c7f9"/>
            <rect id="Rectángulo_33537" data-name="Rectángulo 33537" width="8.5" height="40.145" transform="translate(29.12 27.564)" fill="#a6c7f9"/>
            <rect id="Rectángulo_33538" data-name="Rectángulo 33538" width="8.5" height="58.669" transform="translate(43.906 9.04)" fill="#a6c7f9"/>
            <rect id="Rectángulo_33539" data-name="Rectángulo 33539" width="8.5" height="32.287" transform="translate(58.768 35.422)" fill="#a6c7f9"/>
          </g>
          <g id="Grupo_99118" data-name="Grupo 99118" transform="translate(31.236 15.642)">
            <path id="Trazado_144463" data-name="Trazado 144463" d="M2146.786,422.915h-7.2a.745.745,0,0,0,0,1.489h7.2a.745.745,0,1,0,0-1.489Z" transform="translate(-2109.181 -411.383)" fill="#a6c7f9"/>
            <path id="Trazado_144464" data-name="Trazado 144464" d="M2141.227,449.378h-1.64a.745.745,0,0,0,0,1.489h1.64a.745.745,0,0,0,0-1.489Z" transform="translate(-2109.181 -435.136)" fill="#a6c7f9"/>
            <path id="Trazado_144465" data-name="Trazado 144465" d="M1857.1,310.292h-7.2a.745.745,0,1,0,0,1.489h7.2a.745.745,0,1,0,0-1.489Z" transform="translate(-1849.154 -310.292)" fill="#a6c7f9"/>
            <path id="Trazado_144466" data-name="Trazado 144466" d="M1851.538,336.755H1849.9a.747.747,0,0,0-.745.745h0a.747.747,0,0,0,.745.745h1.639a.747.747,0,0,0,.745-.745h0A.747.747,0,0,0,1851.538,336.755Z" transform="translate(-1849.154 -334.045)" fill="#a6c7f9"/>
            <path id="Trazado_144467" data-name="Trazado 144467" d="M1999.97,601.192h-7.2a.745.745,0,1,0,0,1.489h7.2a.745.745,0,0,0,0-1.489Z" transform="translate(-1977.398 -571.406)" fill="#a6c7f9"/>
            <path id="Trazado_144468" data-name="Trazado 144468" d="M1994.411,627.656h-1.639a.747.747,0,0,0-.745.745h0a.747.747,0,0,0,.745.745h1.639a.747.747,0,0,0,.744-.745h0A.747.747,0,0,0,1994.411,627.656Z" transform="translate(-1977.398 -595.16)" fill="#a6c7f9"/>
            <path id="Trazado_144469" data-name="Trazado 144469" d="M2289.516,678.373h-7.2a.745.745,0,1,0,0,1.489h7.2a.745.745,0,0,0,0-1.489Z" transform="translate(-2237.296 -640.684)" fill="#a6c7f9"/>
            <path id="Trazado_144470" data-name="Trazado 144470" d="M2283.957,704.837h-1.639a.745.745,0,1,0,0,1.489h1.639a.745.745,0,1,0,0-1.489Z" transform="translate(-2237.296 -664.438)" fill="#a6c7f9"/>
          </g>
        </g>
        <g id="Grupo_99123" data-name="Grupo 99123" transform="translate(5.15 34.277)">
          <rect id="Rectángulo_33540" data-name="Rectángulo 33540" width="73.121" height="41.165" fill="#aed3ff"/>
          <rect id="Rectángulo_33541" data-name="Rectángulo 33541" width="73.121" height="41.165" transform="translate(2.378)" fill="#f1d54e"/>
          <circle id="Elipse_4645" data-name="Elipse 4645" cx="13.221" cy="13.221" r="13.221" transform="translate(3.678 19.652) rotate(-45)" fill="#f3f9ff"/>
          <g id="Grupo_99120" data-name="Grupo 99120" transform="translate(43.933 12.267)">
            <path id="Trazado_144471" data-name="Trazado 144471" d="M1150.536,835.892h-21.9a1.447,1.447,0,0,0-1.443,1.443h0a1.448,1.448,0,0,0,1.443,1.443h21.9a1.448,1.448,0,0,0,1.443-1.443h0A1.447,1.447,0,0,0,1150.536,835.892Z" transform="translate(-1127.191 -835.892)" fill="#f3f9ff"/>
            <path id="Trazado_144472" data-name="Trazado 144472" d="M1150.536,893.927h-21.9a1.448,1.448,0,0,0-1.443,1.443h0a1.447,1.447,0,0,0,1.443,1.443h21.9a1.447,1.447,0,0,0,1.443-1.443h0A1.448,1.448,0,0,0,1150.536,893.927Z" transform="translate(-1127.191 -887.985)" fill="#f3f9ff"/>
            <path id="Trazado_144473" data-name="Trazado 144473" d="M1150.536,951.962h-21.9a1.443,1.443,0,1,0,0,2.886h21.9a1.443,1.443,0,1,0,0-2.886Z" transform="translate(-1127.191 -940.077)" fill="#f3f9ff"/>
          </g>
          <path id="Trazado_144474" data-name="Trazado 144474" d="M798.435,800.031H810.54v-12.1A12.105,12.105,0,0,0,798.435,800.031Z" transform="translate(-788.164 -780.571)" fill="#a8d29f"/>
          <path id="Trazado_144475" data-name="Trazado 144475" d="M822.645,909.951h-24.21a12.106,12.106,0,0,0,12.1,12.105h0A12.106,12.106,0,0,0,822.645,909.951Z" transform="translate(-788.164 -890.101)" fill="#f1a34f"/>
          <g id="Grupo_99121" data-name="Grupo 99121" transform="translate(13.036 13.237)">
            <path id="Trazado_144476" data-name="Trazado 144476" d="M832.687,845.367h-6.57a.68.68,0,1,0,0,1.359h6.57a.68.68,0,0,0,0-1.359Z" transform="translate(-825.438 -845.367)" fill="#82b378"/>
            <path id="Trazado_144477" data-name="Trazado 144477" d="M827.614,869.52h-1.5a.68.68,0,1,0,0,1.359h1.5a.68.68,0,1,0,0-1.359Z" transform="translate(-825.438 -867.047)" fill="#82b378"/>
          </g>
          <g id="Grupo_99122" data-name="Grupo 99122" transform="translate(22.789 22.809)">
            <path id="Trazado_144478" data-name="Trazado 144478" d="M927.941,938.852h-6.57a.68.68,0,1,0,0,1.359h6.57a.68.68,0,0,0,0-1.359Z" transform="translate(-920.692 -938.852)" fill="#dd8936"/>
            <path id="Trazado_144479" data-name="Trazado 144479" d="M922.868,963h-1.5a.682.682,0,0,0-.68.68h0a.682.682,0,0,0,.68.68h1.5a.682.682,0,0,0,.68-.68h0A.682.682,0,0,0,922.868,963Z" transform="translate(-920.692 -960.53)" fill="#dd8936"/>
          </g>
        </g>
        <g id="Grupo_99129" data-name="Grupo 99129" transform="translate(0 -11.701)">
          <rect id="Rectángulo_33543" data-name="Rectángulo 33543" width="73.122" height="38.149" fill="#aed3ff"/>
          <rect id="Rectángulo_33544" data-name="Rectángulo 33544" width="73.121" height="38.149" transform="translate(2.378)" fill="#f1d54e"/>
          <circle id="Elipse_4647" data-name="Elipse 4647" cx="13.221" cy="13.221" r="13.221" transform="translate(3.677 19.635) rotate(-45)" fill="#f3f9ff"/>
          <path id="Trazado_144487" data-name="Trazado 144487" d="M760.238,351.191a12.105,12.105,0,0,0-5.809,22.725c1.939-3.592,5.809-10.621,5.809-10.621l5.732,10.663a12.105,12.105,0,0,0-5.732-22.767Z" transform="translate(-737.863 -343.66)" fill="#a8d29f"/>
          <g id="Grupo_99127" data-name="Grupo 99127" transform="translate(43.933 12.249)">
            <rect id="Rectángulo_33545" data-name="Rectángulo 33545" width="24.788" height="2.886" rx="1.443" fill="#f3f9ff"/>
            <path id="Trazado_144488" data-name="Trazado 144488" d="M1100.234,455.3h-21.9a1.443,1.443,0,0,0,0,2.886h21.9a1.443,1.443,0,1,0,0-2.886Z" transform="translate(-1076.889 -449.363)" fill="#f3f9ff"/>
            <path id="Trazado_144489" data-name="Trazado 144489" d="M1100.234,513.34h-21.9a1.443,1.443,0,0,0,0,2.886h21.9a1.443,1.443,0,1,0,0-2.886Z" transform="translate(-1076.889 -501.455)" fill="#f3f9ff"/>
          </g>
          <g id="Grupo_99128" data-name="Grupo 99128" transform="translate(15.572 13.854)">
            <path id="Trazado_144490" data-name="Trazado 144490" d="M807.158,412.94h-6.57a.68.68,0,0,0,0,1.359h6.57a.68.68,0,1,0,0-1.359Z" transform="translate(-799.909 -412.94)" fill="#82b378"/>
            <path id="Trazado_144491" data-name="Trazado 144491" d="M802.085,437.092h-1.5a.682.682,0,0,0-.68.68h0a.682.682,0,0,0,.68.68h1.5a.682.682,0,0,0,.68-.68h0A.682.682,0,0,0,802.085,437.092Z" transform="translate(-799.909 -434.619)" fill="#82b378"/>
          </g>
        </g>
      </g>
      <g id="Grupo_99131" data-name="Grupo 99131" transform="translate(448.973 220.941)">
        <path id="Trazado_144492" data-name="Trazado 144492" d="M1550.8,921.065s8.529,8.805,8.939,12.125-4.058,8.514-4.058,8.514Z" transform="translate(-1531.306 -906.295)" fill="#5cd8a0"/>
        <path id="Trazado_144493" data-name="Trazado 144493" d="M1414.389,1799.931s-.29,4.681-1.2,4.748c-.12.009-4.593.009-4.593.009l-5.71-.033a1.853,1.853,0,0,1,1.706-1.667c1.669-.291,4.463-1.464,5.473-3.67C1411.134,1797,1414.389,1799.931,1414.389,1799.931Z" transform="translate(-1398.539 -1693.818)" fill="#163560"/>
        <path id="Trazado_144494" data-name="Trazado 144494" d="M1538.438,1799.931s-.29,4.681-1.2,4.748c-.12.009-4.593.009-4.593.009l-5.727-.02a1.889,1.889,0,0,1,1.724-1.68c1.669-.291,4.463-1.464,5.474-3.67C1535.183,1797,1538.438,1799.931,1538.438,1799.931Z" transform="translate(-1509.871 -1693.818)" fill="#163560"/>
        <path id="Trazado_144495" data-name="Trazado 144495" d="M1453.433,1260.164s1.493,9.551,7.064,26.505,6.33,24.3,6.33,24.3a24.531,24.531,0,0,0,3.1.219,19.619,19.619,0,0,0,2.877-.386s.051-18.529-2.516-27.054-.554-30.736-.554-30.736Z" transform="translate(-1443.907 -1204.248)" fill="#163560"/>
        <path id="Trazado_144496" data-name="Trazado 144496" d="M1424.993,1258.116a231.835,231.835,0,0,0,2.278,32.064c2.49,17.671,1.646,25.173,1.646,25.173s2.05.367,2.77.391c.771.026,3.194-.193,3.194-.193s3.564-17.678,2.542-26.523,4.881-30.351,4.881-30.351Z" transform="translate(-1418.375 -1208.833)" fill="#1c468a"/>
        <path id="Trazado_144497" data-name="Trazado 144497" d="M1477.491,866.815l-2.813,2.083-4.065-.856c.056-.371.324-1.907.569-3.3.015-.082.029-.164.043-.244.209-1.184.39-2.2.39-2.2l3.8-1.893,1.416-.705c0,.025-.11,1.314-.124,1.5A12.156,12.156,0,0,0,1477.491,866.815Z" transform="translate(-1459.328 -851.213)" fill="#ffb27d"/>
        <path id="Trazado_144498" data-name="Trazado 144498" d="M1457.283,906.086c.089-.037,5.53-1.643,6.121-1.448s.941,1.339.941,1.339l-8.9,2.012A4.421,4.421,0,0,1,1457.283,906.086Z" transform="translate(-1445.714 -891.535)" fill="#e58638"/>
        <path id="Trazado_144499" data-name="Trazado 144499" d="M1435.65,954.062c-.922,4.207-16.272,4.706-20.228.887-.45-.435-.472-2.461-.3-5.192.332-5.335,1.4-13.361,1.44-17.461a32.437,32.437,0,0,1,.655-5.844,47.454,47.454,0,0,1,1.947-7s7.5-2.424,8.9-2.011C1434.819,919.43,1436.572,949.854,1435.65,954.062Z" transform="translate(-1409.428 -903.002)" fill="#5cd8a0"/>
        <path id="Trazado_144500" data-name="Trazado 144500" d="M1415.976,1022.151c.332-5.335,1.4-13.361,1.44-17.461a32.447,32.447,0,0,1,.655-5.844l4.51-.8S1426.99,1016.059,1415.976,1022.151Z" transform="translate(-1410.285 -975.396)" fill="#15ac68"/>
        <path id="Trazado_144501" data-name="Trazado 144501" d="M1428.568,1154.658a1.062,1.062,0,0,1-.338,1.228,2.058,2.058,0,0,0-.917,1.877c.148.584,1.564,1.537,2.055,1.384s1.49-.923,1.383-1.231.672-2.7-.525-3.626A.966.966,0,0,0,1428.568,1154.658Z" transform="translate(-1420.435 -1115.339)" fill="#ffb27d"/>
        <path id="Trazado_144502" data-name="Trazado 144502" d="M1373.573,926.961s-4.4.823-7.9,5.988-5.81,9-5.165,10.866,6.53,8.317,7.545,8.317a2.72,2.72,0,0,0,2.744-2.4s-4.143-6.21-3.327-7.14c.349-.4,5.379-4.481,6.1-2.637C1374.752,943.01,1373.573,926.961,1373.573,926.961Z" transform="translate(-1360.397 -911.587)" fill="#5cd8a0"/>
        <path id="Trazado_144503" data-name="Trazado 144503" d="M1481.407,867.441c-.834,1.6-3.941,2.975-5.237,3.483.015-.082.03-.164.043-.244.209-1.184.39-2.2.39-2.2l3.8-1.893C1481.24,866.572,1481.751,866.784,1481.407,867.441Z" transform="translate(-1464.315 -857.393)" fill="#fca56b"/>
        <path id="Trazado_144504" data-name="Trazado 144504" d="M1462.3,804.82s5.621,1.753,6.659-1.764,2.463-5.659-1.082-6.928-4.642-.133-5.274.957S1460.86,804.274,1462.3,804.82Z" transform="translate(-1451.231 -793.649)" fill="#ffb27d"/>
        <path id="Trazado_144505" data-name="Trazado 144505" d="M1468.939,779.913s.359,4.093,1.2,3.915,1.614-.309,1.49.924-1.3,2.658,1.311,2.877,6.359-6.509,5.642-7.783C1476.52,776.171,1465.951,775.43,1468.939,779.913Z" transform="translate(-1457.351 -776.815)" fill="#163560"/>
      </g>
      <g id="Grupo_99133" data-name="Grupo 99133" transform="translate(345.002 223.637)">
        <path id="Trazado_144506" data-name="Trazado 144506" d="M485.249,1735.912l1.711,7.207,2.563-.015.094-7.193Z" transform="translate(-470.889 -1640.402)" fill="#ffb27d"/>
        <path id="Trazado_144507" data-name="Trazado 144507" d="M695.812,1730.6l4.869,6.9,1.9-2.437-2.93-5.412Z" transform="translate(-659.891 -1634.779)" fill="#ffb27d"/>
        <path id="Trazado_144508" data-name="Trazado 144508" d="M368.264,803.944a4.964,4.964,0,0,0-2.687-.514,1.257,1.257,0,0,1,.567-.269,4.164,4.164,0,0,0-1.487.388c-6.4-2.465-7.4,6.955-7.269,9.143s-2.15,2.9-5.478,4.627c-6.351,3.29-6.909,7.7-6.909,7.7.049.029.1.062.156.1.315-.534.964-1.536,1.511-1.687a22.606,22.606,0,0,0-.88,2.143c1.874,1.425,5.378,4.583,7.821,6.822a3.589,3.589,0,0,1,.166-1.387l.3,1.817c1.307,1.2,2.208,2.047,2.208,2.047-.161-1.769,8-11.1,12.256-13.9a12.307,12.307,0,0,0,1.432-4.433,11.638,11.638,0,0,1-.871,4.011C372.709,817.234,370.61,805.277,368.264,803.944Z" transform="translate(-345.002 -803.141)" fill="#163560"/>
        <path id="Trazado_144509" data-name="Trazado 144509" d="M519.605,923.407a5.9,5.9,0,0,1-3.618.661,4.7,4.7,0,0,1-2.409-2.31c.622-.124.8-.979.789-4.654l.281.055,4.73.937s-.108,1.489-.111,2.891C519.264,922.165,519.336,923.281,519.605,923.407Z" transform="translate(-496.317 -905.435)" fill="#ffb27d"/>
        <path id="Trazado_144510" data-name="Trazado 144510" d="M520.2,816.032a3.781,3.781,0,0,1,5.263-.127A20.5,20.5,0,0,0,520.2,816.032Z" transform="translate(-502.262 -813.686)" fill="#e37970"/>
        <path id="Trazado_144511" data-name="Trazado 144511" d="M528.759,918.582s-.108,1.489-.111,2.891c-2.647-.075-4.046-2.489-4.619-3.828Z" transform="translate(-505.698 -905.92)" fill="#d68d5d"/>
        <path id="Trazado_144512" data-name="Trazado 144512" d="M503.824,827.416a13.909,13.909,0,0,1-1.72-4.066c-.238-1.338.444-6.3,5.428-5.583a6.772,6.772,0,0,1,2.808,1.062c1.082.731,2.644,2.309.9,6.636l-.454,1.462Z" transform="translate(-485.981 -816.206)" fill="#163560"/>
        <path id="Trazado_144513" data-name="Trazado 144513" d="M518.979,1288.432l-2.507.077-2.714.083a53.573,53.573,0,0,1-9.785-18.168q-.123-.39-.26-.79c-1.925-5.611-5.914-12.655-8.017-19.031-.335-1.015-.635-1.971-.9-2.876-.086-.29-.171-.574-.25-.855a67.612,67.612,0,0,1-2.411-12.694l15.182.121A283,283,0,0,0,518.979,1288.432Z" transform="translate(-477.064 -1190.042)" fill="#80bdcc"/>
        <path id="Trazado_144514" data-name="Trazado 144514" d="M448.148,977.645c-.038,7.224,1.06,10.324,1.06,10.324a20.4,20.4,0,0,1-14.226.872c-.091-.029-6.4-1.468-6.4-1.468.129-.292,1.279-5.161,1.405-5.429,1.631-3.5,2.87-5.039,3.063-6.115a22.9,22.9,0,0,0,.188-6.053,48.565,48.565,0,0,0-1.873-9.5,49.817,49.817,0,0,0,6.322-2.12,4.742,4.742,0,0,0,3.326,1.232c1.539-.034,2.019-.685,1.963-1.418,1.64.912,2.944,1.78,2.944,1.78,1.394,2.421,4.22,4.772,4.425,8.486C450.4,969.144,448.149,977.443,448.148,977.645Z" transform="translate(-420.027 -942.112)" fill="#e7f1fd"/>
        <path id="Trazado_144515" data-name="Trazado 144515" d="M447.408,1047.975c-.664.939-1.936,6.648-5.1,7.366,1.631-4.069,2.87-5.853,3.063-7.1a30.862,30.862,0,0,0,.188-7.031c1.06-1.857,1.85-3.131,1.85-3.131.083-.3,1.684-5.25,2.2-.826A20.441,20.441,0,0,1,447.408,1047.975Z" transform="translate(-432.344 -1011.636)" fill="#5f9aa8"/>
        <path id="Trazado_144516" data-name="Trazado 144516" d="M523.3,847.125s-6.263.1-6.267-3.8-.815-6.515,3.183-6.746,4.777,1.257,5.1,2.558S524.933,847,523.3,847.125Z" transform="translate(-499.359 -833.136)" fill="#ffb27d"/>
        <path id="Trazado_144517" data-name="Trazado 144517" d="M507.477,829.4c-.966-1.172-1.7-.917-2.108-.565-1.353-2.022-5.631.9-5.631.9a7.451,7.451,0,0,1-2.437,4.4s1.141.705,3.773.029c2.071-.533,3.574-3.48,4.12-4.712a4.969,4.969,0,0,1,1.394,1.845c.312.993.453,3.038,1.049,2.969C507.637,834.267,508.928,831.156,507.477,829.4Z" transform="translate(-481.706 -825.561)" fill="#163560"/>
        <path id="Trazado_144518" data-name="Trazado 144518" d="M497.911,1802.363a6.946,6.946,0,0,1-.326,2.955s-.42,1.911,1.463,1.947,2.344-.142,2.131-1.314-.619-3.2-.619-3.2Z" transform="translate(-481.925 -1700.048)" fill="#ffb27d"/>
        <path id="Trazado_144519" data-name="Trazado 144519" d="M499.913,1833.674l-.006,0h-3.9l-.006,0a10.044,10.044,0,0,1,.135-2.883c2.132,2.038,3.466-.051,3.466-.051A10.881,10.881,0,0,1,499.913,1833.674Z" transform="translate(-480.481 -1725.52)" fill="#c45446"/>
        <path id="Trazado_144520" data-name="Trazado 144520" d="M743.807,1788.4a50.283,50.283,0,0,1-4.536-5.9l-2.581,1.322,5.769,5.418,1.35-.178Z" transform="translate(-696.583 -1682.221)" fill="#ffb27d"/>
        <path id="Trazado_144521" data-name="Trazado 144521" d="M739.966,1801.849H735.15a7.85,7.85,0,0,1-1.324-2.161,2.33,2.33,0,0,0-1.572-1.072v3.234h-1l-.923-3.438a3.268,3.268,0,0,1,.279-3.119c.5,0,1.961.362,4.525,3.308a3.335,3.335,0,0,0,2.7,1.284.238.238,0,0,0,.038.02A3.573,3.573,0,0,1,739.966,1801.849Z" transform="translate(-690.613 -1693.702)" fill="#c45446"/>
        <path id="Trazado_144522" data-name="Trazado 144522" d="M595.282,962.575s-4.111,2.3-5.58,2.961c-.522.235-1.468.676-2.435,1.127-.584.272-1.174.55-1.685.791a2.119,2.119,0,0,1-2.511-.542c-2.226-2.6-7.987-8.233-13.936-8.939l-.021-.009,0,.007h-.007l.033.064c.334.832,3.6,8.98,3.7,10.7.106,1.812.426,29.624.426,29.624s-.213,1.279,2.238.746a8.232,8.232,0,0,0,3.09-1.066s-2.344-17.156-1.7-23.123a13.268,13.268,0,0,0-.25-3.846,30.564,30.564,0,0,0,7.9,3.171,35.957,35.957,0,0,0,4.069-2.229,25.551,25.551,0,0,0,3.431-2.761,50.4,50.4,0,0,0,3.9-4.489Z" transform="translate(-546.163 -942.112)" fill="#5cd8a0"/>
        <path id="Trazado_144523" data-name="Trazado 144523" d="M537.611,1384.918,534.9,1385a53.572,53.572,0,0,1-9.785-18.168q-.123-.39-.26-.79c-1.924-5.611-5.914-12.655-8.017-19.03-.335-1.016-.635-1.971-.9-2.876-.086-.29-.171-.574-.25-.854l2.236-1.7s6.712,10.869,8.79,21.1C528.511,1371.569,535.74,1382.26,537.611,1384.918Z" transform="translate(-498.204 -1286.452)" fill="#5f9aa8"/>
        <path id="Trazado_144524" data-name="Trazado 144524" d="M437.867,1338.35c.038,4.974-.213,16.41-.861,21.145h-2.4c-1.329,0-1.992-.019-1.992-.019-1.625-8.232-2.781-15.043-3.623-20.913-.69-4.816-1.3-8.946-1.776-12.5-.475-3.577-.806-6.573-.924-9.1q-.027-.6-.04-1.162t-.006-1.1l13.118-1.279C439.194,1322.131,437.846,1335.459,437.867,1338.35Z" transform="translate(-417.922 -1261.166)" fill="#80bdcc"/>
        <path id="Trazado_144525" data-name="Trazado 144525" d="M435.017,1390.564c-1.329,0-1.992-.019-1.992-.019-1.625-8.232-2.781-15.043-3.623-20.912-.69-4.817-1.3-8.946-1.776-12.5-.475-3.577-.806-6.573-.924-9.1l4.813,2.831s-3.072,1.084-1.9,9.289S433.385,1389.4,435.017,1390.564Z" transform="translate(-418.336 -1292.235)" fill="#5f9aa8"/>
        <path id="Trazado_144526" data-name="Trazado 144526" d="M409.959,999.454s-.924,3.339-4.121,2.912a38.522,38.522,0,0,1-7.743-2.344s1.366-4.317,3.065-9.988c2.057-6.866,4.6-15.716,5.8-21.3a34.5,34.5,0,0,0,.652-3.806l2.707-5.148s3.9,8.878,4.113,11.115S409.959,999.454,409.959,999.454Z" transform="translate(-392.659 -943.742)" fill="#5cd8a0"/>
        <path id="Trazado_144527" data-name="Trazado 144527" d="M524.73,1091.513a2.373,2.373,0,0,0-2.319,2.123,4.689,4.689,0,0,1-.67,1.6c-1.533.082-5.183.281-8.249.475l-.253,4.022a45.93,45.93,0,0,0,9.177-2.172,2.4,2.4,0,0,0,1.044-.568,11.48,11.48,0,0,0,3.465-5.269C526.93,1091.289,526.269,1091.31,524.73,1091.513Z" transform="translate(-496.013 -1061.86)" fill="#ffb27d"/>
        <path id="Trazado_144528" data-name="Trazado 144528" d="M436.683,1054.081c-.143,3.623-1,10.656-8.6,14.421-.02.01-.041.02-.061.029,2.057-6.866,4.6-15.716,5.8-21.3C435.224,1049.318,436.761,1052.086,436.683,1054.081Z" transform="translate(-419.525 -1022.238)" fill="#15ac68"/>
        <path id="Trazado_144529" data-name="Trazado 144529" d="M434.742,959.781s-6.5.461-8.065,3.942-2.06,15.06-.071,18.47a18.112,18.112,0,0,0,7.582-.126l.179-.034s1.545-3.783.16-4.529c0,0-4.085.213-3.659-1.137S434.742,959.781,434.742,959.781Z" transform="translate(-417.079 -943.742)" fill="#5cd8a0"/>
        <g id="Grupo_99132" data-name="Grupo 99132" transform="translate(41.105 17.688)">
          <path id="Trazado_144530" data-name="Trazado 144530" d="M829.352,975.927a3.909,3.909,0,0,0-4.381,2.732l.653,2.185a2.77,2.77,0,0,0,2.891-1.376c.869-1.244,1.109-.766,1.661-1.692C830.926,976.52,829.753,976.052,829.352,975.927Z" transform="translate(-816.93 -975.883)" fill="#ffb27d"/>
          <path id="Trazado_144531" data-name="Trazado 144531" d="M748.875,1005.951c-.522.235-1.468.676-2.435,1.127a12.429,12.429,0,0,1,1.336,5.346,22.318,22.318,0,0,0,3.534-2.846,46.862,46.862,0,0,0,3.8-4.4l-.653-2.185S750.343,1005.289,748.875,1005.951Z" transform="translate(-746.44 -1000.214)" fill="#ffb27d"/>
        </g>
      </g>
      <g id="Grupo_99137" data-name="Grupo 99137" transform="translate(557.032 230.833)">
        <g id="Grupo_99134" data-name="Grupo 99134" transform="translate(8.023 17.194)">
          <path id="Trazado_144532" data-name="Trazado 144532" d="M2503.129,1279.439a9.526,9.526,0,0,1-4.069.162c-1.581-.476-4.3.306-4.741.883s-.277.806.5,1,3.553,1.381,5.373.7a14.51,14.51,0,0,1,4.2-.709Z" transform="translate(-2494.08 -1255.059)" fill="#e49963"/>
          <path id="Trazado_144533" data-name="Trazado 144533" d="M2587.625,1044.112s-2.794,19.86-7.421,21.639a102.023,102.023,0,0,1-15.357,3.067s-.731-.593-.553-3.007c0,0,10.571-3.881,12.073-5.991,2.235-3.141-1.388-12.833,1.417-15.783S2585.311,1039.818,2587.625,1044.112Z" transform="translate(-2557.079 -1041.34)" fill="#4a75cb"/>
        </g>
        <path id="Trazado_144534" data-name="Trazado 144534" d="M2667.442,1538.738v-4.33h6.817a.335.335,0,0,0,.334-.335v-.694a.335.335,0,0,0-.334-.335h-6.817V1508.4a1.261,1.261,0,0,0-1.258-1.258h-1.349a1.261,1.261,0,0,0-1.257,1.258v24.649h-6.817a.335.335,0,0,0-.334.335v.694a.335.335,0,0,0,.334.335h6.817v4.33c-4.933.373-8.884,2.148-9.993,4.443h23.85C2676.326,1540.887,2672.375,1539.111,2667.442,1538.738Z" transform="translate(-2629.229 -1442.25)" fill="#2b478b"/>
        <path id="Trazado_144535" data-name="Trazado 144535" d="M2536.8,1374.82a34.8,34.8,0,0,1-2.729,3.906c-3,3.791-6.272,6.917-6.842,9.872a13.41,13.41,0,0,1-.528,1.891c-.238.677-.532,1.388-.871,2.124a65.424,65.424,0,0,1-5.083,8.69c-3.289,4.874-6.383,8.941-6.383,8.941l-5.672-.242c.227-.568,2.7-7.3,6.011-15.523l4.152-10.315q.275-.686.55-1.365c.421-1.048.836-2.08,1.241-3.084l5.583-13.872s12.421-4.705,13.711-1.656C2541,1366.7,2540.133,1369.164,2536.8,1374.82Z" transform="translate(-2499.169 -1313.012)" fill="#163560"/>
        <path id="Trazado_144536" data-name="Trazado 144536" d="M2461.555,1799.729s-.29,4.681-1.2,4.748c-.12.009-4.593.009-4.593.009l-5.709-.033a1.852,1.852,0,0,1,1.706-1.667c1.669-.291,4.463-1.464,5.474-3.669C2458.3,1796.8,2461.555,1799.729,2461.555,1799.729Z" transform="translate(-2446.542 -1703.528)" fill="#163560"/>
        <path id="Trazado_144537" data-name="Trazado 144537" d="M2664.6,1682.331s3.946,2.536,3.563,3.359c-.051.11-2.231,4.015-2.231,4.015l-2.812,4.969a1.853,1.853,0,0,1-.624-2.3c.56-1.6.9-4.61-.536-6.568C2660.453,1683.743,2664.6,1682.331,2664.6,1682.331Z" transform="translate(-2636.451 -1599.503)" fill="#163560"/>
        <path id="Trazado_144538" data-name="Trazado 144538" d="M2485.731,1367.563s-15.591,9.711-17.331,16.238,20.74,20.449,20.74,20.449,2.466-2.176,2.9-3.771c0,0-10.161-12.173-12.365-14.9-1.354-1.676,20.015-5.8,22.626-9.863a9.932,9.932,0,0,0,1.676-7.477Z" transform="translate(-2462.92 -1316.966)" fill="#1c468a"/>
        <path id="Rectángulo_33546" data-name="Rectángulo 33546" d="M4.351,0H29.878a4.351,4.351,0,0,1,4.351,4.351v0A4.351,4.351,0,0,1,29.878,8.7H4.351A4.351,4.351,0,0,1,0,4.351v0A4.351,4.351,0,0,1,4.351,0Z" transform="translate(19.166 63.068)" fill="#ee9849"/>
        <path id="Trazado_144539" data-name="Trazado 144539" d="M2688.088,965.026a8.8,8.8,0,0,0-2.375,2.152c3.735.966,9.927-2.495,9.927-2.495a9.161,9.161,0,0,1-3.295-5.165q-.067-.269-.122-.551a11.186,11.186,0,0,1-.2-1.943l-1.716,1.537-2.854,2.556a24.545,24.545,0,0,0,.422,2.885Q2687.966,964.479,2688.088,965.026Z" transform="translate(-2658.068 -948.463)" fill="#e49963"/>
        <path id="Trazado_144540" data-name="Trazado 144540" d="M2652.728,1036.7c-.535,7.2.365,18.135-.242,20.031-.524,1.635-6.688.667-9.07.121-.882-.2-1.95-.491-3.053-.832-3.076-.953-6.429-2.313-6.789-3.323a.927.927,0,0,1-.027-.54,7.2,7.2,0,0,0,.636-2.346c.061-1.423.052-3.1.1-4.9,0-.2.006-.424.028-.626v-.074c0-.039,0-.077,0-.115.052-2.01.157-4.123.278-6.218.078-1.316.167-2.619.27-3.868a51.706,51.706,0,0,1,1.109-7.9,12.687,12.687,0,0,1,4.076-6.293l1.135-.974a6.566,6.566,0,0,0,4.12-.549c1.467-.7,1.973-1.2,2.229-1.007C2650.924,1019.9,2653.36,1027.905,2652.728,1036.7Z" transform="translate(-2611.219 -1002.519)" fill="#739af0"/>
        <path id="Trazado_144541" data-name="Trazado 144541" d="M2640.724,1245.335c-3.077-.953-6.429-2.313-6.789-3.323a.865.865,0,0,1-.033-.116c0-.141,0-.282.007-.423a7.214,7.214,0,0,0,.636-2.346c.061-1.423.052-3.1.105-4.9,0-.2.005-.424.028-.626v-.074c0-.039,0-.077,0-.115l11.621-5.271A27.1,27.1,0,0,1,2640.724,1245.335Z" transform="translate(-2611.562 -1191.818)" fill="#4a75cb"/>
        <path id="Trazado_144542" data-name="Trazado 144542" d="M2702.692,974.591a24.569,24.569,0,0,0,.422,2.885,7.565,7.565,0,0,0,4.472-4.484c.12-.3.172-.488.172-.488l-.294-.063-1.918-.406Z" transform="translate(-2673.308 -961.937)" fill="#d68d5d"/>
        <path id="Trazado_144543" data-name="Trazado 144543" d="M2679,907.516s6.12.69,6.492-3.128,1.411-6.3-2.481-6.9-4.794.781-5.228,2.025S2677.417,907.238,2679,907.516Z" transform="translate(-2650.743 -894.89)" fill="#e49963"/>
        <path id="Trazado_144544" data-name="Trazado 144544" d="M2682.947,883.18a6.288,6.288,0,0,0-5.959-5.593c-3.816-.36-1.688-3.644-1.281-4.168,0,0,2.924.4,5.921.9C2687.916,875.354,2683.564,882.391,2682.947,883.18Z" transform="translate(-2648.226 -873.419)" fill="#2b478b"/>
        <g id="Grupo_99135" data-name="Grupo 99135" transform="translate(0 32.522)">
          <rect id="Rectángulo_33547" data-name="Rectángulo 33547" width="0.563" height="14.751" transform="translate(0 0.174) rotate(-18.001)" fill="#4a75cb"/>
          <rect id="Rectángulo_33548" data-name="Rectángulo 33548" width="15.479" height="0.926" transform="translate(4.539 13.277) rotate(-1.224)" fill="#4a75cb"/>
        </g>
        <g id="Grupo_99136" data-name="Grupo 99136" transform="translate(9.527 18.469)">
          <path id="Trazado_144545" data-name="Trazado 144545" d="M2517.594,1309.257a9.522,9.522,0,0,1-4.026.61c-1.624-.3-4.243.778-4.615,1.4s-.187.831.613.943,3.683.981,5.418.1a14.512,14.512,0,0,1,4.092-1.167Z" transform="translate(-2508.769 -1283.099)" fill="#e49963"/>
          <path id="Trazado_144546" data-name="Trazado 144546" d="M2598.044,1056.1s-.588,20.047-4.99,22.325a101.952,101.952,0,0,1-14.926,4.742s-.792-.509-.881-2.928c0,0,10.079-5.022,11.339-7.286,1.875-3.368-2.794-12.6-.331-15.843S2595.271,1052.091,2598.044,1056.1Z" transform="translate(-2570.235 -1053.792)" fill="#739af0"/>
        </g>
      </g>
    </g>
  </g>
</svg>
