<svg xmlns="http://www.w3.org/2000/svg" width="338" height="257" viewBox="0 0 338 257">
  <g id="Grupo_99195" data-name="Grupo 99195" transform="translate(-3333 10140)">
    <g id="Grupo_99194" data-name="Grupo 99194" transform="translate(2374 -11750.697)">
      <g id="Shadow" transform="translate(968.516 1835.011)">
        <ellipse id="_Path_" data-name="&lt;Path&gt;" cx="156.033" cy="9.113" rx="156.033" ry="9.113" transform="translate(0 0)" fill="#f5f5f5"/>
      </g>
      <g id="Device" transform="translate(1067.353 1699.11)">
        <g id="Grupo_99156" data-name="Grupo 99156" transform="translate(0 0)">
          <path id="Rectángulo_33597" data-name="Rectángulo 33597" d="M4.268,0H170.284a4.268,4.268,0,0,1,4.268,4.268V124.7a0,0,0,0,1,0,0H0a0,0,0,0,1,0,0V4.268A4.268,4.268,0,0,1,4.268,0Z" transform="translate(13.008)" fill="#5cd8a0"/>
          <rect id="Rectángulo_33598" data-name="Rectángulo 33598" width="167.678" height="107.171" transform="translate(16.445 7.699)" fill="#e8fff5"/>
          <g id="Grupo_99154" data-name="Grupo 99154" transform="translate(97.085 2.479)">
            <ellipse id="Elipse_4650" data-name="Elipse 4650" cx="1.672" cy="1.672" rx="1.672" ry="1.672" fill="#fff" opacity="0.2" style="isolation: isolate"/>
            <ellipse id="Elipse_4651" data-name="Elipse 4651" cx="1.259" cy="1.259" rx="1.259" ry="1.259" transform="translate(3.88 0.413)" fill="#fff" opacity="0.2" style="isolation: isolate"/>
          </g>
          <path id="Trazado_144587" data-name="Trazado 144587" d="M303.694,381.479a2.164,2.164,0,0,0-.684-.12,2.194,2.194,0,1,0,2.194,2.194c0-.041-.01-.079-.012-.119A2.184,2.184,0,0,1,303.694,381.479Z" transform="translate(-202.725 -264.414)" fill="#fff" opacity="0.2" style="isolation: isolate"/>
          <g id="Grupo_99155" data-name="Grupo 99155" transform="translate(0 122.995)">
            <path id="Trazado_144588" data-name="Trazado 144588" d="M379.5,388.878v1.577a2.335,2.335,0,0,1-1.658,2.221l-12.16,3.589a16.226,16.226,0,0,1-4.651.676H197.4a16.208,16.208,0,0,1-4.643-.676l-12.16-3.589a2.33,2.33,0,0,1-1.666-2.221v-1.577Z" transform="translate(-178.927 -388.878)" fill="#263238"/>
            <path id="Trazado_144589" data-name="Trazado 144589" d="M379.5,388.878v1.577a2.335,2.335,0,0,1-1.658,2.221l-12.16,3.589a16.226,16.226,0,0,1-4.651.676H197.4a16.208,16.208,0,0,1-4.643-.676l-12.16-3.589a2.33,2.33,0,0,1-1.666-2.221v-1.577Z" transform="translate(-178.927 -388.878)" fill="#5cd8a0" style="isolation: isolate"/>
            <path id="Trazado_144590" data-name="Trazado 144590" d="M379.5,388.878v1.577a2.288,2.288,0,0,1-.331,1.183H179.256a2.3,2.3,0,0,1-.329-1.183v-1.577Z" transform="translate(-178.927 -388.878)" fill="#fff" opacity="0.2" style="isolation: isolate"/>
          </g>
          <path id="Trazado_144592" data-name="Trazado 144592" d="M367.04,245.609S343.854,337.652,199.362,352.78V245.609Z" transform="translate(-182.917 -237.91)" fill="#fff" style="isolation: isolate"/>
        </g>
      </g>
      <g id="Window_3" data-name="Window 3" transform="translate(1149.862 1662.26)">
        <g id="Grupo_99162" data-name="Grupo 99162" transform="translate(0 0)">
          <g id="Grupo_99157" data-name="Grupo 99157">
            <path id="Trazado_144593" data-name="Trazado 144593" d="M367.184,192.843v100.8L350.4,310.434h-66.36a2.588,2.588,0,0,1-2.583-2.591v-115a2.588,2.588,0,0,1,2.583-2.591h80.556A2.6,2.6,0,0,1,367.184,192.843Z" transform="translate(-281.454 -190.252)" fill="#15ac68"/>
            <path id="Trazado_144594" data-name="Trazado 144594" d="M367.184,198.939v96.4L350.4,312.128h-66.36a2.588,2.588,0,0,1-2.583-2.591v-110.6Z" transform="translate(-281.454 -191.948)" fill="#d2f6e6" style="isolation: isolate"/>
            <path id="Trazado_144595" data-name="Trazado 144595" d="M384.591,193.928a1.25,1.25,0,1,1-1.25-1.251A1.25,1.25,0,0,1,384.591,193.928Z" transform="translate(-301.103 -190.725)" fill="#fff" opacity="0.6" style="isolation: isolate"/>
            <path id="Trazado_144596" data-name="Trazado 144596" d="M378.657,193.928a1.25,1.25,0,1,1-1.25-1.251A1.25,1.25,0,0,1,378.657,193.928Z" transform="translate(-299.944 -190.725)" fill="#fff" opacity="0.6" style="isolation: isolate"/>
            <path id="Trazado_144597" data-name="Trazado 144597" d="M372.723,193.928a1.25,1.25,0,1,1-1.251-1.251A1.25,1.25,0,0,1,372.723,193.928Z" transform="translate(-298.786 -190.725)" fill="#fff" opacity="0.6" style="isolation: isolate"/>
          </g>
          <g id="Grupo_99158" data-name="Grupo 99158" transform="translate(5.35 13.151)">
            <path id="Trazado_144598" data-name="Trazado 144598" d="M334.86,208.2H288.907a.8.8,0,0,1,0-1.61H334.86a.8.8,0,1,1,0,1.61Z" transform="translate(-288.102 -206.594)" fill="#5cd8a0"/>
            <path id="Trazado_144599" data-name="Trazado 144599" d="M321.87,213.667H288.907a.8.8,0,1,1,0-1.609H321.87a.8.8,0,1,1,0,1.609Z" transform="translate(-288.102 -207.661)" fill="#5cd8a0"/>
          </g>
          <g id="Grupo_99159" data-name="Grupo 99159" transform="translate(5.35 85.521)">
            <path id="Trazado_144600" data-name="Trazado 144600" d="M359.874,298.13H301.112a.8.8,0,1,1,0-1.609h58.762a.8.8,0,1,1,0,1.609Z" transform="translate(-290.485 -296.521)" fill="#407bff"/>
            <path id="Trazado_144601" data-name="Trazado 144601" d="M347.67,319.982H288.907a.8.8,0,1,1,0-1.609H347.67a.8.8,0,0,1,0,1.609Z" transform="translate(-288.102 -300.787)" fill="#407bff"/>
            <path id="Trazado_144602" data-name="Trazado 144602" d="M357.491,303.593H288.907a.8.8,0,0,1,0-1.61h68.584a.8.8,0,0,1,0,1.61Z" transform="translate(-288.102 -297.587)" fill="#407bff"/>
            <path id="Trazado_144603" data-name="Trazado 144603" d="M357.491,309.056H288.907a.8.8,0,1,1,0-1.609h68.584a.8.8,0,0,1,0,1.609Z" transform="translate(-288.102 -298.654)" fill="#407bff"/>
            <path id="Trazado_144604" data-name="Trazado 144604" d="M357.491,314.519H288.907a.8.8,0,0,1,0-1.61h68.584a.8.8,0,0,1,0,1.61Z" transform="translate(-288.102 -299.721)" fill="#407bff"/>
          </g>
          <path id="Trazado_144605" data-name="Trazado 144605" d="M383.911,318.729l-16.787,16.787V318.729Z" transform="translate(-298.181 -215.336)" fill="#f1d54e"/>
          <rect id="Rectángulo_33599" data-name="Rectángulo 33599" width="4.742" height="96.402" transform="translate(80.988 6.991)" opacity="0.4" style="isolation: isolate"/>
          <path id="Trazado_144606" data-name="Trazado 144606" d="M384.614,258.294h0a1.746,1.746,0,0,1-1.746-1.746V246.7a1.746,1.746,0,0,1,1.746-1.746h0a1.745,1.745,0,0,1,1.745,1.746v9.848A1.745,1.745,0,0,1,384.614,258.294Z" transform="translate(-301.255 -200.932)" fill="#407bff"/>
          <g id="Grupo_99160" data-name="Grupo 99160" transform="translate(5.35 61.378)">
            <path id="Trazado_144607" data-name="Trazado 144607" d="M359.874,268.131H301.112a.8.8,0,0,1,0-1.61h58.762a.8.8,0,0,1,0,1.61Z" transform="translate(-290.485 -266.521)" fill="#407bff"/>
            <path id="Trazado_144608" data-name="Trazado 144608" d="M347.67,289.982H288.907a.8.8,0,1,1,0-1.609H347.67a.8.8,0,0,1,0,1.609Z" transform="translate(-288.102 -270.787)" fill="#407bff"/>
            <path id="Trazado_144609" data-name="Trazado 144609" d="M357.491,273.592H288.907a.8.8,0,1,1,0-1.609h68.584a.8.8,0,0,1,0,1.609Z" transform="translate(-288.102 -267.587)" fill="#407bff"/>
            <path id="Trazado_144610" data-name="Trazado 144610" d="M357.491,279.056H288.907a.8.8,0,0,1,0-1.61h68.584a.8.8,0,0,1,0,1.61Z" transform="translate(-288.102 -268.654)" fill="#407bff"/>
            <path id="Trazado_144611" data-name="Trazado 144611" d="M357.491,284.519H288.907a.8.8,0,0,1,0-1.609h68.584a.8.8,0,0,1,0,1.609Z" transform="translate(-288.102 -269.721)" fill="#407bff"/>
          </g>
          <rect id="Rectángulo_33600" data-name="Rectángulo 33600" width="68.793" height="25.668" transform="translate(5.947 24.401)" fill="#5cd8a0"/>
          <path id="Trazado_144612" data-name="Trazado 144612" d="M288.844,242.121h1.87v-4.667h2.155v-9.211h3.01v5.669h4.139v7.543h4.935V236.2h4.078l2.7-2.7v-6.257h1.643V236.2h4.154v3.186h4.3V223.128l1.189-1.189V226.4h2.747v2l2.635,2.635v4.758h3.776V232.03h9.869v-2.811h2.228v-4.9h.8v7.714h1.259l2.839-2.839h2.675v-2.566h1.345v2.595h1.751v10.644h1.9v-5.311l.8.049V220.572H288.844Z" transform="translate(-282.897 -196.172)" fill="#e8fff5" style="isolation: isolate"/>
          <g id="Grupo_99161" data-name="Grupo 99161" transform="translate(55.41 52.526)">
            <path id="Trazado_144613" data-name="Trazado 144613" d="M369.636,257.13H351.112a.8.8,0,1,1,0-1.61h18.525a.8.8,0,1,1,0,1.61Z" transform="translate(-350.307 -255.521)" fill="#407bff"/>
          </g>
          <path id="Trazado_144614" data-name="Trazado 144614" d="M314.65,190.252V273.56l-12.667,12.668H281.454V192.843a2.588,2.588,0,0,1,2.583-2.591Z" transform="translate(-281.454 -190.252)" opacity="0.2" style="isolation: isolate"/>
          <path id="Trazado_144615" data-name="Trazado 144615" d="M384.614,258.294h0a1.746,1.746,0,0,1-1.746-1.746V246.7a1.746,1.746,0,0,1,1.746-1.746h0a1.745,1.745,0,0,1,1.745,1.746v9.848A1.745,1.745,0,0,1,384.614,258.294Z" transform="translate(-301.255 -200.932)" fill="#fff" opacity="0.4" style="isolation: isolate"/>
        </g>
      </g>
      <g id="Window_1" data-name="Window 1" transform="translate(1048.267 1674.822)">
        <g id="Grupo_99169" data-name="Grupo 99169" transform="translate(0 0)">
          <g id="Grupo_99163" data-name="Grupo 99163">
            <path id="Trazado_144616" data-name="Trazado 144616" d="M240.944,208.453v100.8l-16.787,16.787H157.8a2.587,2.587,0,0,1-2.583-2.591v-115a2.588,2.588,0,0,1,2.583-2.591h80.556A2.6,2.6,0,0,1,240.944,208.453Z" transform="translate(-155.212 -205.862)" fill="#d2f6e6"/>
            <path id="Trazado_144617" data-name="Trazado 144617" d="M240.941,214.557v96.4l-16.787,16.787h-66.36a2.588,2.588,0,0,1-2.583-2.591v-110.6Z" transform="translate(-155.211 -207.56)" fill="#d2f6e6" opacity="0.6" style="isolation: isolate"/>
            <path id="Trazado_144618" data-name="Trazado 144618" d="M258.349,209.546A1.251,1.251,0,1,1,257.1,208.3,1.251,1.251,0,0,1,258.349,209.546Z" transform="translate(-174.86 -206.337)" fill="#d2f6e6" opacity="0.6" style="isolation: isolate"/>
            <path id="Trazado_144619" data-name="Trazado 144619" d="M252.415,209.546a1.251,1.251,0,1,1-1.251-1.251A1.251,1.251,0,0,1,252.415,209.546Z" transform="translate(-173.701 -206.337)" fill="#d2f6e6" opacity="0.6" style="isolation: isolate"/>
            <path id="Trazado_144620" data-name="Trazado 144620" d="M246.48,209.546a1.25,1.25,0,1,1-1.25-1.251A1.25,1.25,0,0,1,246.48,209.546Z" transform="translate(-172.543 -206.337)" fill="#d2f6e6" opacity="0.6" style="isolation: isolate"/>
          </g>
          <g id="Grupo_99164" data-name="Grupo 99164" transform="translate(5.35 13.589)">
            <path id="Trazado_144621" data-name="Trazado 144621" d="M176.938,224.358H162.664a.8.8,0,0,1,0-1.61h14.274a.8.8,0,0,1,0,1.61Z" transform="translate(-161.859 -222.748)" fill="#5cd8a0"/>
            <path id="Trazado_144622" data-name="Trazado 144622" d="M183.669,229.82H162.664a.8.8,0,0,1,0-1.609h21.006a.8.8,0,1,1,0,1.609Z" transform="translate(-161.859 -223.815)" fill="#5cd8a0"/>
            <path id="Trazado_144623" data-name="Trazado 144623" d="M177.175,235.285H162.664a.8.8,0,0,1,0-1.61h14.511a.8.8,0,1,1,0,1.61Z" transform="translate(-161.859 -224.881)" fill="#5cd8a0"/>
          </g>
          <g id="Grupo_99165" data-name="Grupo 99165" transform="translate(5.35 94.379)">
            <path id="Trazado_144624" data-name="Trazado 144624" d="M233.632,324.747H174.869a.8.8,0,1,1,0-1.609h58.763a.8.8,0,1,1,0,1.609Z" transform="translate(-164.242 -323.138)" fill="#407bff"/>
            <path id="Trazado_144625" data-name="Trazado 144625" d="M199.059,330.211H162.664a.8.8,0,0,1,0-1.61h36.395a.8.8,0,0,1,0,1.61Z" transform="translate(-161.859 -324.205)" fill="#407bff"/>
          </g>
          <path id="Trazado_144626" data-name="Trazado 144626" d="M257.668,334.347l-16.787,16.787V334.347Z" transform="translate(-171.938 -230.948)" fill="#f1d54e"/>
          <rect id="Rectángulo_33601" data-name="Rectángulo 33601" width="4.742" height="96.402" transform="translate(80.988 6.997)" opacity="0.4" style="isolation: isolate"/>
          <path id="Trazado_144627" data-name="Trazado 144627" d="M258.371,322.912h0a1.746,1.746,0,0,1-1.746-1.746v-9.847a1.746,1.746,0,0,1,1.746-1.746h0a1.746,1.746,0,0,1,1.745,1.746v9.847A1.746,1.746,0,0,1,258.371,322.912Z" transform="translate(-175.012 -226.111)" fill="#407bff"/>
          <g id="Grupo_99166" data-name="Grupo 99166" transform="translate(62.88 13.589)">
            <path id="Trazado_144628" data-name="Trazado 144628" d="M245.207,224.358H234.152a.8.8,0,1,1,0-1.61h11.055a.8.8,0,0,1,0,1.61Z" transform="translate(-233.347 -222.748)" fill="#407bff"/>
            <path id="Trazado_144629" data-name="Trazado 144629" d="M246.5,229.82h-5.716a.8.8,0,1,1,0-1.609H246.5a.8.8,0,0,1,0,1.609Z" transform="translate(-234.642 -223.815)" fill="#407bff"/>
          </g>
          <g id="Grupo_99167" data-name="Grupo 99167" transform="translate(5.35 34.022)">
            <path id="Trazado_144630" data-name="Trazado 144630" d="M233.632,249.747H174.869a.8.8,0,1,1,0-1.609h58.763a.8.8,0,1,1,0,1.609Z" transform="translate(-164.242 -248.138)" fill="#5cd8a0"/>
            <path id="Trazado_144631" data-name="Trazado 144631" d="M231.249,255.21H162.664a.8.8,0,1,1,0-1.609h68.585a.8.8,0,1,1,0,1.609Z" transform="translate(-161.859 -249.205)" fill="#5cd8a0"/>
            <path id="Trazado_144632" data-name="Trazado 144632" d="M191.011,260.674H162.664a.8.8,0,0,1,0-1.61h28.347a.8.8,0,0,1,0,1.61Z" transform="translate(-161.859 -250.271)" fill="#5cd8a0"/>
          </g>
          <g id="Grupo_99168" data-name="Grupo 99168" transform="translate(6.155 50.257)">
            <rect id="Rectángulo_33602" data-name="Rectángulo 33602" width="27.02" height="7.239" transform="translate(11.378)" fill="#d2f6e6" opacity="0.7"/>
            <rect id="Rectángulo_33603" data-name="Rectángulo 33603" width="12.244" height="26.741" transform="translate(11.378 8.848)" fill="#5cd8a0"/>
            <rect id="Rectángulo_33604" data-name="Rectángulo 33604" width="14.063" height="26.741" transform="translate(40.008 8.848)" fill="#407bff" opacity="0.3"/>
            <rect id="Rectángulo_33605" data-name="Rectángulo 33605" width="28.577" height="7.239" transform="translate(40.008)" fill="#407bff" opacity="0.7"/>
            <rect id="Rectángulo_33606" data-name="Rectángulo 33606" width="12.904" height="26.741" transform="translate(55.68 8.848)" fill="#407bff" opacity="0.3"/>
            <rect id="Rectángulo_33607" data-name="Rectángulo 33607" width="9.769" height="26.741" transform="translate(0 8.848)" fill="#5cd8a0"/>
            <rect id="Rectángulo_33608" data-name="Rectángulo 33608" width="9.769" height="7.239" fill="#d2f6e6"/>
            <rect id="Rectángulo_33609" data-name="Rectángulo 33609" width="13.166" height="26.741" transform="translate(25.232 8.848)" fill="#407bff" opacity="0.3"/>
          </g>
          <path id="Trazado_144633" data-name="Trazado 144633" d="M258.371,322.912h0a1.746,1.746,0,0,1-1.746-1.746v-9.847a1.746,1.746,0,0,1,1.746-1.746h0a1.746,1.746,0,0,1,1.745,1.746v9.847A1.746,1.746,0,0,1,258.371,322.912Z" transform="translate(-175.012 -226.111)" fill="#fff" opacity="0.4" style="isolation: isolate"/>
          <path id="Trazado_144634" data-name="Trazado 144634" d="M249.338,208.453v83.856H200.787a2.588,2.588,0,0,1-2.583-2.591V205.862h48.543A2.6,2.6,0,0,1,249.338,208.453Z" transform="translate(-163.605 -205.862)" opacity="0.2" style="isolation: isolate"/>
        </g>
      </g>
      <g id="Window_2" data-name="Window 2" transform="translate(1090.89 1629.125)">
        <g id="Grupo_99175" data-name="Grupo 99175" transform="translate(0 0)">
          <g id="Grupo_99170" data-name="Grupo 99170">
            <path id="Trazado_144635" data-name="Trazado 144635" d="M293.906,151.669v100.8L277.119,269.26h-66.36a2.589,2.589,0,0,1-2.584-2.591v-115a2.589,2.589,0,0,1,2.584-2.591h80.556A2.6,2.6,0,0,1,293.906,151.669Z" transform="translate(-208.175 -149.078)" fill="#15ac68"/>
            <path id="Trazado_144636" data-name="Trazado 144636" d="M293.906,157.768v96.4l-16.787,16.787h-66.36a2.589,2.589,0,0,1-2.584-2.591v-110.6Z" transform="translate(-208.175 -150.775)" fill="#d2f6e6" style="isolation: isolate"/>
            <ellipse id="Elipse_4652" data-name="Elipse 4652" cx="1.25" cy="1.25" rx="1.25" ry="1.25" transform="translate(80.989 1.954)" fill="#fff" opacity="0.6" style="isolation: isolate"/>
            <ellipse id="Elipse_4653" data-name="Elipse 4653" cx="1.25" cy="1.25" rx="1.25" ry="1.25" transform="translate(76.213 1.954)" fill="#fff" opacity="0.6" style="isolation: isolate"/>
            <path id="Trazado_144637" data-name="Trazado 144637" d="M299.445,152.757a1.25,1.25,0,1,1-1.251-1.251A1.251,1.251,0,0,1,299.445,152.757Z" transform="translate(-225.507 -149.552)" fill="#fff" opacity="0.6" style="isolation: isolate"/>
          </g>
          <g id="Grupo_99171" data-name="Grupo 99171" transform="translate(24.714 13.586)">
            <path id="Trazado_144638" data-name="Trazado 144638" d="M264.449,167.57H248.056a.8.8,0,0,1,0-1.61h16.393a.8.8,0,0,1,0,1.61Z" transform="translate(-240.518 -165.96)" fill="#5cd8a0"/>
            <path id="Trazado_144639" data-name="Trazado 144639" d="M269.548,173.033H239.69a.8.8,0,0,1,0-1.61h29.858a.8.8,0,0,1,0,1.61Z" transform="translate(-238.885 -167.027)" fill="#5cd8a0"/>
            <path id="Trazado_144640" data-name="Trazado 144640" d="M264.628,178.5H247.761a.8.8,0,0,1,0-1.61h16.868a.8.8,0,1,1,0,1.61Z" transform="translate(-240.461 -168.093)" fill="#5cd8a0"/>
          </g>
          <g id="Grupo_99172" data-name="Grupo 99172" transform="translate(5.351 34.018)">
            <path id="Trazado_144641" data-name="Trazado 144641" d="M286.6,192.959H227.834a.8.8,0,1,1,0-1.61H286.6a.8.8,0,0,1,0,1.61Z" transform="translate(-217.207 -191.349)" fill="#5cd8a0"/>
            <path id="Trazado_144642" data-name="Trazado 144642" d="M274.391,214.811H215.629a.8.8,0,0,1,0-1.61h58.762a.8.8,0,1,1,0,1.61Z" transform="translate(-214.824 -195.616)" fill="#5cd8a0"/>
            <path id="Trazado_144643" data-name="Trazado 144643" d="M284.213,198.422H215.629a.8.8,0,0,1,0-1.61h68.584a.8.8,0,0,1,0,1.61Z" transform="translate(-214.824 -192.416)" fill="#5cd8a0"/>
            <path id="Trazado_144644" data-name="Trazado 144644" d="M284.213,203.885H215.629a.8.8,0,0,1,0-1.609h68.584a.8.8,0,0,1,0,1.609Z" transform="translate(-214.824 -193.482)" fill="#5cd8a0"/>
            <path id="Trazado_144645" data-name="Trazado 144645" d="M284.213,209.348H215.629a.8.8,0,0,1,0-1.61h68.584a.8.8,0,0,1,0,1.61Z" transform="translate(-214.824 -194.549)" fill="#5cd8a0"/>
          </g>
          <g id="Grupo_99173" data-name="Grupo 99173" transform="translate(5.351 78.279)">
            <path id="Trazado_144646" data-name="Trazado 144646" d="M286.6,247.959H227.834a.8.8,0,1,1,0-1.61H286.6a.8.8,0,0,1,0,1.61Z" transform="translate(-217.207 -246.349)" fill="#5cd8a0"/>
            <path id="Trazado_144647" data-name="Trazado 144647" d="M274.391,269.81H215.629a.8.8,0,0,1,0-1.609h58.762a.8.8,0,1,1,0,1.609Z" transform="translate(-214.824 -250.615)" fill="#5cd8a0"/>
            <path id="Trazado_144648" data-name="Trazado 144648" d="M284.213,253.423H215.629a.8.8,0,0,1,0-1.61h68.584a.8.8,0,0,1,0,1.61Z" transform="translate(-214.824 -247.416)" fill="#5cd8a0"/>
            <path id="Trazado_144649" data-name="Trazado 144649" d="M284.213,258.885H215.629a.8.8,0,0,1,0-1.61h68.584a.8.8,0,0,1,0,1.61Z" transform="translate(-214.824 -248.482)" fill="#5cd8a0"/>
            <path id="Trazado_144650" data-name="Trazado 144650" d="M284.213,264.348H215.629a.8.8,0,0,1,0-1.61h68.584a.8.8,0,0,1,0,1.61Z" transform="translate(-214.824 -249.549)" fill="#5cd8a0"/>
          </g>
          <path id="Trazado_144724" data-name="Trazado 144724" d="M0,0H8.233V10.962H0Z" transform="translate(66.507 13.427)" fill="#5cd8a0"/>
          <path id="Trazado_144725" data-name="Trazado 144725" d="M4.564,0A4.564,4.564,0,1,1,0,4.564,4.564,4.564,0,0,1,4.564,0Z" transform="translate(6.156 13.427)" fill="#5cd8a0"/>
          <g id="Grupo_99174" data-name="Grupo 99174" transform="translate(5.894 58.004)">
            <path id="Trazado_144651" data-name="Trazado 144651" d="M215.5,222.116a.962.962,0,1,0,.962-.962A.962.962,0,0,0,215.5,222.116Z" transform="translate(-215.499 -221.154)" fill="#5cd8a0"/>
            <path id="Trazado_144652" data-name="Trazado 144652" d="M215.5,227.579a.962.962,0,1,0,.962-.962A.962.962,0,0,0,215.5,227.579Z" transform="translate(-215.499 -222.221)" fill="#5cd8a0"/>
            <path id="Trazado_144653" data-name="Trazado 144653" d="M215.5,233.042a.962.962,0,1,0,.962-.962A.962.962,0,0,0,215.5,233.042Z" transform="translate(-215.499 -223.287)" fill="#5cd8a0"/>
            <path id="Trazado_144654" data-name="Trazado 144654" d="M215.5,238.5a.962.962,0,1,0,.962-.962A.962.962,0,0,0,215.5,238.5Z" transform="translate(-215.499 -224.354)" fill="#5cd8a0"/>
            <path id="Trazado_144655" data-name="Trazado 144655" d="M231.106,222.958H220.629a.8.8,0,0,1,0-1.61h10.477a.8.8,0,1,1,0,1.61Z" transform="translate(-216.343 -221.192)" fill="#5cd8a0"/>
            <path id="Trazado_144656" data-name="Trazado 144656" d="M240.928,228.421h-20.3a.8.8,0,0,1,0-1.61h20.3a.8.8,0,1,1,0,1.61Z" transform="translate(-216.343 -222.259)" fill="#5cd8a0"/>
            <path id="Trazado_144657" data-name="Trazado 144657" d="M228.857,233.884h-8.228a.8.8,0,0,1,0-1.609h8.228a.8.8,0,1,1,0,1.609Z" transform="translate(-216.343 -223.325)" fill="#5cd8a0"/>
            <path id="Trazado_144658" data-name="Trazado 144658" d="M237.709,239.348h-17.08a.8.8,0,0,1,0-1.61h17.08a.8.8,0,1,1,0,1.61Z" transform="translate(-216.343 -224.392)" fill="#5cd8a0"/>
          </g>
          <path id="Trazado_144659" data-name="Trazado 144659" d="M310.633,277.558l-16.787,16.787V277.558Z" transform="translate(-224.902 -174.163)" fill="#f1d54e"/>
          <path id="Trazado_144660" data-name="Trazado 144660" d="M299.051,165.762l-8.233,10.962h8.233Z" transform="translate(-224.311 -152.335)" opacity="0.2" style="isolation: isolate"/>
          <rect id="Rectángulo_33611" data-name="Rectángulo 33611" width="5.333" height="5.333" transform="translate(8.053 15.324)" opacity="0.2" style="isolation: isolate"/>
          <rect id="Rectángulo_33612" data-name="Rectángulo 33612" width="4.742" height="96.402" transform="translate(80.989 6.994)" fill="#5cd8a0" opacity="0.4" style="isolation: isolate"/>
        </g>
      </g>
      <g id="Speech_bubble" data-name="Speech bubble" transform="translate(986.748 1677.293)">
        <g id="Grupo_99177" data-name="Grupo 99177" transform="translate(0 0)">
          <path id="Trazado_144663" data-name="Trazado 144663" d="M82.842,208.932h28.1a4.076,4.076,0,0,1,4.076,4.076v27.314a4.075,4.075,0,0,1-4.076,4.076H99.534l1.226,8.229L95.119,244.4H82.842a4.076,4.076,0,0,1-4.076-4.076V213.008A4.076,4.076,0,0,1,82.842,208.932Z" transform="translate(-78.766 -208.932)" fill="#407bff"/>
          <path id="Trazado_144664" data-name="Trazado 144664" d="M82.842,208.932h28.1a4.076,4.076,0,0,1,4.076,4.076v27.314a4.075,4.075,0,0,1-4.076,4.076H99.534l1.226,8.229L95.119,244.4H82.842a4.076,4.076,0,0,1-4.076-4.076V213.008A4.076,4.076,0,0,1,82.842,208.932Z" transform="translate(-78.766 -208.932)" fill="#f1d54e" style="isolation: isolate"/>
          <g id="Grupo_99176" data-name="Grupo 99176" transform="translate(6.729 6.286)">
            <path id="Trazado_144665" data-name="Trazado 144665" d="M98.411,222.51v2.179l1.122.105a5.813,5.813,0,0,0,.837,2.012l-.721.871,1.54,1.54.871-.72a5.826,5.826,0,0,0,2.013.837l.105,1.121h2.178l.106-1.122a5.811,5.811,0,0,0,2.012-.836l.871.72,1.54-1.54-.721-.871a5.813,5.813,0,0,0,.837-2.012l1.122-.105V222.51L111,222.4a5.816,5.816,0,0,0-.837-2.013l.721-.87-1.54-1.54-.871.72a5.812,5.812,0,0,0-2.012-.837l-.106-1.122h-2.178l-.105,1.122a5.81,5.81,0,0,0-2.013.837l-.871-.72-1.54,1.54.721.87a5.816,5.816,0,0,0-.837,2.013Zm6.856-1.86a2.949,2.949,0,1,1-2.949,2.949A2.949,2.949,0,0,1,105.268,220.65Z" transform="translate(-89.331 -216.743)" fill="#f5f5f5"/>
            <path id="Trazado_144666" data-name="Trazado 144666" d="M98.629,241.269a4.555,4.555,0,0,0,1.576-.655l.682.564,1.207-1.207-.565-.682a4.576,4.576,0,0,0,.656-1.577l.879-.083v-1.707l-.879-.083a4.572,4.572,0,0,0-.656-1.577l.565-.682-1.207-1.207-.682.565a4.541,4.541,0,0,0-1.576-.656l-.083-.879H96.839l-.082.879a4.539,4.539,0,0,0-1.577.656l-.682-.565L93.29,233.58l.565.682a4.555,4.555,0,0,0-.655,1.577l-.88.083v1.707l.88.083a4.559,4.559,0,0,0,.655,1.577l-.565.682,1.208,1.207.682-.564a4.553,4.553,0,0,0,1.577.655l.082.88h1.708Zm-3.248-4.493a2.311,2.311,0,1,1,2.311,2.311A2.311,2.311,0,0,1,95.381,236.776Z" transform="translate(-88.142 -219.605)" fill="#f5f5f5"/>
            <path id="Trazado_144667" data-name="Trazado 144667" d="M93.173,229.724l.475.572,1.185-.808-.361-.651a3.837,3.837,0,0,0,.787-1.2l.739.069.266-1.409-.713-.205a3.813,3.813,0,0,0-.3-1.4l.573-.475-.809-1.185-.651.361a3.812,3.812,0,0,0-1.2-.787l.068-.739-1.409-.266-.205.712a3.826,3.826,0,0,0-1.4.3l-.475-.573-1.185.809.36.651a3.825,3.825,0,0,0-.787,1.2l-.738-.068-.266,1.409.713.205a3.825,3.825,0,0,0,.3,1.4l-.572.475.808,1.185.651-.36a3.852,3.852,0,0,0,1.2.787l-.069.738,1.409.266.205-.713A3.845,3.845,0,0,0,93.173,229.724Zm-3.385-3.919a1.941,1.941,0,1,1,1.548,2.268A1.942,1.942,0,0,1,89.788,225.805Z" transform="translate(-87.128 -217.691)" fill="#f5f5f5"/>
          </g>
        </g>
      </g>
      <g id="Character" transform="translate(990.777 1725.343)">
        <g id="Grupo_99192" data-name="Grupo 99192" transform="translate(0 0)">
          <g id="Grupo_99178" data-name="Grupo 99178" transform="translate(38.874 43.959)">
            <path id="Trazado_144668" data-name="Trazado 144668" d="M140.082,333.116s1.983,17.824,2.626,19.948,9.716,13.468,9.716,13.468l-2.574,1.343s-9.687-9.929-11.194-12.874-3.832-18.314-3.832-18.314Z" transform="translate(-132.615 -325.188)" fill="#ebb376"/>
            <path id="Trazado_144669" data-name="Trazado 144669" d="M137.736,323.265c3.344,1.767,4.436,26.494,4.436,26.494l1.686,2.606-5.132,3.655a46.533,46.533,0,0,1-3.205-6.367c-1.02-2.76-3.442-16.343-3.442-16.343Z" transform="translate(-132.079 -323.265)" fill="#263238"/>
            <path id="Trazado_144670" data-name="Trazado 144670" d="M137.736,323.265c3.344,1.767,4.436,26.494,4.436,26.494l1.686,2.606-5.132,3.655a46.533,46.533,0,0,1-3.205-6.367c-1.02-2.76-3.442-16.343-3.442-16.343Z" transform="translate(-132.079 -323.265)" fill="#17c878" style="isolation: isolate"/>
            <path id="Trazado_144671" data-name="Trazado 144671" d="M139.4,362.834l5.889-4.669,1.269,2.65-5.433,3.877Z" transform="translate(-133.508 -330.079)" fill="#407bff"/>
            <path id="Trazado_144672" data-name="Trazado 144672" d="M139.4,362.834l5.889-4.669,1.269,2.65-5.433,3.877Z" transform="translate(-133.508 -330.079)" fill="#fff" opacity="0.4" style="isolation: isolate"/>
          </g>
          <g id="Grupo_99179" data-name="Grupo 99179" transform="translate(0 73.445)">
            <path id="Trazado_144673" data-name="Trazado 144673" d="M115.144,362.3l6.015,9.524c11.931-2.779,50.182-8.614,54.879,4.509,5.838,16.309-36.351,29.31-59.7,30.106s-42.084-12.5-27.322-46.534Z" transform="translate(-83.773 -359.904)" fill="#407bff"/>
            <path id="Trazado_144674" data-name="Trazado 144674" d="M115.144,362.3l6.015,9.524c11.931-2.779,50.182-8.614,54.879,4.509,5.838,16.309-36.351,29.31-59.7,30.106s-42.084-12.5-27.322-46.534Z" transform="translate(-83.773 -359.904)" fill="#1c468a" style="isolation: isolate"/>
          </g>
          <path id="Trazado_144675" data-name="Trazado 144675" d="M189.967,408.262a.15.15,0,0,1-.171-.009.12.12,0,0,1-.041-.145c.076-.259.85-2.5,1.631-2.74a.486.486,0,0,1,.466.136.8.8,0,0,1,.278.753,2.076,2.076,0,0,1-.731,1.055A8.559,8.559,0,0,1,189.967,408.262Zm.2-.431a3.344,3.344,0,0,0,1.663-1.6.507.507,0,0,0-.2-.513.167.167,0,0,0-.184-.054.549.549,0,0,0-.179.1A6.5,6.5,0,0,0,190.168,407.831Z" transform="translate(-104.464 -295.333)" fill="#407bff"/>
          <path id="Trazado_144676" data-name="Trazado 144676" d="M189.693,408.254a.127.127,0,0,1-.146-.043c-.072-.063-1.15-1.423-.973-2.342a.867.867,0,0,1,.372-.563.5.5,0,0,1,.623-.059c.564.4.495,2.219.218,2.909l-.019.069A.151.151,0,0,1,189.693,408.254Zm-.612-2.668a.572.572,0,0,0-.187.328,3.16,3.16,0,0,0,.722,1.87c.178-.778.121-2.055-.211-2.285-.035-.019-.1-.072-.27.045l-.053.042Z" transform="translate(-104.231 -295.297)" fill="#407bff"/>
          <path id="Trazado_144677" data-name="Trazado 144677" d="M138.782,413.7a.151.151,0,0,1,.154-.075.12.12,0,0,1,.105.107c.06.264.469,2.6-.1,3.187a.483.483,0,0,1-.474.107.8.8,0,0,1-.608-.525,2.085,2.085,0,0,1,.13-1.277A8.564,8.564,0,0,1,138.782,413.7Zm.033.474a3.345,3.345,0,0,0-.68,2.209.51.51,0,0,0,.422.353.167.167,0,0,0,.187-.042.521.521,0,0,0,.106-.179A6.489,6.489,0,0,0,138.815,414.176Z" transform="translate(-94.324 -296.948)" fill="#407bff"/>
          <path id="Trazado_144678" data-name="Trazado 144678" d="M154.557,399.04l-9.605,3.422-4.613,1.642,1.183,5.049,4.468-.952,10.912-2.326Z" transform="translate(-94.817 -294.1)" fill="#ebb376"/>
          <path id="Trazado_144679" data-name="Trazado 144679" d="M140.839,410.332l-.809-5.956a.594.594,0,0,0-.686-.506l-2.938.489s-4,.376-4.794,1.4c-2.322,3-.871,16.217.677,16.683.566.171,1.164-.607,1.412-1.144.782-1.7,2.161-6.159,2.831-7.571.782-1.651,2.93-2.46,3.9-2.749A.588.588,0,0,0,140.839,410.332Z" transform="translate(-92.876 -295.042)" fill="#263238"/>
          <path id="Trazado_144680" data-name="Trazado 144680" d="M139.033,413.654a.126.126,0,0,1,.148-.033c.093.019,1.7.688,1.985,1.578a.867.867,0,0,1-.053.673.5.5,0,0,1-.517.352c-.686-.075-1.507-1.7-1.6-2.439l-.015-.07A.139.139,0,0,1,139.033,413.654Zm1.828,2.038a.576.576,0,0,0,0-.377c-.183-.563-1.078-1.064-1.536-1.287.22.766.889,1.856,1.29,1.9.04,0,.126.013.214-.171l.027-.063Z" transform="translate(-94.552 -296.945)" fill="#407bff"/>
          <path id="Trazado_144681" data-name="Trazado 144681" d="M155.677,399.04l-9.605,3.422,1.037,5.739,10.912-2.326Z" transform="translate(-95.937 -294.1)" opacity="0.2" style="isolation: isolate"/>
          <g id="Grupo_99180" data-name="Grupo 99180" transform="translate(50.653 105.658)">
            <path id="Trazado_144682" data-name="Trazado 144682" d="M148.936,409.238l2.763.2-1.85-9.5-3.134,1.734Z" transform="translate(-146.716 -399.932)" fill="#407bff"/>
            <path id="Trazado_144683" data-name="Trazado 144683" d="M148.936,409.238l2.763.2-1.85-9.5-3.134,1.734Z" transform="translate(-146.716 -399.932)" fill="#fff" opacity="0.6" style="isolation: isolate"/>
          </g>
          <path id="Trazado_144684" data-name="Trazado 144684" d="M99.68,365.6l14.388,15.954s15.908-.354,35.223,9.087c0,0,20.727-8.562,22.631-15.674,2.494-9.317-47.658-2.034-47.658-2.034Z" transform="translate(-86.879 -287.572)" opacity="0.2" style="isolation: isolate"/>
          <g id="Grupo_99181" data-name="Grupo 99181" transform="translate(30.394 63.545)">
            <path id="Trazado_144685" data-name="Trazado 144685" d="M171.436,379.6v2.364c0,.607-.715.855-1.313.855H122.878c-.607,0-1.337-.248-1.337-.855V379.6Z" transform="translate(-121.541 -353.85)" fill="#263238"/>
            <path id="Trazado_144686" data-name="Trazado 144686" d="M171.436,379.6v2.364c0,.607-.715.855-1.313.855H122.878c-.607,0-1.337-.248-1.337-.855V379.6Z" transform="translate(-121.541 -353.85)" fill="#fff" opacity="0.4" style="isolation: isolate"/>
            <path id="Trazado_144687" data-name="Trazado 144687" d="M175.341,379.6v2.364c0,.607-.715.855-1.313.855h-31.16c-.606,0-1.326-.248-1.326-.855V379.6Z" transform="translate(-125.446 -353.85)" opacity="0.2" style="isolation: isolate"/>
            <path id="Trazado_144688" data-name="Trazado 144688" d="M183.812,348.808l-5.624,25.511a1.912,1.912,0,0,1-1.826,1.449H145.641a1.238,1.238,0,0,1-1.154-1.6L150.1,348.85a1.753,1.753,0,0,1,1.825-1.248h30.723C183.477,347.6,184,347.975,183.812,348.808Z" transform="translate(-126.013 -347.602)" fill="#263238"/>
            <path id="Trazado_144689" data-name="Trazado 144689" d="M184.065,348.808l-5.624,25.511a1.912,1.912,0,0,1-1.826,1.449H146.937a1.243,1.243,0,0,1-1.162-1.6L151.4,348.85a1.75,1.75,0,0,1,1.827-1.248H182.9C183.729,347.6,184.248,347.975,184.065,348.808Z" transform="translate(-126.266 -347.602)" fill="#fff" opacity="0.4" style="isolation: isolate"/>
            <path id="Trazado_144690" data-name="Trazado 144690" d="M172.982,364.256v.007a4.392,4.392,0,0,1-4.058,3.959c-1.717,0-2.734-1.775-2.244-3.959.489-2.141,2.2-3.886,3.877-3.952-.489,2.184.559,3.952,2.269,3.952A.911.911,0,0,0,172.982,364.256Z" transform="translate(-130.33 -350.083)" opacity="0.2" style="isolation: isolate"/>
          </g>
          <path id="Trazado_144691" data-name="Trazado 144691" d="M166.3,410.894l10.061,1.656,4.832.8,1.409-4.991-4.37-1.329-10.674-3.248Z" transform="translate(-99.886 -295.026)" fill="#ebb376"/>
          <path id="Trazado_144692" data-name="Trazado 144692" d="M184.791,406.839l-2.175,5.6a.6.6,0,0,0,.356.776l2.808.994s3.681,1.607,4.873,1.094c3.483-1.5,8.613-13.769,7.484-14.924-.414-.423-1.314-.032-1.788.317-1.509,1.111-4.873,4.344-6.143,5.254-1.486,1.066-3.756.735-4.741.52A.589.589,0,0,0,184.791,406.839Z" transform="translate(-103.064 -294.326)" fill="#263238"/>
          <path id="Trazado_144693" data-name="Trazado 144693" d="M166.3,410.894l10.061,1.656,1.871-5.524-10.674-3.248Z" transform="translate(-99.886 -295.026)" opacity="0.2" style="isolation: isolate"/>
          <path id="Trazado_144694" data-name="Trazado 144694" d="M162.33,401.079s-41.021-23.06-55.175-22.4-16.2,13.135-10.357,20.945,16.624,9.712,16.624,9.712-7.343-10.376-6.28-13.295,5.215,1.153,5.215,1.153,25.808,8.335,48.382,10.248Z" transform="translate(-85.719 -290.122)" fill="#163560"/>
          <g id="Grupo_99182" data-name="Grupo 99182" transform="translate(71.967 108.764)">
            <path id="Trazado_144695" data-name="Trazado 144695" d="M178.505,405.352l-2.322-1.56-2.983,9.164h3.582Z" transform="translate(-173.2 -403.792)" fill="#407bff"/>
            <path id="Trazado_144696" data-name="Trazado 144696" d="M178.505,405.352l-2.322-1.56-2.983,9.164h3.582Z" transform="translate(-173.2 -403.792)" fill="#fff" opacity="0.6" style="isolation: isolate"/>
          </g>
          <g id="Grupo_99183" data-name="Grupo 99183" transform="translate(5.244 37.923)">
            <path id="Trazado_144697" data-name="Trazado 144697" d="M90.289,351.287l26.13,2.4s4.1-8.482,7.235-11.79,5.923-20.095,5.923-20.095a55.806,55.806,0,0,0-6.551-2.672,64.931,64.931,0,0,0-19.99-3.364h-.145c-1.948-.008-3.074.1-3.074.1a5.551,5.551,0,0,0-1.859,2.117c-2.8,4.829-5.03,16.1-6.349,24.183C90.756,347.384,90.289,351.287,90.289,351.287Z" transform="translate(-90.289 -315.764)" fill="#5cd8a0"/>
            <path id="Trazado_144698" data-name="Trazado 144698" d="M91.929,342.7c5.762-2.64,13.624-7.106,13.214-11.637-.443-4.973-4.474-9.979-6.865-12.546C95.478,323.344,93.249,334.61,91.929,342.7Z" transform="translate(-90.609 -316.302)" opacity="0.2" style="isolation: isolate"/>
            <path id="Trazado_144701" data-name="Trazado 144701" d="M109.835,316.121s3.844,9.074,10.76,9.074,7.141-5.094,7.141-5.094S120.819,315.564,109.835,316.121Z" transform="translate(-94.105 -315.825)" fill="#407bff"/>
            <path id="Trazado_144702" data-name="Trazado 144702" d="M109.835,316.121s3.844,9.074,10.76,9.074,7.141-5.094,7.141-5.094S120.819,315.564,109.835,316.121Z" transform="translate(-94.105 -315.825)" fill="#5cd8a0" style="isolation: isolate"/>
          </g>
          <path id="Trazado_144703" data-name="Trazado 144703" d="M123.144,315.259c.047,1.63.968,2.015.968,2.015a3.3,3.3,0,0,1-3.576,3.809c-5.129-.525-6.749-6.7-6.749-6.7,3.732-1.482,4.569-5.6,4.726-8.04a13.179,13.179,0,0,0,0-1.92l6.97,4.391a24.443,24.443,0,0,0-1.557,3.052A8.661,8.661,0,0,0,123.144,315.259Z" transform="translate(-89.633 -275.627)" fill="#ebb376"/>
          <path id="Trazado_144704" data-name="Trazado 144704" d="M126,308.313a24.586,24.586,0,0,0-1.24,3.193,8.686,8.686,0,0,0-.435,3.453c-3.918.307-5.476-8.349-5.476-8.349l-.034-.05a13.126,13.126,0,0,0-.195-1.91Z" transform="translate(-90.577 -275.672)" opacity="0.2" style="isolation: isolate"/>
          <g id="Grupo_99189" data-name="Grupo 99189" transform="translate(17.616)">
            <path id="Trazado_144705" data-name="Trazado 144705" d="M127.931,281.948s5.113-5.89-1.009-10.825-18.219-2.706-20.448,8.437.847,15.851.847,15.851,0-7.1,2.043-9.166a14.98,14.98,0,0,0,0,5.439c.612,2.042,0,.742,0,.742s1.886-8.887,10.959-6.34S127.931,281.948,127.931,281.948Z" transform="translate(-105.663 -268.641)" fill="#263238"/>
            <path id="Trazado_144706" data-name="Trazado 144706" d="M131.744,287.472c6.741,2.055,7.81,6.326,6.185,13.424-2.03,8.869-5.836,14.45-13.7,10.026C113.551,304.913,120.549,284.057,131.744,287.472Z" transform="translate(-108.255 -272.244)" fill="#ebb376"/>
            <path id="Trazado_144707" data-name="Trazado 144707" d="M137.048,302.124a14.913,14.913,0,0,0,1.109,3.394,1.936,1.936,0,0,1-2.009.22Z" transform="translate(-111.615 -275.178)" fill="#d58745"/>
            <g id="Grupo_99184" data-name="Grupo 99184" transform="translate(20.071 23.786)">
              <path id="Trazado_144708" data-name="Trazado 144708" d="M132.008,299.581c-.156.558-.584.925-.956.821s-.546-.64-.39-1.2.583-.925.955-.822S132.163,299.023,132.008,299.581Z" transform="translate(-130.604 -298.23)" fill="#263238"/>
              <path id="Trazado_144709" data-name="Trazado 144709" d="M131.66,298.333l1.346-.136S132.117,299.048,131.66,298.333Z" transform="translate(-130.81 -298.197)" fill="#263238"/>
            </g>
            <g id="Grupo_99185" data-name="Grupo 99185" transform="translate(27.036 25.608)">
              <path id="Trazado_144710" data-name="Trazado 144710" d="M140.663,301.845c-.156.558-.583.925-.955.822s-.547-.641-.391-1.2.584-.925.955-.822S140.819,301.287,140.663,301.845Z" transform="translate(-139.259 -300.494)" fill="#263238"/>
              <path id="Trazado_144711" data-name="Trazado 144711" d="M140.315,300.6l1.346-.137S140.772,301.313,140.315,300.6Z" transform="translate(-139.465 -300.461)" fill="#263238"/>
            </g>
            <path id="Trazado_144712" data-name="Trazado 144712" d="M129.938,294.333a.292.292,0,0,1-.163-.534,3.933,3.933,0,0,1,3.518-.151.292.292,0,0,1-.24.532,3.4,3.4,0,0,0-2.953.1A.288.288,0,0,1,129.938,294.333Z" transform="translate(-110.346 -273.453)" fill="#263238"/>
            <path id="Trazado_144713" data-name="Trazado 144713" d="M142.672,297.163a.291.291,0,0,1-.225-.106,2.959,2.959,0,0,0-2.277-1.268.3.3,0,0,1-.306-.277.292.292,0,0,1,.274-.306,3.536,3.536,0,0,1,2.76,1.479.292.292,0,0,1-.04.411A.3.3,0,0,1,142.672,297.163Z" transform="translate(-112.341 -273.827)" fill="#263238"/>
            <path id="Trazado_144714" data-name="Trazado 144714" d="M120.643,295.829s4.841-4.577,5.667-9c0,0,15.023-1.383,11.547,12.377,0,0,4.977-11.642-6.53-15.445-11.488-3.8-16.627,13.167-12.183,20.042C119.145,303.8,117.637,298.7,120.643,295.829Z" transform="translate(-107.985 -271.486)" fill="#263238"/>
            <path id="Trazado_144715" data-name="Trazado 144715" d="M133.311,309.546H133.3a3.736,3.736,0,0,1-3.722-3.167.292.292,0,0,1,.579-.073,3.113,3.113,0,0,0,3.157,2.656.292.292,0,0,1-.007.583Z" transform="translate(-110.333 -275.945)" fill="#263238"/>
            <g id="Grupo_99188" data-name="Grupo 99188" transform="translate(11.485 22.239)">
              <g id="Grupo_99186" data-name="Grupo 99186">
                <path id="Trazado_144716" data-name="Trazado 144716" d="M119.941,297.03a.187.187,0,0,0,.106.219.221.221,0,0,0,.047.017l6.859,1.6a2.985,2.985,0,0,0,1.733,3.187,3.6,3.6,0,0,0,4.606-1.25,2.876,2.876,0,0,0,.208-.452,1.131,1.131,0,0,1,.885-.251.624.624,0,0,1,.353.4,2.987,2.987,0,0,0,1.737,3.163,3.6,3.6,0,0,0,4.606-1.25,2.929,2.929,0,0,0-1.383-4.159,3.6,3.6,0,0,0-4.606,1.25,2.89,2.89,0,0,0-.208.453.843.843,0,0,0-.347-.223,1.244,1.244,0,0,0-.9.089,2.985,2.985,0,0,0-1.733-3.184,3.6,3.6,0,0,0-4.606,1.249,2.961,2.961,0,0,0-.267.592l-6.834-1.592A.217.217,0,0,0,119.941,297.03Zm15.528,2.659A3.145,3.145,0,0,1,139.5,298.6a2.559,2.559,0,0,1,1.209,3.634,3.143,3.143,0,0,1-4.025,1.092A2.56,2.56,0,0,1,135.47,299.689Zm-7.789-1.615a3.143,3.143,0,0,1,4.025-1.091,2.559,2.559,0,0,1,1.21,3.634,3.144,3.144,0,0,1-4.025,1.092A2.561,2.561,0,0,1,127.681,298.074Z" transform="translate(-119.935 -296.275)" fill="#263238"/>
              </g>
              <g id="Grupo_99187" data-name="Grupo 99187" opacity="0.3" style="isolation: isolate">
                <path id="Trazado_144717" data-name="Trazado 144717" d="M119.941,297.03a.187.187,0,0,0,.106.219.221.221,0,0,0,.047.017l6.859,1.6a2.985,2.985,0,0,0,1.733,3.187,3.6,3.6,0,0,0,4.606-1.25,2.876,2.876,0,0,0,.208-.452,1.131,1.131,0,0,1,.885-.251.624.624,0,0,1,.353.4,2.987,2.987,0,0,0,1.737,3.163,3.6,3.6,0,0,0,4.606-1.25,2.929,2.929,0,0,0-1.383-4.159,3.6,3.6,0,0,0-4.606,1.25,2.89,2.89,0,0,0-.208.453.843.843,0,0,0-.347-.223,1.244,1.244,0,0,0-.9.089,2.985,2.985,0,0,0-1.733-3.184,3.6,3.6,0,0,0-4.606,1.249,2.961,2.961,0,0,0-.267.592l-6.834-1.592A.217.217,0,0,0,119.941,297.03Zm15.528,2.659A3.145,3.145,0,0,1,139.5,298.6a2.559,2.559,0,0,1,1.209,3.634,3.143,3.143,0,0,1-4.025,1.092A2.56,2.56,0,0,1,135.47,299.689Zm-7.789-1.615a3.143,3.143,0,0,1,4.025-1.091,2.559,2.559,0,0,1,1.21,3.634,3.144,3.144,0,0,1-4.025,1.092A2.561,2.561,0,0,1,127.681,298.074Z" transform="translate(-119.935 -296.275)" fill="#fff"/>
              </g>
            </g>
            <path id="Trazado_144718" data-name="Trazado 144718" d="M121.048,300.176a3.094,3.094,0,0,0-2.36-3.673c-2.158-.409-4.462,3.576.419,6.192C119.809,303.07,120.451,302.469,121.048,300.176Z" transform="translate(-107.723 -274.075)" fill="#ebb376"/>
          </g>
          <path id="Trazado_144719" data-name="Trazado 144719" d="M104.268,326.824s.856,17.2,2.3,21.054,16.649,18.1,16.649,18.1,4.243-.946,4.948-.671a52.593,52.593,0,0,1,4.746,3.993h-11.7l-1.02-1.807s-15.73-11.65-17.458-14.427c-1.279-2.054-5.387-22.948-5.387-22.948Z" transform="translate(-86.425 -280.001)" fill="#ebb376"/>
          <g id="Grupo_99191" data-name="Grupo 99191" transform="translate(9.112 37.765)">
            <path id="Trazado_144720" data-name="Trazado 144720" d="M100.756,315.823c2.728-1.422,4.058,3.143,5.686,12.376a96.8,96.8,0,0,1,1.363,17.664l2.332,4.145-5.887,5.423a25.308,25.308,0,0,1-6.208-9.568C96.223,340.305,91.211,320.8,100.756,315.823Z" transform="translate(-95.096 -315.567)" fill="#263238"/>
            <path id="Trazado_144721" data-name="Trazado 144721" d="M100.756,315.823c2.728-1.422,4.058,3.143,5.686,12.376a96.8,96.8,0,0,1,1.363,17.664l2.332,4.145-5.887,5.423a25.308,25.308,0,0,1-6.208-9.568C96.223,340.305,91.211,320.8,100.756,315.823Z" transform="translate(-95.096 -315.567)" fill="#17c878" style="isolation: isolate"/>
            <g id="Grupo_99190" data-name="Grupo 99190" transform="translate(7.613 33.219)">
              <path id="Trazado_144722" data-name="Trazado 144722" d="M104.556,363.49l7.429-6.644,1.755,2.461-6.635,6.516Z" transform="translate(-104.556 -356.846)" fill="#407bff"/>
              <path id="Trazado_144723" data-name="Trazado 144723" d="M104.556,363.49l7.429-6.644,1.755,2.461-6.635,6.516Z" transform="translate(-104.556 -356.846)" fill="#fff" opacity="0.4" style="isolation: isolate"/>
            </g>
          </g>
        </g>
      </g>
    </g>
    <rect id="Rectángulo_33524" data-name="Rectángulo 33524" width="338" height="257" transform="translate(3333 -10140)" fill="none"/>
  </g>
</svg>
