<svg xmlns="http://www.w3.org/2000/svg" width="338" height="257" viewBox="0 0 338 257">
  <g id="Grupo_99235" data-name="Grupo 99235" transform="translate(-3333 9696)">
    <g id="Grupo_99234" data-name="Grupo 99234" transform="translate(3298.045 -9707.529)">
      <g id="Grupo_99216" data-name="Grupo 99216" transform="translate(47.298 31.428)">
        <path id="Trazado_144793" data-name="Trazado 144793" d="M248.382,364.3c-33.434-9.055-31.878-51.466-14.638-73.462s22.435-41.067,14.12-75.906,51.629-97.664,128.648-50.937c69.831,42.366,120.8,38.046,147.971,94.126C549.948,310.689,507.34,364.3,483.044,364.3Z" transform="translate(-221.738 -147.338)" fill="#d2f6e6"/>
      </g>
      <g id="Grupo_99232" data-name="Grupo 99232" transform="translate(73.423 56.929)">
        <g id="Grupo_99222" data-name="Grupo 99222" transform="translate(51.313)">
          <g id="Grupo_99217" data-name="Grupo 99217">
            <path id="Trazado_144860" data-name="Trazado 144860" d="M32.038,0h65.72a32.038,32.038,0,0,1,32.038,32.038v86.249a32.038,32.038,0,0,1-32.038,32.038H32.037A32.037,32.037,0,0,1,0,118.288V32.038A32.038,32.038,0,0,1,32.038,0Z" fill="#f1d54e"/>
            <rect id="Rectángulo_33680" data-name="Rectángulo 33680" width="125.093" height="117.696" transform="translate(2.351 27.371)" fill="#bcbbe8"/>
          </g>
          <rect id="Rectángulo_33681" data-name="Rectángulo 33681" width="145.723" height="125.093" rx="21.68" transform="translate(127.444 2.16) rotate(90)" fill="#cdc9ed"/>
          <path id="Trazado_144795" data-name="Trazado 144795" d="M958,360.236H838.788a2.83,2.83,0,0,0-2.939,2.7V372.98H960.943V362.936A2.83,2.83,0,0,0,958,360.236Z" transform="translate(-833.498 -358.076)" fill="#5cd8a0"/>
          <path id="Trazado_144796" data-name="Trazado 144796" d="M866.091,379.353l5.35,2.838v-5.676Z" transform="translate(-859.811 -372.24)" fill="#f1d54e"/>
          <rect id="Rectángulo_33682" data-name="Rectángulo 33682" width="125.093" height="14.482" transform="translate(2.351 11.952)" fill="#fff"/>
          <path id="Trazado_144797" data-name="Trazado 144797" d="M1011.513,489.023H908.8a1.966,1.966,0,0,1-1.966-1.966h0a1.966,1.966,0,0,1,1.966-1.966h102.717a1.966,1.966,0,0,1,1.966,1.966h0A1.966,1.966,0,0,1,1011.513,489.023Z" transform="translate(-895.257 -466.709)" fill="#17c878"/>
          <g id="Grupo_99219" data-name="Grupo 99219" transform="translate(3.056 28.019)">
            <g id="Grupo_99218" data-name="Grupo 99218">
              <rect id="Rectángulo_33683" data-name="Rectángulo 33683" width="20.453" height="11.824" transform="translate(18.337 69.597)" fill="#fff"/>
              <rect id="Rectángulo_33684" data-name="Rectángulo 33684" width="20.453" height="11.824" transform="translate(18.337 55.906)" fill="#fff"/>
              <rect id="Rectángulo_33685" data-name="Rectángulo 33685" width="20.453" height="11.824" transform="translate(18.337 96.979)" fill="#fff"/>
              <rect id="Rectángulo_33686" data-name="Rectángulo 33686" width="20.453" height="11.824" transform="translate(18.337 83.288)" fill="#fff"/>
              <rect id="Rectángulo_33687" data-name="Rectángulo 33687" width="20.453" height="9.387" transform="translate(18.337 18.929)" fill="#fff"/>
              <rect id="Rectángulo_33688" data-name="Rectángulo 33688" width="20.453" height="10.165" transform="translate(18.337 30.183)" fill="#fff"/>
              <rect id="Rectángulo_33689" data-name="Rectángulo 33689" width="19.042" height="8.298" transform="translate(19.042 31.116)" fill="#fff"/>
              <rect id="Rectángulo_33690" data-name="Rectángulo 33690" width="20.453" height="11.824" transform="translate(18.337 42.214)" fill="#fff"/>
              <rect id="Rectángulo_33691" data-name="Rectángulo 33691" width="20.453" height="11.824" transform="translate(83.927 83.288)" fill="#fff"/>
              <rect id="Rectángulo_33692" data-name="Rectángulo 33692" width="20.453" height="11.824" transform="translate(40.2 96.979)" fill="#fff"/>
              <rect id="Rectángulo_33693" data-name="Rectángulo 33693" width="20.453" height="11.824" transform="translate(83.927 69.597)" fill="#fff"/>
              <rect id="Rectángulo_33694" data-name="Rectángulo 33694" width="20.453" height="11.824" transform="translate(83.927 42.214)" fill="#fff"/>
              <rect id="Rectángulo_33695" data-name="Rectángulo 33695" width="20.453" height="11.824" transform="translate(83.927 55.906)" fill="#fff"/>
              <rect id="Rectángulo_33696" data-name="Rectángulo 33696" width="20.453" height="11.824" transform="translate(62.064 96.979)" fill="#fff"/>
              <rect id="Rectángulo_33697" data-name="Rectángulo 33697" width="20.453" height="11.824" transform="translate(83.927 96.979)" fill="#fff"/>
              <rect id="Rectángulo_33698" data-name="Rectángulo 33698" width="20.453" height="9.387" transform="translate(18.337 7.675)" fill="#fff"/>
              <rect id="Rectángulo_33699" data-name="Rectángulo 33699" width="20.453" height="11.824" transform="translate(40.2 83.288)" fill="#fff"/>
              <rect id="Rectángulo_33700" data-name="Rectángulo 33700" width="20.453" height="11.824" transform="translate(40.2 69.597)" fill="#fff"/>
              <rect id="Rectángulo_33701" data-name="Rectángulo 33701" width="20.453" height="10.165" transform="translate(83.927 30.183)" fill="#fff"/>
              <rect id="Rectángulo_33702" data-name="Rectángulo 33702" width="20.453" height="9.387" transform="translate(40.2 7.675)" fill="#fff"/>
              <rect id="Rectángulo_33703" data-name="Rectángulo 33703" width="20.453" height="9.387" transform="translate(40.2 18.929)" fill="#fff"/>
              <rect id="Rectángulo_33704" data-name="Rectángulo 33704" width="20.453" height="11.824" transform="translate(40.2 42.214)" fill="#fff"/>
              <rect id="Rectángulo_33705" data-name="Rectángulo 33705" width="20.453" height="11.824" transform="translate(62.064 83.288)" fill="#fff"/>
              <rect id="Rectángulo_33706" data-name="Rectángulo 33706" width="20.453" height="10.165" transform="translate(40.2 30.183)" fill="#fff"/>
              <rect id="Rectángulo_33707" data-name="Rectángulo 33707" width="20.453" height="11.824" transform="translate(40.2 55.906)" fill="#fff"/>
              <rect id="Rectángulo_33708" data-name="Rectángulo 33708" width="20.453" height="9.387" transform="translate(62.064 18.929)" fill="#fff"/>
              <rect id="Rectángulo_33709" data-name="Rectángulo 33709" width="20.453" height="10.165" transform="translate(62.064 30.183)" fill="#fff"/>
              <rect id="Rectángulo_33710" data-name="Rectángulo 33710" width="20.453" height="11.824" transform="translate(62.064 69.597)" fill="#fff"/>
              <rect id="Rectángulo_33711" data-name="Rectángulo 33711" width="20.453" height="9.387" transform="translate(62.064 7.675)" fill="#fff"/>
              <rect id="Rectángulo_33712" data-name="Rectángulo 33712" width="20.453" height="11.824" transform="translate(62.064 42.214)" fill="#fff"/>
              <rect id="Rectángulo_33713" data-name="Rectángulo 33713" width="20.453" height="11.824" transform="translate(62.064 55.906)" fill="#fff"/>
              <rect id="Rectángulo_33714" data-name="Rectángulo 33714" width="17.893" height="11.824" transform="translate(105.79 96.979)" fill="#fff"/>
              <rect id="Rectángulo_33715" data-name="Rectángulo 33715" width="20.453" height="5.488" transform="translate(40.2 110.67)" fill="#fff"/>
              <rect id="Rectángulo_33716" data-name="Rectángulo 33716" width="20.453" height="5.488" transform="translate(62.064 110.67)" fill="#fff"/>
              <rect id="Rectángulo_33717" data-name="Rectángulo 33717" width="20.453" height="5.488" transform="translate(83.927 110.67)" fill="#fff"/>
              <rect id="Rectángulo_33718" data-name="Rectángulo 33718" width="16.926" height="5.488" transform="translate(0 110.67)" fill="#fff"/>
              <rect id="Rectángulo_33719" data-name="Rectángulo 33719" width="16.926" height="11.824" transform="translate(0 96.979)" fill="#fff"/>
              <rect id="Rectángulo_33720" data-name="Rectángulo 33720" width="20.453" height="5.488" transform="translate(18.337 110.67)" fill="#fff"/>
              <rect id="Rectángulo_33721" data-name="Rectángulo 33721" width="17.893" height="5.488" transform="translate(105.79 110.67)" fill="#fff"/>
              <rect id="Rectángulo_33722" data-name="Rectángulo 33722" width="17.893" height="11.824" transform="translate(105.79 83.288)" fill="#fff"/>
              <rect id="Rectángulo_33723" data-name="Rectángulo 33723" width="17.893" height="10.165" transform="translate(105.79 30.183)" fill="#fff"/>
              <rect id="Rectángulo_33724" data-name="Rectángulo 33724" width="20.453" height="9.387" transform="translate(83.927 18.929)" fill="#fff"/>
              <rect id="Rectángulo_33725" data-name="Rectángulo 33725" width="19.042" height="7.52" transform="translate(84.632 19.863)" fill="#fff"/>
              <rect id="Rectángulo_33726" data-name="Rectángulo 33726" width="17.893" height="11.824" transform="translate(105.79 42.214)" fill="#fff"/>
              <rect id="Rectángulo_33727" data-name="Rectángulo 33727" width="17.893" height="9.387" transform="translate(105.79 18.929)" fill="#fff"/>
              <rect id="Rectángulo_33728" data-name="Rectángulo 33728" width="17.893" height="11.824" transform="translate(105.79 55.906)" fill="#fff"/>
              <rect id="Rectángulo_33729" data-name="Rectángulo 33729" width="17.893" height="11.824" transform="translate(105.79 69.597)" fill="#fff"/>
              <rect id="Rectángulo_33730" data-name="Rectángulo 33730" width="16.926" height="11.824" transform="translate(0 83.288)" fill="#fff"/>
              <rect id="Rectángulo_33731" data-name="Rectángulo 33731" width="17.893" height="9.387" transform="translate(105.79 7.675)" fill="#fff"/>
              <rect id="Rectángulo_33732" data-name="Rectángulo 33732" width="20.453" height="9.387" transform="translate(83.927 7.675)" fill="#fff"/>
              <rect id="Rectángulo_33733" data-name="Rectángulo 33733" width="16.926" height="10.165" transform="translate(0 30.183)" fill="#fff"/>
              <rect id="Rectángulo_33734" data-name="Rectángulo 33734" width="124.388" height="5.808" fill="#fff"/>
              <rect id="Rectángulo_33735" data-name="Rectángulo 33735" width="16.926" height="11.824" transform="translate(0 69.597)" fill="#fff"/>
              <rect id="Rectángulo_33736" data-name="Rectángulo 33736" width="16.926" height="11.824" transform="translate(0 55.906)" fill="#fff"/>
              <rect id="Rectángulo_33737" data-name="Rectángulo 33737" width="16.926" height="11.824" transform="translate(0 42.214)" fill="#fff"/>
              <rect id="Rectángulo_33738" data-name="Rectángulo 33738" width="16.926" height="9.387" transform="translate(0 7.675)" fill="#fff"/>
              <rect id="Rectángulo_33739" data-name="Rectángulo 33739" width="16.926" height="9.387" transform="translate(0 18.929)" fill="#fff"/>
            </g>
          </g>
          <path id="Trazado_144798" data-name="Trazado 144798" d="M1624.421,417.9h-4.03a.476.476,0,0,1-.476-.476h0a.476.476,0,0,1,.476-.476h4.03a.476.476,0,0,1,.476.476h0A.476.476,0,0,1,1624.421,417.9Z" transform="translate(-1515.695 -407.416)" fill="#e4e3ed"/>
          <g id="Grupo_99220" data-name="Grupo 99220" transform="translate(112.129 6.916)">
            <rect id="Rectángulo_33740" data-name="Rectángulo 33740" width="4.611" height="3.563" fill="#e4e3ed"/>
            <rect id="Rectángulo_33741" data-name="Rectángulo 33741" width="2.685" height="3.733" transform="translate(4.172 0.439) rotate(90)" fill="#6f6d7d"/>
          </g>
          <g id="Grupo_99221" data-name="Grupo 99221" transform="translate(119.323 6.954)">
            <path id="Trazado_144799" data-name="Trazado 144799" d="M1739.371,400.661c-.014-.016-1.245-1.458-1.258-1.475h-.015c-.095.133-1.168,1.458-1.182,1.475h-.767l1.581-1.784-1.519-1.742h.775c.831,1,.979,1.179,1.158,1.423h.023c.27-.387.474-.6,1.174-1.423h.767l-1.573,1.716,1.611,1.81Z" transform="translate(-1736.148 -397.136)" fill="#e4e3ed"/>
          </g>
        </g>
        <g id="Grupo_99223" data-name="Grupo 99223" transform="translate(0 20.895)">
          <path id="Trazado_144800" data-name="Trazado 144800" d="M456.66,716.6c-.3-3.483-.75-8.512-3.584-10.869a7.1,7.1,0,0,0-7.873-.8c-7.786,3.616-3.955,9.152-13.758,17.2-3.046,2.5-4.1,3.11-6.342,6.356-3.139,4.544-3.05,9.709.287,12.7,3.462,3.107,13.188,5.34,16.673,5.092,10.115-.72,13.113-11.31,13.824-15.379A63.717,63.717,0,0,0,456.66,716.6Z" transform="translate(-422.816 -678.17)" fill="#12263f"/>
          <path id="Trazado_144801" data-name="Trazado 144801" d="M465.819,934.721l-5.125-2.6s-5.42,13.215-6.09,17.073c-.243,1.4.743,15.828,1.152,18.739-.137,5.618,1.857,6.9,2.927,8.631a11.465,11.465,0,0,0,2.377,1.008c.115-.211-.109-.5-.462-.747-.137-.094-.32-.141-.469-.238s-.281-.277-.409-.363a2.3,2.3,0,0,0-.526-.278,6.183,6.183,0,0,0-.373-.755c-.162-.28-.413-.59-.449-.672-.2-.488.034-.32.034-.32.234.382,1.523,1.938,1.523,1.938a16.81,16.81,0,0,0,2.491,1.706,1.63,1.63,0,0,0-.449-.924c-.107-.136-.4-.306-.549-.469-.113-.123-.213-.3-.357-.437s-.373-.25-.526-.408a5.129,5.129,0,0,1-.473-.75c-.6-.78-.818-1.382-.567-1.133a10.905,10.905,0,0,0,2.641,3.108c.289.2.484.271.513.15a1.154,1.154,0,0,0-.2-.761c-.148-.213-.456-.339-.654-.61-.116-.159-.183-.375-.3-.546-.473-.681-.684-.324-1.125-2.978a2.623,2.623,0,0,1,.567.36c.188.161,1.083,1.7,1.408,1.367s-1.529-3.891-1.529-3.891l-1.542-2.015c.347-13.69.766-16.968.855-17.08Z" transform="translate(-450.441 -876.557)" fill="#f7a491"/>
          <path id="Trazado_144802" data-name="Trazado 144802" d="M611.466,1288.617l3.3,29.146s-1.611,6.164-1.417,7.915,3.582,24.721,3.582,24.721l-.153,1.262-.082,3.738,12.663.094a56.885,56.885,0,0,1-6.4-3.521,2.69,2.69,0,0,1-1.332-1.844c-1-7.08,1.241-30.676,1.241-30.676l1.553-30.74Z" transform="translate(-586.956 -1186.732)" fill="#f7a491"/>
          <path id="Trazado_144803" data-name="Trazado 144803" d="M591.506,1201.839l6.82-.4s.4-26.358,1.331-32.082,1.475-24.843.533-32.215c-.811-6.344-3.85-16.49-3.85-16.49l-10.526,2.113-2.13.532,5.724,48.057s-.53,3.246-.8,6.573S591.506,1201.839,591.506,1201.839Z" transform="translate(-562.782 -1040.589)" fill="#163560"/>
          <path id="Trazado_144804" data-name="Trazado 144804" d="M477.438,1329.924c-.71.177-1.8,25.192-2.392,26.3-3.728,7.029-4.615,28.4-4.615,28.4l-1.538,2.992.353,2.883s2.783,1.579,4.735.514l-.3-2.887-.231-3.857,9.407-26.623L488,1330.489Z" transform="translate(-462.907 -1222.672)" fill="#f7a491"/>
          <path id="Trazado_144805" data-name="Trazado 144805" d="M650.222,1778.147h13.072c.484-.043.6-.434.434-.675-.346-.5-2.9-1.688-4.609-2.478-3.006.314-8.291-.913-8.766-1.6C650.08,1774.773,649.953,1778.088,650.222,1778.147Z" transform="translate(-620.547 -1608.52)" fill="#fff"/>
          <path id="Trazado_144806" data-name="Trazado 144806" d="M466.551,1773.894s1.071,2.231,2.327,2.137a4.419,4.419,0,0,0,2.444-1.635,11.5,11.5,0,0,1,.251,3.358c-.219,1.193-2.008,2.417-3.232,1.883A4.782,4.782,0,0,1,466.551,1773.894Z" transform="translate(-460.556 -1608.959)" fill="#fff"/>
          <path id="Trazado_144807" data-name="Trazado 144807" d="M489.925,1096.062a13.166,13.166,0,0,1-.6,2.8,62.282,62.282,0,0,0-4.376,8.27,32.669,32.669,0,0,0-1.955,7.6c-1.374,7.987-.932,32.348-.932,32.348a47.922,47.922,0,0,0-3.461,12.247c-1,6.989-1.733,18.553-1.733,18.553l5.092,1.3,10.353-31.033s4.923-27.174,6.521-30.768,4.6-18.187,4.6-18.187Z" transform="translate(-469.846 -1019.194)" fill="#1c468a"/>
          <path id="Trazado_144808" data-name="Trazado 144808" d="M517.065,1450.061s0,0,0,0Z" transform="translate(-504.82 -1327.2)" fill="#f47458"/>
          <path id="Trazado_144809" data-name="Trazado 144809" d="M680.026,671.76c-.116-1.074-3.085-1.94-3.958-2.2s-.307-.048-1.276.263c-.118.038-3.052,4.511-3.052,4.511-.925,1.457-9.412,14.427-12.271,16.4-2.92,2.011-14.555,5.519-14.555,5.519l-.532,7.428s16.065-5.506,19.5-8.459c2.848-2.445,8.524-14.216,11.23-18.554l0,0C675.822,675.761,680.141,672.834,680.026,671.76Z" transform="translate(-615.595 -648.008)" fill="#f7a491"/>
          <path id="Trazado_144810" data-name="Trazado 144810" d="M489.762,841.73c-7.15.1-9.9-1-15.443,12.042-.964,2.269-1.516,3.906-1.531,3.946,0,0,4.88,2.193,6.627,2.9,0,0,1.718-5.255,2.425-4.645,1.6,1.376,4.293,17.184,3.894,19.342,0,0,8.17,1.625,14.211.358,0,0,.865-15.556,1.165-16.26s2.129-3.783.632-7.269c-.268-.623-.934-2.485-.466-2.613a65.911,65.911,0,0,0,9.185-3.753l-2.613-6.63s-8.087,1.843-10.833,2.189a64.288,64.288,0,0,1-7.215.4Z" transform="translate(-466.295 -795.657)" fill="#fff"/>
          <path id="Trazado_144811" data-name="Trazado 144811" d="M599.666,808.081a34.167,34.167,0,0,1-.773,6.19c-.575,1.666,1.208,7.708,4.815,8.589s.063-7.177.123-8.93a65.763,65.763,0,0,1,1.216-6.946Z" transform="translate(-575.924 -767.675)" fill="#f7a491"/>
          <path id="Trazado_144812" data-name="Trazado 144812" d="M609.465,809.6c.282-1.429.546-2.614.546-2.614l-5.381,1.1s-.041.925-.138,2.093A4.347,4.347,0,0,0,609.465,809.6Z" transform="translate(-580.888 -767.675)" fill="#f47458"/>
          <path id="Trazado_144813" data-name="Trazado 144813" d="M585.681,719.525a6.166,6.166,0,0,0-3.332,2.669c-1.218,2.08-1.826,8.054,2.659,10.6s7.669-1.535,7.534-5.356S591.333,718.566,585.681,719.525Z" transform="translate(-560.854 -691.475)" fill="#f7a491"/>
          <path id="Trazado_144814" data-name="Trazado 144814" d="M659.542,757.75c-.324.94-1.032,1.548-1.579,1.359s-.728-1.1-.4-2.044,1.032-1.549,1.579-1.359S659.867,756.81,659.542,757.75Z" transform="translate(-626.92 -723.029)" fill="#f7a491"/>
          <path id="Trazado_144815" data-name="Trazado 144815" d="M572.07,719.109s-2.418,6.248-4.785,6.914-2.177,3.74-2.177,3.74-.3-7.1,1.859-8.846A9.449,9.449,0,0,1,572.07,719.109Z" transform="translate(-546.608 -691.217)" fill="#fb9e36"/>
          <path id="Trazado_144816" data-name="Trazado 144816" d="M572.622,772.51c.365.977.126,1.969-.535,2.215s-1.491-.345-1.856-1.322-.126-1.968.534-2.215S572.257,771.533,572.622,772.51Z" transform="translate(-550.929 -736.481)" fill="#f7a491"/>
          <path id="Trazado_144817" data-name="Trazado 144817" d="M888.255,505.1l-19.718,24.964-.017.022a1.075,1.075,0,0,1-1.687-1.333l.029-.034,20.753-24.135.007-.008a.411.411,0,0,1,.634.523Z" transform="translate(-808.942 -504.434)" fill="#184655"/>
          <path id="Trazado_144818" data-name="Trazado 144818" d="M874.577,675.109l-2.73,3.456-.017.022a1.075,1.075,0,0,1-1.423.238,1.075,1.075,0,0,0,1.748.086l.017-.022,2.841-3.6C874.871,675.228,874.724,675.167,874.577,675.109Z" transform="translate(-812.254 -652.934)" fill="#f47458"/>
          <path id="Trazado_144819" data-name="Trazado 144819" d="M899.355,663.264s2.916,2.585,2.183,3.667c-.811,1.195-1.846,1.839-1.9,1.48a10.212,10.212,0,0,1,.626-2.1,8.079,8.079,0,0,1-1.1-1.8C898.978,663.878,898.843,663.226,899.355,663.264Z" transform="translate(-837.129 -642.627)" fill="#f7a491"/>
          <path id="Trazado_144820" data-name="Trazado 144820" d="M878.155,663.535s-1.835.79-1.939.563.273-.762.273-.762,2.47-1.875,2.56-1.2S878.155,663.535,878.155,663.535Z" transform="translate(-817.291 -641.518)" fill="#f7a491"/>
          <path id="Trazado_144821" data-name="Trazado 144821" d="M905.175,661.5s-1.586-1.8-1.647-1.2c-.075.724,1.248,2.82,1.9,2.82S906.074,662.5,905.175,661.5Z" transform="translate(-841.068 -639.941)" fill="#f7a491"/>
        </g>
        <path id="Trazado_144822" data-name="Trazado 144822" d="M1535.019,1167.932a13.372,13.372,0,0,1,3.941,2.493c1.543-1.858,5.43-6.467,8.042-8.459-3.492,4.054-6.2,7.4-7.854,11.643A13.152,13.152,0,0,0,1535.019,1167.932Z" transform="translate(-1390.515 -1055.641)" fill="#ff5345"/>
        <path id="Trazado_144823" data-name="Trazado 144823" d="M1024.953,662.484a13.356,13.356,0,0,1,3.941,2.493c1.543-1.858,5.431-6.467,8.042-8.459-3.493,4.054-6.2,7.4-7.855,11.643A13.151,13.151,0,0,0,1024.953,662.484Z" transform="translate(-946.72 -615.862)" fill="#ff5345"/>
        <path id="Trazado_144824" data-name="Trazado 144824" d="M1366.868,967.112a13.371,13.371,0,0,1,3.941,2.493c1.543-1.858,5.43-6.467,8.042-8.459-3.492,4.054-6.2,7.4-7.854,11.643A13.155,13.155,0,0,0,1366.868,967.112Z" transform="translate(-1244.211 -880.912)" fill="#ff5345"/>
        <path id="Trazado_144825" data-name="Trazado 144825" d="M859.748,967.112a13.371,13.371,0,0,1,3.941,2.493c1.543-1.858,5.431-6.467,8.042-8.459-3.492,4.054-6.2,7.4-7.855,11.643A13.154,13.154,0,0,0,859.748,967.112Z" transform="translate(-802.979 -880.912)" fill="#ff5345"/>
        <path id="Trazado_144826" data-name="Trazado 144826" d="M1519.831,757.587a13.363,13.363,0,0,1,3.941,2.493c1.543-1.858,5.43-6.467,8.042-8.459-3.492,4.054-6.2,7.4-7.855,11.643A13.156,13.156,0,0,0,1519.831,757.587Z" transform="translate(-1377.301 -698.609)" fill="#ff5345"/>
        <path id="Trazado_144827" data-name="Trazado 144827" d="M1024.953,1283.755a13.364,13.364,0,0,1,3.941,2.493c1.543-1.858,5.431-6.467,8.042-8.459-3.493,4.053-6.2,7.4-7.855,11.642A13.153,13.153,0,0,0,1024.953,1283.755Z" transform="translate(-946.72 -1156.415)" fill="#ff5345"/>
        <path id="Trazado_144828" data-name="Trazado 144828" d="M1202.462,1283.755a13.371,13.371,0,0,1,3.941,2.493c1.543-1.858,5.43-6.467,8.042-8.459-3.492,4.053-6.2,7.4-7.854,11.642A13.154,13.154,0,0,0,1202.462,1283.755Z" transform="translate(-1101.166 -1156.415)" fill="#ff5345"/>
        <g id="Grupo_99231" data-name="Grupo 99231" transform="translate(141.929 28.788)">
          <g id="Grupo_99230" data-name="Grupo 99230">
            <g id="Grupo_99228" data-name="Grupo 99228">
              <path id="Trazado_144829" data-name="Trazado 144829" d="M2230.248,599.879c.582.5-2.48,6.376-2.48,6.376l-.039-1.88S2229.667,599.375,2230.248,599.879Z" transform="translate(-2135.154 -595.34)" fill="#f7a491"/>
              <g id="Grupo_99224" data-name="Grupo 99224" transform="translate(36.015 6.649)">
                <path id="Trazado_144830" data-name="Trazado 144830" d="M1844.033,769.352s-4.271,1.517-4.157,2.82a12.25,12.25,0,0,0,.378,1.783l-2.083,6.318,4.8.95s.694-4.561,1.686-5.737c.177-.21.537-.175.833-.426a11.814,11.814,0,0,0,2.471-2.568C1848.5,770.553,1844.033,769.352,1844.033,769.352Z" transform="translate(-1832.223 -749.474)" fill="#f7a491"/>
                <path id="Trazado_144831" data-name="Trazado 144831" d="M2182.486,616.361a28.1,28.1,0,0,1-.985,4.266c-.263.635-1.546,3.3-1.546,3.3l-.45,6.615-4.957-.578s1.592-4.788,1-6.208a14.954,14.954,0,0,1-.764-4.063C2174.848,617.68,2182.486,616.361,2182.486,616.361Z" transform="translate(-2124.897 -616.361)" fill="#f7a491"/>
                <path id="Trazado_144832" data-name="Trazado 144832" d="M1938.129,806.815s2.577-2.717,4.65.588a2.06,2.06,0,0,1,2.717.7s2.885-.868,3.586,3.445c0,0,1.485-.28,1.68,1.485a4.365,4.365,0,0,1-.7,2.941s.834.625.455,2.248a2.007,2.007,0,0,1-1.464,1.589s-.308,2.325-1.316,3.025a3.287,3.287,0,0,1-2.381.364,1.555,1.555,0,0,1-1.541,1.149c-1.176-.112-2.633-1.233-3.949-.728s-4.734-.028-4.734-.028-3.837-1.709-2.689-5.63a2.868,2.868,0,0,1-.252-4.005s-1.288-3.417,1.26-5.434A6.648,6.648,0,0,1,1938.129,806.815Z" transform="translate(-1913.398 -781.156)" fill="#07345a"/>
                <path id="Trazado_144833" data-name="Trazado 144833" d="M2203.167,1546.431a38.724,38.724,0,0,0,5.178-.869c.736-.362,4.466,3.2,3.726,4.987-.417,1.007-1.735.878-1.735.878l-1.065-1.04-5.638,1.175Z" transform="translate(-2149.797 -1424.813)" fill="#f7a491"/>
                <path id="Trazado_144834" data-name="Trazado 144834" d="M1857.185,1717.825a38.682,38.682,0,0,0-.261,5.244c.2.8-4.083,3.676-5.669,2.571a1.754,1.754,0,0,1-.486-1.882l1.244-.818.06-5.759Z" transform="translate(-1843.104 -1574.157)" fill="#f7a491"/>
                <path id="Trazado_144835" data-name="Trazado 144835" d="M1806.2,1760.925a29.608,29.608,0,0,1-3.105.642,24.8,24.8,0,0,1-2.773.072s-2.6,1.146-3.431,1.608c-1.839,1.03-3.9,2.174-4.446,3.117a1.131,1.131,0,0,0,.859,1.306c1.193.177,12.3-.148,13.751-.663C1809.132,1766.269,1806.2,1760.925,1806.2,1760.925Z" transform="translate(-1792.396 -1612.217)" fill="#f1d54e"/>
                <path id="Trazado_144836" data-name="Trazado 144836" d="M1857.5,1268.73c.252-.7.493-1.357.727-1.97,2.884.629,6.142,1.322,9.493,2.036l.408,12.283c0-.949-3.462,18.371-3.462,18.371s-1.561,11.36-2.969,28.086c-.906,1.392-5.373,1.313-6.9,1.2-.843-13.795.484-24.129.108-26.651C1854.692,1300.635,1854.5,1277.188,1857.5,1268.73Z" transform="translate(-1846.443 -1182.257)" fill="#fb9e36"/>
                <path id="Trazado_144837" data-name="Trazado 144837" d="M1971.707,1285.916c-.784,8.515-2.08,21.4-2.317,25.741,5.5.794,18.511,4.706,20.936,4.7a9.839,9.839,0,0,1,.789,6.6c-.125.405-25.657,1.218-32.248-2.987-1.719-1.1-2.249-12.858-2.275-25.26l-.408-12.283C1961.767,1283.621,1966.9,1284.788,1971.707,1285.916Z" transform="translate(-1934.904 -1195.891)" fill="#f47458"/>
                <path id="Trazado_144838" data-name="Trazado 144838" d="M1871.69,973.465l6.266.944s4.722.074,5.983.085c.109,0,5.024,23.976,6.219,33s.269,10.62.269,10.62-8.333,1.874-14.5,1.328c-6.41-.568-13.623-4.029-13.623-4.029s5.653-16.859,6.739-22.273S1871.69,973.465,1871.69,973.465Z" transform="translate(-1853.222 -927.068)" fill="#fff"/>
                <path id="Trazado_144839" data-name="Trazado 144839" d="M1800.558,832.849s-6.856,19.293-6.182,20.66c.98,1.989,14.245,5.582,14.245,5.582s-5.015,19.958-7.232,27.577c-.223.767-1.211,5.724-1.211,6.206,0,1.071,4.664,2.432,5.217,2.351.5-.072,5.4-20.865,7.993-31.134.88-3.48,1.56-6.962,3.625-9.9l1.807-2.567s-3.634-1.309-5.258-1.839c-2.418-.788-10.873-2.326-10.873-2.326s2.558-12.753,2.791-13.993C1805.543,833.139,1801.231,831.589,1800.558,832.849Z" transform="translate(-1794.078 -804.299)" fill="#5cd8a0"/>
                <path id="Trazado_144840" data-name="Trazado 144840" d="M1995.234,749.42s8.907-13.188,11.387-17.869c2.03-3.833,6.612-15.342,6.783-15.97s5.317-1.184,6.9-.465c.427.194-4.212,15.508-6.124,20.505-1.766,4.615-8.042,18.055-8.042,18.055s-3.618,8.256-3.054,14.636c.937,10.6,2.8,25.865,2.344,26.322-2.809,1.77-11.651,1.706-12.334.607C1985.555,783.1,1995.234,749.42,1995.234,749.42Z" transform="translate(-1964.518 -701.992)" fill="#5cd8a0"/>
                <path id="Trazado_144841" data-name="Trazado 144841" d="M1980.378,919.32l-.467,3.461s-1.045,4.986.3,5.947,5.717-6.089,5.717-6.089l-.462-8.769Z" transform="translate(-1955.211 -875.215)" fill="#f7a491"/>
                <path id="Trazado_144842" data-name="Trazado 144842" d="M1988.682,916.711a9.949,9.949,0,0,1-5.633,5.543l.4-2.934,5.088-5.451Z" transform="translate(-1958.278 -875.215)" fill="#f47458"/>
                <path id="Trazado_144843" data-name="Trazado 144843" d="M2057.6,851.8c0,1.336-.76,2.418-1.7,2.418s-1.7-1.083-1.7-2.418.76-2.418,1.7-2.418S2057.6,850.468,2057.6,851.8Z" transform="translate(-2020.191 -819.109)" fill="#07345a"/>
                <path id="Trazado_144844" data-name="Trazado 144844" d="M2013.506,818.683c0,.768-.924,1.39-2.064,1.39s-2.064-.622-2.064-1.39.924-1.39,2.064-1.39S2013.506,817.915,2013.506,818.683Z" transform="translate(-1981.187 -791.187)" fill="#07345a"/>
                <path id="Trazado_144845" data-name="Trazado 144845" d="M1958.285,841.287a4.625,4.625,0,0,0-6.052,3.685,34.956,34.956,0,0,0-.375,4.44c-.073,4.042,2.019,7.976,3.854,7.976s6.908-2.617,7.092-8.355C1962.917,845.491,1961.148,842.273,1958.285,841.287Z" transform="translate(-1931.138 -811.846)" fill="#f7a491"/>
                <path id="Trazado_144846" data-name="Trazado 144846" d="M2025.711,895.264a1.347,1.347,0,1,0,1.32-1.614A1.49,1.49,0,0,0,2025.711,895.264Z" transform="translate(-1995.398 -857.623)" fill="#f7a491"/>
                <path id="Trazado_144847" data-name="Trazado 144847" d="M1926.751,819.213c-1.9,1.5-2.56,3.784-1.484,5.1s3.486,1.16,5.382-.342,2.561-3.784,1.484-5.1S1928.647,817.711,1926.751,819.213Z" transform="translate(-1907.556 -791.783)" fill="#07345a"/>
                <ellipse id="Elipse_4656" data-name="Elipse 4656" cx="1.76" cy="1.182" rx="1.76" ry="1.182" transform="translate(24.153 27.48)" fill="#07345a"/>
                <ellipse id="Elipse_4657" data-name="Elipse 4657" cx="1.503" cy="1.52" rx="1.503" ry="1.52" transform="translate(18.915 32.165)" fill="#07345a"/>
                <path id="Trazado_144848" data-name="Trazado 144848" d="M2241.526,1528.883a29.612,29.612,0,0,1,1.292,2.9,24.807,24.807,0,0,1,.664,2.693s1.677,2.3,2.307,3.006c1.4,1.576,3.115,3.44,4.154,3.776.333.108,1.272-.176,1.272-.911,0-1.2-2.758-12.085-3.931-13.6C2245.932,1525,2241.526,1528.883,2241.526,1528.883Z" transform="translate(-2183.173 -1408.07)" fill="#f1d54e"/>
                <path id="Trazado_144849" data-name="Trazado 144849" d="M2186.12,629.365a5.393,5.393,0,0,1-1.881,2.228c-1.324.864-4.244.7-4.244.7Z" transform="translate(-2129.636 -627.675)" fill="#f47458"/>
              </g>
              <g id="Grupo_99227" data-name="Grupo 99227">
                <g id="Grupo_99226" data-name="Grupo 99226">
                  <g id="Grupo_99225" data-name="Grupo 99225" transform="translate(1.983)">
                    <path id="Trazado_144850" data-name="Trazado 144850" d="M2246.994,571.451l3.475-1.7a2.344,2.344,0,0,0,1.054-3.144l-.059-.12a2.345,2.345,0,0,0-3.144-1.055l-3.475,1.7Z" transform="translate(-2152.029 -565.186)" fill="#e3e3e3"/>
                    <path id="Trazado_144851" data-name="Trazado 144851" d="M2257.886,568.363a2.329,2.329,0,0,1,.772.888l.06.119a2.345,2.345,0,0,1-1.055,3.144l-3.475,1.7-1.075-2.159,3.475-1.7A2.343,2.343,0,0,0,2257.886,568.363Z" transform="translate(-2159.223 -567.95)" fill="#f0f0f0" style="mix-blend-mode: multiply;isolation: isolate"/>
                    <path id="Trazado_144852" data-name="Trazado 144852" d="M1558.65,627.858l88.657-43.368-2.149-4.318L1556.5,623.54l-.893,3.109Z" transform="translate(-1552.341 -578.225)" fill="#ff3b3b"/>
                    <path id="Trazado_144853" data-name="Trazado 144853" d="M1570.747,640.158,1659.4,596.79l1.074,2.159-88.657,43.368Z" transform="translate(-1565.513 -592.684)" fill="#e0e0e0" style="mix-blend-mode: multiply;isolation: isolate"/>
                    <path id="Trazado_144854" data-name="Trazado 144854" d="M1531.126,918.487l5.645-.947c1.255-.961.882-2.363-1.254-2.466-1.275-.062,1.405-2.5-.894-1.852l-4.16,3.932Z" transform="translate(-1530.463 -867.907)" fill="#fff"/>
                    <rect id="Rectángulo_33742" data-name="Rectángulo 33742" width="1.369" height="5.27" rx="0.684" transform="translate(95.5 6.249) rotate(153.547)" fill="#b3b3b3"/>
                  </g>
                  <path id="Trazado_144855" data-name="Trazado 144855" d="M1515.524,946.159l2.325-.605q.385-.745-.663-1.334l-1.885,1.49a.256.256,0,0,0-.071.315h0A.257.257,0,0,0,1515.524,946.159Z" transform="translate(-1515.203 -894.974)" fill="#ff3b3b"/>
                </g>
              </g>
            </g>
            <g id="Grupo_99229" data-name="Grupo 99229" transform="translate(48.117 27.938)">
              <path id="Trazado_144856" data-name="Trazado 144856" d="M1887.2,781.872c-.172-.11-1.878-.589-1.636-1.259.27-.747,2.15-.3,3.348.164C1888.687,781.411,1888.155,782.48,1887.2,781.872Z" transform="translate(-1885.543 -780.213)" fill="#f7a491"/>
            </g>
            <path id="Trazado_144857" data-name="Trazado 144857" d="M1844.458,759.587c.052-.013.929-.277.988-.508a.781.781,0,0,1,.351-.269c.02-.009.531-.1.519-.337-.005-.113.339-.405.442-.426.68-.139,1.361.856,1.361.856s1.518,1.71.473,1.882a.956.956,0,0,1-.614-.2c.249.387.346.761-.116.848a1.243,1.243,0,0,1-.817-.306c.25.368.344.717-.1.81-.418.087-1.217-.471-1.821-1.066l-.995-.922A.607.607,0,0,1,1844.458,759.587Z" transform="translate(-1801.395 -732.978)" fill="#f7a491"/>
          </g>
          <path id="Trazado_144858" data-name="Trazado 144858" d="M1875.84,791.55a3.968,3.968,0,0,1,1.657-.393l.683.683-3.637,1.424A5.431,5.431,0,0,1,1875.84,791.55Z" transform="translate(-1827.856 -761.797)" fill="#f7a491"/>
          <path id="Trazado_144859" data-name="Trazado 144859" d="M2173.29,636.083a14.954,14.954,0,0,1-.642-2.746c.15-.211,1.384.505,2.153,2.241l.77,1.736C2174.334,638.127,2173.691,637.685,2173.29,636.083Z" transform="translate(-2087.216 -624.451)" fill="#f7a491"/>
        </g>
      </g>
    </g>
    <rect id="Rectángulo_33524" data-name="Rectángulo 33524" width="338" height="257" transform="translate(3333 -9696)" fill="none"/>
  </g>
</svg>
