<svg xmlns="http://www.w3.org/2000/svg" width="241" height="198" viewBox="0 0 241 198">
  <g id="Grupo_99257" data-name="Grupo 99257" transform="translate(-3322.5 8055)">
    <g id="Grupo_99244" data-name="Grupo 99244" transform="translate(2318 -11367)">
      <g id="Grupo_98029" data-name="Grupo 98029" transform="translate(726.581 2778)">
        <rect id="Rectángulo_32944" data-name="Rectángulo 32944" width="241" height="198" transform="translate(277.919 534)" fill="#d7fced"/>
      </g>
    </g>
    <g id="tareas-diarias" transform="translate(3375 -8030.102)">
      <path id="Trazado_144931" data-name="Trazado 144931" d="M65.636,15.519v22.6H34V11H65.636Z" transform="translate(41.57 12.597)" fill="#b4dd7f"/>
      <path id="Trazado_144932" data-name="Trazado 144932" d="M34,29H65.636V56.116H34Z" transform="translate(41.57 35.272)" fill="#e6e9ed"/>
      <path id="Trazado_144933" data-name="Trazado 144933" d="M73.6,60.558,51,74.116V47Z" transform="translate(62.985 57.946)" fill="#aab2bd"/>
      <path id="Trazado_144934" data-name="Trazado 144934" d="M87.582,53V66.558H22.05l-.09-.023a5.94,5.94,0,0,0,.09-1.107V53Z" transform="translate(26.403 65.505)" fill="#ffeaa7"/>
      <path id="Trazado_144935" data-name="Trazado 144935" d="M22,47H87.531V60.558H22Z" transform="translate(26.454 57.946)" fill="#ff826e"/>
      <path id="Trazado_144936" data-name="Trazado 144936" d="M23.818,38V84.324a7.918,7.918,0,0,1-7.909,7.909A7.947,7.947,0,0,1,8,84.324V38Z" transform="translate(8.818 46.609)" fill="#838f9b"/>
      <path id="Trazado_144937" data-name="Trazado 144937" d="M30.818,76.934V89.363a5.94,5.94,0,0,1-.09,1.107A7.9,7.9,0,0,1,15,89.363V43.039h6.779V34h9.039V76.934Z" transform="translate(17.636 41.57)" fill="#838f9b"/>
      <path id="Trazado_144938" data-name="Trazado 144938" d="M30.6,24V55.636H8v-11.3H20.428a5.649,5.649,0,1,0,0-11.3H8V24Z" transform="translate(8.818 28.973)" fill="#e6e9ed"/>
      <path id="Trazado_144939" data-name="Trazado 144939" d="M47.194,56.675H38.155v-22.6h-22.6v9.039H27.987a5.649,5.649,0,1,1,0,11.3H11.039A9.036,9.036,0,0,1,2,45.376V38.6A22.605,22.605,0,0,1,24.6,16H35.9a22.605,22.605,0,0,1,22.6,22.6v22.6a9.036,9.036,0,0,1-9.039,9.039h-2.26Z" transform="translate(1.26 18.896)" fill="#f1d54e"/>
      <circle id="Elipse_4664" data-name="Elipse 4664" cx="15.5" cy="15.5" r="15.5" transform="translate(17 3.102)" fill="#fff"/>
      <path id="Trazado_144940" data-name="Trazado 144940" d="M50.713,102.687v-11.3a11.311,11.311,0,0,0,11.3-11.3v-22.6a24.88,24.88,0,0,0-18.507-24,18.064,18.064,0,1,0-22.278-.4A24.885,24.885,0,0,0,1,57.493v6.779a11.311,11.311,0,0,0,11.3,11.3h2.26v55.363a10.127,10.127,0,0,0,18.078,6.314,10.081,10.081,0,0,0,17.454-2.924h64.521L140.975,118.5l-26.364-15.818Zm0,18.078h61.012V129.8H50.713Zm61.012-13.558v9.039H50.713v-9.039ZM19.078,19.078A13.558,13.558,0,1,1,32.636,32.636,13.572,13.572,0,0,1,19.078,19.078ZM5.519,64.272V57.493A20.362,20.362,0,0,1,25.857,37.155h11.3A20.362,20.362,0,0,1,57.493,57.493v22.6a6.787,6.787,0,0,1-6.779,6.779V50.713H46.194v22.6H41.675v-22.6H14.558v9.039H10.039v4.519H29.246a3.39,3.39,0,1,1,0,6.779H12.3A6.787,6.787,0,0,1,5.519,64.272Zm23.727,11.3a7.909,7.909,0,1,0,0-15.818H19.078V55.233H37.155V82.349H19.078V75.57Zm-4.519,61.012a5.657,5.657,0,0,1-5.649-5.649V86.869h11.3v44.064A5.657,5.657,0,0,1,24.727,136.582Zm15.818,0a5.657,5.657,0,0,1-5.649-5.649V86.869h6.779V77.83h4.519v53.1A5.657,5.657,0,0,1,40.545,136.582Zm75.7-8.51V108.937l15.944,9.568Z" transform="translate(0 0)" fill="#0a5936"/>
      <path id="Trazado_144941" data-name="Trazado 144941" d="M69.155,28H33V59.636H69.155ZM64.636,55.116H37.519v-22.6H64.636Z" transform="translate(40.31 34.012)" fill="#0a5936"/>
      <path id="Trazado_144942" data-name="Trazado 144942" d="M69.155,21.125,79.792,10.488l-3.2-3.2-7.441,7.441V13.41H33V45.046H69.155Zm-31.636,19.4v-22.6H64.636v1.324L51.078,32.812l-7.441-7.441-3.2,3.2L51.078,39.2,64.636,25.644V40.526Z" transform="translate(40.31 7.927)" fill="#0a5936"/>
      <path id="Trazado_144943" data-name="Trazado 144943" d="M51,28H78.116v4.519H51Z" transform="translate(62.985 34.012)" fill="#0a5936"/>
      <path id="Trazado_144944" data-name="Trazado 144944" d="M51,22H78.116v4.519H51Z" transform="translate(62.985 26.454)" fill="#0a5936"/>
      <path id="Trazado_144945" data-name="Trazado 144945" d="M51,18H78.116v4.519H51Z" transform="translate(62.985 21.415)" fill="#0a5936"/>
      <path id="Trazado_144946" data-name="Trazado 144946" d="M51,14H78.116v4.519H51Z" transform="translate(62.985 16.376)" fill="#0a5936"/>
      <path id="Trazado_144947" data-name="Trazado 144947" d="M55,10H73.078v4.519H55Z" transform="translate(68.024 11.337)" fill="#0a5936"/>
      <path id="Trazado_144948" data-name="Trazado 144948" d="M51,32H78.116v4.519H51Z" transform="translate(62.985 39.051)" fill="#0a5936"/>
      <path id="Trazado_144949" data-name="Trazado 144949" d="M61,36h4.519v4.519H61Z" transform="translate(75.582 44.09)" fill="#0a5936"/>
      <path id="Trazado_144950" data-name="Trazado 144950" d="M51,36H69.078v4.519H51Z" transform="translate(62.985 44.09)" fill="#0a5936"/>
      <path id="Trazado_144951" data-name="Trazado 144951" d="M51,40H78.116v4.519H51Z" transform="translate(62.985 49.128)" fill="#0a5936"/>
    </g>
  </g>
</svg>
