<svg xmlns="http://www.w3.org/2000/svg" width="241" height="198" viewBox="0 0 241 198">
  <g id="Grupo_99263" data-name="Grupo 99263" transform="translate(-3641.5 8569)">
    <g id="Grupo_99244" data-name="Grupo 99244" transform="translate(2637 -11881)">
      <g id="Grupo_98029" data-name="Grupo 98029" transform="translate(726.581 2778)">
        <rect id="Rectángulo_32944" data-name="Rectángulo 32944" width="241" height="198" transform="translate(277.919 534)" fill="#d7fced"/>
      </g>
    </g>
    <g id="datos" transform="translate(3689 -8549.082)">
      <g id="Grupo_99260" data-name="Grupo 99260" transform="translate(10.293 10.293)">
        <path id="Trazado_144952" data-name="Trazado 144952" d="M74.056,136A18.346,18.346,0,0,1,42.74,148.972L55.712,136Z" transform="translate(-35.076 -101.605)" fill="#ffda44"/>
        <path id="Trazado_144953" data-name="Trazado 144953" d="M42.342,72V90.344L29.37,103.316A18.346,18.346,0,0,1,42.342,72Z" transform="translate(-21.705 -55.949)" fill="#b3ddff"/>
        <path id="Trazado_144954" data-name="Trazado 144954" d="M106.344,90.344H88V72A18.344,18.344,0,0,1,106.344,90.344Z" transform="translate(-67.363 -55.949)" fill="#ea7596"/>
        <g id="Grupo_99258" data-name="Grupo 99258" transform="translate(77.939 73.716)">
          <ellipse id="Elipse_4665" data-name="Elipse 4665" cx="25.5" cy="25" rx="25.5" ry="25" transform="translate(-0.232 -0.177)" fill="#ff9811"/>
          <ellipse id="Elipse_4666" data-name="Elipse 4666" cx="18.5" cy="18" rx="18.5" ry="18" transform="translate(6.768 6.823)" fill="#ffda44"/>
        </g>
        <path id="Trazado_144955" data-name="Trazado 144955" d="M320,32h9.172V77.859H320Z" transform="translate(-232.867 -27.414)" fill="#5cd8a0"/>
        <path id="Trazado_144956" data-name="Trazado 144956" d="M376,112h9.172v22.93H376Z" transform="translate(-272.816 -84.484)" fill="#5cd8a0"/>
        <path id="Trazado_144957" data-name="Trazado 144957" d="M432,80h9.172v32.1H432Z" transform="translate(-312.766 -61.656)" fill="#f1d54e"/>
        <path id="Trazado_144958" data-name="Trazado 144958" d="M208,112h9.172v22.93H208Z" transform="translate(-152.969 -84.484)" fill="#d2f6e6"/>
        <path id="Trazado_144959" data-name="Trazado 144959" d="M264,80h9.172v32.1H264Z" transform="translate(-192.918 -61.656)" fill="#ff9811"/>
        <path id="Trazado_144960" data-name="Trazado 144960" d="M16,296H84.789v57.324H16Z" transform="translate(-16 -215.746)" fill="#fff5c7"/>
        <path id="Trazado_144961" data-name="Trazado 144961" d="M40,328H95.031v11.465H40Z" transform="translate(-33.121 -238.574)" fill="#f1d54e"/>
      </g>
      <g id="Grupo_99261" data-name="Grupo 99261" transform="translate(8 8)">
        <path id="Trazado_144964" data-name="Trazado 144964" d="M36.635,64a20.621,20.621,0,0,0-14.77,35.028,2.216,2.216,0,0,0,.378.378A20.63,20.63,0,1,0,36.635,64Zm2.293,4.752A16.082,16.082,0,0,1,52.52,82.344H38.928ZM20.584,84.637A16.075,16.075,0,0,1,34.342,68.752V83.688L23.786,94.244a15.967,15.967,0,0,1-3.2-9.608Zm16.051,16.051a15.967,15.967,0,0,1-9.608-3.2L37.584,86.93H52.52A16.075,16.075,0,0,1,36.635,100.687Z" transform="translate(-13.706 -47.949)" fill="#0a5936"/>
        <path id="Trazado_144965" data-name="Trazado 144965" d="M113.477,241.172A27.5,27.5,0,0,0,90.51,283.824l-9.135,9.137V250.344a2.293,2.293,0,0,0-2.293-2.293h-5.93l11.465-11.465H106.6a2.293,2.293,0,1,0,0-4.586H83.668a2.3,2.3,0,0,0-1.622.671l-15.377,15.38H10.293A2.293,2.293,0,0,0,8,250.344v57.324a2.293,2.293,0,0,0,2.293,2.293H79.082a2.293,2.293,0,0,0,2.293-2.293v-8.223l12-12a27.509,27.509,0,1,0,20.106-46.278ZM76.789,298.493v6.882h-64.2V252.637h64.2Zm36.687-6.876a22.93,22.93,0,1,1,22.93-22.93,22.93,22.93,0,0,1-22.93,22.93Z" transform="translate(-8 -167.797)" fill="#0a5936"/>
        <path id="Trazado_144966" data-name="Trazado 144966" d="M324.637,288a20.637,20.637,0,1,0,20.637,20.637A20.637,20.637,0,0,0,324.637,288Zm0,36.688a16.051,16.051,0,1,1,16.051-16.051A16.051,16.051,0,0,1,324.637,324.688Z" transform="translate(-219.16 -207.746)" fill="#0a5936"/>
        <path id="Trazado_144967" data-name="Trazado 144967" d="M365.758,331.465v6.879a2.293,2.293,0,0,1-2.293,2.293h-2.293a2.293,2.293,0,0,1-4.586,0h-2.293a2.293,2.293,0,0,1,0-4.586h6.879v-2.293h-6.879A2.293,2.293,0,0,1,352,331.465v-6.879a2.293,2.293,0,0,1,2.293-2.293h2.293a2.293,2.293,0,0,1,4.586,0h2.293a2.293,2.293,0,1,1,0,4.586h-6.879v2.293h6.879A2.293,2.293,0,0,1,365.758,331.465Z" transform="translate(-253.402 -230.574)" fill="#0a5936"/>
        <path id="Trazado_144968" data-name="Trazado 144968" d="M314.293,74.445h9.172a2.293,2.293,0,0,0,2.293-2.293V26.293A2.293,2.293,0,0,0,323.465,24h-9.172A2.293,2.293,0,0,0,312,26.293V72.152A2.293,2.293,0,0,0,314.293,74.445Zm2.293-45.859h4.586V69.859h-4.586Z" transform="translate(-224.867 -19.414)" fill="#0a5936"/>
        <path id="Trazado_144969" data-name="Trazado 144969" d="M370.293,131.516h9.172a2.293,2.293,0,0,0,2.293-2.293v-22.93A2.293,2.293,0,0,0,379.465,104h-9.172A2.293,2.293,0,0,0,368,106.293v22.93A2.293,2.293,0,0,0,370.293,131.516Zm2.293-22.93h4.586V126.93h-4.586Z" transform="translate(-264.816 -76.484)" fill="#0a5936"/>
        <path id="Trazado_144970" data-name="Trazado 144970" d="M426.293,108.688h9.172a2.293,2.293,0,0,0,2.293-2.293v-32.1A2.293,2.293,0,0,0,435.465,72h-9.172A2.293,2.293,0,0,0,424,74.293v32.1A2.293,2.293,0,0,0,426.293,108.688Zm2.293-32.1h4.586V104.1h-4.586Z" transform="translate(-304.766 -53.656)" fill="#0a5936"/>
        <path id="Trazado_144971" data-name="Trazado 144971" d="M202.293,131.516h9.172a2.293,2.293,0,0,0,2.293-2.293v-22.93A2.293,2.293,0,0,0,211.465,104h-9.172A2.293,2.293,0,0,0,200,106.293v22.93A2.293,2.293,0,0,0,202.293,131.516Zm2.293-22.93h4.586V126.93h-4.586Z" transform="translate(-144.969 -76.484)" fill="#0a5936"/>
        <path id="Trazado_144972" data-name="Trazado 144972" d="M258.293,108.688h9.172a2.293,2.293,0,0,0,2.293-2.293v-32.1A2.293,2.293,0,0,0,267.465,72h-9.172A2.293,2.293,0,0,0,256,74.293v32.1A2.293,2.293,0,0,0,258.293,108.688Zm2.293-32.1h4.586V104.1h-4.586Z" transform="translate(-184.918 -53.656)" fill="#0a5936"/>
        <path id="Trazado_144973" data-name="Trazado 144973" d="M178.293,69.91h89.426a2.293,2.293,0,0,0,0-4.586H180.586V10.293a2.293,2.293,0,0,0-4.586,0V67.617A2.293,2.293,0,0,0,178.293,69.91Z" transform="translate(-127.848 -8)" fill="#0a5936"/>
        <path id="Trazado_144974" data-name="Trazado 144974" d="M89.324,320H34.293A2.293,2.293,0,0,0,32,322.293v11.465a2.293,2.293,0,0,0,2.293,2.293H89.324a2.293,2.293,0,0,0,2.293-2.293V322.293A2.293,2.293,0,0,0,89.324,320Zm-2.293,11.465H36.586v-6.879H87.031Z" transform="translate(-25.121 -230.574)" fill="#0a5936"/>
        <path id="Trazado_144975" data-name="Trazado 144975" d="M89.324,384H34.293a2.293,2.293,0,0,0,0,4.586H89.324a2.293,2.293,0,0,0,0-4.586Z" transform="translate(-25.121 -276.23)" fill="#0a5936"/>
        <path id="Trazado_144976" data-name="Trazado 144976" d="M89.324,408H34.293a2.293,2.293,0,0,0,0,4.586H89.324a2.293,2.293,0,0,0,0-4.586Z" transform="translate(-25.121 -293.352)" fill="#0a5936"/>
        <path id="Trazado_144977" data-name="Trazado 144977" d="M89.324,432H34.293a2.293,2.293,0,0,0,0,4.586H89.324a2.293,2.293,0,0,0,0-4.586Z" transform="translate(-25.121 -310.473)" fill="#0a5936"/>
        <path id="Trazado_144978" data-name="Trazado 144978" d="M57.223,456H34.293a2.293,2.293,0,0,0,0,4.586h22.93a2.293,2.293,0,1,0,0-4.586Z" transform="translate(-25.121 -327.594)" fill="#0a5936"/>
        <path id="Trazado_144979" data-name="Trazado 144979" d="M140.586,456h-2.293a2.293,2.293,0,0,0,0,4.586h2.293a2.293,2.293,0,0,0,0-4.586Z" transform="translate(-99.313 -327.594)" fill="#0a5936"/>
        <path id="Trazado_144980" data-name="Trazado 144980" d="M370.293,232a2.293,2.293,0,0,0,0,4.586h2.293a2.293,2.293,0,0,0,0-4.586Z" transform="translate(-264.816 -167.797)" fill="#0a5936"/>
        <path id="Trazado_144981" data-name="Trazado 144981" d="M57.223,216H34.293a2.293,2.293,0,0,0,0,4.586h21.98l10.793,10.793a2.293,2.293,0,1,0,3.243-3.243L58.844,216.672A2.293,2.293,0,0,0,57.223,216Z" transform="translate(-25.121 -156.383)" fill="#0a5936"/>
        <path id="Trazado_144983" data-name="Trazado 144983" d="M74.293,12.586H94.93A2.293,2.293,0,0,0,94.93,8H74.293a2.293,2.293,0,1,0,0,4.586Z" transform="translate(-53.656 -8)" fill="#0a5936"/>
        <path id="Trazado_144984" data-name="Trazado 144984" d="M74.293,36.586h6.879a2.293,2.293,0,0,0,0-4.586H74.293a2.293,2.293,0,0,0,0,4.586Z" transform="translate(-53.656 -25.121)" fill="#0a5936"/>
        <path id="Trazado_144986" data-name="Trazado 144986" d="M374.93,488H354.293a2.293,2.293,0,0,0,0,4.586H374.93a2.293,2.293,0,0,0,0-4.586Z" transform="translate(-253.402 -350.422)" fill="#0a5936"/>
        <path id="Trazado_144987" data-name="Trazado 144987" d="M409.172,464h-6.879a2.293,2.293,0,0,0,0,4.586h6.879a2.293,2.293,0,0,0,0-4.586Z" transform="translate(-287.645 -333.301)" fill="#0a5936"/>
      </g>
    </g>
  </g>
</svg>
