<svg xmlns="http://www.w3.org/2000/svg" width="241" height="198" viewBox="0 0 241 198">
  <g id="Grupo_99307" data-name="Grupo 99307" transform="translate(-270.919 -431.809)">
    <g id="Grupo_98045" data-name="Grupo 98045">
      <g id="Grupo_98029" data-name="Grupo 98029" transform="translate(-7 -102.191)">
        <rect id="Rectángulo_32944" data-name="Rectángulo 32944" width="241" height="198" transform="translate(277.919 534)" fill="#e8fff5"/>
      </g>
      <g id="Fill_Outline" data-name="Fill Outline" transform="translate(319.949 459.181)">
        <path id="Trazado_142396" data-name="Trazado 142396" d="M6,33H70.839V83.945H6Z" transform="translate(5.263 42.101)" fill="#fff"/>
        <path id="Trazado_142397" data-name="Trazado 142397" d="M3,55H81.733v4.631a9.263,9.263,0,0,1-9.263,9.263H12.263A9.263,9.263,0,0,1,3,59.631Z" transform="translate(1.316 71.046)" fill="#f9e109"/>
        <path id="Trazado_142398" data-name="Trazado 142398" d="M15.263,51.525V33H6V83.945H70.839V74.682H38.419A23.157,23.157,0,0,1,15.263,51.525Z" transform="translate(5.263 42.101)" fill="#e8fff5"/>
        <path id="Trazado_142399" data-name="Trazado 142399" d="M16.894,61.947A6.947,6.947,0,0,1,9.947,55H3v4.631a9.263,9.263,0,0,0,9.263,9.263H72.47a9.263,9.263,0,0,0,8.938-6.947Z" transform="translate(1.316 71.046)" fill="#fcbc04"/>
        <rect id="Rectángulo_33302" data-name="Rectángulo 33302" width="36.98" height="36.98" rx="2" transform="translate(102.063 76.997)" fill="#f1d54e"/>
        <circle id="Elipse_4522" data-name="Elipse 4522" cx="7.07" cy="7.07" r="7.07" transform="translate(112.939 88.961)" fill="#b3ddff"/>
        <path id="Trazado_142400" data-name="Trazado 142400" d="M51.947,45.578V34H49.631A4.631,4.631,0,0,0,45,38.631V66.419a4.631,4.631,0,0,0,4.631,4.631H77.419a4.631,4.631,0,0,0,4.631-4.631V64.1H70.472A18.525,18.525,0,0,1,51.947,45.578Z" transform="translate(56.574 43.417)" fill="#fb9e36"/>
        <circle id="Elipse_4523" data-name="Elipse 4523" cx="2.175" cy="2.175" r="2.175" transform="translate(120.553 91.137)" fill="#aae1f9"/>
        <path id="Trazado_142401" data-name="Trazado 142401" d="M3,12H30.788V49.051H3Z" transform="translate(1.316 14.472)" fill="#d2f6e6"/>
        <circle id="Elipse_4524" data-name="Elipse 4524" cx="18.49" cy="18.49" r="18.49" transform="translate(41.155 3.038)" fill="#d2f6e6"/>
        <path id="Trazado_142402" data-name="Trazado 142402" d="M25,20.894V7l13.894,6.947Z" transform="translate(30.26 7.894)" fill="#aae1f9"/>
        <path id="Trazado_142403" data-name="Trazado 142403" d="M44.338,30.722A18.525,18.525,0,0,1,25.813,12.2,18.294,18.294,0,0,1,28.245,3.05,18.525,18.525,0,1,0,53.6,28.407a18.294,18.294,0,0,1-9.263,2.316Z" transform="translate(22.5 2.697)" fill="#5cd8a0"/>
        <rect id="Rectángulo_33303" data-name="Rectángulo 33303" width="36.98" height="36.98" rx="2" transform="translate(102.063 5.213)" fill="#e8fff5"/>
        <path id="Trazado_142404" data-name="Trazado 142404" d="M51.947,14.578V3H49.631A4.631,4.631,0,0,0,45,7.631V35.419a4.631,4.631,0,0,0,4.631,4.631H77.419a4.631,4.631,0,0,0,4.631-4.631V33.1H70.472A18.525,18.525,0,0,1,51.947,14.578Z" transform="translate(56.574 2.631)" fill="#cbf4e1"/>
        <path id="Trazado_142405" data-name="Trazado 142405" d="M9.947,28.21V12H3V49.051H30.788V42.1H23.841A13.894,13.894,0,0,1,9.947,28.21Z" transform="translate(1.316 14.472)" fill="#e8fff5"/>
        <path id="Trazado_142406" data-name="Trazado 142406" d="M0,0H9.263V18.525a4.631,4.631,0,1,1-9.263,0Z" transform="matrix(0.866, -0.5, 0.5, 0.866, 41.51, 98.641)" fill="#f8664f"/>
        <path id="Trazado_142407" data-name="Trazado 142407" d="M32.954,51.326,27.1,41.16,19.06,45.791l5.488,9.494,4.006-2.316Z" transform="translate(22.445 52.837)" fill="#cc5144"/>
        <path id="Trazado_142408" data-name="Trazado 142408" d="M69.313,56.1,29.738,70.915,18.16,50.862,50.788,24Z" transform="translate(21.261 30.26)" fill="#f1d54e"/>
        <path id="Trazado_142409" data-name="Trazado 142409" d="M6.947,0H18.525V23.157H6.947A6.947,6.947,0,0,1,0,16.21V6.947A6.947,6.947,0,0,1,6.947,0Z" transform="matrix(0.866, -0.5, 0.5, 0.866, 23.388, 90.388)" fill="#f1d54e"/>
        <path id="Trazado_142410" data-name="Trazado 142410" d="M4.631,0H9.263V9.263H4.631A4.631,4.631,0,1,1,4.631,0Z" transform="matrix(0.866, -0.5, 0.5, 0.866, 18.823, 101.031)" fill="#cc5144"/>
        <path id="Trazado_142411" data-name="Trazado 142411" d="M27.228,48.436a4.839,4.839,0,0,0-.695.324L22.11,51.308l2.431,4.215L64.116,40.7l-2.895-5Z" transform="translate(26.458 45.654)" fill="#fb9e36"/>
        <path id="Trazado_142412" data-name="Trazado 142412" d="M33.707,49.1A11.578,11.578,0,0,1,16.432,37.94l-.625.37A6.947,6.947,0,0,0,13.259,47.8l4.631,8.012a6.947,6.947,0,0,0,9.494,2.547l10.027-5.789L34.98,48.36Z" transform="translate(13.588 48.601)" fill="#fb9e36"/>
        <g id="Grupo_98044" data-name="Grupo 98044" transform="translate(2 1)">
          <path id="Trazado_142413" data-name="Trazado 142413" d="M83.048,82.945H78.417V60.251a2.316,2.316,0,0,0-4.631,0V82.945H13.578V36.631H32.845a2.316,2.316,0,0,0,0-4.631H11.263a2.316,2.316,0,0,0-2.316,2.316V82.945H4.316A2.316,2.316,0,0,0,2,85.26v4.631A11.578,11.578,0,0,0,13.578,101.47H73.786A11.578,11.578,0,0,0,85.364,89.892V85.26A2.316,2.316,0,0,0,83.048,82.945Zm-2.316,6.947a6.947,6.947,0,0,1-6.947,6.947H69.154V94.523a2.316,2.316,0,0,0-4.631,0v2.316H22.841V94.523a2.316,2.316,0,0,0-4.631,0v2.316H13.578a6.947,6.947,0,0,1-6.947-6.947V87.576h74.1Z" transform="translate(-2 39.786)" fill="#0a5936"/>
          <path id="Trazado_142414" data-name="Trazado 142414" d="M60.578,10.631H65.21A2.316,2.316,0,0,0,65.21,6H60.578a6.947,6.947,0,0,0-6.947,6.947v2.316H51.316a2.316,2.316,0,1,0,0,4.631h2.316v6.947a2.316,2.316,0,1,0,4.631,0V19.894h2.316a2.316,2.316,0,1,0,0-4.631H58.263V12.947A2.316,2.316,0,0,1,60.578,10.631Z" transform="translate(59.836 5.578)" fill="#0a5936"/>
          <path id="Trazado_142415" data-name="Trazado 142415" d="M78.735,2H50.947A6.947,6.947,0,0,0,44,8.947v4.631a2.316,2.316,0,0,0,4.631,0V8.947a2.316,2.316,0,0,1,2.316-2.316H78.735a2.316,2.316,0,0,1,2.316,2.316V36.735a2.316,2.316,0,0,1-2.316,2.316H50.947a2.316,2.316,0,0,1-2.316-2.316V22.841a2.316,2.316,0,0,0-4.631,0V36.735a6.947,6.947,0,0,0,6.947,6.947H78.735a6.947,6.947,0,0,0,6.947-6.947V8.947A6.947,6.947,0,0,0,78.735,2Z" transform="translate(53.258 0.316)" fill="#0a5936"/>
          <path id="Trazado_142416" data-name="Trazado 142416" d="M49,47.263A9.263,9.263,0,1,0,58.263,38,9.263,9.263,0,0,0,49,47.263Zm13.894,0a4.631,4.631,0,1,1-4.631-4.631A4.631,4.631,0,0,1,62.894,47.263Z" transform="translate(59.836 47.68)" fill="#0a5936"/>
          <path id="Trazado_142417" data-name="Trazado 142417" d="M78.735,33H50.947A6.947,6.947,0,0,0,44,39.947V67.735a6.947,6.947,0,0,0,6.947,6.947H78.735a6.947,6.947,0,0,0,6.947-6.947V63.1a2.316,2.316,0,0,0-4.631,0v4.631a2.316,2.316,0,0,1-2.316,2.316H50.947a2.316,2.316,0,0,1-2.316-2.316V39.947a2.316,2.316,0,0,1,2.316-2.316H78.735a2.316,2.316,0,0,1,2.316,2.316V53.841a2.316,2.316,0,0,0,4.631,0V39.947A6.947,6.947,0,0,0,78.735,33Z" transform="translate(53.258 41.101)" fill="#0a5936"/>
          <path id="Trazado_142418" data-name="Trazado 142418" d="M25.088,24.174a2.3,2.3,0,0,0,2.269.093L41.252,17.32a2.316,2.316,0,0,0,0-4.122L27.358,6.251A2.316,2.316,0,0,0,24,8.312V22.206A2.316,2.316,0,0,0,25.088,24.174Zm3.543-12.111,6.391,3.2-6.391,3.2Z" transform="translate(26.945 5.582)" fill="#0a5936"/>
          <path id="Trazado_142419" data-name="Trazado 142419" d="M38.841,42.682A20.841,20.841,0,1,0,18,21.841,20.841,20.841,0,0,0,38.841,42.682Zm0-37.051a16.21,16.21,0,1,1-16.21,16.21,16.21,16.21,0,0,1,16.21-16.21Z" transform="translate(19.051 -1)" fill="#0a5936"/>
          <path id="Trazado_142420" data-name="Trazado 142420" d="M38.316,30.894a2.316,2.316,0,0,0,1.853-.926l6.947-9.263a2.316,2.316,0,0,0-3.705-2.779l-6.947,9.263a2.316,2.316,0,0,0,1.853,3.705Z" transform="translate(42.733 20.051)" fill="#0a5936"/>
          <path id="Trazado_142421" data-name="Trazado 142421" d="M39.463,32.652a2.316,2.316,0,0,0,3.242.463l9.263-6.947a2.316,2.316,0,1,0-2.779-3.705L39.926,29.41a2.316,2.316,0,0,0-.463,3.242Z" transform="translate(46.68 26.629)" fill="#0a5936"/>
          <path id="Trazado_142422" data-name="Trazado 142422" d="M58.348,29.884a2.316,2.316,0,0,0-2.779-1.853L43.991,30.347a2.327,2.327,0,0,0,.463,4.631h.463L56.5,32.662a2.316,2.316,0,0,0,1.853-2.779Z" transform="translate(50.489 34.492)" fill="#0a5936"/>
          <path id="Trazado_142423" data-name="Trazado 142423" d="M4.316,52.682H32.1a2.316,2.316,0,0,0,2.316-2.316V13.316A2.316,2.316,0,0,0,32.1,11H4.316A2.316,2.316,0,0,0,2,13.316V50.366a2.316,2.316,0,0,0,2.316,2.316ZM6.631,15.631H29.788V48.051H6.631Z" transform="translate(-2 12.157)" fill="#0a5936"/>
          <path id="Trazado_142424" data-name="Trazado 142424" d="M14.947,15H10.316a2.316,2.316,0,0,0,0,4.631h4.631a2.316,2.316,0,0,0,0-4.631Z" transform="translate(5.894 17.419)" fill="#0a5936"/>
          <path id="Trazado_142425" data-name="Trazado 142425" d="M17.578,19H8.316a2.316,2.316,0,0,0,0,4.631h9.263a2.316,2.316,0,0,0,0-4.631Z" transform="translate(3.263 22.682)" fill="#0a5936"/>
          <path id="Trazado_142426" data-name="Trazado 142426" d="M17.578,23H8.316a2.316,2.316,0,1,0,0,4.631h9.263a2.316,2.316,0,1,0,0-4.631Z" transform="translate(3.263 27.945)" fill="#0a5936"/>
          <path id="Trazado_142427" data-name="Trazado 142427" d="M71.756,36.2a2.324,2.324,0,1,0-4.029,2.316L77.939,56.18,40.889,70.074h-.347L34.52,73.548l-4.006,2.316a4.624,4.624,0,0,1-6.322-1.69l-4.631-8.012A4.631,4.631,0,0,1,21.3,60.047l8.012-4.631L35.1,65.443a2.324,2.324,0,1,0,4.029-2.316L33.154,52.8,62.216,28.832l.949,1.644a2.324,2.324,0,0,0,4.029-2.316l-2.316-4.006a2.347,2.347,0,0,0-3.5-.625L28.963,50.252l-9.865,5.7a9.263,9.263,0,0,0-4.261,10.49l-2.316,1.32A6.942,6.942,0,0,0,16,80.726a7.086,7.086,0,0,0,3.474-.926l2.316-1.32a8.985,8.985,0,0,0,4.052,2.408,8.776,8.776,0,0,0,2.431.324,9.124,9.124,0,0,0,4.631-1.25L34.914,78.8l4.631,8.035a6.941,6.941,0,1,0,12.018-6.947l-4.215-7.341L82.084,59.515a2.322,2.322,0,0,0,1.2-3.311ZM17.06,75.771a2.314,2.314,0,1,1-2.316-4.006l2.015-1.158,2.316,4.006Zm30.474,6.484a2.314,2.314,0,0,1-4.006,2.316L38.9,76.535l3.844-2.2h.185Z" transform="translate(7.254 27.948)" fill="#0a5936"/>
        </g>
      </g>
    </g>
  </g>
</svg>
