<svg xmlns="http://www.w3.org/2000/svg" width="315" height="165" viewBox="0 0 315 165">
  <g id="Grupo_98380" data-name="Grupo 98380" transform="translate(2115 4887)">
    <rect id="Rectángulo_33343" data-name="Rectángulo 33343" width="315" height="165" rx="5" transform="translate(-2115 -4887)" fill="#fff"/>
    <g id="segment" transform="translate(-2021.544 -4865.829)">
      <path id="Trazado_142585" data-name="Trazado 142585" d="M110.783,61.988a59.995,59.995,0,0,1-103.9,0H6.9L58.832,32l51.931,29.988Z" transform="translate(5.213 32.044)" fill="#b3ddff"/>
      <path id="Trazado_142586" data-name="Trazado 142586" d="M62.976,3V62.976L11.045,92.964h-.021A59.991,59.991,0,0,1,62.976,3Z" transform="translate(1.068 1.068)" fill="#f1d54e"/>
      <path id="Trazado_142587" data-name="Trazado 142587" d="M91.976,62.976a59.628,59.628,0,0,1-8.024,29.988h-.021L32,62.976V3A59.976,59.976,0,0,1,91.976,62.976Z" transform="translate(32.044 1.068)" fill="#d2f6e6"/>
      <path id="Trazado_142588" data-name="Trazado 142588" d="M38.273,40V56.545l-4.136-4.136L30,56.545V40Z" transform="translate(29.908 40.589)" fill="#ffeb99"/>
      <path id="Trazado_142589" data-name="Trazado 142589" d="M54.675,16h-.1a16.545,16.545,0,0,0-.1,33.09h.1a16.545,16.545,0,0,0,.1-33.09Z" transform="translate(38.426 14.954)" fill="#ffeb99"/>
      <path id="Trazado_142590" data-name="Trazado 142590" d="M57.09,44.136V68.954a4.149,4.149,0,0,1-4.136,4.136H28.136A4.149,4.149,0,0,1,24,68.954V44.136A4.149,4.149,0,0,1,28.136,40h8.273V56.545l4.136-4.136,4.136,4.136V40h8.273A4.149,4.149,0,0,1,57.09,44.136Z" transform="translate(23.499 40.589)" fill="#ff7956"/>
      <path id="Trazado_142591" data-name="Trazado 142591" d="M32.273,28.136v4.136a4.149,4.149,0,0,1-4.136,4.136H24V24h4.136a4.149,4.149,0,0,1,4.136,4.136Z" transform="translate(23.499 23.499)" fill="#ffc477"/>
      <path id="Trazado_142592" data-name="Trazado 142592" d="M43.09,24.341V34.681H38.954V32.613l-6.2-2.068-6.2,4.136v-6.2l-6.2,6.2V30.545l-6.2,2.068v2.068H10V24.341A10.341,10.341,0,0,1,20.341,14H32.75A10.341,10.341,0,0,1,43.09,24.341Z" transform="translate(8.545 12.818)" fill="#c0ab91"/>
      <path id="Trazado_142593" data-name="Trazado 142593" d="M36.818,35.477v2.068a12.285,12.285,0,0,1-.7,4.116,12.409,12.409,0,0,1-23.411,0,12.285,12.285,0,0,1-.7-4.116V25.136l6.2-2.068V27.2l6.2-6.2v6.2l6.2-4.136,6.2,2.068Z" transform="translate(10.681 20.295)" fill="#ffdaaa"/>
      <path id="Trazado_142594" data-name="Trazado 142594" d="M16.273,34.341v2.068H12.136A4.149,4.149,0,0,1,8,32.273V28.136A4.149,4.149,0,0,1,12.136,24h4.136Z" transform="translate(6.409 23.499)" fill="#ffc477"/>
      <path id="Trazado_142595" data-name="Trazado 142595" d="M64.044,2a62.044,62.044,0,1,0,62.044,62.044A62.044,62.044,0,0,0,64.044,2Zm57.908,62.044a57.563,57.563,0,0,1-6.771,27.136L66.112,62.849V6.188a57.97,57.97,0,0,1,55.84,57.856ZM61.976,6.188V62.855L12.907,91.18A57.867,57.867,0,0,1,61.976,6.188Zm2.068,115.764a57.908,57.908,0,0,1-49.058-27.2L64.044,66.433,113.1,94.766a57.908,57.908,0,0,1-49.058,27.186Z" transform="translate(0 0)" fill="#0a5936"/>
      <path id="Trazado_142596" data-name="Trazado 142596" d="M47.136,42.818h4.136V40.75a4.136,4.136,0,0,0,4.136-4.136V32.477a4.136,4.136,0,0,0-4.136-4.136H47.136V24.2h8.273V20.068H51.273V18H47.136v2.068A4.136,4.136,0,0,0,43,24.2v4.136a4.136,4.136,0,0,0,4.136,4.136h4.136v4.136H43V40.75h4.136Z" transform="translate(43.794 17.09)" fill="#0a5936"/>
      <path id="Trazado_142597" data-name="Trazado 142597" d="M55.613,52.227A18.613,18.613,0,1,0,37,33.613,18.613,18.613,0,0,0,55.613,52.227Zm0-33.09A14.477,14.477,0,1,1,41.136,33.613,14.477,14.477,0,0,1,55.613,19.136Z" transform="translate(37.385 13.886)" fill="#0a5936"/>
      <path id="Trazado_142598" data-name="Trazado 142598" d="M54.022,39H29.2A6.2,6.2,0,0,0,23,45.2V70.022a6.2,6.2,0,0,0,6.2,6.2H54.022a6.2,6.2,0,0,0,6.2-6.2V45.2A6.2,6.2,0,0,0,54.022,39ZM39.545,43.136h4.136v9.484l-.606-.606a2.068,2.068,0,0,0-2.924,0l-.606.606ZM56.09,70.022a2.068,2.068,0,0,1-2.068,2.068H29.2a2.068,2.068,0,0,1-2.068-2.068V45.2A2.068,2.068,0,0,1,29.2,43.136h6.2V57.613a2.068,2.068,0,0,0,3.53,1.462L41.613,56.4l2.674,2.674a2.068,2.068,0,0,0,3.53-1.462V43.136h6.2A2.068,2.068,0,0,1,56.09,45.2Z" transform="translate(22.431 39.521)" fill="#0a5936"/>
      <path id="Trazado_142599" data-name="Trazado 142599" d="M13.2,50.227H15.92c.066.219.1.449.172.666a14.477,14.477,0,0,0,27.316,0c.077-.217.105-.447.172-.666h2.715a6.2,6.2,0,0,0,6.2-6.2V39.886a6.2,6.2,0,0,0-4.136-5.824V25.409A12.421,12.421,0,0,0,35.954,13H23.545A12.421,12.421,0,0,0,11.136,25.409v8.653A6.2,6.2,0,0,0,7,39.886v4.136a6.2,6.2,0,0,0,6.2,6.2Zm26.3-.711h0a10.342,10.342,0,0,1-20.1-3.425V35.173l2.068-.691V35.75a2.068,2.068,0,0,0,3.53,1.462l2.674-2.674V35.75A2.068,2.068,0,0,0,30.9,37.47l5.361-3.582,3.832,1.284V46.09a10.248,10.248,0,0,1-.583,3.425Zm8.856-5.493a2.068,2.068,0,0,1-2.068,2.068H44.227V37.818h2.068a2.068,2.068,0,0,1,2.068,2.068ZM15.273,25.409a8.273,8.273,0,0,1,8.273-8.273H35.954a8.273,8.273,0,0,1,8.273,8.273v8.273a2.068,2.068,0,0,0-1.415-1.963l-6.2-2.068a2.1,2.1,0,0,0-1.8.242l-2.988,1.992V29.545a2.068,2.068,0,0,0-3.53-1.462l-2.8,2.8a2.068,2.068,0,0,0-2.591-1.241l-6.2,2.068a2.068,2.068,0,0,0-1.415,1.967ZM11.136,39.886A2.068,2.068,0,0,1,13.2,37.818h2.068V46.09H13.2a2.068,2.068,0,0,1-2.068-2.068Z" transform="translate(5.341 11.75)" fill="#0a5936"/>
      <path id="Trazado_142600" data-name="Trazado 142600" d="M21.2,31.068A2.068,2.068,0,0,1,19.136,29H15a6.2,6.2,0,1,0,12.409,0H23.273A2.068,2.068,0,0,1,21.2,31.068Z" transform="translate(13.886 28.84)" fill="#0a5936"/>
    </g>
  </g>
</svg>
