<svg xmlns="http://www.w3.org/2000/svg" width="315" height="165" viewBox="0 0 315 165">
  <g id="Grupo_98379" data-name="Grupo 98379" transform="translate(2115 4654)">
    <rect id="Rectángulo_33344" data-name="Rectángulo 33344" width="315" height="165" rx="5" transform="translate(-2115 -4654)" fill="#fff"/>
    <g id="objetivo" transform="translate(-2061.571 -4637.259)">
      <g id="Grupo_98346" data-name="Grupo 98346" transform="translate(67.579 10.23)">
        <path id="Trazado_142601" data-name="Trazado 142601" d="M139.645,39.825a40.22,40.22,0,1,0,40.22,40.22,40.221,40.221,0,0,0-40.22-40.22Zm0,72.136a31.916,31.916,0,1,1,31.916-31.916A31.953,31.953,0,0,1,139.645,111.961Z" transform="translate(-99.425 -39.825)" fill="#f1d54e"/>
      </g>
      <g id="Grupo_98347" data-name="Grupo 98347" transform="translate(67.579 40.07)">
        <path id="Trazado_142602" data-name="Trazado 142602" d="M107.728,166.372a31.777,31.777,0,0,1,1.734-10.379H100.78a40.431,40.431,0,0,0,0,20.759h8.683A31.777,31.777,0,0,1,107.728,166.372Z" transform="translate(-99.425 -155.993)" fill="#fb9e36"/>
      </g>
      <g id="Grupo_98348" data-name="Grupo 98348" transform="translate(97.419 10.23)">
        <path id="Trazado_142603" data-name="Trazado 142603" d="M215.593,41.18v8.683a31.928,31.928,0,0,1,20.759,0V41.18a40.43,40.43,0,0,0-20.759,0Z" transform="translate(-215.593 -39.825)" fill="#fb9e36"/>
      </g>
      <g id="Grupo_98349" data-name="Grupo 98349" transform="translate(137.981 40.07)">
        <path id="Trazado_142604" data-name="Trazado 142604" d="M375.233,166.372a31.778,31.778,0,0,1-1.734,10.379h8.683a40.432,40.432,0,0,0,0-20.759H373.5A31.78,31.78,0,0,1,375.233,166.372Z" transform="translate(-373.499 -155.993)" fill="#fb9e36"/>
      </g>
      <g id="Grupo_98350" data-name="Grupo 98350" transform="translate(84.186 26.837)">
        <path id="Trazado_142605" data-name="Trazado 142605" d="M187.688,104.476A23.613,23.613,0,1,0,211.3,128.089,23.639,23.639,0,0,0,187.688,104.476Zm0,38.922A15.31,15.31,0,1,1,203,128.089,15.328,15.328,0,0,1,187.688,143.4Z" transform="translate(-164.075 -104.476)" fill="#ffe07d"/>
      </g>
      <g id="Grupo_98351" data-name="Grupo 98351" transform="translate(100.793 43.444)">
        <circle id="Elipse_4562" data-name="Elipse 4562" cx="7.006" cy="7.006" r="7.006" fill="#e278b1"/>
      </g>
      <g id="Grupo_98352" data-name="Grupo 98352" transform="translate(103.647 1.927)">
        <path id="Trazado_142606" data-name="Trazado 142606" d="M245.546,32.41h-3.114a2.6,2.6,0,0,1-2.595-2.595V10.095A2.6,2.6,0,0,1,242.432,7.5h3.114a2.6,2.6,0,0,1,2.595,2.595V29.815A2.6,2.6,0,0,1,245.546,32.41Z" transform="translate(-239.837 -7.5)" fill="#f1d54e"/>
      </g>
      <g id="Grupo_98353" data-name="Grupo 98353" transform="translate(59.276 46.298)">
        <path id="Trazado_142607" data-name="Trazado 142607" d="M92.01,182.832v3.114a2.6,2.6,0,0,1-2.595,2.595H69.695a2.6,2.6,0,0,1-2.595-2.595v-3.114a2.6,2.6,0,0,1,2.595-2.595H89.415A2.6,2.6,0,0,1,92.01,182.832Z" transform="translate(-67.1 -180.237)" fill="#f1d54e"/>
      </g>
      <g id="Grupo_98354" data-name="Grupo 98354" transform="translate(131.412 46.298)">
        <path id="Trazado_142608" data-name="Trazado 142608" d="M347.926,185.946v-3.114a2.6,2.6,0,0,1,2.595-2.595h19.721a2.6,2.6,0,0,1,2.595,2.595v3.114a2.6,2.6,0,0,1-2.595,2.595H350.521A2.6,2.6,0,0,1,347.926,185.946Z" transform="translate(-347.926 -180.237)" fill="#f1d54e"/>
      </g>
      <g id="Grupo_98360" data-name="Grupo 98360" transform="translate(118.697 81.328)">
        <g id="Grupo_98355" data-name="Grupo 98355" transform="translate(30.1 38.403)">
          <path id="Trazado_142609" data-name="Trazado 142609" d="M415.606,466.114h8.3v9.86h-8.3Z" transform="translate(-415.606 -466.114)" fill="#f1d0a5"/>
        </g>
        <g id="Grupo_98356" data-name="Grupo 98356" transform="translate(9.601)">
          <circle id="Elipse_4563" data-name="Elipse 4563" cx="9.601" cy="9.601" r="9.601" fill="#f1d0a5"/>
        </g>
        <g id="Grupo_98357" data-name="Grupo 98357" transform="translate(10.707 1.106)">
          <path id="Trazado_142610" data-name="Trazado 142610" d="M353.076,320.915a9.6,9.6,0,0,1-12.968,12.968,9.6,9.6,0,1,0,12.968-12.968Z" transform="translate(-340.108 -320.915)" fill="#f1b986"/>
        </g>
        <g id="Grupo_98358" data-name="Grupo 98358" transform="translate(0 19.202)">
          <path id="Trazado_142611" data-name="Trazado 142611" d="M326.45,391.362H308.805a10.379,10.379,0,0,0-10.379,10.379v8.823h8.3v9.86h21.8v-9.86h8.3v-8.823A10.379,10.379,0,0,0,326.45,391.362Z" transform="translate(-298.426 -391.362)" fill="#d2f6e6"/>
        </g>
        <g id="Grupo_98359" data-name="Grupo 98359" transform="translate(0 19.202)">
          <path id="Trazado_142612" data-name="Trazado 142612" d="M312.439,420.424V396.552a16.008,16.008,0,0,0-.864-5.19h-2.769a10.379,10.379,0,0,0-10.379,10.379v8.823h8.3v9.86Z" transform="translate(-298.427 -391.362)" fill="#78d0b1"/>
        </g>
      </g>
      <g id="Grupo_98366" data-name="Grupo 98366" transform="translate(58.497 81.328)">
        <g id="Grupo_98361" data-name="Grupo 98361" transform="translate(0 38.403)">
          <path id="Trazado_142613" data-name="Trazado 142613" d="M0,0H8.3V9.86H0Z" transform="translate(8.303 9.86) rotate(180)" fill="#f1d0a5"/>
        </g>
        <g id="Grupo_98362" data-name="Grupo 98362" transform="translate(9.601)">
          <circle id="Elipse_4564" data-name="Elipse 4564" cx="9.601" cy="9.601" r="9.601" fill="#f1d0a5"/>
        </g>
        <g id="Grupo_98363" data-name="Grupo 98363" transform="translate(10.707 1.106)">
          <path id="Trazado_142614" data-name="Trazado 142614" d="M105.75,333.883a9.6,9.6,0,0,0,12.968-12.968,9.6,9.6,0,1,1-12.968,12.968Z" transform="translate(-105.75 -320.915)" fill="#f1b986"/>
        </g>
        <g id="Grupo_98364" data-name="Grupo 98364" transform="translate(0 19.202)">
          <path id="Trazado_142615" data-name="Trazado 142615" d="M74.448,391.362H92.093a10.379,10.379,0,0,1,10.379,10.379v8.823h-8.3v9.86h-21.8v-9.86h-8.3v-8.823A10.379,10.379,0,0,1,74.448,391.362Z" transform="translate(-64.069 -391.362)" fill="#ffe07d"/>
        </g>
        <g id="Grupo_98365" data-name="Grupo 98365" transform="translate(24.391 19.202)">
          <path id="Trazado_142616" data-name="Trazado 142616" d="M159.024,420.424V396.552a16.007,16.007,0,0,1,.864-5.19h2.769a10.379,10.379,0,0,1,10.379,10.379v8.823h-8.3v9.86Z" transform="translate(-159.024 -391.362)" fill="#ffd064"/>
        </g>
      </g>
      <g id="Grupo_98373" data-name="Grupo 98373" transform="translate(88.597 76.139)">
        <g id="Grupo_98367" data-name="Grupo 98367" transform="translate(30.1 38.403)">
          <path id="Trazado_142617" data-name="Trazado 142617" d="M298.427,445.911h8.3v15.05h-8.3Z" transform="translate(-298.427 -445.911)" fill="#f1d0a5"/>
        </g>
        <g id="Grupo_98368" data-name="Grupo 98368" transform="translate(0 38.403)">
          <path id="Trazado_142618" data-name="Trazado 142618" d="M0,0H8.3V15.05H0Z" transform="translate(8.303 15.05) rotate(180)" fill="#f1d0a5"/>
        </g>
        <g id="Grupo_98369" data-name="Grupo 98369" transform="translate(9.601)">
          <circle id="Elipse_4565" data-name="Elipse 4565" cx="9.601" cy="9.601" r="9.601" fill="#f1d0a5"/>
        </g>
        <g id="Grupo_98370" data-name="Grupo 98370" transform="translate(10.707 1.106)">
          <path id="Trazado_142619" data-name="Trazado 142619" d="M235.9,300.712a9.6,9.6,0,0,1-12.968,12.968A9.6,9.6,0,1,0,235.9,300.712Z" transform="translate(-222.929 -300.712)" fill="#f1b986"/>
        </g>
        <g id="Grupo_98371" data-name="Grupo 98371" transform="translate(0 19.202)">
          <path id="Trazado_142620" data-name="Trazado 142620" d="M209.273,371.159H191.628a10.379,10.379,0,0,0-10.379,10.379v8.823h8.3v15.05h21.8v-15.05h8.3v-8.823A10.38,10.38,0,0,0,209.273,371.159Z" transform="translate(-181.249 -371.159)" fill="#b3ddff"/>
        </g>
        <g id="Grupo_98372" data-name="Grupo 98372" transform="translate(8.303 19.787)">
          <path id="Trazado_142621" data-name="Trazado 142621" d="M236.731,373.437a43.31,43.31,0,0,1-23.158,23.558V407.1h21.8v-15.05h8.3v-8.823A10.382,10.382,0,0,0,236.731,373.437Z" transform="translate(-213.573 -373.437)" fill="#61a2f9"/>
        </g>
      </g>
      <g id="Grupo_98374" data-name="Grupo 98374" transform="translate(56.571 0)">
        <path id="Trazado_142622" data-name="Trazado 142622" d="M206.136,163.772A17.236,17.236,0,1,0,188.9,146.536,17.256,17.256,0,0,0,206.136,163.772Zm0-30.619a13.383,13.383,0,1,1-13.383,13.383A13.4,13.4,0,0,1,206.136,133.153Z" transform="translate(-154.908 -96.086)" fill="#0a5936"/>
        <path id="Trazado_142623" data-name="Trazado 142623" d="M230.158,179.492a8.932,8.932,0,1,0-8.932-8.932A8.943,8.943,0,0,0,230.158,179.492Zm0-14.012a5.079,5.079,0,1,1-5.079,5.079A5.085,5.085,0,0,1,230.158,165.48Z" transform="translate(-178.931 -120.11)" fill="#0a5936"/>
        <path id="Trazado_142624" data-name="Trazado 142624" d="M159.027,110.909A12.321,12.321,0,0,0,146.72,98.6h-.229a11.518,11.518,0,0,0-8.079-19.188c.266-.282.531-.566.79-.856a41.777,41.777,0,0,0,10.307-22.031h4.218a4.527,4.527,0,0,0,4.521-4.521V48.893a4.527,4.527,0,0,0-4.521-4.521h-4.219A42.163,42.163,0,0,0,113.877,8.743V4.521A4.526,4.526,0,0,0,109.356,0h-3.114a4.527,4.527,0,0,0-4.521,4.521V8.743A42.163,42.163,0,0,0,66.089,44.371H61.871a4.527,4.527,0,0,0-4.521,4.521v3.114a4.527,4.527,0,0,0,4.521,4.521h4.218A41.776,41.776,0,0,0,76.4,78.559c.26.29.524.574.79.856A11.518,11.518,0,0,0,69.107,98.6h-.229A12.321,12.321,0,0,0,56.571,110.91v18.682a1.927,1.927,0,0,0,1.927,1.927h13.1a1.927,1.927,0,0,0,0-3.853H68.726V114.542a1.927,1.927,0,1,0-3.853,0V117.8h-4.45V110.91a8.463,8.463,0,0,1,8.454-8.454H86.522c.2,0,.391.009.585.023a12.27,12.27,0,0,0-.436,3.241v21.945H80.583a1.927,1.927,0,1,0,0,3.853h53.645a1.927,1.927,0,1,0,0-3.853h-5.3V105.719a12.281,12.281,0,0,0-.436-3.241c.194-.013.389-.023.585-.023H146.72a8.463,8.463,0,0,1,8.454,8.454V117.8h-4.45v-3.262a1.927,1.927,0,0,0-3.853,0v13.124h-3.653a1.927,1.927,0,0,0,0,3.853H157.1a1.926,1.926,0,0,0,1.927-1.927ZM64.873,121.657v6.008H60.424v-6.008Zm80.7-30.728a7.683,7.683,0,0,1-7.655,7.674h-.04a7.674,7.674,0,1,1,7.694-7.674ZM119.255,87a11.447,11.447,0,0,0-.414-4.564,33.918,33.918,0,0,0,22.247-25.91h4.523A38.172,38.172,0,0,1,119.255,87ZM107.8,28.763A21.686,21.686,0,1,1,86.113,50.454v-.01A21.711,21.711,0,0,1,107.8,28.763Zm6.078-4.521V21.086a29.986,29.986,0,0,1,23.287,23.285h-3.158a4.509,4.509,0,0,0-1.351.207,25.625,25.625,0,0,0-18.985-18.985A4.5,4.5,0,0,0,113.877,24.242ZM113,75.456a25.622,25.622,0,0,0,19.657-19.135,4.506,4.506,0,0,0,1.351.207h3.163a29.9,29.9,0,0,1-20.059,22.428,11.606,11.606,0,0,0-4.112-3.5Zm-10.4,0a11.6,11.6,0,0,0-4.112,3.5A29.9,29.9,0,0,1,78.428,56.528h3.163a4.5,4.5,0,0,0,1.35-.206A25.622,25.622,0,0,0,102.6,75.456Zm-2.474,10.283a7.674,7.674,0,1,1,7.674,7.674A7.683,7.683,0,0,1,100.124,85.739ZM154.4,48.893v3.114a.669.669,0,0,1-.668.668H134.007a.669.669,0,0,1-.668-.668V48.893a.669.669,0,0,1,.668-.668h19.721a.669.669,0,0,1,.668.668Zm-8.786-4.521h-4.517a33.845,33.845,0,0,0-27.215-27.213V12.642a38.413,38.413,0,0,1,31.732,31.73ZM106.242,3.853h3.114a.669.669,0,0,1,.669.668V18.751s0,.009,0,.014v5.478a.669.669,0,0,1-.669.668h-3.114a.669.669,0,0,1-.668-.668V4.521a.669.669,0,0,1,.668-.668Zm-4.521,8.789v4.52a33.74,33.74,0,0,0-14.777,6.65,1.926,1.926,0,1,0,2.379,3.031,29.9,29.9,0,0,1,12.4-5.758v3.157a4.506,4.506,0,0,0,.206,1.351A25.625,25.625,0,0,0,82.941,44.578a4.505,4.505,0,0,0-1.35-.206H78.433a29.975,29.975,0,0,1,5.045-11.447,1.927,1.927,0,0,0-3.123-2.257,33.83,33.83,0,0,0-5.847,13.7h-4.52a38.413,38.413,0,0,1,31.732-31.73ZM61.2,52.006V48.893a.669.669,0,0,1,.668-.668H81.591a.669.669,0,0,1,.668.668v3.114a.669.669,0,0,1-.668.668H61.871a.669.669,0,0,1-.668-.668Zm8.784,4.521h4.523a33.917,33.917,0,0,0,22.247,25.91A11.447,11.447,0,0,0,96.342,87,38.171,38.171,0,0,1,69.986,56.528Zm.039,34.4A7.674,7.674,0,1,1,77.718,98.6h-.04A7.683,7.683,0,0,1,70.024,90.929Zm16.5,7.674h-.231a11.5,11.5,0,0,0,2.59-10.471,41.924,41.924,0,0,0,8.877,3.261,11.6,11.6,0,0,0,1.448,2.021h-.23a12.3,12.3,0,0,0-10.18,5.4,12.351,12.351,0,0,0-2.274-.211Zm8.452,29.062h-4.45v-11.2h4.45Zm3.853-18.313a1.927,1.927,0,1,0-3.853,0v3.263h-4.45v-6.9a8.462,8.462,0,0,1,8.453-8.453h17.645a8.462,8.462,0,0,1,8.453,8.453v6.9h-4.45v-3.263a1.927,1.927,0,1,0-3.853,0v18.313H98.827V109.352Zm26.247,18.313h-4.45v-11.2h4.45ZM126.8,98.814a12.3,12.3,0,0,0-10.18-5.4h-.23a11.584,11.584,0,0,0,1.448-2.021,41.911,41.911,0,0,0,8.877-3.261,11.5,11.5,0,0,0,2.59,10.471h-.231a12.35,12.35,0,0,0-2.274.211Zm23.923,28.851v-6.008h4.449v6.008Z" transform="translate(-56.571 0)" fill="#0a5936"/>
      </g>
    </g>
  </g>
</svg>
