<svg xmlns="http://www.w3.org/2000/svg" width="71" height="71" viewBox="0 0 71 71">
  <g id="Grupo_98583" data-name="Grupo 98583" transform="translate(-327 -9272)">
    <g id="analysis" transform="translate(332 9276.693)">
      <g id="Grupo_98578" data-name="Grupo 98578" transform="translate(4.153 4.213)">
        <g id="Grupo_98577" data-name="Grupo 98577">
          <path id="Trazado_142990" data-name="Trazado 142990" d="M53.86,32.106A21.678,21.678,0,1,0,75.538,53.784,21.678,21.678,0,0,0,53.86,32.106Zm0,2.065A19.593,19.593,0,0,1,69.877,42.5L67.3,45.082a4.074,4.074,0,0,0-2.081-.588,4.129,4.129,0,0,0-4.129,4.129,4.074,4.074,0,0,0,.585,2.084l-6.759,6.759a4,4,0,0,0-4.168,0l-4.695-4.695a4.074,4.074,0,0,0,.585-2.084,4.121,4.121,0,0,0-8.112-1.032h-3.83A19.641,19.641,0,0,1,53.86,34.171ZM67.28,48.623a2.065,2.065,0,1,1-2.065-2.065A2.065,2.065,0,0,1,67.28,48.623ZM54.893,61.01a2.065,2.065,0,1,1-2.065-2.065A2.065,2.065,0,0,1,54.893,61.01ZM44.57,50.687A2.065,2.065,0,1,1,42.5,48.623,2.065,2.065,0,0,1,44.57,50.687ZM63.39,70.934A19.61,19.61,0,0,1,34.357,51.72h4.165a4.129,4.129,0,0,0,3.983,3.1,4.074,4.074,0,0,0,2.084-.585l4.695,4.695A4.074,4.074,0,0,0,48.7,61.01a4.129,4.129,0,1,0,8.258,0,4.074,4.074,0,0,0-.585-2.084l6.759-6.759a4.074,4.074,0,0,0,2.084.585,4.129,4.129,0,0,0,4.129-4.129,4.074,4.074,0,0,0-.585-2.084l2.25-2.249A19.6,19.6,0,0,1,63.39,70.934Z" transform="translate(-32.182 -32.106)" fill="#5cd8a0"/>
        </g>
      </g>
      <g id="Grupo_98580" data-name="Grupo 98580" transform="translate(0 0.08)">
        <g id="Grupo_98579" data-name="Grupo 98579" transform="translate(0 0)">
          <path id="Trazado_142991" data-name="Trazado 142991" d="M51.639,10.407a4.129,4.129,0,0,0,3.983-3.1h6.34V5.245h-6.34a4.12,4.12,0,0,0-8.112,1.032,4.074,4.074,0,0,0,.585,2.084l-1.814,1.814a25.807,25.807,0,1,0-6.444,37.375l3.115,3.115,1.46,1.46,8.31,8.31a5.412,5.412,0,1,0,7.653-7.653l-8.31-8.31-1.46-1.46L47.491,39.9a25.722,25.722,0,0,0,0-28.012L49.555,9.82A4.075,4.075,0,0,0,51.639,10.407Zm0-6.194a2.065,2.065,0,1,1-2.065,2.065A2.065,2.065,0,0,1,51.639,4.213Zm7.278,50.029a3.348,3.348,0,0,1-4.68,4.788l-.054-.054-8.31-8.31,4.734-4.734Zm-9.77-9.77-4.734,4.734-2.857-2.857c.146-.111.282-.234.425-.349s.31-.252.464-.381c.226-.19.449-.382.668-.579.113-.1.22-.206.33-.31q.635-.595,1.229-1.229c.1-.11.206-.218.31-.33.2-.219.389-.442.579-.668q.194-.229.381-.464c.114-.142.236-.279.348-.424Zm-4-4.8c-.325.454-.661.9-1.015,1.328-.1.125-.214.246-.32.369q-.474.551-.979,1.069-.22.227-.447.447-.516.5-1.069.979c-.123.1-.244.216-.369.32-.428.354-.873.69-1.328,1.015a23.78,23.78,0,1,1,5.526-5.526Z" transform="translate(0 -0.08)" fill="#5cd8a0"/>
        </g>
      </g>
    </g>
    <rect id="Rectángulo_33356" data-name="Rectángulo 33356" width="71" height="71" transform="translate(327 9272)" fill="none"/>
  </g>
</svg>
