<svg xmlns="http://www.w3.org/2000/svg" xmlns:xlink="http://www.w3.org/1999/xlink" width="345.346" height="226.625" viewBox="0 0 345.346 226.625">
  <defs>
    <linearGradient id="linear-gradient" y1="0.5" x2="1" y2="0.5" gradientUnits="objectBoundingBox">
      <stop offset="0" stop-color="#b37cff"/>
      <stop offset="1" stop-color="#f895e7"/>
    </linearGradient>
    <linearGradient id="linear-gradient-10" x1="4.409" y1="-2.127" x2="3.346" y2="-0.014" gradientUnits="objectBoundingBox">
      <stop offset="0" stop-color="#fdf53f"/>
      <stop offset="1" stop-color="#d93c65"/>
    </linearGradient>
    <linearGradient id="linear-gradient-11" x1="4.526" y1="-2.242" x2="3.463" y2="-0.129" xlink:href="#linear-gradient-10"/>
    <linearGradient id="linear-gradient-12" x1="1.042" y1="0.01" x2="-0.339" y2="1.292" gradientUnits="objectBoundingBox">
      <stop offset="0" stop-color="#53d8ff"/>
      <stop offset="1" stop-color="#3840f7"/>
    </linearGradient>
    <linearGradient id="linear-gradient-13" x1="-80.165" y1="0.5" x2="-79.165" y2="0.5" xlink:href="#linear-gradient-12"/>
    <linearGradient id="linear-gradient-14" x1="-82.52" y1="0.5" x2="-81.52" y2="0.5" gradientUnits="objectBoundingBox">
      <stop offset="0" stop-color="#a737d5"/>
      <stop offset="1" stop-color="#ef497a"/>
    </linearGradient>
    <linearGradient id="linear-gradient-15" x1="-286.511" y1="0.5" x2="-285.511" y2="0.5" gradientUnits="objectBoundingBox">
      <stop offset="0" stop-color="#f9b776"/>
      <stop offset="1" stop-color="#f47960"/>
    </linearGradient>
    <linearGradient id="linear-gradient-16" x1="-221.202" y1="0.5" x2="-220.202" y2="0.5" xlink:href="#linear-gradient-12"/>
    <linearGradient id="linear-gradient-17" x1="-150.374" y1="0.5" x2="-149.374" y2="0.5" xlink:href="#linear-gradient-14"/>
    <linearGradient id="linear-gradient-18" x1="-250.202" y1="0.5" x2="-249.202" y2="0.5" xlink:href="#linear-gradient-15"/>
    <linearGradient id="linear-gradient-19" x1="-29.839" y1="0.221" x2="-31.241" y2="1.513" xlink:href="#linear-gradient-12"/>
    <linearGradient id="linear-gradient-20" x1="-180.112" y1="5.021" x2="-179.754" y2="4.213" xlink:href="#linear-gradient-12"/>
    <linearGradient id="linear-gradient-21" x1="-162.809" y1="0.1" x2="-165.198" y2="1.142" xlink:href="#linear-gradient-15"/>
    <linearGradient id="linear-gradient-22" x1="-84.119" y1="3.05" x2="-83.994" y2="0.072" gradientUnits="objectBoundingBox">
      <stop offset="0" stop-color="#233894"/>
      <stop offset="0.996" stop-color="#dd397a"/>
    </linearGradient>
    <linearGradient id="linear-gradient-23" x1="-106.621" y1="3.199" x2="-106.454" y2="-0.298" xlink:href="#linear-gradient-22"/>
    <linearGradient id="linear-gradient-24" x1="-80.572" y1="0.5" x2="-79.572" y2="0.5" xlink:href="#linear-gradient-15"/>
    <linearGradient id="linear-gradient-25" x1="-112.161" y1="-0.004" x2="-112.176" y2="1.888" xlink:href="#linear-gradient-15"/>
    <linearGradient id="linear-gradient-26" x1="-154.016" y1="48.036" x2="-155.536" y2="49.374" xlink:href="#linear-gradient-15"/>
    <linearGradient id="linear-gradient-27" x1="-87.224" y1="30.822" x2="-86.201" y2="30.822" gradientUnits="objectBoundingBox">
      <stop offset="0" stop-color="#2b3582"/>
      <stop offset="1" stop-color="#150e42"/>
    </linearGradient>
    <linearGradient id="linear-gradient-28" x1="-424.672" y1="138.107" x2="-421.382" y2="135.751" xlink:href="#linear-gradient-15"/>
    <linearGradient id="linear-gradient-29" x1="-221.796" y1="0.5" x2="-220.796" y2="0.5" xlink:href="#linear-gradient-15"/>
    <linearGradient id="linear-gradient-30" x1="-44.886" y1="1.815" x2="-43.577" y2="-0.054" xlink:href="#linear-gradient-27"/>
    <linearGradient id="linear-gradient-31" x1="-7.438" y1="-0.454" x2="-8.102" y2="1.454" xlink:href="#linear-gradient-12"/>
    <linearGradient id="linear-gradient-32" x1="-7.404" y1="-0.454" x2="-8.067" y2="1.454" xlink:href="#linear-gradient-12"/>
    <linearGradient id="linear-gradient-33" x1="-113.892" y1="-1.222" x2="-115.585" y2="3.818" xlink:href="#linear-gradient-15"/>
  </defs>
  <g id="Grupo_98625" data-name="Grupo 98625" transform="translate(-975.941 -9835.493)">
    <g id="Grupo_98597" data-name="Grupo 98597" transform="translate(1004.152 9853.663)">
      <path id="Trazado_143037" data-name="Trazado 143037" d="M184.646,177.681V336.256c0,13.045,9.221,23.712,20.788,24.049,51.375,1.494,231.06,5.115,279.966,4.3,8.406-.14,15.215-7.723,15.457-17.2.943-36.839,2.475-125.425-3.193-166.551-1.194-8.661-7.678-15.137-15.449-15.418-43.046-1.553-233.524-6.482-282.407-5.244C191.378,160.411,184.646,168.174,184.646,177.681Z" transform="translate(-184.646 -160)" fill="#d2f6e6"/>
      <path id="Trazado_143038" data-name="Trazado 143038" d="M210.427,188.744V339.4c0,7.617,5.423,13.822,12.178,13.936l272.714,3.8c6.7.113,12.187-5.961,12.212-13.512l.456-149.311c.018-5.4-3.8-9.823-8.585-9.954L220.193,178C214.838,177.852,210.427,182.706,210.427,188.744Z" transform="translate(-201.601 -171.835)" fill="#5cd8a0"/>
      <path id="Trazado_143039" data-name="Trazado 143039" d="M508.926,706.7h-.007l-299.157-5.746a.342.342,0,0,1,.006-.685h.007l299.157,5.746a.342.342,0,0,1-.006.685Z" transform="translate(-200.943 -515.309)" fill="#fff" opacity="0.65"/>
      <g id="Grupo_98589" data-name="Grupo 98589" transform="translate(205.96 30.018)" opacity="0.6">
        <rect id="Rectángulo_33357" data-name="Rectángulo 33357" width="4.596" height="49.792" transform="translate(0 40.337)" fill="#fff"/>
        <rect id="Rectángulo_33358" data-name="Rectángulo 33358" width="4.596" height="32.679" transform="translate(7.679 57.449)" fill="#fff"/>
        <rect id="Rectángulo_33359" data-name="Rectángulo 33359" width="4.596" height="74.972" transform="translate(15.357 15.157)" fill="#fff"/>
        <rect id="Rectángulo_33360" data-name="Rectángulo 33360" width="4.596" height="18.011" transform="translate(23.036 72.117)" fill="#fff"/>
        <rect id="Rectángulo_33361" data-name="Rectángulo 33361" width="4.596" height="64.948" transform="translate(30.715 25.18)" fill="#fff"/>
        <rect id="Rectángulo_33362" data-name="Rectángulo 33362" width="4.596" height="53.703" transform="translate(38.394 36.425)" fill="#fff"/>
        <rect id="Rectángulo_33363" data-name="Rectángulo 33363" width="4.596" height="41.48" transform="translate(46.072 48.649)" fill="#fff"/>
        <rect id="Rectángulo_33364" data-name="Rectángulo 33364" width="4.596" height="90.128" transform="translate(53.751)" fill="#fff"/>
        <rect id="Rectángulo_33365" data-name="Rectángulo 33365" width="4.596" height="80.594" transform="translate(61.43 9.534)" fill="#fff"/>
        <rect id="Rectángulo_33366" data-name="Rectángulo 33366" width="4.596" height="66.171" transform="translate(69.109 23.958)" fill="#fff"/>
        <rect id="Rectángulo_33367" data-name="Rectángulo 33367" width="4.596" height="16.34" transform="translate(76.787 73.789)" fill="#fff"/>
        <rect id="Rectángulo_33368" data-name="Rectángulo 33368" width="4.596" height="48.08" transform="translate(84.466 42.048)" fill="#fff"/>
      </g>
      <g id="Grupo_98590" data-name="Grupo 98590" transform="translate(209.937 41.244)">
        <rect id="Rectángulo_33369" data-name="Rectángulo 33369" width="4.596" height="62.763" transform="translate(0 16.139)" fill="#f1d54e"/>
        <rect id="Rectángulo_33370" data-name="Rectángulo 33370" width="4.596" height="20.174" transform="translate(7.679 58.728)" fill="#f1d54e"/>
        <rect id="Rectángulo_33371" data-name="Rectángulo 33371" width="4.596" height="56.487" transform="translate(15.357 22.415)" fill="#f1d54e"/>
        <rect id="Rectángulo_33372" data-name="Rectángulo 33372" width="4.596" height="7.173" transform="translate(23.036 71.729)" fill="#fb9e36"/>
        <rect id="Rectángulo_33373" data-name="Rectángulo 33373" width="4.596" height="73.971" transform="translate(30.715 4.931)" fill="#f1d54e"/>
        <rect id="Rectángulo_33374" data-name="Rectángulo 33374" width="4.596" height="37.658" transform="translate(38.394 41.244)" fill="#fb9e36"/>
        <rect id="Rectángulo_33375" data-name="Rectángulo 33375" width="4.596" height="59.625" transform="translate(46.072 19.277)" fill="#fb9e36"/>
        <rect id="Rectángulo_33376" data-name="Rectángulo 33376" width="4.596" height="78.902" transform="translate(53.751)" fill="#f1d54e"/>
        <rect id="Rectángulo_33377" data-name="Rectángulo 33377" width="4.596" height="16.139" transform="translate(61.43 62.763)" fill="#f1d54e"/>
        <rect id="Rectángulo_33378" data-name="Rectángulo 33378" width="4.596" height="29.14" transform="translate(69.109 49.762)" fill="#f1d54e"/>
        <rect id="Rectángulo_33379" data-name="Rectángulo 33379" width="4.596" height="40.348" transform="translate(76.787 38.555)" fill="#f1d54e"/>
        <rect id="Rectángulo_33380" data-name="Rectángulo 33380" width="4.596" height="6.725" transform="translate(84.466 72.178)" fill="#f1d54e"/>
      </g>
      <path id="Trazado_143040" data-name="Trazado 143040" d="M867.969,588.827l-75.157-4.917c-3.681-.241-6.556-3.676-6.556-7.832V555.461c0-4.333,3.116-7.845,6.959-7.845h75.157c3.844,0,6.959,3.512,6.959,7.845v25.533C875.331,585.506,871.964,589.088,867.969,588.827Z" transform="translate(-580.296 -414.916)" fill="#fff" opacity="0.49"/>
      <g id="Grupo_98591" data-name="Grupo 98591" transform="translate(31.96 31.83)">
        <ellipse id="Elipse_4567" data-name="Elipse 4567" cx="11.84" cy="12.252" rx="11.84" ry="12.252" fill="#fff" opacity="0.49"/>
        <ellipse id="Elipse_4568" data-name="Elipse 4568" cx="9.226" cy="9.547" rx="9.226" ry="9.547" transform="translate(2.768 3.819)" fill="#fff" opacity="0.49"/>
        <rect id="Rectángulo_33381" data-name="Rectángulo 33381" width="47.359" height="6.365" rx="3.182" transform="translate(28.907 3.182)" fill="#fff" opacity="0.49"/>
        <rect id="Rectángulo_33382" data-name="Rectángulo 33382" width="34.135" height="6.365" rx="3.182" transform="translate(28.907 13.366)" fill="#fff" opacity="0.49"/>
      </g>
      <g id="Grupo_98592" data-name="Grupo 98592" transform="translate(31.96 58.881)">
        <ellipse id="Elipse_4569" data-name="Elipse 4569" cx="11.84" cy="12.252" rx="11.84" ry="12.252" fill="#fff" opacity="0.49"/>
        <ellipse id="Elipse_4570" data-name="Elipse 4570" cx="9.226" cy="9.547" rx="9.226" ry="9.547" transform="translate(2.768 3.819)" fill="#fff" opacity="0.49"/>
        <rect id="Rectángulo_33383" data-name="Rectángulo 33383" width="47.359" height="6.365" rx="3.182" transform="translate(28.907 3.182)" fill="#fff" opacity="0.49"/>
        <rect id="Rectángulo_33384" data-name="Rectángulo 33384" width="34.135" height="6.365" rx="3.182" transform="translate(28.907 13.366)" fill="#fff" opacity="0.49"/>
      </g>
      <g id="Grupo_98593" data-name="Grupo 98593" transform="translate(116.446 31.83)">
        <ellipse id="Elipse_4571" data-name="Elipse 4571" cx="11.84" cy="12.252" rx="11.84" ry="12.252" fill="#fff" opacity="0.49"/>
        <ellipse id="Elipse_4572" data-name="Elipse 4572" cx="9.226" cy="9.547" rx="9.226" ry="9.547" transform="translate(2.768 3.819)" fill="#fff" opacity="0.49"/>
        <rect id="Rectángulo_33385" data-name="Rectángulo 33385" width="47.359" height="6.365" rx="3.182" transform="translate(28.907 3.182)" fill="#fff" opacity="0.49"/>
        <rect id="Rectángulo_33386" data-name="Rectángulo 33386" width="34.135" height="6.365" rx="3.182" transform="translate(28.907 13.366)" fill="#fff" opacity="0.49"/>
      </g>
      <g id="Grupo_98594" data-name="Grupo 98594" transform="translate(116.446 58.881)">
        <ellipse id="Elipse_4573" data-name="Elipse 4573" cx="11.84" cy="12.252" rx="11.84" ry="12.252" fill="#fff" opacity="0.49"/>
        <ellipse id="Elipse_4574" data-name="Elipse 4574" cx="9.226" cy="9.547" rx="9.226" ry="9.547" transform="translate(2.768 3.819)" fill="#fff" opacity="0.49"/>
        <rect id="Rectángulo_33387" data-name="Rectángulo 33387" width="47.359" height="6.365" rx="3.182" transform="translate(28.907 3.182)" fill="#fff" opacity="0.49"/>
        <rect id="Rectángulo_33388" data-name="Rectángulo 33388" width="34.135" height="6.365" rx="3.182" transform="translate(28.907 13.366)" fill="#fff" opacity="0.49"/>
      </g>
      <path id="Trazado_143041" data-name="Trazado 143041" d="M430.3,508.492l-152.167-2.5c-2.97-.049-5.405-2.67-5.586-6.012l-3.289-60.8c-.2-3.682,2.4-6.792,5.669-6.792H428.066c3.046,0,5.549,2.708,5.675,6.139l2.312,63.309C436.188,505.5,433.557,508.546,430.3,508.492Z" transform="translate(-240.282 -339.131)" fill="#fff" opacity="0.49"/>
      <g id="Grupo_98595" data-name="Grupo 98595" transform="translate(40.933 105.353)">
        <ellipse id="Elipse_4575" data-name="Elipse 4575" cx="2.982" cy="3.362" rx="2.982" ry="3.362" transform="translate(0 14.794)" fill="#fff"/>
        <ellipse id="Elipse_4576" data-name="Elipse 4576" cx="2.982" cy="3.362" rx="2.982" ry="3.362" transform="translate(15.111 30.933)" fill="#fff"/>
        <ellipse id="Elipse_4577" data-name="Elipse 4577" cx="2.982" cy="3.362" rx="2.982" ry="3.362" transform="translate(31.017 8.518)" fill="#fff"/>
        <ellipse id="Elipse_4578" data-name="Elipse 4578" cx="2.982" cy="3.362" rx="2.982" ry="3.362" transform="translate(58.058 27.795)" fill="#fff"/>
        <ellipse id="Elipse_4579" data-name="Elipse 4579" cx="2.982" cy="3.362" rx="2.982" ry="3.362" transform="translate(71.181 15.243)" fill="#fff"/>
        <ellipse id="Elipse_4580" data-name="Elipse 4580" cx="2.982" cy="3.362" rx="2.982" ry="3.362" transform="translate(92.654 41.244)" fill="#fff"/>
        <ellipse id="Elipse_4581" data-name="Elipse 4581" cx="2.982" cy="3.362" rx="2.982" ry="3.362" transform="translate(120.49 8.518)" fill="#fff"/>
        <ellipse id="Elipse_4582" data-name="Elipse 4582" cx="2.982" cy="3.362" rx="2.982" ry="3.362" transform="translate(139.577)" fill="#fff"/>
        <path id="Trazado_143042" data-name="Trazado 143042" d="M405.334,518.767,383.848,492.75l-13.092,12.523-27.017-19.26L327.811,508.46l-15.254-16.292.25-.234,14.968,15.986,15.884-22.385.14.1,26.925,19.2,13.154-12.582.117.142,21.343,25.845,27.729-32.6.035-.016,19.088-8.518.139.313-19.052,8.5Z" transform="translate(-309.699 -473.894)" fill="#fff"/>
      </g>
      <g id="Grupo_98596" data-name="Grupo 98596" transform="translate(40.933 129.561)">
        <ellipse id="Elipse_4583" data-name="Elipse 4583" cx="2.982" cy="3.362" rx="2.982" ry="3.362" fill="url(#linear-gradient)"/>
        <ellipse id="Elipse_4584" data-name="Elipse 4584" cx="2.982" cy="3.362" rx="2.982" ry="3.362" transform="translate(15.111 23.76)" fill="url(#linear-gradient)"/>
        <ellipse id="Elipse_4585" data-name="Elipse 4585" cx="2.982" cy="3.362" rx="2.982" ry="3.362" transform="translate(31.017 2.69)" fill="url(#linear-gradient)"/>
        <ellipse id="Elipse_4586" data-name="Elipse 4586" cx="2.982" cy="3.362" rx="2.982" ry="3.362" transform="translate(58.058 17.036)" fill="url(#linear-gradient)"/>
        <ellipse id="Elipse_4587" data-name="Elipse 4587" cx="2.982" cy="3.362" rx="2.982" ry="3.362" transform="translate(75.952 8.07)" fill="url(#linear-gradient)"/>
        <ellipse id="Elipse_4588" data-name="Elipse 4588" cx="2.982" cy="3.362" rx="2.982" ry="3.362" transform="translate(97.447 19.604)" fill="url(#linear-gradient)"/>
        <ellipse id="Elipse_4589" data-name="Elipse 4589" cx="2.982" cy="3.362" rx="2.982" ry="3.362" transform="translate(120.49 2.69)" fill="url(#linear-gradient)"/>
        <ellipse id="Elipse_4590" data-name="Elipse 4590" cx="2.982" cy="3.362" rx="2.982" ry="3.362" transform="translate(139.577 11.208)" fill="url(#linear-gradient)"/>
        <path id="Trazado_143043" data-name="Trazado 143043" d="M327.743,572.154,312.5,548.186l.289-.184,14.979,23.552,15.845-20.99L370.7,564.937l17.9-8.966L410.077,567.5l23.036-16.909.091.041,19.088,8.518-.139.313-19-8.477L410.105,567.9l-.1-.051-21.416-11.492L370.7,565.322l-.078-.041L343.71,551Z" transform="translate(-309.662 -544.732)" fill="url(#linear-gradient)"/>
      </g>
    </g>
    <g id="Grupo_98604" data-name="Grupo 98604" transform="translate(975.941 9915.183)">
      <path id="Trazado_143054" data-name="Trazado 143054" d="M103.764,347.091c-.49,23.115-2.078,102.846-1.32,131.1.08,2.993,2.131,5.4,4.69,5.494,12.655.485,59.046,1.712,79.746.7,4.311-.212,7.739-4.3,7.829-9.344.43-24.262,1.379-92.5-.876-123.762-.27-3.746-2.783-6.728-5.98-7.1-13.782-1.613-60.373-5.555-78.256-4.2C106.371,340.221,103.844,343.312,103.764,347.091Z" transform="translate(-102.242 -339.697)" fill="#d2f6e6"/>
      <path id="Trazado_143055" data-name="Trazado 143055" d="M118.8,370.166c-.681,18.657-2.83,80.725-2.148,103.676.1,3.355,2.36,6.067,5.224,6.263,11.794.808,52.031,2.588,69.329.967,3.115-.292,5.559-3.239,5.727-6.889.876-19.034,3.393-76.828,2.74-99.522-.1-3.62-2.5-6.577-5.585-6.9-12.759-1.34-55.515-4.529-70.215-3.591C121.114,364.346,118.919,366.936,118.8,370.166Z" transform="translate(-111.633 -355.68)" fill="#fff"/>
      <path id="Trazado_143056" data-name="Trazado 143056" d="M198.042,349.68h0a1.259,1.259,0,0,0,1.078,1.331c2.989.183,11.409.7,15.172.957a1.274,1.274,0,0,0,1.184-1.583l-.024-.146a1.224,1.224,0,0,0-1.014-1.075,124.531,124.531,0,0,0-15.3-.816A1.255,1.255,0,0,0,198.042,349.68Z" transform="translate(-165.245 -345.361)" fill="#fff" opacity="0.5"/>
      <path id="Trazado_143057" data-name="Trazado 143057" d="M200.985,413.986l-65.591-1.856A3.493,3.493,0,0,1,132,408.637v-9.752a3.493,3.493,0,0,1,3.625-3.491l65.591,2.475a3.494,3.494,0,0,1,3.362,3.491v9.133A3.493,3.493,0,0,1,200.985,413.986Z" transform="translate(-121.812 -376.325)" fill="#d2f6e6" opacity="0.49"/>
      <path id="Trazado_143058" data-name="Trazado 143058" d="M203.722,458.712H132.856a.856.856,0,0,1-.856-.856h0a.856.856,0,0,1,.856-.856h70.866a.856.856,0,0,1,.856.856h0A.856.856,0,0,1,203.722,458.712Z" transform="translate(-121.812 -416.841)" fill="#fff"/>
      <g id="Grupo_98600" data-name="Grupo 98600" transform="translate(10.188 47.69)">
        <rect id="Rectángulo_33389" data-name="Rectángulo 33389" width="32.523" height="5.135" rx="2.5" fill="#d2f6e6"/>
        <rect id="Rectángulo_33390" data-name="Rectángulo 33390" width="5.135" height="5.135" rx="2.568" transform="translate(36.289)" fill="#d2f6e6" opacity="0.49"/>
        <rect id="Rectángulo_33391" data-name="Rectángulo 33391" width="5.135" height="5.135" rx="2.568" transform="translate(44.163)" fill="#d2f6e6" opacity="0.49"/>
        <rect id="Rectángulo_33392" data-name="Rectángulo 33392" width="5.135" height="5.135" rx="2.568" transform="translate(52.037)" fill="#d2f6e6" opacity="0.49"/>
        <rect id="Rectángulo_33393" data-name="Rectángulo 33393" width="5.135" height="5.135" rx="2.568" transform="translate(59.911)" fill="#d2f6e6" opacity="0.49"/>
        <rect id="Rectángulo_33394" data-name="Rectángulo 33394" width="5.135" height="5.135" rx="2.568" transform="translate(67.785)" fill="#d2f6e6" opacity="0.49"/>
      </g>
      <g id="Grupo_98601" data-name="Grupo 98601" transform="translate(10.188 62.525)">
        <rect id="Rectángulo_33395" data-name="Rectángulo 33395" width="32.523" height="5.135" rx="2.5" fill="#d2f6e6"/>
        <rect id="Rectángulo_33396" data-name="Rectángulo 33396" width="5.135" height="5.135" rx="2.568" transform="translate(36.289)" fill="#d2f6e6" opacity="0.49"/>
        <rect id="Rectángulo_33397" data-name="Rectángulo 33397" width="5.135" height="5.135" rx="2.568" transform="translate(44.163)" fill="#d2f6e6" opacity="0.49"/>
        <rect id="Rectángulo_33398" data-name="Rectángulo 33398" width="5.135" height="5.135" rx="2.568" transform="translate(52.037)" fill="#d2f6e6" opacity="0.49"/>
        <rect id="Rectángulo_33399" data-name="Rectángulo 33399" width="5.135" height="5.135" rx="2.568" transform="translate(59.911)" fill="#d2f6e6" opacity="0.49"/>
        <rect id="Rectángulo_33400" data-name="Rectángulo 33400" width="5.135" height="5.135" rx="2.568" transform="translate(67.785)" fill="#d2f6e6" opacity="0.49"/>
      </g>
      <g id="Grupo_98602" data-name="Grupo 98602" transform="translate(10.188 77.36)">
        <rect id="Rectángulo_33401" data-name="Rectángulo 33401" width="32.523" height="5.135" rx="2.5" fill="#d2f6e6"/>
        <rect id="Rectángulo_33402" data-name="Rectángulo 33402" width="5.135" height="5.135" rx="2.568" transform="translate(36.289)" fill="#d2f6e6" opacity="0.49"/>
        <rect id="Rectángulo_33403" data-name="Rectángulo 33403" width="5.135" height="5.135" rx="2.568" transform="translate(44.163)" fill="#d2f6e6" opacity="0.49"/>
        <rect id="Rectángulo_33404" data-name="Rectángulo 33404" width="5.135" height="5.135" rx="2.568" transform="translate(52.037)" fill="#d2f6e6" opacity="0.49"/>
        <rect id="Rectángulo_33405" data-name="Rectángulo 33405" width="5.135" height="5.135" rx="2.568" transform="translate(59.911)" fill="#d2f6e6" opacity="0.49"/>
        <rect id="Rectángulo_33406" data-name="Rectángulo 33406" width="5.135" height="5.135" rx="2.568" transform="translate(67.785)" fill="#d2f6e6" opacity="0.49"/>
      </g>
      <g id="Grupo_98603" data-name="Grupo 98603" transform="translate(10.188 92.195)">
        <rect id="Rectángulo_33407" data-name="Rectángulo 33407" width="32.523" height="5.135" rx="2.5" fill="#d2f6e6"/>
        <rect id="Rectángulo_33408" data-name="Rectángulo 33408" width="5.135" height="5.135" rx="2.568" transform="translate(36.289)" fill="#d2f6e6" opacity="0.49"/>
        <rect id="Rectángulo_33409" data-name="Rectángulo 33409" width="5.135" height="5.135" rx="2.568" transform="translate(44.163)" fill="#d2f6e6" opacity="0.49"/>
        <rect id="Rectángulo_33410" data-name="Rectángulo 33410" width="5.135" height="5.135" rx="2.568" transform="translate(52.037)" fill="#d2f6e6" opacity="0.49"/>
        <rect id="Rectángulo_33411" data-name="Rectángulo 33411" width="5.135" height="5.135" rx="2.568" transform="translate(59.911)" fill="#d2f6e6" opacity="0.49"/>
        <rect id="Rectángulo_33412" data-name="Rectángulo 33412" width="5.135" height="5.135" rx="2.568" transform="translate(67.785)" fill="#d2f6e6" opacity="0.49"/>
      </g>
      <path id="Trazado_143059" data-name="Trazado 143059" d="M214.639,658.655,176.3,659.882a2.225,2.225,0,0,1-2.3-2.224v-6.432A2.225,2.225,0,0,1,176.225,649h38.343a2.225,2.225,0,0,1,2.225,2.225v5.205A2.225,2.225,0,0,1,214.639,658.655Z" transform="translate(-149.434 -543.111)" fill="#f1d54e"/>
      <path id="Trazado_143060" data-name="Trazado 143060" d="M258.825,469.574l2.7,4.778a.8.8,0,0,0,1.434-.1l2.786-7.054a.8.8,0,0,0-.531-1.061l-.5-.136a.8.8,0,0,0-.97.532l-1.205,3.881a.8.8,0,0,1-1.476.113l-.827-1.694a.8.8,0,0,0-1.062-.367h0A.8.8,0,0,0,258.825,469.574Z" transform="translate(-205.151 -422.743)" fill="url(#linear-gradient-10)"/>
      <path id="Trazado_143061" data-name="Trazado 143061" d="M304.825,509.574l2.7,4.778a.8.8,0,0,0,1.434-.1l2.786-7.054a.8.8,0,0,0-.531-1.061l-.5-.136a.8.8,0,0,0-.97.532l-1.205,3.881a.8.8,0,0,1-1.476.113l-.827-1.694a.8.8,0,0,0-1.062-.367h0A.8.8,0,0,0,304.825,509.574Z" transform="translate(-235.403 -449.049)" fill="url(#linear-gradient-11)"/>
    </g>
    <g id="Grupo_98605" data-name="Grupo 98605" transform="translate(1002.861 10025.299)">
      <path id="Trazado_143062" data-name="Trazado 143062" d="M191.806,670.267l1.025-7.684a.349.349,0,0,0-.429-.343l-7.27,2.688c-.166.061-.16.287.012.425l1.013.81a.273.273,0,0,1,.093.367l-4.459,5.575a.274.274,0,0,0,.093.367l3.278,2.622a.273.273,0,0,0,.379.01L190,669.529a.273.273,0,0,1,.379.01l1.013.81C191.561,670.486,191.783,670.442,191.806,670.267Z" transform="translate(-181.449 -661.925)" fill="#fff"/>
      <path id="Trazado_143063" data-name="Trazado 143063" d="M184.8,674.9a.651.651,0,0,1-.4-.148l-3.278-2.622a.654.654,0,0,1-.228-.347.5.5,0,0,1,.089-.442l4.414-5.52h0l-1.013-.81a.61.61,0,0,1-.239-.565.477.477,0,0,1,.31-.375l7.27-2.688a.646.646,0,0,1,.831.664l-1.025,7.684a.477.477,0,0,1-.3.385.611.611,0,0,1-.6-.109l-1.013-.81h0l-4.414,5.519A.5.5,0,0,1,184.8,674.9Zm-3.308-3.24h0l3.278,2.622h0l4.414-5.519a.563.563,0,0,1,.8-.037l.964.771,1-7.515a.11.11,0,0,0-.041-.033l-7.111,2.63.964.771a.563.563,0,0,1,.14.789Zm9.44-2.01h0Z" transform="translate(-180.873 -661.348)" fill="url(#linear-gradient-12)"/>
    </g>
    <g id="Grupo_98620" data-name="Grupo 98620" transform="translate(1050.12 9962.872)">
      <g id="Grupo_98615" data-name="Grupo 98615" transform="translate(74.285 7.677)">
        <g id="Grupo_98610" data-name="Grupo 98610" transform="translate(23.059 83.757)">
          <path id="Trazado_143068" data-name="Trazado 143068" d="M603.581,765.694c1.942.168,5.313.441,7.97.558a7.68,7.68,0,0,0,3.047-.3c0,.059,0,.116-.005.168a.549.549,0,0,1-.522.519,93.413,93.413,0,0,1-10.436.011.392.392,0,0,1-.319-.588A3.22,3.22,0,0,1,603.581,765.694Z" transform="translate(-603.261 -758.978)" fill="url(#linear-gradient-13)"/>
          <path id="Trazado_143069" data-name="Trazado 143069" d="M612.166,758.718c-2.657-.117-6.028-.39-7.97-.558,1.909-2.343,7.97-3.922,7.97-3.922h1.712a7.183,7.183,0,0,1,1.335,4.181A7.678,7.678,0,0,1,612.166,758.718Z" transform="translate(-603.876 -751.445)" fill="url(#linear-gradient-14)"/>
          <path id="Trazado_143070" data-name="Trazado 143070" d="M627.183,746.077l-.16,3.17a.724.724,0,0,1-.618.681,2.815,2.815,0,0,1-1.286-.107.857.857,0,0,1-.576-.658l-.554-3.086Z" transform="translate(-616.893 -746.077)" fill="url(#linear-gradient-15)"/>
        </g>
        <g id="Grupo_98612" data-name="Grupo 98612" transform="translate(49.834 80.794)">
          <g id="Grupo_98611" data-name="Grupo 98611" transform="translate(0.754 2.941)">
            <path id="Trazado_143071" data-name="Trazado 143071" d="M692.63,765.289a1.537,1.537,0,0,0,1.383-1.023l0,.012a1.1,1.1,0,0,1-.737,1.248,4.823,4.823,0,0,1-2.042.32,2.031,2.031,0,0,1-1.531-.706l0-.006A5.142,5.142,0,0,0,692.63,765.289Z" transform="translate(-687.636 -758.018)" fill="url(#linear-gradient-16)"/>
            <path id="Trazado_143072" data-name="Trazado 143072" d="M684.694,746.016h1.411c2.15-.044,3.5,4.491,3.943,6.247a1.537,1.537,0,0,1-1.383,1.023,5.142,5.142,0,0,1-2.93-.155,13.49,13.49,0,0,1-2.015-5.074A1.782,1.782,0,0,1,684.694,746.016Z" transform="translate(-683.671 -746.016)" fill="url(#linear-gradient-17)"/>
          </g>
          <path id="Trazado_143073" data-name="Trazado 143073" d="M684.476,737.424l.784,3.117a.846.846,0,0,1-.44.959,3,3,0,0,1-1.623.393.707.707,0,0,1-.577-.471l-1.151-3.28Z" transform="translate(-681.469 -737.424)" fill="url(#linear-gradient-18)"/>
        </g>
        <path id="Trazado_143074" data-name="Trazado 143074" d="M635.1,654.906c-.975.865-4.147.979-4.147.979-11.426-27.423-16.1-31.319-16.1-31.319,1.65,10.351.266,33.267.266,33.267a6.857,6.857,0,0,1-4.316,0,176.642,176.642,0,0,0-5.835-43.375c7.722-.174,11.829-2.817,13.17-3.877C624.575,620.958,635.1,654.906,635.1,654.906Z" transform="translate(-581.323 -573.21)" fill="url(#linear-gradient-19)"/>
        <path id="Trazado_143075" data-name="Trazado 143075" d="M596.27,518.1c1.461,7.291.938,20.341.594,26.293-.1,1.673,1.071,3.992,2.015,5.575a.5.5,0,0,1-.2.7,34.432,34.432,0,0,1-13.14,3.643.885.885,0,0,1-.89-.661,172.747,172.747,0,0,0-9.949-28.17C580.6,516.051,596.27,518.1,596.27,518.1Z" transform="translate(-561.418 -512.266)" fill="#ea7596"/>
        <path id="Trazado_143076" data-name="Trazado 143076" d="M622.452,640.842a.366.366,0,0,0,.312-.556,11.479,11.479,0,0,0-4.53-3.933.366.366,0,1,0-.318.659,10.944,10.944,0,0,1,4.223,3.655A.367.367,0,0,0,622.452,640.842Z" transform="translate(-589.703 -590.136)" fill="url(#linear-gradient-20)"/>
        <g id="Grupo_98613" data-name="Grupo 98613" transform="translate(33.22 5.833)">
          <path id="Trazado_143077" data-name="Trazado 143077" d="M653.566,578.609a25.078,25.078,0,0,1-4.632,11.037l-1.055-.86a32.578,32.578,0,0,0,.526-10.548A12.628,12.628,0,0,1,653.566,578.609Z" transform="translate(-642.765 -557.684)" fill="url(#linear-gradient-21)"/>
          <path id="Trazado_143078" data-name="Trazado 143078" d="M632.94,527.456l1.633-9s10.908,8.338,9.168,20.925a12.626,12.626,0,0,0-5.161-.371C638.081,534.974,636.591,530.59,632.94,527.456Z" transform="translate(-632.94 -518.46)" fill="url(#linear-gradient-22)"/>
        </g>
        <g id="Grupo_98614" data-name="Grupo 98614" transform="translate(0 13.211)">
          <path id="Trazado_143079" data-name="Trazado 143079" d="M567.022,540.011l4.211,9.068c-.681,5.475-3.622,7.842-6.793,8.75a19.248,19.248,0,0,0-1.414-5.906C567.077,547.74,567.022,540.011,567.022,540.011Z" transform="translate(-553.74 -540.011)" fill="url(#linear-gradient-23)"/>
          <path id="Trazado_143080" data-name="Trazado 143080" d="M545.189,574.808a19.249,19.249,0,0,1,1.414,5.906c-8.461,3.282-10.7-3.084-10.7-3.084l1.563-.276A8.864,8.864,0,0,0,545.189,574.808Z" transform="translate(-535.904 -562.895)" fill="url(#linear-gradient-24)"/>
        </g>
        <path id="Trazado_143081" data-name="Trazado 143081" d="M586.03,503.438l2.033,7.473a1.454,1.454,0,0,0,1.944.967,29.44,29.44,0,0,0,2.93-1.338,1.959,1.959,0,0,0,.691-2.815l-4.226-6.3Z" transform="translate(-568.87 -501.423)" fill="url(#linear-gradient-25)"/>
      </g>
      <g id="Grupo_98616" data-name="Grupo 98616" transform="translate(84.886)">
        <path id="Trazado_143082" data-name="Trazado 143082" d="M573.04,488.421c-.018.128,1.7,8.528,1.7,8.528l4.775-1.081-.442-8.2S573.35,486.272,573.04,488.421Z" transform="translate(-570.928 -484.407)" fill="url(#linear-gradient-26)"/>
        <path id="Trazado_143083" data-name="Trazado 143083" d="M573.937,484.086l.571,4.3a.605.605,0,0,1,0,.165c-.048.337-.3,1.484-1.457,1.156a5.455,5.455,0,0,0-2.68-.35.606.606,0,0,0-.417.7,26.2,26.2,0,0,0,1.1,3.914.6.6,0,0,0,.734.357A19.526,19.526,0,0,0,576,492.606a.607.607,0,0,0,.3-.545c-.046-1.086-.173-4.385-.066-5.31.1-.868,1.166-1.388,1.628-1.574a.6.6,0,0,0,.331-.333,1.57,1.57,0,0,0-1.056-2.29.607.607,0,0,1-.384-.784,1.573,1.573,0,0,0-.882-2.175,2.22,2.22,0,0,0-2.648.638.606.606,0,0,1-.772.091.479.479,0,0,0-.545.018.6.6,0,0,1-.845-.256,1.81,1.81,0,0,0-2.1-1.048c-2.14.367-2.382,2.738-1.818,4.127s2.862.86,4.014.159a2.591,2.591,0,0,1,2.507.324A.6.6,0,0,1,573.937,484.086Z" transform="translate(-566.87 -479)" fill="url(#linear-gradient-27)"/>
        <path id="Trazado_143084" data-name="Trazado 143084" d="M594.018,499.789s-.88-2.463.024-3.066,2.242-.29,1.948,1.494C595.623,500.437,594.018,499.789,594.018,499.789Z" transform="translate(-584.472 -490.471)" fill="url(#linear-gradient-28)"/>
      </g>
      <path id="Trazado_143085" data-name="Trazado 143085" d="M531.355,579.292c-.426.333-1.885-.362-2.778-.842a1.027,1.027,0,0,1-.5-1.214c.215-.677.573-1.552,1.014-1.662C529.826,575.391,533.109,577.921,531.355,579.292Z" transform="translate(-456.443 -542.506)" fill="url(#linear-gradient-29)"/>
      <g id="Grupo_98619" data-name="Grupo 98619" transform="translate(0 13.501)">
        <g id="Grupo_98618" data-name="Grupo 98618">
          <path id="Trazado_143086" data-name="Trazado 143086" d="M522.229,570.44,410.817,530.816l-5.895,16.373L516.3,587.921a5.194,5.194,0,0,0,6.273-2.271,22.093,22.093,0,0,0,2.621-10.961A4.449,4.449,0,0,0,522.229,570.44Z" transform="translate(-375.479 -526.578)" fill="#0a5936"/>
          <g id="Grupo_98617" data-name="Grupo 98617">
            <path id="Trazado_143087" data-name="Trazado 143087" d="M319.788,518.443l15.39,1.889a13.525,13.525,0,0,1-3.057,8l-12.852-8.479A.773.773,0,0,1,319.788,518.443Z" transform="translate(-318.918 -518.436)" fill="url(#linear-gradient-30)"/>
            <path id="Trazado_143088" data-name="Trazado 143088" d="M379.618,526.316a21.442,21.442,0,0,1-5.895,16.374l-16.241-10.713a13.525,13.525,0,0,0,3.057-8Z" transform="translate(-344.28 -522.078)" fill="#f1d54e"/>
          </g>
        </g>
        <path id="Trazado_143089" data-name="Trazado 143089" d="M538.146,587.6a.327.327,0,0,0,.109-.636L431.664,549.3a.327.327,0,0,0-.218.617l106.592,37.67A.322.322,0,0,0,538.146,587.6Z" transform="translate(-392.778 -538.718)" fill="url(#linear-gradient-31)"/>
        <path id="Trazado_143090" data-name="Trazado 143090" d="M532.775,606.365a.327.327,0,0,0,.109-.636L426.292,568.058a.327.327,0,1,0-.218.617l106.592,37.671A.33.33,0,0,0,532.775,606.365Z" transform="translate(-389.246 -551.057)" fill="url(#linear-gradient-32)"/>
      </g>
      <path id="Trazado_143091" data-name="Trazado 143091" d="M635.594,608.1l-4.924-.4-2.133,1.966s.5.7,2.082.3a22.587,22.587,0,0,1,3.738-.5s2.177.982,2.2-.855Z" transform="translate(-522.539 -563.639)" fill="url(#linear-gradient-33)"/>
    </g>
    <g id="Grupo_98623" data-name="Grupo 98623" transform="translate(1203.911 9835.493)">
      <path id="Trazado_143108" data-name="Trazado 143108" d="M885.847,199.7l-5.625,11.263-5.21-8.652Z" transform="translate(-838.426 -167.938)" fill="#fb9e36"/>
      <path id="Trazado_143109" data-name="Trazado 143109" d="M768.144,106.926,785.237,148.8a3.186,3.186,0,0,0,4.264,1.7L830.9,131.751a1.277,1.277,0,0,0-.1-2.366Z" transform="translate(-768.144 -106.926)" fill="#f1d54e"/>
      <path id="Trazado_143110" data-name="Trazado 143110" d="M815.561,138.686l-47.417-31.76,40.746,34.806-1.427,3.19Z" transform="translate(-768.144 -106.926)" fill="#fb9e36"/>
      <path id="Trazado_143111" data-name="Trazado 143111" d="M875.57,210.37l5.019,6.442-1.05-8.218Z" transform="translate(-838.793 -173.788)" fill="#fb9e36"/>
    </g>
    <g id="Grupo_98624" data-name="Grupo 98624" transform="translate(1210.371 9877.504)">
      <path id="Trazado_143112" data-name="Trazado 143112" d="M919.875,229.646l1,.245a.345.345,0,1,1-.164.67h0l-1-.25a.342.342,0,0,1,.164-.665Z" transform="translate(-874.111 -229.637)" fill="#fff"/>
      <path id="Trazado_143113" data-name="Trazado 143113" d="M929.562,232.057l1,.254a.354.354,0,0,1-.175.686h0l-.992-.259a.351.351,0,0,1,.175-.681Z" transform="translate(-880.471 -231.222)" fill="#fff"/>
      <path id="Trazado_143114" data-name="Trazado 143114" d="M939.222,234.573l.993.268a.363.363,0,1,1-.189.7h0l-.989-.272a.361.361,0,0,1,.188-.7Z" transform="translate(-886.815 -232.875)" fill="#fff"/>
      <path id="Trazado_143115" data-name="Trazado 143115" d="M948.847,237.227l.989.284a.372.372,0,1,1-.205.716h0l-.984-.288h0a.369.369,0,0,1,.206-.71Z" transform="translate(-893.132 -234.619)" fill="#fff"/>
      <path id="Trazado_143116" data-name="Trazado 143116" d="M958.423,240.056l.984.3a.381.381,0,0,1-.226.729h0l-.977-.308h0a.379.379,0,0,1,.226-.723Z" transform="translate(-899.418 -236.478)" fill="#fff"/>
      <path id="Trazado_143117" data-name="Trazado 143117" d="M967.937,243.092l.976.328a.39.39,0,1,1-.249.74h-.005l-.969-.331h0a.388.388,0,0,1,.249-.734Z" transform="translate(-905.661 -238.472)" fill="#fff"/>
      <path id="Trazado_143118" data-name="Trazado 143118" d="M977.371,246.372l.967.356a.4.4,0,0,1-.276.75h-.005l-.958-.358h0a.4.4,0,0,1,.276-.744Z" transform="translate(-911.851 -240.627)" fill="#fff"/>
      <path id="Trazado_143119" data-name="Trazado 143119" d="M986.706,249.93l.956.387a.409.409,0,0,1-.307.757h-.006l-.946-.389,0,0a.406.406,0,0,1,.307-.751Z" transform="translate(-917.974 -242.963)" fill="#fff"/>
      <path id="Trazado_143120" data-name="Trazado 143120" d="M995.916,253.8l.942.422a.418.418,0,1,1-.341.762h0l0,0-.931-.423,0,0a.415.415,0,0,1,.341-.756Z" transform="translate(-924.013 -245.505)" fill="#fff"/>
      <path id="Trazado_143121" data-name="Trazado 143121" d="M1004.979,258.025l.925.46a.427.427,0,0,1-.38.764h0l0,0-.912-.46,0,0a.424.424,0,0,1,.38-.758Z" transform="translate(-929.955 -248.277)" fill="#fff"/>
      <path id="Trazado_143122" data-name="Trazado 143122" d="M1013.852,262.626l.9.5a.436.436,0,1,1-.424.761h0l-.006,0-.889-.5-.005,0a.433.433,0,0,1,.423-.756Z" transform="translate(-935.77 -251.296)" fill="#fff"/>
      <path id="Trazado_143123" data-name="Trazado 143123" d="M1022.5,267.65l.877.548a.445.445,0,1,1-.471.754h0l-.006,0-.862-.545-.006,0a.442.442,0,0,1,.47-.749Z" transform="translate(-941.433 -254.592)" fill="#fff"/>
      <path id="Trazado_143124" data-name="Trazado 143124" d="M1030.867,273.116l.847.595a.454.454,0,1,1-.522.743h0l-.006,0-.831-.59-.006,0a.451.451,0,0,1,.521-.737Z" transform="translate(-946.916 -258.177)" fill="#fff"/>
      <path id="Trazado_143125" data-name="Trazado 143125" d="M1038.925,279.04l.811.644a.463.463,0,0,1-.575.725h0l-.006-.005-.795-.637-.006-.005a.46.46,0,0,1,.574-.719Z" transform="translate(-952.192 -262.061)" fill="#fff"/>
      <path id="Trazado_143126" data-name="Trazado 143126" d="M1046.615,285.438l.77.694a.472.472,0,0,1-.632.7l0,0-.007-.006-.752-.686-.007-.006a.469.469,0,0,1,.631-.695Z" transform="translate(-957.225 -266.255)" fill="#fff"/>
      <path id="Trazado_143127" data-name="Trazado 143127" d="M1053.874,292.326l.719.747a.478.478,0,0,1-.688.663h0l-.007-.007-.7-.734-.007-.007a.477.477,0,0,1,.688-.661Z" transform="translate(-961.975 -270.768)" fill="#fff"/>
      <path id="Trazado_143128" data-name="Trazado 143128" d="M1060.636,299.727l.662.8a.481.481,0,0,1-.74.614h0l-.007-.009-.647-.783-.007-.009a.48.48,0,0,1,.74-.612Z" transform="translate(-966.403 -275.617)" fill="#fff"/>
      <path id="Trazado_143129" data-name="Trazado 143129" d="M1066.813,307.626l.6.852a.484.484,0,0,1-.793.556h0l-.007-.01-.581-.833-.007-.01a.483.483,0,0,1,.792-.554Z" transform="translate(-970.445 -280.791)" fill="#fff"/>
      <path id="Trazado_143130" data-name="Trazado 143130" d="M1072.317,316.014l.521.9a.487.487,0,0,1-.843.488h0l-.006-.011-.506-.878-.007-.011a.486.486,0,0,1,.842-.486Z" transform="translate(-974.047 -286.283)" fill="#fff"/>
      <path id="Trazado_143131" data-name="Trazado 143131" d="M1077.055,324.857l.434.947a.49.49,0,1,1-.891.409h0l-.006-.014-.42-.92-.007-.014a.489.489,0,0,1,.89-.407Z" transform="translate(-977.145 -292.07)" fill="#fff"/>
      <path id="Trazado_143132" data-name="Trazado 143132" d="M1080.907,334.126l.336.986a.493.493,0,0,1-.934.319h0l0-.014-.325-.958,0-.014a.493.493,0,0,1,.933-.317Z" transform="translate(-979.662 -298.135)" fill="#fff"/>
      <path id="Trazado_143133" data-name="Trazado 143133" d="M1083.8,343.737l.235,1.015a.5.5,0,1,1-.967.225h0l0-.015-.227-.986,0-.015a.5.5,0,0,1,.966-.223Z" transform="translate(-981.554 -304.423)" fill="#fff"/>
      <path id="Trazado_143134" data-name="Trazado 143134" d="M1085.715,353.593l.131,1.034a.5.5,0,0,1-.992.126h0l0-.015-.125-1,0-.015a.5.5,0,0,1,.99-.125Z" transform="translate(-982.801 -310.87)" fill="#fff"/>
      <path id="Trazado_143135" data-name="Trazado 143135" d="M1086.607,363.594l.023,1.042a.5.5,0,1,1-1.005.022h0v-.016l-.021-1.011v-.016a.5.5,0,0,1,1-.021Z" transform="translate(-983.381 -317.412)" fill="#fff"/>
      <path id="Trazado_143136" data-name="Trazado 143136" d="M1086.272,373.635l-.089,1.039a.506.506,0,1,1-1.008-.086h0v-.016l.088-1.007v-.016a.5.5,0,0,1,1.006.087Z" transform="translate(-983.098 -323.977)" fill="#fff"/>
      <path id="Trazado_143137" data-name="Trazado 143137" d="M1084.8,383.6l-.2,1.024a.509.509,0,1,1-1-.2h0l0-.017.2-.99,0-.017a.508.508,0,0,1,1,.2Z" transform="translate(-982.058 -330.493)" fill="#fff"/>
      <path id="Trazado_143138" data-name="Trazado 143138" d="M1082.224,393.37l-.319.995a.512.512,0,0,1-.975-.313h0l.005-.017.31-.96.006-.017a.511.511,0,0,1,.973.313Z" transform="translate(-980.291 -336.877)" fill="#fff"/>
      <path id="Trazado_143139" data-name="Trazado 143139" d="M1078.534,402.8l-.434.951a.515.515,0,1,1-.937-.428h0l.008-.017.42-.917.008-.017a.514.514,0,0,1,.935.428Z" transform="translate(-977.799 -343.041)" fill="#fff"/>
      <path id="Trazado_143140" data-name="Trazado 143140" d="M1073.764,411.776c-.175.3-.361.6-.544.892a.518.518,0,1,1-.883-.544h0l.007-.012c.177-.286.356-.57.526-.86a.518.518,0,0,1,.893.523Z" transform="translate(-974.606 -348.908)" fill="#fff"/>
      <path id="Trazado_143141" data-name="Trazado 143141" d="M1067.985,420.121l-.642.823a.521.521,0,1,1-.822-.641h0l.01-.014.622-.794.011-.014a.521.521,0,0,1,.821.641Z" transform="translate(-970.759 -354.356)" fill="#fff"/>
      <path id="Trazado_143142" data-name="Trazado 143142" d="M1061.34,427.8l-.725.749a.525.525,0,1,1-.754-.73h0l.011-.012.7-.725.011-.012a.524.524,0,0,1,.752.729Z" transform="translate(-966.354 -359.372)" fill="#fff"/>
      <path id="Trazado_143143" data-name="Trazado 143143" d="M1053.961,434.755l-.795.673a.528.528,0,0,1-.682-.805h0l.012-.01.773-.652.012-.01a.527.527,0,0,1,.68.8Z" transform="translate(-961.477 -363.922)" fill="#fff"/>
      <path id="Trazado_143144" data-name="Trazado 143144" d="M1045.968,440.985l-.853.6a.531.531,0,1,1-.609-.87h0l.012-.008.83-.58.012-.008a.53.53,0,0,1,.607.869Z" transform="translate(-956.204 -367.996)" fill="#fff"/>
      <path id="Trazado_143145" data-name="Trazado 143145" d="M1037.467,446.482l-.9.521a.534.534,0,1,1-.535-.924h0l.012-.007.878-.506.012-.007a.533.533,0,0,1,.533.923Z" transform="translate(-950.605 -371.592)" fill="#fff"/>
      <path id="Trazado_143146" data-name="Trazado 143146" d="M1028.549,451.247l-.939.445a.537.537,0,0,1-.46-.971h0l.011-.005.917-.432.012-.006a.536.536,0,0,1,.458.97Z" transform="translate(-944.737 -374.707)" fill="#fff"/>
      <path id="Trazado_143147" data-name="Trazado 143147" d="M1019.287,455.277l-.972.369a.54.54,0,1,1-.383-1.01h0l.012,0,.949-.358.012,0a.539.539,0,0,1,.382,1.009Z" transform="translate(-938.647 -377.343)" fill="#fff"/>
      <path id="Trazado_143148" data-name="Trazado 143148" d="M1009.747,458.567l-1,.291a.543.543,0,0,1-.3-1.043h0l.012,0,.974-.282.012,0a.542.542,0,0,1,.3,1.042Z" transform="translate(-932.38 -379.494)" fill="#fff"/>
      <path id="Trazado_143149" data-name="Trazado 143149" d="M999.987,461.1l-1.019.212a.546.546,0,1,1-.223-1.07h0l.013,0,.994-.205.013,0a.546.546,0,0,1,.221,1.068Z" transform="translate(-925.972 -381.151)" fill="#fff"/>
      <path id="Trazado_143150" data-name="Trazado 143150" d="M990.071,462.866l-1.031.133a.55.55,0,1,1-.14-1.09h.013l1.007-.128h.012a.549.549,0,0,1,.139,1.088Z" transform="translate(-919.469 -382.302)" fill="#fff"/>
      <path id="Trazado_143151" data-name="Trazado 143151" d="M980.067,463.886l-1.037.059a.553.553,0,0,1-.062-1.1h.013l1.014-.055h.012a.552.552,0,0,1,.062,1.1Z" transform="translate(-912.908 -382.966)" fill="#fff"/>
      <path id="Trazado_143152" data-name="Trazado 143152" d="M970.026,464.17l-1.038-.013a.556.556,0,0,1,.013-1.112h.012l1.016.014h.011a.555.555,0,0,1-.015,1.11Z" transform="translate(-906.328 -383.139)" fill="#fff"/>
      <path id="Trazado_143153" data-name="Trazado 143153" d="M960,463.672l-1.035-.081a.559.559,0,1,1,.087-1.115h.012l1.013.081h.011a.558.558,0,0,1-.088,1.113Z" transform="translate(-899.756 -382.763)" fill="#fff"/>
      <path id="Trazado_143154" data-name="Trazado 143154" d="M950.022,462.532l-1.027-.146a.562.562,0,1,1,.158-1.113h0l.01,0,1.006.144h.01a.561.561,0,0,1-.159,1.111Z" transform="translate(-893.222 -381.969)" fill="#fff"/>
      <path id="Trazado_143155" data-name="Trazado 143155" d="M940.136,460.783l-1.016-.207a.565.565,0,0,1,.226-1.108h0l.01,0,1,.2.01,0a.564.564,0,0,1-.226,1.105Z" transform="translate(-886.748 -380.778)" fill="#fff"/>
      <path id="Trazado_143156" data-name="Trazado 143156" d="M930.37,458.457l-1-.265a.568.568,0,1,1,.291-1.1h0l.009,0,.983.262.009,0a.567.567,0,0,1-.291,1.1Z" transform="translate(-880.354 -379.212)" fill="#fff"/>
      <path id="Trazado_143157" data-name="Trazado 143157" d="M920.752,455.587l-.986-.32a.571.571,0,0,1,.353-1.087h0l.009,0,.967.316.009,0a.57.57,0,0,1-.353,1.085Z" transform="translate(-874.058 -377.29)" fill="#fff"/>
      <path id="Trazado_143158" data-name="Trazado 143158" d="M911.3,452.2l-.967-.372a.574.574,0,0,1,.413-1.072h0l.009,0,.949.368.008,0a.574.574,0,0,1-.413,1.07Z" transform="translate(-867.874 -375.03)" fill="#fff"/>
      <path id="Trazado_143159" data-name="Trazado 143159" d="M902.044,448.312l-.947-.424a.578.578,0,0,1,.472-1.055h0l.01,0,.927.417.009,0a.577.577,0,0,1-.472,1.053Z" transform="translate(-861.815 -372.443)" fill="#fff"/>
      <path id="Trazado_143160" data-name="Trazado 143160" d="M893.041,443.849l-.917-.493a.581.581,0,1,1,.55-1.023h0l.013.007.891.482.012.007a.58.58,0,0,1-.551,1.021Z" transform="translate(-855.938 -369.471)" fill="#fff"/>
      <path id="Trazado_143161" data-name="Trazado 143161" d="M884.428,438.645l-.871-.579a.584.584,0,0,1,.646-.973h0l.015.01.839.56.015.01a.583.583,0,0,1-.646.971Z" transform="translate(-850.333 -366.007)" fill="#fff"/>
      <path id="Trazado_143162" data-name="Trazado 143162" d="M876.409,432.54l-.8-.683a.587.587,0,1,1,.763-.893h0l.019.016.761.653.018.015a.586.586,0,0,1-.762.89Z" transform="translate(-845.142 -361.948)" fill="#fff"/>
      <path id="Trazado_143163" data-name="Trazado 143163" d="M869.315,425.357l-.686-.808a.59.59,0,0,1,.9-.764h0l.021.025.643.759.021.024a.589.589,0,0,1-.9.762Z" transform="translate(-840.595 -357.183)" fill="#fff"/>
      <path id="Trazado_143164" data-name="Trazado 143164" d="M863.656,416.975l-.51-.939a.593.593,0,0,1,1.043-.566h0l.019.036.469.867.02.036a.592.592,0,0,1-1.041.564Z" transform="translate(-837.034 -351.647)" fill="#fff"/>
      <path id="Trazado_143165" data-name="Trazado 143165" d="M860.061,407.526c-.089-.346-.182-.692-.265-1.04a.6.6,0,1,1,1.159-.279l.008.03c.076.317.161.634.241.951l.012.046a.6.6,0,0,1-1.154.292Z" transform="translate(-834.867 -345.458)" fill="#fff"/>
      <path id="Trazado_143166" data-name="Trazado 143166" d="M858.993,397.433l.021-1.073a.6.6,0,0,1,1.2.023h0v.046l-.021.98v.047a.6.6,0,0,1-1.2-.024Z" transform="translate(-834.35 -338.896)" fill="#fff"/>
      <path id="Trazado_143167" data-name="Trazado 143167" d="M860.052,387.434l.273-1.031a.6.6,0,0,1,1.165.308h0l-.01.038-.254.954-.01.039a.6.6,0,0,1-1.163-.309Z" transform="translate(-835.033 -332.439)" fill="#fff"/>
      <path id="Trazado_143168" data-name="Trazado 143168" d="M863.35,378.027l.475-.949a.606.606,0,1,1,1.083.542h0l-.016.031-.446.886-.016.032a.6.6,0,0,1-1.08-.543Z" transform="translate(-837.173 -326.382)" fill="#fff"/>
      <path id="Trazado_143169" data-name="Trazado 143169" d="M868.445,369.506l.638-.845a.609.609,0,1,1,.972.734h0l-.02.025-.6.793-.019.026a.608.608,0,0,1-.969-.734Z" transform="translate(-840.485 -320.908)" fill="#fff"/>
      <path id="Trazado_143170" data-name="Trazado 143170" d="M875.007,362.077l.774-.721a.607.607,0,0,1,.828.889l-.022.021-.728.68-.023.021a.608.608,0,1,1-.831-.889Z" transform="translate(-844.754 -316.155)" fill="#fff"/>
      <path id="Trazado_143171" data-name="Trazado 143171" d="M882.79,355.927l.887-.578a.6.6,0,1,1,.66,1.013l-.026.017-.833.545-.026.017a.605.605,0,0,1-.663-1.013Z" transform="translate(-849.819 -312.248)" fill="#fff"/>
      <path id="Trazado_143172" data-name="Trazado 143172" d="M891.565,351.233l.967-.422a.6.6,0,0,1,.481,1.1l-.024.011-.915.4-.025.011a.6.6,0,0,1-.484-1.1Z" transform="translate(-855.533 -309.294)" fill="#fff"/>
      <path id="Trazado_143173" data-name="Trazado 143173" d="M901.009,347.973l1.017-.274a.6.6,0,0,1,.311,1.155l-.024.006-.966.262-.025.007a.6.6,0,0,1-.314-1.156Z" transform="translate(-861.69 -307.267)" fill="#fff"/>
      <path id="Trazado_143174" data-name="Trazado 143174" d="M910.86,346.1l1.043-.131a.6.6,0,1,1,.149,1.181l-.022,0-1,.127-.024,0a.6.6,0,1,1-.151-1.182Z" transform="translate(-868.118 -306.14)" fill="#fff"/>
      <path id="Trazado_143175" data-name="Trazado 143175" d="M920.908,345.551l1.05,0a.592.592,0,1,1-.005,1.184h-.021l-1,0H920.9a.593.593,0,1,1,0-1.186Z" transform="translate(-874.677 -305.868)" fill="#fff"/>
      <path id="Trazado_143176" data-name="Trazado 143176" d="M930.974,346.035l1.04.136a.589.589,0,1,1-.152,1.168l-.021,0-1-.128-.022,0a.59.59,0,1,1,.15-1.17Z" transform="translate(-881.251 -306.183)" fill="#fff"/>
      <path id="Trazado_143177" data-name="Trazado 143177" d="M940.9,347.765l1.016.264a.586.586,0,0,1-.295,1.134l-.021-.005-.973-.251-.022-.006a.587.587,0,1,1,.293-1.136Z" transform="translate(-887.734 -307.312)" fill="#fff"/>
      <path id="Trazado_143178" data-name="Trazado 143178" d="M950.547,350.736c.328.124.649.261.973.392a.583.583,0,1,1-.437,1.08l-.017-.007c-.311-.125-.62-.257-.933-.374a.584.584,0,1,1,.41-1.093h0Z" transform="translate(-894.039 -309.252)" fill="#fff"/>
      <path id="Trazado_143179" data-name="Trazado 143179" d="M959.714,354.881l.918.5a.579.579,0,0,1-.558,1.016l-.017-.009-.884-.483-.018-.01a.58.58,0,0,1,.557-1.018Z" transform="translate(-900.024 -311.957)" fill="#fff"/>
      <path id="Trazado_143180" data-name="Trazado 143180" d="M968.344,360.074l.854.6a.576.576,0,0,1-.665.941l-.015-.01-.824-.58-.015-.011a.577.577,0,1,1,.664-.944Z" transform="translate(-905.666 -315.349)" fill="#fff"/>
      <path id="Trazado_143181" data-name="Trazado 143181" d="M976.348,366.183l.785.689a.573.573,0,1,1-.757.861l-.012-.011-.76-.665-.013-.012a.574.574,0,0,1,.756-.864Z" transform="translate(-910.902 -319.342)" fill="#fff"/>
      <path id="Trazado_143182" data-name="Trazado 143182" d="M983.679,373.076l.713.761a.57.57,0,1,1-.832.779l-.01-.011-.693-.736-.011-.012a.571.571,0,0,1,.832-.782Z" transform="translate(-915.701 -323.851)" fill="#fff"/>
      <path id="Trazado_143183" data-name="Trazado 143183" d="M990.321,380.632l.64.822a.567.567,0,1,1-.895.7l-.009-.011-.623-.8-.009-.012a.568.568,0,0,1,.895-.7Z" transform="translate(-920.05 -328.795)" fill="#fff"/>
      <path id="Trazado_143184" data-name="Trazado 143184" d="M996.266,388.742l.567.872a.564.564,0,0,1-.945.615l-.007-.011-.554-.847-.007-.012a.565.565,0,1,1,.946-.618Z" transform="translate(-923.945 -334.104)" fill="#fff"/>
      <path id="Trazado_143185" data-name="Trazado 143185" d="M1001.516,397.311l.5.914a.561.561,0,0,1-.986.535l-.006-.011-.485-.89-.006-.012a.562.562,0,0,1,.987-.538Z" transform="translate(-927.387 -339.714)" fill="#fff"/>
      <path id="Trazado_143186" data-name="Trazado 143186" d="M1006.071,406.268l.423.95a.558.558,0,0,1-1.019.453l0-.011-.414-.926-.005-.012a.559.559,0,0,1,1.02-.456Z" transform="translate(-930.373 -345.581)" fill="#fff"/>
      <path id="Trazado_143187" data-name="Trazado 143187" d="M1009.918,415.548l.349.979a.555.555,0,0,1-1.045.373l0-.011-.343-.954,0-.012a.555.555,0,1,1,1.046-.376Z" transform="translate(-932.897 -351.659)" fill="#fff"/>
      <path id="Trazado_143188" data-name="Trazado 143188" d="M1013.056,425.09l.276,1a.551.551,0,1,1-1.063.293l0-.011-.271-.978,0-.011a.552.552,0,1,1,1.065-.3Z" transform="translate(-934.956 -357.91)" fill="#fff"/>
      <path id="Trazado_143189" data-name="Trazado 143189" d="M1015.491,434.832l.2,1.018a.548.548,0,0,1-1.075.215l0-.01-.2-.995,0-.011a.549.549,0,1,1,1.077-.218Z" transform="translate(-936.556 -364.294)" fill="#fff"/>
      <path id="Trazado_143190" data-name="Trazado 143190" d="M1017.235,444.721l.133,1.029a.545.545,0,0,1-1.081.14v-.01l-.133-1.007v-.011a.546.546,0,0,1,1.083-.142Z" transform="translate(-937.703 -370.774)" fill="#fff"/>
      <path id="Trazado_143191" data-name="Trazado 143191" d="M1018.3,454.7l.065,1.035a.542.542,0,0,1-1.082.068v-.01l-.065-1.014v-.011a.543.543,0,0,1,1.084-.069Z" transform="translate(-938.408 -377.318)" fill="#fff"/>
      <path id="Trazado_143192" data-name="Trazado 143192" d="M1018.716,464.734l0,1.037a.539.539,0,1,1-1.078,0v-1.036a.54.54,0,0,1,1.08,0Z" transform="translate(-938.682 -383.893)" fill="#fff"/>
      <path id="Trazado_143193" data-name="Trazado 143193" d="M1018.365,474.769l-.067,1.035a.536.536,0,0,1-1.069-.069v-.009l.064-1.015v-.01a.537.537,0,1,1,1.071.067Z" transform="translate(-938.414 -390.473)" fill="#fff"/>
      <path id="Trazado_143194" data-name="Trazado 143194" d="M1017.4,484.77l-.129,1.028a.533.533,0,1,1-1.057-.133v-.009l.125-1.01v-.01a.534.534,0,1,1,1.059.131Z" transform="translate(-937.742 -397.031)" fill="#fff"/>
      <path id="Trazado_143195" data-name="Trazado 143195" d="M1015.832,494.7l-.19,1.019a.53.53,0,0,1-1.041-.194v-.009l.185-1,0-.009a.531.531,0,0,1,1.043.193Z" transform="translate(-936.68 -403.544)" fill="#fff"/>
      <path id="Trazado_143196" data-name="Trazado 143196" d="M1013.684,504.527l-.25,1.005a.526.526,0,0,1-1.022-.254l0-.008.243-.988,0-.009a.527.527,0,1,1,1.024.252Z" transform="translate(-935.237 -409.989)" fill="#fff"/>
      <path id="Trazado_143197" data-name="Trazado 143197" d="M1010.971,514.218l-.307.989a.523.523,0,1,1-1-.311l0-.008.3-.972,0-.009a.524.524,0,0,1,1,.309Z" transform="translate(-933.424 -416.345)" fill="#fff"/>
      <path id="Trazado_143198" data-name="Trazado 143198" d="M1007.708,523.738l-.363.969a.52.52,0,0,1-.974-.365l0-.007.355-.954,0-.008a.521.521,0,1,1,.977.364Z" transform="translate(-931.251 -422.59)" fill="#fff"/>
      <path id="Trazado_143199" data-name="Trazado 143199" d="M1003.934,533.068l-.413.948a.517.517,0,0,1-.948-.413l0-.007.4-.934,0-.007a.518.518,0,0,1,.951.412Z" transform="translate(-928.748 -428.712)" fill="#fff"/>
      <path id="Trazado_143200" data-name="Trazado 143200" d="M999.691,542.189l-.46.926a.514.514,0,0,1-.921-.457l0-.006.452-.913,0-.007a.515.515,0,0,1,.923.457Z" transform="translate(-925.937 -434.698)" fill="#fff"/>
      <path id="Trazado_143201" data-name="Trazado 143201" d="M995.008,551.093l-.5.9a.511.511,0,0,1-.892-.5l0-.005.5-.891,0-.007a.512.512,0,0,1,.895.5Z" transform="translate(-922.84 -440.543)" fill="#fff"/>
      <path id="Trazado_143202" data-name="Trazado 143202" d="M989.913,559.768l-.545.878a.508.508,0,1,1-.863-.536l0-.005.536-.867,0-.006a.509.509,0,1,1,.865.535Z" transform="translate(-919.474 -446.237)" fill="#fff"/>
      <path id="Trazado_143203" data-name="Trazado 143203" d="M984.434,568.206l-.583.853a.5.5,0,0,1-.833-.57l0,0,.574-.843,0-.005a.506.506,0,0,1,.836.569Z" transform="translate(-915.858 -451.777)" fill="#fff"/>
      <path id="Trazado_143204" data-name="Trazado 143204" d="M978.6,576.4l-.619.827a.5.5,0,1,1-.8-.6l0,0,.609-.819,0,0a.5.5,0,0,1,.806.6Z" transform="translate(-912.009 -457.158)" fill="#fff"/>
      <path id="Trazado_143205" data-name="Trazado 143205" d="M972.433,584.347l-.651.8a.5.5,0,0,1-.773-.629l0,0,.643-.793,0,0a.5.5,0,1,1,.776.629Z" transform="translate(-907.944 -462.377)" fill="#fff"/>
      <path id="Trazado_143206" data-name="Trazado 143206" d="M965.959,592.042l-.682.775a.5.5,0,0,1-.744-.654l0,0,.673-.768,0,0a.5.5,0,1,1,.746.654Z" transform="translate(-903.678 -467.432)" fill="#fff"/>
      <path id="Trazado_143207" data-name="Trazado 143207" d="M959.2,599.485l-.71.749a.492.492,0,0,1-.714-.677l0,0,.7-.743,0,0a.493.493,0,0,1,.717.678Z" transform="translate(-899.225 -472.321)" fill="#fff"/>
      <path id="Trazado_143208" data-name="Trazado 143208" d="M952.171,606.674l-.737.723a.489.489,0,0,1-.685-.7l0,0,.728-.716,0,0a.49.49,0,1,1,.687.7Z" transform="translate(-894.597 -477.044)" fill="#fff"/>
      <path id="Trazado_143209" data-name="Trazado 143209" d="M944.895,613.608l-.762.7a.486.486,0,0,1-.656-.717l0,0,.753-.691,0,0a.487.487,0,1,1,.658.718Z" transform="translate(-889.807 -481.6)" fill="#fff"/>
      <path id="Trazado_143210" data-name="Trazado 143210" d="M937.387,620.287l-.784.669a.483.483,0,1,1-.627-.734l0,0,.775-.664,0,0a.484.484,0,0,1,.629.735Z" transform="translate(-884.867 -485.988)" fill="#fff"/>
      <path id="Trazado_143211" data-name="Trazado 143211" d="M929.664,626.7l-.807.643a.48.48,0,0,1-.6-.75l0,0,.8-.639,0,0a.481.481,0,0,1,.6.75Z" transform="translate(-879.785 -490.206)" fill="#fff"/>
      <path id="Trazado_143212" data-name="Trazado 143212" d="M921.733,632.869l-.827.617a.477.477,0,1,1-.57-.764l0,0,.818-.613,0,0a.477.477,0,1,1,.572.764Z" transform="translate(-874.567 -494.258)" fill="#fff"/>
      <path id="Trazado_143213" data-name="Trazado 143213" d="M913.623,638.781l-.846.589a.468.468,0,0,1-.537-.767l0,0,.836-.589,0,0a.471.471,0,1,1,.542.77Z" transform="translate(-869.237 -498.147)" fill="#fff"/>
      <path id="Trazado_143214" data-name="Trazado 143214" d="M905.342,644.448l-.863.564a.459.459,0,0,1-.5-.767l0,0,.853-.564,0,0a.462.462,0,1,1,.509.77Z" transform="translate(-863.797 -501.881)" fill="#fff"/>
      <path id="Trazado_143215" data-name="Trazado 143215" d="M896.9,649.875l-.878.539a.45.45,0,0,1-.473-.765l0,0,.869-.54,0,0a.453.453,0,0,1,.478.769Z" transform="translate(-858.254 -505.456)" fill="#fff"/>
      <path id="Trazado_143216" data-name="Trazado 143216" d="M888.323,655.067l-.892.516a.441.441,0,0,1-.443-.762l0,0,.884-.517,0,0a.444.444,0,0,1,.448.766Z" transform="translate(-852.617 -508.877)" fill="#fff"/>
      <path id="Trazado_143217" data-name="Trazado 143217" d="M879.611,660.029l-.905.492a.432.432,0,0,1-.415-.758l0,0,.9-.494h0a.435.435,0,0,1,.419.761Z" transform="translate(-846.894 -512.148)" fill="#fff"/>
      <path id="Trazado_143218" data-name="Trazado 143218" d="M870.779,664.768l-.917.47a.423.423,0,0,1-.388-.751h0l.909-.472h0a.426.426,0,1,1,.392.755Z" transform="translate(-841.094 -515.273)" fill="#fff"/>
      <path id="Trazado_143219" data-name="Trazado 143219" d="M861.838,669.292l-.927.448a.414.414,0,0,1-.362-.744h0l.92-.451h0a.417.417,0,0,1,.366.748Z" transform="translate(-835.221 -518.256)" fill="#fff"/>
      <path id="Trazado_143220" data-name="Trazado 143220" d="M852.8,673.608l-.937.427a.4.4,0,0,1-.338-.736h0l.93-.43h0a.407.407,0,1,1,.342.739Z" transform="translate(-829.282 -521.104)" fill="#fff"/>
      <path id="Trazado_143221" data-name="Trazado 143221" d="M843.668,677.723l-.945.407a.4.4,0,0,1-.315-.726h0l.938-.409h0a.4.4,0,0,1,.319.73Z" transform="translate(-823.287 -523.819)" fill="#fff"/>
      <path id="Trazado_143222" data-name="Trazado 143222" d="M834.459,681.643l-.953.388a.387.387,0,0,1-.293-.716h0l.947-.391h0a.389.389,0,0,1,.3.72Z" transform="translate(-817.238 -526.406)" fill="#fff"/>
      <path id="Trazado_143223" data-name="Trazado 143223" d="M825.171,685.381l-.961.369a.377.377,0,0,1-.273-.7h0l.955-.372h0a.38.38,0,0,1,.276.708Z" transform="translate(-811.137 -528.874)" fill="#fff"/>
      <path id="Trazado_143224" data-name="Trazado 143224" d="M815.811,688.943l-.968.351a.368.368,0,0,1-.253-.692h0l.962-.355h0a.371.371,0,0,1,.257.7Z" transform="translate(-804.99 -531.227)" fill="#fff"/>
      <path id="Trazado_143225" data-name="Trazado 143225" d="M806.39,692.335l-.974.334a.359.359,0,0,1-.236-.679h0l.969-.339h0a.362.362,0,0,1,.239.684Z" transform="translate(-798.802 -533.468)" fill="#fff"/>
      <path id="Trazado_143226" data-name="Trazado 143226" d="M796.915,695.565l-.979.318a.35.35,0,1,1-.217-.666l.974-.322h0a.353.353,0,0,1,.221.67Z" transform="translate(-792.579 -535.602)" fill="#fff"/>
      <path id="Trazado_143227" data-name="Trazado 143227" d="M788.079,698.638l-.625.193a.342.342,0,0,1-.2-.654l.621-.2a.344.344,0,1,1,.208.656Z" transform="translate(-787.011 -537.634)" fill="#fff"/>
    </g>
  </g>
</svg>
