<svg xmlns="http://www.w3.org/2000/svg" xmlns:xlink="http://www.w3.org/1999/xlink" width="381" height="361" viewBox="0 0 381 361">
  <defs>
    <linearGradient id="linear-gradient" x1="26.714" y1="-3.15" x2="24.965" y2="-2.086" gradientUnits="objectBoundingBox">
      <stop offset="0" stop-color="#ffc444"/>
      <stop offset="0.996" stop-color="#f36f56"/>
    </linearGradient>
    <linearGradient id="linear-gradient-2" x1="4.642" y1="0.295" x2="6.25" y2="2.526" gradientUnits="objectBoundingBox">
      <stop offset="0" stop-color="#444b8c"/>
      <stop offset="0.996" stop-color="#26264f"/>
    </linearGradient>
    <linearGradient id="linear-gradient-3" x1="0.615" y1="-0.51" x2="0.171" y2="3.593" xlink:href="#linear-gradient"/>
    <linearGradient id="linear-gradient-4" x1="-97.04" y1="0.204" x2="-99.443" y2="1.615" xlink:href="#linear-gradient"/>
    <linearGradient id="linear-gradient-5" x1="14.391" y1="33.066" x2="12.301" y2="34.307" xlink:href="#linear-gradient"/>
    <linearGradient id="linear-gradient-6" x1="83.761" y1="147.366" x2="71.302" y2="152.989" xlink:href="#linear-gradient"/>
    <linearGradient id="linear-gradient-7" x1="-196.08" y1="-0.109" x2="-196.795" y2="2.337" xlink:href="#linear-gradient"/>
    <linearGradient id="linear-gradient-8" x1="-70.44" y1="0.5" x2="-69.44" y2="0.5" gradientUnits="objectBoundingBox">
      <stop offset="0" stop-color="#311944"/>
      <stop offset="1" stop-color="#893976"/>
    </linearGradient>
    <linearGradient id="linear-gradient-9" x1="-103.714" y1="-0.249" x2="-104.365" y2="2.769" xlink:href="#linear-gradient"/>
    <linearGradient id="linear-gradient-10" x1="-82.08" y1="0.5" x2="-81.08" y2="0.5" xlink:href="#linear-gradient-8"/>
    <linearGradient id="linear-gradient-11" x1="0.528" y1="0.433" x2="1.014" y2="2.465" xlink:href="#linear-gradient-2"/>
    <linearGradient id="linear-gradient-12" x1="-15.173" y1="-0.172" x2="-16.951" y2="1.046" xlink:href="#linear-gradient-2"/>
  </defs>
  <g id="Grupo_98658" data-name="Grupo 98658" transform="translate(-541 -9810)">
    <g id="Grupo_98657" data-name="Grupo 98657" transform="translate(-702.291 9435.597)">
      <path id="Trazado_143228" data-name="Trazado 143228" d="M1465.568,408.666c-11,15.976,1.9,41.878-14.423,53.893-15.887,11.7-35.4-7.475-50.376,2.593-22.211,14.935-18.155,83.276,14.319,125.738,9.766,12.77,17.926,17.738,21.54,32.18,7.76,31.01-19.513,49.457-14.323,64.794,11.686,34.534,191.413,63.512,263.528-40.274,33.68-48.472,38.72-118.466,8.627-171.627C1640.083,379.9,1490.249,372.818,1465.568,408.666Z" transform="translate(-110.121)" fill="#f4f7fa"/>
      <g id="Grupo_98627" data-name="Grupo 98627" transform="translate(1262.057 413.658)">
        <path id="Trazado_143229" data-name="Trazado 143229" d="M1262.443,684.98l-.383,11.264a5.511,5.511,0,0,0,5.918,5.71l6.143-.274a69.091,69.091,0,0,0,3.471,15.365l-5.189,3.112a6.21,6.21,0,0,0-2.515,8.269l5.42,9.463c1.589,2.774,9.259,4.423,12.231,2.631l.937-3.814a66.864,66.864,0,0,0,11.207,11.037l-2.839,4.7a5.6,5.6,0,0,0,1.946,8.022l9.7,5.086c2.84,1.49,12.06,1.721,13.826-1.209l-2.767-5.912a71.517,71.517,0,0,0,15.883,3.449l-.17,4.99a5.378,5.378,0,0,0,5.811,5.607l11.3-.6a6.62,6.62,0,0,0,6.189-6.233l.169-4.976a80.228,80.228,0,0,0,16.022-5.087l2.386,4.216c1.548,2.735,11.056,4.142,13.956,2.365l3.969-6.681a6.184,6.184,0,0,0,2.444-8.151l-2.467-4.373a84.24,84.24,0,0,0,11.7-12.023l4.583,2.454c2.769,1.483,10.971,2.241,12.7-.647L1425.318,721a5.581,5.581,0,0,0-1.883-7.91l-4.817-2.6A77.178,77.178,0,0,0,1423,695.046l5.916-.264a6.457,6.457,0,0,0,6.078-6.121l.375-11.029a5.358,5.358,0,0,0-5.679-5.613l-6.263.262a68.77,68.77,0,0,0-3.717-14.7l5.732-3.455a6.129,6.129,0,0,0,2.428-8.1l1.091-10.96c-1.532-2.747-11.415-1.97-14.294-.244l-6.032,3.618a66.909,66.909,0,0,0-10.585-10.244l3.716-6.163a5.632,5.632,0,0,0-1.9-7.963l-4.132-5.979c-2.787-1.531-11.811.323-13.55,3.2l-3.819,6.315a71.34,71.34,0,0,0-14.661-3.343l.246-7.23a5.489,5.489,0,0,0-5.782-5.716l-11.289.37a6.474,6.474,0,0,0-6.21,6.126l-.247,7.25a79.908,79.908,0,0,0-15.063,4.39l2.243-7.649c-1.572-2.786-10.925-2.094-13.874-.354l-10.072,5.94a6.155,6.155,0,0,0-2.5,8.213l3.385,5.98a84.352,84.352,0,0,0-11.6,11.2l.255-3.832c-2.859-1.54-12.853.188-14.636,3.107l-6.081,9.959a5.655,5.655,0,0,0,1.959,8.076l5.713,3.058a77.728,77.728,0,0,0-4.889,15.309l-6.5.272A6.639,6.639,0,0,0,1262.443,684.98ZM1291.2,690.5c1.085-31.868,28.214-58.7,60.416-59.915,32.007-1.212,56.941,23.361,55.867,54.88s-27.757,58.326-59.775,59.886C1315.492,746.918,1290.113,722.365,1291.2,690.5Z" transform="translate(-1262.057 -601.226)" fill="#aeb7c4"/>
        <path id="Trazado_143230" data-name="Trazado 143230" d="M1326.822,684.164l-.383,11.264a5.511,5.511,0,0,0,5.918,5.71l6.143-.274a69.079,69.079,0,0,0,3.471,15.365l-5.189,3.112a6.211,6.211,0,0,0-2.516,8.269l5.42,9.463a5.89,5.89,0,0,0,8.258,1.776l4.91-2.96a66.874,66.874,0,0,0,11.207,11.037l-2.839,4.7a5.6,5.6,0,0,0,1.946,8.022l9.7,5.086a6.455,6.455,0,0,0,8.339-2.609l2.72-4.511a71.515,71.515,0,0,0,15.883,3.449l-.17,4.991a5.378,5.378,0,0,0,5.811,5.607l11.3-.6a6.619,6.619,0,0,0,6.189-6.232l.169-4.976a80.215,80.215,0,0,0,16.022-5.086l2.387,4.216a5.7,5.7,0,0,0,8.055,1.733l9.869-6.048a6.184,6.184,0,0,0,2.444-8.151l-2.467-4.373a84.229,84.229,0,0,0,11.7-12.023l4.583,2.454a6.24,6.24,0,0,0,8.135-2.545l5.871-9.833a5.581,5.581,0,0,0-1.883-7.91l-4.817-2.6a77.186,77.186,0,0,0,4.382-15.451l5.916-.264a6.457,6.457,0,0,0,6.078-6.12l.376-11.029a5.358,5.358,0,0,0-5.679-5.613l-6.263.262a68.764,68.764,0,0,0-3.717-14.7l5.732-3.455a6.129,6.129,0,0,0,2.427-8.1l-5.218-9.354a5.675,5.675,0,0,0-7.985-1.849l-6.032,3.618a66.915,66.915,0,0,0-10.584-10.245l3.715-6.163a5.632,5.632,0,0,0-1.9-7.963l-9.486-5.214a6.233,6.233,0,0,0-8.2,2.434l-3.818,6.315a71.359,71.359,0,0,0-14.661-3.343l.246-7.23a5.489,5.489,0,0,0-5.782-5.716l-11.289.37a6.475,6.475,0,0,0-6.21,6.125l-.247,7.25a79.89,79.89,0,0,0-15.063,4.39l-3.446-6.107a5.868,5.868,0,0,0-8.186-1.9l-10.071,5.94a6.156,6.156,0,0,0-2.5,8.213l3.386,5.98a84.35,84.35,0,0,0-11.6,11.2l-5.977-3.22a6.449,6.449,0,0,0-8.4,2.5l-6.081,9.959a5.655,5.655,0,0,0,1.959,8.076l5.713,3.058a77.7,77.7,0,0,0-4.889,15.309l-6.5.272A6.639,6.639,0,0,0,1326.822,684.164Zm26.288,5.624c1.131-33.219,29.411-61.185,62.979-62.457,33.364-1.264,59.356,24.352,58.237,57.208s-28.935,60.8-62.311,62.427C1378.435,748.6,1351.979,723.008,1353.11,689.788Z" transform="translate(-1318.87 -600.506)" fill="#d8dee8"/>
      </g>
      <g id="Grupo_98656" data-name="Grupo 98656" transform="translate(1287.28 428.194)">
        <g id="Grupo_98630" data-name="Grupo 98630" transform="translate(0 39.55)">
          <path id="Trazado_143231" data-name="Trazado 143231" d="M2671.168,2045l-36.893,1.054c-4.042.116-6.467,5.075-4.163,8.581,11.769,17.924-1.793,35.449-12.739,36.569-12.709,1.3-25.513-5.564-24.29-21.217a47.445,47.445,0,0,1,4.178-16.258c1.7-3.677-.807-7.857-4.623-7.749l-43.843,1.237v39.04a3.69,3.69,0,0,0,5.51,3.392,28.766,28.766,0,0,1,16.466-3.662c14.8.88,23.214,13.474,17.856,24.2-10.331,20.67-23.94,15.928-31.644,10.728-2.522-1.7-5.958.4-5.958,3.628v44.989l114.543-7.253a7.219,7.219,0,0,0,6.762-7.281l1.458-108.945Z" transform="translate(-2422.808 -1929.334)" fill="#17c878"/>
          <path id="Trazado_143232" data-name="Trazado 143232" d="M1610.874,1811.624c7.7,5.2,21.313,9.943,31.644-10.728,5.358-10.721-3.051-23.315-17.856-24.195a28.76,28.76,0,0,0-16.466,3.661,3.69,3.69,0,0,1-5.51-3.392v-39.04l-41.5,1.17c-4.173.118-6.779-4.5-4.687-8.31,14.4-26.19-8.892-36.786-14.773-36.242-6.507.6-26.832,4.637-26.832,20.165a38.024,38.024,0,0,0,4.245,17.282,5.845,5.845,0,0,1-4.894,8.514l-37.544,1.06v119.286a7.218,7.218,0,0,0,7.686,7.2l120.531-7.817v-44.989C1604.916,1812.027,1608.352,1809.922,1610.874,1811.624Z" transform="translate(-1476.699 -1620.052)" fill="#d2f6e6"/>
          <path id="Trazado_143233" data-name="Trazado 143233" d="M1476.7,1182.269l37.544-1.06a5.845,5.845,0,0,0,4.894-8.514,38.024,38.024,0,0,1-4.245-17.282c0-15.528,20.325-19.563,26.832-20.165,5.881-.544,29.176,10.052,14.773,36.242-2.092,3.8.514,8.428,4.687,8.31l41.5-1.171v-39.748a3.866,3.866,0,0,1,6.117-3.31c12,8.989,28.891.655,31.738-6.249,3.373-8.183,4.292-24.783-12.939-29.566-9.065-2.516-15.709-.112-19.993,2.77a3.8,3.8,0,0,1-5.864-3.367l2.62-36.745-2.62-1.048L1488,1060.75a11.052,11.052,0,0,0-11.111,11.032Z" transform="translate(-1476.699 -1060.75)" fill="#17c878"/>
          <path id="Trazado_143238" data-name="Trazado 143238" d="M1498.99,1191.185l37.544-1.06a5.845,5.845,0,0,0,4.893-8.514,38.022,38.022,0,0,1-4.245-17.282c0-15.528,20.324-19.563,26.832-20.165,5.881-.544,29.176,10.052,14.774,36.242-2.092,3.8.513,8.428,4.687,8.31l41.5-1.171V1147.8a3.866,3.866,0,0,1,6.117-3.31c12,8.989,28.891.655,31.738-6.249,3.373-8.183,4.292-24.783-12.939-29.566-9.065-2.516-15.709-.112-19.993,2.77a3.8,3.8,0,0,1-5.864-3.366v-37.793l-113.745-.617a11.051,11.051,0,0,0-11.111,11.032Z" transform="translate(-1496.37 -1068.619)" fill="#5cd8a0"/>
        </g>
        <g id="Grupo_98631" data-name="Grupo 98631" transform="translate(153.416 0)">
          <path id="Trazado_143242" data-name="Trazado 143242" d="M2788.065,765.358c4.284-2.881,10.928-5.286,19.993-2.77,17.231,4.783,16.313,21.383,12.939,29.566-2.846,6.9-19.737,15.238-31.738,6.249a3.866,3.866,0,0,0-6.117,3.31v39.748l43.843-1.237c3.815-.108,6.324,4.072,4.623,7.75a47.458,47.458,0,0,0-4.178,16.258c-1.223,15.653,11.581,22.516,24.29,21.217,10.947-1.119,24.508-18.644,12.739-36.568-2.3-3.507.122-8.466,4.163-8.582l36.893-1.054-.9-107.685a7.22,7.22,0,0,0-7.206-7.159l-115.206-.2v37.793A3.8,3.8,0,0,0,2788.065,765.358Z" transform="translate(-2782.201 -724.199)" fill="#f1d54e"/>
        </g>
        <g id="Grupo_98634" data-name="Grupo 98634" transform="translate(176.77 29.875)">
          <path id="Trazado_143245" data-name="Trazado 143245" d="M3831.167,993.446a9.084,9.084,0,0,1-1.282-5.878c.458-3.343-1.82-8.662-2.96-9.118s-.306,5.166.226,7.142,1.082,7.211,1.082,7.211Z" transform="translate(-3727.006 -978.424)" fill="url(#linear-gradient)"/>
          <path id="Trazado_143246" data-name="Trazado 143246" d="M3824.39,1086.333l4.4-.365c5.692,2.856,21.589,11.781,28.416,29.994,9.177,24.482-1.928,55.362-13.222,56.94-8.21,1.147-19.939-12.714-19.34-24.765.508-10.218,9.57-12.926,12.662-23.654C3839.45,1117.047,3838.921,1105.078,3824.39,1086.333Z" transform="translate(-3725.272 -1073.33)" fill="url(#linear-gradient-2)"/>
          <path id="Trazado_143247" data-name="Trazado 143247" d="M2998.715,1680.654s0-2.648-1.513-3.782-8.321,1.891-11.347,1.891h-4.917s3.782,3.782,5.673,3.4,8.7-1.513,9.834-.756l1.135.756Z" transform="translate(-2980.938 -1594.569)" fill="url(#linear-gradient-3)"/>
          <path id="Trazado_143248" data-name="Trazado 143248" d="M3719.914,1549.288l4.508,6.189-4.366,3.667-3.76-7.694Z" transform="translate(-3629.881 -1482.203)" fill="url(#linear-gradient-4)"/>
          <g id="Grupo_98633" data-name="Grupo 98633" transform="translate(79.875 58.343)">
            <g id="Grupo_98632" data-name="Grupo 98632">
              <path id="Trazado_143249" data-name="Trazado 143249" d="M3692.088,1498.921c-.44.008-3.348,1.236-4.56-.012-1.646-1.693-1.246-5.13-1.247-5.646,0-2.16.106-2.514.38-3.038l.4-.7s.027-.033.057-.066a7.9,7.9,0,0,1,1.9-1.187c.948-.28,3.731,2.688,6.131,7.72.137.167.272.337.408.508C3695.907,1496.951,3692.162,1499.107,3692.088,1498.921Z" transform="translate(-3683.231 -1486.688)" fill="url(#linear-gradient-5)"/>
              <path id="Trazado_143250" data-name="Trazado 143250" d="M3661.471,1479.049a7.323,7.323,0,0,0,3.411,1.062,2.837,2.837,0,0,1,.874.3.873.873,0,0,1,.184.132c.851.774-.057,2.723.469,2.991.381.195,1.188-.781,1.456-.58.252.189-.322,1.177-.026,1.408.223.174.637-.321,1.16-.153.26.083.287.248.751.684a5.458,5.458,0,0,0,.788.625c1.007.605,2.667.124,2.759-.387.026-.143-.088-.189-.188-.566a3.035,3.035,0,0,1-.072-.823,7.864,7.864,0,0,1,1.027-2.388,5.59,5.59,0,0,0,.714-3.15c0-.039-.01-.075-.015-.107-.007-.059-.017-.116-.03-.173-.268-1.2-1.7-1.829-2.424-2.091a16.07,16.07,0,0,0-4.769-.924c-.565-.022-6.041-.2-6.817,1.883A2.3,2.3,0,0,0,3661.471,1479.049Z" transform="translate(-3660.64 -1474.897)" fill="#26264f"/>
              <path id="Trazado_143251" data-name="Trazado 143251" d="M3712.45,1539.242c.094-.712,1.007-.587,1.369.071a1.369,1.369,0,0,1-.6,1.9C3712.532,1541.419,3712.323,1540.2,3712.45,1539.242Z" transform="translate(-3706.331 -1531.256)" fill="url(#linear-gradient-6)"/>
              <path id="Trazado_143252" data-name="Trazado 143252" d="M3687.712,1535s-.492,3.628-2.314,2.771c-1.226-.576-.094,2.78,1.4,3s2.2.067,2.177-.213-.877-4.975-.668-5.138S3687.712,1535,3687.712,1535Z" transform="translate(-3682.029 -1527.936)" fill="#26264f"/>
            </g>
          </g>
          <path id="Trazado_143253" data-name="Trazado 143253" d="M4081.567,3103.589l-.646,7.658-2.763,1.22-1.056-8.1Z" transform="translate(-3948.286 -2853.851)" fill="url(#linear-gradient-7)"/>
          <path id="Trazado_143254" data-name="Trazado 143254" d="M4028.458,3161.711l.522,2.574s-.158,1.112-6.206,2.6-7.03-.9-5.581-1.3,5.974-2.557,5.974-2.557l3.782-2.023A1.039,1.039,0,0,1,4028.458,3161.711Z" transform="translate(-3894.898 -2904.407)" fill="url(#linear-gradient-8)"/>
          <path id="Trazado_143255" data-name="Trazado 143255" d="M3676.274,3066.52l2.991,7.642-1.612,2.095-5.918-7.179Z" transform="translate(-3590.557 -2821.138)" fill="url(#linear-gradient-9)"/>
          <path id="Trazado_143256" data-name="Trazado 143256" d="M3681.553,3123.485l1.8,1.914s.451,1.028-3.907,5.477-6.452,2.935-5.431,1.83,3.734-5.319,3.734-5.319l2.15-3.711A1.038,1.038,0,0,1,3681.553,3123.485Z" transform="translate(-3592.343 -2871.12)" fill="url(#linear-gradient-10)"/>
          <path id="Trazado_143257" data-name="Trazado 143257" d="M3878.517,2272.112c.506,4.663,1.43,11.759,3.19,20.292,3.974,19.271,8.2,26.424,10.163,37.421,1.656,9.268,2.015,23-4.806,41.2l-6.548.558a120.055,120.055,0,0,0-5.832-33.033c-4.6-13.953-12.6-29.174-18.1-52.807-1.143-4.914-2.288-10.661.852-14.054C3862.841,2265.846,3876.828,2271.419,3878.517,2272.112Z" transform="translate(-3752.641 -2117.379)" fill="#263238"/>
          <path id="Trazado_143259" data-name="Trazado 143259" d="M3608.1,2249.83a45.844,45.844,0,0,1-5.267,16.425c-6.057,10.958-13.226,12.6-21.527,23.745a63.021,63.021,0,0,0-10.257,21.155c-4,15.542-.017,29.48,3.117,37.348l-5.885,3.534a69.235,69.235,0,0,1-15.04-35.311c-4.012-35.533,23-60.232,26.074-62.954Z" transform="translate(-3485.628 -2100.421)" fill="#263238"/>
          <path id="Trazado_143260" data-name="Trazado 143260" d="M3196.916,1536.948a14.782,14.782,0,0,1,8.556,3.217c11.718,8.916,14.433,35.724,14.433,35.724a151.885,151.885,0,0,1-4.248,53.138c-4.427.38-12.069,1.075-21.706,2.173-12.231,1.394-16.163,2.125-19.505-.431-4.52-3.455-3.795-9.734-4.783-18.564a92.7,92.7,0,0,0-10.008-32.153c-8.781,9.105-21.591,12.936-33.4,9.837-14.056-3.686-24.435-16.585-25.355-31.918l3.877-2.3c4.435,3.732,12.086,8.98,22.3,10.13,16.063,1.807,30.54-7.417,36.628-11.3,8.906-5.674,18.372-10.42,27.468-15.784A11.881,11.881,0,0,1,3196.916,1536.948Z" transform="translate(-3086.799 -1471.313)" fill="url(#linear-gradient-11)"/>
          <path id="Trazado_143261" data-name="Trazado 143261" d="M3710.3,1661.9c1.123-.15,10.367-1.5,13.2-7.878,2.19-4.926-1.76-7.641.213-13.415,2.138-6.256,7.78-6,9.8-11.924,1.622-4.769-1.39-6.83-2.343-13.841-1.658-12.2,6.025-16.54,5.323-27.042a23.919,23.919,0,0,0-4.363-11.911c10.395,9.991,12.871,34.364,12.871,34.364a151.908,151.908,0,0,1-4.249,53.138c-4.427.379-12.069,1.075-21.705,2.173-12.231,1.394-16.163,2.125-19.505-.431-2.142-1.638-3.1-3.917-3.627-6.793A21.492,21.492,0,0,0,3710.3,1661.9Z" transform="translate(-3611.893 -1505.678)" opacity="0.3" fill="url(#linear-gradient-12)" style="mix-blend-mode: multiply;isolation: isolate"/>
        </g>
        <g id="Grupo_98643" data-name="Grupo 98643" transform="translate(36.018 189.586)">
          <g id="Grupo_98639" data-name="Grupo 98639" transform="translate(0 19.533)">
            <g id="Grupo_98635" data-name="Grupo 98635" transform="translate(2.936 18.216)">
              <path id="Trazado_143262" data-name="Trazado 143262" d="M1811.7,2678.288l6.466-.461a3.638,3.638,0,0,0,3.431-3.44v-12.669a3.045,3.045,0,0,0-3.377-2.98l-6.527.41a3.686,3.686,0,0,0-3.516,3.434v12.737A3.144,3.144,0,0,0,1811.7,2678.288Z" transform="translate(-1808.177 -2658.729)" fill="#5cd8a0"/>
            </g>
            <g id="Grupo_98636" data-name="Grupo 98636" transform="translate(21.807 8.406)">
              <path id="Trazado_143263" data-name="Trazado 143263" d="M1972.042,2603.3l6.358-.453a3.584,3.584,0,0,0,3.367-3.412v-21.206a3.1,3.1,0,0,0-3.411-2.972l-6.276.378a3.483,3.483,0,0,0-3.313,3.391v21.323A2.94,2.94,0,0,0,1972.042,2603.3Z" transform="translate(-1968.767 -2575.25)" fill="#5cd8a0"/>
            </g>
            <g id="Grupo_98637" data-name="Grupo 98637" transform="translate(39.421)">
              <path id="Trazado_143264" data-name="Trazado 143264" d="M2121.952,2538.9l6.113-.445a3.4,3.4,0,0,0,3.166-3.383v-28.388a2.915,2.915,0,0,0-3.172-2.964l-6.163.349a3.411,3.411,0,0,0-3.246,3.35v28.552A2.971,2.971,0,0,0,2121.952,2538.9Z" transform="translate(-2118.65 -2503.715)" fill="#5cd8a0"/>
            </g>
            <g id="Grupo_98638" data-name="Grupo 98638" transform="translate(0 37.719)">
              <path id="Trazado_143265" data-name="Trazado 143265" d="M1836.146,2824.691l-51.333,3.743a1.71,1.71,0,0,0-1.616,1.574v.834a1.4,1.4,0,0,0,1.575,1.344l51.364-3.824a1.685,1.685,0,0,0,1.579-1.538v-.815A1.409,1.409,0,0,0,1836.146,2824.691Z" transform="translate(-1783.197 -2824.687)" fill="#5cd8a0"/>
            </g>
          </g>
          <g id="Grupo_98642" data-name="Grupo 98642" transform="translate(1.595)">
            <g id="Grupo_98640" data-name="Grupo 98640" transform="translate(0 1.939)">
              <path id="Trazado_143266" data-name="Trazado 143266" d="M1798.766,2381.872a1.82,1.82,0,0,1-1-3.442l40.275-24.138a1.924,1.924,0,0,1,2.632.548,1.855,1.855,0,0,1-.708,2.551l-40.208,24.171A2.175,2.175,0,0,1,1798.766,2381.872Z" transform="translate(-1796.767 -2353.996)" fill="#5cd8a0"/>
            </g>
            <g id="Grupo_98641" data-name="Grupo 98641" transform="translate(32.342)">
              <path id="Trazado_143267" data-name="Trazado 143267" d="M2080.1,2350.318a2.012,2.012,0,0,1-.453-.027,1.74,1.74,0,0,1-1.427-2.15l1.365-5.491-6.221-1.507a1.747,1.747,0,0,1-1.289-2.248,2.06,2.06,0,0,1,2.426-1.344l7.949,1.938a1.739,1.739,0,0,1,1.309,2.127l-1.783,7.188A2.048,2.048,0,0,1,2080.1,2350.318Z" transform="translate(-2071.986 -2337.495)" fill="#5cd8a0"/>
            </g>
          </g>
        </g>
        <g id="Grupo_98646" data-name="Grupo 98646" transform="translate(210.082 16.702)">
          <g id="Grupo_98644" data-name="Grupo 98644">
            <path id="Trazado_143268" data-name="Trazado 143268" d="M3292.867,923.244a28.461,28.461,0,1,1,28.461-28.461A28.493,28.493,0,0,1,3292.867,923.244Zm0-53.011a24.55,24.55,0,1,0,24.551,24.55A24.578,24.578,0,0,0,3292.867,870.233Z" transform="translate(-3264.406 -866.322)" fill="#fff"/>
          </g>
          <g id="Grupo_98645" data-name="Grupo 98645" transform="translate(11.08 25.217)">
            <path id="Trazado_143269" data-name="Trazado 143269" d="M3393.456,1084.263c0,1.77-.973,3.355-2.172,3.355h-30.417c-1.2,0-2.173-1.585-2.173-3.355h0c0-1.77.973-3.355,2.173-3.355h30.417c1.2,0,2.172,1.585,2.172,3.355Z" transform="translate(-3358.695 -1080.908)" fill="#fff"/>
          </g>
        </g>
        <g id="Grupo_98651" data-name="Grupo 98651" transform="translate(179.204 210.588)">
          <g id="Grupo_98647" data-name="Grupo 98647">
            <path id="Trazado_143270" data-name="Trazado 143270" d="M3052.193,2563.812l-44.736,2.47a5.526,5.526,0,0,1-5.03-2.508,5.37,5.37,0,0,1,0-5.574l22.981-39.157a5.782,5.782,0,0,1,4.865-2.826,5.488,5.488,0,0,1,4.822,2.646l21.765,36.686a5.348,5.348,0,0,1-.011,5.339A5.77,5.77,0,0,1,3052.193,2563.812Zm-21.924-43.766a1.733,1.733,0,0,0-1.455.85l-22.859,39.078a1.609,1.609,0,0,0,0,1.667,1.655,1.655,0,0,0,1.5.755l44.742-2.335a1.733,1.733,0,0,0,1.4-.876,1.6,1.6,0,0,0,0-1.6l-21.884-36.743A1.646,1.646,0,0,0,3030.269,2520.046Z" transform="translate(-3001.647 -2516.215)" fill="#fff"/>
          </g>
          <g id="Grupo_98650" data-name="Grupo 98650" transform="translate(25.308 13.928)">
            <g id="Grupo_98648" data-name="Grupo 98648" transform="translate(0 20.949)">
              <path id="Trazado_143271" data-name="Trazado 143271" d="M3222.7,2813.7a3.227,3.227,0,0,0-2.4-.7,3.612,3.612,0,0,0-2.454.9,3.156,3.156,0,0,0-.847,2.362,2.866,2.866,0,0,0,.861,2.255,3.272,3.272,0,0,0,2.433.695,3.451,3.451,0,0,0,2.388-.947,3.151,3.151,0,0,0,.858-2.308A2.88,2.88,0,0,0,3222.7,2813.7Z" transform="translate(-3217.004 -2812.998)" fill="#fff"/>
            </g>
            <g id="Grupo_98649" data-name="Grupo 98649" transform="translate(0.154)">
              <path id="Trazado_143272" data-name="Trazado 143272" d="M3220.216,2652.693l2.527-.105a1.159,1.159,0,0,0,1.068-1.081l.855-15.778a.923.923,0,0,0-.291-.727,1.018,1.018,0,0,0-.774-.266l-4.212.116a1.077,1.077,0,0,0-.781.3,1.008,1.008,0,0,0-.3.761l.831,15.8A1.037,1.037,0,0,0,3220.216,2652.693Z" transform="translate(-3218.313 -2634.735)" fill="#fff"/>
            </g>
          </g>
        </g>
        <g id="Grupo_98655" data-name="Grupo 98655" transform="translate(32.244 64.564)">
          <g id="Grupo_98654" data-name="Grupo 98654">
            <g id="Grupo_98652" data-name="Grupo 98652">
              <path id="Trazado_143273" data-name="Trazado 143273" d="M1864.635,1302.165a5.124,5.124,0,0,1-4.945,5.155l-.165.005a4.857,4.857,0,0,1-4.955-4.954V1278.7a4.985,4.985,0,0,1,4.929-5.083h.222a4.961,4.961,0,0,1,4.914,5.047Z" transform="translate(-1842.408 -1273.615)" fill="#fff"/>
              <path id="Trazado_143274" data-name="Trazado 143274" d="M1760.724,1346.377c0,2.62-2.332,4.466-4.947,4.886h-.018a4.67,4.67,0,0,1-4.681-4.737v-10.915a4.8,4.8,0,0,1,4.663-4.9h.036a4.99,4.99,0,0,1,4.947,4.821Z" transform="translate(-1751.079 -1324.004)" fill="#fff"/>
            </g>
            <g id="Grupo_98653" data-name="Grupo 98653" transform="translate(42.356)">
              <path id="Trazado_143275" data-name="Trazado 143275" d="M2121.578,1278.554a4.81,4.81,0,0,0-4.709-4.939h-.213a5.193,5.193,0,0,0-5.143,4.974v23.163a4.893,4.893,0,0,0,4.971,4.849l.271-.005a5.037,5.037,0,0,0,4.823-5.042Z" transform="translate(-2111.513 -1273.615)" fill="#fff"/>
              <path id="Trazado_143276" data-name="Trazado 143276" d="M2227.379,1331.945a4.657,4.657,0,0,0-4.34-4.8h.042a4.847,4.847,0,0,0-4.509,4.871v10.5a4.381,4.381,0,0,0,4.509,4.344h-.021a4.354,4.354,0,0,0,4.319-4.482Z" transform="translate(-2205.991 -1320.854)" fill="#fff"/>
            </g>
          </g>
          <path id="Trazado_143277" data-name="Trazado 143277" d="M1983.025,1390.334l-14.259.209v-7.594l14.259-.132Z" transform="translate(-1943.185 -1369.984)" fill="#fff"/>
        </g>
      </g>
    </g>
    <rect id="Rectángulo_33355" data-name="Rectángulo 33355" width="381" height="361" transform="translate(541 9810)" fill="none"/>
  </g>
</svg>
