<svg xmlns="http://www.w3.org/2000/svg" width="1240" height="1334" viewBox="0 0 1240 1334">
  <g id="Grupo_99299" data-name="Grupo 99299" transform="translate(5049 1776)">
    <g id="Rectángulo_33755" data-name="Rectángulo 33755" transform="translate(-4733 -1655)" fill="#e8fff5" stroke="#5cd8a0" stroke-width="2">
      <rect width="200" height="66" rx="10" stroke="none"/>
      <rect x="1" y="1" width="198" height="64" rx="9" fill="none"/>
    </g>
    <text id="Análisis_externo" data-name="Análisis externo" transform="translate(-4633 -1616)" fill="#12263f" font-size="16" font-family="Roboto-Bold, Roboto" font-weight="700"><tspan x="-57.891" y="0">Análisis externo</tspan></text>
    <g id="Rectángulo_33756" data-name="Rectángulo 33756" transform="translate(-4418 -1655)" fill="#e8fff5" stroke="#5cd8a0" stroke-width="2">
      <rect width="200" height="66" rx="10" stroke="none"/>
      <rect x="1" y="1" width="198" height="64" rx="9" fill="none"/>
    </g>
    <text id="Estudio_de_mercado" data-name="Estudio de mercado" transform="translate(-4318 -1616)" fill="#12263f" font-size="16" font-family="Roboto-Bold, Roboto" font-weight="700"><tspan x="-71.348" y="0">Estudio de mercado</tspan></text>
    <g id="Rectángulo_33757" data-name="Rectángulo 33757" transform="translate(-5049 -1555)" fill="#f7f7f7" stroke="#b5b5b5" stroke-width="2">
      <rect width="292" height="181" rx="15" stroke="none"/>
      <rect x="1" y="1" width="290" height="179" rx="14" fill="none"/>
    </g>
    <text id="Se_deben_analizar_todas_las_variables_que_influyen_en_el_desarrollo_de_la_actividad_comercial_de_manera_interna_como:" data-name="Se deben analizar todas las variables que influyen en el desarrollo de la actividad comercial de manera interna como:" transform="translate(-5031 -1524)" fill="#12263f" font-size="16" font-family="Roboto-Regular, Roboto"><tspan x="0" y="15">Se deben analizar todas las </tspan><tspan x="0" y="39">variables que influyen en el </tspan><tspan x="0" y="63">desarrollo de la actividad comercial </tspan><tspan x="0" y="87">de manera interna como:</tspan></text>
    <g id="Rectángulo_33758" data-name="Rectángulo 33758" transform="translate(-4733 -1555)" fill="#f7f7f7" stroke="#b5b5b5" stroke-width="2">
      <rect width="292" height="181" rx="15" stroke="none"/>
      <rect x="1" y="1" width="290" height="179" rx="14" fill="none"/>
    </g>
    <text id="Se_deben_analizar_todas_las_variables_que_influyen_en_el_desarrollo_de_la_actividad_comercial_que_están_presentes_en_el_entorno:_" data-name="Se deben analizar todas las variables que influyen en el desarrollo de la actividad comercial que están presentes en el entorno:
" transform="translate(-4715 -1524)" fill="#12263f" font-size="16" font-family="Roboto-Regular, Roboto"><tspan x="0" y="15">Se deben analizar todas las </tspan><tspan x="0" y="39">variables que influyen en el </tspan><tspan x="0" y="63">desarrollo de la actividad comercial </tspan><tspan x="0" y="87">que están presentes en el entorno:</tspan><tspan x="0" y="111"></tspan></text>
    <g id="Rectángulo_33759" data-name="Rectángulo 33759" transform="translate(-4418 -1555)" fill="#f7f7f7" stroke="#b5b5b5" stroke-width="2">
      <rect width="292" height="181" rx="15" stroke="none"/>
      <rect x="1" y="1" width="290" height="179" rx="14" fill="none"/>
    </g>
    <text id="Se_debe_hacer_un_estudio_minucioso_respecto_a_la_necesidad_que_tienen_los_clientes_mercado_objetivo_del_producto_o_servicio:" data-name="Se debe hacer un estudio minucioso respecto a la necesidad que tienen los clientes (mercado objetivo) del producto o servicio:" transform="translate(-4400 -1524)" fill="#12263f" font-size="16" font-family="Roboto-Regular, Roboto"><tspan x="0" y="15">Se debe hacer un estudio minucioso </tspan><tspan x="0" y="39">respecto a la necesidad que tienen </tspan><tspan x="0" y="63">los clientes (mercado objetivo) del </tspan><tspan x="0" y="87">producto o servicio:</tspan></text>
    <g id="Rectángulo_33760" data-name="Rectángulo 33760" transform="translate(-4101 -1555)" fill="#f7f7f7" stroke="#b5b5b5" stroke-width="2">
      <rect width="292" height="181" rx="15" stroke="none"/>
      <rect x="1" y="1" width="290" height="179" rx="14" fill="none"/>
    </g>
    <text id="Con_lo_puntos_analizados_anteriormente_se_da_paso_a_realizar_la_Matriz_FODA_que_abarca_todos_los_aspectos_necesarios_para_el_diseño_de_las_estrategias:_" data-name="Con lo puntos analizados anteriormente se da paso a realizar la Matriz FODA, que abarca todos los aspectos necesarios para el diseño de las estrategias:
" transform="translate(-4083 -1524)" fill="#12263f" font-size="16" font-family="Roboto-Regular, Roboto"><tspan x="0" y="15">Con lo puntos analizados </tspan><tspan x="0" y="39">anteriormente se da paso a realizar </tspan><tspan x="0" y="63">la Matriz FODA, que abarca todos </tspan><tspan x="0" y="87">los aspectos necesarios para el </tspan><tspan x="0" y="111">diseño de las estrategias:</tspan></text>
    <path id="Trazado_145091" data-name="Trazado 145091" d="M-3474-1555s103.2-189.242,519.02-189.242S-2465.219-1555-2465.219-1555" transform="translate(-1475)" fill="none" stroke="#bcbcbc" stroke-width="1"/>
    <g id="Rectángulo_33761" data-name="Rectángulo 33761" transform="translate(-5049 -1655)" fill="#e8fff5" stroke="#5cd8a0" stroke-width="2">
      <rect width="200" height="66" rx="10" stroke="none"/>
      <rect x="1" y="1" width="198" height="64" rx="9" fill="none"/>
    </g>
    <text id="Análisis_interno" data-name="Análisis interno" transform="translate(-4949 -1616)" fill="#12263f" font-size="16" font-family="Roboto-Bold, Roboto" font-weight="700"><tspan x="-56.098" y="0">Análisis interno</tspan></text>
    <g id="Rectángulo_33762" data-name="Rectángulo 33762" transform="translate(-4101 -1655)" fill="#e8fff5" stroke="#5cd8a0" stroke-width="2">
      <rect width="200" height="66" rx="10" stroke="none"/>
      <rect x="1" y="1" width="198" height="64" rx="9" fill="none"/>
    </g>
    <text id="Análisis_FODA" data-name="Análisis FODA" transform="translate(-4001 -1616)" fill="#12263f" font-size="16" font-family="Roboto-Bold, Roboto" font-weight="700"><tspan x="-50.953" y="0">Análisis FODA</tspan></text>
    <g id="Rectángulo_33763" data-name="Rectángulo 33763" transform="translate(-4604 -1776)" fill="#ffea99" stroke="#f1d54e" stroke-width="2">
      <rect width="350" height="64" rx="10" stroke="none"/>
      <rect x="1" y="1" width="348" height="62" rx="9" fill="none"/>
    </g>
    <text id="Marketing_analítico" data-name="Marketing analítico" transform="translate(-4429 -1738)" fill="#12263f" font-size="16" font-family="Roboto-Bold, Roboto" font-weight="700"><tspan x="-69.488" y="0">Marketing analítico</tspan></text>
    <path id="Trazado_145092" data-name="Trazado 145092" d="M-3481-1374v263.031" transform="translate(-1475)" fill="none" stroke="#ccc" stroke-width="1"/>
    <g id="Rectángulo_33764" data-name="Rectángulo 33764" transform="translate(-5049 -1341)" fill="#ededed" stroke="#b2b2b2" stroke-width="2">
      <rect width="200" height="66" rx="10" stroke="none"/>
      <rect x="1" y="1" width="198" height="64" rx="9" fill="none"/>
    </g>
    <text id="Planeación_estratégica" data-name="Planeación estratégica" transform="translate(-4949 -1302)" fill="#12263f" font-size="16" font-family="Roboto-Bold, Roboto" font-weight="700"><tspan x="-82.359" y="0">Planeación estratégica</tspan></text>
    <g id="Rectángulo_33765" data-name="Rectángulo 33765" transform="translate(-5049 -1259)" fill="#ededed" stroke="#b2b2b2" stroke-width="2">
      <rect width="200" height="66" rx="10" stroke="none"/>
      <rect x="1" y="1" width="198" height="64" rx="9" fill="none"/>
    </g>
    <text id="Capacidad_financiera" data-name="Capacidad financiera" transform="translate(-4956 -1220)" fill="#12263f" font-size="16" font-family="Roboto-Bold, Roboto" font-weight="700"><tspan x="-75.73" y="0">Capacidad financiera</tspan></text>
    <g id="Rectángulo_33766" data-name="Rectángulo 33766" transform="translate(-5049 -1177)" fill="#ededed" stroke="#b2b2b2" stroke-width="2">
      <rect width="200" height="66" rx="10" stroke="none"/>
      <rect x="1" y="1" width="198" height="64" rx="9" fill="none"/>
    </g>
    <text id="Recursos_económicos" data-name="Recursos económicos" transform="translate(-4952 -1138)" fill="#12263f" font-size="16" font-family="Roboto-Bold, Roboto" font-weight="700"><tspan x="-79.617" y="0">Recursos económicos</tspan></text>
    <path id="Trazado_145093" data-name="Trazado 145093" d="M-3481-1374v263.031" transform="translate(-1122.5)" fill="none" stroke="#ccc" stroke-width="1"/>
    <g id="Rectángulo_33767" data-name="Rectángulo 33767" transform="translate(-4733 -1341)" fill="#ededed" stroke="#b2b2b2" stroke-width="2">
      <rect width="259" height="66" rx="10" stroke="none"/>
      <rect x="1" y="1" width="257" height="64" rx="9" fill="none"/>
    </g>
    <text id="Socioeconómico_y_legal" data-name="Socioeconómico y legal" transform="translate(-4628 -1302)" fill="#12263f" font-size="16" font-family="Roboto-Bold, Roboto" font-weight="700"><tspan x="-85.445" y="0">Socioeconómico y legal</tspan></text>
    <g id="Rectángulo_33768" data-name="Rectángulo 33768" transform="translate(-4733 -1259)" fill="#ededed" stroke="#b2b2b2" stroke-width="2">
      <rect width="259" height="66" rx="10" stroke="none"/>
      <rect x="1" y="1" width="257" height="64" rx="9" fill="none"/>
    </g>
    <text id="Análisis_de_los_consumidores" data-name="Análisis de los consumidores" transform="translate(-4608 -1220)" fill="#12263f" font-size="16" font-family="Roboto-Bold, Roboto" font-weight="700"><tspan x="-105.246" y="0">Análisis de los consumidores</tspan></text>
    <g id="Rectángulo_33769" data-name="Rectángulo 33769" transform="translate(-4733 -1177)" fill="#ededed" stroke="#b2b2b2" stroke-width="2">
      <rect width="259" height="66" rx="10" stroke="none"/>
      <rect x="1" y="1" width="257" height="64" rx="9" fill="none"/>
    </g>
    <text id="Análisis_de_la_competencia" data-name="Análisis de la competencia" transform="translate(-4617 -1138)" fill="#12263f" font-size="16" font-family="Roboto-Bold, Roboto" font-weight="700"><tspan x="-96.313" y="0">Análisis de la competencia</tspan></text>
    <path id="Trazado_145094" data-name="Trazado 145094" d="M-3481-1374v345" transform="translate(-789)" fill="none" stroke="#ccc" stroke-width="1"/>
    <g id="Rectángulo_33770" data-name="Rectángulo 33770" transform="translate(-4418 -1341)" fill="#ededed" stroke="#b2b2b2" stroke-width="2">
      <rect width="292" height="66" rx="10" stroke="none"/>
      <rect x="1" y="1" width="290" height="64" rx="9" fill="none"/>
    </g>
    <text id="Atributos_del_producto_o_servicio" data-name="Atributos del producto o servicio" transform="translate(-4283 -1302)" fill="#12263f" font-size="16" font-family="Roboto-Bold, Roboto" font-weight="700"><tspan x="-117.184" y="0">Atributos del producto o servicio</tspan></text>
    <g id="Rectángulo_33771" data-name="Rectángulo 33771" transform="translate(-4418 -1259)" fill="#ededed" stroke="#b2b2b2" stroke-width="2">
      <rect width="292" height="66" rx="10" stroke="none"/>
      <rect x="1" y="1" width="290" height="64" rx="9" fill="none"/>
    </g>
    <text id="Análisis_y_definición_de_precio" data-name="Análisis y definición de precio" transform="translate(-4293 -1220)" fill="#12263f" font-size="16" font-family="Roboto-Bold, Roboto" font-weight="700"><tspan x="-107.457" y="0">Análisis y definición de precio</tspan></text>
    <g id="Rectángulo_33772" data-name="Rectángulo 33772" transform="translate(-4418 -1177)" fill="#ededed" stroke="#b2b2b2" stroke-width="2">
      <rect width="292" height="66" rx="10" stroke="none"/>
      <rect x="1" y="1" width="290" height="64" rx="9" fill="none"/>
    </g>
    <text id="Estudio_y_definición_del_proceso_de_compra" data-name="Estudio y definición del proceso 
de compra" transform="translate(-4403 -1148)" fill="#12263f" font-size="16" font-family="Roboto-Bold, Roboto" font-weight="700"><tspan x="0" y="0">Estudio y definición del proceso </tspan><tspan x="0" y="24">de compra</tspan></text>
    <g id="Rectángulo_33773" data-name="Rectángulo 33773" transform="translate(-4418 -1095)" fill="#ededed" stroke="#b2b2b2" stroke-width="2">
      <rect width="292" height="66" rx="10" stroke="none"/>
      <rect x="1" y="1" width="290" height="64" rx="9" fill="none"/>
    </g>
    <text id="Canal_de_distribución" data-name="Canal de distribución" transform="translate(-4325 -1056)" fill="#12263f" font-size="16" font-family="Roboto-Bold, Roboto" font-weight="700"><tspan x="-75.992" y="0">Canal de distribución</tspan></text>
    <text id="Análisis_FODA-2" data-name="Análisis FODA" transform="translate(-3940 -1269)" fill="#12263f" font-size="16" font-family="Roboto-Bold, Roboto" font-weight="700"><tspan x="-50.953" y="0">Análisis FODA</tspan></text>
    <rect id="Rectángulo_33774" data-name="Rectángulo 33774" width="219" height="219" transform="translate(-4653 -890)" fill="#f1d54e"/>
    <rect id="Rectángulo_33775" data-name="Rectángulo 33775" width="219" height="219" transform="translate(-4423 -890)" fill="#fb9e36"/>
    <rect id="Rectángulo_33776" data-name="Rectángulo 33776" width="219" height="219" transform="translate(-4653 -661)" fill="#5cd8a0"/>
    <rect id="Rectángulo_33777" data-name="Rectángulo 33777" width="219" height="219" transform="translate(-4423 -661)" fill="#fa9ab5"/>
    <text id="Debilidades" transform="translate(-4312 -722)" fill="#12263f" font-size="20" font-family="Roboto-Bold, Roboto" font-weight="700"><tspan x="-52.666" y="0">Debilidades</tspan></text>
    <text id="Oportunidades" transform="translate(-4543 -485)" fill="#12263f" font-size="20" font-family="Roboto-Bold, Roboto" font-weight="700"><tspan x="-66.484" y="0">Oportunidades</tspan></text>
    <text id="Amenazas" transform="translate(-4312 -485)" fill="#12263f" font-size="20" font-family="Roboto-Bold, Roboto" font-weight="700"><tspan x="-47.109" y="0">Amenazas</tspan></text>
    <path id="Trazado_145095" data-name="Trazado 145095" d="M21.729-29.053H-6.4V0H-21.045V-71.094H25.244v11.865H-6.4v18.359H21.729Z" transform="translate(-4543 -776)" fill="#fff"/>
    <text id="Fortaleza" transform="translate(-4543 -722)" fill="#12263f" font-size="20" font-family="Roboto-Bold, Roboto" font-weight="700"><tspan x="-42.168" y="0">Fortaleza</tspan></text>
    <path id="Trazado_145096" data-name="Trazado 145096" d="M-26.147,0V-71.094H-4.272A33.22,33.22,0,0,1,12.5-66.87,29.452,29.452,0,0,1,24.048-54.858a37.048,37.048,0,0,1,4.15,17.7v3.271A37.153,37.153,0,0,1,24.121-16.26,29.2,29.2,0,0,1,12.622-4.3,33.47,33.47,0,0,1-4.126,0ZM-11.5-59.229v47.461h7.08q8.594,0,13.135-5.615t4.639-16.064v-3.76q0-10.84-4.492-16.431T-4.272-59.229Z" transform="translate(-4320 -776)" fill="#fff"/>
    <path id="Trazado_145097" data-name="Trazado 145097" d="M30.225-33.936a42.917,42.917,0,0,1-3.711,18.408A27.947,27.947,0,0,1,15.894-3.32,29.377,29.377,0,0,1,.049.977,29.577,29.577,0,0,1-15.723-3.271,28.221,28.221,0,0,1-26.465-15.405a41.69,41.69,0,0,1-3.857-18.14v-3.516a42.692,42.692,0,0,1,3.784-18.481A28.175,28.175,0,0,1-15.845-67.8,29.414,29.414,0,0,1-.049-72.07a29.414,29.414,0,0,1,15.8,4.272A28.175,28.175,0,0,1,26.44-55.542a42.571,42.571,0,0,1,3.784,18.433ZM15.381-37.158q0-11.182-4-16.992A13.048,13.048,0,0,0-.049-59.961a13.053,13.053,0,0,0-11.377,5.737q-4,5.737-4.053,16.821v3.467q0,10.889,4,16.895A13.014,13.014,0,0,0,.049-11.035a12.9,12.9,0,0,0,11.328-5.786q3.955-5.786,4-16.87Z" transform="translate(-4543 -535)" fill="#fff"/>
    <path id="Trazado_145098" data-name="Trazado 145098" d="M12.842-14.648H-12.842L-17.725,0H-33.3L-6.836-71.094H6.738L33.35,0H17.773ZM-8.887-26.514H8.887L-.049-53.125Z" transform="translate(-4313 -535)" fill="#fff"/>
    <text id="Positivos_Para_alcanzar_el_objetivo" data-name="Positivos
Para alcanzar el objetivo" transform="translate(-4653 -938)" fill="#12263f" font-size="16" font-family="Roboto-Bold, Roboto" font-weight="700"><tspan x="0" y="0">Positivos</tspan><tspan font-family="Roboto-Regular, Roboto" font-weight="400"><tspan x="0" y="24">Para alcanzar el objetivo</tspan></tspan></text>
    <text id="Negativos_para_alcanzar_el_objetivo" data-name="Negativos
para alcanzar el objetivo" transform="translate(-4423 -938)" fill="#12263f" font-size="16" font-family="Roboto-Bold, Roboto" font-weight="700"><tspan x="0" y="0">Negativos</tspan><tspan font-family="Roboto-Regular, Roboto" font-weight="400"><tspan x="0" y="24">para alcanzar el objetivo</tspan></tspan></text>
    <path id="Trazado_145099" data-name="Trazado 145099" d="M-2711-558.089h245.781V-1149.25" transform="translate(-1475 -102.911)" fill="none" stroke="#b4b4b4" stroke-width="1"/>
    <text id="Origen_interno_atributos_de_la_empresa_" data-name="Origen interno 
(atributos de la empresa)" transform="translate(-4698 -673.094) rotate(-90)" fill="#12263f" font-size="16" font-family="Roboto-Bold, Roboto" font-weight="700"><tspan x="0" y="0">Origen interno </tspan><tspan font-family="Roboto-Regular, Roboto" font-weight="400"><tspan x="0" y="24">(atributos de la empresa)</tspan></tspan></text>
    <text id="Origen_externo_atributos_del_ambiente_" data-name="Origen externo 
(atributos del ambiente)" transform="translate(-4698 -444.523) rotate(-90)" fill="#12263f" font-size="16" font-family="Roboto-Bold, Roboto" font-weight="700"><tspan x="0" y="0">Origen externo </tspan><tspan font-family="Roboto-Regular, Roboto" font-weight="400"><tspan x="0" y="24">(atributos del ambiente)</tspan></tspan></text>
  </g>
</svg>
