<svg xmlns="http://www.w3.org/2000/svg" width="274" height="274" viewBox="0 0 274 274">
  <g id="Grupo_98673" data-name="Grupo 98673" transform="translate(2046 -1227)">
    <rect id="Rectángulo_33451" data-name="Rectángulo 33451" width="274" height="274" transform="translate(-2046 1227)" fill="#d8faeb"/>
    <g id="cronograma" transform="translate(-1979 1283.749)">
      <path id="Trazado_143319" data-name="Trazado 143319" d="M76.993,124.7c.109-26.746,21.635-48.339,48.08-48.229a47.6,47.6,0,0,1,9.609,1.016V12.513a3.335,3.335,0,0,0-3.325-3.325H10.825A3.335,3.335,0,0,0,7.5,12.513V158.06a3.335,3.335,0,0,0,3.325,3.325H93.391a48.556,48.556,0,0,1-16.4-36.688Z" transform="translate(-5.006 -5.006)" fill="#5cd8a0"/>
      <path id="Trazado_143320" data-name="Trazado 143320" d="M17.813,158.06V12.513a3.335,3.335,0,0,1,3.325-3.325H10.825A3.335,3.335,0,0,0,7.5,12.513V158.06a3.335,3.335,0,0,0,3.325,3.325H21.138A3.335,3.335,0,0,1,17.813,158.06Z" transform="translate(-5.006 -5.006)" fill="#d2f6e6"/>
      <path id="Trazado_143321" data-name="Trazado 143321" d="M153.289,81.381H69.672a1.667,1.667,0,0,0-1.663,1.663V96.314a1.667,1.667,0,0,0,1.663,1.663h83.617a1.667,1.667,0,0,0,1.663-1.663V83.044A1.667,1.667,0,0,0,153.289,81.381Z" transform="translate(-45.395 -53.194)" fill="#fff"/>
      <path id="Trazado_143322" data-name="Trazado 143322" d="M78.491,96.314V83.044a1.667,1.667,0,0,1,1.663-1.663H69.672a1.667,1.667,0,0,0-1.663,1.663V96.314a1.667,1.667,0,0,0,1.663,1.663H80.153A1.667,1.667,0,0,1,78.491,96.314Z" transform="translate(-45.395 -53.194)" fill="#d8e6eb"/>
      <path id="Trazado_143323" data-name="Trazado 143323" d="M154.951,192.414v-9.548a1.667,1.667,0,0,0-1.663-1.663H69.672a1.667,1.667,0,0,0-1.663,1.663v13.271a1.667,1.667,0,0,0,1.663,1.663h71.6A47.276,47.276,0,0,1,154.951,192.414Z" transform="translate(-45.395 -119.824)" fill="#c7eefd"/>
      <path id="Trazado_143324" data-name="Trazado 143324" d="M78.491,196.136V182.866a1.667,1.667,0,0,1,1.663-1.663H69.672a1.667,1.667,0,0,0-1.663,1.663v13.271a1.667,1.667,0,0,0,1.663,1.663H80.153A1.667,1.667,0,0,1,78.491,196.136Z" transform="translate(-45.395 -119.824)" fill="#98e5fb"/>
      <path id="Trazado_143325" data-name="Trazado 143325" d="M124.439,281.024H69.672a1.667,1.667,0,0,0-1.663,1.663v13.271a1.667,1.667,0,0,0,1.663,1.663h48.485A48.442,48.442,0,0,1,124.439,281.024Z" transform="translate(-45.395 -186.453)" fill="#fff"/>
      <path id="Trazado_143326" data-name="Trazado 143326" d="M78.491,295.958V282.687a1.667,1.667,0,0,1,1.663-1.663H69.672a1.667,1.667,0,0,0-1.663,1.663v13.271a1.667,1.667,0,0,0,1.663,1.663H80.153A1.667,1.667,0,0,1,78.491,295.958Z" transform="translate(-45.395 -186.453)" fill="#d8e6eb"/>
      <path id="Trazado_143327" data-name="Trazado 143327" d="M312.258,260.152c-.109,26.746-21.635,48.339-48.08,48.229s-47.8-21.882-47.686-48.628,21.635-48.339,48.08-48.229S312.367,233.4,312.258,260.152Z" transform="translate(-144.504 -140.062)" fill="#f1d54e"/>
      <ellipse id="Elipse_4591" data-name="Elipse 4591" cx="36.053" cy="36.464" rx="36.053" ry="36.464" transform="translate(83.817 83.426)" fill="#fff"/>
      <path id="Trazado_143328" data-name="Trazado 143328" d="M262.4,283.97a36.338,36.338,0,0,1,30.886-36.089,35.881,35.881,0,0,0-5.167-.375,36.464,36.464,0,1,0,5.167,72.554A36.34,36.34,0,0,1,262.4,283.97Z" transform="translate(-168.253 -164.08)" fill="#d8e6eb"/>
      <path id="Trazado_143329" data-name="Trazado 143329" d="M64.665,73.881a4.161,4.161,0,0,0-4.156,4.156V91.308a4.161,4.161,0,0,0,4.156,4.156h83.617a4.161,4.161,0,0,0,4.156-4.156V78.037a4.161,4.161,0,0,0-4.156-4.156Zm82.786,16.6H65.5V78.869h81.954Z" transform="translate(-40.389 -48.188)" fill="#0a5936"/>
      <path id="Trazado_143330" data-name="Trazado 143330" d="M91.472,378.334a2.494,2.494,0,1,0,0-4.988H63a2.494,2.494,0,1,0,0,4.988Z" transform="translate(-40.389 -248.076)" fill="#d2f6e6"/>
      <path id="Trazado_143331" data-name="Trazado 143331" d="M132.17,70.506V41.694a2.494,2.494,0,0,0-4.988,0V69.507a50.066,50.066,0,0,0-7.1-.539h-.212a50.412,50.412,0,0,0-7.815.609V63.042a4.161,4.161,0,0,0-4.156-4.156H24.277a4.161,4.161,0,0,0-4.156,4.156V76.313a4.161,4.161,0,0,0,4.156,4.156h63.7q-1.9,1.573-3.658,3.345a51.259,51.259,0,0,0-6.659,8.263H50.21a2.494,2.494,0,0,0,0,4.988h24.6a50.667,50.667,0,0,0-4.1,11.609H25.108V97.066H38.572a2.494,2.494,0,0,0,0-4.988h-14.3a4.161,4.161,0,0,0-4.156,4.156v13.271a4.161,4.161,0,0,0,4.156,4.156h45.59a52.2,52.2,0,0,0-.373,6.019,51.034,51.034,0,0,0,12.9,34.2H5.819a.842.842,0,0,1-.831-.831V7.507a.842.842,0,0,1,.831-.831H126.351a.843.843,0,0,1,.831.831V30.055a2.494,2.494,0,1,0,4.988,0V7.507a5.826,5.826,0,0,0-5.819-5.819H5.819A5.826,5.826,0,0,0,0,7.507V153.054a5.826,5.826,0,0,0,5.819,5.819H87.494a49.825,49.825,0,0,0,32.169,11.94h.212a49.779,49.779,0,0,0,35.55-14.847,51.15,51.15,0,0,0-23.255-85.46ZM25.108,75.481V63.873h81.954v6.749a49.47,49.47,0,0,0-11.889,4.859Zm126.778,76.97a44.829,44.829,0,0,1-32.011,13.374h-.191c-25.028-.1-45.306-20.8-45.2-46.124A45.916,45.916,0,0,1,87.854,87.329a44.827,44.827,0,0,1,32.011-13.374h.192c25.028.1,45.306,20.8,45.2,46.125A45.916,45.916,0,0,1,151.886,152.452Z" fill="#0a5936"/>
      <path id="Trazado_143332" data-name="Trazado 143332" d="M319.024,283.106a2.493,2.493,0,0,0-2.9,2.011,33.6,33.6,0,1,1-33.011-40.122,33.294,33.294,0,0,1,22.121,8.424,34.061,34.061,0,0,1,11.119,20.841,2.494,2.494,0,0,0,4.941-.676,39.048,39.048,0,0,0-12.749-23.894,38.277,38.277,0,0,0-25.433-9.683,38.96,38.96,0,1,0,37.919,46,2.493,2.493,0,0,0-2.011-2.9Z" transform="translate(-163.246 -159.074)" fill="#0a5936"/>
      <path id="Trazado_143333" data-name="Trazado 143333" d="M355.489,280.848a2.493,2.493,0,0,0-2.494,2.494v22.883a2.493,2.493,0,0,0,2.494,2.494h15.5a2.494,2.494,0,0,0,0-4.988H357.983V283.342A2.494,2.494,0,0,0,355.489,280.848Z" transform="translate(-235.619 -186.335)" fill="#17c878"/>
    </g>
  </g>
</svg>
