<svg xmlns="http://www.w3.org/2000/svg" width="274" height="274" viewBox="0 0 274 274">
  <g id="Grupo_98686" data-name="Grupo 98686" transform="translate(1733 -1227)">
    <rect id="Rectángulo_33451" data-name="Rectángulo 33451" width="274" height="274" transform="translate(-1733 1227)" fill="#d8faeb"/>
    <g id="presupuesto" transform="translate(-1677.781 1283.219)">
      <g id="Grupo_98684" data-name="Grupo 98684" transform="translate(3.574 34.457)">
        <g id="Grupo_98675" data-name="Grupo 98675" transform="translate(5.147 72.06)">
          <path id="Trazado_143334" data-name="Trazado 143334" d="M4,42H24.589V93.472H4Z" transform="translate(-4 -42)" fill="#f1d54e"/>
        </g>
        <g id="Grupo_98676" data-name="Grupo 98676" transform="translate(36.03 77.208)">
          <path id="Trazado_143335" data-name="Trazado 143335" d="M16,44H36.589V90.325H16Z" transform="translate(-16 -44)" fill="#f1d54e"/>
        </g>
        <g id="Grupo_98677" data-name="Grupo 98677" transform="translate(97.796 25.736)">
          <path id="Trazado_143336" data-name="Trazado 143336" d="M73.457,121.8H40V24H60.589V49.736h-.438A7.279,7.279,0,0,0,55,62.166l8.158,8.158L53.82,85.277a23.006,23.006,0,0,0-3.526,12.276v1.081A23.164,23.164,0,0,0,73.457,121.8Z" transform="translate(-40 -24)" fill="#fb9e36"/>
        </g>
        <g id="Grupo_98678" data-name="Grupo 98678" transform="translate(66.913 46.325)">
          <path id="Trazado_143337" data-name="Trazado 143337" d="M28,32H48.589v77.208H28Z" transform="translate(-28 -32)" fill="#f1d54e"/>
        </g>
        <g id="Grupo_98679" data-name="Grupo 98679" transform="translate(110.664 46.325)">
          <path id="Trazado_143338" data-name="Trazado 143338" d="M60.647,37.147A6.761,6.761,0,0,1,67.21,32h7.052a6.766,6.766,0,0,1,6.769,6.769,6.323,6.323,0,0,1-.257,1.853l-4.89,17.114H55.294l-8.158-8.158a7.279,7.279,0,0,1,5.147-12.43h8.364Z" transform="translate(-45 -32)" fill="#5cd8a0"/>
        </g>
        <g id="Grupo_98680" data-name="Grupo 98680" transform="translate(108.091 72.06)">
          <path id="Trazado_143339" data-name="Trazado 143339" d="M56.868,42H77.457L86.8,56.953a23.006,23.006,0,0,1,3.526,12.276v1.081a23.162,23.162,0,1,1-46.325,0V69.229a23.007,23.007,0,0,1,3.526-12.276Z" transform="translate(-44 -42)" fill="#5cd8a0"/>
        </g>
        <g id="Grupo_98681" data-name="Grupo 98681" transform="translate(100.37)">
          <path id="Trazado_143340" data-name="Trazado 143340" d="M54.177,16.265A7.716,7.716,0,1,1,48.721,14,7.7,7.7,0,0,1,54.177,16.265Z" transform="translate(-41 -14)" fill="#fcd770"/>
        </g>
        <g id="Grupo_98682" data-name="Grupo 98682" transform="translate(64.34 20.589)">
          <path id="Trazado_143341" data-name="Trazado 143341" d="M41.438,25.912a7.576,7.576,0,0,1,1,3.809A7.721,7.721,0,0,1,27.1,30.982a6.765,6.765,0,0,1-.1-1.261,7.722,7.722,0,0,1,14.438-3.809Z" transform="translate(-27 -22)" fill="#fcd770"/>
        </g>
        <g id="Grupo_98683" data-name="Grupo 98683" transform="translate(0 10.294)">
          <path id="Trazado_143342" data-name="Trazado 143342" d="M53.111,39.515a25.242,25.242,0,0,1,.36,4.221,25.814,25.814,0,1,1-.36-4.221Z" transform="translate(-2 -18)" fill="#f1d54e"/>
        </g>
      </g>
      <g id="Grupo_98685" data-name="Grupo 98685" transform="translate(1 1)">
        <path id="Trazado_143343" data-name="Trazado 143343" d="M14.147,51.51v5.52h5.147V51.51A7.318,7.318,0,0,0,20.38,37.968l-5.018-2.507a2.2,2.2,0,0,1,.983-4.167H17.1a2.2,2.2,0,0,1,2.2,2.2v.376h5.147v-.376a7.332,7.332,0,0,0-5.147-6.972V21H14.147v5.52a7.318,7.318,0,0,0-1.086,13.542l5.018,2.507a2.2,2.2,0,0,1-.983,4.167h-.751a2.2,2.2,0,0,1-2.2-2.2V41.589H9v2.949A7.332,7.332,0,0,0,14.147,51.51Z" transform="translate(11.589 30.472)" fill="#0a5936"/>
        <path id="Trazado_143344" data-name="Trazado 143344" d="M29.309,98.8A28.343,28.343,0,0,0,57.619,70.487c0-.705-.054-1.4-.106-2.092l8.73-1.457a10.253,10.253,0,0,0,19.284-6.861L104.3,49.347a10.254,10.254,0,0,0,16.2-12.366l27.2-27.2V24.162h5.147V1H129.679V6.147h14.376l-27.2,27.2a10.158,10.158,0,0,0-5.2-1.459A10.3,10.3,0,0,0,101.37,42.177a10.2,10.2,0,0,0,.4,2.689L83,55.6a10.238,10.238,0,0,0-17.565,6.262l-8.768,1.462A28.3,28.3,0,1,0,29.309,98.8ZM111.664,37.03a5.147,5.147,0,1,1-5.147,5.147A5.152,5.152,0,0,1,111.664,37.03ZM75.634,57.619a5.147,5.147,0,1,1-5.147,5.147A5.152,5.152,0,0,1,75.634,57.619ZM29.309,47.325A23.162,23.162,0,1,1,6.147,70.487,23.191,23.191,0,0,1,29.309,47.325Z" transform="translate(-1 -1)" fill="#0a5936"/>
        <path id="Trazado_143345" data-name="Trazado 143345" d="M3,97.619H28.736V41H3ZM8.147,46.147H23.589V92.472H8.147Z" transform="translate(2.147 61.944)" fill="#0a5936"/>
        <path id="Trazado_143346" data-name="Trazado 143346" d="M15,94.472H40.736V43H15Zm5.147-46.325H35.589V89.325H20.147Z" transform="translate(21.03 65.091)" fill="#0a5936"/>
        <path id="Trazado_143347" data-name="Trazado 143347" d="M27,113.355H52.736V31H27Zm5.147-77.208H47.589v72.06H32.147Z" transform="translate(39.913 46.208)" fill="#0a5936"/>
        <path id="Trazado_143348" data-name="Trazado 143348" d="M60.294,50.52V45H55.147v5.52a7.318,7.318,0,0,0-1.086,13.542l5.018,2.509a2.2,2.2,0,0,1-.983,4.164h-.751a2.2,2.2,0,0,1-2.2-2.2V65.589H50v2.949a7.327,7.327,0,0,0,5.147,6.972v5.52h5.147V75.51A7.318,7.318,0,0,0,61.38,61.968l-5.019-2.509a2.2,2.2,0,0,1,.983-4.164H58.1a2.2,2.2,0,0,1,2.2,2.2v.376h5.147v-.376A7.332,7.332,0,0,0,60.294,50.52Z" transform="translate(76.106 68.238)" fill="#0a5936"/>
        <path id="Trazado_143349" data-name="Trazado 143349" d="M96.854,85.489,88.114,71.5,92.688,55.5A9.349,9.349,0,0,0,83.7,43.589H76.657a9.32,9.32,0,0,0-8.3,5.147H64.736V23H39V125.944H75.03a25.765,25.765,0,0,0,25.736-25.736V99.129a25.713,25.713,0,0,0-3.912-13.64Zm-24.4-32.553a4.2,4.2,0,0,1,4.2-4.2H83.7a4.2,4.2,0,0,1,4.038,5.353L83.384,69.325H65.8l-7.409-7.409a4.706,4.706,0,0,1,3.33-8.032h5.587V59.03h5.147ZM44.147,120.8V28.147H59.589V48.983a9.839,9.839,0,0,0-4.833,16.571l6.714,6.714L53.209,85.489a25.693,25.693,0,0,0-3.914,13.64v1.078A25.684,25.684,0,0,0,59.656,120.8Zm51.472-20.589a20.589,20.589,0,0,1-41.177,0V99.129A20.542,20.542,0,0,1,57.571,88.22l8.591-13.748H83.9L92.489,88.22a20.542,20.542,0,0,1,3.129,10.909Z" transform="translate(58.796 33.619)" fill="#0a5936"/>
      </g>
    </g>
  </g>
</svg>
