<svg xmlns="http://www.w3.org/2000/svg" width="74.373" height="74.373" viewBox="0 0 74.373 74.373">
  <g id="marketing" transform="translate(-1 -1)">
    <g id="Grupo_99460" data-name="Grupo 99460" transform="translate(2.2 2.2)">
      <g id="Grupo_99442" data-name="Grupo 99442" transform="translate(0 2.399)">
        <path id="Trazado_145578" data-name="Trazado 145578" d="M49.983,63.978v4.8a4.8,4.8,0,0,1-4.8,4.8H6.8a4.8,4.8,0,0,1-4.8-4.8V8.8A4.8,4.8,0,0,1,6.8,4h9.6V8.8H8A1.2,1.2,0,0,0,6.8,10V67.577a1.2,1.2,0,0,0,1.2,1.2H43.985a1.2,1.2,0,0,0,1.2-1.2v-3.6Z" transform="translate(-2 -4)" fill="#f1d54e"/>
      </g>
      <g id="Grupo_99443" data-name="Grupo 99443" transform="translate(43.184 22.984)">
        <path id="Trazado_145579" data-name="Trazado 145579" d="M42.8,21.172V50.957H38V22.168a11.853,11.853,0,0,0,4.8-1.008Z" transform="translate(-38 -21.16)" fill="#ffeaa7"/>
      </g>
      <g id="Grupo_99444" data-name="Grupo 99444" transform="translate(4.798 7.197)">
        <path id="Trazado_145580" data-name="Trazado 145580" d="M37.117,22.335A11.959,11.959,0,0,1,32.39,12.8a12.266,12.266,0,0,1,.24-2.411,1.608,1.608,0,0,1-.24.012H18A2.406,2.406,0,0,1,15.6,8H7.2A1.2,1.2,0,0,0,6,9.2V66.779a1.2,1.2,0,0,0,1.2,1.2H43.187a1.2,1.2,0,0,0,1.2-1.2V24.794A11.886,11.886,0,0,1,37.117,22.335Z" transform="translate(-6 -8)" fill="#fff"/>
      </g>
      <g id="Grupo_99445" data-name="Grupo 99445" transform="translate(26.39 52.781)">
        <path id="Trazado_145581" data-name="Trazado 145581" d="M33.6,50.8v4.8l-8.469-3.179a1.727,1.727,0,0,1,0-3.239L33.6,46Z" transform="translate(-24 -46)" fill="#aab2bd"/>
      </g>
      <g id="Grupo_99446" data-name="Grupo 99446" transform="translate(62.377 52.781)">
        <path id="Trazado_145582" data-name="Trazado 145582" d="M62.193,47.4A4.8,4.8,0,0,1,58.8,55.6H54V46h4.8A4.828,4.828,0,0,1,62.193,47.4Z" transform="translate(-54 -46)" fill="#aab2bd"/>
      </g>
      <g id="Grupo_99447" data-name="Grupo 99447" transform="translate(35.987 57.579)">
        <path id="Trazado_145583" data-name="Trazado 145583" d="M58.39,50v4.8H32V50Z" transform="translate(-32 -50)" fill="#fff"/>
      </g>
      <g id="Grupo_99448" data-name="Grupo 99448" transform="translate(35.987 52.781)">
        <path id="Trazado_145584" data-name="Trazado 145584" d="M58.39,46v4.8H32V46H58.39Z" transform="translate(-32 -46)" fill="#b4dd7f"/>
      </g>
      <g id="Grupo_99449" data-name="Grupo 99449" transform="translate(9.597 22.792)">
        <path id="Trazado_145585" data-name="Trazado 145585" d="M33.128,23.939A14.421,14.421,0,1,0,38.79,35.395,14.341,14.341,0,0,0,33.128,23.939Z" transform="translate(-10 -21)" fill="#e6e9ed"/>
      </g>
      <g id="Grupo_99450" data-name="Grupo 99450" transform="translate(26.39 32.388)">
        <path id="Trazado_145586" data-name="Trazado 145586" d="M24,29h4.8V41H24Z" transform="translate(-24 -29)" fill="#fcd770"/>
      </g>
      <g id="Grupo_99451" data-name="Grupo 99451" transform="translate(21.592 29.989)">
        <path id="Trazado_145587" data-name="Trazado 145587" d="M24.8,29.4v12H20V27h4.8Z" transform="translate(-20 -27)" fill="#fcd770"/>
      </g>
      <g id="Grupo_99452" data-name="Grupo 99452" transform="translate(16.794 37.187)">
        <path id="Trazado_145588" data-name="Trazado 145588" d="M16,33h4.8v7.2H16Z" transform="translate(-16 -33)" fill="#fcd770"/>
      </g>
      <g id="Grupo_99453" data-name="Grupo 99453" transform="translate(14.395)">
        <path id="Trazado_145589" data-name="Trazado 145589" d="M33.193,4.4V6.8a11.911,11.911,0,0,0-2.159,4.786,1.608,1.608,0,0,1-.24.012H16.4A2.406,2.406,0,0,1,14,9.2V4.4A2.406,2.406,0,0,1,16.4,2H30.794A2.406,2.406,0,0,1,33.193,4.4Z" transform="translate(-14 -2)" fill="#5cd8a0"/>
      </g>
      <g id="Grupo_99454" data-name="Grupo 99454" transform="translate(61.178 11.996)">
        <path id="Trazado_145590" data-name="Trazado 145590" d="M60.2,12l2.4,4.8H55.4L53,12h7.2Z" transform="translate(-53 -12)" fill="#cf9e76"/>
      </g>
      <g id="Grupo_99455" data-name="Grupo 99455" transform="translate(61.178 7.197)">
        <path id="Trazado_145591" data-name="Trazado 145591" d="M62.6,8l-2.4,4.8H53L55.4,8Z" transform="translate(-53 -8)" fill="#cf9e76"/>
      </g>
      <g id="Grupo_99456" data-name="Grupo 99456" transform="translate(31.189 0)">
        <path id="Trazado_145592" data-name="Trazado 145592" d="M51.991,14a11.935,11.935,0,0,1-7.2,10.988A12,12,0,0,1,28,14a12.266,12.266,0,0,1,.24-2.411A12,12,0,0,1,51.991,14Z" transform="translate(-28 -2)" fill="#e6e9ed"/>
      </g>
      <g id="Grupo_99457" data-name="Grupo 99457" transform="translate(38.386 7.197)">
        <ellipse id="Elipse_4706" data-name="Elipse 4706" cx="4.5" cy="5" rx="4.5" ry="5" transform="translate(0.414 -0.024)" fill="#ea7596"/>
      </g>
      <g id="Grupo_99458" data-name="Grupo 99458" transform="translate(52.781 26.39)">
        <path id="Trazado_145593" data-name="Trazado 145593" d="M55.6,24a9.585,9.585,0,1,1-6,2.1A9.594,9.594,0,0,1,55.6,24Z" transform="translate(-46 -24)" fill="#e6e9ed"/>
      </g>
      <g id="Grupo_99459" data-name="Grupo 99459" transform="translate(57.579 31.189)">
        <path id="Trazado_145594" data-name="Trazado 145594" d="M58.529,31.059a1.951,1.951,0,0,1,0,3.479l-5.722,2.855A1.941,1.941,0,0,1,50,35.653v-5.71A1.941,1.941,0,0,1,52.807,28.2Z" transform="translate(-50 -28)" fill="#ea7596"/>
      </g>
    </g>
    <g id="Grupo_99461" data-name="Grupo 99461" transform="translate(1 1)">
      <path id="Trazado_145595" data-name="Trazado 145595" d="M69.375,53.781H51.382V25.934A13.155,13.155,0,0,0,52.65,25.2l4.291,5.363a10.951,10.951,0,1,0,1.88-1.492l-4.3-5.375a13.154,13.154,0,0,0,4-8.3h4.117l2.4,4.8h9.88l-3-6,3-6h-9.88l-2.4,4.8H58.519A13.179,13.179,0,0,0,36.934,4.073,3.594,3.594,0,0,0,33.388,1H18.993a3.594,3.594,0,0,0-3.378,2.4H7a6,6,0,0,0-6,6V69.375a6,6,0,0,0,6,6H45.384a6,6,0,0,0,6-6v-3.6H69.375a6,6,0,1,0,0-12Zm3.6-15.594a8.4,8.4,0,1,1-8.4-8.4A8.408,8.408,0,0,1,72.974,38.187ZM66.518,17.794l-1.2-2.4h4.515l1.2,2.4Zm0-7.2h4.515l-1.2,2.4H65.318Zm-50.9,0A3.594,3.594,0,0,0,18.993,13H32.25c-.036.4-.061.794-.061,1.2A13.149,13.149,0,0,0,36.48,23.9L34.65,26.3a15.735,15.735,0,1,0,1.9,1.46l1.832-2.4a13.084,13.084,0,0,0,5.8,1.968V53.781H37.968l-8.676,3.254a2.931,2.931,0,0,0,0,5.488l8.676,3.253h6.216v2.4H8.2V10.6ZM32.189,45.384h-2.4v-9.6h2.4Zm-4.8,0h-2.4v-12h2.4Zm-4.8,0h-2.4v-4.8h2.4Zm13.77,2.4a13.179,13.179,0,0,1-20.342,0Zm1.568-2.4H34.588v-12h-4.8v-2.4h-7.2v7.2h-4.8v7.2H14.452a13.2,13.2,0,1,1,23.478,0ZM30.135,60.278a.532.532,0,0,1,0-1l6.852-2.569v6.135Zm9.251,3.1v-2.4H63.377v2.4Zm23.991-4.8H39.386v-2.4H63.377Zm-14.395-4.8h-2.4V27.329a12.981,12.981,0,0,0,2.4-.451ZM45.384,3.4A10.808,10.808,0,0,1,56.109,13H51.261a6,6,0,1,0,0,2.4h4.849a10.794,10.794,0,1,1-10.725-12Zm3.378,12a3.6,3.6,0,1,1,0-2.4H44.184v2.4ZM17.794,4.6a1.2,1.2,0,0,1,1.2-1.2H33.388a1.2,1.2,0,0,1,1.2,1.2V6.632A13.12,13.12,0,0,0,32.7,10.591L18.993,10.6a1.2,1.2,0,0,1-1.2-1.2ZM48.983,69.375a3.6,3.6,0,0,1-3.6,3.6H7a3.6,3.6,0,0,1-3.6-3.6V9.4A3.6,3.6,0,0,1,7,5.8h8.4V8.2H8.2a2.4,2.4,0,0,0-2.4,2.4V68.176a2.4,2.4,0,0,0,2.4,2.4H44.184a2.4,2.4,0,0,0,2.4-2.4v-2.4h2.4Zm20.393-6h-3.6v-7.2h3.6a3.6,3.6,0,1,1,0,7.2Z" transform="translate(-1 -1)" fill="#0a5936"/>
      <path id="Trazado_145596" data-name="Trazado 145596" d="M49,35.855a3.141,3.141,0,0,0,4.545,2.809l5.716-2.857a3.142,3.142,0,0,0,0-5.619l-5.715-2.857A3.141,3.141,0,0,0,49,30.14Zm2.4-5.715a.742.742,0,0,1,.741-.741.734.734,0,0,1,.331.078l5.715,2.857a.741.741,0,0,1,0,1.327l-5.715,2.857a.762.762,0,0,1-1.072-.663Z" transform="translate(8.579 4.189)" fill="#0a5936"/>
      <path id="Trazado_145597" data-name="Trazado 145597" d="M9,49H23.395v2.4H9Z" transform="translate(0.597 8.579)" fill="#0a5936"/>
      <path id="Trazado_145598" data-name="Trazado 145598" d="M9,53H23.395v2.4H9Z" transform="translate(0.597 9.377)" fill="#0a5936"/>
      <path id="Trazado_145599" data-name="Trazado 145599" d="M9,13h2.4v2.4H9Z" transform="translate(0.597 1.395)" fill="#0a5936"/>
      <path id="Trazado_145600" data-name="Trazado 145600" d="M13,13H27.395v2.4H13Z" transform="translate(1.395 1.395)" fill="#0a5936"/>
      <path id="Trazado_145601" data-name="Trazado 145601" d="M9,17h2.4v2.4H9Z" transform="translate(0.597 2.193)" fill="#0a5936"/>
      <path id="Trazado_145602" data-name="Trazado 145602" d="M13,17H27.395v2.4H13Z" transform="translate(1.395 2.193)" fill="#0a5936"/>
    </g>
  </g>
</svg>
