<svg xmlns="http://www.w3.org/2000/svg" width="770" height="676" viewBox="0 0 770 676">
  <g id="Grupo_99295" data-name="Grupo 99295" transform="translate(-400 -4923)">
    <g id="Trazado_145053" data-name="Trazado 145053" transform="translate(625 4923)" fill="#ffea99">
      <path d="M 340 63 L 10 63 C 5.037363529205322 63 1 58.9626350402832 1 54 L 1 10 C 1 5.037363529205322 5.037363529205322 1 10 1 L 340 1 C 344.962646484375 1 349 5.037363529205322 349 10 L 349 54 C 349 58.9626350402832 344.962646484375 63 340 63 Z" stroke="none"/>
      <path d="M 10 2 C 5.588775634765625 2 2 5.588771820068359 2 10 L 2 54 C 2 58.41122817993164 5.588775634765625 62 10 62 L 340 62 C 344.4112243652344 62 348 58.41122817993164 348 54 L 348 10 C 348 5.588771820068359 344.4112243652344 2 340 2 L 10 2 M 10 0 L 340 0 C 345.5228576660156 0 350 4.477134704589844 350 10 L 350 54 C 350 59.52286529541016 345.5228576660156 64 340 64 L 10 64 C 4.477142333984375 64 0 59.52286529541016 0 54 L 0 10 C 0 4.477134704589844 4.477142333984375 0 10 0 Z" stroke="none" fill="#f1d54e"/>
    </g>
    <path id="Trazado_145055" data-name="Trazado 145055" d="M-98.621-4.008V0h-2.344V-11.375h4.438a5.134,5.134,0,0,1,2.254.469,3.454,3.454,0,0,1,1.5,1.332,3.714,3.714,0,0,1,.523,1.965A3.266,3.266,0,0,1-93.4-4.973a4.767,4.767,0,0,1-3.168.965Zm0-1.9h2.094a2.059,2.059,0,0,0,1.418-.437,1.591,1.591,0,0,0,.488-1.25,1.876,1.876,0,0,0-.492-1.352,1.839,1.839,0,0,0-1.359-.531h-2.148Zm12.578-.43a6.134,6.134,0,0,0-.812-.062,1.654,1.654,0,0,0-1.68.867V0h-2.258V-8.453h2.133l.063,1.008a2.092,2.092,0,0,1,1.883-1.164,2.366,2.366,0,0,1,.7.1ZM-85.59-4.3a5.013,5.013,0,0,1,.484-2.242A3.546,3.546,0,0,1-83.711-8.07,4.069,4.069,0,0,1-81.6-8.609,3.849,3.849,0,0,1-78.8-7.562,4.2,4.2,0,0,1-77.6-4.719l.016.578A4.418,4.418,0,0,1-78.668-1.02,3.775,3.775,0,0,1-81.582.156,3.793,3.793,0,0,1-84.5-1.016,4.5,4.5,0,0,1-85.59-4.2Zm2.258.164a3.151,3.151,0,0,0,.453,1.84,1.5,1.5,0,0,0,1.3.637A1.5,1.5,0,0,0-80.3-2.293,3.448,3.448,0,0,0-79.84-4.3,3.12,3.12,0,0,0-80.3-6.133a1.5,1.5,0,0,0-1.3-.648,1.475,1.475,0,0,0-1.281.645A3.506,3.506,0,0,0-83.332-4.141Zm10.656,2.477a1.481,1.481,0,0,0,1.016-.344,1.2,1.2,0,0,0,.406-.914h2.117a2.9,2.9,0,0,1-.469,1.574A3.093,3.093,0,0,1-70.867-.238a3.949,3.949,0,0,1-1.77.395A3.67,3.67,0,0,1-75.5-1,4.56,4.56,0,0,1-76.543-4.18v-.148A4.508,4.508,0,0,1-75.5-7.445a3.627,3.627,0,0,1,2.852-1.164,3.555,3.555,0,0,1,2.543.9,3.2,3.2,0,0,1,.973,2.4h-2.117a1.539,1.539,0,0,0-.406-1.066,1.358,1.358,0,0,0-1.031-.41,1.361,1.361,0,0,0-1.191.574,3.324,3.324,0,0,0-.4,1.863v.234a3.366,3.366,0,0,0,.4,1.875A1.378,1.378,0,0,0-72.676-1.664Zm8.719,1.82A4.15,4.15,0,0,1-66.984-.984a4.054,4.054,0,0,1-1.168-3.039v-.219A5.106,5.106,0,0,1-67.66-6.52a3.612,3.612,0,0,1,1.395-1.547,3.914,3.914,0,0,1,2.059-.543,3.508,3.508,0,0,1,2.73,1.094,4.444,4.444,0,0,1,1,3.1v.922h-5.383a2.1,2.1,0,0,0,.66,1.328,2,2,0,0,0,1.395.5,2.437,2.437,0,0,0,2.039-.945l1.109,1.242A3.389,3.389,0,0,1-62.035-.246,4.511,4.511,0,0,1-63.957.156Zm-.258-6.937a1.414,1.414,0,0,0-1.09.453,2.341,2.341,0,0,0-.535,1.3H-62.7v-.18a1.669,1.669,0,0,0-.406-1.16A1.459,1.459,0,0,0-64.215-6.781Zm9.594,4.445a.727.727,0,0,0-.41-.652,4.659,4.659,0,0,0-1.316-.426q-3.016-.633-3.016-2.562a2.323,2.323,0,0,1,.934-1.879,3.766,3.766,0,0,1,2.441-.754,4.053,4.053,0,0,1,2.574.758,2.388,2.388,0,0,1,.965,1.969h-2.258a1.092,1.092,0,0,0-.312-.8A1.322,1.322,0,0,0-56-7a1.351,1.351,0,0,0-.883.258.814.814,0,0,0-.312.656.7.7,0,0,0,.355.605,3.657,3.657,0,0,0,1.2.4,9.8,9.8,0,0,1,1.422.379A2.336,2.336,0,0,1-52.426-2.43a2.2,2.2,0,0,1-.992,1.871A4.28,4.28,0,0,1-55.98.156a4.47,4.47,0,0,1-1.887-.379A3.166,3.166,0,0,1-59.16-1.262a2.414,2.414,0,0,1-.469-1.426h2.141a1.179,1.179,0,0,0,.445.922,1.766,1.766,0,0,0,1.109.32,1.635,1.635,0,0,0,.98-.246A.766.766,0,0,0-54.621-2.336Zm3.3-1.969a5.013,5.013,0,0,1,.484-2.242A3.546,3.546,0,0,1-49.445-8.07a4.069,4.069,0,0,1,2.113-.539,3.849,3.849,0,0,1,2.793,1.047,4.2,4.2,0,0,1,1.207,2.844l.016.578A4.418,4.418,0,0,1-44.4-1.02,3.775,3.775,0,0,1-47.316.156a3.793,3.793,0,0,1-2.918-1.172A4.5,4.5,0,0,1-51.324-4.2Zm2.258.164a3.151,3.151,0,0,0,.453,1.84,1.5,1.5,0,0,0,1.3.637,1.5,1.5,0,0,0,1.281-.629A3.448,3.448,0,0,0-45.574-4.3a3.12,3.12,0,0,0-.461-1.828,1.5,1.5,0,0,0-1.3-.648,1.475,1.475,0,0,0-1.281.645A3.506,3.506,0,0,0-49.066-4.141Zm10.773-.148a5.094,5.094,0,0,1,.887-3.148A2.877,2.877,0,0,1-34.98-8.609a2.589,2.589,0,0,1,2.039.922V-12h2.266V0h-2.039l-.109-.9A2.657,2.657,0,0,1-35,.156,2.869,2.869,0,0,1-37.391-1.02,5.258,5.258,0,0,1-38.293-4.289Zm2.258.164a3.328,3.328,0,0,0,.414,1.82,1.349,1.349,0,0,0,1.2.633,1.511,1.511,0,0,0,1.477-.883V-5.891A1.489,1.489,0,0,0-34.4-6.773Q-36.035-6.773-36.035-4.125Zm11,4.281A4.15,4.15,0,0,1-28.062-.984,4.054,4.054,0,0,1-29.23-4.023v-.219a5.106,5.106,0,0,1,.492-2.277,3.612,3.612,0,0,1,1.395-1.547,3.914,3.914,0,0,1,2.059-.543,3.508,3.508,0,0,1,2.73,1.094,4.444,4.444,0,0,1,1,3.1v.922h-5.383a2.1,2.1,0,0,0,.66,1.328,2,2,0,0,0,1.395.5,2.437,2.437,0,0,0,2.039-.945l1.109,1.242A3.389,3.389,0,0,1-23.113-.246,4.511,4.511,0,0,1-25.035.156Zm-.258-6.937a1.414,1.414,0,0,0-1.09.453,2.341,2.341,0,0,0-.535,1.3h3.141v-.18a1.669,1.669,0,0,0-.406-1.16A1.459,1.459,0,0,0-25.293-6.781Zm8.531,5.117a1.481,1.481,0,0,0,1.016-.344,1.2,1.2,0,0,0,.406-.914h2.117a2.9,2.9,0,0,1-.469,1.574A3.093,3.093,0,0,1-14.953-.238a3.949,3.949,0,0,1-1.77.395A3.67,3.67,0,0,1-19.582-1,4.56,4.56,0,0,1-20.629-4.18v-.148A4.508,4.508,0,0,1-19.59-7.445a3.627,3.627,0,0,1,2.852-1.164,3.555,3.555,0,0,1,2.543.9,3.2,3.2,0,0,1,.973,2.4H-15.34a1.539,1.539,0,0,0-.406-1.066,1.358,1.358,0,0,0-1.031-.41,1.361,1.361,0,0,0-1.191.574,3.324,3.324,0,0,0-.4,1.863v.234a3.366,3.366,0,0,0,.4,1.875A1.378,1.378,0,0,0-16.762-1.664ZM-9.551,0h-2.266V-8.453h2.266Zm-2.4-10.641a1.112,1.112,0,0,1,.34-.836,1.277,1.277,0,0,1,.926-.328,1.28,1.28,0,0,1,.922.328,1.105,1.105,0,0,1,.344.836,1.108,1.108,0,0,1-.348.844,1.283,1.283,0,0,1-.918.328A1.283,1.283,0,0,1-11.6-9.8,1.108,1.108,0,0,1-11.949-10.641Zm8.836,8.3a.727.727,0,0,0-.41-.652A4.659,4.659,0,0,0-4.84-3.414q-3.016-.633-3.016-2.562a2.323,2.323,0,0,1,.934-1.879A3.766,3.766,0,0,1-4.48-8.609a4.053,4.053,0,0,1,2.574.758A2.388,2.388,0,0,1-.941-5.883H-3.2a1.092,1.092,0,0,0-.312-.8A1.322,1.322,0,0,0-4.488-7a1.351,1.351,0,0,0-.883.258.814.814,0,0,0-.312.656.7.7,0,0,0,.355.605,3.657,3.657,0,0,0,1.2.4A9.8,9.8,0,0,1-2.707-4.7,2.336,2.336,0,0,1-.918-2.43,2.2,2.2,0,0,1-1.91-.559,4.28,4.28,0,0,1-4.473.156,4.47,4.47,0,0,1-6.359-.223,3.166,3.166,0,0,1-7.652-1.262a2.414,2.414,0,0,1-.469-1.426H-5.98a1.179,1.179,0,0,0,.445.922,1.766,1.766,0,0,0,1.109.32,1.635,1.635,0,0,0,.98-.246A.766.766,0,0,0-3.113-2.336ZM2.918,0H.652V-8.453H2.918ZM.52-10.641a1.112,1.112,0,0,1,.34-.836,1.277,1.277,0,0,1,.926-.328,1.28,1.28,0,0,1,.922.328,1.105,1.105,0,0,1,.344.836A1.108,1.108,0,0,1,2.7-9.8a1.283,1.283,0,0,1-.918.328A1.283,1.283,0,0,1,.867-9.8,1.108,1.108,0,0,1,.52-10.641ZM4.426-4.3A5.013,5.013,0,0,1,4.91-6.547,3.546,3.546,0,0,1,6.3-8.07a4.069,4.069,0,0,1,2.113-.539,3.849,3.849,0,0,1,2.793,1.047,4.2,4.2,0,0,1,1.207,2.844l.016.578A4.418,4.418,0,0,1,11.348-1.02,3.775,3.775,0,0,1,8.434.156,3.793,3.793,0,0,1,5.516-1.016,4.5,4.5,0,0,1,4.426-4.2Zm2.258.164A3.151,3.151,0,0,0,7.137-2.3a1.5,1.5,0,0,0,1.3.637,1.5,1.5,0,0,0,1.281-.629A3.448,3.448,0,0,0,10.176-4.3a3.12,3.12,0,0,0-.461-1.828,1.5,1.5,0,0,0-1.3-.648,1.475,1.475,0,0,0-1.281.645A3.506,3.506,0,0,0,6.684-4.141ZM8.863-12h2.461L9.16-9.578H7.324ZM15.9-8.453l.07.977A2.951,2.951,0,0,1,18.4-8.609a2.453,2.453,0,0,1,2,.789,3.682,3.682,0,0,1,.672,2.359V0H18.816V-5.406A1.465,1.465,0,0,0,18.5-6.449a1.4,1.4,0,0,0-1.039-.324,1.553,1.553,0,0,0-1.43.813V0H13.777V-8.453ZM26.418-4.289A5.094,5.094,0,0,1,27.3-7.437,2.877,2.877,0,0,1,29.73-8.609a2.589,2.589,0,0,1,2.039.922V-12h2.266V0H32l-.109-.9A2.657,2.657,0,0,1,29.715.156,2.869,2.869,0,0,1,27.32-1.02,5.258,5.258,0,0,1,26.418-4.289Zm2.258.164A3.328,3.328,0,0,0,29.09-2.3a1.349,1.349,0,0,0,1.2.633,1.511,1.511,0,0,0,1.477-.883V-5.891a1.489,1.489,0,0,0-1.461-.883Q28.676-6.773,28.676-4.125Zm11,4.281A4.15,4.15,0,0,1,36.648-.984,4.054,4.054,0,0,1,35.48-4.023v-.219a5.106,5.106,0,0,1,.492-2.277,3.612,3.612,0,0,1,1.395-1.547,3.914,3.914,0,0,1,2.059-.543,3.508,3.508,0,0,1,2.73,1.094,4.444,4.444,0,0,1,1,3.1v.922H37.77a2.1,2.1,0,0,0,.66,1.328,2,2,0,0,0,1.395.5,2.437,2.437,0,0,0,2.039-.945l1.109,1.242A3.389,3.389,0,0,1,41.6-.246,4.511,4.511,0,0,1,39.676.156Zm-.258-6.937a1.414,1.414,0,0,0-1.09.453,2.341,2.341,0,0,0-.535,1.3h3.141v-.18a1.669,1.669,0,0,0-.406-1.16A1.459,1.459,0,0,0,39.418-6.781ZM51.934-1.664a1.481,1.481,0,0,0,1.016-.344,1.2,1.2,0,0,0,.406-.914h2.117A2.9,2.9,0,0,1,55-1.348,3.093,3.093,0,0,1,53.742-.238a3.949,3.949,0,0,1-1.77.395A3.67,3.67,0,0,1,49.113-1,4.56,4.56,0,0,1,48.066-4.18v-.148a4.508,4.508,0,0,1,1.039-3.117,3.627,3.627,0,0,1,2.852-1.164,3.555,3.555,0,0,1,2.543.9,3.2,3.2,0,0,1,.973,2.4H53.355a1.539,1.539,0,0,0-.406-1.066,1.358,1.358,0,0,0-1.031-.41,1.361,1.361,0,0,0-1.191.574,3.324,3.324,0,0,0-.4,1.863v.234a3.366,3.366,0,0,0,.4,1.875A1.378,1.378,0,0,0,51.934-1.664ZM56.41-4.3a5.013,5.013,0,0,1,.484-2.242A3.546,3.546,0,0,1,58.289-8.07,4.069,4.069,0,0,1,60.4-8.609,3.849,3.849,0,0,1,63.2-7.562,4.2,4.2,0,0,1,64.4-4.719l.016.578A4.418,4.418,0,0,1,63.332-1.02,3.775,3.775,0,0,1,60.418.156,3.793,3.793,0,0,1,57.5-1.016,4.5,4.5,0,0,1,56.41-4.2Zm2.258.164a3.151,3.151,0,0,0,.453,1.84,1.5,1.5,0,0,0,1.3.637A1.5,1.5,0,0,0,61.7-2.293,3.448,3.448,0,0,0,62.16-4.3,3.12,3.12,0,0,0,61.7-6.133a1.5,1.5,0,0,0-1.3-.648,1.475,1.475,0,0,0-1.281.645A3.506,3.506,0,0,0,58.668-4.141Zm9.258-4.312.07.945a2.971,2.971,0,0,1,2.43-1.1A2.255,2.255,0,0,1,72.668-7.32a2.9,2.9,0,0,1,2.539-1.289,2.521,2.521,0,0,1,2.047.8,3.681,3.681,0,0,1,.672,2.41V0H75.66V-5.391a1.61,1.61,0,0,0-.281-1.051,1.246,1.246,0,0,0-.992-.332A1.409,1.409,0,0,0,72.98-5.8L72.988,0H70.73V-5.383a1.59,1.59,0,0,0-.289-1.062,1.259,1.259,0,0,0-.984-.328,1.463,1.463,0,0,0-1.391.8V0H65.809V-8.453Zm19.344,4.3a5.07,5.07,0,0,1-.887,3.129A2.843,2.843,0,0,1,83.988.156a2.633,2.633,0,0,1-2.07-.891V3.25H79.66v-11.7h2.094l.078.828a2.654,2.654,0,0,1,2.141-.984A2.862,2.862,0,0,1,86.4-7.453a5.207,5.207,0,0,1,.867,3.188Zm-2.258-.164a3.327,3.327,0,0,0-.418-1.82,1.361,1.361,0,0,0-1.215-.641,1.478,1.478,0,0,0-1.461.813V-2.5a1.5,1.5,0,0,0,1.477.836Q85.012-1.664,85.012-4.312Zm8.406-2.023a6.134,6.134,0,0,0-.812-.062,1.654,1.654,0,0,0-1.68.867V0H88.668V-8.453H90.8l.063,1.008a2.092,2.092,0,0,1,1.883-1.164,2.366,2.366,0,0,1,.7.1ZM99.168,0a2.507,2.507,0,0,1-.227-.758,2.732,2.732,0,0,1-2.133.914A3,3,0,0,1,94.75-.562a2.312,2.312,0,0,1-.816-1.812,2.389,2.389,0,0,1,1-2.062,4.915,4.915,0,0,1,2.879-.727h1.039v-.484a1.393,1.393,0,0,0-.3-.937,1.183,1.183,0,0,0-.949-.352,1.345,1.345,0,0,0-.895.273.929.929,0,0,0-.324.75H94.121a2.268,2.268,0,0,1,.453-1.359,3,3,0,0,1,1.281-.98,4.669,4.669,0,0,1,1.859-.355,3.689,3.689,0,0,1,2.48.785,2.747,2.747,0,0,1,.918,2.207v3.664a4.041,4.041,0,0,0,.336,1.82V0ZM97.3-1.57a1.945,1.945,0,0,0,.922-.223,1.462,1.462,0,0,0,.625-.6V-3.844H98q-1.7,0-1.8,1.172l-.008.133a.9.9,0,0,0,.3.7A1.153,1.153,0,0,0,97.3-1.57Z" transform="translate(800 4960)" fill="#12263f"/>
    <g id="Trazado_145054" data-name="Trazado 145054" transform="translate(455 5056)" fill="#fff5d0">
      <path d="M 340 63 L 10 63 C 5.037363529205322 63 1 58.9626350402832 1 54 L 1 10 C 1 5.037363529205322 5.037363529205322 1 10 1 L 340 1 C 344.962646484375 1 349 5.037363529205322 349 10 L 349 54 C 349 58.9626350402832 344.962646484375 63 340 63 Z" stroke="none"/>
      <path d="M 10 2 C 5.588775634765625 2 2 5.588771820068359 2 10 L 2 54 C 2 58.41122817993164 5.588775634765625 62 10 62 L 340 62 C 344.4112243652344 62 348 58.41122817993164 348 54 L 348 10 C 348 5.588771820068359 344.4112243652344 2 340 2 L 10 2 M 10 0 L 340 0 C 345.5228576660156 0 350 4.477134704589844 350 10 L 350 54 C 350 59.52286529541016 345.5228576660156 64 340 64 L 10 64 C 4.477142333984375 64 0 59.52286529541016 0 54 L 0 10 C 0 4.477134704589844 4.477142333984375 0 10 0 Z" stroke="none" fill="#f1d54e"/>
    </g>
    <path id="Trazado_145056" data-name="Trazado 145056" d="M-95.273-4.008V0h-2.344V-11.375h4.438a5.134,5.134,0,0,1,2.254.469,3.454,3.454,0,0,1,1.5,1.332,3.714,3.714,0,0,1,.523,1.965,3.266,3.266,0,0,1-1.145,2.637,4.767,4.767,0,0,1-3.168.965Zm0-1.9h2.094a2.059,2.059,0,0,0,1.418-.437,1.591,1.591,0,0,0,.488-1.25,1.876,1.876,0,0,0-.492-1.352,1.839,1.839,0,0,0-1.359-.531h-2.148ZM-83.656.156A4.15,4.15,0,0,1-86.684-.984a4.054,4.054,0,0,1-1.168-3.039v-.219a5.106,5.106,0,0,1,.492-2.277,3.612,3.612,0,0,1,1.395-1.547,3.914,3.914,0,0,1,2.059-.543,3.508,3.508,0,0,1,2.73,1.094,4.444,4.444,0,0,1,1,3.1v.922h-5.383a2.1,2.1,0,0,0,.66,1.328,2,2,0,0,0,1.395.5,2.437,2.437,0,0,0,2.039-.945l1.109,1.242A3.389,3.389,0,0,1-81.734-.246,4.511,4.511,0,0,1-83.656.156Zm-.258-6.937A1.414,1.414,0,0,0-85-6.328a2.341,2.341,0,0,0-.535,1.3H-82.4v-.18a1.669,1.669,0,0,0-.406-1.16A1.459,1.459,0,0,0-83.914-6.781Zm9.766.445a6.134,6.134,0,0,0-.812-.062,1.654,1.654,0,0,0-1.68.867V0H-78.9V-8.453h2.133l.063,1.008A2.092,2.092,0,0,1-74.82-8.609a2.366,2.366,0,0,1,.7.1ZM-69.7-1.664a1.481,1.481,0,0,0,1.016-.344,1.2,1.2,0,0,0,.406-.914h2.117a2.9,2.9,0,0,1-.469,1.574A3.093,3.093,0,0,1-67.887-.238a3.949,3.949,0,0,1-1.77.395A3.67,3.67,0,0,1-72.516-1,4.56,4.56,0,0,1-73.562-4.18v-.148a4.508,4.508,0,0,1,1.039-3.117,3.627,3.627,0,0,1,2.852-1.164,3.555,3.555,0,0,1,2.543.9,3.2,3.2,0,0,1,.973,2.4h-2.117a1.539,1.539,0,0,0-.406-1.066,1.358,1.358,0,0,0-1.031-.41,1.361,1.361,0,0,0-1.191.574,3.324,3.324,0,0,0-.4,1.863v.234a3.366,3.366,0,0,0,.4,1.875A1.378,1.378,0,0,0-69.7-1.664Zm8.719,1.82A4.15,4.15,0,0,1-64-.984a4.054,4.054,0,0,1-1.168-3.039v-.219A5.106,5.106,0,0,1-64.68-6.52a3.612,3.612,0,0,1,1.395-1.547,3.914,3.914,0,0,1,2.059-.543A3.508,3.508,0,0,1-58.5-7.516a4.444,4.444,0,0,1,1,3.1v.922h-5.383a2.1,2.1,0,0,0,.66,1.328,2,2,0,0,0,1.395.5,2.437,2.437,0,0,0,2.039-.945l1.109,1.242A3.389,3.389,0,0,1-59.055-.246,4.511,4.511,0,0,1-60.977.156Zm-.258-6.937a1.414,1.414,0,0,0-1.09.453,2.341,2.341,0,0,0-.535,1.3h3.141v-.18a1.669,1.669,0,0,0-.406-1.16A1.459,1.459,0,0,0-61.234-6.781Zm12.625,2.633A5.07,5.07,0,0,1-49.5-1.02,2.843,2.843,0,0,1-51.891.156a2.633,2.633,0,0,1-2.07-.891V3.25h-2.258v-11.7h2.094l.078.828a2.654,2.654,0,0,1,2.141-.984,2.862,2.862,0,0,1,2.43,1.156,5.207,5.207,0,0,1,.867,3.188Zm-2.258-.164a3.327,3.327,0,0,0-.418-1.82A1.361,1.361,0,0,0-52.5-6.773a1.478,1.478,0,0,0-1.461.813V-2.5a1.5,1.5,0,0,0,1.477.836Q-50.867-1.664-50.867-4.312ZM-43.7-1.664a1.481,1.481,0,0,0,1.016-.344,1.2,1.2,0,0,0,.406-.914h2.117a2.9,2.9,0,0,1-.469,1.574A3.093,3.093,0,0,1-41.887-.238a3.949,3.949,0,0,1-1.77.395A3.67,3.67,0,0,1-46.516-1,4.56,4.56,0,0,1-47.562-4.18v-.148a4.508,4.508,0,0,1,1.039-3.117,3.627,3.627,0,0,1,2.852-1.164,3.555,3.555,0,0,1,2.543.9,3.2,3.2,0,0,1,.973,2.4h-2.117a1.539,1.539,0,0,0-.406-1.066,1.358,1.358,0,0,0-1.031-.41,1.361,1.361,0,0,0-1.191.574,3.324,3.324,0,0,0-.4,1.863v.234a3.366,3.366,0,0,0,.4,1.875A1.378,1.378,0,0,0-43.7-1.664ZM-36.484,0H-38.75V-8.453h2.266Zm-2.4-10.641a1.112,1.112,0,0,1,.34-.836,1.277,1.277,0,0,1,.926-.328,1.28,1.28,0,0,1,.922.328,1.105,1.105,0,0,1,.344.836A1.108,1.108,0,0,1-36.7-9.8a1.283,1.283,0,0,1-.918.328,1.283,1.283,0,0,1-.918-.328A1.108,1.108,0,0,1-38.883-10.641ZM-34.977-4.3a5.013,5.013,0,0,1,.484-2.242A3.546,3.546,0,0,1-33.1-8.07a4.069,4.069,0,0,1,2.113-.539,3.849,3.849,0,0,1,2.793,1.047,4.2,4.2,0,0,1,1.207,2.844l.016.578A4.418,4.418,0,0,1-28.055-1.02,3.775,3.775,0,0,1-30.969.156a3.793,3.793,0,0,1-2.918-1.172A4.5,4.5,0,0,1-34.977-4.2Zm2.258.164a3.151,3.151,0,0,0,.453,1.84,1.5,1.5,0,0,0,1.3.637,1.5,1.5,0,0,0,1.281-.629A3.448,3.448,0,0,0-29.227-4.3a3.12,3.12,0,0,0-.461-1.828,1.5,1.5,0,0,0-1.3-.648,1.475,1.475,0,0,0-1.281.645A3.506,3.506,0,0,0-32.719-4.141ZM-30.539-12h2.461l-2.164,2.422h-1.836ZM-23.5-8.453l.07.977A2.951,2.951,0,0,1-21-8.609a2.453,2.453,0,0,1,2,.789,3.682,3.682,0,0,1,.672,2.359V0h-2.258V-5.406A1.465,1.465,0,0,0-20.9-6.449a1.4,1.4,0,0,0-1.039-.324,1.553,1.553,0,0,0-1.43.813V0h-2.258V-8.453Zm10.516,4.164A5.094,5.094,0,0,1-12.1-7.437,2.877,2.877,0,0,1-9.672-8.609a2.589,2.589,0,0,1,2.039.922V-12h2.266V0H-7.406l-.109-.9A2.657,2.657,0,0,1-9.687.156,2.869,2.869,0,0,1-12.082-1.02,5.258,5.258,0,0,1-12.984-4.289Zm2.258.164a3.328,3.328,0,0,0,.414,1.82,1.349,1.349,0,0,0,1.2.633,1.511,1.511,0,0,0,1.477-.883V-5.891a1.489,1.489,0,0,0-1.461-.883Q-10.727-6.773-10.727-4.125ZM.273.156A4.15,4.15,0,0,1-2.754-.984,4.054,4.054,0,0,1-3.922-4.023v-.219A5.106,5.106,0,0,1-3.43-6.52,3.612,3.612,0,0,1-2.035-8.066,3.914,3.914,0,0,1,.023-8.609a3.508,3.508,0,0,1,2.73,1.094,4.444,4.444,0,0,1,1,3.1v.922H-1.633a2.1,2.1,0,0,0,.66,1.328,2,2,0,0,0,1.395.5,2.437,2.437,0,0,0,2.039-.945L3.57-1.367A3.389,3.389,0,0,1,2.2-.246,4.511,4.511,0,0,1,.273.156ZM.016-6.781a1.414,1.414,0,0,0-1.09.453,2.341,2.341,0,0,0-.535,1.3H1.531v-.18a1.669,1.669,0,0,0-.406-1.16A1.459,1.459,0,0,0,.016-6.781ZM11.4,0H9.133V-12H11.4Zm6.758,0a2.507,2.507,0,0,1-.227-.758A2.732,2.732,0,0,1,15.8.156a3,3,0,0,1-2.059-.719,2.312,2.312,0,0,1-.816-1.812,2.389,2.389,0,0,1,1-2.062A4.915,4.915,0,0,1,16.8-5.164h1.039v-.484a1.393,1.393,0,0,0-.3-.937,1.183,1.183,0,0,0-.949-.352,1.345,1.345,0,0,0-.895.273.929.929,0,0,0-.324.75H13.109a2.268,2.268,0,0,1,.453-1.359,3,3,0,0,1,1.281-.98A4.669,4.669,0,0,1,16.7-8.609a3.689,3.689,0,0,1,2.48.785A2.747,2.747,0,0,1,20.1-5.617v3.664a4.041,4.041,0,0,0,.336,1.82V0ZM16.289-1.57a1.945,1.945,0,0,0,.922-.223,1.462,1.462,0,0,0,.625-.6V-3.844h-.844q-1.7,0-1.8,1.172l-.008.133a.9.9,0,0,0,.3.7A1.153,1.153,0,0,0,16.289-1.57ZM27.9-8.453l.07.977A2.951,2.951,0,0,1,30.4-8.609a2.453,2.453,0,0,1,2,.789,3.682,3.682,0,0,1,.672,2.359V0H30.813V-5.406A1.465,1.465,0,0,0,30.5-6.449a1.4,1.4,0,0,0-1.039-.324,1.553,1.553,0,0,0-1.43.813V0H25.773V-8.453ZM38.672.156A4.15,4.15,0,0,1,35.645-.984a4.054,4.054,0,0,1-1.168-3.039v-.219a5.106,5.106,0,0,1,.492-2.277,3.612,3.612,0,0,1,1.395-1.547,3.914,3.914,0,0,1,2.059-.543,3.508,3.508,0,0,1,2.73,1.094,4.444,4.444,0,0,1,1,3.1v.922H36.766a2.1,2.1,0,0,0,.66,1.328,2,2,0,0,0,1.395.5,2.437,2.437,0,0,0,2.039-.945l1.109,1.242A3.389,3.389,0,0,1,40.594-.246,4.511,4.511,0,0,1,38.672.156Zm-.258-6.937a1.414,1.414,0,0,0-1.09.453,2.341,2.341,0,0,0-.535,1.3H39.93v-.18a1.669,1.669,0,0,0-.406-1.16A1.459,1.459,0,0,0,38.414-6.781Zm8.531,5.117a1.481,1.481,0,0,0,1.016-.344,1.2,1.2,0,0,0,.406-.914h2.117a2.9,2.9,0,0,1-.469,1.574A3.093,3.093,0,0,1,48.754-.238a3.949,3.949,0,0,1-1.77.395A3.67,3.67,0,0,1,44.125-1,4.56,4.56,0,0,1,43.078-4.18v-.148a4.508,4.508,0,0,1,1.039-3.117,3.627,3.627,0,0,1,2.852-1.164,3.555,3.555,0,0,1,2.543.9,3.2,3.2,0,0,1,.973,2.4H48.367a1.539,1.539,0,0,0-.406-1.066,1.358,1.358,0,0,0-1.031-.41,1.361,1.361,0,0,0-1.191.574,3.324,3.324,0,0,0-.4,1.863v.234a3.366,3.366,0,0,0,.4,1.875A1.378,1.378,0,0,0,46.945-1.664ZM55.664.156A4.15,4.15,0,0,1,52.637-.984a4.054,4.054,0,0,1-1.168-3.039v-.219a5.106,5.106,0,0,1,.492-2.277,3.612,3.612,0,0,1,1.395-1.547,3.914,3.914,0,0,1,2.059-.543,3.508,3.508,0,0,1,2.73,1.094,4.444,4.444,0,0,1,1,3.1v.922H53.758a2.1,2.1,0,0,0,.66,1.328,2,2,0,0,0,1.395.5,2.437,2.437,0,0,0,2.039-.945l1.109,1.242A3.389,3.389,0,0,1,57.586-.246,4.511,4.511,0,0,1,55.664.156Zm-.258-6.937a1.414,1.414,0,0,0-1.09.453,2.341,2.341,0,0,0-.535,1.3h3.141v-.18a1.669,1.669,0,0,0-.406-1.16A1.459,1.459,0,0,0,55.406-6.781ZM65-2.336a.727.727,0,0,0-.41-.652,4.659,4.659,0,0,0-1.316-.426q-3.016-.633-3.016-2.562a2.323,2.323,0,0,1,.934-1.879,3.766,3.766,0,0,1,2.441-.754,4.053,4.053,0,0,1,2.574.758,2.388,2.388,0,0,1,.965,1.969H64.914a1.092,1.092,0,0,0-.312-.8A1.322,1.322,0,0,0,63.625-7a1.351,1.351,0,0,0-.883.258.814.814,0,0,0-.312.656.7.7,0,0,0,.355.605,3.657,3.657,0,0,0,1.2.4,9.8,9.8,0,0,1,1.422.379A2.336,2.336,0,0,1,67.2-2.43,2.2,2.2,0,0,1,66.2-.559a4.28,4.28,0,0,1-2.562.715,4.47,4.47,0,0,1-1.887-.379,3.166,3.166,0,0,1-1.293-1.039,2.414,2.414,0,0,1-.469-1.426h2.141a1.179,1.179,0,0,0,.445.922,1.766,1.766,0,0,0,1.109.32,1.635,1.635,0,0,0,.98-.246A.766.766,0,0,0,65-2.336ZM71.031,0H68.766V-8.453h2.266Zm-2.4-10.641a1.112,1.112,0,0,1,.34-.836A1.277,1.277,0,0,1,69.9-11.8a1.28,1.28,0,0,1,.922.328,1.105,1.105,0,0,1,.344.836,1.108,1.108,0,0,1-.348.844,1.283,1.283,0,0,1-.918.328A1.283,1.283,0,0,1,68.98-9.8,1.108,1.108,0,0,1,68.633-10.641Zm3.906,6.352a5.094,5.094,0,0,1,.887-3.148,2.877,2.877,0,0,1,2.426-1.172,2.589,2.589,0,0,1,2.039.922V-12h2.266V0H78.117l-.109-.9A2.657,2.657,0,0,1,75.836.156,2.869,2.869,0,0,1,73.441-1.02,5.258,5.258,0,0,1,72.539-4.289Zm2.258.164a3.328,3.328,0,0,0,.414,1.82,1.349,1.349,0,0,0,1.2.633,1.511,1.511,0,0,0,1.477-.883V-5.891a1.489,1.489,0,0,0-1.461-.883Q74.8-6.773,74.8-4.125ZM86.8,0a2.507,2.507,0,0,1-.227-.758,2.732,2.732,0,0,1-2.133.914,3,3,0,0,1-2.059-.719,2.312,2.312,0,0,1-.816-1.812,2.389,2.389,0,0,1,1-2.062,4.915,4.915,0,0,1,2.879-.727h1.039v-.484a1.393,1.393,0,0,0-.3-.937,1.183,1.183,0,0,0-.949-.352,1.345,1.345,0,0,0-.895.273.929.929,0,0,0-.324.75H81.758a2.268,2.268,0,0,1,.453-1.359,3,3,0,0,1,1.281-.98,4.669,4.669,0,0,1,1.859-.355,3.689,3.689,0,0,1,2.48.785,2.747,2.747,0,0,1,.918,2.207v3.664a4.041,4.041,0,0,0,.336,1.82V0ZM84.938-1.57a1.945,1.945,0,0,0,.922-.223,1.462,1.462,0,0,0,.625-.6V-3.844h-.844q-1.7,0-1.8,1.172l-.008.133a.9.9,0,0,0,.3.7A1.153,1.153,0,0,0,84.938-1.57Zm5.2-2.719a5.094,5.094,0,0,1,.887-3.148,2.877,2.877,0,0,1,2.426-1.172,2.589,2.589,0,0,1,2.039.922V-12H97.75V0H95.711L95.6-.9A2.657,2.657,0,0,1,93.43.156,2.869,2.869,0,0,1,91.035-1.02,5.258,5.258,0,0,1,90.133-4.289Zm2.258.164A3.328,3.328,0,0,0,92.8-2.3a1.349,1.349,0,0,0,1.2.633,1.511,1.511,0,0,0,1.477-.883V-5.891a1.489,1.489,0,0,0-1.461-.883Q92.391-6.773,92.391-4.125Z" transform="translate(630 5093)" fill="#12263f"/>
    <g id="Trazado_145057" data-name="Trazado 145057" transform="translate(820 5136)" fill="#fff5d0">
      <path d="M 340 63 L 10 63 C 5.037363529205322 63 1 58.9626350402832 1 54 L 1 10 C 1 5.037363529205322 5.037363529205322 1 10 1 L 340 1 C 344.962646484375 1 349 5.037363529205322 349 10 L 349 54 C 349 58.9626350402832 344.962646484375 63 340 63 Z" stroke="none"/>
      <path d="M 10 2 C 5.588775634765625 2 2 5.588771820068359 2 10 L 2 54 C 2 58.41122817993164 5.588775634765625 62 10 62 L 340 62 C 344.4112243652344 62 348 58.41122817993164 348 54 L 348 10 C 348 5.588771820068359 344.4112243652344 2 340 2 L 10 2 M 10 0 L 340 0 C 345.5228576660156 0 350 4.477134704589844 350 10 L 350 54 C 350 59.52286529541016 345.5228576660156 64 340 64 L 10 64 C 4.477142333984375 64 0 59.52286529541016 0 54 L 0 10 C 0 4.477134704589844 4.477142333984375 0 10 0 Z" stroke="none" fill="#f1d54e"/>
    </g>
    <path id="Trazado_145062" data-name="Trazado 145062" d="M-91.035,0V-11.375h3.984a5.232,5.232,0,0,1,3.141.793,2.712,2.712,0,0,1,1.07,2.324,2.57,2.57,0,0,1-.43,1.473,2.482,2.482,0,0,1-1.2.934,2.4,2.4,0,0,1,1.379.883,2.61,2.61,0,0,1,.5,1.625A3,3,0,0,1-83.629-.859,4.713,4.713,0,0,1-86.613,0Zm2.344-4.953v3.07h2.008a1.938,1.938,0,0,0,1.293-.395,1.353,1.353,0,0,0,.465-1.09,1.428,1.428,0,0,0-1.617-1.586Zm0-1.656h1.734q1.773-.031,1.773-1.414a1.307,1.307,0,0,0-.449-1.113,2.363,2.363,0,0,0-1.418-.34h-1.641ZM-75.91-.859A2.831,2.831,0,0,1-78.223.156,2.67,2.67,0,0,1-80.3-.625a3.335,3.335,0,0,1-.73-2.289V-8.453h2.258v5.461q0,1.32,1.2,1.32a1.631,1.631,0,0,0,1.578-.8V-8.453h2.266V0h-2.125ZM-76.918-12h2.461l-2.164,2.422h-1.836Zm9.477,9.664a.727.727,0,0,0-.41-.652,4.659,4.659,0,0,0-1.316-.426q-3.016-.633-3.016-2.562a2.323,2.323,0,0,1,.934-1.879,3.766,3.766,0,0,1,2.441-.754,4.053,4.053,0,0,1,2.574.758,2.388,2.388,0,0,1,.965,1.969h-2.258a1.092,1.092,0,0,0-.312-.8A1.322,1.322,0,0,0-68.816-7a1.351,1.351,0,0,0-.883.258.814.814,0,0,0-.312.656.7.7,0,0,0,.355.605,3.657,3.657,0,0,0,1.2.4,9.8,9.8,0,0,1,1.422.379A2.336,2.336,0,0,1-65.246-2.43a2.2,2.2,0,0,1-.992,1.871A4.28,4.28,0,0,1-68.8.156a4.47,4.47,0,0,1-1.887-.379A3.166,3.166,0,0,1-71.98-1.262a2.414,2.414,0,0,1-.469-1.426h2.141a1.179,1.179,0,0,0,.445.922,1.766,1.766,0,0,0,1.109.32,1.635,1.635,0,0,0,.98-.246A.766.766,0,0,0-67.441-2.336Zm3.3-1.969a5.053,5.053,0,0,1,.887-3.148,2.9,2.9,0,0,1,2.434-1.156A2.6,2.6,0,0,1-58.66-7.57l.148-.883h1.984V3.25h-2.266V-.727A2.6,2.6,0,0,1-60.84.156a2.878,2.878,0,0,1-2.406-1.172A5.3,5.3,0,0,1-64.145-4.3Zm2.258.164A3.305,3.305,0,0,0-61.461-2.3a1.364,1.364,0,0,0,1.2.633,1.519,1.519,0,0,0,1.469-.828V-5.984a1.506,1.506,0,0,0-1.453-.8,1.38,1.38,0,0,0-1.211.633A3.651,3.651,0,0,0-61.887-4.141Zm12.2,3.281A2.831,2.831,0,0,1-52,.156a2.67,2.67,0,0,1-2.074-.781,3.335,3.335,0,0,1-.73-2.289V-8.453h2.258v5.461q0,1.32,1.2,1.32a1.631,1.631,0,0,0,1.578-.8V-8.453H-47.5V0h-2.125ZM-41.91.156A4.15,4.15,0,0,1-44.937-.984a4.054,4.054,0,0,1-1.168-3.039v-.219a5.106,5.106,0,0,1,.492-2.277,3.612,3.612,0,0,1,1.395-1.547,3.914,3.914,0,0,1,2.059-.543,3.508,3.508,0,0,1,2.73,1.094,4.444,4.444,0,0,1,1,3.1v.922h-5.383a2.1,2.1,0,0,0,.66,1.328,2,2,0,0,0,1.395.5,2.437,2.437,0,0,0,2.039-.945l1.109,1.242A3.389,3.389,0,0,1-39.988-.246,4.511,4.511,0,0,1-41.91.156Zm-.258-6.937a1.414,1.414,0,0,0-1.09.453,2.341,2.341,0,0,0-.535,1.3h3.141v-.18a1.669,1.669,0,0,0-.406-1.16A1.459,1.459,0,0,0-42.168-6.781ZM-37.5-4.289a5.094,5.094,0,0,1,.887-3.148,2.877,2.877,0,0,1,2.426-1.172,2.589,2.589,0,0,1,2.039.922V-12h2.266V0h-2.039l-.109-.9A2.657,2.657,0,0,1-34.207.156,2.869,2.869,0,0,1-36.6-1.02,5.258,5.258,0,0,1-37.5-4.289Zm2.258.164a3.328,3.328,0,0,0,.414,1.82,1.349,1.349,0,0,0,1.2.633,1.511,1.511,0,0,0,1.477-.883V-5.891a1.489,1.489,0,0,0-1.461-.883Q-35.246-6.773-35.246-4.125ZM-23.238,0a2.507,2.507,0,0,1-.227-.758A2.732,2.732,0,0,1-25.6.156a3,3,0,0,1-2.059-.719,2.312,2.312,0,0,1-.816-1.812,2.389,2.389,0,0,1,1-2.062A4.915,4.915,0,0,1-24.6-5.164h1.039v-.484a1.393,1.393,0,0,0-.3-.937,1.183,1.183,0,0,0-.949-.352,1.345,1.345,0,0,0-.895.273.929.929,0,0,0-.324.75h-2.258a2.268,2.268,0,0,1,.453-1.359,3,3,0,0,1,1.281-.98,4.669,4.669,0,0,1,1.859-.355,3.689,3.689,0,0,1,2.48.785,2.747,2.747,0,0,1,.918,2.207v3.664a4.041,4.041,0,0,0,.336,1.82V0Zm-1.867-1.57a1.945,1.945,0,0,0,.922-.223,1.462,1.462,0,0,0,.625-.6V-3.844H-24.4q-1.7,0-1.8,1.172l-.008.133a.9.9,0,0,0,.3.7A1.153,1.153,0,0,0-25.105-1.57Zm9.18-2.719a5.094,5.094,0,0,1,.887-3.148,2.877,2.877,0,0,1,2.426-1.172,2.589,2.589,0,0,1,2.039.922V-12h2.266V0h-2.039l-.109-.9A2.657,2.657,0,0,1-12.629.156,2.869,2.869,0,0,1-15.023-1.02,5.258,5.258,0,0,1-15.926-4.289Zm2.258.164a3.328,3.328,0,0,0,.414,1.82,1.349,1.349,0,0,0,1.2.633,1.511,1.511,0,0,0,1.477-.883V-5.891a1.489,1.489,0,0,0-1.461-.883Q-13.668-6.773-13.668-4.125Zm11,4.281A4.15,4.15,0,0,1-5.7-.984,4.054,4.054,0,0,1-6.863-4.023v-.219A5.106,5.106,0,0,1-6.371-6.52,3.612,3.612,0,0,1-4.977-8.066a3.914,3.914,0,0,1,2.059-.543A3.508,3.508,0,0,1-.187-7.516a4.444,4.444,0,0,1,1,3.1v.922H-4.574a2.1,2.1,0,0,0,.66,1.328,2,2,0,0,0,1.395.5A2.437,2.437,0,0,0-.48-2.609L.629-1.367A3.389,3.389,0,0,1-.746-.246,4.511,4.511,0,0,1-2.668.156Zm-.258-6.937a1.414,1.414,0,0,0-1.09.453,2.341,2.341,0,0,0-.535,1.3H-1.41v-.18a1.669,1.669,0,0,0-.406-1.16A1.459,1.459,0,0,0-2.926-6.781ZM8.457,0H6.191V-8.453H8.457Zm-2.4-10.641a1.112,1.112,0,0,1,.34-.836,1.277,1.277,0,0,1,.926-.328,1.28,1.28,0,0,1,.922.328,1.105,1.105,0,0,1,.344.836,1.108,1.108,0,0,1-.348.844,1.283,1.283,0,0,1-.918.328A1.283,1.283,0,0,1,6.406-9.8,1.108,1.108,0,0,1,6.059-10.641Zm6.336,2.188.07.977a2.951,2.951,0,0,1,2.43-1.133,2.453,2.453,0,0,1,2,.789,3.682,3.682,0,0,1,.672,2.359V0H15.309V-5.406A1.465,1.465,0,0,0,15-6.449a1.4,1.4,0,0,0-1.039-.324,1.553,1.553,0,0,0-1.43.813V0H10.27V-8.453ZM19.895,0V-6.8H18.637V-8.453h1.258v-.719a2.918,2.918,0,0,1,.816-2.207A3.162,3.162,0,0,1,23-12.164a5.278,5.278,0,0,1,1.148.156l-.023,1.75a2.878,2.878,0,0,0-.687-.07q-1.273,0-1.273,1.2v.68h1.68V-6.8H22.16V0ZM24.66-4.3a5.013,5.013,0,0,1,.484-2.242A3.546,3.546,0,0,1,26.539-8.07a4.069,4.069,0,0,1,2.113-.539,3.849,3.849,0,0,1,2.793,1.047,4.2,4.2,0,0,1,1.207,2.844l.016.578A4.418,4.418,0,0,1,31.582-1.02,3.775,3.775,0,0,1,28.668.156,3.793,3.793,0,0,1,25.75-1.016,4.5,4.5,0,0,1,24.66-4.2Zm2.258.164a3.151,3.151,0,0,0,.453,1.84,1.5,1.5,0,0,0,1.3.637,1.5,1.5,0,0,0,1.281-.629A3.448,3.448,0,0,0,30.41-4.3a3.12,3.12,0,0,0-.461-1.828,1.5,1.5,0,0,0-1.3-.648,1.475,1.475,0,0,0-1.281.645A3.506,3.506,0,0,0,26.918-4.141Zm11.891-2.2A6.134,6.134,0,0,0,38-6.4a1.654,1.654,0,0,0-1.68.867V0H34.059V-8.453h2.133l.063,1.008a2.092,2.092,0,0,1,1.883-1.164,2.366,2.366,0,0,1,.7.1Zm3.2-2.117.07.945a2.971,2.971,0,0,1,2.43-1.1A2.255,2.255,0,0,1,46.754-7.32a2.9,2.9,0,0,1,2.539-1.289,2.521,2.521,0,0,1,2.047.8,3.681,3.681,0,0,1,.672,2.41V0H49.746V-5.391a1.61,1.61,0,0,0-.281-1.051,1.246,1.246,0,0,0-.992-.332,1.409,1.409,0,0,0-1.406.969L47.074,0H44.816V-5.383a1.59,1.59,0,0,0-.289-1.062,1.259,1.259,0,0,0-.984-.328,1.463,1.463,0,0,0-1.391.8V0H39.895V-8.453ZM58.645,0a2.507,2.507,0,0,1-.227-.758,2.732,2.732,0,0,1-2.133.914,3,3,0,0,1-2.059-.719,2.312,2.312,0,0,1-.816-1.812,2.389,2.389,0,0,1,1-2.062,4.915,4.915,0,0,1,2.879-.727h1.039v-.484a1.393,1.393,0,0,0-.3-.937,1.183,1.183,0,0,0-.949-.352,1.345,1.345,0,0,0-.895.273.929.929,0,0,0-.324.75H53.6a2.268,2.268,0,0,1,.453-1.359,3,3,0,0,1,1.281-.98,4.669,4.669,0,0,1,1.859-.355,3.689,3.689,0,0,1,2.48.785,2.747,2.747,0,0,1,.918,2.207v3.664a4.041,4.041,0,0,0,.336,1.82V0ZM56.777-1.57a1.945,1.945,0,0,0,.922-.223,1.462,1.462,0,0,0,.625-.6V-3.844H57.48q-1.7,0-1.8,1.172l-.008.133a.9.9,0,0,0,.3.7A1.153,1.153,0,0,0,56.777-1.57Zm9.063-.094a1.481,1.481,0,0,0,1.016-.344,1.2,1.2,0,0,0,.406-.914h2.117a2.9,2.9,0,0,1-.469,1.574A3.093,3.093,0,0,1,67.648-.238a3.949,3.949,0,0,1-1.77.395A3.67,3.67,0,0,1,63.02-1,4.56,4.56,0,0,1,61.973-4.18v-.148a4.508,4.508,0,0,1,1.039-3.117,3.627,3.627,0,0,1,2.852-1.164,3.555,3.555,0,0,1,2.543.9,3.2,3.2,0,0,1,.973,2.4H67.262a1.539,1.539,0,0,0-.406-1.066,1.358,1.358,0,0,0-1.031-.41,1.361,1.361,0,0,0-1.191.574,3.324,3.324,0,0,0-.4,1.863v.234a3.366,3.366,0,0,0,.4,1.875A1.378,1.378,0,0,0,65.84-1.664ZM73.051,0H70.785V-8.453h2.266Zm-2.4-10.641a1.112,1.112,0,0,1,.34-.836,1.277,1.277,0,0,1,.926-.328,1.28,1.28,0,0,1,.922.328,1.105,1.105,0,0,1,.344.836,1.108,1.108,0,0,1-.348.844,1.283,1.283,0,0,1-.918.328A1.283,1.283,0,0,1,71-9.8,1.108,1.108,0,0,1,70.652-10.641ZM74.559-4.3a5.013,5.013,0,0,1,.484-2.242A3.546,3.546,0,0,1,76.438-8.07a4.069,4.069,0,0,1,2.113-.539,3.849,3.849,0,0,1,2.793,1.047,4.2,4.2,0,0,1,1.207,2.844l.016.578A4.418,4.418,0,0,1,81.48-1.02,3.775,3.775,0,0,1,78.566.156a3.793,3.793,0,0,1-2.918-1.172A4.5,4.5,0,0,1,74.559-4.2Zm2.258.164A3.151,3.151,0,0,0,77.27-2.3a1.5,1.5,0,0,0,1.3.637,1.5,1.5,0,0,0,1.281-.629A3.448,3.448,0,0,0,80.309-4.3a3.12,3.12,0,0,0-.461-1.828,1.5,1.5,0,0,0-1.3-.648,1.475,1.475,0,0,0-1.281.645A3.506,3.506,0,0,0,76.816-4.141ZM79-12h2.461L79.293-9.578H77.457Zm7.039,3.547.07.977a2.951,2.951,0,0,1,2.43-1.133,2.453,2.453,0,0,1,2,.789,3.682,3.682,0,0,1,.672,2.359V0H88.949V-5.406a1.465,1.465,0,0,0-.312-1.043A1.4,1.4,0,0,0,87.6-6.773a1.553,1.553,0,0,0-1.43.813V0H83.91V-8.453Z" transform="translate(995 5173)" fill="#12263f"/>
    <g id="Trazado_145058" data-name="Trazado 145058" transform="translate(455 5224)" fill="#fff5d0">
      <path d="M 340 63 L 10 63 C 5.037363529205322 63 1 58.9626350402832 1 54 L 1 10 C 1 5.037363529205322 5.037363529205322 1 10 1 L 340 1 C 344.962646484375 1 349 5.037363529205322 349 10 L 349 54 C 349 58.9626350402832 344.962646484375 63 340 63 Z" stroke="none"/>
      <path d="M 10 2 C 5.588775634765625 2 2 5.588771820068359 2 10 L 2 54 C 2 58.41122817993164 5.588775634765625 62 10 62 L 340 62 C 344.4112243652344 62 348 58.41122817993164 348 54 L 348 10 C 348 5.588771820068359 344.4112243652344 2 340 2 L 10 2 M 10 0 L 340 0 C 345.5228576660156 0 350 4.477134704589844 350 10 L 350 54 C 350 59.52286529541016 345.5228576660156 64 340 64 L 10 64 C 4.477142333984375 64 0 59.52286529541016 0 54 L 0 10 C 0 4.477134704589844 4.477142333984375 0 10 0 Z" stroke="none" fill="#f1d54e"/>
    </g>
    <path id="Trazado_145059" data-name="Trazado 145059" d="M-76.27-2.344h-4.109L-81.16,0h-2.492l4.234-11.375h2.172L-72.988,0H-75.48Zm-3.477-1.9H-76.9L-78.332-8.5Zm9.375-4.211.07.977a2.951,2.951,0,0,1,2.43-1.133,2.453,2.453,0,0,1,2,.789A3.682,3.682,0,0,1-65.2-5.461V0h-2.258V-5.406a1.465,1.465,0,0,0-.312-1.043,1.4,1.4,0,0,0-1.039-.324,1.553,1.553,0,0,0-1.43.813V0H-72.5V-8.453ZM-58.59,0a2.507,2.507,0,0,1-.227-.758,2.732,2.732,0,0,1-2.133.914,3,3,0,0,1-2.059-.719,2.312,2.312,0,0,1-.816-1.812,2.389,2.389,0,0,1,1-2.062,4.915,4.915,0,0,1,2.879-.727h1.039v-.484a1.393,1.393,0,0,0-.3-.937,1.183,1.183,0,0,0-.949-.352,1.345,1.345,0,0,0-.895.273.929.929,0,0,0-.324.75h-2.258a2.268,2.268,0,0,1,.453-1.359,3,3,0,0,1,1.281-.98,4.669,4.669,0,0,1,1.859-.355,3.689,3.689,0,0,1,2.48.785,2.747,2.747,0,0,1,.918,2.207v3.664a4.041,4.041,0,0,0,.336,1.82V0Zm-1.867-1.57a1.945,1.945,0,0,0,.922-.223,1.462,1.462,0,0,0,.625-.6V-3.844h-.844q-1.7,0-1.8,1.172l-.008.133a.9.9,0,0,0,.3.7A1.153,1.153,0,0,0-60.457-1.57ZM-59.6-12h2.461L-59.3-9.578h-1.836Zm7.07,12h-2.266V-12h2.266Zm4.242,0h-2.266V-8.453h2.266Zm-2.4-10.641a1.112,1.112,0,0,1,.34-.836,1.277,1.277,0,0,1,.926-.328,1.28,1.28,0,0,1,.922.328,1.105,1.105,0,0,1,.344.836A1.108,1.108,0,0,1-48.5-9.8a1.283,1.283,0,0,1-.918.328,1.283,1.283,0,0,1-.918-.328A1.108,1.108,0,0,1-50.684-10.641Zm8.836,8.3a.727.727,0,0,0-.41-.652,4.659,4.659,0,0,0-1.316-.426q-3.016-.633-3.016-2.562a2.323,2.323,0,0,1,.934-1.879,3.766,3.766,0,0,1,2.441-.754,4.053,4.053,0,0,1,2.574.758,2.388,2.388,0,0,1,.965,1.969h-2.258a1.092,1.092,0,0,0-.312-.8A1.322,1.322,0,0,0-43.223-7a1.351,1.351,0,0,0-.883.258.814.814,0,0,0-.312.656.7.7,0,0,0,.355.605,3.657,3.657,0,0,0,1.2.4,9.8,9.8,0,0,1,1.422.379A2.336,2.336,0,0,1-39.652-2.43a2.2,2.2,0,0,1-.992,1.871,4.28,4.28,0,0,1-2.562.715,4.47,4.47,0,0,1-1.887-.379,3.166,3.166,0,0,1-1.293-1.039,2.414,2.414,0,0,1-.469-1.426h2.141a1.179,1.179,0,0,0,.445.922,1.766,1.766,0,0,0,1.109.32,1.635,1.635,0,0,0,.98-.246A.766.766,0,0,0-41.848-2.336ZM-35.816,0h-2.266V-8.453h2.266Zm-2.4-10.641a1.112,1.112,0,0,1,.34-.836,1.277,1.277,0,0,1,.926-.328,1.28,1.28,0,0,1,.922.328,1.105,1.105,0,0,1,.344.836,1.108,1.108,0,0,1-.348.844,1.283,1.283,0,0,1-.918.328,1.283,1.283,0,0,1-.918-.328A1.108,1.108,0,0,1-38.215-10.641Zm8.836,8.3a.727.727,0,0,0-.41-.652,4.659,4.659,0,0,0-1.316-.426q-3.016-.633-3.016-2.562a2.323,2.323,0,0,1,.934-1.879,3.766,3.766,0,0,1,2.441-.754,4.053,4.053,0,0,1,2.574.758,2.388,2.388,0,0,1,.965,1.969h-2.258a1.092,1.092,0,0,0-.312-.8A1.322,1.322,0,0,0-30.754-7a1.351,1.351,0,0,0-.883.258.814.814,0,0,0-.312.656.7.7,0,0,0,.355.605,3.657,3.657,0,0,0,1.2.4,9.8,9.8,0,0,1,1.422.379A2.336,2.336,0,0,1-27.184-2.43a2.2,2.2,0,0,1-.992,1.871,4.28,4.28,0,0,1-2.562.715,4.47,4.47,0,0,1-1.887-.379,3.166,3.166,0,0,1-1.293-1.039,2.414,2.414,0,0,1-.469-1.426h2.141a1.179,1.179,0,0,0,.445.922,1.766,1.766,0,0,0,1.109.32,1.635,1.635,0,0,0,.98-.246A.766.766,0,0,0-29.379-2.336ZM-22.1-4.289a5.094,5.094,0,0,1,.887-3.148,2.877,2.877,0,0,1,2.426-1.172,2.589,2.589,0,0,1,2.039.922V-12h2.266V0H-16.52l-.109-.9A2.657,2.657,0,0,1-18.8.156,2.869,2.869,0,0,1-21.2-1.02,5.258,5.258,0,0,1-22.1-4.289Zm2.258.164a3.328,3.328,0,0,0,.414,1.82,1.349,1.349,0,0,0,1.2.633,1.511,1.511,0,0,0,1.477-.883V-5.891a1.489,1.489,0,0,0-1.461-.883Q-19.84-6.773-19.84-4.125Zm11,4.281A4.15,4.15,0,0,1-11.867-.984a4.054,4.054,0,0,1-1.168-3.039v-.219a5.106,5.106,0,0,1,.492-2.277,3.612,3.612,0,0,1,1.395-1.547A3.914,3.914,0,0,1-9.09-8.609a3.508,3.508,0,0,1,2.73,1.094,4.444,4.444,0,0,1,1,3.1v.922h-5.383a2.1,2.1,0,0,0,.66,1.328,2,2,0,0,0,1.395.5,2.437,2.437,0,0,0,2.039-.945l1.109,1.242A3.389,3.389,0,0,1-6.918-.246,4.511,4.511,0,0,1-8.84.156ZM-9.1-6.781a1.414,1.414,0,0,0-1.09.453,2.341,2.341,0,0,0-.535,1.3h3.141v-.18a1.669,1.669,0,0,0-.406-1.16A1.459,1.459,0,0,0-9.1-6.781ZM4.8,0a2.507,2.507,0,0,1-.227-.758A2.732,2.732,0,0,1,2.441.156,3,3,0,0,1,.383-.562,2.312,2.312,0,0,1-.434-2.375a2.389,2.389,0,0,1,1-2.062,4.915,4.915,0,0,1,2.879-.727H4.48v-.484a1.393,1.393,0,0,0-.3-.937,1.183,1.183,0,0,0-.949-.352,1.345,1.345,0,0,0-.895.273.929.929,0,0,0-.324.75H-.246A2.268,2.268,0,0,1,.207-7.273a3,3,0,0,1,1.281-.98,4.669,4.669,0,0,1,1.859-.355,3.689,3.689,0,0,1,2.48.785,2.747,2.747,0,0,1,.918,2.207v3.664a4.041,4.041,0,0,0,.336,1.82V0ZM2.934-1.57a1.945,1.945,0,0,0,.922-.223,1.462,1.462,0,0,0,.625-.6V-3.844H3.637q-1.7,0-1.8,1.172l-.008.133a.9.9,0,0,0,.3.7A1.153,1.153,0,0,0,2.934-1.57ZM10.863,0H8.6V-12h2.266Zm4.563-10.531v2.078h1.445V-6.8H15.426v4.219a1.007,1.007,0,0,0,.18.672.9.9,0,0,0,.688.2,3.6,3.6,0,0,0,.664-.055V-.047a4.648,4.648,0,0,1-1.367.2,2.156,2.156,0,0,1-2.422-2.4V-6.8H11.934V-8.453h1.234v-2.078ZM22.02.156A4.15,4.15,0,0,1,18.992-.984a4.054,4.054,0,0,1-1.168-3.039v-.219a5.106,5.106,0,0,1,.492-2.277,3.612,3.612,0,0,1,1.395-1.547,3.914,3.914,0,0,1,2.059-.543A3.508,3.508,0,0,1,24.5-7.516a4.444,4.444,0,0,1,1,3.1v.922H20.113a2.1,2.1,0,0,0,.66,1.328,2,2,0,0,0,1.395.5,2.437,2.437,0,0,0,2.039-.945l1.109,1.242A3.389,3.389,0,0,1,23.941-.246,4.511,4.511,0,0,1,22.02.156Zm-.258-6.937a1.414,1.414,0,0,0-1.09.453,2.341,2.341,0,0,0-.535,1.3h3.141v-.18a1.669,1.669,0,0,0-.406-1.16A1.459,1.459,0,0,0,21.762-6.781Zm9.766.445a6.134,6.134,0,0,0-.812-.062,1.654,1.654,0,0,0-1.68.867V0H26.777V-8.453H28.91l.063,1.008a2.092,2.092,0,0,1,1.883-1.164,2.366,2.366,0,0,1,.7.1Zm3.164-2.117.07.977a2.951,2.951,0,0,1,2.43-1.133,2.453,2.453,0,0,1,2,.789,3.682,3.682,0,0,1,.672,2.359V0H37.605V-5.406a1.465,1.465,0,0,0-.312-1.043,1.4,1.4,0,0,0-1.039-.324,1.553,1.553,0,0,0-1.43.813V0H32.566V-8.453ZM46.473,0a2.507,2.507,0,0,1-.227-.758,2.732,2.732,0,0,1-2.133.914,3,3,0,0,1-2.059-.719,2.312,2.312,0,0,1-.816-1.812,2.389,2.389,0,0,1,1-2.062,4.915,4.915,0,0,1,2.879-.727h1.039v-.484a1.393,1.393,0,0,0-.3-.937,1.183,1.183,0,0,0-.949-.352,1.345,1.345,0,0,0-.895.273.929.929,0,0,0-.324.75H41.426a2.268,2.268,0,0,1,.453-1.359,3,3,0,0,1,1.281-.98,4.669,4.669,0,0,1,1.859-.355,3.689,3.689,0,0,1,2.48.785,2.747,2.747,0,0,1,.918,2.207v3.664a4.041,4.041,0,0,0,.336,1.82V0ZM44.605-1.57a1.945,1.945,0,0,0,.922-.223,1.462,1.462,0,0,0,.625-.6V-3.844h-.844q-1.7,0-1.8,1.172l-.008.133a.9.9,0,0,0,.3.7A1.153,1.153,0,0,0,44.605-1.57Zm8.25-8.961v2.078H54.3V-6.8H52.855v4.219a1.007,1.007,0,0,0,.18.672.9.9,0,0,0,.688.2,3.6,3.6,0,0,0,.664-.055V-.047a4.648,4.648,0,0,1-1.367.2,2.156,2.156,0,0,1-2.422-2.4V-6.8H49.363V-8.453H50.6v-2.078ZM57.941,0H55.676V-8.453h2.266Zm-2.4-10.641a1.112,1.112,0,0,1,.34-.836,1.277,1.277,0,0,1,.926-.328,1.28,1.28,0,0,1,.922.328,1.105,1.105,0,0,1,.344.836,1.108,1.108,0,0,1-.348.844,1.283,1.283,0,0,1-.918.328,1.283,1.283,0,0,1-.918-.328A1.108,1.108,0,0,1,55.543-10.641Zm7.422,7.883,1.57-5.7h2.359L64.043,0H61.887L59.035-8.453h2.359ZM72.668,0a2.507,2.507,0,0,1-.227-.758,2.732,2.732,0,0,1-2.133.914A3,3,0,0,1,68.25-.562a2.312,2.312,0,0,1-.816-1.812,2.389,2.389,0,0,1,1-2.062,4.915,4.915,0,0,1,2.879-.727h1.039v-.484a1.393,1.393,0,0,0-.3-.937,1.183,1.183,0,0,0-.949-.352,1.345,1.345,0,0,0-.895.273.929.929,0,0,0-.324.75H67.621a2.268,2.268,0,0,1,.453-1.359,3,3,0,0,1,1.281-.98,4.669,4.669,0,0,1,1.859-.355,3.689,3.689,0,0,1,2.48.785,2.747,2.747,0,0,1,.918,2.207v3.664a4.041,4.041,0,0,0,.336,1.82V0ZM70.8-1.57a1.945,1.945,0,0,0,.922-.223,1.462,1.462,0,0,0,.625-.6V-3.844H71.5q-1.7,0-1.8,1.172l-.008.133a.9.9,0,0,0,.3.7A1.153,1.153,0,0,0,70.8-1.57Zm10.125-.766a.727.727,0,0,0-.41-.652A4.659,4.659,0,0,0,79.2-3.414q-3.016-.633-3.016-2.562a2.323,2.323,0,0,1,.934-1.879,3.766,3.766,0,0,1,2.441-.754,4.053,4.053,0,0,1,2.574.758A2.388,2.388,0,0,1,83.1-5.883H80.84a1.092,1.092,0,0,0-.312-.8A1.322,1.322,0,0,0,79.551-7a1.351,1.351,0,0,0-.883.258.814.814,0,0,0-.312.656.7.7,0,0,0,.355.605,3.657,3.657,0,0,0,1.2.4,9.8,9.8,0,0,1,1.422.379A2.336,2.336,0,0,1,83.121-2.43a2.2,2.2,0,0,1-.992,1.871,4.28,4.28,0,0,1-2.562.715A4.47,4.47,0,0,1,77.68-.223a3.166,3.166,0,0,1-1.293-1.039,2.414,2.414,0,0,1-.469-1.426h2.141a1.179,1.179,0,0,0,.445.922,1.766,1.766,0,0,0,1.109.32,1.635,1.635,0,0,0,.98-.246A.766.766,0,0,0,80.926-2.336Z" transform="translate(630 5261)" fill="#12263f"/>
    <g id="Trazado_145063" data-name="Trazado 145063" transform="translate(820 5325)" fill="#fff5d0">
      <path d="M 340 63 L 10 63 C 5.037363529205322 63 1 58.9626350402832 1 54 L 1 10 C 1 5.037363529205322 5.037363529205322 1 10 1 L 340 1 C 344.962646484375 1 349 5.037363529205322 349 10 L 349 54 C 349 58.9626350402832 344.962646484375 63 340 63 Z" stroke="none"/>
      <path d="M 10 2 C 5.588775634765625 2 2 5.588771820068359 2 10 L 2 54 C 2 58.41122817993164 5.588775634765625 62 10 62 L 340 62 C 344.4112243652344 62 348 58.41122817993164 348 54 L 348 10 C 348 5.588771820068359 344.4112243652344 2 340 2 L 10 2 M 10 0 L 340 0 C 345.5228576660156 0 350 4.477134704589844 350 10 L 350 54 C 350 59.52286529541016 345.5228576660156 64 340 64 L 10 64 C 4.477142333984375 64 0 59.52286529541016 0 54 L 0 10 C 0 4.477134704589844 4.477142333984375 0 10 0 Z" stroke="none" fill="#f1d54e"/>
    </g>
    <path id="Trazado_145064" data-name="Trazado 145064" d="M-134.973,0V-11.375h3.5a5.315,5.315,0,0,1,2.684.676,4.712,4.712,0,0,1,1.848,1.922,5.928,5.928,0,0,1,.664,2.832v.523a5.945,5.945,0,0,1-.652,2.82,4.672,4.672,0,0,1-1.84,1.914,5.355,5.355,0,0,1-2.68.688Zm2.344-9.477v7.594h1.133a2.545,2.545,0,0,0,2.1-.9,4.06,4.06,0,0,0,.742-2.57v-.6a4.124,4.124,0,0,0-.719-2.629,2.537,2.537,0,0,0-2.1-.895Zm11.8,9.633a4.15,4.15,0,0,1-3.027-1.141,4.054,4.054,0,0,1-1.168-3.039v-.219a5.106,5.106,0,0,1,.492-2.277,3.612,3.612,0,0,1,1.395-1.547,3.914,3.914,0,0,1,2.059-.543,3.508,3.508,0,0,1,2.73,1.094,4.444,4.444,0,0,1,1,3.1v.922h-5.383a2.1,2.1,0,0,0,.66,1.328,2,2,0,0,0,1.395.5,2.437,2.437,0,0,0,2.039-.945l1.109,1.242A3.389,3.389,0,0,1-118.91-.246,4.511,4.511,0,0,1-120.832.156Zm-.258-6.937a1.414,1.414,0,0,0-1.09.453,2.341,2.341,0,0,0-.535,1.3h3.141v-.18a1.669,1.669,0,0,0-.406-1.16A1.459,1.459,0,0,0-121.09-6.781Zm8.531,5.117a1.481,1.481,0,0,0,1.016-.344,1.2,1.2,0,0,0,.406-.914h2.117a2.9,2.9,0,0,1-.469,1.574A3.093,3.093,0,0,1-110.75-.238a3.949,3.949,0,0,1-1.77.395A3.67,3.67,0,0,1-115.379-1a4.56,4.56,0,0,1-1.047-3.184v-.148a4.508,4.508,0,0,1,1.039-3.117,3.627,3.627,0,0,1,2.852-1.164,3.555,3.555,0,0,1,2.543.9,3.2,3.2,0,0,1,.973,2.4h-2.117a1.539,1.539,0,0,0-.406-1.066,1.358,1.358,0,0,0-1.031-.41,1.361,1.361,0,0,0-1.191.574,3.324,3.324,0,0,0-.4,1.863v.234a3.366,3.366,0,0,0,.4,1.875A1.378,1.378,0,0,0-112.559-1.664ZM-105.348,0h-2.266V-8.453h2.266Zm-2.4-10.641a1.112,1.112,0,0,1,.34-.836,1.277,1.277,0,0,1,.926-.328,1.28,1.28,0,0,1,.922.328,1.105,1.105,0,0,1,.344.836,1.108,1.108,0,0,1-.348.844,1.283,1.283,0,0,1-.918.328A1.283,1.283,0,0,1-107.4-9.8,1.108,1.108,0,0,1-107.746-10.641Zm8.836,8.3a.727.727,0,0,0-.41-.652,4.659,4.659,0,0,0-1.316-.426q-3.016-.633-3.016-2.562a2.323,2.323,0,0,1,.934-1.879,3.766,3.766,0,0,1,2.441-.754,4.053,4.053,0,0,1,2.574.758,2.388,2.388,0,0,1,.965,1.969H-99a1.092,1.092,0,0,0-.312-.8A1.322,1.322,0,0,0-100.285-7a1.351,1.351,0,0,0-.883.258.814.814,0,0,0-.312.656.7.7,0,0,0,.355.605,3.657,3.657,0,0,0,1.2.4A9.8,9.8,0,0,1-98.5-4.7,2.336,2.336,0,0,1-96.715-2.43a2.2,2.2,0,0,1-.992,1.871,4.28,4.28,0,0,1-2.562.715,4.47,4.47,0,0,1-1.887-.379,3.166,3.166,0,0,1-1.293-1.039,2.414,2.414,0,0,1-.469-1.426h2.141a1.179,1.179,0,0,0,.445.922,1.766,1.766,0,0,0,1.109.32,1.635,1.635,0,0,0,.98-.246A.766.766,0,0,0-98.91-2.336ZM-92.879,0h-2.266V-8.453h2.266Zm-2.4-10.641a1.112,1.112,0,0,1,.34-.836,1.277,1.277,0,0,1,.926-.328,1.28,1.28,0,0,1,.922.328,1.105,1.105,0,0,1,.344.836,1.108,1.108,0,0,1-.348.844,1.283,1.283,0,0,1-.918.328A1.283,1.283,0,0,1-94.93-9.8,1.108,1.108,0,0,1-95.277-10.641ZM-91.371-4.3a5.013,5.013,0,0,1,.484-2.242A3.546,3.546,0,0,1-89.492-8.07a4.069,4.069,0,0,1,2.113-.539,3.849,3.849,0,0,1,2.793,1.047,4.2,4.2,0,0,1,1.207,2.844l.016.578A4.418,4.418,0,0,1-84.449-1.02,3.775,3.775,0,0,1-87.363.156a3.793,3.793,0,0,1-2.918-1.172A4.5,4.5,0,0,1-91.371-4.2Zm2.258.164A3.151,3.151,0,0,0-88.66-2.3a1.5,1.5,0,0,0,1.3.637,1.5,1.5,0,0,0,1.281-.629A3.448,3.448,0,0,0-85.621-4.3a3.12,3.12,0,0,0-.461-1.828,1.5,1.5,0,0,0-1.3-.648,1.475,1.475,0,0,0-1.281.645A3.506,3.506,0,0,0-89.113-4.141ZM-86.934-12h2.461l-2.164,2.422h-1.836Zm7.039,3.547.07.977a2.951,2.951,0,0,1,2.43-1.133,2.453,2.453,0,0,1,2,.789,3.682,3.682,0,0,1,.672,2.359V0H-76.98V-5.406a1.465,1.465,0,0,0-.312-1.043,1.4,1.4,0,0,0-1.039-.324,1.553,1.553,0,0,0-1.43.813V0H-82.02V-8.453Zm10.516,4.164a5.094,5.094,0,0,1,.887-3.148,2.877,2.877,0,0,1,2.426-1.172,2.589,2.589,0,0,1,2.039.922V-12h2.266V0H-63.8l-.109-.9A2.657,2.657,0,0,1-66.082.156,2.869,2.869,0,0,1-68.477-1.02,5.258,5.258,0,0,1-69.379-4.289Zm2.258.164a3.328,3.328,0,0,0,.414,1.82,1.349,1.349,0,0,0,1.2.633,1.511,1.511,0,0,0,1.477-.883V-5.891a1.489,1.489,0,0,0-1.461-.883Q-67.121-6.773-67.121-4.125Zm11,4.281A4.15,4.15,0,0,1-59.148-.984a4.054,4.054,0,0,1-1.168-3.039v-.219a5.106,5.106,0,0,1,.492-2.277A3.612,3.612,0,0,1-58.43-8.066a3.914,3.914,0,0,1,2.059-.543,3.508,3.508,0,0,1,2.73,1.094,4.444,4.444,0,0,1,1,3.1v.922h-5.383a2.1,2.1,0,0,0,.66,1.328,2,2,0,0,0,1.395.5,2.437,2.437,0,0,0,2.039-.945l1.109,1.242A3.389,3.389,0,0,1-54.2-.246,4.511,4.511,0,0,1-56.121.156Zm-.258-6.937a1.414,1.414,0,0,0-1.09.453A2.341,2.341,0,0,0-58-5.031h3.141v-.18a1.669,1.669,0,0,0-.406-1.16A1.459,1.459,0,0,0-56.379-6.781Zm12.516,5.117a1.481,1.481,0,0,0,1.016-.344,1.2,1.2,0,0,0,.406-.914h2.117a2.9,2.9,0,0,1-.469,1.574A3.093,3.093,0,0,1-42.055-.238a3.949,3.949,0,0,1-1.77.395A3.67,3.67,0,0,1-46.684-1,4.56,4.56,0,0,1-47.73-4.18v-.148a4.508,4.508,0,0,1,1.039-3.117A3.627,3.627,0,0,1-43.84-8.609a3.555,3.555,0,0,1,2.543.9,3.2,3.2,0,0,1,.973,2.4h-2.117a1.539,1.539,0,0,0-.406-1.066,1.358,1.358,0,0,0-1.031-.41,1.361,1.361,0,0,0-1.191.574,3.324,3.324,0,0,0-.4,1.863v.234a3.366,3.366,0,0,0,.4,1.875A1.378,1.378,0,0,0-43.863-1.664ZM-39.387-4.3A5.013,5.013,0,0,1-38.9-6.547,3.546,3.546,0,0,1-37.508-8.07a4.069,4.069,0,0,1,2.113-.539A3.849,3.849,0,0,1-32.6-7.562a4.2,4.2,0,0,1,1.207,2.844l.016.578A4.418,4.418,0,0,1-32.465-1.02,3.775,3.775,0,0,1-35.379.156,3.793,3.793,0,0,1-38.3-1.016,4.5,4.5,0,0,1-39.387-4.2Zm2.258.164a3.151,3.151,0,0,0,.453,1.84,1.5,1.5,0,0,0,1.3.637A1.5,1.5,0,0,0-34.1-2.293,3.448,3.448,0,0,0-33.637-4.3,3.12,3.12,0,0,0-34.1-6.133a1.5,1.5,0,0,0-1.3-.648,1.475,1.475,0,0,0-1.281.645A3.506,3.506,0,0,0-37.129-4.141Zm9.258-4.312.07.945a2.971,2.971,0,0,1,2.43-1.1A2.255,2.255,0,0,1-23.129-7.32,2.9,2.9,0,0,1-20.59-8.609a2.521,2.521,0,0,1,2.047.8,3.681,3.681,0,0,1,.672,2.41V0h-2.266V-5.391a1.61,1.61,0,0,0-.281-1.051,1.246,1.246,0,0,0-.992-.332,1.409,1.409,0,0,0-1.406.969l.008,5.8h-2.258V-5.383a1.59,1.59,0,0,0-.289-1.062,1.259,1.259,0,0,0-.984-.328,1.463,1.463,0,0,0-1.391.8V0h-2.258V-8.453Zm19.344,4.3A5.07,5.07,0,0,1-9.414-1.02,2.843,2.843,0,0,1-11.809.156a2.633,2.633,0,0,1-2.07-.891V3.25h-2.258v-11.7h2.094l.078.828a2.654,2.654,0,0,1,2.141-.984,2.862,2.862,0,0,1,2.43,1.156,5.207,5.207,0,0,1,.867,3.188Zm-2.258-.164a3.327,3.327,0,0,0-.418-1.82,1.361,1.361,0,0,0-1.215-.641,1.478,1.478,0,0,0-1.461.813V-2.5a1.5,1.5,0,0,0,1.477.836Q-10.785-1.664-10.785-4.312Zm8.406-2.023A6.134,6.134,0,0,0-3.191-6.4a1.654,1.654,0,0,0-1.68.867V0H-7.129V-8.453H-5l.063,1.008A2.092,2.092,0,0,1-3.051-8.609a2.366,2.366,0,0,1,.7.1ZM3.371,0a2.507,2.507,0,0,1-.227-.758A2.732,2.732,0,0,1,1.012.156,3,3,0,0,1-1.047-.562a2.312,2.312,0,0,1-.816-1.812,2.389,2.389,0,0,1,1-2.062,4.915,4.915,0,0,1,2.879-.727H3.051v-.484a1.393,1.393,0,0,0-.3-.937A1.183,1.183,0,0,0,1.8-6.937a1.345,1.345,0,0,0-.895.273.929.929,0,0,0-.324.75H-1.676a2.268,2.268,0,0,1,.453-1.359,3,3,0,0,1,1.281-.98,4.669,4.669,0,0,1,1.859-.355,3.689,3.689,0,0,1,2.48.785,2.747,2.747,0,0,1,.918,2.207v3.664a4.041,4.041,0,0,0,.336,1.82V0ZM1.5-1.57a1.945,1.945,0,0,0,.922-.223,1.462,1.462,0,0,0,.625-.6V-3.844H2.207q-1.7,0-1.8,1.172l-.008.133a.9.9,0,0,0,.3.7A1.153,1.153,0,0,0,1.5-1.57Zm5.656.461a1.137,1.137,0,0,1,.363-.875,1.289,1.289,0,0,1,.91-.336,1.3,1.3,0,0,1,.918.336,1.137,1.137,0,0,1,.363.875,1.121,1.121,0,0,1-.359.863,1.305,1.305,0,0,1-.922.332A1.294,1.294,0,0,1,7.52-.246,1.121,1.121,0,0,1,7.16-1.109Zm0-6.4a1.137,1.137,0,0,1,.363-.875,1.289,1.289,0,0,1,.91-.336,1.3,1.3,0,0,1,.918.336,1.137,1.137,0,0,1,.363.875,1.121,1.121,0,0,1-.359.863,1.305,1.305,0,0,1-.922.332,1.294,1.294,0,0,1-.914-.332A1.121,1.121,0,0,1,7.16-7.508ZM20.449,0a2.507,2.507,0,0,1-.227-.758A2.732,2.732,0,0,1,18.09.156a3,3,0,0,1-2.059-.719,2.312,2.312,0,0,1-.816-1.812,2.389,2.389,0,0,1,1-2.062,4.915,4.915,0,0,1,2.879-.727h1.039v-.484a1.393,1.393,0,0,0-.3-.937,1.183,1.183,0,0,0-.949-.352,1.345,1.345,0,0,0-.895.273.929.929,0,0,0-.324.75H15.4a2.268,2.268,0,0,1,.453-1.359,3,3,0,0,1,1.281-.98A4.669,4.669,0,0,1,19-8.609a3.689,3.689,0,0,1,2.48.785,2.747,2.747,0,0,1,.918,2.207v3.664a4.041,4.041,0,0,0,.336,1.82V0ZM18.582-1.57a1.945,1.945,0,0,0,.922-.223,1.462,1.462,0,0,0,.625-.6V-3.844h-.844q-1.7,0-1.8,1.172l-.008.133a.9.9,0,0,0,.3.7A1.153,1.153,0,0,0,18.582-1.57ZM27.762-4.3a5.053,5.053,0,0,1,.887-3.148,2.9,2.9,0,0,1,2.434-1.156A2.6,2.6,0,0,1,33.246-7.57l.148-.883h1.984V3.25H33.113V-.727a2.6,2.6,0,0,1-2.047.883A2.878,2.878,0,0,1,28.66-1.016,5.3,5.3,0,0,1,27.762-4.3Zm2.258.164A3.305,3.305,0,0,0,30.445-2.3a1.364,1.364,0,0,0,1.2.633,1.519,1.519,0,0,0,1.469-.828V-5.984a1.506,1.506,0,0,0-1.453-.8,1.38,1.38,0,0,0-1.211.633A3.65,3.65,0,0,0,30.02-4.141Zm12.2,3.281A2.831,2.831,0,0,1,39.9.156a2.67,2.67,0,0,1-2.074-.781,3.335,3.335,0,0,1-.73-2.289V-8.453h2.258v5.461q0,1.32,1.2,1.32a1.631,1.631,0,0,0,1.578-.8V-8.453H44.4V0H42.277ZM48.488,0H46.223V-8.453h2.266Zm-2.4-10.641a1.112,1.112,0,0,1,.34-.836,1.277,1.277,0,0,1,.926-.328,1.28,1.28,0,0,1,.922.328,1.105,1.105,0,0,1,.344.836,1.108,1.108,0,0,1-.348.844,1.283,1.283,0,0,1-.918.328,1.283,1.283,0,0,1-.918-.328A1.108,1.108,0,0,1,46.09-10.641ZM54.238.156A4.15,4.15,0,0,1,51.211-.984a4.054,4.054,0,0,1-1.168-3.039v-.219a5.106,5.106,0,0,1,.492-2.277A3.612,3.612,0,0,1,51.93-8.066a3.914,3.914,0,0,1,2.059-.543,3.508,3.508,0,0,1,2.73,1.094,4.444,4.444,0,0,1,1,3.1v.922H52.332a2.1,2.1,0,0,0,.66,1.328,2,2,0,0,0,1.395.5,2.437,2.437,0,0,0,2.039-.945l1.109,1.242A3.389,3.389,0,0,1,56.16-.246,4.511,4.511,0,0,1,54.238.156ZM53.98-6.781a1.414,1.414,0,0,0-1.09.453,2.341,2.341,0,0,0-.535,1.3H55.5v-.18a1.669,1.669,0,0,0-.406-1.16A1.459,1.459,0,0,0,53.98-6.781Zm.2-5.219h2.461L54.48-9.578H52.645Zm6.891,3.547.07.977a2.951,2.951,0,0,1,2.43-1.133,2.453,2.453,0,0,1,2,.789,3.682,3.682,0,0,1,.672,2.359V0H63.988V-5.406a1.465,1.465,0,0,0-.312-1.043,1.4,1.4,0,0,0-1.039-.324,1.553,1.553,0,0,0-1.43.813V0H58.949V-8.453ZM75.1-3.2,76.66-8.453h2.422l-3.4,9.766-.187.445A2.577,2.577,0,0,1,73,3.414a3.552,3.552,0,0,1-1-.148V1.555l.344.008a1.857,1.857,0,0,0,.957-.2,1.283,1.283,0,0,0,.5-.648l.266-.7L71.1-8.453h2.43ZM87.473-1.664a1.481,1.481,0,0,0,1.016-.344,1.2,1.2,0,0,0,.406-.914h2.117a2.9,2.9,0,0,1-.469,1.574A3.093,3.093,0,0,1,89.281-.238a3.949,3.949,0,0,1-1.77.395A3.67,3.67,0,0,1,84.652-1,4.56,4.56,0,0,1,83.605-4.18v-.148a4.508,4.508,0,0,1,1.039-3.117A3.627,3.627,0,0,1,87.5-8.609a3.555,3.555,0,0,1,2.543.9,3.2,3.2,0,0,1,.973,2.4H88.895a1.539,1.539,0,0,0-.406-1.066,1.358,1.358,0,0,0-1.031-.41,1.361,1.361,0,0,0-1.191.574,3.324,3.324,0,0,0-.4,1.863v.234a3.366,3.366,0,0,0,.4,1.875A1.378,1.378,0,0,0,87.473-1.664Zm9.891.8A2.831,2.831,0,0,1,95.051.156a2.67,2.67,0,0,1-2.074-.781,3.335,3.335,0,0,1-.73-2.289V-8.453H94.5v5.461q0,1.32,1.2,1.32a1.631,1.631,0,0,0,1.578-.8V-8.453h2.266V0H97.426ZM106.152,0a2.507,2.507,0,0,1-.227-.758,2.732,2.732,0,0,1-2.133.914,3,3,0,0,1-2.059-.719,2.312,2.312,0,0,1-.816-1.812,2.389,2.389,0,0,1,1-2.062,4.915,4.915,0,0,1,2.879-.727h1.039v-.484a1.393,1.393,0,0,0-.3-.937,1.183,1.183,0,0,0-.949-.352,1.345,1.345,0,0,0-.895.273.929.929,0,0,0-.324.75h-2.258a2.268,2.268,0,0,1,.453-1.359,3,3,0,0,1,1.281-.98,4.669,4.669,0,0,1,1.859-.355,3.689,3.689,0,0,1,2.48.785,2.747,2.747,0,0,1,.918,2.207v3.664a4.041,4.041,0,0,0,.336,1.82V0Zm-1.867-1.57a1.945,1.945,0,0,0,.922-.223,1.462,1.462,0,0,0,.625-.6V-3.844h-.844q-1.7,0-1.8,1.172l-.008.133a.9.9,0,0,0,.3.7A1.153,1.153,0,0,0,104.285-1.57ZM105.145-12h2.461l-2.164,2.422h-1.836Zm6.766,3.547.07.977a2.951,2.951,0,0,1,2.43-1.133,2.453,2.453,0,0,1,2,.789,3.682,3.682,0,0,1,.672,2.359V0h-2.258V-5.406a1.465,1.465,0,0,0-.312-1.043,1.4,1.4,0,0,0-1.039-.324,1.553,1.553,0,0,0-1.43.813V0h-2.258V-8.453Zm6.531,4.164a5.094,5.094,0,0,1,.887-3.148,2.877,2.877,0,0,1,2.426-1.172,2.589,2.589,0,0,1,2.039.922V-12h2.266V0H124.02l-.109-.9A2.657,2.657,0,0,1,121.738.156a2.869,2.869,0,0,1-2.395-1.176A5.258,5.258,0,0,1,118.441-4.289Zm2.258.164a3.328,3.328,0,0,0,.414,1.82,1.349,1.349,0,0,0,1.2.633,1.511,1.511,0,0,0,1.477-.883V-5.891a1.489,1.489,0,0,0-1.461-.883Q120.7-6.773,120.7-4.125Zm6.758-.18a5.013,5.013,0,0,1,.484-2.242,3.546,3.546,0,0,1,1.395-1.523,4.069,4.069,0,0,1,2.113-.539,3.849,3.849,0,0,1,2.793,1.047,4.2,4.2,0,0,1,1.207,2.844l.016.578a4.418,4.418,0,0,1-1.086,3.121A3.775,3.775,0,0,1,131.465.156a3.793,3.793,0,0,1-2.918-1.172,4.5,4.5,0,0,1-1.09-3.187Zm2.258.164a3.151,3.151,0,0,0,.453,1.84,1.5,1.5,0,0,0,1.3.637,1.5,1.5,0,0,0,1.281-.629,3.448,3.448,0,0,0,.461-2.012,3.12,3.12,0,0,0-.461-1.828,1.5,1.5,0,0,0-1.3-.648,1.475,1.475,0,0,0-1.281.645A3.506,3.506,0,0,0,129.715-4.141Z" transform="translate(995 5362)" fill="#12263f"/>
    <g id="Trazado_145067" data-name="Trazado 145067" transform="translate(455 5409)" fill="#fff5d0">
      <path d="M 340 63 L 10 63 C 5.037363529205322 63 1 58.9626350402832 1 54 L 1 10 C 1 5.037363529205322 5.037363529205322 1 10 1 L 340 1 C 344.962646484375 1 349 5.037363529205322 349 10 L 349 54 C 349 58.9626350402832 344.962646484375 63 340 63 Z" stroke="none"/>
      <path d="M 10 2 C 5.588775634765625 2 2 5.588771820068359 2 10 L 2 54 C 2 58.41122817993164 5.588775634765625 62 10 62 L 340 62 C 344.4112243652344 62 348 58.41122817993164 348 54 L 348 10 C 348 5.588771820068359 344.4112243652344 2 340 2 L 10 2 M 10 0 L 340 0 C 345.5228576660156 0 350 4.477134704589844 350 10 L 350 54 C 350 59.52286529541016 345.5228576660156 64 340 64 L 10 64 C 4.477142333984375 64 0 59.52286529541016 0 54 L 0 10 C 0 4.477134704589844 4.477142333984375 0 10 0 Z" stroke="none" fill="#f1d54e"/>
    </g>
    <path id="Trazado_145068" data-name="Trazado 145068" d="M-129.363-3.789A4.025,4.025,0,0,1-130.719-.9,4.76,4.76,0,0,1-133.941.156a4.281,4.281,0,0,1-3.441-1.473,6.038,6.038,0,0,1-1.254-4.043v-.7a6.819,6.819,0,0,1,.578-2.891,4.332,4.332,0,0,1,1.652-1.918,4.629,4.629,0,0,1,2.5-.668,4.637,4.637,0,0,1,3.172,1.055,4.326,4.326,0,0,1,1.391,2.961h-2.344a2.376,2.376,0,0,0-.613-1.6,2.271,2.271,0,0,0-1.605-.5,1.991,1.991,0,0,0-1.754.84,4.707,4.707,0,0,0-.6,2.605V-5.3a5.038,5.038,0,0,0,.559,2.7,1.954,1.954,0,0,0,1.762.852,2.314,2.314,0,0,0,1.621-.5,2.241,2.241,0,0,0,.613-1.535Zm1.039-.516a5.013,5.013,0,0,1,.484-2.242,3.546,3.546,0,0,1,1.395-1.523,4.069,4.069,0,0,1,2.113-.539,3.849,3.849,0,0,1,2.793,1.047,4.2,4.2,0,0,1,1.207,2.844l.016.578A4.418,4.418,0,0,1-121.4-1.02,3.775,3.775,0,0,1-124.316.156a3.793,3.793,0,0,1-2.918-1.172,4.5,4.5,0,0,1-1.09-3.187Zm2.258.164a3.151,3.151,0,0,0,.453,1.84,1.5,1.5,0,0,0,1.3.637,1.5,1.5,0,0,0,1.281-.629,3.448,3.448,0,0,0,.461-2.012,3.12,3.12,0,0,0-.461-1.828,1.5,1.5,0,0,0-1.3-.648,1.475,1.475,0,0,0-1.281.645A3.506,3.506,0,0,0-126.066-4.141Zm9.258-4.312.07.945a2.971,2.971,0,0,1,2.43-1.1,2.255,2.255,0,0,1,2.242,1.289,2.9,2.9,0,0,1,2.539-1.289,2.521,2.521,0,0,1,2.047.8,3.681,3.681,0,0,1,.672,2.41V0h-2.266V-5.391a1.61,1.61,0,0,0-.281-1.051,1.246,1.246,0,0,0-.992-.332,1.409,1.409,0,0,0-1.406.969l.008,5.8H-114V-5.383a1.59,1.59,0,0,0-.289-1.062,1.259,1.259,0,0,0-.984-.328,1.463,1.463,0,0,0-1.391.8V0h-2.258V-8.453Zm19.344,4.3a5.07,5.07,0,0,1-.887,3.129A2.843,2.843,0,0,1-100.746.156a2.633,2.633,0,0,1-2.07-.891V3.25h-2.258v-11.7h2.094l.078.828a2.654,2.654,0,0,1,2.141-.984,2.862,2.862,0,0,1,2.43,1.156,5.207,5.207,0,0,1,.867,3.188Zm-2.258-.164a3.327,3.327,0,0,0-.418-1.82,1.361,1.361,0,0,0-1.215-.641,1.478,1.478,0,0,0-1.461.813V-2.5a1.5,1.5,0,0,0,1.477.836Q-99.723-1.664-99.723-4.312Zm3.3.008a5.013,5.013,0,0,1,.484-2.242A3.546,3.546,0,0,1-94.539-8.07a4.069,4.069,0,0,1,2.113-.539,3.849,3.849,0,0,1,2.793,1.047,4.2,4.2,0,0,1,1.207,2.844l.016.578A4.418,4.418,0,0,1-89.5-1.02,3.775,3.775,0,0,1-92.41.156a3.793,3.793,0,0,1-2.918-1.172A4.5,4.5,0,0,1-96.418-4.2Zm2.258.164a3.151,3.151,0,0,0,.453,1.84,1.5,1.5,0,0,0,1.3.637,1.5,1.5,0,0,0,1.281-.629A3.448,3.448,0,0,0-90.668-4.3a3.12,3.12,0,0,0-.461-1.828,1.5,1.5,0,0,0-1.3-.648,1.475,1.475,0,0,0-1.281.645A3.506,3.506,0,0,0-94.16-4.141Zm11.891-2.2a6.134,6.134,0,0,0-.812-.062,1.654,1.654,0,0,0-1.68.867V0H-87.02V-8.453h2.133l.063,1.008a2.092,2.092,0,0,1,1.883-1.164,2.366,2.366,0,0,1,.7.1Zm4.18-4.2v2.078h1.445V-6.8H-78.09v4.219a1.007,1.007,0,0,0,.18.672.9.9,0,0,0,.688.2,3.6,3.6,0,0,0,.664-.055V-.047a4.648,4.648,0,0,1-1.367.2,2.156,2.156,0,0,1-2.422-2.4V-6.8h-1.234V-8.453h1.234v-2.078ZM-70.488,0a2.507,2.507,0,0,1-.227-.758,2.732,2.732,0,0,1-2.133.914,3,3,0,0,1-2.059-.719,2.312,2.312,0,0,1-.816-1.812,2.389,2.389,0,0,1,1-2.062,4.915,4.915,0,0,1,2.879-.727h1.039v-.484a1.393,1.393,0,0,0-.3-.937,1.183,1.183,0,0,0-.949-.352,1.345,1.345,0,0,0-.895.273.929.929,0,0,0-.324.75h-2.258a2.268,2.268,0,0,1,.453-1.359,3,3,0,0,1,1.281-.98,4.669,4.669,0,0,1,1.859-.355,3.689,3.689,0,0,1,2.48.785,2.747,2.747,0,0,1,.918,2.207v3.664a4.041,4.041,0,0,0,.336,1.82V0Zm-1.867-1.57a1.945,1.945,0,0,0,.922-.223,1.462,1.462,0,0,0,.625-.6V-3.844h-.844q-1.7,0-1.8,1.172l-.008.133a.9.9,0,0,0,.3.7A1.153,1.153,0,0,0-72.355-1.57Zm7.664-6.883.07.945a2.971,2.971,0,0,1,2.43-1.1A2.255,2.255,0,0,1-59.949-7.32,2.9,2.9,0,0,1-57.41-8.609a2.521,2.521,0,0,1,2.047.8,3.681,3.681,0,0,1,.672,2.41V0h-2.266V-5.391a1.61,1.61,0,0,0-.281-1.051,1.246,1.246,0,0,0-.992-.332,1.409,1.409,0,0,0-1.406.969l.008,5.8h-2.258V-5.383a1.59,1.59,0,0,0-.289-1.062,1.259,1.259,0,0,0-.984-.328,1.463,1.463,0,0,0-1.391.8V0h-2.258V-8.453ZM-50.574,0H-52.84V-8.453h2.266Zm-2.4-10.641a1.112,1.112,0,0,1,.34-.836,1.277,1.277,0,0,1,.926-.328,1.28,1.28,0,0,1,.922.328,1.105,1.105,0,0,1,.344.836,1.108,1.108,0,0,1-.348.844,1.283,1.283,0,0,1-.918.328,1.283,1.283,0,0,1-.918-.328A1.108,1.108,0,0,1-52.973-10.641Zm8.148,10.8A4.15,4.15,0,0,1-47.852-.984,4.054,4.054,0,0,1-49.02-4.023v-.219a5.106,5.106,0,0,1,.492-2.277,3.612,3.612,0,0,1,1.395-1.547,3.914,3.914,0,0,1,2.059-.543,3.508,3.508,0,0,1,2.73,1.094,4.444,4.444,0,0,1,1,3.1v.922H-46.73a2.1,2.1,0,0,0,.66,1.328,2,2,0,0,0,1.395.5,2.437,2.437,0,0,0,2.039-.945l1.109,1.242A3.389,3.389,0,0,1-42.9-.246,4.511,4.511,0,0,1-44.824.156Zm-.258-6.937a1.414,1.414,0,0,0-1.09.453,2.341,2.341,0,0,0-.535,1.3h3.141v-.18a1.669,1.669,0,0,0-.406-1.16A1.459,1.459,0,0,0-45.082-6.781Zm7.094-1.672.07.977a2.951,2.951,0,0,1,2.43-1.133,2.453,2.453,0,0,1,2,.789,3.682,3.682,0,0,1,.672,2.359V0h-2.258V-5.406a1.465,1.465,0,0,0-.312-1.043,1.4,1.4,0,0,0-1.039-.324,1.553,1.553,0,0,0-1.43.813V0h-2.258V-8.453Zm9.586-2.078v2.078h1.445V-6.8H-28.4v4.219a1.007,1.007,0,0,0,.18.672.9.9,0,0,0,.688.2,3.6,3.6,0,0,0,.664-.055V-.047a4.648,4.648,0,0,1-1.367.2,2.156,2.156,0,0,1-2.422-2.4V-6.8h-1.234V-8.453h1.234v-2.078ZM-26.285-4.3A5.013,5.013,0,0,1-25.8-6.547,3.546,3.546,0,0,1-24.406-8.07a4.069,4.069,0,0,1,2.113-.539A3.849,3.849,0,0,1-19.5-7.562a4.2,4.2,0,0,1,1.207,2.844l.016.578A4.418,4.418,0,0,1-19.363-1.02,3.775,3.775,0,0,1-22.277.156,3.793,3.793,0,0,1-25.2-1.016,4.5,4.5,0,0,1-26.285-4.2Zm2.258.164a3.151,3.151,0,0,0,.453,1.84,1.5,1.5,0,0,0,1.3.637A1.5,1.5,0,0,0-21-2.293,3.448,3.448,0,0,0-20.535-4.3,3.12,3.12,0,0,0-21-6.133a1.5,1.5,0,0,0-1.3-.648,1.475,1.475,0,0,0-1.281.645A3.506,3.506,0,0,0-24.027-4.141Zm18.734-.008A5.07,5.07,0,0,1-6.18-1.02,2.843,2.843,0,0,1-8.574.156a2.633,2.633,0,0,1-2.07-.891V3.25H-12.9v-11.7h2.094l.078.828A2.654,2.654,0,0,1-8.59-8.609,2.862,2.862,0,0,1-6.16-7.453a5.207,5.207,0,0,1,.867,3.188Zm-2.258-.164a3.327,3.327,0,0,0-.418-1.82,1.361,1.361,0,0,0-1.215-.641,1.478,1.478,0,0,0-1.461.813V-2.5a1.5,1.5,0,0,0,1.477.836Q-7.551-1.664-7.551-4.312Zm3.3.008a5.013,5.013,0,0,1,.484-2.242A3.546,3.546,0,0,1-2.367-8.07,4.069,4.069,0,0,1-.254-8.609,3.849,3.849,0,0,1,2.539-7.562,4.2,4.2,0,0,1,3.746-4.719l.016.578A4.418,4.418,0,0,1,2.676-1.02,3.775,3.775,0,0,1-.238.156,3.793,3.793,0,0,1-3.156-1.016,4.5,4.5,0,0,1-4.246-4.2Zm2.258.164A3.151,3.151,0,0,0-1.535-2.3a1.5,1.5,0,0,0,1.3.637,1.5,1.5,0,0,0,1.281-.629A3.448,3.448,0,0,0,1.5-4.3a3.12,3.12,0,0,0-.461-1.828,1.5,1.5,0,0,0-1.3-.648,1.475,1.475,0,0,0-1.281.645A3.506,3.506,0,0,0-1.988-4.141ZM9.73-2.336a.727.727,0,0,0-.41-.652A4.659,4.659,0,0,0,8-3.414Q4.988-4.047,4.988-5.977a2.323,2.323,0,0,1,.934-1.879,3.766,3.766,0,0,1,2.441-.754,4.053,4.053,0,0,1,2.574.758A2.388,2.388,0,0,1,11.9-5.883H9.645a1.092,1.092,0,0,0-.312-.8A1.322,1.322,0,0,0,8.355-7a1.351,1.351,0,0,0-.883.258.814.814,0,0,0-.312.656.7.7,0,0,0,.355.605,3.657,3.657,0,0,0,1.2.4,9.8,9.8,0,0,1,1.422.379A2.336,2.336,0,0,1,11.926-2.43a2.2,2.2,0,0,1-.992,1.871A4.28,4.28,0,0,1,8.371.156,4.47,4.47,0,0,1,6.484-.223,3.166,3.166,0,0,1,5.191-1.262a2.414,2.414,0,0,1-.469-1.426H6.863a1.179,1.179,0,0,0,.445.922,1.766,1.766,0,0,0,1.109.32,1.635,1.635,0,0,0,.98-.246A.766.766,0,0,0,9.73-2.336Zm6.352-8.2v2.078h1.445V-6.8H16.082v4.219a1.007,1.007,0,0,0,.18.672.9.9,0,0,0,.688.2,3.6,3.6,0,0,0,.664-.055V-.047a4.648,4.648,0,0,1-1.367.2,2.156,2.156,0,0,1-2.422-2.4V-6.8H12.59V-8.453h1.234v-2.078ZM22.676.156A4.15,4.15,0,0,1,19.648-.984,4.054,4.054,0,0,1,18.48-4.023v-.219a5.106,5.106,0,0,1,.492-2.277,3.612,3.612,0,0,1,1.395-1.547,3.914,3.914,0,0,1,2.059-.543,3.508,3.508,0,0,1,2.73,1.094,4.444,4.444,0,0,1,1,3.1v.922H20.77a2.1,2.1,0,0,0,.66,1.328,2,2,0,0,0,1.395.5,2.437,2.437,0,0,0,2.039-.945l1.109,1.242A3.389,3.389,0,0,1,24.6-.246,4.511,4.511,0,0,1,22.676.156Zm-.258-6.937a1.414,1.414,0,0,0-1.09.453,2.341,2.341,0,0,0-.535,1.3h3.141v-.18a1.669,1.669,0,0,0-.406-1.16A1.459,1.459,0,0,0,22.418-6.781Zm9.766.445a6.134,6.134,0,0,0-.812-.062,1.654,1.654,0,0,0-1.68.867V0H27.434V-8.453h2.133l.063,1.008a2.092,2.092,0,0,1,1.883-1.164,2.366,2.366,0,0,1,.7.1ZM35.652,0H33.387V-8.453h2.266Zm-2.4-10.641a1.112,1.112,0,0,1,.34-.836,1.277,1.277,0,0,1,.926-.328,1.28,1.28,0,0,1,.922.328,1.105,1.105,0,0,1,.344.836,1.108,1.108,0,0,1-.348.844,1.283,1.283,0,0,1-.918.328A1.283,1.283,0,0,1,33.6-9.8,1.108,1.108,0,0,1,33.254-10.641ZM37.16-4.3a5.013,5.013,0,0,1,.484-2.242A3.546,3.546,0,0,1,39.039-8.07a4.069,4.069,0,0,1,2.113-.539,3.849,3.849,0,0,1,2.793,1.047,4.2,4.2,0,0,1,1.207,2.844l.016.578A4.418,4.418,0,0,1,44.082-1.02,3.775,3.775,0,0,1,41.168.156,3.793,3.793,0,0,1,38.25-1.016,4.5,4.5,0,0,1,37.16-4.2Zm2.258.164a3.151,3.151,0,0,0,.453,1.84,1.5,1.5,0,0,0,1.3.637,1.5,1.5,0,0,0,1.281-.629A3.448,3.448,0,0,0,42.91-4.3a3.12,3.12,0,0,0-.461-1.828,1.5,1.5,0,0,0-1.3-.648,1.475,1.475,0,0,0-1.281.645A3.506,3.506,0,0,0,39.418-4.141Zm11.891-2.2A6.134,6.134,0,0,0,50.5-6.4a1.654,1.654,0,0,0-1.68.867V0H46.559V-8.453h2.133l.063,1.008a2.092,2.092,0,0,1,1.883-1.164,2.366,2.366,0,0,1,.7.1ZM61.277,0a2.507,2.507,0,0,1-.227-.758,2.732,2.732,0,0,1-2.133.914,3,3,0,0,1-2.059-.719,2.312,2.312,0,0,1-.816-1.812,2.389,2.389,0,0,1,1-2.062,4.915,4.915,0,0,1,2.879-.727h1.039v-.484a1.393,1.393,0,0,0-.3-.937,1.183,1.183,0,0,0-.949-.352,1.345,1.345,0,0,0-.895.273.929.929,0,0,0-.324.75H56.23a2.268,2.268,0,0,1,.453-1.359,3,3,0,0,1,1.281-.98,4.669,4.669,0,0,1,1.859-.355,3.689,3.689,0,0,1,2.48.785,2.747,2.747,0,0,1,.918,2.207v3.664a4.041,4.041,0,0,0,.336,1.82V0ZM59.41-1.57a1.945,1.945,0,0,0,.922-.223,1.462,1.462,0,0,0,.625-.6V-3.844h-.844q-1.7,0-1.8,1.172l-.008.133a.9.9,0,0,0,.3.7A1.153,1.153,0,0,0,59.41-1.57ZM71.324,0H69.059V-12h2.266Zm6.758,0a2.507,2.507,0,0,1-.227-.758,2.732,2.732,0,0,1-2.133.914,3,3,0,0,1-2.059-.719,2.312,2.312,0,0,1-.816-1.812,2.389,2.389,0,0,1,1-2.062,4.915,4.915,0,0,1,2.879-.727h1.039v-.484a1.393,1.393,0,0,0-.3-.937,1.183,1.183,0,0,0-.949-.352,1.345,1.345,0,0,0-.895.273.929.929,0,0,0-.324.75H73.035a2.268,2.268,0,0,1,.453-1.359,3,3,0,0,1,1.281-.98,4.669,4.669,0,0,1,1.859-.355,3.689,3.689,0,0,1,2.48.785,2.747,2.747,0,0,1,.918,2.207v3.664a4.041,4.041,0,0,0,.336,1.82V0ZM76.215-1.57a1.945,1.945,0,0,0,.922-.223,1.462,1.462,0,0,0,.625-.6V-3.844h-.844q-1.7,0-1.8,1.172l-.008.133a.9.9,0,0,0,.3.7A1.153,1.153,0,0,0,76.215-1.57Zm13.047-.094a1.481,1.481,0,0,0,1.016-.344,1.2,1.2,0,0,0,.406-.914H92.8a2.9,2.9,0,0,1-.469,1.574A3.093,3.093,0,0,1,91.07-.238,3.949,3.949,0,0,1,89.3.156,3.67,3.67,0,0,1,86.441-1,4.56,4.56,0,0,1,85.395-4.18v-.148a4.508,4.508,0,0,1,1.039-3.117,3.627,3.627,0,0,1,2.852-1.164,3.555,3.555,0,0,1,2.543.9A3.2,3.2,0,0,1,92.8-5.3H90.684a1.539,1.539,0,0,0-.406-1.066,1.358,1.358,0,0,0-1.031-.41,1.361,1.361,0,0,0-1.191.574,3.324,3.324,0,0,0-.4,1.863v.234a3.366,3.366,0,0,0,.4,1.875A1.378,1.378,0,0,0,89.262-1.664ZM93.738-4.3a5.013,5.013,0,0,1,.484-2.242A3.546,3.546,0,0,1,95.617-8.07a4.069,4.069,0,0,1,2.113-.539,3.849,3.849,0,0,1,2.793,1.047,4.2,4.2,0,0,1,1.207,2.844l.016.578A4.418,4.418,0,0,1,100.66-1.02,3.775,3.775,0,0,1,97.746.156a3.793,3.793,0,0,1-2.918-1.172A4.5,4.5,0,0,1,93.738-4.2ZM96-4.141a3.151,3.151,0,0,0,.453,1.84,1.5,1.5,0,0,0,1.3.637,1.5,1.5,0,0,0,1.281-.629A3.448,3.448,0,0,0,99.488-4.3a3.12,3.12,0,0,0-.461-1.828,1.5,1.5,0,0,0-1.3-.648,1.475,1.475,0,0,0-1.281.645A3.506,3.506,0,0,0,96-4.141Zm9.258-4.312.07.945a2.971,2.971,0,0,1,2.43-1.1A2.255,2.255,0,0,1,110-7.32a2.9,2.9,0,0,1,2.539-1.289,2.521,2.521,0,0,1,2.047.8,3.681,3.681,0,0,1,.672,2.41V0h-2.266V-5.391a1.61,1.61,0,0,0-.281-1.051,1.246,1.246,0,0,0-.992-.332,1.409,1.409,0,0,0-1.406.969l.008,5.8h-2.258V-5.383a1.59,1.59,0,0,0-.289-1.062,1.259,1.259,0,0,0-.984-.328,1.463,1.463,0,0,0-1.391.8V0h-2.258V-8.453Zm19.344,4.3a5.07,5.07,0,0,1-.887,3.129A2.843,2.843,0,0,1,121.316.156a2.633,2.633,0,0,1-2.07-.891V3.25h-2.258v-11.7h2.094l.078.828a2.654,2.654,0,0,1,2.141-.984,2.862,2.862,0,0,1,2.43,1.156,5.207,5.207,0,0,1,.867,3.188Zm-2.258-.164a3.327,3.327,0,0,0-.418-1.82,1.361,1.361,0,0,0-1.215-.641,1.478,1.478,0,0,0-1.461.813V-2.5a1.5,1.5,0,0,0,1.477.836Q122.34-1.664,122.34-4.312Zm8.406-2.023a6.134,6.134,0,0,0-.812-.062,1.654,1.654,0,0,0-1.68.867V0H126V-8.453h2.133l.063,1.008a2.092,2.092,0,0,1,1.883-1.164,2.366,2.366,0,0,1,.7.1ZM136.5,0a2.507,2.507,0,0,1-.227-.758,2.732,2.732,0,0,1-2.133.914,3,3,0,0,1-2.059-.719,2.312,2.312,0,0,1-.816-1.812,2.389,2.389,0,0,1,1-2.062,4.915,4.915,0,0,1,2.879-.727h1.039v-.484a1.393,1.393,0,0,0-.3-.937,1.183,1.183,0,0,0-.949-.352,1.345,1.345,0,0,0-.895.273.929.929,0,0,0-.324.75h-2.258a2.268,2.268,0,0,1,.453-1.359,3,3,0,0,1,1.281-.98,4.669,4.669,0,0,1,1.859-.355,3.689,3.689,0,0,1,2.48.785,2.747,2.747,0,0,1,.918,2.207v3.664a4.041,4.041,0,0,0,.336,1.82V0Zm-1.867-1.57a1.945,1.945,0,0,0,.922-.223,1.462,1.462,0,0,0,.625-.6V-3.844h-.844q-1.7,0-1.8,1.172l-.008.133a.9.9,0,0,0,.3.7A1.153,1.153,0,0,0,134.629-1.57Z" transform="translate(630 5446)" fill="#12263f"/>
    <g id="Trazado_145072" data-name="Trazado 145072" transform="translate(400 5535)" fill="#fff5d0">
      <path d="M 215 63 L 10 63 C 5.037382125854492 63 1 58.96261596679688 1 54 L 1 10 C 1 5.037382125854492 5.037382125854492 1 10 1 L 215 1 C 219.9626159667969 1 224 5.037382125854492 224 10 L 224 54 C 224 58.96261596679688 219.9626159667969 63 215 63 Z" stroke="none"/>
      <path d="M 10 2 C 5.588790893554688 2 2 5.588794708251953 2 10 L 2 54 C 2 58.41120529174805 5.588790893554688 62 10 62 L 215 62 C 219.4112091064453 62 223 58.41120529174805 223 54 L 223 10 C 223 5.588794708251953 219.4112091064453 2 215 2 L 10 2 M 10 0 L 215 0 C 220.5228576660156 0 225 4.477146148681641 225 10 L 225 54 C 225 59.52285385131836 220.5228576660156 64 215 64 L 10 64 C 4.477142333984375 64 0 59.52285385131836 0 54 L 0 10 C 0 4.477146148681641 4.477142333984375 0 10 0 Z" stroke="none" fill="#f1d54e"/>
    </g>
    <path id="Trazado_145074" data-name="Trazado 145074" d="M-31.5-2.984A1.2,1.2,0,0,0-31.969-4a6.148,6.148,0,0,0-1.687-.75,11.963,11.963,0,0,1-1.93-.777,3.153,3.153,0,0,1-1.937-2.82A2.747,2.747,0,0,1-37-10a3.389,3.389,0,0,1,1.492-1.129,5.616,5.616,0,0,1,2.184-.406,5.112,5.112,0,0,1,2.172.441,3.458,3.458,0,0,1,1.48,1.246,3.261,3.261,0,0,1,.527,1.828h-2.344a1.534,1.534,0,0,0-.492-1.215,2.023,2.023,0,0,0-1.383-.434A2.162,2.162,0,0,0-34.7-9.3a1.146,1.146,0,0,0-.477.957,1.1,1.1,0,0,0,.559.93,6.311,6.311,0,0,0,1.645.7,7.106,7.106,0,0,1,2.914,1.492A2.972,2.972,0,0,1-29.148-3,2.737,2.737,0,0,1-30.266-.684a4.891,4.891,0,0,1-3.008.84,5.808,5.808,0,0,1-2.391-.48,3.783,3.783,0,0,1-1.645-1.316,3.371,3.371,0,0,1-.566-1.937h2.352q0,1.883,2.25,1.883a2.189,2.189,0,0,0,1.3-.34A1.106,1.106,0,0,0-31.5-2.984ZM-22.812,0a2.507,2.507,0,0,1-.227-.758,2.732,2.732,0,0,1-2.133.914A3,3,0,0,1-27.23-.562a2.312,2.312,0,0,1-.816-1.812,2.389,2.389,0,0,1,1-2.062,4.915,4.915,0,0,1,2.879-.727h1.039v-.484a1.393,1.393,0,0,0-.3-.937,1.183,1.183,0,0,0-.949-.352,1.345,1.345,0,0,0-.895.273.929.929,0,0,0-.324.75h-2.258a2.268,2.268,0,0,1,.453-1.359,3,3,0,0,1,1.281-.98,4.669,4.669,0,0,1,1.859-.355,3.689,3.689,0,0,1,2.48.785,2.747,2.747,0,0,1,.918,2.207v3.664a4.041,4.041,0,0,0,.336,1.82V0ZM-24.68-1.57a1.945,1.945,0,0,0,.922-.223,1.462,1.462,0,0,0,.625-.6V-3.844h-.844q-1.7,0-1.8,1.172l-.008.133a.9.9,0,0,0,.3.7A1.153,1.153,0,0,0-24.68-1.57Zm8.25-8.961v2.078h1.445V-6.8H-16.43v4.219a1.007,1.007,0,0,0,.18.672.9.9,0,0,0,.688.2,3.6,3.6,0,0,0,.664-.055V-.047a4.648,4.648,0,0,1-1.367.2,2.156,2.156,0,0,1-2.422-2.4V-6.8h-1.234V-8.453h1.234v-2.078ZM-11.344,0h-2.266V-8.453h2.266Zm-2.4-10.641a1.112,1.112,0,0,1,.34-.836,1.277,1.277,0,0,1,.926-.328,1.28,1.28,0,0,1,.922.328,1.105,1.105,0,0,1,.344.836,1.108,1.108,0,0,1-.348.844,1.283,1.283,0,0,1-.918.328,1.283,1.283,0,0,1-.918-.328A1.108,1.108,0,0,1-13.742-10.641Zm8.836,8.3a.727.727,0,0,0-.41-.652,4.659,4.659,0,0,0-1.316-.426q-3.016-.633-3.016-2.562a2.323,2.323,0,0,1,.934-1.879,3.766,3.766,0,0,1,2.441-.754A4.053,4.053,0,0,1-3.7-7.852a2.388,2.388,0,0,1,.965,1.969H-4.992a1.092,1.092,0,0,0-.312-.8A1.322,1.322,0,0,0-6.281-7a1.351,1.351,0,0,0-.883.258.814.814,0,0,0-.312.656.7.7,0,0,0,.355.605,3.657,3.657,0,0,0,1.2.4A9.8,9.8,0,0,1-4.5-4.7,2.336,2.336,0,0,1-2.711-2.43,2.2,2.2,0,0,1-3.7-.559,4.28,4.28,0,0,1-6.266.156,4.47,4.47,0,0,1-8.152-.223,3.166,3.166,0,0,1-9.445-1.262a2.414,2.414,0,0,1-.469-1.426h2.141a1.179,1.179,0,0,0,.445.922,1.766,1.766,0,0,0,1.109.32,1.635,1.635,0,0,0,.98-.246A.766.766,0,0,0-4.906-2.336ZM-.641,0V-6.8H-1.9V-8.453H-.641v-.719a2.918,2.918,0,0,1,.816-2.207,3.162,3.162,0,0,1,2.285-.785,5.278,5.278,0,0,1,1.148.156l-.023,1.75a2.878,2.878,0,0,0-.687-.07q-1.273,0-1.273,1.2v.68H3.3V-6.8H1.625V0ZM8.18.156A4.15,4.15,0,0,1,5.152-.984,4.054,4.054,0,0,1,3.984-4.023v-.219A5.106,5.106,0,0,1,4.477-6.52,3.612,3.612,0,0,1,5.871-8.066,3.914,3.914,0,0,1,7.93-8.609a3.508,3.508,0,0,1,2.73,1.094,4.444,4.444,0,0,1,1,3.1v.922H6.273a2.1,2.1,0,0,0,.66,1.328,2,2,0,0,0,1.395.5,2.437,2.437,0,0,0,2.039-.945l1.109,1.242A3.389,3.389,0,0,1,10.1-.246,4.511,4.511,0,0,1,8.18.156ZM7.922-6.781a1.414,1.414,0,0,0-1.09.453,2.341,2.341,0,0,0-.535,1.3H9.438v-.18a1.669,1.669,0,0,0-.406-1.16A1.459,1.459,0,0,0,7.922-6.781Zm8.531,5.117a1.481,1.481,0,0,0,1.016-.344,1.2,1.2,0,0,0,.406-.914h2.117a2.9,2.9,0,0,1-.469,1.574A3.093,3.093,0,0,1,18.262-.238a3.949,3.949,0,0,1-1.77.395A3.67,3.67,0,0,1,13.633-1,4.56,4.56,0,0,1,12.586-4.18v-.148a4.508,4.508,0,0,1,1.039-3.117,3.627,3.627,0,0,1,2.852-1.164,3.555,3.555,0,0,1,2.543.9,3.2,3.2,0,0,1,.973,2.4H17.875a1.539,1.539,0,0,0-.406-1.066,1.358,1.358,0,0,0-1.031-.41,1.361,1.361,0,0,0-1.191.574,3.324,3.324,0,0,0-.4,1.863v.234a3.366,3.366,0,0,0,.4,1.875A1.378,1.378,0,0,0,16.453-1.664Zm7.031-5.867a2.818,2.818,0,0,1,2.258-1.078q2.75,0,2.789,3.2V0H26.273V-5.352a1.57,1.57,0,0,0-.312-1.074,1.34,1.34,0,0,0-1.039-.348,1.537,1.537,0,0,0-1.437.766V0H21.227V-12h2.258Zm6.4,3.227a5.013,5.013,0,0,1,.484-2.242A3.546,3.546,0,0,1,31.762-8.07a4.069,4.069,0,0,1,2.113-.539,3.849,3.849,0,0,1,2.793,1.047,4.2,4.2,0,0,1,1.207,2.844l.016.578A4.418,4.418,0,0,1,36.8-1.02,3.775,3.775,0,0,1,33.891.156a3.793,3.793,0,0,1-2.918-1.172A4.5,4.5,0,0,1,29.883-4.2Zm2.258.164a3.151,3.151,0,0,0,.453,1.84,1.5,1.5,0,0,0,1.3.637,1.5,1.5,0,0,0,1.281-.629A3.448,3.448,0,0,0,35.633-4.3a3.12,3.12,0,0,0-.461-1.828,1.5,1.5,0,0,0-1.3-.648,1.475,1.475,0,0,0-1.281.645A3.506,3.506,0,0,0,32.141-4.141Z" transform="translate(508 5572)" fill="#12263f"/>
    <g id="Trazado_145073" data-name="Trazado 145073" transform="translate(638 5535)" fill="#fff5d0">
      <path d="M 215 63 L 10 63 C 5.037382125854492 63 1 58.96261596679688 1 54 L 1 10 C 1 5.037382125854492 5.037382125854492 1 10 1 L 215 1 C 219.9626159667969 1 224 5.037382125854492 224 10 L 224 54 C 224 58.96261596679688 219.9626159667969 63 215 63 Z" stroke="none"/>
      <path d="M 10 2 C 5.588790893554688 2 2 5.588794708251953 2 10 L 2 54 C 2 58.41120529174805 5.588790893554688 62 10 62 L 215 62 C 219.4112091064453 62 223 58.41120529174805 223 54 L 223 10 C 223 5.588794708251953 219.4112091064453 2 215 2 L 10 2 M 10 0 L 215 0 C 220.5228576660156 0 225 4.477146148681641 225 10 L 225 54 C 225 59.52285385131836 220.5228576660156 64 215 64 L 10 64 C 4.477142333984375 64 0 59.52285385131836 0 54 L 0 10 C 0 4.477146148681641 4.477142333984375 0 10 0 Z" stroke="none" fill="#f1d54e"/>
    </g>
    <path id="Trazado_145075" data-name="Trazado 145075" d="M-40.914,0h-2.344V-11.375h2.344Zm4.1-8.453.07.977a2.951,2.951,0,0,1,2.43-1.133,2.453,2.453,0,0,1,2,.789,3.682,3.682,0,0,1,.672,2.359V0H-33.9V-5.406a1.465,1.465,0,0,0-.312-1.043,1.4,1.4,0,0,0-1.039-.324,1.553,1.553,0,0,0-1.43.813V0h-2.258V-8.453Zm11.461,6.117a.727.727,0,0,0-.41-.652,4.659,4.659,0,0,0-1.316-.426q-3.016-.633-3.016-2.562a2.323,2.323,0,0,1,.934-1.879,3.766,3.766,0,0,1,2.441-.754,4.053,4.053,0,0,1,2.574.758,2.388,2.388,0,0,1,.965,1.969h-2.258a1.092,1.092,0,0,0-.312-.8A1.322,1.322,0,0,0-26.727-7a1.351,1.351,0,0,0-.883.258.814.814,0,0,0-.312.656.7.7,0,0,0,.355.605,3.657,3.657,0,0,0,1.2.4,9.8,9.8,0,0,1,1.422.379A2.336,2.336,0,0,1-23.156-2.43a2.2,2.2,0,0,1-.992,1.871,4.28,4.28,0,0,1-2.562.715A4.47,4.47,0,0,1-28.6-.223a3.166,3.166,0,0,1-1.293-1.039,2.414,2.414,0,0,1-.469-1.426h2.141a1.179,1.179,0,0,0,.445.922,1.766,1.766,0,0,0,1.109.32,1.635,1.635,0,0,0,.98-.246A.766.766,0,0,0-25.352-2.336ZM-16.8,0a2.507,2.507,0,0,1-.227-.758,2.732,2.732,0,0,1-2.133.914,3,3,0,0,1-2.059-.719,2.312,2.312,0,0,1-.816-1.812,2.389,2.389,0,0,1,1-2.062,4.915,4.915,0,0,1,2.879-.727h1.039v-.484a1.393,1.393,0,0,0-.3-.937,1.183,1.183,0,0,0-.949-.352,1.345,1.345,0,0,0-.895.273.929.929,0,0,0-.324.75h-2.258A2.268,2.268,0,0,1-21.4-7.273a3,3,0,0,1,1.281-.98,4.669,4.669,0,0,1,1.859-.355,3.689,3.689,0,0,1,2.48.785,2.747,2.747,0,0,1,.918,2.207v3.664a4.041,4.041,0,0,0,.336,1.82V0Zm-1.867-1.57a1.945,1.945,0,0,0,.922-.223,1.462,1.462,0,0,0,.625-.6V-3.844h-.844q-1.7,0-1.8,1.172l-.008.133a.9.9,0,0,0,.3.7A1.153,1.153,0,0,0-18.672-1.57Zm8.25-8.961v2.078h1.445V-6.8h-1.445v4.219a1.007,1.007,0,0,0,.18.672.9.9,0,0,0,.688.2,3.6,3.6,0,0,0,.664-.055V-.047a4.648,4.648,0,0,1-1.367.2,2.156,2.156,0,0,1-2.422-2.4V-6.8h-1.234V-8.453h1.234v-2.078ZM-5.336,0H-7.6V-8.453h2.266Zm-2.4-10.641a1.112,1.112,0,0,1,.34-.836,1.277,1.277,0,0,1,.926-.328,1.28,1.28,0,0,1,.922.328,1.105,1.105,0,0,1,.344.836,1.108,1.108,0,0,1-.348.844,1.283,1.283,0,0,1-.918.328A1.283,1.283,0,0,1-7.387-9.8,1.108,1.108,0,0,1-7.734-10.641ZM1.1-2.336a.727.727,0,0,0-.41-.652A4.659,4.659,0,0,0-.625-3.414q-3.016-.633-3.016-2.562a2.323,2.323,0,0,1,.934-1.879A3.766,3.766,0,0,1-.266-8.609a4.053,4.053,0,0,1,2.574.758,2.388,2.388,0,0,1,.965,1.969H1.016a1.092,1.092,0,0,0-.312-.8A1.322,1.322,0,0,0-.273-7a1.351,1.351,0,0,0-.883.258.814.814,0,0,0-.312.656.7.7,0,0,0,.355.605,3.657,3.657,0,0,0,1.2.4A9.8,9.8,0,0,1,1.508-4.7,2.336,2.336,0,0,1,3.3-2.43,2.2,2.2,0,0,1,2.3-.559,4.28,4.28,0,0,1-.258.156,4.47,4.47,0,0,1-2.145-.223,3.166,3.166,0,0,1-3.437-1.262a2.414,2.414,0,0,1-.469-1.426h2.141a1.179,1.179,0,0,0,.445.922,1.766,1.766,0,0,0,1.109.32,1.635,1.635,0,0,0,.98-.246A.766.766,0,0,0,1.1-2.336ZM5.367,0V-6.8H4.109V-8.453H5.367v-.719a2.918,2.918,0,0,1,.816-2.207,3.162,3.162,0,0,1,2.285-.785,5.278,5.278,0,0,1,1.148.156l-.023,1.75a2.878,2.878,0,0,0-.687-.07q-1.273,0-1.273,1.2v.68h1.68V-6.8H7.633V0Zm8.82.156A4.15,4.15,0,0,1,11.16-.984,4.054,4.054,0,0,1,9.992-4.023v-.219a5.106,5.106,0,0,1,.492-2.277,3.612,3.612,0,0,1,1.395-1.547,3.914,3.914,0,0,1,2.059-.543,3.508,3.508,0,0,1,2.73,1.094,4.444,4.444,0,0,1,1,3.1v.922H12.281a2.1,2.1,0,0,0,.66,1.328,2,2,0,0,0,1.395.5,2.437,2.437,0,0,0,2.039-.945l1.109,1.242A3.389,3.389,0,0,1,16.109-.246,4.511,4.511,0,0,1,14.188.156ZM13.93-6.781a1.414,1.414,0,0,0-1.09.453,2.341,2.341,0,0,0-.535,1.3h3.141v-.18a1.669,1.669,0,0,0-.406-1.16A1.459,1.459,0,0,0,13.93-6.781Zm8.531,5.117a1.481,1.481,0,0,0,1.016-.344,1.2,1.2,0,0,0,.406-.914H26a2.9,2.9,0,0,1-.469,1.574A3.093,3.093,0,0,1,24.27-.238,3.949,3.949,0,0,1,22.5.156,3.67,3.67,0,0,1,19.641-1,4.56,4.56,0,0,1,18.594-4.18v-.148a4.508,4.508,0,0,1,1.039-3.117,3.627,3.627,0,0,1,2.852-1.164,3.555,3.555,0,0,1,2.543.9A3.2,3.2,0,0,1,26-5.3H23.883a1.539,1.539,0,0,0-.406-1.066,1.358,1.358,0,0,0-1.031-.41,1.361,1.361,0,0,0-1.191.574,3.324,3.324,0,0,0-.4,1.863v.234a3.366,3.366,0,0,0,.4,1.875A1.378,1.378,0,0,0,22.461-1.664Zm7.031-5.867A2.818,2.818,0,0,1,31.75-8.609q2.75,0,2.789,3.2V0H32.281V-5.352a1.57,1.57,0,0,0-.312-1.074,1.34,1.34,0,0,0-1.039-.348,1.537,1.537,0,0,0-1.437.766V0H27.234V-12h2.258Zm6.4,3.227a5.013,5.013,0,0,1,.484-2.242A3.546,3.546,0,0,1,37.77-8.07a4.069,4.069,0,0,1,2.113-.539,3.849,3.849,0,0,1,2.793,1.047,4.2,4.2,0,0,1,1.207,2.844l.016.578A4.418,4.418,0,0,1,42.813-1.02,3.775,3.775,0,0,1,39.9.156,3.793,3.793,0,0,1,36.98-1.016,4.5,4.5,0,0,1,35.891-4.2Zm2.258.164A3.151,3.151,0,0,0,38.6-2.3a1.5,1.5,0,0,0,1.3.637,1.5,1.5,0,0,0,1.281-.629A3.448,3.448,0,0,0,41.641-4.3a3.12,3.12,0,0,0-.461-1.828,1.5,1.5,0,0,0-1.3-.648,1.475,1.475,0,0,0-1.281.645A3.506,3.506,0,0,0,38.148-4.141Z" transform="translate(746 5572)" fill="#12263f"/>
    <path id="Trazado_145060" data-name="Trazado 145060" d="M7.5,0,15,13H0Z" transform="translate(811 5095) rotate(-90)" fill="#fb9e36"/>
    <path id="Trazado_145061" data-name="Trazado 145061" d="M7.5,0,15,13H0Z" transform="translate(813 5160) rotate(90)" fill="#fb9e36"/>
    <path id="Trazado_145065" data-name="Trazado 145065" d="M7.5,0,15,13H0Z" transform="translate(807 5342) rotate(90)" fill="#fb9e36"/>
    <path id="Trazado_142578" data-name="Trazado 142578" d="M-2930.141-6620.5h32.352v-100.221" transform="translate(3754 11708)" fill="none" stroke="#fb9e36" stroke-width="1"/>
    <path id="Trazado_142579" data-name="Trazado 142579" d="M-3129-6588v46.969h174.057" transform="translate(3754 11708)" fill="none" stroke="#fb9e36" stroke-width="1"/>
    <path id="Trazado_142580" data-name="Trazado 142580" d="M-2936.5-6452.5h147.691v-54.7" transform="translate(3754 11708)" fill="none" stroke="#fb9e36" stroke-width="1"/>
    <path id="Trazado_145066" data-name="Trazado 145066" d="M7.5,0,15,13H0Z" transform="translate(811 5264) rotate(-90)" fill="#fb9e36"/>
    <path id="Trazado_142581" data-name="Trazado 142581" d="M-3129-6420v61.346h171.664" transform="translate(3754 11708)" fill="none" stroke="#fb9e36" stroke-width="1"/>
    <path id="Trazado_145069" data-name="Trazado 145069" d="M7.5,0,15,13H0Z" transform="translate(811 5448) rotate(-90)" fill="#fb9e36"/>
    <path id="Trazado_142582" data-name="Trazado 142582" d="M-2936.5-6455.7h147.691v-51.5" transform="translate(3754 11896.199)" fill="none" stroke="#fb9e36" stroke-width="1"/>
    <path id="Trazado_142583" data-name="Trazado 142583" d="M-3246-6186.526v-16.727h247.578v16.727" transform="translate(3754 11708)" fill="none" stroke="#fb9e36" stroke-width="1"/>
    <path id="Trazado_145070" data-name="Trazado 145070" d="M7.5,0,15,13H0Z" transform="translate(516 5528) rotate(180)" fill="#fb9e36"/>
    <path id="Trazado_145071" data-name="Trazado 145071" d="M7.5,0,15,13H0Z" transform="translate(763 5528) rotate(180)" fill="#fb9e36"/>
    <path id="Trazado_142584" data-name="Trazado 142584" d="M-3127.4-6235v31.517" transform="translate(3759.187 11708)" fill="none" stroke="#fb9e36" stroke-width="1"/>
  </g>
</svg>
