<svg xmlns="http://www.w3.org/2000/svg" width="241" height="198" viewBox="0 0 241 198">
  <g id="Grupo_97114" data-name="Grupo 97114" transform="translate(-277.919 -585)">
    <rect id="Rectángulo_32944" data-name="Rectángulo 32944" width="241" height="198" transform="translate(277.919 585)" fill="#e8fff5"/>
    <g id="estadisticas" transform="translate(328.493 611.951)">
      <path id="Trazado_140896" data-name="Trazado 140896" d="M385.422,396.747l-26.8-26.8a1.6,1.6,0,0,1,0-2.265l9.06-9.06a1.6,1.6,0,0,1,2.265,0l26.8,26.8a1.6,1.6,0,0,1,0,2.265l-9.06,9.06A1.6,1.6,0,0,1,385.422,396.747Z" transform="translate(-262.546 -262.546)" fill="#f1d54e"/>
      <path id="Trazado_140897" data-name="Trazado 140897" d="M378.3,358.619l-5.663,5.663a1.6,1.6,0,0,1,2.265,0l26.8,26.8a1.6,1.6,0,0,1,0,2.265l5.663-5.663a1.6,1.6,0,0,0,0-2.265l-26.8-26.8A1.6,1.6,0,0,0,378.3,358.619Z" transform="translate(-273.165 -262.546)" fill="#f7e799"/>
      <path id="Trazado_140898" data-name="Trazado 140898" d="M0,0H8.008V17.454H0Z" transform="translate(85.41 91.092) rotate(-45)" fill="#17c878"/>
      <path id="Trazado_140899" data-name="Trazado 140899" d="M0,0H16.016V8.008H0Z" transform="translate(101.052 112.399) rotate(-45)" fill="#7be492"/>
      <path id="Trazado_140900" data-name="Trazado 140900" d="M0,0H8.008V8.008H0Z" transform="translate(106.715 106.738) rotate(-45)" fill="#45d987"/>
      <path id="Trazado_140913" data-name="Trazado 140913" d="M52.053,0A52.053,52.053,0,1,1,0,52.053,52.053,52.053,0,0,1,52.053,0Z" transform="translate(2.002 2.002)" fill="#17c878"/>
      <path id="Trazado_140901" data-name="Trazado 140901" d="M191.5,7.5q-2.021,0-4,.152a52.056,52.056,0,0,1,0,103.8q1.982.151,4,.152A52.053,52.053,0,0,0,191.5,7.5Z" transform="translate(-137.449 -5.498)" fill="#16a766"/>
      <circle id="Elipse_4444" data-name="Elipse 4444" cx="44.045" cy="44.045" r="44.045" transform="translate(10.01 10.01)" fill="#f3f3f3"/>
      <path id="Trazado_140902" data-name="Trazado 140902" d="M191.5,37.5c-1.35,0-2.685.065-4,.184a44.043,44.043,0,0,1,0,87.721c1.319.119,2.654.184,4,.184a44.045,44.045,0,0,0,0-88.089Z" transform="translate(-137.449 -27.49)" fill="#e4e4e4"/>
      <g id="Grupo_97112" data-name="Grupo 97112" transform="translate(30.698 20.287)">
        <path id="Trazado_140903" data-name="Trazado 140903" d="M131.016,138.558H115v-23.49A1.068,1.068,0,0,1,116.068,114h13.881a1.068,1.068,0,0,1,1.068,1.068Z" transform="translate(-115 -103.856)" fill="#f1d54e"/>
        <path id="Trazado_140904" data-name="Trazado 140904" d="M145,114v24.558h8.008v-23.49A1.068,1.068,0,0,0,151.94,114Z" transform="translate(-136.992 -103.856)" fill="#f2e192"/>
        <path id="Trazado_140905" data-name="Trazado 140905" d="M251.016,166.415H235V153.068A1.068,1.068,0,0,1,236.068,152h13.881a1.068,1.068,0,0,1,1.068,1.068Z" transform="translate(-202.968 -131.713)" fill="#17c878"/>
        <path id="Trazado_140906" data-name="Trazado 140906" d="M265,152v14.415h8.008V153.068A1.068,1.068,0,0,0,271.94,152Z" transform="translate(-224.959 -131.713)" fill="#45d987"/>
        <path id="Trazado_140907" data-name="Trazado 140907" d="M191.016,110.7H175V77.068A1.068,1.068,0,0,1,176.068,76h13.881a1.068,1.068,0,0,1,1.068,1.068Z" transform="translate(-158.984 -76)" fill="#fb9e36"/>
        <path id="Trazado_140908" data-name="Trazado 140908" d="M205,76v34.7h8.008V77.068A1.068,1.068,0,0,0,211.94,76Z" transform="translate(-180.976 -76)" fill="#f86f1b"/>
      </g>
      <g id="Grupo_97113" data-name="Grupo 97113" transform="translate(0)">
        <path id="Trazado_140909" data-name="Trazado 140909" d="M135.616,121.46l-1.95-1.95a2,2,0,0,0-2.831,2.831l1.666,1.667-8.493,8.494-14.44-14.439,8.494-8.494L124.8,116.3a2,2,0,0,0,2.831-2.831l-8.149-8.148,0,0-5.663-5.663,0,0-5-5a3.6,3.6,0,0,0-5.1,0l-.283.283L96.27,87.774a53.879,53.879,0,0,0,10.613-22.262H120.99a2,2,0,0,0,0-4h-13.4q.265-1.91.394-3.86h22.545a2,2,0,1,0,0-4H108.105q-.014-1.943-.162-3.86H120.99a2,2,0,1,0,0-4h-13.5A53.4,53.4,0,0,0,96.461,20.53a2,2,0,0,0-3.14,2.485,49.529,49.529,0,0,1,10.784,31.039,50.05,50.05,0,1,1-16.4-37.049A2,2,0,1,0,90.4,14.043a54.055,54.055,0,1,0-46.558,93.095v13.507a2,2,0,0,0,4,0V107.751q1.911.219,3.86.3v22a2,2,0,0,0,4,0V108.082q1.948-.059,3.86-.252v12.814a2,2,0,0,0,4,0V107.27a53.842,53.842,0,0,0,24.2-11l7.166,7.164-.283.283a3.6,3.6,0,0,0,0,5.1l5,5,0,0,5.663,5.663,0,0,16.134,16.134a3.6,3.6,0,0,0,5.1,0l9.06-9.06a3.6,3.6,0,0,0,0-5.1ZM93.647,90.814l6.955,6.956L97.771,100.6l-6.956-6.955q1.468-1.363,2.833-2.833Zm13.09,24.417-2.831-2.831,8.494-8.494,2.831,2.831Zm-.472-17.46,3.3,3.3-8.494,8.494-3.3-3.3Z" transform="translate(0 0)" fill="#0a5936"/>
        <path id="Trazado_140910" data-name="Trazado 140910" d="M48.16,112.695a46.962,46.962,0,0,0,27.88,9.4A46.047,46.047,0,1,0,76.04,30,45.5,45.5,0,0,0,43.588,43.5a46.521,46.521,0,0,0-13.6,32.521,45,45,0,0,0,11.585,30.646,2,2,0,1,0,2.977-2.678A41.008,41.008,0,0,1,34,76.068,42.535,42.535,0,0,1,46.425,46.33,41.525,41.525,0,0,1,76.04,34a42.043,42.043,0,0,1,.024,84.085,42.97,42.97,0,0,1-25.5-8.6,2,2,0,0,0-2.406,3.2Z" transform="translate(-21.985 -21.992)" fill="#0a5936"/>
        <path id="Trazado_140911" data-name="Trazado 140911" d="M127.61,68.5H113.73a3.073,3.073,0,0,0-3.07,3.07v7.074H97.713a3.073,3.073,0,0,0-3.07,3.07V103.2h-2.68a2,2,0,0,0,0,4h57.412a2,2,0,0,0,0-4H146.7V91.857a3.073,3.073,0,0,0-3.07-3.07H130.68V71.57A3.073,3.073,0,0,0,127.61,68.5ZM98.648,82.648H110.66V103.2H98.648ZM114.664,72.5h12.012v30.7H114.664Zm28.028,20.287V103.2H130.68V92.791Z" transform="translate(-65.948 -50.215)" fill="#262626"/>
        <path id="Trazado_140912" data-name="Trazado 140912" d="M161.7,243.5h-9.425l-4.282-10.945a2,2,0,0,0-3.742.033L138.4,248.367l-4.089-11.591a2,2,0,0,0-3.636-.31l-3.927,7.035h-9.4a2,2,0,0,0,0,4h10.576a2,2,0,0,0,1.748-1.026l2.339-4.19,4.455,12.629a2,2,0,0,0,1.872,1.336h.016a2,2,0,0,0,1.877-1.306l5.948-16.04,2.865,7.324a2,2,0,0,0,1.864,1.273H161.7a2,2,0,1,0,0-4Z" transform="translate(-84.554 -169.544)" fill="#fb9e36"/>
      </g>
    </g>
  </g>
</svg>
