<svg xmlns="http://www.w3.org/2000/svg" width="168" height="167" viewBox="0 0 168 167">
  <g id="Grupo_97196" data-name="Grupo 97196" transform="translate(-814.919 -2501)">
    <g id="Rectángulo_32952" data-name="Rectángulo 32952" transform="translate(814.919 2618)" fill="#f0dd81" stroke="#0a5936" stroke-width="3">
      <rect width="168" height="50" rx="12" stroke="none"/>
      <rect x="1.5" y="1.5" width="165" height="47" rx="10.5" fill="none"/>
    </g>
    <text id="Feature_One" data-name="Feature One" transform="translate(898.919 2651)" fill="#12263f" font-size="20" font-family="Roboto-Black, Roboto" font-weight="800"><tspan x="-59.634" y="0">Competencia</tspan></text>
    <g id="Trazado_140998" data-name="Trazado 140998" transform="translate(834.919 2501)" fill="#fff">
      <path d="M 64 127.5 C 55.56334686279297 127.5 47.37974548339844 125.8350524902344 39.67650985717773 122.551399230957 C 35.97372817993164 120.973014831543 32.40221786499023 119.0193099975586 29.06119918823242 116.7445297241211 C 25.75130844116211 114.4909439086914 22.63874626159668 111.9027481079102 19.80994606018066 109.0518569946289 C 16.9809627532959 106.2007598876953 14.41258144378662 103.0635452270508 12.17614555358887 99.72734832763672 C 9.918381690979004 96.35929107666016 7.979236125946045 92.75879669189453 6.412563800811768 89.02583312988281 C 3.152818202972412 81.25872802734375 1.5 73.00705718994141 1.5 64.5 C 1.5 55.99294662475586 3.152818202972412 47.74127197265625 6.412563800811768 39.97416305541992 C 7.979236125946045 36.2411994934082 9.918381690979004 32.64070892333984 12.17614555358887 29.27265548706055 C 14.41258144378662 25.93645477294922 16.9809627532959 22.79923629760742 19.80994606018066 19.94814491271973 C 22.63874626159668 17.09725379943848 25.75130844116211 14.50905418395996 29.06119918823242 12.25547313690186 C 32.40221786499023 9.980690956115723 35.97372817993164 8.026981353759766 39.67650985717773 6.448599815368652 C 47.37974548339844 3.164945363998413 55.56334686279297 1.5 64 1.5 C 72.43665313720703 1.5 80.62025451660156 3.164945363998413 88.32349395751953 6.448599815368652 C 92.02627563476562 8.026981353759766 95.5977783203125 9.980690956115723 98.93879699707031 12.25547313690186 C 102.2486877441406 14.50905418395996 105.3612518310547 17.09725379943848 108.190055847168 19.94814491271973 C 111.0190353393555 22.79923629760742 113.5874176025391 25.93645477294922 115.8238525390625 29.27265548706055 C 118.0816192626953 32.64070892333984 120.0207672119141 36.2411994934082 121.5874328613281 39.97416305541992 C 124.8471832275391 47.74127197265625 126.5 55.99294662475586 126.5 64.5 C 126.5 73.00705718994141 124.8471832275391 81.25872802734375 121.5874328613281 89.02583312988281 C 120.0207672119141 92.75879669189453 118.0816192626953 96.35929107666016 115.8238525390625 99.72734832763672 C 113.5874176025391 103.0635452270508 111.0190353393555 106.2007598876953 108.190055847168 109.0518569946289 C 105.3612518310547 111.9027481079102 102.2486877441406 114.4909439086914 98.93879699707031 116.7445297241211 C 95.5977783203125 119.0193099975586 92.02627563476562 120.973014831543 88.32349395751953 122.551399230957 C 80.62025451660156 125.8350524902344 72.43665313720703 127.5 64 127.5 Z" stroke="none"/>
      <path d="M 64 3 C 55.76663970947266 3 47.78092193603516 4.624519348144531 40.26470184326172 7.828460693359375 C 36.65138244628906 9.368698120117188 33.16602325439453 11.27532196044922 29.90538024902344 13.49537658691406 C 26.67453765869141 15.69513702392578 23.63617706298828 18.22164154052734 20.87471771240234 21.00466156005859 C 18.11287689208984 23.78810119628906 15.60546112060547 26.85086059570312 13.42209625244141 30.10787963867188 C 11.21804046630859 33.39582061767578 9.325042724609375 36.91062164306641 7.795700073242188 40.55464172363281 C 4.613502502441406 48.136962890625 3 56.19333648681641 3 64.5 C 3 72.80665588378906 4.613502502441406 80.863037109375 7.795700073242188 88.44535827636719 C 9.325042724609375 92.08937835693359 11.21804046630859 95.60417938232422 13.42209625244141 98.89212036132812 C 15.60546112060547 102.1491394042969 18.11287689208984 105.2118988037109 20.87471771240234 107.9953384399414 C 23.63617706298828 110.7783584594727 26.67453765869141 113.3048629760742 29.90538024902344 115.5046234130859 C 33.16602325439453 117.7246780395508 36.65138244628906 119.6313018798828 40.26470184326172 121.1715393066406 C 47.78092193603516 124.3754806518555 55.76663970947266 126 64 126 C 72.23336029052734 126 80.21908569335938 124.3754806518555 87.73529815673828 121.1715393066406 C 91.34861755371094 119.6313018798828 94.833984375 117.7246780395508 98.09461975097656 115.5046234130859 C 101.3254623413086 113.3048629760742 104.3638153076172 110.7783584594727 107.1252822875977 107.9953384399414 C 109.8871154785156 105.2118988037109 112.3945388793945 102.1491394042969 114.5778961181641 98.89212036132812 C 116.7819595336914 95.60417938232422 118.6749572753906 92.08937835693359 120.2042999267578 88.44535827636719 C 123.3864974975586 80.863037109375 125 72.80665588378906 125 64.5 C 125 56.19333648681641 123.3864974975586 48.136962890625 120.2042999267578 40.55464172363281 C 118.6749572753906 36.91062164306641 116.7819595336914 33.39582061767578 114.5778961181641 30.10787963867188 C 112.3945388793945 26.85086059570312 109.8871154785156 23.78810119628906 107.1252822875977 21.00466156005859 C 104.3638153076172 18.22164154052734 101.3254623413086 15.69513702392578 98.09461975097656 13.49537658691406 C 94.833984375 11.27532196044922 91.34861755371094 9.368698120117188 87.73529815673828 7.828460693359375 C 80.21908569335938 4.624519348144531 72.23336029052734 3 64 3 M 64 0 C 99.34622192382812 0 128 28.87763977050781 128 64.5 C 128 100.1223602294922 99.34622192382812 129 64 129 C 28.65377807617188 129 0 100.1223602294922 0 64.5 C 0 28.87763977050781 28.65377807617188 0 64 0 Z" stroke="none" fill="#0a5936"/>
    </g>
    <g id="competencia_1_" data-name="competencia (1)" transform="translate(806.605 2519.439)">
      <g id="Grupo_97173" data-name="Grupo 97173" transform="translate(61.236 1.236)">
        <path id="Trazado_141028" data-name="Trazado 141028" d="M170.4,41.3a16.9,16.9,0,1,1,16.9-16.9A16.9,16.9,0,0,1,170.4,41.3Z" transform="translate(-139.322 -7.5)" fill="#f1d54e"/>
        <path id="Trazado_141029" data-name="Trazado 141029" d="M260.372,24.4A16.913,16.913,0,0,1,241,41.118,16.9,16.9,0,0,0,241,7.68,16.9,16.9,0,0,1,260.372,24.4Z" transform="translate(-212.396 -7.5)" fill="#fb9e36"/>
        <path id="Trazado_141030" data-name="Trazado 141030" d="M334.392,286.678h-8.243a1.649,1.649,0,0,1-1.649-1.649V274.149a1.649,1.649,0,0,1,1.649-1.649h8.243a1.649,1.649,0,0,1,1.649,1.649V285.03A1.649,1.649,0,0,1,334.392,286.678Z" transform="translate(-282.13 -228.811)" fill="#ccf49f"/>
        <path id="Trazado_141031" data-name="Trazado 141031" d="M361.095,274.149V285.03a1.649,1.649,0,0,1-1.649,1.649H354.5a1.649,1.649,0,0,0,1.649-1.649V274.149A1.649,1.649,0,0,0,354.5,272.5h4.946A1.649,1.649,0,0,1,361.095,274.149Z" transform="translate(-307.184 -228.811)" fill="#b3e59f"/>
        <path id="Trazado_141032" data-name="Trazado 141032" d="M384.392,432.678h-8.243a1.649,1.649,0,0,1-1.649-1.649V420.149a1.649,1.649,0,0,1,1.649-1.649h8.243a1.649,1.649,0,0,1,1.649,1.649V431.03A1.649,1.649,0,0,1,384.392,432.678Z" transform="translate(-323.887 -350.741)" fill="#b3ddff"/>
        <path id="Trazado_141033" data-name="Trazado 141033" d="M411.095,420.149V431.03a1.649,1.649,0,0,1-1.649,1.649H404.5a1.649,1.649,0,0,0,1.649-1.649V420.149A1.649,1.649,0,0,0,404.5,418.5h4.946A1.649,1.649,0,0,1,411.095,420.149Z" transform="translate(-348.941 -350.741)" fill="#a3cff2"/>
        <path id="Trazado_141034" data-name="Trazado 141034" d="M284.392,432.678h-8.243a1.649,1.649,0,0,1-1.649-1.649V420.149a1.649,1.649,0,0,1,1.649-1.649h8.243a1.649,1.649,0,0,1,1.649,1.649V431.03A1.649,1.649,0,0,1,284.392,432.678Z" transform="translate(-240.373 -350.741)" fill="#ea7596"/>
        <path id="Trazado_141035" data-name="Trazado 141035" d="M311.095,420.149V431.03a1.649,1.649,0,0,1-1.649,1.649H304.5a1.649,1.649,0,0,0,1.649-1.649V420.149A1.649,1.649,0,0,0,304.5,418.5h4.946A1.649,1.649,0,0,1,311.095,420.149Z" transform="translate(-265.427 -350.741)" fill="#d99cad"/>
        <path id="Trazado_141036" data-name="Trazado 141036" d="M127.392,286.678h-8.243a1.649,1.649,0,0,1-1.649-1.649V274.149a1.649,1.649,0,0,1,1.649-1.649h8.243a1.649,1.649,0,0,1,1.649,1.649V285.03A1.649,1.649,0,0,1,127.392,286.678Z" transform="translate(-109.257 -228.811)" fill="#ccf49f"/>
        <path id="Trazado_141037" data-name="Trazado 141037" d="M177.392,432.678h-8.243a1.649,1.649,0,0,1-1.649-1.649V420.149a1.649,1.649,0,0,1,1.649-1.649h8.243a1.649,1.649,0,0,1,1.649,1.649V431.03A1.649,1.649,0,0,1,177.392,432.678Z" transform="translate(-151.014 -350.741)" fill="#d2f6e6"/>
        <path id="Trazado_141038" data-name="Trazado 141038" d="M77.392,432.678H69.149A1.649,1.649,0,0,1,67.5,431.03V420.149a1.649,1.649,0,0,1,1.649-1.649h8.243a1.649,1.649,0,0,1,1.649,1.649V431.03A1.649,1.649,0,0,1,77.392,432.678Z" transform="translate(-67.5 -350.741)" fill="#f1d54e"/>
        <path id="Trazado_141039" data-name="Trazado 141039" d="M211.408,58.589l2.127,4.309a.824.824,0,0,0,.621.451l4.756.691a.824.824,0,0,1,.457,1.406L215.926,68.8a.825.825,0,0,0-.237.73l.812,4.737a.824.824,0,0,1-1.2.869L211.052,72.9a.824.824,0,0,0-.767,0l-4.254,2.236a.824.824,0,0,1-1.2-.869l.812-4.737a.825.825,0,0,0-.237-.73l-3.441-3.354a.824.824,0,0,1,.457-1.406l4.756-.691a.824.824,0,0,0,.621-.451l2.127-4.309A.824.824,0,0,1,211.408,58.589Z" transform="translate(-179.591 -49.783)" fill="#fff"/>
        <path id="Trazado_141040" data-name="Trazado 141040" d="M154.095,274.149V285.03a1.649,1.649,0,0,1-1.649,1.649H147.5a1.649,1.649,0,0,0,1.649-1.649V274.149A1.649,1.649,0,0,0,147.5,272.5h4.946A1.649,1.649,0,0,1,154.095,274.149Z" transform="translate(-134.311 -228.811)" fill="#b3e59f"/>
        <path id="Trazado_141041" data-name="Trazado 141041" d="M204.095,420.149V431.03a1.649,1.649,0,0,1-1.649,1.649H197.5a1.649,1.649,0,0,0,1.649-1.649V420.149A1.649,1.649,0,0,0,197.5,418.5h4.946A1.649,1.649,0,0,1,204.095,420.149Z" transform="translate(-176.068 -350.741)" fill="#5cd8a0"/>
        <path id="Trazado_141042" data-name="Trazado 141042" d="M104.095,420.149V431.03a1.649,1.649,0,0,1-1.649,1.649H97.5a1.649,1.649,0,0,0,1.649-1.649V420.149A1.649,1.649,0,0,0,97.5,418.5h4.946A1.649,1.649,0,0,1,104.095,420.149Z" transform="translate(-92.554 -350.741)" fill="#fb9e36"/>
      </g>
      <g id="Grupo_97174" data-name="Grupo 97174" transform="translate(60)">
        <path id="Trazado_141043" data-name="Trazado 141043" d="M123.39,74.519a1.236,1.236,0,0,0,1.236-1.236V70.645a2.889,2.889,0,0,0-2.885-2.885h-2.885V65.7a2.889,2.889,0,0,0-2.885-2.885h-5.358V60.34H113.5a2.889,2.889,0,0,0,2.885-2.885V46.574a2.889,2.889,0,0,0-2.885-2.885h-2.885V41.628a2.889,2.889,0,0,0-2.885-2.885H93.55V36.227A18.135,18.135,0,1,0,80.271,4.575a1.237,1.237,0,0,0,1.643,1.849,15.628,15.628,0,1,1-3.338,4.183,1.236,1.236,0,1,0-2.167-1.19A18.14,18.14,0,0,0,91.077,36.227v2.516H76.9a2.889,2.889,0,0,0-2.885,2.885v2.061H71.128a2.889,2.889,0,0,0-2.885,2.885V57.455a2.889,2.889,0,0,0,2.885,2.885h2.885v2.473H68.655A2.889,2.889,0,0,0,65.77,65.7v2.061H62.885A2.889,2.889,0,0,0,60,70.645V81.526a2.889,2.889,0,0,0,2.885,2.885h8.243a2.889,2.889,0,0,0,2.885-2.885V70.645a2.889,2.889,0,0,0-2.885-2.885H68.243V65.7a.413.413,0,0,1,.412-.412H81.845a.413.413,0,0,1,.412.412v2.061H79.372a2.889,2.889,0,0,0-2.885,2.885V81.526a2.889,2.889,0,0,0,2.885,2.885h8.243A2.889,2.889,0,0,0,90.5,81.526V70.645a2.889,2.889,0,0,0-2.885-2.885H84.73V65.7a2.889,2.889,0,0,0-2.885-2.885H76.486V60.34h2.885a2.889,2.889,0,0,0,2.885-2.885V46.574a2.889,2.889,0,0,0-2.885-2.885H76.486V41.628a.413.413,0,0,1,.412-.412h30.83a.413.413,0,0,1,.412.412v2.061h-2.885a2.889,2.889,0,0,0-2.885,2.885V57.455a2.889,2.889,0,0,0,2.885,2.885h2.885v2.473h-5.358A2.889,2.889,0,0,0,99.9,65.7v2.061H97.012a2.889,2.889,0,0,0-2.885,2.885V81.526a2.889,2.889,0,0,0,2.885,2.885h8.243a2.889,2.889,0,0,0,2.885-2.885V70.645a2.889,2.889,0,0,0-2.885-2.885H102.37V65.7a.413.413,0,0,1,.412-.412h13.189a.413.413,0,0,1,.412.412v2.061H113.5a2.889,2.889,0,0,0-2.885,2.885V81.526a2.889,2.889,0,0,0,2.885,2.885h8.243a2.889,2.889,0,0,0,2.885-2.885V79.053a1.236,1.236,0,0,0-2.473,0v2.473a.413.413,0,0,1-.412.412H113.5a.413.413,0,0,1-.412-.412V70.645a.413.413,0,0,1,.412-.412h8.243a.413.413,0,0,1,.412.412v2.638A1.236,1.236,0,0,0,123.39,74.519Zm-51.85-3.874V81.526a.413.413,0,0,1-.412.412H62.885a.413.413,0,0,1-.412-.412V70.645a.413.413,0,0,1,.412-.412h8.243A.413.413,0,0,1,71.541,70.645Zm16.486,0V81.526a.413.413,0,0,1-.412.412H79.372a.413.413,0,0,1-.412-.412V70.645a.413.413,0,0,1,.412-.412h8.243A.413.413,0,0,1,88.027,70.645Zm-8.243-24.07V57.455a.413.413,0,0,1-.412.412H71.128a.413.413,0,0,1-.412-.412V46.574a.413.413,0,0,1,.412-.412h8.243A.413.413,0,0,1,79.784,46.574Zm25.059,10.881V46.574a.413.413,0,0,1,.412-.412H113.5a.413.413,0,0,1,.412.412V57.455a.413.413,0,0,1-.412.412h-8.243A.413.413,0,0,1,104.843,57.455Zm.824,13.189V81.526a.413.413,0,0,1-.412.412H97.012a.413.413,0,0,1-.412-.412V70.645a.413.413,0,0,1,.412-.412h8.243A.413.413,0,0,1,105.668,70.645Z" transform="translate(-60)" fill="#0a5936"/>
        <path id="Trazado_141044" data-name="Trazado 141044" d="M214.485,57.956a2.048,2.048,0,0,0-1.664-1.4l-4.541-.66-2.031-4.115a2.061,2.061,0,0,0-3.7,0l-2.031,4.115-4.541.66a2.061,2.061,0,0,0-1.142,3.515l3.286,3.2-.776,4.523a2.061,2.061,0,0,0,2.99,2.173l4.062-2.136,4.062,2.135a2.061,2.061,0,0,0,2.99-2.172l-.776-4.523,3.286-3.2a2.048,2.048,0,0,0,.522-2.113Zm-5.689,3.7a2.06,2.06,0,0,0-.593,1.824l.671,3.913-3.515-1.848a2.062,2.062,0,0,0-1.918,0l-3.514,1.848.671-3.913a2.061,2.061,0,0,0-.593-1.824l-2.843-2.772,3.93-.571a2.061,2.061,0,0,0,1.551-1.127l1.757-3.56,1.757,3.561a2.061,2.061,0,0,0,1.552,1.127l3.929.571Z" transform="translate(-172.088 -42.283)" fill="#0a5936"/>
      </g>
    </g>
  </g>
</svg>
