<svg xmlns="http://www.w3.org/2000/svg" width="168" height="167" viewBox="0 0 168 167">
  <g id="Grupo_97194" data-name="Grupo 97194" transform="translate(-616.919 -2688)">
    <g id="Rectángulo_32953" data-name="Rectángulo 32953" transform="translate(616.919 2805)" fill="#f0dd81" stroke="#0a5936" stroke-width="3">
      <rect width="168" height="50" rx="12" stroke="none"/>
      <rect x="1.5" y="1.5" width="165" height="47" rx="10.5" fill="none"/>
    </g>
    <text id="Feature_One" data-name="Feature One" transform="translate(700.919 2838)" fill="#12263f" font-size="20" font-family="Roboto-Black, Roboto" font-weight="800"><tspan x="-57.158" y="0">Proveedores</tspan></text>
    <g id="Elipse_4454" data-name="Elipse 4454" transform="translate(636.919 2688)" fill="#fff" stroke="#0a5936" stroke-width="3">
      <ellipse cx="64" cy="64.5" rx="64" ry="64.5" stroke="none"/>
      <ellipse cx="64" cy="64.5" rx="62.5" ry="63" fill="none"/>
    </g>
    <g id="inventario" transform="translate(664.651 2715)">
      <g id="Grupo_97191" data-name="Grupo 97191" transform="translate(2.138 2.138)">
        <g id="Grupo_97175" data-name="Grupo 97175" transform="translate(47.782 47.782)">
          <path id="Trazado_141045" data-name="Trazado 141045" d="M62.2,46.275V59.927A2.282,2.282,0,0,1,59.927,62.2H46.275A2.282,2.282,0,0,1,44,59.927V46.275A2.282,2.282,0,0,1,46.275,44h4.551v4.551h4.551V44h4.551A2.282,2.282,0,0,1,62.2,46.275Z" transform="translate(-44 -44)" fill="#5cd8a0"/>
        </g>
        <g id="Grupo_97176" data-name="Grupo 97176" transform="translate(50.057 29.579)">
          <path id="Trazado_141046" data-name="Trazado 141046" d="M64.2,43.927A2.282,2.282,0,0,1,61.927,46.2H48.275A2.282,2.282,0,0,1,46,43.927V30.275A2.282,2.282,0,0,1,48.275,28h4.551v4.551h4.551V28h4.551A2.282,2.282,0,0,1,64.2,30.275Z" transform="translate(-46 -28)" fill="#5cd8a0"/>
        </g>
        <g id="Grupo_97177" data-name="Grupo 97177" transform="translate(31.855 29.579)">
          <path id="Trazado_141047" data-name="Trazado 141047" d="M48.2,30.275V43.927A2.282,2.282,0,0,1,45.927,46.2H41.377V39.377A2.282,2.282,0,0,0,39.1,37.1H30V30.275A2.282,2.282,0,0,1,32.275,28h4.551v4.551h4.551V28h4.551A2.282,2.282,0,0,1,48.2,30.275Z" transform="translate(-30 -28)" fill="#d2f6e6"/>
        </g>
        <g id="Grupo_97178" data-name="Grupo 97178" transform="translate(34.13 0)">
          <path id="Trazado_141048" data-name="Trazado 141048" d="M63.855,4.275V29.3a2.282,2.282,0,0,1-2.275,2.275h-27.3A2.282,2.282,0,0,1,32,29.3V4.275A2.282,2.282,0,0,1,34.275,2h9.1V8.826h9.1V2h9.1A2.282,2.282,0,0,1,63.855,4.275Z" transform="translate(-32 -2)" fill="#d2f6e6"/>
        </g>
        <g id="Grupo_97179" data-name="Grupo 97179" transform="translate(45.507 0)">
          <path id="Trazado_141049" data-name="Trazado 141049" d="M42,2h9.1V8.826H42Z" transform="translate(-42 -2)" fill="#f0dd81"/>
        </g>
        <g id="Grupo_97180" data-name="Grupo 97180" transform="translate(38.681 29.579)">
          <path id="Trazado_141050" data-name="Trazado 141050" d="M36,28h4.551v4.551H36Z" transform="translate(-36 -28)" fill="#f0dd81"/>
        </g>
        <g id="Grupo_97181" data-name="Grupo 97181" transform="translate(56.883 29.579)">
          <path id="Trazado_141051" data-name="Trazado 141051" d="M52,28h4.551v4.551H52Z" transform="translate(-52 -28)" fill="#f0dd81"/>
        </g>
        <g id="Grupo_97182" data-name="Grupo 97182" transform="translate(54.608 47.782)">
          <path id="Trazado_141052" data-name="Trazado 141052" d="M50,44h4.551v4.551H50Z" transform="translate(-50 -44)" fill="#f0dd81"/>
        </g>
        <g id="Grupo_97183" data-name="Grupo 97183" transform="translate(0 9.101)">
          <path id="Trazado_141053" data-name="Trazado 141053" d="M21.909,10a5.119,5.119,0,0,1,0,10.239H14.514A3.418,3.418,0,0,0,11.1,23.652v2.275A2.292,2.292,0,0,0,8.826,28.2V28.4A2.282,2.282,0,0,0,9.5,30.012l1.6,1.6V37.3l-1.331-.66A14.065,14.065,0,0,1,16.062,10Z" transform="translate(-2 -10)" fill="#656d78"/>
        </g>
        <g id="Grupo_97184" data-name="Grupo 97184" transform="translate(0 51.434)">
          <path id="Trazado_141054" data-name="Trazado 141054" d="M22.478,57.859v6.178H2V47.21a11.868,11.868,0,0,0,4.13,9l.512.421a11.508,11.508,0,0,0,1.6,1.16,11.811,11.811,0,0,0,6.1,1.7h1.524a11.89,11.89,0,0,0,3.993-.694Z" transform="translate(-2 -47.21)" fill="#f1d54e"/>
        </g>
        <g id="Grupo_97185" data-name="Grupo 97185" transform="translate(0 39.818)">
          <path id="Trazado_141055" data-name="Trazado 141055" d="M13.377,54.065,8.246,59.2a11.507,11.507,0,0,1-1.6-1.16l-.512-.421a11.848,11.848,0,0,1,3.55-20.08L11.1,37a23.662,23.662,0,0,1,6.826,6.212A23.125,23.125,0,0,1,19.941,46.5a23.447,23.447,0,0,1,1.9,5.142v.011Z" transform="translate(-2 -37)" fill="#f1d54e"/>
        </g>
        <g id="Grupo_97186" data-name="Grupo 97186" transform="translate(27.304 40.956)">
          <path id="Trazado_141056" data-name="Trazado 141056" d="M28.662,45.452a3.237,3.237,0,0,0-2.036,2.036L26,49.377v-9.1H39.652A2.292,2.292,0,0,0,41.927,38V63.029A2.282,2.282,0,0,1,39.652,65.3H26V56.68l9.01-3.231a3.232,3.232,0,0,0-.865-6.348h-1.32l-.865-.865A3.222,3.222,0,0,0,28.662,45.452Z" transform="translate(-26 -38)" fill="#f0dd81"/>
        </g>
        <g id="Grupo_97187" data-name="Grupo 97187" transform="translate(29.579 38.681)">
          <path id="Trazado_141057" data-name="Trazado 141057" d="M39.377,36a2.282,2.282,0,0,1,2.275,2.275,2.292,2.292,0,0,1-2.275,2.275H28V36H39.377Z" transform="translate(-28 -36)" fill="#e6e9ed"/>
        </g>
        <g id="Grupo_97188" data-name="Grupo 97188" transform="translate(17.941 46.644)">
          <path id="Trazado_141058" data-name="Trazado 141058" d="M27.133,43v5.688L19.67,50.816a23.447,23.447,0,0,0-1.9-5.142Z" transform="translate(-17.77 -43)" fill="#f0d0b4"/>
        </g>
        <g id="Grupo_97189" data-name="Grupo 97189" transform="translate(6.246 48.243)">
          <path id="Trazado_141059" data-name="Trazado 141059" d="M38.981,47.164a3.238,3.238,0,0,1-1.422,5.4L28.548,55.8l-6.826,2.446-2.617.933a11.89,11.89,0,0,1-3.993.694H13.588a11.811,11.811,0,0,1-6.1-1.7l5.131-5.131,8.464-2.412v-.011l7.463-2.127.626-1.889a3.218,3.218,0,0,1,5.336-1.251l.865.865h1.32a3.243,3.243,0,0,1,2.287.944Z" transform="translate(-7.49 -44.405)" fill="#f0d0b4"/>
        </g>
        <g id="Grupo_97190" data-name="Grupo 97190" transform="translate(6.826 19.34)">
          <path id="Trazado_141060" data-name="Trazado 141060" d="M17.1,36.065V45.69a23.662,23.662,0,0,0-6.826-6.212v-9.1l-1.6-1.6A2.282,2.282,0,0,1,8,27.157v-.193a2.292,2.292,0,0,1,2.275-2.275V22.413A3.418,3.418,0,0,1,13.688,19h5.939a3.425,3.425,0,0,1,3.049,1.866c1,1.957,2.389,5.063,2.389,7.236l-3.413,1.138v2.947a3.884,3.884,0,0,1-3.879,3.879Z" transform="translate(-8 -19)" fill="#f0d0b4"/>
        </g>
      </g>
      <g id="Grupo_97192" data-name="Grupo 97192" transform="translate(1 1)">
        <path id="Trazado_141061" data-name="Trazado 141061" d="M69.01,30.711a3.4,3.4,0,0,0,.25-1.27V4.413A3.417,3.417,0,0,0,65.847,1h-27.3A3.417,3.417,0,0,0,35.13,4.413V29.442a3.4,3.4,0,0,0,.25,1.27,3.407,3.407,0,0,0-2.526,3.281v5.688H30.579v4.551H28.3v3.692l-7.679,2.195A24.794,24.794,0,0,0,19.2,47.852V39.636a4.973,4.973,0,0,0,4.551-4.977V32.537L27.166,31.4v-.82c0-2.353-1.37-5.518-2.518-7.758a4.624,4.624,0,0,0-.387-.618,6.253,6.253,0,0,0-2.215-12.1H16.2A15.2,15.2,0,0,0,9.4,38.9l.7.349v1.92l-.68.255a13.039,13.039,0,0,0-8.412,11.91H1v18.2H23.753V65.017l4.551-1.63v8.148h14.79a3.417,3.417,0,0,0,3.413-3.413V51.057h2.485a3.375,3.375,0,0,0-.209,1.138V65.847a3.417,3.417,0,0,0,3.413,3.413H65.847a3.417,3.417,0,0,0,3.413-3.413V52.195a3.4,3.4,0,0,0-.25-1.27,3.408,3.408,0,0,0,2.526-3.281V33.992A3.407,3.407,0,0,0,69.01,30.711ZM48.782,3.275h6.826V7.826H48.782ZM37.405,4.413a1.14,1.14,0,0,1,1.138-1.138h7.964V10.1H57.883V3.275h7.964a1.14,1.14,0,0,1,1.138,1.138V29.442a1.14,1.14,0,0,1-1.138,1.138h-27.3a1.14,1.14,0,0,1-1.138-1.138ZM60.159,32.855h2.275V35.13H60.159Zm-18.2,0h2.275V35.13H41.956Zm-9.1,9.1H43.094a1.138,1.138,0,1,1,0,2.275H32.855ZM14.11,60.033,30.331,55.4l.819-2.455A2.08,2.08,0,0,1,34.6,52.13l1.2,1.2h1.787a2.1,2.1,0,0,1,2.1,2.1,2.135,2.135,0,0,1-1.609,2.043l-18.455,6.61a10.708,10.708,0,0,1-3.609.626H14.481a10.7,10.7,0,0,1-4.184-.863ZM28.3,50.29v3.322L22.746,55.2a24.387,24.387,0,0,0-1.086-3.01Zm-3.477-20.51L21.478,30.9V34.66a2.748,2.748,0,0,1-2.746,2.747l-4.08,0v2.275h2.275V45.1a24.405,24.405,0,0,0-4.551-3.753V32.384l-1.942-1.942a1.133,1.133,0,0,1-.333-.805v-.195A1.14,1.14,0,0,1,11.239,28.3h1.138V24.891a2.278,2.278,0,0,1,2.275-2.275h5.942a2.274,2.274,0,0,1,2.03,1.243,21,21,0,0,1,2.2,5.922ZM3.275,25.3A12.94,12.94,0,0,1,16.2,12.377h5.846a3.982,3.982,0,1,1,0,7.964H14.652A4.555,4.555,0,0,0,10.1,24.891v1.332a3.42,3.42,0,0,0-2.275,3.218v.195a3.392,3.392,0,0,0,1,2.414L10.1,33.326v3.348A12.837,12.837,0,0,1,3.275,25.3Zm6.945,18.252.871-.328a22.409,22.409,0,0,1,9.47,12.6l-6.313,1.8L13.8,56.284a9.637,9.637,0,0,0-6.837-6.33l-.552,2.207A7.376,7.376,0,0,1,11.643,57l.57,1.71-3.98,3.98c-.246-.176-.486-.363-.717-.561l-.5-.431a10.7,10.7,0,0,1,3.207-18.149ZM21.478,69.26H3.275V60.884a12.96,12.96,0,0,0,2.257,2.544l.5.431a12.985,12.985,0,0,0,8.446,3.125h1.527a12.954,12.954,0,0,0,4.377-.76l1.093-.391Zm21.616,0H30.579V62.571l8.183-2.932a4.372,4.372,0,0,0-1.179-8.583h-.845l-.536-.536a4.241,4.241,0,0,0-5.623-.423V46.507H43.094a3.375,3.375,0,0,0,1.138-.209V68.122A1.139,1.139,0,0,1,43.094,69.26Zm3.413-26.166a3.417,3.417,0,0,0-3.413-3.413H35.13V33.992a1.14,1.14,0,0,1,1.138-1.138h3.413v4.551h6.826V32.855H49.92a1.14,1.14,0,0,1,1.138,1.138V47.644a1.139,1.139,0,0,1-1.138,1.138H46.507ZM66.984,65.847a1.139,1.139,0,0,1-1.138,1.138H52.195a1.139,1.139,0,0,1-1.138-1.138V52.195a1.139,1.139,0,0,1,1.138-1.138h3.413v4.551h6.826V51.057h3.413a1.139,1.139,0,0,1,1.138,1.138Zm-9.1-14.79h2.275v2.275H57.883ZM69.26,47.644a1.139,1.139,0,0,1-1.138,1.138H54.47a1.139,1.139,0,0,1-1.138-1.138V33.992a1.14,1.14,0,0,1,1.138-1.138h3.413v4.551h6.826V32.855h3.413a1.14,1.14,0,0,1,1.138,1.138Z" transform="translate(-1 -1)" fill="#0a5936"/>
        <path id="Trazado_141062" data-name="Trazado 141062" d="M51,23h2.275v2.275H51Z" transform="translate(5.883 2.029)" fill="#0a5936"/>
        <path id="Trazado_141063" data-name="Trazado 141063" d="M47,23h2.275v2.275H47Z" transform="translate(5.333 2.029)" fill="#0a5936"/>
        <path id="Trazado_141064" data-name="Trazado 141064" d="M55,23h2.275v2.275H55Z" transform="translate(6.434 2.029)" fill="#0a5936"/>
        <path id="Trazado_141065" data-name="Trazado 141065" d="M47,19H58.377v2.275H47Z" transform="translate(5.333 1.478)" fill="#0a5936"/>
      </g>
    </g>
  </g>
</svg>
