<svg xmlns="http://www.w3.org/2000/svg" width="168" height="167" viewBox="0 0 168 167">
  <g id="Grupo_97193" data-name="Grupo 97193" transform="translate(-814.919 -2688)">
    <g id="Grupo_97155" data-name="Grupo 97155" transform="translate(19 534)">
      <g id="Rectángulo_32952" data-name="Rectángulo 32952" transform="translate(795.919 2271)" fill="#f0dd81" stroke="#0a5936" stroke-width="3">
        <rect width="168" height="50" rx="12" stroke="none"/>
        <rect x="1.5" y="1.5" width="165" height="47" rx="10.5" fill="none"/>
      </g>
      <text id="Feature_One" data-name="Feature One" transform="translate(879.919 2304)" fill="#12263f" font-size="20" font-family="Roboto-Black, Roboto" font-weight="800"><tspan x="-72.563" y="0">Canales de Dis..</tspan></text>
      <g id="Trazado_140998" data-name="Trazado 140998" transform="translate(815.919 2154)" fill="#fff">
        <path d="M 64 127.5 C 55.56334686279297 127.5 47.37974548339844 125.8350524902344 39.67650985717773 122.551399230957 C 35.97372817993164 120.973014831543 32.40221786499023 119.0193099975586 29.06119918823242 116.7445297241211 C 25.75130844116211 114.4909439086914 22.63874626159668 111.9027481079102 19.80994606018066 109.0518569946289 C 16.9809627532959 106.2007598876953 14.41258144378662 103.0635452270508 12.17614555358887 99.72734832763672 C 9.918381690979004 96.35929107666016 7.979236125946045 92.75879669189453 6.412563800811768 89.02583312988281 C 3.152818202972412 81.25872802734375 1.5 73.00705718994141 1.5 64.5 C 1.5 55.99294662475586 3.152818202972412 47.74127197265625 6.412563800811768 39.97416305541992 C 7.979236125946045 36.2411994934082 9.918381690979004 32.64070892333984 12.17614555358887 29.27265548706055 C 14.41258144378662 25.93645477294922 16.9809627532959 22.79923629760742 19.80994606018066 19.94814491271973 C 22.63874626159668 17.09725379943848 25.75130844116211 14.50905418395996 29.06119918823242 12.25547313690186 C 32.40221786499023 9.980690956115723 35.97372817993164 8.026981353759766 39.67650985717773 6.448599815368652 C 47.37974548339844 3.164945363998413 55.56334686279297 1.5 64 1.5 C 72.43665313720703 1.5 80.62025451660156 3.164945363998413 88.32349395751953 6.448599815368652 C 92.02627563476562 8.026981353759766 95.5977783203125 9.980690956115723 98.93879699707031 12.25547313690186 C 102.2486877441406 14.50905418395996 105.3612518310547 17.09725379943848 108.190055847168 19.94814491271973 C 111.0190353393555 22.79923629760742 113.5874176025391 25.93645477294922 115.8238525390625 29.27265548706055 C 118.0816192626953 32.64070892333984 120.0207672119141 36.2411994934082 121.5874328613281 39.97416305541992 C 124.8471832275391 47.74127197265625 126.5 55.99294662475586 126.5 64.5 C 126.5 73.00705718994141 124.8471832275391 81.25872802734375 121.5874328613281 89.02583312988281 C 120.0207672119141 92.75879669189453 118.0816192626953 96.35929107666016 115.8238525390625 99.72734832763672 C 113.5874176025391 103.0635452270508 111.0190353393555 106.2007598876953 108.190055847168 109.0518569946289 C 105.3612518310547 111.9027481079102 102.2486877441406 114.4909439086914 98.93879699707031 116.7445297241211 C 95.5977783203125 119.0193099975586 92.02627563476562 120.973014831543 88.32349395751953 122.551399230957 C 80.62025451660156 125.8350524902344 72.43665313720703 127.5 64 127.5 Z" stroke="none"/>
        <path d="M 64 3 C 55.76663970947266 3 47.78092193603516 4.624519348144531 40.26470184326172 7.828460693359375 C 36.65138244628906 9.368698120117188 33.16602325439453 11.27532196044922 29.90538024902344 13.49537658691406 C 26.67453765869141 15.69513702392578 23.63617706298828 18.22164154052734 20.87471771240234 21.00466156005859 C 18.11287689208984 23.78810119628906 15.60546112060547 26.85086059570312 13.42209625244141 30.10787963867188 C 11.21804046630859 33.39582061767578 9.325042724609375 36.91062164306641 7.795700073242188 40.55464172363281 C 4.613502502441406 48.136962890625 3 56.19333648681641 3 64.5 C 3 72.80665588378906 4.613502502441406 80.863037109375 7.795700073242188 88.44535827636719 C 9.325042724609375 92.08937835693359 11.21804046630859 95.60417938232422 13.42209625244141 98.89212036132812 C 15.60546112060547 102.1491394042969 18.11287689208984 105.2118988037109 20.87471771240234 107.9953384399414 C 23.63617706298828 110.7783584594727 26.67453765869141 113.3048629760742 29.90538024902344 115.5046234130859 C 33.16602325439453 117.7246780395508 36.65138244628906 119.6313018798828 40.26470184326172 121.1715393066406 C 47.78092193603516 124.3754806518555 55.76663970947266 126 64 126 C 72.23336029052734 126 80.21908569335938 124.3754806518555 87.73529815673828 121.1715393066406 C 91.34861755371094 119.6313018798828 94.833984375 117.7246780395508 98.09461975097656 115.5046234130859 C 101.3254623413086 113.3048629760742 104.3638153076172 110.7783584594727 107.1252822875977 107.9953384399414 C 109.8871154785156 105.2118988037109 112.3945388793945 102.1491394042969 114.5778961181641 98.89212036132812 C 116.7819595336914 95.60417938232422 118.6749572753906 92.08937835693359 120.2042999267578 88.44535827636719 C 123.3864974975586 80.863037109375 125 72.80665588378906 125 64.5 C 125 56.19333648681641 123.3864974975586 48.136962890625 120.2042999267578 40.55464172363281 C 118.6749572753906 36.91062164306641 116.7819595336914 33.39582061767578 114.5778961181641 30.10787963867188 C 112.3945388793945 26.85086059570312 109.8871154785156 23.78810119628906 107.1252822875977 21.00466156005859 C 104.3638153076172 18.22164154052734 101.3254623413086 15.69513702392578 98.09461975097656 13.49537658691406 C 94.833984375 11.27532196044922 91.34861755371094 9.368698120117188 87.73529815673828 7.828460693359375 C 80.21908569335938 4.624519348144531 72.23336029052734 3 64 3 M 64 0 C 99.34622192382812 0 128 28.87763977050781 128 64.5 C 128 100.1223602294922 99.34622192382812 129 64 129 C 28.65377807617188 129 0 100.1223602294922 0 64.5 C 0 28.87763977050781 28.65377807617188 0 64 0 Z" stroke="none" fill="#0a5936"/>
      </g>
    </g>
    <g id="distribucion" transform="translate(861.919 2719.402)">
      <path id="Trazado_141066" data-name="Trazado 141066" d="M428.818,236.939l-4.773-1.7L414.5,255.4l14.318-4.772Zm0,0" transform="translate(-348.56 -197.816)" fill="#5cd8a0"/>
      <path id="Trazado_141067" data-name="Trazado 141067" d="M192.205,144.613l-5.116-10.8a8.251,8.251,0,0,0-6.816-4.313H144.5l21.476,36.987h21.476L197,163.305V146.321Zm0,0" transform="translate(-121.512 -108.899)" fill="#d2f6e6"/>
      <path id="Trazado_141068" data-name="Trazado 141068" d="M466.659,332h-4.772l-2.386,2.386,2.386,2.386h4.772Zm0,0" transform="translate(-386.401 -279.184)" fill="#8b9ea4"/>
      <path id="Trazado_141069" data-name="Trazado 141069" d="M414.5,332h9.545v4.772H414.5Zm0,0" transform="translate(-348.56 -279.184)" fill="#a3bbc0"/>
      <path id="Trazado_141070" data-name="Trazado 141070" d="M229.045,284.272,219.5,279.5l4.772,13.124h4.772Zm0,0" transform="translate(-184.581 -235.036)" fill="#8b9ea4"/>
      <path id="Trazado_141071" data-name="Trazado 141071" d="M46,254.783H7.5v-8.352L46,234.5Zm0,0" transform="translate(-6.307 -197.195)" fill="#a3bbc0"/>
      <path id="Trazado_141072" data-name="Trazado 141072" d="M229.045,254.272,219.5,249.5l4.772,9.545h4.772Zm0,0" transform="translate(-184.581 -209.809)" fill="#bddbe0"/>
      <path id="Trazado_141073" data-name="Trazado 141073" d="M46,221.2H7.5v-4.773L46,204.5Zm0,0" transform="translate(-6.307 -171.967)" fill="#d6faff"/>
      <path id="Trazado_141074" data-name="Trazado 141074" d="M203.818,50.771h-4.773L189.5,29.135,199.045,7.5h4.773Zm0,0" transform="translate(-159.354 -6.307)" fill="#ffa433"/>
      <path id="Trazado_141075" data-name="Trazado 141075" d="M46,50.771H7.5V7.5H23.17l5.966,7.159L35.1,7.5H46Zm0,0" transform="translate(-6.307 -6.307)" fill="#f1d54e"/>
      <path id="Trazado_141076" data-name="Trazado 141076" d="M125.772,7.5,121,17.2l4.772,9.7h4.773V7.5Zm0,0" transform="translate(-101.751 -6.307)" fill="#ffebbe"/>
      <path id="Trazado_141077" data-name="Trazado 141077" d="M106,7.5h7.159V26.908H106Zm0,0" transform="translate(-89.137 -6.307)" fill="#fff"/>
      <path id="Trazado_141078" data-name="Trazado 141078" d="M356.2,317.852a8.352,8.352,0,1,1-8.352-8.352A8.352,8.352,0,0,1,356.2,317.852Zm0,0" transform="translate(-285.491 -260.264)" fill="#e8fff5"/>
      <path id="Trazado_141079" data-name="Trazado 141079" d="M376.659,343.079a3.579,3.579,0,1,1-3.579-3.579A3.58,3.58,0,0,1,376.659,343.079Zm0,0" transform="translate(-310.719 -285.491)" fill="#fff"/>
      <path id="Trazado_141080" data-name="Trazado 141080" d="M54.2,317.852a8.352,8.352,0,1,1-8.352-8.352A8.352,8.352,0,0,1,54.2,317.852Zm0,0" transform="translate(-31.534 -260.264)" fill="#e8fff5"/>
      <path id="Trazado_141081" data-name="Trazado 141081" d="M74.659,343.079a3.579,3.579,0,1,1-3.579-3.579A3.58,3.58,0,0,1,74.659,343.079Zm0,0" transform="translate(-56.762 -285.491)" fill="#fff"/>
      <path id="Trazado_141082" data-name="Trazado 141082" d="M64.772,332a4.772,4.772,0,1,0,4.772,4.772A4.778,4.778,0,0,0,64.772,332Zm0,7.159a2.386,2.386,0,1,1,2.386-2.386A2.389,2.389,0,0,1,64.772,339.159Zm0,0" transform="translate(-50.455 -279.184)" fill="#0a5936"/>
      <path id="Trazado_141083" data-name="Trazado 141083" d="M366.773,332a4.772,4.772,0,1,0,4.772,4.772A4.778,4.778,0,0,0,366.773,332Zm0,7.159a2.386,2.386,0,1,1,2.386-2.386A2.389,2.389,0,0,1,366.773,339.159Zm0,0" transform="translate(-304.412 -279.184)" fill="#0a5936"/>
      <path id="Trazado_141084" data-name="Trazado 141084" d="M80.658,38l-9.1-3.243L66.655,24.4a9.4,9.4,0,0,0-7.893-5h-13.1V1.193A1.193,1.193,0,0,0,44.464,0H1.193A1.193,1.193,0,0,0,0,1.193v56.4a1.193,1.193,0,0,0,1.193,1.193H4.85a9.543,9.543,0,0,0,18.936,0H52.893a9.543,9.543,0,0,0,18.936,0h8.429a1.193,1.193,0,0,0,1.193-1.193V39.123A1.194,1.194,0,0,0,80.658,38Zm-21.9-16.2A7.034,7.034,0,0,1,64.5,25.425l5.116,10.8a1.192,1.192,0,0,0,.677.613l8.773,3.126V51.623H69.8A9.538,9.538,0,0,0,52.893,56.4H45.657v-34.6ZM20.621,50.429h22.65V56.4H23.785A9.533,9.533,0,0,0,20.621,50.429ZM2.386,45.657H43.271v2.386H2.386ZM15.67,2.386V8.511a1.193,1.193,0,1,0,2.386,0V2.386H27.6V19.408H18.056V13.283a1.193,1.193,0,0,0-2.386,0V20.6a1.193,1.193,0,0,0,1.193,1.193H28.794A1.193,1.193,0,0,0,29.987,20.6V2.386H43.271V43.271H2.386V2.386ZM2.386,50.429H8.014A9.533,9.533,0,0,0,4.85,56.4H2.386ZM14.318,64.747a7.159,7.159,0,1,1,7.159-7.159A7.167,7.167,0,0,1,14.318,64.747Zm48.043,0a7.159,7.159,0,1,1,7.159-7.159A7.167,7.167,0,0,1,62.361,64.747ZM71.829,56.4a9.458,9.458,0,0,0-.622-2.386h7.858V56.4Zm0,0" fill="#0a5936"/>
    </g>
  </g>
</svg>
