<svg xmlns="http://www.w3.org/2000/svg" width="353.943" height="257.501" viewBox="0 0 353.943 257.501">
  <g id="Grupo_97215" data-name="Grupo 97215" transform="translate(-327.536 -153.744)">
    <g id="Grupo_97199" data-name="Grupo 97199" transform="translate(502.669 219.505)" opacity="0.8">
      <path id="Trazado_141086" data-name="Trazado 141086" d="M1575.687,645.089a44.666,44.666,0,0,1-3.4,7.265,44.374,44.374,0,0,1-82.557-19.4,43.6,43.6,0,0,1,.056-6.768,44.681,44.681,0,0,1,6.69-19.933c.018-.031.038-.059.056-.09a44.481,44.481,0,0,1,25.29-18.887c1.083-.31,2.182-.58,3.288-.806a44.121,44.121,0,0,1,24.045,1.774q1.591.578,3.108,1.264a44.066,44.066,0,0,1,17.981,14.846h0a44.538,44.538,0,0,1,7.1,16.1q.408,1.861.658,3.759a44.163,44.163,0,0,1-2.309,20.881Z" transform="translate(-1489.621 -585.559)" fill="#d7e5ff"/>
      <g id="Grupo_97198" data-name="Grupo 97198" transform="translate(6.851 0.908)">
        <path id="Trazado_141087" data-name="Trazado 141087" d="M1564.752,611.173c-2.622,2.03-1.926,7.463-6.464,4.4s-7.387-4.727-8.671-2.055,2.735,4.135,1.677,7.047-3.212,3.219-5.481.828-2.337-4.692-6.014-4.616-5.246-1.436-5.067-4.2a3.886,3.886,0,0,0-.121-1.28c.018-.031.038-.059.056-.09a44.481,44.481,0,0,1,25.29-18.887c1.083-.31,2.182-.58,3.288-.806a5.834,5.834,0,0,1,3.386,3.7c1.6,4.665,4.2,3.567,1.992,7.475s-1.3,4.866,1.109,5.583,5.181,1.726,4.8,3.63S1567.373,609.143,1564.752,611.173Z" transform="translate(-1534.61 -591.518)" fill="#aec3ff"/>
        <path id="Trazado_141088" data-name="Trazado 141088" d="M1880.7,840.365a44.672,44.672,0,0,1-3.4,7.265,44.116,44.116,0,0,1-12.395,13.6,5.064,5.064,0,0,1-3.3-1.3c-4.443-3.97,1.445-8.186,4.546-10.238s-2.657-2.732-5.559-6.73,3.894-9.415-.474-9.708-9.68-.576-10.569-5.255,3.705-3.715,2.9-7.657,3-4.679,7.061-3.555,4.566-1.872,9.6-.511,2.667,7.562,8.225,9.112,4.861,2.709,4.861,2.709a2.679,2.679,0,0,1,1.043.648A44.447,44.447,0,0,1,1880.7,840.365Z" transform="translate(-1801.487 -781.742)" fill="#aec3ff"/>
        <path id="Trazado_141089" data-name="Trazado 141089" d="M1943.375,722.67c-5.292.553-4.934-6.053-9.427-5.661-4.53.395-2.591-2.826-4.834-6.153s-9.806-1.523-8.269-4.89,5.759-.732,7.738-3.151,6.163-.114,6.163-.114a3.19,3.19,0,0,1,.873.11s0,0,0,0a44.534,44.534,0,0,1,7.1,16.1Q1943.124,720.772,1943.375,722.67Z" transform="translate(-1861.852 -684.928)" fill="#aec3ff"/>
        <path id="Trazado_141090" data-name="Trazado 141090" d="M1792.675,627.222s3.593-2.544.214-4.908-3.787-1.026-6.586-2.394-4.762.469-3.473,3.724,1.34,8.62,4.231,6.821S1790.265,626.621,1792.675,627.222Z" transform="translate(-1744.687 -615.207)" fill="#aec3ff"/>
      </g>
    </g>
    <path id="Trazado_141091" data-name="Trazado 141091" d="M483.49,1741.546h15.472c.829-.7-.574-2.3-2.04-2.408a9.033,9.033,0,0,0-2.361.279c-.213-2.828-1.429-15.541-6.011-15.03-5.152.572,0,5.6,1.457,8.574a70.765,70.765,0,0,1,2.737,6.857c-.418.091-.851.179-1.294.261-.683-2.1-3.224-9.15-6.455-8.739-3.794.481-2.269,3.309.42,4.988,1.973,1.234,4.4,2.989,5.547,3.836a16.441,16.441,0,0,1-3.026.243C485.286,1740.345,483.992,1741.126,483.49,1741.546Z" transform="translate(-133.392 -1331.438)" fill="#a8d29f"/>
    <path id="Trazado_141092" data-name="Trazado 141092" d="M2023.4,1748.347h-14.371c-.77-.653.533-2.137,1.895-2.236a8.4,8.4,0,0,1,2.193.26c.2-2.627,1.327-14.435,5.583-13.96,4.786.531,0,5.2-1.353,7.964a65.727,65.727,0,0,0-2.543,6.369c.389.084.791.167,1.2.242.634-1.948,2.995-8.5,6-8.117,3.524.447,2.107,3.074-.39,4.633-1.833,1.147-4.083,2.776-5.152,3.564a15.25,15.25,0,0,0,2.81.225A6.058,6.058,0,0,1,2023.4,1748.347Z" transform="translate(-1427.065 -1338.239)" fill="#a8d29f"/>
    <g id="Grupo_97200" data-name="Grupo 97200" transform="translate(592.628 293.15)">
      <path id="Trazado_141093" data-name="Trazado 141093" d="M2152.416,1200.253s.342-3.4-1.437-3.286-2.25.932-2.051,1.586a18.546,18.546,0,0,0,1.929,2.817Z" transform="translate(-2138.446 -1177.499)" fill="#ffb27d"/>
      <path id="Trazado_141094" data-name="Trazado 141094" d="M2187.751,1222.377a29.042,29.042,0,0,1-6.2,4.985c-.4.254-.821.509-1.263.766a46.956,46.956,0,0,1-5.8,2.855c-.245.1-.534.212-.857.328a41.807,41.807,0,0,1-10.1,2.332c-.252.01-.491.01-.713,0-4.4-.177-4.941-17.273-4.941-17.273s.49-1.711,2.753-1.28c0,0,3.437,9.655,4.668,10.442,1.094.7,7.382-8.832,12.794-9.5C2181.727,1215.586,2187.751,1222.377,2187.751,1222.377Z" transform="translate(-2146.06 -1192.806)" fill="#5cd8a0"/>
      <path id="Trazado_141095" data-name="Trazado 141095" d="M2217.106,1802.633s.325,3.763-.47,4.155l-10.181-.021s0-1.175,1.635-1.436,4.508-1.219,4.994-3.351S2217.106,1802.633,2217.106,1802.633Z" transform="translate(-2187.248 -1689.695)" fill="#1c3154"/>
      <path id="Trazado_141096" data-name="Trazado 141096" d="M2227.142,1446.038c.05,2.461.168,5,.4,7.28,1.1,10.825,1.486,23.9,1.644,26.425.274,4.377,1.139,11.37,1.139,11.37s1.715,1.628,5.058.851a113.833,113.833,0,0,0,3.389-20.677c.009-.174.019-.349.028-.524.072-1.4.147-3.005.224-4.734.51-11.579,1.063-28.78,1.063-28.78l-12.775-3S2227.016,1439.9,2227.142,1446.038Z" transform="translate(-2204.758 -1378.648)" fill="#2a4e96"/>
      <path id="Trazado_141097" data-name="Trazado 141097" d="M2227.142,1446.038c3.238,5.586,9.409,15.877,11.881,19.992.51-11.579,1.063-28.78,1.063-28.78l-12.775-3S2227.016,1439.9,2227.142,1446.038Z" transform="translate(-2204.758 -1378.648)" fill="#233862"/>
      <path id="Trazado_141098" data-name="Trazado 141098" d="M2205.1,1298.241a41.814,41.814,0,0,1-10.1,2.332c.442-.083,3.665-.721,4.857-2.16,1.28-1.547,3.435-5.747,5.149-4.033C2205.811,1295.188,2205.574,1296.782,2205.1,1298.241Z" transform="translate(-2177.536 -1259.737)" fill="#17c878"/>
      <path id="Trazado_141099" data-name="Trazado 141099" d="M2386.392,1498.647a19.827,19.827,0,0,1,.663,3.8,13.6,13.6,0,0,1-1.387,3.612c-.483.581-.5-2.524-.823-3.012s-.147,1.159-.4,1.294-.686-1.248-.877-1.738.686-2.2.767-3.418S2386.392,1498.647,2386.392,1498.647Z" transform="translate(-2337.361 -1433.077)" fill="#ffb27d"/>
      <path id="Trazado_141100" data-name="Trazado 141100" d="M2406.383,1778.3s1.812,1.654,1.458,2.828-1.989,1.958-2.209,3.394-1.1,2.219-1.9,2.219h-3.793s-.585-1.011.829-1.315,1.947-1.992,1.859-3.558a27.619,27.619,0,0,1,.133-3.656l3.005-.7Z" transform="translate(-2351.164 -1669.635)" fill="#1c3154"/>
      <path id="Trazado_141101" data-name="Trazado 141101" d="M2241.641,1434.026s11.959,25.588,18.323,36.815,8.353,14.36,8.353,14.36,3.646-1.436,3.977-2.415c0,0-2.434-21.675-6.7-26.958-2.408-2.985-5.237-11.945-5.37-15.078s-2.927-10.611-2.927-10.611Z" transform="translate(-2217.075 -1375.162)" fill="#2a4e96"/>
      <path id="Trazado_141102" data-name="Trazado 141102" d="M2226.907,1252.059a20.726,20.726,0,0,0,10.511,5.457c2.9.556,8.8,1.093,10.26-.975a3.7,3.7,0,0,0,.271-2.326c-.2-2.917-.931-8.555,2.382-19.887a19.351,19.351,0,0,0,.637-3.029c.723-5.8.645-10.173-4.385-12.511-7.536-3.5-10.629-.621-10.629-.621a12.622,12.622,0,0,0-5.84,7.331C2226.452,1236.416,2226.907,1252.059,2226.907,1252.059Z" transform="translate(-2204.57 -1194.526)" fill="#5cd8a0"/>
      <path id="Trazado_141103" data-name="Trazado 141103" d="M2294.435,1180.2a5.594,5.594,0,0,1-5.629.369,6.446,6.446,0,0,1-.1-2.313c.041-1.085.143-2.15.143-2.15l2.681-1.76,2.559-1.679C2293.78,1178.438,2295.008,1179.789,2294.435,1180.2Z" transform="translate(-2256.946 -1156.899)" fill="#ffb27d"/>
      <path id="Trazado_141104" data-name="Trazado 141104" d="M2293.8,1184.393a8.239,8.239,0,0,1-4.933,3.205c.041-1.085.157-2.28.157-2.28l2.668-1.63Z" transform="translate(-2257.106 -1166.245)" fill="#ed985f"/>
      <path id="Trazado_141105" data-name="Trazado 141105" d="M2270.149,1132.283s6.488,2.421,7.931-1.576,3.253-6.377-.828-8.092-5.441-.478-6.253.739S2268.5,1131.55,2270.149,1132.283Z" transform="translate(-2240.651 -1113.757)" fill="#ffb27d"/>
      <path id="Trazado_141106" data-name="Trazado 141106" d="M2277.62,1108.4c.075-.058.226-.086.542-.042a1.3,1.3,0,0,0-.552-.28,1.6,1.6,0,0,0-.77-1.6.956.956,0,0,1,.321.766c-.69-1.061-2.418-2.074-7.636-2.684-6.877-.8-5.5,3.973-4.727,4.663s3.261-.291,4.868.161,1.453,2.874,1.942,3.307.385-.182,1.2-.373.643,1.065.267,1.83.443,2.034.443,2.034l1.262-.916c1.262-.915,3.181-5.47,2.908-6.576C2277.668,1108.6,2277.645,1108.5,2277.62,1108.4Z" transform="translate(-2236.149 -1099.095)" fill="#2c3a64"/>
      <path id="Trazado_141107" data-name="Trazado 141107" d="M2342.8,1332.352c-.2-2.916-.931-8.555,2.382-19.887a19.348,19.348,0,0,0,.637-3.029h0c-2.461-.812-6.945.994-6.945.994S2337.822,1325.408,2342.8,1332.352Z" transform="translate(-2299.424 -1272.663)" fill="#17c878"/>
      <path id="Trazado_141108" data-name="Trazado 141108" d="M2304.979,1233.426s3.028,1.1,4.96,9.119c1.276,5.3,3.625,13.083,3.89,15.53s-2.686,16.772-2.686,16.772a1.922,1.922,0,0,1-1.436.1,2.371,2.371,0,0,1-1.43-.855s-.706-9.547-.523-14.056c.076-1.873-8.67-13.717-13.391-15.242C2292.51,1244.193,2304.979,1233.426,2304.979,1233.426Z" transform="translate(-2261.61 -1208.407)" fill="#5cd8a0"/>
      <path id="Trazado_141109" data-name="Trazado 141109" d="M2086.991,1085.088a100.732,100.732,0,0,1,18.853,1.611l1.055-2.659,1.157-2.913s-10.14-4.365-16.235-10.444Z" transform="translate(-2085.977 -1070.447)" fill="#aec3ff"/>
      <path id="Trazado_141110" data-name="Trazado 141110" d="M2086.315,1069.235l-5.025,14.833h0a1.337,1.337,0,0,1-.88-1.729l4.422-12.463a1.1,1.1,0,0,1,1.483-.641Z" transform="translate(-2080.333 -1069.142)" fill="#f99746"/>
      <path id="Trazado_141111" data-name="Trazado 141111" d="M2143.009,1169.612h0a1.817,1.817,0,0,0,2.132-1.421l1.73-8.657a1.817,1.817,0,0,0-1.422-2.131h0a1.816,1.816,0,0,0-2.131,1.421l-1.73,8.657A1.817,1.817,0,0,0,2143.009,1169.612Z" transform="translate(-2132.229 -1143.932)" fill="#f99746"/>
      <path id="Trazado_141112" data-name="Trazado 141112" d="M2086.991,1155.8a100.72,100.72,0,0,1,18.853,1.611l1.055-2.659C2097.408,1152.813,2086.991,1155.8,2086.991,1155.8Z" transform="translate(-2085.977 -1141.16)" fill="#739af0"/>
      <path id="Trazado_141113" data-name="Trazado 141113" d="M2192.449,1135.889l2.735.481a3.016,3.016,0,0,0,3.387-1.786,1.858,1.858,0,0,0,.162-.494c.658-2.853-.908-3.378-.908-3.378l-3.52-1.371-1.119,3.957v.014Z" transform="translate(-2175.375 -1120.172)" fill="#f99746"/>
      <path id="Trazado_141114" data-name="Trazado 141114" d="M2192.449,1157.917l2.735.481a3.016,3.016,0,0,0,3.387-1.786c-1.547-1.125-5.384-1.286-5.384-1.286v.014Z" transform="translate(-2175.375 -1142.201)" fill="#ed7d2b"/>
      <path id="Trazado_141115" data-name="Trazado 141115" d="M2146.02,1182.3s1.338.533,1.093,1.122-1.946,1.4-2.215.934S2145.178,1181.807,2146.02,1182.3Z" transform="translate(-2135.007 -1165.007)" fill="#ffb27d"/>
      <path id="Trazado_141116" data-name="Trazado 141116" d="M2170.021,1197.451a18.764,18.764,0,0,0,.269-2c.016-.629.089-1.142-.059-1.16s-.255.1-.316.3-.292,1.456-.292,1.456l.117,1.21Z" transform="translate(-2156.025 -1175.233)" fill="#ffb27d"/>
    </g>
    <g id="Grupo_97202" data-name="Grupo 97202" transform="translate(391.989 265.432)">
      <path id="Trazado_141117" data-name="Trazado 141117" d="M1260.771,1204.424l-7.58,90.125s-.794,5.463,3.27,5.473c6.682.016,33.256,0,33.256,0s-5.029-1.137-4.968-3.7c.072-3.016,8.859-92.755,8.859-92.755Z" transform="translate(-1178.464 -1155.381)" fill="#b3ddff"/>
      <path id="Trazado_141119" data-name="Trazado 141119" d="M779.653,887.135,798.116,961.3l2.528,10.157,8.6,34.543H969l-31.7-118.862Z" transform="translate(-777.094 -887.135)" fill="#b3ddff"/>
      <path id="Trazado_141120" data-name="Trazado 141120" d="M765.408,887.134l-2.559.853L791.6,1008.576,795,1006Z" transform="translate(-762.849 -887.134)" fill="#90aff4"/>
      <path id="Trazado_141121" data-name="Trazado 141121" d="M951.617,1670.214h158.776l4.385-2.58H955.019Z" transform="translate(-922.87 -1548.772)" fill="#7599ea"/>
      <path id="Trazado_141124" data-name="Trazado 141124" d="M779.651,887.134H937.3l25.58,95.527H803.432Z" transform="translate(-777.092 -887.134)" fill="#b3ddff"/>
      <path id="Trazado_141125" data-name="Trazado 141125" d="M991.8,1007.007H844.185l-5.275-21.013-2.041-8.131-.832-3.316-5.421-21.595-.281-1.124-2.866-11.415-1.282-5.107-1.094-4.357-2.564-10.213H968.014l2.816,10.213,1.2,4.357,1.408,5.107,9.276,33.648v0l.786,2.851.365,1.323,6.4,23.23Z" transform="translate(-813.441 -915.619)" fill="#fff"/>
      <path id="Trazado_141126" data-name="Trazado 141126" d="M970.834,930.948H825.1l-2.564-10.214H968.018Z" transform="translate(-813.444 -915.617)" fill="#b9d1c7"/>
      <g id="Grupo_97201" data-name="Grupo 97201" transform="translate(15.068 8.456)">
        <path id="Trazado_141127" data-name="Trazado 141127" d="M861.835,943.937a.965.965,0,0,1,.958-1.277,1.744,1.744,0,0,1,1.6,1.277.965.965,0,0,1-.958,1.277A1.744,1.744,0,0,1,861.835,943.937Z" transform="translate(-861.795 -942.66)" fill="#e9f3fe"/>
        <path id="Trazado_141128" data-name="Trazado 141128" d="M889.693,943.937a.965.965,0,0,1,.958-1.277,1.744,1.744,0,0,1,1.6,1.277.965.965,0,0,1-.958,1.277A1.744,1.744,0,0,1,889.693,943.937Z" transform="translate(-885.411 -942.66)" fill="#e9f3fe"/>
        <path id="Trazado_141129" data-name="Trazado 141129" d="M919.69,943.937a.965.965,0,0,1,.958-1.277,1.744,1.744,0,0,1,1.6,1.277.965.965,0,0,1-.958,1.277A1.744,1.744,0,0,1,919.69,943.937Z" transform="translate(-910.839 -942.66)" fill="#e9f3fe"/>
      </g>
    </g>
    <path id="Trazado_141130" data-name="Trazado 141130" d="M1539.776,211.17c5.966-7.005,15.166-21.076,21.36-28.282a2.285,2.285,0,0,0-1.74-3.772h-11.271l10.631-24.04a.942.942,0,0,0-1.617-.945l-25.706,34.406a1.423,1.423,0,0,0,1.314,2.263l12.76-1.571-7.592,20.854A1.1,1.1,0,0,0,1539.776,211.17Z" transform="translate(-1022.153 0)" fill="#fb9e36"/>
    <path id="Trazado_141131" data-name="Trazado 141131" d="M1161.332,560.474c1.342-6.884,2.19-19.672,3.608-26.774a1.742,1.742,0,0,0-2.567-1.854l-7.486,4.216-1.931-19.944a.718.718,0,0,0-1.427-.023l-4.2,32.467a1.084,1.084,0,0,0,1.719,1.012l7.887-5.817,2.758,16.69A.835.835,0,0,0,1161.332,560.474Z" transform="translate(-696.775 -306.637)" fill="#fb9e36"/>
    <g id="Grupo_97206" data-name="Grupo 97206" transform="translate(429.722 217.54)">
      <path id="Trazado_141132" data-name="Trazado 141132" d="M1184.818,741.082l-128.263,10.806a12.839,12.839,0,0,1-12.8-18.031L1098.1,612.242a12.839,12.839,0,0,1,22.4-1.888l73.923,110.808A12.839,12.839,0,0,1,1184.818,741.082Z" transform="translate(-1037.746 -599.769)" fill="#fff"/>
      <g id="Grupo_97203" data-name="Grupo 97203" transform="translate(0 0)">
        <path id="Trazado_141133" data-name="Trazado 141133" d="M1158.1,718.819l-128.263,10.806a17.708,17.708,0,0,1-17.654-24.869l54.341-121.615a17.708,17.708,0,0,1,30.9-2.6l73.922,110.808a17.707,17.707,0,0,1-13.244,27.472Zm-76.078-136.4a7.869,7.869,0,0,0-6.608,4.691l-54.341,121.615a7.97,7.97,0,0,0,7.946,11.193l128.263-10.806a7.97,7.97,0,0,0,5.961-12.365l-73.923-110.808A7.869,7.869,0,0,0,1082.024,582.423Z" transform="translate(-1010.622 -572.655)" fill="#f1d54e"/>
      </g>
      <g id="Grupo_97205" data-name="Grupo 97205" transform="translate(61.815 36.155)">
        <g id="Grupo_97204" data-name="Grupo 97204">
          <path id="Trazado_141134" data-name="Trazado 141134" d="M1423.109,896.617a11.733,11.733,0,0,1,.5-4.658,10.752,10.752,0,0,1,2.195-3.855,11.527,11.527,0,0,1,3.685-2.732,14.372,14.372,0,0,1,5.047-1.3,14.7,14.7,0,0,1,5.23.43,11.463,11.463,0,0,1,4.129,2.074,10.765,10.765,0,0,1,2.809,3.433,11.751,11.751,0,0,1,1.272,4.509,11.476,11.476,0,0,1-.5,4.62,10.831,10.831,0,0,1-2.2,3.817,11.423,11.423,0,0,1-3.724,2.735,14.7,14.7,0,0,1-5.085,1.3,14.371,14.371,0,0,1-5.192-.433,11.493,11.493,0,0,1-4.09-2.077,10.821,10.821,0,0,1-2.806-3.4A11.454,11.454,0,0,1,1423.109,896.617Zm19.83-23.2-18.475,1.557-7.936-62.907,23.71-2Z" transform="translate(-1416.528 -810.065)" fill="#f1d54e"/>
        </g>
      </g>
    </g>
    <g id="Grupo_97210" data-name="Grupo 97210" transform="translate(377.918 293.537)">
      <path id="Trazado_141135" data-name="Trazado 141135" d="M936.749,1235.927s.4-.9.663-1.333,1.373-1.683,1.563-1.4.947,2.2.545,2.732.026,1.467-1.976,2.031Z" transform="translate(-896.195 -1208.564)" fill="#ffb27d"/>
      <path id="Trazado_141136" data-name="Trazado 141136" d="M790.676,1213.861s10.247,8.554,14.243,7.762c3.124-.619,8.064-2.186,8.064-2.186a3.152,3.152,0,0,1,.935,2.726s-6.293,5.921-10.776,5.96c-7.008.06-10.313-3.473-10.313-3.473Z" transform="translate(-772.367 -1192.209)" fill="#5cd8a0"/>
      <path id="Trazado_141137" data-name="Trazado 141137" d="M672.668,1797.713s.3,4.8,1.226,4.867c.124.009,4.709.009,4.709.009l5.853-.034a1.9,1.9,0,0,0-1.749-1.708c-1.711-.3-4.575-1.5-5.611-3.762C676.005,1794.707,672.668,1797.713,672.668,1797.713Z" transform="translate(-672.331 -1685.838)" fill="#113c68"/>
      <path id="Trazado_141138" data-name="Trazado 141138" d="M670.453,1478.724a12.206,12.206,0,0,0,3.168.6,11.636,11.636,0,0,0,2.958-.422,81,81,0,0,1,2.179-10.378c.966-3.741,2.347-8.552,4.31-14.529,5.429-16.52,7.08-26.185,7.231-27.1.008-.048.011-.072.011-.072l-.018-.008-16.692-7.329s2.063,22.769-.569,31.508a36.789,36.789,0,0,0-.955,4.187C670.414,1464.669,670.453,1478.724,670.453,1478.724Z" transform="translate(-670.453 -1366.515)" fill="#2a4e96"/>
      <path id="Trazado_141139" data-name="Trazado 141139" d="M693.026,1468.519c.966-3.741,2.347-8.552,4.31-14.529,5.429-16.52,7.08-26.185,7.231-27.1,0-.027,0-.053-.006-.08l-16.692-7.329s2.063,22.769-.569,31.508C686.932,1452.21,693.026,1468.519,693.026,1468.519Z" transform="translate(-684.721 -1366.515)" fill="#233862"/>
      <path id="Trazado_141140" data-name="Trazado 141140" d="M758.276,1797.713s.3,4.8,1.226,4.867c.123.009,4.709.009,4.709.009l5.853-.034a1.9,1.9,0,0,0-1.749-1.708c-1.711-.3-4.575-1.5-5.611-3.762C761.613,1794.707,758.276,1797.713,758.276,1797.713Z" transform="translate(-744.901 -1685.838)" fill="#15447c"/>
      <path id="Trazado_141141" data-name="Trazado 141141" d="M721.63,1423.005a237.622,237.622,0,0,1-2.336,32.87c-2.553,18.116-1.688,25.805-1.688,25.805a17.365,17.365,0,0,1-2.462.626,11.167,11.167,0,0,1-3.652-.422s-3.654-18.122-2.606-27.19-5-31.114-5-31.114Z" transform="translate(-698.792 -1369.502)" fill="#2a4e96"/>
      <path id="Trazado_141142" data-name="Trazado 141142" d="M742.7,1155.686l3.258,2.136,2.968-.839a7.09,7.09,0,0,0,.694-3.558,22.151,22.151,0,0,0-.117-2.37l-4.4-1.94-1.64-.723c0,.025.128,1.347.145,1.54A11.221,11.221,0,0,1,742.7,1155.686Z" transform="translate(-731.697 -1136.711)" fill="#ffb27d"/>
      <path id="Trazado_141143" data-name="Trazado 141143" d="M706.4,1228.024c-4.055,3.916-19.4,3.257-20.35-1.057s1.032-36.725,7.959-38.761c1.438-.423,9.123,2.062,9.123,2.062a48.718,48.718,0,0,1,2,7.171c.154.782.6,9.064.937,16.813.156,3.624.289,7.132.356,9.7A27.989,27.989,0,0,1,706.4,1228.024Z" transform="translate(-683.49 -1170.419)" fill="#5cd8a0"/>
      <path id="Trazado_141144" data-name="Trazado 141144" d="M750.154,1154.014c.892,1.508,4.021,2.828,5.679,3.432a22.134,22.134,0,0,0-.117-2.37l-4.4-1.94C750.349,1153.123,749.757,1153.34,750.154,1154.014Z" transform="translate(-737.911 -1140.731)" fill="#fca56b"/>
      <path id="Trazado_141145" data-name="Trazado 141145" d="M743.28,1099.23s-7.083,2.21-8.391-2.223-3.1-7.132,1.364-8.73,5.849-.167,6.645,1.206S745.089,1098.542,743.28,1099.23Z" transform="translate(-723.816 -1085.153)" fill="#ffb27d"/>
      <path id="Trazado_141146" data-name="Trazado 141146" d="M725.467,1075.586s-.452,5.158-1.518,4.934-2.241-.7-2.085.852-1.037,4.22-2.575,4.213c-3.3-.014-6.882-8.478-5.979-10.083C715.915,1070.872,729.233,1069.937,725.467,1075.586Z" transform="translate(-706.663 -1071.683)" fill="#163560"/>
      <path id="Trazado_141147" data-name="Trazado 141147" d="M746.785,1177.1c-.091-.038-5.273-2.363-5.879-2.163s-1.361,2.051-1.361,2.051l9.124,2.063A4.532,4.532,0,0,0,746.785,1177.1Z" transform="translate(-729.023 -1159.205)" fill="#17c878"/>
      <g id="Grupo_97208" data-name="Grupo 97208" transform="translate(18.258 3.266)">
        <path id="Trazado_141148" data-name="Trazado 141148" d="M822.1,1338.572l-29.045,27.346c-.569.536-1.287.707-1.6.379l-.98-1.041c-.308-.327-.094-1.034.475-1.57L820,1336.341c.569-.536,1.287-.707,1.6-.38l.98,1.041C822.887,1337.33,822.673,1338.036,822.1,1338.572Z" transform="translate(-790.342 -1298.839)" fill="#1f4d84"/>
        <path id="Trazado_141149" data-name="Trazado 141149" d="M805.8,1442.379l-12.745,12c-.569.536-1.287.707-1.6.38l-.98-1.041c-.308-.327-.094-1.034.475-1.57l12.746-12Z" transform="translate(-790.342 -1387.301)" fill="#739af0"/>
        <path id="Trazado_141150" data-name="Trazado 141150" d="M949.571,1122.538A22.766,22.766,0,1,0,987.3,1099.66c-.117-.117-.236-.231-.357-.345a22.767,22.767,0,0,0-37.375,23.223Zm6.507-21.011a20.969,20.969,0,1,1,.9,29.64A20.944,20.944,0,0,1,956.078,1101.527Z" transform="translate(-924.485 -1093.131)" fill="#1f4d84"/>
        <g id="Grupo_97207" data-name="Grupo 97207" transform="translate(25.895 1.797)" opacity="0.5">
          <path id="Trazado_141151" data-name="Trazado 141151" d="M996.621,1140.267a20.969,20.969,0,1,1-.9-29.639A20.882,20.882,0,0,1,996.621,1140.267Z" transform="translate(-960.382 -1104.933)" fill="#b3cff9"/>
        </g>
      </g>
      <path id="Trazado_141152" data-name="Trazado 141152" d="M739.229,1275.013c-16-11.4-14.673-26.622-14.673-26.622,5.849,3.3,11.654,10.594,14.317,16.921C739.029,1268.936,739.161,1272.444,739.229,1275.013Z" transform="translate(-716.293 -1221.48)" fill="#17c878"/>
      <g id="Grupo_97209" data-name="Grupo 97209" transform="translate(7.929 19.849)">
        <path id="Trazado_141153" data-name="Trazado 141153" d="M914.109,1382.07a4.37,4.37,0,0,0,2.044-1.263s.481.033-.079,1.06c-.047.086-.151.306-.23.463a.1.1,0,0,0,.084.143,10.65,10.65,0,0,1,2.561.053c.173.036.223.451.217.627a1.6,1.6,0,0,1-.337,1.093,5.594,5.594,0,0,1-2.022,1.059,6.119,6.119,0,0,1-3.129-.393l-1.025-.475.318-1.9.257.054C913.177,1382.673,913.683,1382.174,914.109,1382.07Z" transform="translate(-883.307 -1353.579)" fill="#ffb27d"/>
        <path id="Trazado_141154" data-name="Trazado 141154" d="M727.816,1202.019s-14.38,2.738,4.231,23.562c2.976,3.33,19.057,7.667,19.057,7.667s1.631-1.388.809-2.511c0,0-11.072-8.04-13.508-9.319-1.1-.575-4.254-12.833-6.04-15.785A8.054,8.054,0,0,0,727.816,1202.019Z" transform="translate(-722.516 -1202.019)" fill="#5cd8a0"/>
      </g>
      <path id="Trazado_141155" data-name="Trazado 141155" d="M939.31,1233.513a7.323,7.323,0,0,0,.562-1.373,7.6,7.6,0,0,1,.928-2.1c.1-.1.42.029.458.448a2.438,2.438,0,0,1-.231.91,10.233,10.233,0,0,0-.3,1.807C940.5,1233.929,939.31,1233.513,939.31,1233.513Z" transform="translate(-898.366 -1205.897)" fill="#ffb27d"/>
    </g>
    <g id="Grupo_97212" data-name="Grupo 97212" transform="translate(402.135 217.304)">
      <g id="Grupo_97211" data-name="Grupo 97211" transform="translate(0 0)">
        <path id="Trazado_141156" data-name="Trazado 141156" d="M975.643,975.434a.867.867,0,0,0-.155.928.007.007,0,0,0,0,0,5.765,5.765,0,0,0,1.821,2c.11.089.207.169.292.244l.066.059.051.046c.8.739.5.907,1.937,2.406,1.64,1.707,2.769,1.739,3.091,1.583.272-.132-.28-1.038-.892-2.055l-.089-.149c-.082-.135-.162-.273-.243-.409-.717-1.225-.532-1.8-.362-3.622.139-1.481,2.307-8.272,2.307-8.272l-3.143-.543s-.949,5.408-1.992,6.241c-.558.444-1.182.449-1.719.778l-.112.071A4.127,4.127,0,0,0,975.643,975.434Z" transform="translate(-953.193 -907.264)" fill="#ffb27d"/>
        <path id="Trazado_141157" data-name="Trazado 141157" d="M975.643,1014.9a.867.867,0,0,0-.155.928.007.007,0,0,0,0,0,6.678,6.678,0,0,0,1.824,1.993c.108.09.2.173.289.25l.066.059.051.046c.8.739.5.907,1.937,2.406,1.64,1.707,2.769,1.738,3.091,1.583.272-.132-.28-1.038-.892-2.055a6.992,6.992,0,0,1-2.923-2.156c-.951-1.215-1.6-2.763-2.244-3.714l-.185-.035A4.13,4.13,0,0,0,975.643,1014.9Z" transform="translate(-953.193 -946.727)" fill="#233862"/>
        <path id="Trazado_141158" data-name="Trazado 141158" d="M1129.358,968.2c.194.97,1.577.809,3.122.432s1.178.072,3.378-.171,2.866-1.063,2.933-1.39c.06-.29-1.027-.393-2.192-.528-.147-.016-.294-.035-.441-.053-1.316-.166-2.28-1.015-3.475-1.713-1.132-.661-2.821-3.353-2.821-3.353l-3.016.238s1.582,2.4,2.194,3.45a3.645,3.645,0,0,1,.3,2.056A3.871,3.871,0,0,0,1129.358,968.2Z" transform="translate(-1081.559 -901.979)" fill="#ffb27d"/>
        <path id="Trazado_141159" data-name="Trazado 141159" d="M1146.207,997.122c1.546-.377,1.178.072,3.378-.171s2.866-1.062,2.933-1.39c.06-.29-1.027-.393-2.192-.528l-.011.022a6.2,6.2,0,0,1-3.15.978c-1.492.036-3.072-.392-4.1-.376a3.871,3.871,0,0,0,.023,1.032C1143.279,997.661,1144.662,997.5,1146.207,997.122Z" transform="translate(-1095.286 -930.474)" fill="#233862"/>
        <path id="Trazado_141160" data-name="Trazado 141160" d="M1009.852,852.319l-2.822,7.586-3.685,9.905a5.964,5.964,0,0,1-1.956-.179,8.474,8.474,0,0,1-1.891-.921s1.026-10.637,2.935-16.742a10.869,10.869,0,0,1,1.642-3.548C1007.033,844.927,1009.852,852.319,1009.852,852.319Z" transform="translate(-973.606 -805.393)" fill="#233862"/>
        <path id="Trazado_141161" data-name="Trazado 141161" d="M896.858,791.629c-1.6-.518-5.793-.01-10.335.811A3.081,3.081,0,0,1,883.342,791h0l-11.431-.9s-3.775,8.364-1.712,13.695a2.005,2.005,0,0,0,2,1.29h0s6.908.012,9.117.013c5.685,0,12.033-3.9,12.854-4.068,1.344-.268,1.88,2.419,3.223,5.242s12.627,12.5,12.627,12.5a9.926,9.926,0,0,0,2.452-.251,2.414,2.414,0,0,0,1.053-.664S901.023,792.974,896.858,791.629Z" transform="translate(-863.474 -756.754)" fill="#2a4e96"/>
        <path id="Trazado_141162" data-name="Trazado 141162" d="M848.395,571.787a4.055,4.055,0,0,0-2.183-.569,6.07,6.07,0,0,1-1.054-.064c-4.363-.641-6.992,5.7-7.147,7.61-.284,3.515-2.144,4.051-4.762,6.251-5.25,4.413-3.713,9.543-.844,11.45,1.722,1.144,4.757,0,4.757,0,.043.03,8.3-4.614,12.374-6.854C855.639,588.747,850.846,573.247,848.395,571.787Z" transform="translate(-829.73 -571.108)" fill="#233862"/>
        <path id="Trazado_141163" data-name="Trazado 141163" d="M906.13,644.447a5.38,5.38,0,0,1-3.354.1,5.981,5.981,0,0,1-2.214-2.655c.578-.026,1.213-.532,1.7-3.849l.246.089,4.14,1.491s-.3,1.328-.495,2.593C905.992,643.279,905.9,644.3,906.13,644.447Z" transform="translate(-889.735 -627.851)" fill="#ffb27d"/>
        <path id="Trazado_141164" data-name="Trazado 141164" d="M917.5,640.117s-.165.717-.407,2.056a4.675,4.675,0,0,1-3.733-3.547Z" transform="translate(-900.589 -628.344)" fill="#ed975d"/>
        <path id="Trazado_141165" data-name="Trazado 141165" d="M915.814,601.611s-5.664-.762-5.135-4.282.154-5.989,3.793-5.651,4.138,1.786,4.247,3S917.3,601.718,915.814,601.611Z" transform="translate(-898.282 -588.518)" fill="#ffb27d"/>
        <path id="Trazado_141166" data-name="Trazado 141166" d="M909.471,591.02s-3.627,3.124-6.094,3.375-3.4-.541-3.4-.541a9.63,9.63,0,0,0,2.33-3.154,1.735,1.735,0,0,1,1.43-1.022C905.5,589.526,908.837,589.458,909.471,591.02Z" transform="translate(-889.24 -586.787)" fill="#233862"/>
        <path id="Trazado_141167" data-name="Trazado 141167" d="M947.434,593.292a8.93,8.93,0,0,1,1.594,2.044,6.857,6.857,0,0,1,.184,3.645s1.891-3.674.822-5.46A1.51,1.51,0,0,0,947.434,593.292Z" transform="translate(-929.47 -589.34)" fill="#233862"/>
        <path id="Trazado_141168" data-name="Trazado 141168" d="M883.819,673.475c-.175,11.466-.05,9.07-1.3,10.158a4.814,4.814,0,0,1-2.27.491c-3.516.232-9.7-.349-9.931-1-.81-2.249-.237-2.947-.913-6.389-.07-.366-.158-.762-.26-1.194-.563-2.364-1.112-3.169.891-6.966,1.816-3.44,3.7-6.231,3.872-6.131,4.788,2.844,5.175.455,5.175.455S883.9,667.882,883.819,673.475Z" transform="translate(-862.657 -648.533)" fill="#5cd8a0"/>
        <path id="Trazado_141169" data-name="Trazado 141169" d="M1007.03,884.872l-3.685,9.905a5.963,5.963,0,0,1-1.956-.179,8.474,8.474,0,0,1-1.891-.921s1.026-10.637,2.935-16.742Z" transform="translate(-973.606 -830.361)" fill="#2a4e96"/>
        <path id="Trazado_141170" data-name="Trazado 141170" d="M937.3,665.444s4.927.837,5.5,2.959,2.478,15,2.478,15-1.39,1.356-2.547.2-3.638-12.049-3.638-12.049Z" transform="translate(-920.877 -651.078)" fill="#5cd8a0"/>
        <path id="Trazado_141171" data-name="Trazado 141171" d="M884.592,737.108c-3.516.232-9.7-.349-9.931-1-.81-2.249-.237-2.947-.913-6.389l1.7-4.775s-.282,5.318,1.286,6.717,6.42,2.7,7.182,3.871A4.279,4.279,0,0,1,884.592,737.108Z" transform="translate(-867.005 -701.517)" fill="#17c878"/>
        <path id="Trazado_141172" data-name="Trazado 141172" d="M918.508,787.135s3.469-.771,4.029-.463a8.148,8.148,0,0,1,2.1,1.82c.171.39-1.246-.3-1.707-.42a4.1,4.1,0,0,0-1.474.322,4.9,4.9,0,0,1-2.64.264Z" transform="translate(-904.949 -753.782)" fill="#ffb27d"/>
        <path id="Trazado_141173" data-name="Trazado 141173" d="M840.716,662.444s-4.658.285-6.271,2.534c-2.271,3.165-6.778,16.654-4.2,18.454,2.905,2.027,13.225.535,13.225.535a4.19,4.19,0,0,0-.134-2.382c-.477-.777-8.242-2.034-8.6-2.392s4.482-6.987,4.482-8.062S840.716,662.444,840.716,662.444Z" transform="translate(-829.473 -648.534)" fill="#5cd8a0"/>
        <path id="Trazado_141174" data-name="Trazado 141174" d="M946.061,793.416a6.716,6.716,0,0,0,.965,1.05.712.712,0,0,0,.392.084l-.489-.882Z" transform="translate(-928.306 -759.561)" fill="#ffb27d"/>
        <path id="Trazado_141175" data-name="Trazado 141175" d="M944.961,787.076l2.113,1.027a.376.376,0,0,1-.35.135,5.045,5.045,0,0,1-.916-.252Z" transform="translate(-927.373 -754.186)" fill="#ffb27d"/>
      </g>
      <path id="Trazado_141176" data-name="Trazado 141176" d="M940.575,802.914l-22.072-.008v.487l21.876.008Z" transform="translate(-904.944 -767.606)" fill="#233862"/>
      <path id="Trazado_141177" data-name="Trazado 141177" d="M952.394,736.526l16.715.006,5.033-12.5-16.689-.006Z" transform="translate(-933.674 -700.736)" fill="#f1d54e"/>
      <path id="Trazado_141178" data-name="Trazado 141178" d="M1025.419,760.662a.579.579,0,0,0-.567-.8,1.14,1.14,0,0,0-1.024.8.579.579,0,0,0,.567.8A1.141,1.141,0,0,0,1025.419,760.662Z" transform="translate(-994.202 -731.12)" fill="#fff"/>
    </g>
    <g id="Grupo_97214" data-name="Grupo 97214" transform="translate(526.853 299.958)">
      <path id="Trazado_141179" data-name="Trazado 141179" d="M1719.814,1114.133a4.8,4.8,0,0,0-3.811.2c-6.483.266-6.724,6.912-5.963,9.385,1.069,3.473-2.714,6.212,1.481,7.618,4.867,1.631,8.951-.3,8.673.536C1735.586,1133.081,1724.935,1115.834,1719.814,1114.133Z" transform="translate(-1700.192 -1113.845)" fill="#163560"/>
      <path id="Trazado_141180" data-name="Trazado 141180" d="M1679.808,1251.286a17,17,0,0,1-1.734,2.621c-1.347,1.687-8.415-2.317-7.806-2.621s4.161-10.538,5.007-11.824,3.729-1.954,3.729-1.954Z" transform="translate(-1666.911 -1218.676)" fill="#5cd8a0"/>
      <path id="Trazado_141181" data-name="Trazado 141181" d="M1850.413,1776.489s1.951,1.78,1.57,3.046-2.141,2.108-2.379,3.655-1.189,2.39-2.046,2.39h-4.084s-.63-1.088.892-1.416,2.1-2.145,2-3.832a29.719,29.719,0,0,1,.143-3.936l3.236-.75Z" transform="translate(-1813.661 -1674.86)" fill="#1f447f"/>
      <path id="Trazado_141182" data-name="Trazado 141182" d="M1719.444,1786.147s.7,7.543-.154,7.964l-10.962-.022s0-1.265,1.761-1.546,4.854-1.312,5.377-3.608S1719.444,1786.147,1719.444,1786.147Z" transform="translate(-1699.206 -1683.762)" fill="#1c3154"/>
      <path id="Trazado_141183" data-name="Trazado 141183" d="M1726.45,1242.877a43.6,43.6,0,0,1,0,5.067c-.109,1.832-1.961,4.286-2.224,4.893-.66,1.522-1.4,1.77-1.4,1.77l-5.755,1.411-2.024.5-6.382-1.906s-2.907-8.113-1.74-12.68a35.094,35.094,0,0,1,2.95-7.739,45.539,45.539,0,0,1,11.988-.432Z" transform="translate(-1697.779 -1215.354)" fill="#5cd8a0"/>
      <path id="Trazado_141184" data-name="Trazado 141184" d="M1779.224,1300.64c-.109,1.832-2.51,4.221-2.773,4.828-.66,1.522-1.4,1.77-1.4,1.77l-5.755,1.411-1.039-2.979s8.41-2.209,7.057-9.992Z" transform="translate(-1750.004 -1267.987)" fill="#17c878"/>
      <path id="Trazado_141185" data-name="Trazado 141185" d="M1703.8,1379.674s-3.161,9.837-3.364,13.186,6.041,47.578,6.292,49.121c.237,1.455,2.043,2.382,2.043,2.382a2.735,2.735,0,0,0,2.017.155,4.986,4.986,0,0,0,2.165-1.021s2.46-31.544.938-42.812a178.444,178.444,0,0,1-1.54-21.012Z" transform="translate(-1692.511 -1339.191)" fill="#233862"/>
      <path id="Trazado_141186" data-name="Trazado 141186" d="M1741.729,1377.748s4.821,6.468,5.27,10.841.7,19.731,1.662,23.994,4.475,12.466,4.475,25.761a2.652,2.652,0,0,1-1.495,1.168,12.31,12.31,0,0,1-1.314.364,2.066,2.066,0,0,1-2.311-1.1c-2.378-4.788-9.954-20.233-10.343-23.439-.275-2.269-2.667-17.285-7.885-26.1-1.253-2.115.769-10.527.769-10.527Z" transform="translate(-1717.051 -1337.558)" fill="#2a4e96"/>
      <path id="Trazado_141187" data-name="Trazado 141187" d="M1718.235,1369.7a6.625,6.625,0,0,0,3.789,1.054c3.011.061,10.47-.767,10.47-.767a6.161,6.161,0,0,1,.318,1.9s-9.111,2.3-14.39.336A3.337,3.337,0,0,1,1718.235,1369.7Z" transform="translate(-1707.452 -1330.737)" fill="#233862"/>
      <g id="Grupo_97213" data-name="Grupo 97213" transform="translate(12.477 39.504)">
        <path id="Trazado_141188" data-name="Trazado 141188" d="M1731.726,1376.352a1.567,1.567,0,1,1,1.374-1.555A1.474,1.474,0,0,1,1731.726,1376.352Zm0-2.654a1.117,1.117,0,1,0,.918,1.1A1.023,1.023,0,0,0,1731.726,1373.7Z" transform="translate(-1730.352 -1373.242)" fill="#fff"/>
      </g>
      <path id="Trazado_141189" data-name="Trazado 141189" d="M1668.858,1324.084l-13.694.128-6.739-15.836,13.694-.128Z" transform="translate(-1648.426 -1278.642)" fill="#fb9e36"/>
      <path id="Trazado_141190" data-name="Trazado 141190" d="M1731.729,1351.29l-1-1.233a3.532,3.532,0,0,0-1.172-.709c-.493-.1-1.534-.7-1.635-.534s.8,1.376.8,1.376l.046.006c-1.034.777-3.644.091-3.966.408-.391.385.538,1.216,1.035,1.682a3.654,3.654,0,0,0,3.032.9c.812-.253,2.089-.51,2.089-.51Z" transform="translate(-1713.088 -1313.005)" fill="#ffb27d"/>
      <path id="Trazado_141191" data-name="Trazado 141191" d="M1654.7,1323.84s.861-.978,1.408-.509-.144,2.777-.665,2.543S1654.4,1324.127,1654.7,1323.84Z" transform="translate(-1653.67 -1291.321)" fill="#ffb27d"/>
      <path id="Trazado_141192" data-name="Trazado 141192" d="M1767.852,1234.67s3.92.432,6.733,5.544c2.218,4.031,6.011,11.462,4.58,13.561-.628.922-6.65,4.2-18.266,2.326a3.514,3.514,0,0,1,1.12-2.147s9.775-3.138,9.758-3.763c-.032-1.181-1.321-2.2-6.781-7.663C1763.512,1241.043,1767.852,1234.67,1767.852,1234.67Z" transform="translate(-1743.771 -1216.27)" fill="#5cd8a0"/>
      <path id="Trazado_141193" data-name="Trazado 141193" d="M1753.787,1202.666c.135-.181-.039-.757-.254-1.829a20.041,20.041,0,0,1-.519-4.165l-.289.048-4.859.817s.111,1.3.114,2.523c0,.01,0,.02,0,.03.006,1.063-.287,2.669.072,2.879C1749.894,1204.049,1753.269,1203.362,1753.787,1202.666Z" transform="translate(-1732.723 -1184.058)" fill="#ffb27d"/>
      <path id="Trazado_141194" data-name="Trazado 141194" d="M1747.867,1197.807s.1,1.832.1,3.056c2.719-.065,4.17-2.7,4.759-3.873Z" transform="translate(-1732.723 -1184.328)" fill="#e8945b"/>
      <path id="Trazado_141195" data-name="Trazado 141195" d="M1727.376,1154.171s6.369-.907,5.743-4.865-.225-6.74-4.318-6.328-4.642,2.047-4.755,3.418S1725.7,1154.305,1727.376,1154.171Z" transform="translate(-1712.525 -1138.507)" fill="#ffb27d"/>
      <path id="Trazado_141196" data-name="Trazado 141196" d="M1736.2,1139.486s2.479,4.365,5.257,4.627,3.823-.639,3.823-.639a7.654,7.654,0,0,1-3.184-4.072S1737.156,1137.068,1736.2,1139.486Z" transform="translate(-1722.83 -1134.651)" fill="#163560"/>
      <path id="Trazado_141197" data-name="Trazado 141197" d="M1723.265,1144.328a3.99,3.99,0,0,0-1.594,1.713,6.478,6.478,0,0,0-.28,3.77s-1.813-2.946-.625-4.966C1722.026,1142.7,1723.265,1144.328,1723.265,1144.328Z" transform="translate(-1709.407 -1139.185)" fill="#163560"/>
    </g>
    <rect id="Rectángulo_32966" data-name="Rectángulo 32966" width="353.943" height="1.137" rx="0.569" transform="translate(327.535 410.108)" fill="#0a5936"/>
  </g>
</svg>
