<svg xmlns="http://www.w3.org/2000/svg" width="171" height="140" viewBox="0 0 171 140">
  <g id="Grupo_97291" data-name="Grupo 97291" transform="translate(6370 7717)">
    <rect id="Rectángulo_32944" data-name="Rectángulo 32944" width="171" height="140" rx="5" transform="translate(-6370 -7717)" fill="#fff"/>
    <g id="satisfaction" transform="translate(-6386.184 -7698.5)">
      <g id="Grupo_97263" data-name="Grupo 97263" transform="translate(72.904 1.494)">
        <g id="Grupo_97256" data-name="Grupo 97256" transform="translate(0 35.034)">
          <circle id="Elipse_4466" data-name="Elipse 4466" cx="14.472" cy="14.472" r="14.472" fill="#fb9e36"/>
        </g>
        <g id="Grupo_97257" data-name="Grupo 97257" transform="translate(0 70.068)">
          <circle id="Elipse_4467" data-name="Elipse 4467" cx="14.472" cy="14.472" r="14.472" fill="#5cd8a0"/>
        </g>
        <g id="Grupo_97258" data-name="Grupo 97258" transform="translate(4.576 36.485)">
          <path id="Trazado_141304" data-name="Trazado 141304" d="M126.246,203.659a14.471,14.471,0,0,1-24.37,10.558A14.474,14.474,0,0,0,118.1,190.638,14.473,14.473,0,0,1,126.246,203.659Z" transform="translate(-101.876 -190.638)" fill="#ffc584"/>
        </g>
        <g id="Grupo_97259" data-name="Grupo 97259" transform="translate(4.576 71.519)">
          <path id="Trazado_141305" data-name="Trazado 141305" d="M126.246,379.514a14.471,14.471,0,0,1-24.37,10.558A14.474,14.474,0,0,0,118.1,366.493a14.473,14.473,0,0,1,8.148,13.021Z" transform="translate(-101.876 -366.493)" fill="#d2f6e6"/>
        </g>
        <g id="Grupo_97262" data-name="Grupo 97262">
          <g id="Grupo_97260" data-name="Grupo 97260">
            <circle id="Elipse_4468" data-name="Elipse 4468" cx="14.472" cy="14.472" r="14.472" fill="#f1d54e"/>
          </g>
          <g id="Grupo_97261" data-name="Grupo 97261" transform="translate(4.576 1.451)">
            <path id="Trazado_141306" data-name="Trazado 141306" d="M126.246,27.8a14.471,14.471,0,0,1-24.37,10.558A14.474,14.474,0,0,0,118.1,14.783,14.473,14.473,0,0,1,126.246,27.8Z" transform="translate(-101.876 -14.783)" fill="#e3ca00"/>
          </g>
        </g>
      </g>
      <g id="Grupo_97274" data-name="Grupo 97274" transform="translate(71.41 0)">
        <g id="Grupo_97264" data-name="Grupo 97264" transform="translate(40.333 7.784)">
          <path id="Trazado_141307" data-name="Trazado 141307" d="M288.616,55.438H275.478a1.613,1.613,0,0,1-1.613-1.613V40.687a1.613,1.613,0,0,1,1.613-1.613h13.138a1.613,1.613,0,0,1,1.613,1.613V53.825A1.613,1.613,0,0,1,288.616,55.438Z" transform="translate(-273.865 -39.074)" fill="#eaf6ff"/>
        </g>
        <g id="Grupo_97265" data-name="Grupo 97265" transform="translate(40.333 42.818)">
          <path id="Trazado_141308" data-name="Trazado 141308" d="M288.616,231.294H275.478a1.613,1.613,0,0,1-1.613-1.613V216.543a1.613,1.613,0,0,1,1.613-1.613h13.138a1.613,1.613,0,0,1,1.613,1.613v13.138A1.613,1.613,0,0,1,288.616,231.294Z" transform="translate(-273.865 -214.93)" fill="#eaf6ff"/>
        </g>
        <g id="Grupo_97266" data-name="Grupo 97266" transform="translate(40.333 77.852)">
          <path id="Trazado_141309" data-name="Trazado 141309" d="M288.616,407.151H275.478a1.613,1.613,0,0,1-1.613-1.613V392.4a1.613,1.613,0,0,1,1.613-1.613h13.138a1.613,1.613,0,0,1,1.613,1.613v13.138A1.613,1.613,0,0,1,288.616,407.151Z" transform="translate(-273.865 -390.787)" fill="#eaf6ff"/>
        </g>
        <g id="Grupo_97267" data-name="Grupo 97267" transform="translate(51.092 7.784)">
          <path id="Trazado_141310" data-name="Trazado 141310" d="M333.477,40.686V53.825a1.612,1.612,0,0,1-1.613,1.611h-3.992a1.612,1.612,0,0,0,1.613-1.611V40.686a1.613,1.613,0,0,0-1.613-1.613h3.992A1.613,1.613,0,0,1,333.477,40.686Z" transform="translate(-327.872 -39.073)" fill="#d8ecfe"/>
        </g>
        <g id="Grupo_97268" data-name="Grupo 97268" transform="translate(51.092 42.817)">
          <path id="Trazado_141311" data-name="Trazado 141311" d="M333.477,216.54v13.139a1.613,1.613,0,0,1-1.613,1.613h-3.992a1.613,1.613,0,0,0,1.613-1.613V216.54a1.613,1.613,0,0,0-1.613-1.613h3.992A1.613,1.613,0,0,1,333.477,216.54Z" transform="translate(-327.872 -214.927)" fill="#d8ecfe"/>
        </g>
        <g id="Grupo_97269" data-name="Grupo 97269" transform="translate(51.092 77.853)">
          <path id="Trazado_141312" data-name="Trazado 141312" d="M333.477,392.4v13.139a1.613,1.613,0,0,1-1.613,1.613h-3.992a1.613,1.613,0,0,0,1.613-1.613V392.4a1.612,1.612,0,0,0-1.613-1.611h3.992A1.612,1.612,0,0,1,333.477,392.4Z" transform="translate(-327.872 -390.792)" fill="#d8ecfe"/>
        </g>
        <g id="Grupo_97273" data-name="Grupo 97273">
          <g id="Grupo_97270" data-name="Grupo 97270" transform="translate(48.515 9.346)">
            <path id="Trazado_141313" data-name="Trazado 141313" d="M332.554,47.93l-9,9a.2.2,0,0,1-.283,0l-2.413-2.413a3.467,3.467,0,0,0-4.9,4.9l6.117,6.117a1.9,1.9,0,0,0,2.68,0l12.71-12.709a3.467,3.467,0,0,0-4.9-4.9Z" transform="translate(-314.934 -46.914)" fill="#f1d54e"/>
          </g>
          <g id="Grupo_97271" data-name="Grupo 97271" transform="translate(53.942 9.75)">
            <path id="Trazado_141314" data-name="Trazado 141314" d="M359.276,54.459,346.565,67.168a1.9,1.9,0,0,1-2.679,0l-1.706-1.706a1.993,1.993,0,0,0,1.814-.545l13.384-13.428a3.665,3.665,0,0,0,1.07-2.546,3.514,3.514,0,0,1,.828.611,3.471,3.471,0,0,1,0,4.9Z" transform="translate(-342.18 -48.943)" fill="#ffbd72"/>
          </g>
          <g id="Grupo_97272" data-name="Grupo 97272">
            <path id="Trazado_141315" data-name="Trazado 141315" d="M87.376,0a15.966,15.966,0,1,0,15.966,15.966A15.984,15.984,0,0,0,87.376,0Zm0,28.944a12.978,12.978,0,1,1,12.978-12.978A12.993,12.993,0,0,1,87.376,28.944Z" transform="translate(-71.41 0)" fill="#0a5936"/>
            <path id="Trazado_141316" data-name="Trazado 141316" d="M119.58,61.4V59.1a1.494,1.494,0,1,0-2.987,0V61.4a1.494,1.494,0,0,0,2.987,0Z" transform="translate(-107.592 -46.134)" fill="#0a5936"/>
            <path id="Trazado_141317" data-name="Trazado 141317" d="M173.011,57.612a1.494,1.494,0,0,0-1.494,1.494V61.4a1.494,1.494,0,0,0,2.987,0V59.106A1.494,1.494,0,0,0,173.011,57.612Z" transform="translate(-151.574 -46.135)" fill="#0a5936"/>
            <path id="Trazado_141318" data-name="Trazado 141318" d="M137.386,97.5a1.494,1.494,0,0,0-2.1.182,2.448,2.448,0,0,1-3.753,0,1.494,1.494,0,1,0-2.291,1.918,5.436,5.436,0,0,0,8.331.009A1.494,1.494,0,0,0,137.386,97.5Z" transform="translate(-117.438 -77.789)" fill="#0a5936"/>
            <path id="Trazado_141319" data-name="Trazado 141319" d="M87.376,175.856a15.966,15.966,0,1,0,15.966,15.966,15.984,15.984,0,0,0-15.966-15.966Zm0,28.944a12.978,12.978,0,1,1,12.978-12.978A12.993,12.993,0,0,1,87.376,204.8Z" transform="translate(-71.41 -140.822)" fill="#0a5936"/>
            <path id="Trazado_141320" data-name="Trazado 141320" d="M119.58,234.963a1.494,1.494,0,1,0-2.987,0v2.291a1.494,1.494,0,1,0,2.987,0Z" transform="translate(-107.592 -186.958)" fill="#0a5936"/>
            <path id="Trazado_141321" data-name="Trazado 141321" d="M173.011,233.469a1.494,1.494,0,0,0-1.494,1.494v2.291a1.494,1.494,0,1,0,2.987,0v-2.291A1.494,1.494,0,0,0,173.011,233.469Z" transform="translate(-151.574 -186.958)" fill="#0a5936"/>
            <path id="Trazado_141322" data-name="Trazado 141322" d="M136.769,273.578h-5.815a1.494,1.494,0,1,0,0,2.987h5.815a1.494,1.494,0,0,0,0-2.987Z" transform="translate(-117.895 -219.076)" fill="#0a5936"/>
            <path id="Trazado_141323" data-name="Trazado 141323" d="M87.376,351.713A15.984,15.984,0,0,0,71.41,367.679c0,.446.019.9.055,1.339a1.494,1.494,0,0,0,2.978-.247c-.03-.361-.045-.729-.045-1.092a12.974,12.974,0,1,1,2.049,7,1.494,1.494,0,0,0-2.514,1.614,15.967,15.967,0,1,0,13.443-24.583Z" transform="translate(-71.41 -281.645)" fill="#0a5936"/>
            <path id="Trazado_141324" data-name="Trazado 141324" d="M118.087,409.325a1.494,1.494,0,0,0-1.494,1.494v2.291a1.494,1.494,0,0,0,2.987,0v-2.291A1.494,1.494,0,0,0,118.087,409.325Z" transform="translate(-107.592 -327.78)" fill="#0a5936"/>
            <path id="Trazado_141325" data-name="Trazado 141325" d="M173.011,414.6a1.494,1.494,0,0,0,1.494-1.494V410.82a1.494,1.494,0,0,0-2.987,0v2.291A1.494,1.494,0,0,0,173.011,414.6Z" transform="translate(-151.574 -327.781)" fill="#0a5936"/>
            <path id="Trazado_141326" data-name="Trazado 141326" d="M133.4,445.308a5.426,5.426,0,0,0-4.162,1.939,1.494,1.494,0,0,0,2.287,1.923,2.448,2.448,0,0,1,3.753,0,1.494,1.494,0,0,0,2.291-1.918A5.425,5.425,0,0,0,133.4,445.308Z" transform="translate(-117.439 -356.594)" fill="#0a5936"/>
            <path id="Trazado_141327" data-name="Trazado 141327" d="M282.612,207.432H269.473a3.11,3.11,0,0,0-3.106,3.106v13.138a3.11,3.11,0,0,0,3.106,3.106h13.138a3.11,3.11,0,0,0,3.107-3.106V210.538a3.11,3.11,0,0,0-3.107-3.106Zm.119,16.245a.119.119,0,0,1-.119.119H269.473a.119.119,0,0,1-.119-.119V210.538a.119.119,0,0,1,.119-.119h13.138a.119.119,0,0,1,.119.119Z" transform="translate(-227.528 -166.108)" fill="#0a5936"/>
            <path id="Trazado_141328" data-name="Trazado 141328" d="M282.612,383.289H269.473a3.11,3.11,0,0,0-3.106,3.106v13.138a3.11,3.11,0,0,0,3.106,3.106h13.138a3.11,3.11,0,0,0,3.107-3.106V386.4a3.11,3.11,0,0,0-3.107-3.106Zm.119,16.245a.119.119,0,0,1-.119.119H269.473a.119.119,0,0,1-.119-.119V386.4a.119.119,0,0,1,.119-.119h13.138a.119.119,0,0,1,.119.119Z" transform="translate(-227.528 -306.931)" fill="#0a5936"/>
            <path id="Trazado_141329" data-name="Trazado 141329" d="M299.622,34.591a4.962,4.962,0,0,0-7.016,0l-1.688,1.688a1.494,1.494,0,0,0,2.113,2.113l1.688-1.688a1.974,1.974,0,1,1,2.791,2.791L284.8,52.2a.4.4,0,0,1-.568,0l-6.118-6.117A1.974,1.974,0,1,1,280.9,43.3l2.413,2.413a1.7,1.7,0,0,0,2.4,0l2.427-2.426a1.494,1.494,0,1,0-2.112-2.113l-.309.309v-6.8a3.11,3.11,0,0,0-3.107-3.106H269.472a3.11,3.11,0,0,0-3.106,3.106V47.821a3.11,3.11,0,0,0,3.106,3.106h9.257l3.389,3.389a3.393,3.393,0,0,0,4.793,0l12.71-12.709a4.961,4.961,0,0,0,0-7.016Zm-23.86,13.348h-6.289a.119.119,0,0,1-.119-.119V34.682a.119.119,0,0,1,.119-.119h13.138a.119.119,0,0,1,.119.119v6.237a4.96,4.96,0,0,0-6.969,7.02Z" transform="translate(-227.527 -25.285)" fill="#0a5936"/>
          </g>
        </g>
      </g>
    </g>
  </g>
</svg>
