<svg xmlns="http://www.w3.org/2000/svg" width="171" height="140" viewBox="0 0 171 140">
  <g id="Grupo_97290" data-name="Grupo 97290" transform="translate(6370 7473)">
    <rect id="Rectángulo_32944" data-name="Rectángulo 32944" width="171" height="140" rx="5" transform="translate(-6370 -7473)" fill="#fff"/>
    <g id="comportamiento-del-consumidor" transform="translate(-6325.755 -7448.572)">
      <g id="Grupo_97288" data-name="Grupo 97288" transform="translate(1.505 1.505)">
        <g id="Grupo_97275" data-name="Grupo 97275" transform="translate(34.847 43.006)">
          <path id="Trazado_141330" data-name="Trazado 141330" d="M27.733,60.955a11.832,11.832,0,0,0-2.3-.632L24.15,55.175A18.026,18.026,0,0,0,37.472,37.744V29.961a3.4,3.4,0,0,0-.015-.391,23.964,23.964,0,0,0,6.036,4.952V50.358a17.392,17.392,0,0,1-9.754,15.625h-.015a11.18,11.18,0,0,0-1.52-2.032A11.949,11.949,0,0,0,27.733,60.955Z" transform="translate(-24.15 -29.57)" fill="#fcd770"/>
        </g>
        <g id="Grupo_97276" data-name="Grupo 97276" transform="translate(6.021 18.063)">
          <path id="Trazado_141331" data-name="Trazado 141331" d="M41.127,22.032a23.961,23.961,0,0,1,.617-5.434A23.846,23.846,0,0,0,29.085,13v3.011a3.019,3.019,0,0,1-3.011,3.011H17.042L15.9,23.582a1.9,1.9,0,0,1-1.535,1.43,2.462,2.462,0,0,1-.331.03,1.917,1.917,0,0,1-1.867-1.46l-.723-2.89A23.965,23.965,0,0,0,5,37.085V58.731a17.392,17.392,0,0,0,9.754,15.625h.015a12.036,12.036,0,0,1,8.294-5.66l1.279-5.148A18.058,18.058,0,0,1,11.021,46.116V37.2a4.527,4.527,0,0,1,2.935-4.23l7.436-2.785a11.609,11.609,0,0,0,6.879,2.77l14.631.858a4.689,4.689,0,0,1,1.505.361,23.937,23.937,0,0,1-3.282-12.148Z" transform="translate(-5 -13)" fill="#fcd770"/>
        </g>
        <g id="Grupo_97277" data-name="Grupo 97277" transform="translate(13.548 74.391)">
          <path id="Trazado_141332" data-name="Trazado 141332" d="M35.59,66.346H10l.587-5.946a11.648,11.648,0,0,1,1.656-4.952,11.855,11.855,0,0,1,5.991-5.028l1.4,4.17a3.974,3.974,0,0,0,6.578,1.565l.346-.346.346.346a3.974,3.974,0,0,0,6.578-1.565l1.4-4.17a11.949,11.949,0,0,1,4.471,3,11.18,11.18,0,0,1,1.52,2.032A11.648,11.648,0,0,1,42.529,60.4l.587,5.946Z" transform="translate(-10 -50.42)" fill="#d2f6e6"/>
        </g>
        <g id="Grupo_97278" data-name="Grupo 97278" transform="translate(21.781 73.759)">
          <path id="Trazado_141333" data-name="Trazado 141333" d="M23.794,53.011,29.815,50a11.832,11.832,0,0,1,2.3.632l-1.4,4.17a3.974,3.974,0,0,1-6.578,1.565l-.346-.346-.346.346A3.974,3.974,0,0,1,16.87,54.8l-1.4-4.17a11.832,11.832,0,0,1,2.3-.632Z" transform="translate(-15.47 -50)" fill="#a0d468"/>
        </g>
        <g id="Grupo_97279" data-name="Grupo 97279" transform="translate(24.085 68.611)">
          <path id="Trazado_141334" data-name="Trazado 141334" d="M27.763,46.58l1.279,5.148-6.021,3.011L17,51.728l1.279-5.148a18.1,18.1,0,0,0,9.483,0Z" transform="translate(-17 -46.58)" fill="#f0d0b4"/>
        </g>
        <g id="Grupo_97280" data-name="Grupo 97280" transform="translate(12.042 35.254)">
          <path id="Trazado_141335" data-name="Trazado 141335" d="M45.127,32.564v7.782A18.026,18.026,0,0,1,31.805,57.777a18.1,18.1,0,0,1-9.483,0A18.058,18.058,0,0,1,9,40.346V31.435a4.527,4.527,0,0,1,2.935-4.23l7.436-2.785a11.609,11.609,0,0,0,6.879,2.77l14.631.858a4.689,4.689,0,0,1,1.505.361,23.03,23.03,0,0,0,2.725,3.763A3.4,3.4,0,0,1,45.127,32.564Z" transform="translate(-9 -24.42)" fill="#f0d0b4"/>
        </g>
        <g id="Grupo_97281" data-name="Grupo 97281" transform="translate(60.211 50.427)">
          <path id="Trazado_141336" data-name="Trazado 141336" d="M53.042,34.5V71.379a3.019,3.019,0,0,1-3.011,3.011H44.011A3.019,3.019,0,0,1,41,71.379V34.5a24.461,24.461,0,0,0,12.042,0Z" transform="translate(-41 -34.5)" fill="#d2f6e6"/>
        </g>
        <g id="Grupo_97282" data-name="Grupo 97282" transform="translate(42.148 3.011)">
          <path id="Trazado_141337" data-name="Trazado 141337" d="M32.282,39.232A24.3,24.3,0,1,1,35.006,43a23.031,23.031,0,0,1-2.725-3.763Z" transform="translate(-29 -3)" fill="#fff"/>
        </g>
        <g id="Grupo_97283" data-name="Grupo 97283" transform="translate(48.169 9.032)">
          <path id="Trazado_141338" data-name="Trazado 141338" d="M51.063,7A18.063,18.063,0,1,1,33,25.063,18.058,18.058,0,0,1,51.063,7Z" transform="translate(-33 -7)" fill="#f1d54e"/>
        </g>
        <g id="Grupo_97284" data-name="Grupo 97284" transform="translate(69.243 18.063)">
          <path id="Trazado_141339" data-name="Trazado 141339" d="M53.021,14.505V31.063H47V14.505A1.51,1.51,0,0,1,48.505,13h3.011A1.51,1.51,0,0,1,53.021,14.505Z" transform="translate(-47 -13)" fill="#ff826e"/>
        </g>
        <g id="Grupo_97285" data-name="Grupo 97285" transform="translate(57.201 24.085)">
          <path id="Trazado_141340" data-name="Trazado 141340" d="M45.021,18.505V29.042H39V18.505A1.51,1.51,0,0,1,40.505,17h3.011A1.51,1.51,0,0,1,45.021,18.505Z" transform="translate(-39 -17)" fill="#ff826e"/>
        </g>
        <g id="Grupo_97286" data-name="Grupo 97286" transform="translate(24.085 57.201)">
          <path id="Trazado_141341" data-name="Trazado 141341" d="M29.042,39l-.406,1.641a5.789,5.789,0,0,1-11.229,0L17,39Z" transform="translate(-17 -39)" fill="#fb9e36"/>
        </g>
        <g id="Grupo_97287" data-name="Grupo 97287">
          <path id="Trazado_141342" data-name="Trazado 141342" d="M13.042,25.085H4.011A3.019,3.019,0,0,1,1,22.074V4.011A3.019,3.019,0,0,1,4.011,1H28.1a3.019,3.019,0,0,1,3.011,3.011V22.074A3.019,3.019,0,0,1,28.1,25.085H19.063l-1.144,4.561a1.9,1.9,0,0,1-1.535,1.43,2.462,2.462,0,0,1-.331.03,1.917,1.917,0,0,1-1.867-1.46l-.723-2.89Z" transform="translate(-1 -1)" fill="#e6e9ed"/>
        </g>
      </g>
      <g id="Grupo_97289" data-name="Grupo 97289">
        <path id="Trazado_141343" data-name="Trazado 141343" d="M6,4H9.011v9.032H6Z" transform="translate(3.032 2.021)" fill="#0a5936"/>
        <path id="Trazado_141344" data-name="Trazado 141344" d="M6,12H9.011v3.011H6Z" transform="translate(3.032 6.063)" fill="#0a5936"/>
        <path id="Trazado_141345" data-name="Trazado 141345" d="M10,4h3.011v9.032H10Z" transform="translate(5.053 2.021)" fill="#0a5936"/>
        <path id="Trazado_141346" data-name="Trazado 141346" d="M10,12h3.011v3.011H10Z" transform="translate(5.053 6.063)" fill="#0a5936"/>
        <path id="Trazado_141347" data-name="Trazado 141347" d="M14,4h3.011v9.032H14Z" transform="translate(7.074 2.021)" fill="#0a5936"/>
        <path id="Trazado_141348" data-name="Trazado 141348" d="M14,12h3.011v3.011H14Z" transform="translate(7.074 6.063)" fill="#0a5936"/>
        <path id="Trazado_141349" data-name="Trazado 141349" d="M21.032,31.505V30H18.021v1.505a1.505,1.505,0,0,1-3.011,0V30H12v1.505a4.516,4.516,0,1,0,9.032,0Z" transform="translate(6.063 15.159)" fill="#0a5936"/>
        <path id="Trazado_141350" data-name="Trazado 141350" d="M30.021,31.505a1.505,1.505,0,0,1-3.011,0V30H24v1.505a4.516,4.516,0,1,0,9.032,0V30H30.021Z" transform="translate(12.127 15.159)" fill="#0a5936"/>
        <path id="Trazado_141351" data-name="Trazado 141351" d="M16.6,41.51a7.29,7.29,0,0,0,14.144,0L31.618,38h-15.9Zm11.157-.5a4.277,4.277,0,0,1-8.171,0Z" transform="translate(7.943 19.201)" fill="#0a5936"/>
        <path id="Trazado_141352" data-name="Trazado 141352" d="M20,57h3.011v3.011H20Z" transform="translate(10.106 28.801)" fill="#0a5936"/>
        <path id="Trazado_141353" data-name="Trazado 141353" d="M93.328,28.6a25.588,25.588,0,0,0-49.994-7.692,25.555,25.555,0,0,0-10.218-2.794V4.516A4.521,4.521,0,0,0,28.6,0H4.516A4.521,4.521,0,0,0,0,4.516V22.579A4.521,4.521,0,0,0,4.516,27.1h7.621A25.472,25.472,0,0,0,6.021,43.653V65.305A19.015,19.015,0,0,0,15.28,81.549a13.387,13.387,0,0,0-1.13,4.182l-.76,7.6H49.832l-.759-7.6a13.348,13.348,0,0,0-1.132-4.182A19.018,19.018,0,0,0,57.2,65.305V51.893a25.4,25.4,0,0,0,3.011,1.164V88.812a4.521,4.521,0,0,0,4.516,4.516h6.021a4.521,4.521,0,0,0,4.516-4.516V53.057A25.632,25.632,0,0,0,93.328,28.6ZM48.169,45.056v7.629a16.558,16.558,0,0,1-33.116,0V43.772a3.024,3.024,0,0,1,1.954-2.819l6.674-2.5a13.114,13.114,0,0,0,7.034,2.585l14.619.86a2.981,2.981,0,0,1,.652.12,25.661,25.661,0,0,0,2.183,3.042Zm-22.758,31.8,5.667,2.833-.87.87a2.474,2.474,0,0,1-4.1-.965l-.9-2.688c.066-.015.129-.035.2-.05Zm12.4,0c.066.014.129.035.194.05l-.9,2.687a2.473,2.473,0,0,1-4.094.968l-.87-.87Zm-1.933-2.4-4.267,2.134-4.267-2.134.638-2.554a18.952,18.952,0,0,0,7.258,0ZM3.011,22.579V4.516A1.508,1.508,0,0,1,4.516,3.011H28.6a1.508,1.508,0,0,1,1.505,1.505V22.579A1.508,1.508,0,0,1,28.6,24.085H18.393l-1.426,5.7a.439.439,0,0,1-.82,0l-1.424-5.7H4.516a1.508,1.508,0,0,1-1.505-1.505ZM9.032,65.305V43.653a22.484,22.484,0,0,1,4.21-13.094,3.431,3.431,0,0,0,6.647-.044l.855-3.42H28.6a4.521,4.521,0,0,0,4.516-4.516V21.127A22.5,22.5,0,0,1,42.6,23.936a25.154,25.154,0,0,0,1.7,14.883l-13.4-.789a10.166,10.166,0,0,1-8.472-5.588l-2.693,1.347a13,13,0,0,0,1.543,2.35l-5.32,2a6.047,6.047,0,0,0-3.909,5.637v8.913A19.583,19.583,0,0,0,25.077,71.108l-.718,2.874a13.445,13.445,0,0,0-7.5,4.966,15.954,15.954,0,0,1-7.83-13.642ZM42.148,90.317V87.93a3.662,3.662,0,0,1,1.064-2.57l-2.128-2.128a6.6,6.6,0,0,0-1.946,4.7v2.387H24.085V87.93a6.6,6.6,0,0,0-1.946-4.7L20.01,85.36a3.662,3.662,0,0,1,1.064,2.57v2.387H16.716l.429-4.287A10.478,10.478,0,0,1,22.4,77.984l.853,2.56A5.485,5.485,0,0,0,31.611,83.3a5.486,5.486,0,0,0,8.357-2.753l.853-2.56a10.471,10.471,0,0,1,5.256,8.046l.428,4.286ZM54.19,65.305a15.956,15.956,0,0,1-7.83,13.642,13.445,13.445,0,0,0-7.5-4.966l-.718-2.874A19.583,19.583,0,0,0,51.18,52.685V48.076A25.745,25.745,0,0,0,54.19,50.27ZM70.748,90.317H64.727a1.508,1.508,0,0,1-1.505-1.505V63.222h9.032v25.59A1.508,1.508,0,0,1,70.748,90.317Zm1.505-30.106H63.222V53.767a24.318,24.318,0,0,0,9.032,0ZM67.738,51.18A22.579,22.579,0,1,1,90.317,28.6,22.6,22.6,0,0,1,67.738,51.18Z" fill="#0a5936"/>
        <path id="Trazado_141354" data-name="Trazado 141354" d="M51.569,6A19.569,19.569,0,1,0,71.137,25.569,19.591,19.591,0,0,0,51.569,6Zm0,36.127A16.558,16.558,0,1,1,68.127,25.569,16.578,16.578,0,0,1,51.569,42.127Z" transform="translate(16.169 3.032)" fill="#0a5936"/>
        <path id="Trazado_141355" data-name="Trazado 141355" d="M56.063,12H53.053a3.014,3.014,0,0,0-3.011,3.011V30.063H47.032V21.032a3.014,3.014,0,0,0-3.011-3.011H41.011A3.014,3.014,0,0,0,38,21.032V33.074H59.074V15.011A3.014,3.014,0,0,0,56.063,12ZM44.021,30.063H41.011V21.032h3.011Zm12.042,0H53.053V15.011h3.011Z" transform="translate(19.201 6.063)" fill="#0a5936"/>
      </g>
    </g>
  </g>
</svg>
