<svg xmlns="http://www.w3.org/2000/svg" xmlns:xlink="http://www.w3.org/1999/xlink" width="274" height="274" viewBox="0 0 274 274">
  <defs>
    <clipPath id="clip-path">
      <circle id="Elipse_4471" data-name="Elipse 4471" cx="17.53" cy="17.53" r="17.53" transform="translate(0 24.791) rotate(-45)" fill="none"/>
    </clipPath>
    <clipPath id="clip-path-2">
      <circle id="Elipse_4474" data-name="Elipse 4474" cx="16.063" cy="16.063" r="16.063" fill="none"/>
    </clipPath>
    <linearGradient id="linear-gradient" x1="0.537" y1="-0.138" x2="0.397" y2="3.009" gradientUnits="objectBoundingBox">
      <stop offset="0" stop-color="#09005d"/>
      <stop offset="1" stop-color="#1a0f91"/>
    </linearGradient>
    <linearGradient id="linear-gradient-2" x1="0.566" y1="-0.321" x2="0.419" y2="1.064" xlink:href="#linear-gradient"/>
    <linearGradient id="linear-gradient-3" x1="0.563" y1="-0.246" x2="0.417" y2="1.217" xlink:href="#linear-gradient"/>
    <linearGradient id="linear-gradient-4" x1="-0.336" y1="-7.678" x2="-0.03" y2="-4.642" gradientUnits="objectBoundingBox">
      <stop offset="0" stop-color="#ff928e"/>
      <stop offset="1" stop-color="#fe7062"/>
    </linearGradient>
    <linearGradient id="linear-gradient-5" x1="0.755" y1="0.195" x2="4.508" y2="-4.313" gradientUnits="objectBoundingBox">
      <stop offset="0" stop-color="#febbba"/>
      <stop offset="1" stop-color="#ff928e"/>
    </linearGradient>
    <linearGradient id="linear-gradient-6" x1="0.037" y1="1.034" x2="3.384" y2="-4.028" xlink:href="#linear-gradient-5"/>
    <linearGradient id="linear-gradient-7" x1="0.375" y1="0.718" x2="0.716" y2="-0.122" xlink:href="#linear-gradient-5"/>
    <linearGradient id="linear-gradient-8" x1="0.463" y1="0.747" x2="0.548" y2="-0.271" xlink:href="#linear-gradient"/>
    <linearGradient id="linear-gradient-9" x1="0.447" y1="0.532" x2="1.074" y2="-0.751" xlink:href="#linear-gradient-5"/>
    <linearGradient id="linear-gradient-10" x1="-0.053" y1="-1.028" x2="2.092" y2="5.249" xlink:href="#linear-gradient"/>
    <clipPath id="clip-path-3">
      <circle id="Elipse_4481" data-name="Elipse 4481" cx="16.328" cy="16.328" r="16.328" transform="translate(0 23.091) rotate(-45)" fill="none"/>
    </clipPath>
    <linearGradient id="linear-gradient-11" x1="1.015" y1="-2.003" x2="0.213" y2="2.486" xlink:href="#linear-gradient-5"/>
    <linearGradient id="linear-gradient-12" x1="0.437" y1="0.528" x2="0.859" y2="-1.058" xlink:href="#linear-gradient-5"/>
    <linearGradient id="linear-gradient-13" x1="0.332" y1="0.915" x2="2.249" y2="-4.024" xlink:href="#linear-gradient-5"/>
    <linearGradient id="linear-gradient-14" x1="0.544" y1="0.447" x2="2.68" y2="-4.509" xlink:href="#linear-gradient-5"/>
    <linearGradient id="linear-gradient-15" x1="0.471" y1="0.224" x2="0.617" y2="1.484" gradientUnits="objectBoundingBox">
      <stop offset="0" stop-color="#090056"/>
      <stop offset="1" stop-color="#020039"/>
    </linearGradient>
    <linearGradient id="linear-gradient-16" x1="-13.104" y1="-0.346" x2="-12.741" y2="0.297" xlink:href="#linear-gradient"/>
    <linearGradient id="linear-gradient-17" x1="-12.477" y1="-0.878" x2="-11.925" y2="0.199" xlink:href="#linear-gradient-5"/>
    <linearGradient id="linear-gradient-18" x1="-36.209" y1="0.5" x2="-35.209" y2="0.5" xlink:href="#linear-gradient"/>
    <linearGradient id="linear-gradient-19" x1="-31.995" y1="1.602" x2="-30.96" y2="-1.187" xlink:href="#linear-gradient-5"/>
    <linearGradient id="linear-gradient-20" x1="-27.738" y1="0.5" x2="-26.738" y2="0.5" xlink:href="#linear-gradient"/>
    <linearGradient id="linear-gradient-21" x1="-12.148" y1="1.698" x2="-11.684" y2="-1.193" xlink:href="#linear-gradient-5"/>
    <linearGradient id="linear-gradient-22" x1="-10.621" y1="-0.331" x2="-11.606" y2="0.684" gradientUnits="objectBoundingBox">
      <stop offset="0" stop-color="#4f52ff"/>
      <stop offset="1" stop-color="#4042e2"/>
    </linearGradient>
    <linearGradient id="linear-gradient-23" x1="-42.48" y1="1.857" x2="-42.225" y2="0.807" xlink:href="#linear-gradient-5"/>
    <linearGradient id="linear-gradient-24" x1="-30.222" y1="-1.132" x2="-28.689" y2="-3.386" xlink:href="#linear-gradient-5"/>
    <linearGradient id="linear-gradient-25" x1="-24.358" y1="-2.465" x2="-23.727" y2="-1.062" xlink:href="#linear-gradient"/>
    <linearGradient id="linear-gradient-26" x1="-112.77" y1="-4.348" x2="-106.977" y2="-11.489" xlink:href="#linear-gradient-5"/>
    <linearGradient id="linear-gradient-27" x1="-38.864" y1="-1.709" x2="-37.274" y2="1.298" xlink:href="#linear-gradient-5"/>
    <linearGradient id="linear-gradient-28" x1="0" y1="0.5" x2="1" y2="0.5" xlink:href="#linear-gradient-5"/>
    <linearGradient id="linear-gradient-29" x1="-16.43" y1="-6.995" x2="-17.17" y2="-4.533" xlink:href="#linear-gradient"/>
    <linearGradient id="linear-gradient-30" x1="-13.569" y1="0.133" x2="-13.967" y2="0.802" xlink:href="#linear-gradient"/>
    <linearGradient id="linear-gradient-31" x1="-0.799" y1="1.009" x2="1.025" y2="0.359" xlink:href="#linear-gradient-5"/>
  </defs>
  <g id="Grupo_97326" data-name="Grupo 97326" transform="translate(6885 7045)">
    <g id="Grupo_97324" data-name="Grupo 97324" transform="translate(-7323.449 -7485.708)">
      <path id="Trazado_141364" data-name="Trazado 141364" d="M668.86,678.026a94.069,94.069,0,0,1-16.521,13.41C609.554,720,560.645,711.77,545.524,708.956c-24.4-4.541-44.99-7.744-62.684-23.729-40.205-36.324-38.25-112.1-7.528-159.038,3.643-5.566,34.318-51.036,83.332-57.443,1.2-.157,2.093-.246,2.877-.329,7.582-.8,54.569-5.04,92.882,27.059A114.293,114.293,0,0,1,676.9,521C706.823,567.215,706.918,638.8,668.86,678.026Z" transform="translate(0 -11.669)" fill="#d2f6e6"/>
      <g id="Grupo_97296" data-name="Grupo 97296" transform="translate(469.292 455)">
        <path id="Trazado_141365" data-name="Trazado 141365" d="M784.63,952.162a38.818,38.818,0,0,1,29.882-21.169l.88-55.67a.848.848,0,0,0-.854-.862c-36.269.393-68.272,22.966-83.208,56.4a.93.93,0,0,0,.521,1.246Z" transform="translate(-723.651 -837.673)" fill="#f1d54e"/>
        <path id="Trazado_141366" data-name="Trazado 141366" d="M1329.135,2064.5a1.662,1.662,0,0,0-1.633,1.165c-.623,1.99-1.761,5.81-1.948,6.292a51.015,51.015,0,0,1-3.213,6.831,37.611,37.611,0,0,1-8.9,10.732c-9.225,7.47-22.488,8.859-33.55,5.161-.315-.105-.628-.219-.939-.335a1.237,1.237,0,0,0-1.519.563l-27.893,50.867c13.544,6.792,26.29,8.568,42.281,7.543,46.46-2.978,82.942-40.7,86.991-87.481Z" transform="translate(-1196.489 -1923.335)" fill="#7d97f4"/>
        <path id="Trazado_141367" data-name="Trazado 141367" d="M1309.837,2064.5c-3.024,18.563-16.743,33.067-35.385,33.7a42.42,42.42,0,0,1-16.1-2.9,1.043,1.043,0,0,0-1.29.449l-28.67,49.321a87.123,87.123,0,0,0,44.83,9.091c46.46-2.978,82.942-41.846,86.991-88.626Z" transform="translate(-1177.19 -1923.342)" fill="#f1d54e"/>
        <path id="Trazado_141368" data-name="Trazado 141368" d="M689.841,1756.945l27.76-49.79a.84.84,0,0,0-.2-1.053c-8.546-7.2-15.379-16.847-15.379-29.36,0-3.086-1.368-7.578-.742-10.474L649.079,1647.6a101.486,101.486,0,0,0-4.463,29.855c0,33.606,17.856,63.163,42.374,80.153A1.976,1.976,0,0,0,689.841,1756.945Z" transform="translate(-644.617 -1543.004)" fill="#b2edd2"/>
        <path id="Trazado_141369" data-name="Trazado 141369" d="M687.065,1729.308l28.767-49.174a1.512,1.512,0,0,0-.3-1.9,40.389,40.389,0,0,1-13.5-30.478,42.455,42.455,0,0,1,.96-8.99l-53.125-19.859a.782.782,0,0,0-1.024.506,101.517,101.517,0,0,0-4.221,29.057C644.617,1682.894,661.626,1712.536,687.065,1729.308Z" transform="translate(-644.617 -1516.782)" fill="#b2edd2"/>
        <g id="Grupo_97295" data-name="Grupo 97295" transform="translate(101.038 0)">
          <path id="Trazado_141370" data-name="Trazado 141370" d="M1796.638,548.585c16.467,2.754,29.236,16.619,31.4,33.946a1.9,1.9,0,0,0,1.814,1.666l79.642,2.669.625-.606c-.244-66.625-48.017-123.7-112.01-131.26Z" transform="translate(-1796.638 -455)" fill="#f1d54e"/>
        </g>
      </g>
      <g id="Grupo_97301" data-name="Grupo 97301" transform="translate(577.726 480.113)">
        <circle id="Elipse_4469" data-name="Elipse 4469" cx="19.274" cy="19.274" r="19.274" transform="translate(0 27.257) rotate(-45)" fill="#fb9e36"/>
        <circle id="Elipse_4470" data-name="Elipse 4470" cx="17.53" cy="17.53" r="17.53" transform="translate(2.284 27.314) rotate(-45)" fill="#fff"/>
        <g id="Grupo_97300" data-name="Grupo 97300" transform="translate(2.384 2.661)">
          <g id="Grupo_97299" data-name="Grupo 97299" transform="translate(0 0)" clip-path="url(#clip-path)">
            <g id="Grupo_97298" data-name="Grupo 97298" transform="translate(8.219 8.149)">
              <path id="Trazado_141371" data-name="Trazado 141371" d="M2145.6,1027.086c.276-1.282.495-2.121.495-2.121l-4.873-8.252s-1.577,1.6-2.523,8.552a1.605,1.605,0,0,0,1.59,1.821Z" transform="translate(-2138.688 -993.371)" fill="#5cd8a0"/>
              <path id="Trazado_141372" data-name="Trazado 141372" d="M2447.18,1021.976c-1.353-6.031-3.762-8.838-3.762-8.838l-3.049,10.1s.092.2.233.584h5.1A1.517,1.517,0,0,0,2447.18,1021.976Z" transform="translate(-2413.91 -990.11)" fill="#5cd8a0"/>
              <path id="Trazado_141373" data-name="Trazado 141373" d="M2171.962,980.256c5.009,1.842,11.816,1.585,19.758,0a25.821,25.821,0,0,1,.777-2.549l2.1-8.14a17.72,17.72,0,0,0-8.655-3.75,21.881,21.881,0,0,0-8.006-.1,19.978,19.978,0,0,0-10.31,4.162l3.625,8.249A16.717,16.717,0,0,1,2171.962,980.256Z" transform="translate(-2165.084 -946.541)" fill="#5cd8a0"/>
              <path id="Trazado_141374" data-name="Trazado 141374" d="M2292.416,923.818l-.125,4.111a.933.933,0,0,0,.624.908,8.218,8.218,0,0,0,5.29.2.931.931,0,0,0,.6-1.012l-.618-4.2Z" transform="translate(-2278.819 -908.624)" fill="#fea3a0"/>
              <g id="Grupo_97297" data-name="Grupo 97297" transform="translate(10.267)">
                <path id="Trazado_141375" data-name="Trazado 141375" d="M2276.356,809.772s.242,5.554,1.208,7.728a3.943,3.943,0,0,0,3.622,2.173,5.526,5.526,0,0,0,3.623-2.415c1.208-1.932,1.69-8.211,1.69-8.211a8.741,8.741,0,0,0-5.071-2.656C2278.529,806.15,2276.356,808.565,2276.356,809.772Z" transform="translate(-2274.549 -801.481)" fill="#febbba"/>
                <path id="Trazado_141376" data-name="Trazado 141376" d="M2374.86,855.27s1.108-1.662,1.662-1.108-.554,4.156-1.662,4.156S2374.86,855.27,2374.86,855.27Z" transform="translate(-2363.965 -844.974)" fill="#febbba"/>
                <path id="Trazado_141377" data-name="Trazado 141377" d="M2263.729,855.688s-1.386-1.939-1.94-1.385.831,4.156,1.94,4.156Z" transform="translate(-2261.145 -845.114)" fill="#febab9"/>
                <path id="Trazado_141378" data-name="Trazado 141378" d="M2268.386,757.506c.006-.376-.014-.764-.034-1.207a8.919,8.919,0,0,1,.069-1.326,1.92,1.92,0,0,0-2.388-1.956.46.46,0,0,1-.281.021c-.111-.044-.16-.17-.2-.281a3.335,3.335,0,0,0-3.623-2.159,3.9,3.9,0,0,0-3.047,2.213.385.385,0,0,1-.125.179.369.369,0,0,1-.194.039,3.306,3.306,0,0,0-1.959.267,1.989,1.989,0,0,0-.843,1.459,3.768,3.768,0,0,0,.523,1.83,1.448,1.448,0,0,1,.215,1.111,3.478,3.478,0,0,1-.166.317c-.6,1.181.968,2.343,1.256,3.4q.329,1.206.657,2.412a5.782,5.782,0,0,0,.082-1.561,18.212,18.212,0,0,1-.228-2.144,3.51,3.51,0,0,1,.376-1.489c.229-.443.646-.638.958-1.026a1.975,1.975,0,0,0,.994.608,1.671,1.671,0,0,0,.733-.1c.359-.112.868-.517,1.216-.545s.468.337.7.53a2.6,2.6,0,0,0,2.491.365c-.177.074.859,2.008.893,2.183a20.831,20.831,0,0,1,.356,3.12c.083.061.176-.063.2-.162.188-.7.247-1.422.368-2.134a15.4,15.4,0,0,1,.725-2.332A5.118,5.118,0,0,0,2268.386,757.506Z" transform="translate(-2255.752 -750.575)" fill="#12263f"/>
              </g>
            </g>
          </g>
        </g>
      </g>
      <g id="Grupo_97305" data-name="Grupo 97305" transform="translate(618.217 472.659)">
        <circle id="Elipse_4472" data-name="Elipse 4472" cx="17.661" cy="17.661" r="17.661" transform="translate(0 24.977) rotate(-45)" fill="#fb9e36"/>
        <circle id="Elipse_4473" data-name="Elipse 4473" cx="16.063" cy="16.063" r="16.063" transform="translate(8.746 8.966)" fill="#fff"/>
        <g id="Grupo_97304" data-name="Grupo 97304" transform="translate(8.838 9.092)">
          <g id="Grupo_97303" data-name="Grupo 97303" clip-path="url(#clip-path-2)">
            <g id="Grupo_97302" data-name="Grupo 97302" transform="translate(3.639 3.442)">
              <path id="Trazado_141379" data-name="Trazado 141379" d="M2695.1,694.24c-1.017,0-2.072.13-2.47-1.1a6.754,6.754,0,0,1,2.574-7.012,6.985,6.985,0,0,1,2.288-.763,3.583,3.583,0,0,1,2.578.218c.775.417,1.528-.253,2.332.282a4.931,4.931,0,0,1,1.572,1.9,11.8,11.8,0,0,1,.932,3.026,1.3,1.3,0,0,1-.223,1.252,4.141,4.141,0,0,1-3.548,2.2Z" transform="translate(-2686.214 -685.234)" fill="url(#linear-gradient)"/>
              <path id="Trazado_141380" data-name="Trazado 141380" d="M2630.411,741.612s.184.385-1.014.987c-.667.336-1.966.831-2.138,2.28-.089.748-.381,2.595-1.092,2.709-1.772.284-4.165,1.391-4.387,3.541-.256,2.468.454,3.764,1.71,4.087.923.237,1.156.485.97,1.461-.179.936.531,4.293,2.079,5.148,3.469,1.917,6.492-6.816,6.492-6.816l.71-11.275Z" transform="translate(-2621.728 -736.667)" fill="url(#linear-gradient-2)"/>
              <path id="Trazado_141381" data-name="Trazado 141381" d="M2776.009,730.37s-.187.408,1.031,1.046a3.2,3.2,0,0,1,2.177,2.416c.09.792.3,1.906,1.025,2.027,1.8.3,3.9,2.059,4.34,5.472.339,2.605-.4,5.4-1.681,5.741-.939.251-.869-.247-.679.787.182.991-.245.609-1.821,1.515-3.532,2.031-7.06-4.811-7.06-4.811l-.723-11.946Z" transform="translate(-2759.385 -726.411)" fill="url(#linear-gradient-3)"/>
              <path id="Trazado_141382" data-name="Trazado 141382" d="M2735.187,870.368s2.681-.691,3.25.163c.285,1.42.431,2.831.431,2.831l-3.089.58-2.043-.47-.486-.282-.2-2.012A7.768,7.768,0,0,1,2735.187,870.368Z" transform="translate(-2723.285 -853.89)" fill="url(#linear-gradient-4)"/>
              <path id="Trazado_141383" data-name="Trazado 141383" d="M2707.959,781.524s-.431-1.293-1.078-.862.971,3.182.971,3.182Z" transform="translate(-2699.274 -772.212)" fill="url(#linear-gradient-5)"/>
              <path id="Trazado_141384" data-name="Trazado 141384" d="M2794.493,779.048s0-1.94,1.078-.862-1.078,2.587-1.078,2.587Z" transform="translate(-2779.341 -769.736)" fill="url(#linear-gradient-6)"/>
              <path id="Trazado_141385" data-name="Trazado 141385" d="M2852.921,909.513c-.9-4.356-2.2-7.761-2.607-7.958l-2.448,6.054a15.957,15.957,0,0,0-.454,4.044h3.764A1.781,1.781,0,0,0,2852.921,909.513Z" transform="translate(-2827.616 -882.583)" fill="#5cd8a0"/>
              <path id="Trazado_141386" data-name="Trazado 141386" d="M2650.611,925.468c.113-1.946.063-3.171.063-3.171l-3.449-5.6a48.813,48.813,0,0,0-.862,6.243q-.03.316-.057.642a1.741,1.741,0,0,0,1.736,1.886Z" transform="translate(-2644.144 -896.397)" fill="#5cd8a0"/>
              <path id="Trazado_141387" data-name="Trazado 141387" d="M2734.526,840.363h3.756l1.018-10.7s-.863-.222-1.293-1.731a30.607,30.607,0,0,1-.647-4.53l-3.88.861s.431,4.108-.431,6.048Z" transform="translate(-2723.285 -811.279)" fill="url(#linear-gradient-7)"/>
              <path id="Trazado_141388" data-name="Trazado 141388" d="M2695.77,946.55l.541-6.757c-3.934,2.353-7.979,2.239-12.082.991l1.165,5.766Z" transform="translate(-2678.747 -917.467)" fill="url(#linear-gradient-8)"/>
              <path id="Trazado_141389" data-name="Trazado 141389" d="M2665.938,894.2c-1.166-5.622-2.4-11.777-2.4-11.777l-.647,1.29-6.035,1.73c.3,1.379,1.2,5.175,2.1,8.757Z" transform="translate(-2653.775 -865.13)" fill="#5cd8a0"/>
              <path id="Trazado_141390" data-name="Trazado 141390" d="M2783.528,887.48c.321-1.722.6-3.067.6-3.067l1.3-7.032c-.411-.411-6.855-1.294-6.855-1.294l-.69-1.03s-.86,6.256-1.6,12.423Z" transform="translate(-2762.74 -858.409)" fill="#5cd8a0"/>
              <path id="Trazado_141391" data-name="Trazado 141391" d="M2715.484,731.736s-.215,5.174.431,6.036,1.509,2.8,3.018,3.018,3.88-4.1,3.88-4.311-.215-5.82-.215-5.82S2718.071,726.993,2715.484,731.736Z" transform="translate(-2707.23 -725.442)" fill="url(#linear-gradient-9)"/>
              <path id="Trazado_141392" data-name="Trazado 141392" d="M2704.577,721.092s-.862,2.587,1.725,1.724l2.587-.862s2.586-1.509,3.018-.862a10.7,10.7,0,0,1,.862,2.239s.862-2.239,0-3.532S2706.517,717.427,2704.577,721.092Z" transform="translate(-2697.185 -715.66)" fill="url(#linear-gradient-10)"/>
            </g>
          </g>
        </g>
      </g>
      <g id="Grupo_97315" data-name="Grupo 97315" transform="translate(631.495 512.393)">
        <circle id="Elipse_4479" data-name="Elipse 4479" cx="17.953" cy="17.953" r="17.953" transform="translate(5.309 5.086)" fill="#fb9e36"/>
        <circle id="Elipse_4480" data-name="Elipse 4480" cx="16.328" cy="16.328" r="16.328" transform="translate(0 23.091) rotate(-45)" fill="#fff"/>
        <g id="Grupo_97314" data-name="Grupo 97314" transform="translate(0.093 0.128)">
          <g id="Grupo_97313" data-name="Grupo 97313" transform="translate(0 0)" clip-path="url(#clip-path-3)">
            <g id="Grupo_97312" data-name="Grupo 97312" transform="translate(5.47 8.53)">
              <path id="Trazado_141404" data-name="Trazado 141404" d="M3004.11,1339.864a1.64,1.64,0,0,0,1.64-1.652c-.017-2.607-.07-4.9-.192-6.162-.31-3.227-2.023-4.251-2.023-4.251l-.872,12.065Z" transform="translate(-2975.618 -1307.302)" fill="#ea7596"/>
              <path id="Trazado_141405" data-name="Trazado 141405" d="M2801.652,1319.688c-.127-6.759-.253-12.348-.253-12.348-3.06-1.884-14.36-1.647-14.36-1.647s-.785,6.52-1.679,13.995Z" transform="translate(-2777.373 -1287.126)" fill="#0e046c"/>
              <path id="Trazado_141406" data-name="Trazado 141406" d="M2748.23,1305.632h10.516c-.338-3.267-3.054-15.356-3.054-15.356l-8.435,2.581s.666,7.537.666,9.891C2747.924,1303.287,2748.075,1304.334,2748.23,1305.632Z" transform="translate(-2742.612 -1273.07)" fill="#ea7596"/>
              <path id="Trazado_141407" data-name="Trazado 141407" d="M2700.225,1332.578c.037-3.984-.034-11.331-1.289-12.765,0,0-1.625.836-3.273,6.251-.476,1.563-.908,3.046-1.31,4.459a1.614,1.614,0,0,0,1.553,2.055Z" transform="translate(-2694.291 -1300.016)" fill="#ea7596"/>
              <path id="Trazado_141408" data-name="Trazado 141408" d="M2901.312,1315.539c.3-5.729.569-11.834.317-12.086-.471-.471-6.128-2.318-6.128-2.318s-3.686,11.27-4.542,14.4Z" transform="translate(-2873.71 -1282.977)" fill="#ea7596"/>
              <path id="Trazado_141409" data-name="Trazado 141409" d="M2847.455,1261.647l1.412-4.944h5.179l.706,5.65S2850.28,1263.53,2847.455,1261.647Z" transform="translate(-2834.022 -1242.441)" fill="url(#linear-gradient-11)"/>
              <g id="Grupo_97311" data-name="Grupo 97311" transform="translate(12.143)">
                <path id="Trazado_141410" data-name="Trazado 141410" d="M2847.455,1153.554s.487,4.729,1.308,6.576a3.35,3.35,0,0,0,3.077,1.847,4.7,4.7,0,0,0,3.078-2.052c1.026-1.641,1.436-6.976,1.436-6.976a7.427,7.427,0,0,0-4.309-2.257C2849.583,1150.486,2847.455,1152.529,2847.455,1153.554Z" transform="translate(-2846.165 -1145.714)" fill="url(#linear-gradient-12)"/>
                <path id="Trazado_141411" data-name="Trazado 141411" d="M2934.363,1192.224s.942-1.412,1.413-.942-.471,3.531-1.413,3.531S2934.363,1192.224,2934.363,1192.224Z" transform="translate(-2925.069 -1182.671)" fill="url(#linear-gradient-13)"/>
                <path id="Trazado_141412" data-name="Trazado 141412" d="M2839.936,1192.579s-1.177-1.648-1.648-1.177.706,3.531,1.648,3.531Z" transform="translate(-2837.703 -1182.791)" fill="url(#linear-gradient-14)"/>
                <path id="Trazado_141413" data-name="Trazado 141413" d="M2844.451,1100.844a4.387,4.387,0,0,0,.233-2.062,7.8,7.8,0,0,0-1.462-3.762c.221.221-1.89,1.114-2.215,1.082.635-.517,1.424-1.108,1.453-2.01a6.387,6.387,0,0,1-2.5.828c-2.175.383-4.513.3-6.186,1.949a3.222,3.222,0,0,0-.994,2.741c.13.724,1.208,1.487.546,2.153-.469.471.951,1.328,1.182,2.664a2.341,2.341,0,0,0,.062.287c-.021-.683-.283-1.418-.267-2.082.034-1.363,2.089-1.459,3.094-1.549a8.117,8.117,0,0,0,3.953-.89c.471-.318.77,2.251.79,2.377a7.127,7.127,0,0,1,.132,2.253h.324c.093-.866.008-1.7.645-2.326a6.608,6.608,0,0,0,.859-.971A3.421,3.421,0,0,0,2844.451,1100.844Z" transform="translate(-2832.741 -1094.093)" fill="url(#linear-gradient-15)"/>
              </g>
              <path id="Trazado_141414" data-name="Trazado 141414" d="M2816.885,1266.633a14.409,14.409,0,0,1-.579,2.647,10.672,10.672,0,0,0-.063,3.239c.026,1.38,1.1,2.89.864,4.247-.6-1.688-2.434-3-3.373-4.577-.917-1.539-1.571-2.782-.523-4.235C2813.86,1267.054,2816.9,1266.549,2816.885,1266.633Z" transform="translate(-2802.29 -1251.492)" fill="#ea7596"/>
              <path id="Trazado_141415" data-name="Trazado 141415" d="M2914.646,1275.306c.13,2.874-.434,3.458-.891,6.361.614-1.962,2-2.993,3.084-4.742,1.073-1.725,1.42-3.874-.336-5.023-.12-.078-1.819-.865-1.811-.713C2914.714,1271.608,2914.589,1274.06,2914.646,1275.306Z" transform="translate(-2894.507 -1255.639)" fill="#ea7596"/>
            </g>
          </g>
        </g>
      </g>
      <g id="Grupo_97317" data-name="Grupo 97317" transform="translate(514.565 500.218)">
        <circle id="Elipse_4486" data-name="Elipse 4486" cx="11.902" cy="11.902" r="11.902" transform="translate(0 16.831) rotate(-45)" fill="#fb9e36"/>
        <path id="Trazado_141420" data-name="Trazado 141420" d="M1174.681,1163.225h-.006a.113.113,0,0,1-.107-.118,11.146,11.146,0,0,1,.161-1.394.113.113,0,1,1,.222.04,10.937,10.937,0,0,0-.158,1.366A.113.113,0,0,1,1174.681,1163.225Z" transform="translate(-1168.821 -1146.864)" fill="#fff" opacity="0.7"/>
        <path id="Trazado_141421" data-name="Trazado 141421" d="M1187.876,1065a.111.111,0,0,1-.051-.012.113.113,0,0,1-.05-.151,11.053,11.053,0,0,1,9.915-6.1,11.2,11.2,0,0,1,2,.18.113.113,0,1,1-.04.222,10.978,10.978,0,0,0-1.962-.176,10.829,10.829,0,0,0-9.713,5.98A.113.113,0,0,1,1187.876,1065Z" transform="translate(-1180.859 -1053.004)" fill="#fff" opacity="0.7"/>
        <circle id="Elipse_4487" data-name="Elipse 4487" cx="10.073" cy="10.073" r="10.073" transform="translate(2.845 17.091) rotate(-45)" fill="#fff" opacity="0.78"/>
        <path id="Trazado_141422" data-name="Trazado 141422" d="M1274.817,1114.516c0,1.706-1.383,3.547-3.088,3.547s-3.088-1.841-3.088-3.547a3.093,3.093,0,0,1,6.177,0Z" transform="translate(-1254.642 -1101.231)" fill="#fb9e36"/>
        <path id="Trazado_141423" data-name="Trazado 141423" d="M1237.916,1202.1h7.539a1.825,1.825,0,0,0,1.738-1.269l.406-1.268a1.823,1.823,0,0,0-1.1-2.268,14.051,14.051,0,0,0-9.491.1,1.817,1.817,0,0,0-1.164,2.2l.312,1.151A1.825,1.825,0,0,0,1237.916,1202.1Z" transform="translate(-1224.662 -1178.699)" fill="#fb9e36"/>
      </g>
      <g id="Grupo_97322" data-name="Grupo 97322" transform="translate(512.25 532.652)">
        <path id="Trazado_141428" data-name="Trazado 141428" d="M1351.552,1504.324s-3.4,1.654-4.026,3.555c-.5,1.525-4.262,1.721-4.634,4.72a3.441,3.441,0,0,1-2.88,3.025c-3.841.589-9.76,2.583-10.707,9.252-.723,5.09,1.872,7.02,4.6,7.688a3.858,3.858,0,0,1,2.925,4.456c-.388,1.937.191,4.176,3.546,5.947,7.519,3.968,15.028-9.4,15.028-9.4l1.539-23.34Z" transform="translate(-1312.1 -1489.945)" fill="url(#linear-gradient-16)"/>
        <path id="Trazado_141429" data-name="Trazado 141429" d="M1708.878,1441.234s-15.013,23.747-32.866,28.334c0,0,3.479,9.908,6.164,11.042,0,0,21.964-18.326,27.608-36Z" transform="translate(-1628.511 -1432.388)" fill="url(#linear-gradient-17)"/>
        <path id="Trazado_141430" data-name="Trazado 141430" d="M1142.96,3157.073l-.487,4a1.652,1.652,0,0,1-1.449,1.446,25.593,25.593,0,0,1-5.354.084,1.416,1.416,0,0,1-1.188-1.835,14.565,14.565,0,0,1,2.683-5.226h4.437A1.367,1.367,0,0,1,1142.96,3157.073Z" transform="translate(-1134.415 -2996.343)" fill="url(#linear-gradient-18)"/>
        <path id="Trazado_141431" data-name="Trazado 141431" d="M1539.04,2638.734l.749,4.406s-2.508,25.4-2.954,35.567a7.964,7.964,0,0,0,1.178,4.525l4.361,7.082-11.083-6.541-.221-1.353,1.815-2.495-2.377-28.46a8.733,8.733,0,0,1,.994-4.829l2.293-4.307Z" transform="translate(-1495.741 -2524.862)" fill="url(#linear-gradient-19)"/>
        <path id="Trazado_141432" data-name="Trazado 141432" d="M1540.193,3129.159h-3.537a2.13,2.13,0,0,1-1.69-.829c-1.1-1.433-3.387-4.228-4.48-4.3-1.471-.1-1.283,5.13-1.283,5.13h-.824l-1.044-6.5a3.846,3.846,0,0,1,2.018-4.02,5.436,5.436,0,0,0,2.159,3.586c1.823,1.1,7.417,5.038,7.417,5.038a5.055,5.055,0,0,1,1.438.038A.935.935,0,0,1,1540.193,3129.159Z" transform="translate(-1492.829 -2962.681)" fill="url(#linear-gradient-20)"/>
        <path id="Trazado_141433" data-name="Trazado 141433" d="M1178.7,2643.548s-14.693,27.872-17.029,34.235a61.12,61.12,0,0,0-3.185,12.175c-.049.786-1.026,1.539-3.719,1.539a2.584,2.584,0,0,1-2.4-1.1,1.569,1.569,0,0,1-.059-1.52c.85-1.72,3.547-7.218,4.546-9.711,1.193-2.977,3.758-16.467,5.165-21.157s3-9.778,9.125-14.465C1171.136,2643.548,1175.342,2639.428,1178.7,2643.548Z" transform="translate(-1150.578 -2527.583)" fill="url(#linear-gradient-21)"/>
        <path id="Trazado_141434" data-name="Trazado 141434" d="M1500.4,1792.316c3.79-16.061-5.811-25.144-5.811-25.144,6.058-5.815,17.1-8.462,17.1-8.462s10.533,7.7,9.283,13.728c-.732,3.533-7.4,21.16-7.4,21.16A14.658,14.658,0,0,1,1500.4,1792.316Z" transform="translate(-1462.996 -1722.02)" fill="#5cd8a0"/>
        <path id="Trazado_141435" data-name="Trazado 141435" d="M1372.4,2149.831c1.542-4.647,8.4-7.951,8.4-7.951a14.658,14.658,0,0,0,13.165,1.282,26.405,26.405,0,0,1,.428,10.2c-.955,4.914-6.946,36.5-6.946,36.5-9.439,1.913-23.957-1.924-23.957-1.924C1369.5,2177.263,1370.853,2154.478,1372.4,2149.831Z" transform="translate(-1343.399 -2071.584)" fill="url(#linear-gradient-22)"/>
        <path id="Trazado_141436" data-name="Trazado 141436" d="M1578.455,1623.97l-3.082,13.841c-.295,1.219.816,1.02,2.049.787,2.019-.38,4.62-1.164,5.49-2.735a1.494,1.494,0,0,0,.158-.522l1.324-9.6a1.725,1.725,0,0,0-1.009-1.812l-2.555-1.133A1.725,1.725,0,0,0,1578.455,1623.97Z" transform="translate(-1536.656 -1597.893)" fill="url(#linear-gradient-23)"/>
        <g id="Grupo_97319" data-name="Grupo 97319" transform="translate(35.697 8.123)">
          <path id="Trazado_141437" data-name="Trazado 141437" d="M1594.7,1488.7s3.281,2.221,4.69,7.876-.881,7.684-3.23,7.56a10.9,10.9,0,0,1-8.7-4.908C1584.5,1495.171,1590.4,1485.987,1594.7,1488.7Z" transform="translate(-1582.692 -1483.365)" fill="url(#linear-gradient-24)"/>
          <path id="Trazado_141438" data-name="Trazado 141438" d="M1549.17,1446.573s-1.2-8.1,5.526-6.864l1.36,1.416s3.293-3.709-.351-6.512-8.7-2.086-11.5,3.018-3.813,8.69-1.468,11.861,4.109.451,4.109.451-1.076-2.745-.183-3.923,2.044.685,2.044.685Z" transform="translate(-1541.433 -1432.99)" fill="url(#linear-gradient-25)"/>
          <path id="Trazado_141439" data-name="Trazado 141439" d="M1582.931,1562.573s-.594-4.169-2.723-2.977.767,3.895,1.929,4.814Z" transform="translate(-1576.114 -1548.297)" fill="url(#linear-gradient-26)"/>
        </g>
        <g id="Grupo_97320" data-name="Grupo 97320" transform="translate(77.908 0)">
          <path id="Trazado_141440" data-name="Trazado 141440" d="M2025.065,1354.112c.045.49-1.776.828-2.356-1.26.159-.907.442-4.877,1.137-5.494a73.39,73.39,0,0,1,10.3-6.981,1.35,1.35,0,0,1-.23,1.87l-3.3,2.224a13.336,13.336,0,0,1,.9,3.445,3.859,3.859,0,0,1-.974,2.7c-.656.75-1.539,1.717-2.335,2.452A3.809,3.809,0,0,1,2025.065,1354.112Z" transform="translate(-2022.709 -1340.378)" fill="url(#linear-gradient-27)"/>
          <path id="Trazado_141441" data-name="Trazado 141441" d="M2047.669,1407.974l-.5-.207c.067-.163,1.649-4.006,2.414-4.806a1.158,1.158,0,0,0,.418-.772.549.549,0,0,0-.169-.339l-2.667,1.426-1.178,1.844-.459-.293,1.254-1.965,3.124-1.67.141.115a1.183,1.183,0,0,1,.5.849,1.618,1.618,0,0,1-.568,1.183A26.875,26.875,0,0,0,2047.669,1407.974Z" transform="translate(-2043.523 -1395.858)" fill="url(#linear-gradient-28)"/>
        </g>
        <g id="Grupo_97321" data-name="Grupo 97321" transform="translate(39.664 54.038)">
          <path id="Trazado_141442" data-name="Trazado 141442" d="M1587.828,2212.828h.063l27.529-.03a1.219,1.219,0,1,0,0-2.438l-27.529.03a1.219,1.219,0,0,0-.061,2.437Z" transform="translate(-1586.658 -2188.098)" fill="url(#linear-gradient-29)"/>
          <path id="Trazado_141443" data-name="Trazado 141443" d="M1806.942,1956.509h-22.927a4.374,4.374,0,0,0-3.952,2.479l-10.6,22.237h28.492a2.655,2.655,0,0,0,2.47-1.662l8.219-20.577A1.814,1.814,0,0,0,1806.942,1956.509Z" transform="translate(-1753.431 -1956.509)" fill="url(#linear-gradient-30)"/>
          <ellipse id="Elipse_4491" data-name="Elipse 4491" cx="2.908" cy="1.804" rx="2.908" ry="1.804" transform="matrix(0.313, -0.95, 0.95, 0.313, 36.454, 14.146)" fill="#91b3fa"/>
        </g>
        <path id="Trazado_141444" data-name="Trazado 141444" d="M1423.512,1855.567c-3.756,3.79-8.522,20.591-6.157,23.4,2.082,3.267,9.171,7.714,15.921,7.72h9.959c-4.185-4.447-7.066-5.574-10.5-2.465-2.723-1.164-6.254-5.671-8.61-7.683a2.513,2.513,0,0,1-.525-3.185c1.872-3.17,4.22-6.428,4.967-9.585C1428.728,1860.067,1425.991,1855.834,1423.512,1855.567Z" transform="translate(-1391.963 -1810.382)" fill="url(#linear-gradient-31)"/>
      </g>
      <g id="Grupo_97323" data-name="Grupo 97323" transform="translate(582.466 607.862)">
        <path id="Trazado_141445" data-name="Trazado 141445" d="M1945.875,2290.324a.987.987,0,0,1-.69-.341c-2.553-2.95-21.251-26.136-.495-50.176,19.7-22.821,29.032-27.9,29.379-40.468a1.467,1.467,0,0,1,2.729-.7c5.577,9.446,14.839,31.769-8.985,48.669-26.281,18.643-22.659,36.641-20.94,41.7a.991.991,0,0,1-1,1.311Z" transform="translate(-1935.012 -2197.917)" fill="#c5fde5"/>
        <path id="Trazado_141446" data-name="Trazado 141446" d="M2073.891,2932.351a1.428,1.428,0,0,1-1.309-1.1c-.977-4.2-3.785-19.971,7.6-25.064,12.538-5.608,23.844,5.612,32.61-4.494a.721.721,0,0,1,1.265.537c-.475,4.97-3.375,16.618-19.911,20.161-17.7,3.792-19.557,6-19.005,8.513a1.2,1.2,0,0,1-1.254,1.449Z" transform="translate(-2059.578 -2839.736)" fill="#77ffc5"/>
        <path id="Trazado_141447" data-name="Trazado 141447" d="M2007.131,2355.768a18.36,18.36,0,0,1-.656,2.719,26.971,26.971,0,0,1-.97,2.608,33.209,33.209,0,0,1-2.62,4.915,39,39,0,0,1-7.346,8.368,50.847,50.847,0,0,1-4.426,3.366,42.389,42.389,0,0,0-4.194,3.291,46.659,46.659,0,0,0-7.093,7.964,39.776,39.776,0,0,0-7.319,19.8,37.336,37.336,0,0,0,.741,10.658,44.175,44.175,0,0,0,3.6,10.157.35.35,0,0,1-.618.327,41.829,41.829,0,0,1-4.155-10.208,36.4,36.4,0,0,1-1.145-11.032,38.076,38.076,0,0,1,2.181-10.917,43.2,43.2,0,0,1,5.09-9.908,46.6,46.6,0,0,1,7.357-8.36,44.471,44.471,0,0,1,4.384-3.465,51.121,51.121,0,0,0,4.3-3.2,42.913,42.913,0,0,0,7.311-7.749,37.584,37.584,0,0,0,2.853-4.528,28.314,28.314,0,0,0,2.1-4.92l.007-.022a.319.319,0,0,1,.62.142Z" transform="translate(-1967.74 -2341.587)" fill="#e8fff5"/>
        <path id="Trazado_141448" data-name="Trazado 141448" d="M2084.81,2964.24a1.134,1.134,0,0,0,0-.446l-.047-.437-.076-.875q-.064-.876-.093-1.754c-.036-1.17-.024-2.343.045-3.514a26.233,26.233,0,0,1,1.266-6.931,12.441,12.441,0,0,1,3.936-5.9,9.638,9.638,0,0,1,3.233-1.623,12.244,12.244,0,0,1,3.571-.451c4.7.19,9.326.74,13.955,1.12a24.413,24.413,0,0,0,6.852-.176,10.2,10.2,0,0,0,1.608-.5,8.614,8.614,0,0,0,1.476-.8,10.8,10.8,0,0,0,2.431-2.353l0,0a.285.285,0,0,1,.453.345,11.427,11.427,0,0,1-2.519,2.54,9.312,9.312,0,0,1-1.575.894,10.876,10.876,0,0,1-1.715.571,25.032,25.032,0,0,1-7.07.267c-2.336-.155-4.651-.412-6.969-.611s-4.648-.385-6.942-.481a11.453,11.453,0,0,0-3.342.391,8.861,8.861,0,0,0-2.989,1.467,11.759,11.759,0,0,0-3.8,5.507,25.7,25.7,0,0,0-1.36,6.755c-.089,1.153-.122,2.312-.108,3.471q.011.869.06,1.737l.059.867.038.432a.948.948,0,0,0,.1.421.264.264,0,1,1-.48.07Z" transform="translate(-2071.457 -2874.453)" fill="#e8fff5"/>
      </g>
      <g id="Grupo_97325" data-name="Grupo 97325" transform="translate(490.565 520.345)">
        <circle id="Elipse_4486-2" data-name="Elipse 4486" cx="11.902" cy="11.902" r="11.902" transform="translate(0 16.831) rotate(-45)" fill="#fb9e36"/>
        <path id="Trazado_141420-2" data-name="Trazado 141420" d="M1174.681,1163.225h-.006a.113.113,0,0,1-.107-.118,11.146,11.146,0,0,1,.161-1.394.113.113,0,1,1,.222.04,10.937,10.937,0,0,0-.158,1.366A.113.113,0,0,1,1174.681,1163.225Z" transform="translate(-1168.821 -1146.864)" fill="#fff" opacity="0.7"/>
        <path id="Trazado_141421-2" data-name="Trazado 141421" d="M1187.876,1065a.111.111,0,0,1-.051-.012.113.113,0,0,1-.05-.151,11.053,11.053,0,0,1,9.915-6.1,11.2,11.2,0,0,1,2,.18.113.113,0,1,1-.04.222,10.978,10.978,0,0,0-1.962-.176,10.829,10.829,0,0,0-9.713,5.98A.113.113,0,0,1,1187.876,1065Z" transform="translate(-1180.859 -1053.004)" fill="#fff" opacity="0.7"/>
        <circle id="Elipse_4487-2" data-name="Elipse 4487" cx="10.073" cy="10.073" r="10.073" transform="translate(2.845 17.091) rotate(-45)" fill="#fff" opacity="0.78"/>
        <path id="Trazado_141422-2" data-name="Trazado 141422" d="M1274.817,1114.516c0,1.706-1.383,3.547-3.088,3.547s-3.088-1.841-3.088-3.547a3.093,3.093,0,0,1,6.177,0Z" transform="translate(-1254.642 -1101.231)" fill="#fb9e36"/>
        <path id="Trazado_141423-2" data-name="Trazado 141423" d="M1237.916,1202.1h7.539a1.825,1.825,0,0,0,1.738-1.269l.406-1.268a1.823,1.823,0,0,0-1.1-2.268,14.051,14.051,0,0,0-9.491.1,1.817,1.817,0,0,0-1.164,2.2l.312,1.151A1.825,1.825,0,0,0,1237.916,1202.1Z" transform="translate(-1224.662 -1178.699)" fill="#fb9e36"/>
      </g>
    </g>
    <rect id="Rectángulo_32970" data-name="Rectángulo 32970" width="274" height="274" transform="translate(-6885 -7045)" fill="none"/>
  </g>
</svg>
