<svg xmlns="http://www.w3.org/2000/svg" width="274" height="274" viewBox="0 0 274 274">
  <g id="Grupo_97368" data-name="Grupo 97368" transform="translate(6885 6726)">
    <g id="Shadow" transform="translate(-6879.695 -6487.892)">
      <ellipse id="_Path_" data-name="&lt;Path&gt;" cx="132.712" cy="7.751" rx="132.712" ry="7.751" fill="#d2f6e6"/>
    </g>
    <rect id="Rectángulo_32970" data-name="Rectángulo 32970" width="274" height="274" transform="translate(-6885 -6726)" fill="none"/>
    <path id="Trazado_141526" data-name="Trazado 141526" d="M675.547,684.522a96.977,96.977,0,0,1-17.031,13.824C614.408,727.8,563.989,719.309,548.4,716.407c-25.15-4.681-46.38-7.983-64.621-24.463-41.448-37.447-39.432-115.563-7.761-163.952,3.755-5.738,35.379-52.613,85.907-59.218,1.236-.161,2.158-.253,2.966-.339,7.817-.828,56.255-5.2,95.752,27.895a117.825,117.825,0,0,1,23.19,26.311C714.683,570.287,714.781,644.08,675.547,684.522Z" transform="translate(-7325.239 -7179.161)" fill="#d2f6e6"/>
    <g id="Checklist" transform="translate(-6859.252 -6711.37)">
      <g id="Grupo_97359" data-name="Grupo 97359">
        <g id="Grupo_97341" data-name="Grupo 97341" transform="translate(0 14.29)">
          <path id="Trazado_141458" data-name="Trazado 141458" d="M243.763,99.3H85.979L96.366,314.181H254.15Z" transform="translate(-85.979 -99.296)" fill="#407bff"/>
          <path id="Trazado_141459" data-name="Trazado 141459" d="M243.763,99.3H85.979L96.366,314.181H254.15Z" transform="translate(-85.979 -99.296)" fill="#5cd8a0"/>
        </g>
        <path id="Trazado_141460" data-name="Trazado 141460" d="M245.9,99.3H88.113L98.5,314.181H256.283Z" transform="translate(-86.652 -85.006)" fill="#b2edd2"/>
        <g id="Grupo_97356" data-name="Grupo 97356" transform="translate(8.675 21.516)">
          <path id="Trazado_141461" data-name="Trazado 141461" d="M240.889,109.856H98.653L108.591,307.8l123.683-.164,20.553-18.223Z" transform="translate(-98.653 -109.855)" opacity="0.2"/>
          <g id="Grupo_97355" data-name="Grupo 97355" transform="translate(0)">
            <g id="Grupo_97342" data-name="Grupo 97342">
              <path id="Trazado_141462" data-name="Trazado 141462" d="M241.982,109.854a1612.011,1612.011,0,0,0,14.3,177.179q-16.906,11.63-33.642,23.253H116.3A1614.588,1614.588,0,0,1,98.653,109.854Z" transform="translate(-98.653 -109.854)" fill="#fff"/>
              <path id="Trazado_141463" data-name="Trazado 141463" d="M313.44,365.226q-16.906,11.63-33.642,23.253,3.662-15.4,7.621-30.808Q300.421,361.449,313.44,365.226Z" transform="translate(-155.809 -188.046)" fill="#ebebeb"/>
            </g>
            <g id="Grupo_97345" data-name="Grupo 97345" transform="translate(14.447 15.815)">
              <g id="Grupo_97343" data-name="Grupo 97343">
                <path id="Trazado_141464" data-name="Trazado 141464" d="M143.889,135.254q.4,10.873.943,21.751H123.081q-.546-10.878-.943-21.751h21.751m2.215-2.294H119.759q.462,13.166,1.142,26.339h26.345q-.68-13.173-1.142-26.339Z" transform="translate(-119.759 -132.96)" fill="#fb9e36"/>
              </g>
              <g id="Grupo_97344" data-name="Grupo 97344" transform="translate(38.294 5.543)">
                <path id="Trazado_141465" data-name="Trazado 141465" d="M250.391,145.973H175.9q-.1-2.458-.2-4.915h74.489Q250.288,143.517,250.391,145.973Z" transform="translate(-175.705 -141.058)" fill="#e0e0e0"/>
                <path id="Trazado_141466" data-name="Trazado 141466" d="M234.853,161.072H176.566q-.119-2.458-.229-4.916h58.287Q234.735,158.614,234.853,161.072Z" transform="translate(-175.904 -145.822)" fill="#e0e0e0"/>
              </g>
            </g>
            <g id="Grupo_97348" data-name="Grupo 97348" transform="translate(16.511 58.417)">
              <g id="Grupo_97346" data-name="Grupo 97346">
                <path id="Trazado_141467" data-name="Trazado 141467" d="M146.966,197.494q.688,10.881,1.525,21.764H126.741q-.837-10.883-1.525-21.764h21.751m2.154-2.3H122.775q.814,13.175,1.847,26.355h26.345q-1.032-13.179-1.847-26.355Z" transform="translate(-122.775 -195.199)" fill="#f1d54e"/>
              </g>
              <g id="Grupo_97347" data-name="Grupo 97347" transform="translate(38.443 5.547)">
                <path id="Trazado_141468" data-name="Trazado 141468" d="M206.632,208.222H179.268q-.168-2.459-.329-4.919H206.3Q206.464,205.763,206.632,208.222Z" transform="translate(-178.939 -203.303)" fill="#e0e0e0"/>
                <path id="Trazado_141469" data-name="Trazado 141469" d="M247.836,208.222H227.708q-.168-2.459-.329-4.919h20.128Q247.668,205.763,247.836,208.222Z" transform="translate(-194.223 -203.303)" fill="#e0e0e0"/>
                <path id="Trazado_141470" data-name="Trazado 141470" d="M245.517,223.33H180.334q-.184-2.459-.36-4.919h65.183Q245.332,220.87,245.517,223.33Z" transform="translate(-179.266 -208.07)" fill="#e0e0e0"/>
              </g>
            </g>
            <g id="Grupo_97351" data-name="Grupo 97351" transform="translate(19.715 101.04)">
              <g id="Grupo_97349" data-name="Grupo 97349">
                <path id="Trazado_141471" data-name="Trazado 141471" d="M151.709,259.766q.978,10.884,2.106,21.766H132.065q-1.127-10.882-2.107-21.766h21.751m2.092-2.3H127.456q1.166,13.18,2.55,26.358h26.345q-1.385-13.179-2.551-26.358Z" transform="translate(-127.456 -257.47)" fill="#fb9e36"/>
              </g>
              <g id="Grupo_97350" data-name="Grupo 97350" transform="translate(38.591 5.549)">
                <path id="Trazado_141472" data-name="Trazado 141472" d="M259.763,280.686H185.275q.242,2.46.491,4.919h74.489Q260.006,283.146,259.763,280.686Z" transform="translate(-184.29 -270.344)" fill="#e0e0e0"/>
                <path id="Trazado_141473" data-name="Trazado 141473" d="M242.123,265.577H183.836q.226,2.459.46,4.919h58.287Q242.349,268.037,242.123,265.577Z" transform="translate(-183.836 -265.577)" fill="#e0e0e0"/>
              </g>
            </g>
            <g id="Grupo_97354" data-name="Grupo 97354" transform="translate(24.057 143.662)">
              <g id="Grupo_97352" data-name="Grupo 97352">
                <path id="Trazado_141474" data-name="Trazado 141474" d="M158.114,322.036q1.27,10.88,2.687,21.757H139.051q-1.418-10.877-2.687-21.757h21.751m2.031-2.3H133.8q1.517,13.176,3.254,26.346H163.4q-1.736-13.17-3.255-26.346Z" transform="translate(-133.8 -319.741)" fill="#fb9e36"/>
              </g>
              <g id="Grupo_97353" data-name="Grupo 97353" transform="translate(38.739 5.547)">
                <path id="Trazado_141475" data-name="Trazado 141475" d="M265.476,332.762H190.987q-.3-2.458-.591-4.917h74.488Q265.177,330.3,265.476,332.762Z" transform="translate(-190.396 -327.845)" fill="#e0e0e0"/>
                <path id="Trazado_141476" data-name="Trazado 141476" d="M226.77,347.864H192.862q-.316-2.457-.624-4.917h33.909Q226.454,345.4,226.77,347.864Z" transform="translate(-190.977 -332.61)" fill="#e0e0e0"/>
                <path id="Trazado_141477" data-name="Trazado 141477" d="M265.237,347.864H250.595q-.315-2.457-.623-4.917h14.642Q264.922,345.4,265.237,347.864Z" transform="translate(-209.194 -332.61)" fill="#e0e0e0"/>
              </g>
            </g>
            <path id="Trazado_141478" data-name="Trazado 141478" d="M136.887,155.123q-.483-.769-.964-1.537c-2.1-3.351-6.408-6.346-7.889-7.218l1.1-1.964a31.042,31.042,0,0,1,7.713,6.618c3.313-4.515,8.208-9.172,14.916-14.187l1.42,1.854c-7.162,5.357-12.173,10.268-15.334,14.989Q137.37,154.4,136.887,155.123Z" transform="translate(-107.923 -118.367)" fill="#fb9e36"/>
            <path id="Trazado_141479" data-name="Trazado 141479" d="M140.614,217.376q-.5-.768-1.005-1.537c-2.192-3.354-6.577-6.352-8.082-7.223l1.05-1.965a32.282,32.282,0,0,1,7.891,6.623c3.191-4.518,7.962-9.175,14.536-14.2l1.47,1.855c-7.017,5.368-11.9,10.273-14.933,15Q141.077,216.654,140.614,217.376Z" transform="translate(-109.026 -138.006)" fill="#f1d54e"/>
            <path id="Trazado_141480" data-name="Trazado 141480" d="M146.019,279.8l-1.047-1.537c-2.281-3.353-6.748-6.35-8.275-7.223q.5-.983,1-1.966a33.648,33.648,0,0,1,8.067,6.624c3.072-4.518,7.717-9.176,14.156-14.2l1.52,1.856c-6.874,5.366-11.626,10.275-14.531,15Z" transform="translate(-110.657 -157.702)" fill="#fb9e36"/>
            <path id="Trazado_141481" data-name="Trazado 141481" d="M216.32,382.127a14.156,14.156,0,0,1-8.418-2.807,11.922,11.922,0,0,0-7.227-2.447,9.151,9.151,0,0,0-6.536,2.447,10.833,10.833,0,0,1-7.618,2.807,14.155,14.155,0,0,1-8.417-2.807,11.916,11.916,0,0,0-7.225-2.447,9.143,9.143,0,0,0-6.535,2.447,10.83,10.83,0,0,1-7.616,2.807,14.155,14.155,0,0,1-8.417-2.807,11.923,11.923,0,0,0-7.225-2.447q-.139-.986-.275-1.971a14.107,14.107,0,0,1,8.409,2.808,11.918,11.918,0,0,0,7.226,2.446,9.15,9.15,0,0,0,6.534-2.446A10.859,10.859,0,0,1,170.6,374.9a14.114,14.114,0,0,1,8.409,2.808,11.92,11.92,0,0,0,7.227,2.446,9.154,9.154,0,0,0,6.535-2.446A10.861,10.861,0,0,1,200.4,374.9a14.113,14.113,0,0,1,8.411,2.808,11.917,11.917,0,0,0,7.227,2.446Q216.178,381.142,216.32,382.127Z" transform="translate(-111.955 -193.483)" fill="#ebebeb"/>
          </g>
        </g>
        <g id="Grupo_97358" data-name="Grupo 97358" transform="translate(39.911)">
          <path id="Trazado_141482" data-name="Trazado 141482" d="M224.033,98.026c-2.309-6.134-7.655-10.2-13.41-10.2H198.909a4.458,4.458,0,0,1-4.075-2.708,10.932,10.932,0,0,0-9.97-6.7,9.7,9.7,0,0,0-9.323,6.7,3.956,3.956,0,0,1-3.813,2.708H160.014c-5.754,0-10.707,4.066-12.423,10.2l-.686,2.45h78.05Z" transform="translate(-145.114 -78.419)" fill="#15ac68"/>
          <g id="Grupo_97357" data-name="Grupo 97357" transform="translate(0 19.653)">
            <path id="Trazado_141483" data-name="Trazado 141483" d="M223.629,111.941H146.812a2.558,2.558,0,0,1-2.522-2.405h0a2.276,2.276,0,0,1,2.289-2.405H223.4a2.559,2.559,0,0,1,2.522,2.405h0A2.277,2.277,0,0,1,223.629,111.941Z" transform="translate(-144.288 -107.131)" fill="#17c878"/>
            <path id="Trazado_141484" data-name="Trazado 141484" d="M223.629,111.941H146.812a2.558,2.558,0,0,1-2.522-2.405h0a2.276,2.276,0,0,1,2.289-2.405H223.4a2.559,2.559,0,0,1,2.522,2.405h0A2.277,2.277,0,0,1,223.629,111.941Z" transform="translate(-144.288 -107.131)" fill="#17c878" opacity="0.2"/>
          </g>
        </g>
      </g>
    </g>
    <g id="Character" transform="translate(-6742.265 -6684.05)">
      <g id="Grupo_97367" data-name="Grupo 97367">
        <path id="Trazado_141485" data-name="Trazado 141485" d="M358.374,404.878h-5.015l-.5-11.614h5.015Z" transform="translate(-287.173 -205.08)" fill="#ffc3bd"/>
        <path id="Trazado_141486" data-name="Trazado 141486" d="M401.433,404.878h-5.015L393.9,393.265h5.015Z" transform="translate(-300.121 -205.08)" fill="#ffc3bd"/>
        <path id="Trazado_141487" data-name="Trazado 141487" d="M393.456,409.384h5.634a.439.439,0,0,1,.427.343l.99,4.457a.737.737,0,0,1-.734.892c-1.966-.034-2.922-.149-5.4-.149-1.524,0-4.665.159-6.77.159-2.058,0-2.38-2.081-1.518-2.27,3.865-.845,5.32-2.01,6.557-3.123A1.216,1.216,0,0,1,393.456,409.384Z" transform="translate(-297.515 -210.166)" fill="#263238"/>
        <path id="Trazado_141488" data-name="Trazado 141488" d="M348.055,409.384h5.476a.438.438,0,0,1,.427.343l.99,4.457a.73.73,0,0,1-.721.893c-1.975-.034-4.83-.15-7.313-.15-2.9,0-5.411.159-8.816.159-2.059,0-2.63-2.081-1.769-2.27,3.923-.858,7.127-.95,10.517-3.04A2.321,2.321,0,0,1,348.055,409.384Z" transform="translate(-281.835 -210.166)" fill="#263238"/>
        <path id="Trazado_141489" data-name="Trazado 141489" d="M363.028,142.922c-.719,3.669-1.077,8.216,1.49,10.664,0,0-1.474,3.721-8.292,3.721-6.229,0-3.111-3.721-3.111-3.721,4.092-.977,3.878-6.036,3.166-8.887Z" transform="translate(-287.007 -126.091)" fill="#ffc3bd"/>
        <g id="Grupo_97360" data-name="Grupo 97360" transform="translate(64.179 24.861)">
          <path id="Trazado_141490" data-name="Trazado 141490" d="M350.656,157.8c.142-.913,1.739-1.968,3.565-2.368s8.813-1.283,10.952-.4-.371,3.5-.371,3.5Z" transform="translate(-350.656 -154.653)" fill="#407bff"/>
          <path id="Trazado_141491" data-name="Trazado 141491" d="M350.656,157.8c.142-.913,1.739-1.968,3.565-2.368s8.813-1.283,10.952-.4-.371,3.5-.371,3.5Z" transform="translate(-350.656 -154.653)" fill="#fff" opacity="0.4"/>
        </g>
        <g id="Grupo_97361" data-name="Grupo 97361" transform="translate(65.688 188.188)">
          <path id="Trazado_141492" data-name="Trazado 141492" d="M352.862,393.269l.257,5.986h5.017l-.257-5.986Z" transform="translate(-352.862 -393.269)" opacity="0.2"/>
          <path id="Trazado_141493" data-name="Trazado 141493" d="M398.914,393.269H393.9l1.3,5.986h5.017Z" transform="translate(-365.809 -393.269)" opacity="0.2"/>
        </g>
        <path id="Trazado_141494" data-name="Trazado 141494" d="M382.566,165.1l-6.043,4.051s8.68,15.432,7.951,17.905c-.992,3.366-2.376,10.729-4.257,14.464a7.071,7.071,0,0,0,2.2,2.967c4.779-3.646,9.635-15.071,9.452-18.256C391.449,178.971,382.566,165.1,382.566,165.1Z" transform="translate(-294.639 -133.089)" fill="#ffc3bd"/>
        <path id="Trazado_141495" data-name="Trazado 141495" d="M379.721,218.141l-4.77-.37,2.51,5.279s4.181.185,4.88-3.011Z" transform="translate(-294.143 -149.707)" fill="#b55b52"/>
        <g id="Grupo_97364" data-name="Grupo 97364" transform="translate(0 31.528)">
          <path id="Trazado_141496" data-name="Trazado 141496" d="M370.729,232.457l-.405.757-2.713,5.128-96.219-50.88,3.108-5.884Z" transform="translate(-261.468 -169.816)" fill="#f1d54e"/>
          <path id="Trazado_141497" data-name="Trazado 141497" d="M379.822,215.28l-1.987,3.755-1.123,2.12-96.229-50.878,3.108-5.884Z" transform="translate(-264.336 -164.393)" fill="#f1d54e"/>
          <g id="Grupo_97362" data-name="Grupo 97362" transform="translate(13.05 5.851)">
            <rect id="Rectángulo_33014" data-name="Rectángulo 33014" width="6.654" height="108.85" transform="translate(0 5.882) rotate(-62.095)" fill="#407bff"/>
            <rect id="Rectángulo_33015" data-name="Rectángulo 33015" width="6.654" height="108.851" transform="translate(0 5.88) rotate(-62.095)" fill="#efe19e"/>
          </g>
          <g id="Grupo_97363" data-name="Grupo 97363" transform="translate(2.977 0.003)">
            <path id="Trazado_141498" data-name="Trazado 141498" d="M264.041,165.174l-2.8,5.294,6.946,11.577L277.52,164.4Z" transform="translate(-261.242 -164.397)" fill="#407bff"/>
            <path id="Trazado_141499" data-name="Trazado 141499" d="M264.041,165.174l-2.8,5.294,6.946,11.577L277.52,164.4Z" transform="translate(-261.242 -164.397)" fill="#e8fff5" opacity="0.8"/>
          </g>
          <path id="Trazado_141500" data-name="Trazado 141500" d="M256.893,165.865l2.977,4.962,2.8-5.294Z" transform="translate(-256.893 -164.752)" fill="#15ac68"/>
        </g>
        <path id="Trazado_141501" data-name="Trazado 141501" d="M369.286,220.175l2.508,4.67,3.88-1.795-2.51-5.279Z" transform="translate(-292.355 -149.707)" fill="#b55b52"/>
        <path id="Trazado_141502" data-name="Trazado 141502" d="M380.006,160.116c4.745.691,10.179,17.132,10.179,17.132l-9.965,5.628a122.085,122.085,0,0,1-6.553-13.627C371.4,163.165,374.918,159.376,380.006,160.116Z" transform="translate(-293.516 -131.487)" fill="#5cd8a0"/>
        <path id="Trazado_141503" data-name="Trazado 141503" d="M378.685,168.255c-2.156-1.972-.835,6.468.192,11.869.527,1.054,1.027,2.012,1.451,2.813C382.731,178.693,381.656,170.972,378.685,168.255Z" transform="translate(-294.955 -133.991)" opacity="0.2"/>
        <path id="Trazado_141504" data-name="Trazado 141504" d="M340.952,159.817s-5.919,15.144-.3,43.346h26.823c.185-4.118-2.4-24.2,1.569-43.605a69.924,69.924,0,0,0-8.979-1.133,98.486,98.486,0,0,0-11.4,0A50.351,50.351,0,0,0,340.952,159.817Z" transform="translate(-282.557 -130.929)" fill="#5cd8a0"/>
        <path id="Trazado_141505" data-name="Trazado 141505" d="M333.243,169.586l-6.764-2.679s-7.787,15.9-10.237,16.7c-3.334,1.092-10.184,4.129-14.327,4.7a7.072,7.072,0,0,0-1.2,3.49c5.713,1.869,17.876-.613,20.4-2.57C326.858,184.768,333.243,169.586,333.243,169.586Z" transform="translate(-270.716 -133.658)" fill="#ffc3bd"/>
        <path id="Trazado_141506" data-name="Trazado 141506" d="M345.842,166.638a4.956,4.956,0,0,0-5.5-3.272,72.684,72.684,0,0,0-2.081,20.527l1.595.766S347.752,171.039,345.842,166.638Z" transform="translate(-282.557 -132.518)" opacity="0.2"/>
        <path id="Trazado_141507" data-name="Trazado 141507" d="M343.114,163.9c1.69,4.487-6.872,17.7-6.872,17.7l-10.03-5.447a61.222,61.222,0,0,1,5.8-11.74C335.558,159.125,341.26,158.977,343.114,163.9Z" transform="translate(-278.765 -131.581)" fill="#5cd8a0"/>
        <path id="Trazado_141508" data-name="Trazado 141508" d="M300.04,198.153l-5.974,1.292,3.027,5.524a16.5,16.5,0,0,0,4.481-3.269Z" transform="translate(-268.622 -143.517)" fill="#ffc3bd"/>
        <path id="Trazado_141509" data-name="Trazado 141509" d="M289.953,201.266l2.382,3.3,3.46,1-3.028-5.523Z" transform="translate(-267.324 -144.113)" fill="#ffc3bd"/>
        <ellipse id="Elipse_4492" data-name="Elipse 4492" cx="0.732" cy="0.479" rx="0.732" ry="0.479" transform="matrix(0.058, -0.998, 0.998, 0.058, 63.678, 12.23)" fill="#263238"/>
        <path id="Trazado_141510" data-name="Trazado 141510" d="M350.922,135.259a14.476,14.476,0,0,1-2.129,3.342,2.331,2.331,0,0,0,1.908.474Z" transform="translate(-285.889 -123.673)" fill="#ed847e"/>
        <path id="Trazado_141511" data-name="Trazado 141511" d="M350.531,132.481a.232.232,0,0,1-.1-.036.237.237,0,0,1-.071-.329,2.36,2.36,0,0,1,1.856-1.122.238.238,0,0,1,0,.476h0a1.881,1.881,0,0,0-1.46.9A.238.238,0,0,1,350.531,132.481Z" transform="translate(-286.372 -122.327)" fill="#263238"/>
        <path id="Trazado_141512" data-name="Trazado 141512" d="M364.6,131.153c-.591,4.942-.685,7.865-3.337,10.266-3.988,3.612-9.98.988-10.877-4.032-.808-4.517.293-11.84,5.262-13.534A6.789,6.789,0,0,1,364.6,131.153Z" transform="translate(-286.316 -119.953)" fill="#ffc3bd"/>
        <path id="Trazado_141513" data-name="Trazado 141513" d="M352.642,130.5c-1.731.342-4.5-3.5-2.242-6.769-1.142-.571-4.869,1.673-6.276-.418s2.491-3.214,1.749-4.982c2.643.542-1.711,3.839.8,3.516s5.409-4.965,8.242-3.06c4.962,3.337,11.722-2.225,8.963,4.734,3.385-.684,5.7,3.318,2.474,6.084-6.424,5.514-2.474,6.236-6.54,6.522C357.741,136.274,353,133.828,352.642,130.5Z" transform="translate(-284.319 -118.332)" fill="#263238"/>
        <path id="Trazado_141514" data-name="Trazado 141514" d="M358.482,136.681a4.182,4.182,0,0,1-2.39,2.116c-1.389.467-2.159-.756-1.837-2.107.29-1.216,1.362-2.924,2.787-2.806A1.877,1.877,0,0,1,358.482,136.681Z" transform="translate(-287.59 -123.237)" fill="#ffc3bd"/>
        <g id="Grupo_97365" data-name="Grupo 97365" transform="translate(67.613 72.234)">
          <path id="Trazado_141515" data-name="Trazado 141515" d="M355.674,223.864s5.691,38.325,8.815,52.683c3.422,15.723,16.312,68.1,16.312,68.1h9.186s-8.5-51.106-10.453-66.673c-2.119-16.9-6.552-54.108-6.552-54.108Z" transform="translate(-355.674 -223.864)" fill="#407bff"/>
          <path id="Trazado_141516" data-name="Trazado 141516" d="M355.674,223.864s5.691,38.325,8.815,52.683c3.422,15.723,16.312,68.1,16.312,68.1h9.186s-8.5-51.106-10.453-66.673c-2.119-16.9-6.552-54.108-6.552-54.108Z" transform="translate(-355.674 -223.864)" fill="#fff" opacity="0.2"/>
          <path id="Trazado_141517" data-name="Trazado 141517" d="M363.874,243.1c-.422-.6-.81-.806-1.166-.7a.736.736,0,0,0-.073.026.922.922,0,0,0-.225.134,1.5,1.5,0,0,0-.2.2q-.054.065-.109.14c-.049.069-.1.145-.147.227a5.25,5.25,0,0,0-.308.624c-.053.127-.105.261-.157.4-.062.169-.122.349-.181.537q-.117.378-.227.8c-.019.073-.038.147-.056.222-.038.153-.076.311-.113.472q-.045.2-.09.408-.086.407-.169.837-.087.459-.168.94c-.019.112-.038.226-.057.34q-.1.617-.192,1.258h0v0c1.52,9.542,3.326,20.478,4.811,28.109q.109-.372.209-.784a35.993,35.993,0,0,0,.687-3.867C367.216,263.592,366.617,247.025,363.874,243.1Z" transform="translate(-357.114 -229.705)" opacity="0.2"/>
        </g>
        <g id="Grupo_97366" data-name="Grupo 97366" transform="translate(57.743 72.234)">
          <path id="Trazado_141518" data-name="Trazado 141518" d="M341.608,223.864s-.691,37.5-.145,52.789c.567,15.907,6.123,67.992,6.123,67.992h8.5s.311-51.156.69-66.778c.412-17.031,2.468-54,2.468-54Z" transform="translate(-341.253 -223.864)" fill="#407bff"/>
          <path id="Trazado_141519" data-name="Trazado 141519" d="M341.608,223.864s-.691,37.5-.145,52.789c.567,15.907,6.123,67.992,6.123,67.992h8.5s.311-51.156.69-66.778c.412-17.031,2.468-54,2.468-54Z" transform="translate(-341.253 -223.864)" fill="#fff" opacity="0.2"/>
        </g>
        <path id="Trazado_141520" data-name="Trazado 141520" d="M359.033,396.361c.039,0,0,2.776,0,2.776H349.24l-.411-3.118Z" transform="translate(-285.901 -205.949)" fill="#263238"/>
        <path id="Trazado_141521" data-name="Trazado 141521" d="M400.949,396.649c.039,0,.457,2.567.457,2.567h-10.1l-.893-2.947Z" transform="translate(-299.023 -206.028)" fill="#263238"/>
        <path id="Trazado_141522" data-name="Trazado 141522" d="M394.078,410.077a1.522,1.522,0,0,1-.966-.255.713.713,0,0,1-.245-.628.376.376,0,0,1,.2-.336c.549-.284,2.172.709,2.355.823a.119.119,0,0,1-.035.216A5.9,5.9,0,0,1,394.078,410.077Zm-.745-1.038a.347.347,0,0,0-.154.029.146.146,0,0,0-.075.14.483.483,0,0,0,.161.431,2.412,2.412,0,0,0,1.78.09A4.794,4.794,0,0,0,393.332,409.04Z" transform="translate(-299.795 -209.984)" fill="#407bff"/>
        <path id="Trazado_141523" data-name="Trazado 141523" d="M395.831,409.358a.129.129,0,0,1-.057-.014c-.519-.282-1.522-1.381-1.415-1.941a.385.385,0,0,1,.378-.311.647.647,0,0,1,.506.152c.582.476.7,1.924.707,1.985a.117.117,0,0,1-.054.109A.114.114,0,0,1,395.831,409.358Zm-1.012-2.033a.489.489,0,0,0-.054,0c-.155.018-.168.09-.174.12-.063.331.576,1.161,1.092,1.552a2.855,2.855,0,0,0-.592-1.572A.42.42,0,0,0,394.819,407.326Z" transform="translate(-300.264 -209.441)" fill="#407bff"/>
        <path id="Trazado_141524" data-name="Trazado 141524" d="M349.926,410.078a1.9,1.9,0,0,1-1.218-.308.667.667,0,0,1-.222-.578.377.377,0,0,1,.2-.316c.609-.342,2.625.682,2.853.8a.119.119,0,0,1-.031.222A8.495,8.495,0,0,1,349.926,410.078Zm-.908-1.038a.46.46,0,0,0-.222.044.141.141,0,0,0-.075.127.434.434,0,0,0,.143.383,3.212,3.212,0,0,0,2.241.136A6.558,6.558,0,0,0,349.018,409.039Z" transform="translate(-285.791 -209.984)" fill="#407bff"/>
        <path id="Trazado_141525" data-name="Trazado 141525" d="M352.046,409.358a.121.121,0,0,1-.049-.01c-.605-.272-1.8-1.355-1.713-1.923.021-.133.116-.3.442-.331a.852.852,0,0,1,.658.2,3.387,3.387,0,0,1,.779,1.932.122.122,0,0,1-.049.108A.12.12,0,0,1,352.046,409.358Zm-1.223-2.033c-.023,0-.048,0-.072,0-.214.023-.227.106-.232.133-.055.341.76,1.192,1.378,1.564a2.786,2.786,0,0,0-.662-1.546A.628.628,0,0,0,350.823,407.325Z" transform="translate(-286.359 -209.441)" fill="#407bff"/>
      </g>
    </g>
  </g>
</svg>
