<svg xmlns="http://www.w3.org/2000/svg" width="168" height="167" viewBox="0 0 168 167">
  <g id="Grupo_99464" data-name="Grupo 99464" transform="translate(-616.919 -1402)">
    <g id="Rectángulo_32953" data-name="Rectángulo 32953" transform="translate(616.919 1519)" fill="#5cd8a0" stroke="#0a5936" stroke-width="3">
      <rect width="168" height="50" rx="12" stroke="none"/>
      <rect x="1.5" y="1.5" width="165" height="47" rx="10.5" fill="none"/>
    </g>
    <path id="Feature_One" data-name="Feature One" d="M-56.934,0V-14.219h4.58a6.737,6.737,0,0,1,3.389.854,6.006,6.006,0,0,1,2.349,2.412,7.283,7.283,0,0,1,.854,3.491v.654a7.325,7.325,0,0,1-.825,3.5A6.032,6.032,0,0,1-48.911-.884,6.589,6.589,0,0,1-52.256,0Zm3.428-11.572v8.936h1.191a2.666,2.666,0,0,0,2.266-1.05,5.145,5.145,0,0,0,.791-3.12v-.615a5.1,5.1,0,0,0-.791-3.105,2.713,2.713,0,0,0-2.3-1.045ZM-39.043.2a5.432,5.432,0,0,1-3.936-1.45,5.008,5.008,0,0,1-1.5-3.774V-5.3a6.489,6.489,0,0,1,.6-2.861,4.395,4.395,0,0,1,1.753-1.919,5.292,5.292,0,0,1,2.734-.679A4.574,4.574,0,0,1-35.879-9.38,5.43,5.43,0,0,1-34.59-5.527v1.279h-6.543a2.372,2.372,0,0,0,.771,1.4,2.3,2.3,0,0,0,1.543.508,2.958,2.958,0,0,0,2.441-1.094l1.5,1.777A4.2,4.2,0,0,1-36.616-.308,5.891,5.891,0,0,1-39.043.2Zm-.371-8.418q-1.445,0-1.719,1.914h3.32v-.254a1.63,1.63,0,0,0-.4-1.226A1.593,1.593,0,0,0-39.414-8.223Zm9.258-2.344.107,1.24a3.633,3.633,0,0,1,3.018-1.436A2.675,2.675,0,0,1-24.326-9.17a3.517,3.517,0,0,1,3.105-1.592q3.213,0,3.3,3.887V0h-3.3V-6.67a2.014,2.014,0,0,0-.273-1.182,1.164,1.164,0,0,0-1-.371,1.559,1.559,0,0,0-1.455.869l.01.137V0h-3.3V-6.65a2.117,2.117,0,0,0-.264-1.2,1.161,1.161,0,0,0-1.006-.371,1.578,1.578,0,0,0-1.445.869V0h-3.291V-10.566Zm13.7,5.186A6.236,6.236,0,0,1-15.84-8.2a4.4,4.4,0,0,1,1.768-1.9,5.323,5.323,0,0,1,2.705-.664,4.858,4.858,0,0,1,3.74,1.47,5.64,5.64,0,0,1,1.367,4v.117A5.472,5.472,0,0,1-7.632-1.255,4.871,4.871,0,0,1-11.348.2a4.927,4.927,0,0,1-3.623-1.353,5.29,5.29,0,0,1-1.475-3.667Zm3.291.205a3.932,3.932,0,0,0,.459,2.148,1.529,1.529,0,0,0,1.357.684q1.758,0,1.8-2.705v-.332q0-2.842-1.816-2.842-1.65,0-1.787,2.451ZM-5.2-5.361a7.134,7.134,0,0,1,.527-2.832,4.245,4.245,0,0,1,1.514-1.9,3.99,3.99,0,0,1,2.295-.669A3.173,3.173,0,0,1,1.719-9.648l.117-.918H4.824V-.4a4.455,4.455,0,0,1-.649,2.427,4.167,4.167,0,0,1-1.88,1.582A6.91,6.91,0,0,1-.557,4.16a5.961,5.961,0,0,1-2.251-.439A4.063,4.063,0,0,1-4.473,2.578L-3.1.645A3.018,3.018,0,0,0-.674,1.729,1.96,1.96,0,0,0,1.514-.518V-.85A3.09,3.09,0,0,1-.879.2,3.819,3.819,0,0,1-4-1.284,6.13,6.13,0,0,1-5.2-5.244Zm3.3.205A3.759,3.759,0,0,0-1.406-3.1a1.541,1.541,0,0,0,1.367.757,1.748,1.748,0,0,0,1.553-.713V-7.5A1.7,1.7,0,0,0-.02-8.223,1.551,1.551,0,0,0-1.4-7.437,4.287,4.287,0,0,0-1.895-5.156Zm14.98-2.432L12-7.666a1.947,1.947,0,0,0-1.992.977V0H6.719V-10.566H9.8l.107,1.357a2.548,2.548,0,0,1,2.314-1.553,3.209,3.209,0,0,1,.918.117ZM19.932,0a3.716,3.716,0,0,1-.312-.947A3.06,3.06,0,0,1,17.08.2a3.749,3.749,0,0,1-2.539-.9A2.875,2.875,0,0,1,13.5-2.979a2.955,2.955,0,0,1,1.27-2.6,6.468,6.468,0,0,1,3.691-.879h1.016v-.557q0-1.455-1.26-1.455a1.027,1.027,0,0,0-1.172,1.152H13.75a2.955,2.955,0,0,1,1.3-2.49,5.474,5.474,0,0,1,3.325-.957,4.8,4.8,0,0,1,3.193.986,3.429,3.429,0,0,1,1.2,2.705v4.678a4.79,4.79,0,0,0,.449,2.227V0ZM17.871-2.148a1.836,1.836,0,0,0,1.021-.264,1.653,1.653,0,0,0,.581-.6V-4.7h-.957Q16.8-4.7,16.8-3.154a.942.942,0,0,0,.3.728A1.1,1.1,0,0,0,17.871-2.148ZM18.691-15h3.477l-2.715,3.066H16.768Zm6.67,15V-8.281H23.828v-2.285h1.533v-.352a4.034,4.034,0,0,1,1.387-3.232,5.541,5.541,0,0,1,3.6-1.055,12.787,12.787,0,0,1,3.438.566l-.449,2.6-.547-.146a8.7,8.7,0,0,0-2.246-.283q-1.885,0-1.885,1.719v.186h2.07v2.285h-2.07V0ZM35.3,0H31.992V-10.566H35.3Zm6.475-2.344a1.464,1.464,0,0,0,1.074-.376,1.379,1.379,0,0,0,.371-1.05h3.086A3.653,3.653,0,0,1,45.063-.918,4.631,4.631,0,0,1,41.855.2,4.689,4.689,0,0,1,38.223-1.25a5.7,5.7,0,0,1-1.328-4v-.137a6.436,6.436,0,0,1,.591-2.827,4.3,4.3,0,0,1,1.7-1.885,5.081,5.081,0,0,1,2.637-.659A4.573,4.573,0,0,1,45.1-9.619a4.053,4.053,0,0,1,1.211,3.1H43.223a1.807,1.807,0,0,0-.4-1.26,1.382,1.382,0,0,0-1.074-.439q-1.279,0-1.494,1.631a11.507,11.507,0,0,0-.068,1.426,4.52,4.52,0,0,0,.381,2.207A1.319,1.319,0,0,0,41.777-2.344Zm5.508-3.037A6.236,6.236,0,0,1,47.9-8.2a4.4,4.4,0,0,1,1.768-1.9,5.323,5.323,0,0,1,2.705-.664,4.858,4.858,0,0,1,3.74,1.47,5.64,5.64,0,0,1,1.367,4v.117a5.472,5.472,0,0,1-1.372,3.921A4.871,4.871,0,0,1,52.393.2,4.927,4.927,0,0,1,48.77-1.157a5.29,5.29,0,0,1-1.475-3.667Zm3.291.205a3.932,3.932,0,0,0,.459,2.148,1.529,1.529,0,0,0,1.357.684q1.758,0,1.8-2.705v-.332q0-2.842-1.816-2.842-1.65,0-1.787,2.451Z" transform="translate(700.919 1552)" fill="#12263f"/>
    <g id="Grupo_97120" data-name="Grupo 97120" transform="translate(-19 -28)">
      <g id="Elipse_4454" data-name="Elipse 4454" transform="translate(655.919 1430)" fill="#fff" stroke="#0a5936" stroke-width="3">
        <ellipse cx="64" cy="64.5" rx="64" ry="64.5" stroke="none"/>
        <ellipse cx="64" cy="64.5" rx="62.5" ry="63" fill="none"/>
      </g>
      <g id="poblacion" transform="translate(667.208 1452.292)">
        <path id="Trazado_140936" data-name="Trazado 140936" d="M188.895,101.461v15.22h0q.7-.123,1.418-.217l.21-.027c.422-.054.844-.1,1.271-.141.2-.018.4-.031.595-.045.322-.023.642-.05.967-.065.548-.026,1.1-.042,1.656-.042s1.107.016,1.657.042c.324.015.645.042.967.065.2.015.4.027.595.045.426.038.849.087,1.27.141l.21.027c.476.062.948.136,1.418.217h0v-15.22h4.895V92.895A4.9,4.9,0,0,0,201.132,88H188.895A4.9,4.9,0,0,0,184,92.895v8.566Z" transform="translate(-142.302 -74.539)" fill="#f1d54e"/>
        <path id="Trazado_140937" data-name="Trazado 140937" d="M124.053,301.369a2.447,2.447,0,1,1,0-4.895H126.5a2.447,2.447,0,0,0,0-4.895H114.264a2.447,2.447,0,1,1,0-4.895h2.447a2.447,2.447,0,0,0,0-4.895h-6.118a2.447,2.447,0,1,1,0-4.895h14.167l-1.93-1.127a35.241,35.241,0,0,0-9.791-3.231q-.7-.123-1.418-.217l-.21-.027c-.422-.054-.844-.1-1.27-.141-.2-.018-.4-.031-.595-.045-.322-.023-.642-.05-.967-.065-.549-.027-1.1-.043-1.657-.043s-1.107.016-1.657.042c-.324.015-.645.042-.967.065-.2.015-.4.027-.595.045-.426.038-.849.087-1.271.141l-.21.027c-.476.062-.948.136-1.418.217a35.242,35.242,0,0,0-9.791,3.231l-3.434,2.006a35.641,35.641,0,0,0-6.342,5.24l11.071,0a2.376,2.376,0,0,1,2.376,2.376v.061a2.448,2.448,0,0,1-2.446,2.46H89.786a2.448,2.448,0,0,0,0,4.9h12.237a2.447,2.447,0,0,1,.006,4.895H82.44a2.447,2.447,0,0,0,.007,4.895h3.671a2.447,2.447,0,1,1,0,4.895h56.29a35.743,35.743,0,0,0-.536-6.118Zm-11.013,1.224h-2.447a2.447,2.447,0,0,1,0-4.895h2.447a2.447,2.447,0,0,1,0,4.895Z" transform="translate(-54.21 -230.394)" fill="#17c878"/>
        <g id="Grupo_97117" data-name="Grupo 97117" transform="translate(17.224 46.501)">
          <path id="Trazado_140938" data-name="Trazado 140938" d="M266.447,304a2.447,2.447,0,0,0,0,4.895h6.118a2.447,2.447,0,0,1,0,4.895h-2.447a2.447,2.447,0,0,0,0,4.895h12.237a2.447,2.447,0,0,1,0,4.895h-2.447a2.447,2.447,0,0,0,0,4.895h17.819A35.483,35.483,0,0,0,282.5,305.1l-1.889-1.1Z" transform="translate(-227.289 -304)" fill="#b3ddff"/>
          <path id="Trazado_140939" data-name="Trazado 140939" d="M41.132,366.013a2.447,2.447,0,0,0-2.447-2.447H35.013a2.447,2.447,0,0,1-.007-4.895H54.6a2.447,2.447,0,0,0-.006-4.895H42.355a2.447,2.447,0,0,1,0-4.895H44.8a2.448,2.448,0,0,0,2.446-2.46v-.061a2.376,2.376,0,0,0-2.376-2.376l-11.071,0A35.356,35.356,0,0,0,24,368.46H38.684A2.447,2.447,0,0,0,41.132,366.013Z" transform="translate(-24 -337.868)" fill="#b3ddff"/>
          <path id="Trazado_140940" data-name="Trazado 140940" d="M268.895,440h-2.447a2.447,2.447,0,0,0,0,4.895h2.447a2.447,2.447,0,0,0,0-4.895Z" transform="translate(-227.289 -419.197)" fill="#b3ddff"/>
        </g>
        <ellipse id="Elipse_4451" data-name="Elipse 4451" cx="6.5" cy="6" rx="6.5" ry="6" transform="translate(46 1.594)" fill="#f1d54e"/>
        <g id="Grupo_97118" data-name="Grupo 97118" transform="translate(19.671 7.073)">
          <circle id="Elipse_4452" data-name="Elipse 4452" cx="6.5" cy="6.5" r="6.5" transform="translate(48.329 -0.479)" fill="#d2f6e6"/>
          <circle id="Elipse_4453" data-name="Elipse 4453" cx="6.5" cy="6.5" r="6.5" transform="translate(4.329 -0.479)" fill="#d2f6e6"/>
          <path id="Trazado_140941" data-name="Trazado 140941" d="M57.132,141.461h4.895v-8.566A4.9,4.9,0,0,0,57.132,128H44.895A4.9,4.9,0,0,0,40,132.895v8.566h4.895v22.027l6.118-6.118L53.7,155.8l3.434-2.006Z" transform="translate(-40 -115.494)" fill="#d2f6e6"/>
          <path id="Trazado_140942" data-name="Trazado 140942" d="M328,141.461h4.895v12.334l1.93,1.127,1.889,1.1,2.3,1.344,6.118,6.118V141.461h4.895v-8.566A4.9,4.9,0,0,0,345.132,128H332.895A4.9,4.9,0,0,0,328,132.895v8.566Z" transform="translate(-283.947 -115.494)" fill="#d2f6e6"/>
        </g>
        <g id="Grupo_97119" data-name="Grupo 97119" transform="translate(16)">
          <path id="Trazado_140943" data-name="Trazado 140943" d="M262.118,432h-2.447a3.671,3.671,0,1,0,0,7.342h2.447a3.671,3.671,0,0,0,0-7.342Zm0,4.895h-2.447a1.224,1.224,0,0,1,0-2.447h2.447a1.224,1.224,0,0,1,0,2.447Z" transform="translate(-219.289 -365.92)" fill="#0a5936"/>
          <path id="Trazado_140944" data-name="Trazado 140944" d="M82.08,55.066v-20.8h3.671a1.223,1.223,0,0,0,1.224-1.224V24.474a6.125,6.125,0,0,0-6.118-6.118H80.2a7.342,7.342,0,1,0-10.915,0h-.661a6.055,6.055,0,0,0-3.671,1.256V18.355a6.125,6.125,0,0,0-6.118-6.118h-.661a7.342,7.342,0,1,0-10.915,0h-.661a6.125,6.125,0,0,0-6.118,6.118v1.256A6.055,6.055,0,0,0,36.8,18.355h-.661a7.342,7.342,0,1,0-10.915,0h-.661a6.125,6.125,0,0,0-6.118,6.118V33.04a1.223,1.223,0,0,0,1.224,1.224h3.671v20.8h.02A36.522,36.522,0,0,0,16,77.093a1.223,1.223,0,0,0,1.224,1.224H88.2a1.223,1.223,0,0,0,1.224-1.224A36.522,36.522,0,0,0,82.06,55.066ZM69.843,13.461a4.895,4.895,0,1,1,4.895,4.895A4.9,4.9,0,0,1,69.843,13.461ZM68.619,20.8H80.856a3.676,3.676,0,0,1,3.671,3.671v7.342H82.08V24.474H79.632V52.169a37.2,37.2,0,0,0-3.671-3.463V34.264H73.514v12.6q-1.189-.822-2.447-1.547v-.044h-.077c-.379-.219-.76-.433-1.147-.639V24.474H67.4v7.342H64.948V24.474A3.676,3.676,0,0,1,68.619,20.8ZM72.29,59.961H60.053a1.224,1.224,0,0,1,0-2.447H62.5a3.671,3.671,0,0,0,0-7.342H56.382a1.224,1.224,0,0,1,0-2.447H70.335A34.366,34.366,0,0,1,86.173,69.751H69.843a1.224,1.224,0,0,1,0-2.447H72.29a3.671,3.671,0,1,0,0-7.342ZM60.053,28.145H62.5V33.04a1.223,1.223,0,0,0,1.224,1.224H67.4v9.192a36.393,36.393,0,0,0-7.342-2.336ZM47.816,7.342a4.895,4.895,0,1,1,4.895,4.895A4.9,4.9,0,0,1,47.816,7.342ZM42.921,18.355a3.676,3.676,0,0,1,3.671-3.671H58.829A3.676,3.676,0,0,1,62.5,18.355V25.7H60.053V18.355H57.606V40.715c-.033,0-.067-.006-.1-.01q-1.057-.14-2.134-.217c-.116-.009-.233-.02-.349-.027-.361-.022-.723-.037-1.088-.049V28.145H51.487V40.413c-.363.012-.727.027-1.088.049-.116.007-.232.018-.349.027q-1.076.077-2.134.217c-.033,0-.067.006-.1.01V18.355H45.369V25.7H42.921V18.355Zm-4.895,25.1V34.264H41.7a1.223,1.223,0,0,0,1.224-1.224V28.145h2.447V41.121A36.389,36.389,0,0,0,38.027,43.456Zm-12.237-30a4.895,4.895,0,1,1,4.895,4.895A4.9,4.9,0,0,1,25.79,13.461ZM23.342,24.474v7.342H20.895V24.474A3.676,3.676,0,0,1,24.566,20.8H36.8a3.676,3.676,0,0,1,3.671,3.671v7.342H38.027V24.474H35.579V44.638a36.6,36.6,0,0,0-3.671,2.23v-12.6H29.461V48.707A36.911,36.911,0,0,0,25.79,52.17v-27.7Zm-4.873,51.4a34.134,34.134,0,0,1,9.1-22.027l10.525,0a1.168,1.168,0,0,1,1.153,1.214,1.236,1.236,0,0,1-.36.879,1.207,1.207,0,0,1-.861.357H35.577a3.671,3.671,0,0,0,0,7.342H47.816a1.224,1.224,0,0,1,.006,2.447H28.23a3.671,3.671,0,0,0,.007,7.342h3.671a1.224,1.224,0,0,1,0,2.447Zm16.885,0a3.63,3.63,0,0,0,.225-1.224,3.676,3.676,0,0,0-3.671-3.671H28.237a1.224,1.224,0,0,1-.007-2.447H47.822a3.671,3.671,0,0,0-.006-7.342H35.579a1.224,1.224,0,0,1,0-2.447H38.03a3.634,3.634,0,0,0,2.6-1.078A3.709,3.709,0,0,0,41.7,54.992a3.6,3.6,0,0,0-3.6-3.6H30.073a34.16,34.16,0,0,1,16.77-8.052q1.441-.248,2.872-.376l.138-.01a33.785,33.785,0,0,1,5.717,0l.138.01q1.432.127,2.872.376a34.025,34.025,0,0,1,6.831,1.933H56.382a3.671,3.671,0,1,0,0,7.342H62.5a1.224,1.224,0,1,1,0,2.447H60.053a3.671,3.671,0,0,0,0,7.342H72.29a1.224,1.224,0,1,1,0,2.447H69.843a3.671,3.671,0,0,0,0,7.342H86.62a34.209,34.209,0,0,1,.333,3.671h-51.6Z" transform="translate(-16)" fill="#0a5936"/>
        </g>
      </g>
    </g>
  </g>
</svg>
