<svg xmlns="http://www.w3.org/2000/svg" width="168" height="167" viewBox="0 0 168 167">
  <g id="Grupo_97146" data-name="Grupo 97146" transform="translate(-635.919 -2070)">
    <g id="Rectángulo_32953" data-name="Rectángulo 32953" transform="translate(635.919 2187)" fill="#5cd8a0" stroke="#0a5936" stroke-width="3">
      <rect width="168" height="50" rx="12" stroke="none"/>
      <rect x="1.5" y="1.5" width="165" height="47" rx="10.5" fill="none"/>
    </g>
    <text id="Feature_One" data-name="Feature One" transform="translate(719.919 2220)" fill="#12263f" font-size="20" font-family="Roboto-Black, Roboto" font-weight="800"><tspan x="-58.008" y="0">Demográfico</tspan></text>
    <g id="Grupo_97120" data-name="Grupo 97120" transform="translate(0 640)">
      <g id="Elipse_4454" data-name="Elipse 4454" transform="translate(655.919 1430)" fill="#fff" stroke="#0a5936" stroke-width="3">
        <ellipse cx="64" cy="64.5" rx="64" ry="64.5" stroke="none"/>
        <ellipse cx="64" cy="64.5" rx="62.5" ry="63" fill="none"/>
      </g>
      <g id="poblacion" transform="translate(667.208 1452.292)">
        <path id="Trazado_140936" data-name="Trazado 140936" d="M188.895,101.461v15.22h0q.7-.123,1.418-.217l.21-.027c.422-.054.844-.1,1.271-.141.2-.018.4-.031.595-.045.322-.023.642-.05.967-.065.548-.026,1.1-.042,1.656-.042s1.107.016,1.657.042c.324.015.645.042.967.065.2.015.4.027.595.045.426.038.849.087,1.27.141l.21.027c.476.062.948.136,1.418.217h0v-15.22h4.895V92.895A4.9,4.9,0,0,0,201.132,88H188.895A4.9,4.9,0,0,0,184,92.895v8.566Z" transform="translate(-142.302 -74.539)" fill="#f1d54e"/>
        <path id="Trazado_140937" data-name="Trazado 140937" d="M124.053,301.369a2.447,2.447,0,1,1,0-4.895H126.5a2.447,2.447,0,0,0,0-4.895H114.264a2.447,2.447,0,1,1,0-4.895h2.447a2.447,2.447,0,0,0,0-4.895h-6.118a2.447,2.447,0,1,1,0-4.895h14.167l-1.93-1.127a35.241,35.241,0,0,0-9.791-3.231q-.7-.123-1.418-.217l-.21-.027c-.422-.054-.844-.1-1.27-.141-.2-.018-.4-.031-.595-.045-.322-.023-.642-.05-.967-.065-.549-.027-1.1-.043-1.657-.043s-1.107.016-1.657.042c-.324.015-.645.042-.967.065-.2.015-.4.027-.595.045-.426.038-.849.087-1.271.141l-.21.027c-.476.062-.948.136-1.418.217a35.242,35.242,0,0,0-9.791,3.231l-3.434,2.006a35.641,35.641,0,0,0-6.342,5.24l11.071,0a2.376,2.376,0,0,1,2.376,2.376v.061a2.448,2.448,0,0,1-2.446,2.46H89.786a2.448,2.448,0,0,0,0,4.9h12.237a2.447,2.447,0,0,1,.006,4.895H82.44a2.447,2.447,0,0,0,.007,4.895h3.671a2.447,2.447,0,1,1,0,4.895h56.29a35.743,35.743,0,0,0-.536-6.118Zm-11.013,1.224h-2.447a2.447,2.447,0,0,1,0-4.895h2.447a2.447,2.447,0,0,1,0,4.895Z" transform="translate(-54.21 -230.394)" fill="#17c878"/>
        <g id="Grupo_97117" data-name="Grupo 97117" transform="translate(17.224 46.501)">
          <path id="Trazado_140938" data-name="Trazado 140938" d="M266.447,304a2.447,2.447,0,0,0,0,4.895h6.118a2.447,2.447,0,0,1,0,4.895h-2.447a2.447,2.447,0,0,0,0,4.895h12.237a2.447,2.447,0,0,1,0,4.895h-2.447a2.447,2.447,0,0,0,0,4.895h17.819A35.483,35.483,0,0,0,282.5,305.1l-1.889-1.1Z" transform="translate(-227.289 -304)" fill="#b3ddff"/>
          <path id="Trazado_140939" data-name="Trazado 140939" d="M41.132,366.013a2.447,2.447,0,0,0-2.447-2.447H35.013a2.447,2.447,0,0,1-.007-4.895H54.6a2.447,2.447,0,0,0-.006-4.895H42.355a2.447,2.447,0,0,1,0-4.895H44.8a2.448,2.448,0,0,0,2.446-2.46v-.061a2.376,2.376,0,0,0-2.376-2.376l-11.071,0A35.356,35.356,0,0,0,24,368.46H38.684A2.447,2.447,0,0,0,41.132,366.013Z" transform="translate(-24 -337.868)" fill="#b3ddff"/>
          <path id="Trazado_140940" data-name="Trazado 140940" d="M268.895,440h-2.447a2.447,2.447,0,0,0,0,4.895h2.447a2.447,2.447,0,0,0,0-4.895Z" transform="translate(-227.289 -419.197)" fill="#b3ddff"/>
        </g>
        <ellipse id="Elipse_4451" data-name="Elipse 4451" cx="6.5" cy="6" rx="6.5" ry="6" transform="translate(46 1.594)" fill="#f1d54e"/>
        <g id="Grupo_97118" data-name="Grupo 97118" transform="translate(19.671 7.073)">
          <circle id="Elipse_4452" data-name="Elipse 4452" cx="6.5" cy="6.5" r="6.5" transform="translate(48.329 -0.479)" fill="#d2f6e6"/>
          <circle id="Elipse_4453" data-name="Elipse 4453" cx="6.5" cy="6.5" r="6.5" transform="translate(4.329 -0.479)" fill="#d2f6e6"/>
          <path id="Trazado_140941" data-name="Trazado 140941" d="M57.132,141.461h4.895v-8.566A4.9,4.9,0,0,0,57.132,128H44.895A4.9,4.9,0,0,0,40,132.895v8.566h4.895v22.027l6.118-6.118L53.7,155.8l3.434-2.006Z" transform="translate(-40 -115.494)" fill="#d2f6e6"/>
          <path id="Trazado_140942" data-name="Trazado 140942" d="M328,141.461h4.895v12.334l1.93,1.127,1.889,1.1,2.3,1.344,6.118,6.118V141.461h4.895v-8.566A4.9,4.9,0,0,0,345.132,128H332.895A4.9,4.9,0,0,0,328,132.895v8.566Z" transform="translate(-283.947 -115.494)" fill="#d2f6e6"/>
        </g>
        <g id="Grupo_97119" data-name="Grupo 97119" transform="translate(16)">
          <path id="Trazado_140943" data-name="Trazado 140943" d="M262.118,432h-2.447a3.671,3.671,0,1,0,0,7.342h2.447a3.671,3.671,0,0,0,0-7.342Zm0,4.895h-2.447a1.224,1.224,0,0,1,0-2.447h2.447a1.224,1.224,0,0,1,0,2.447Z" transform="translate(-219.289 -365.92)" fill="#0a5936"/>
          <path id="Trazado_140944" data-name="Trazado 140944" d="M82.08,55.066v-20.8h3.671a1.223,1.223,0,0,0,1.224-1.224V24.474a6.125,6.125,0,0,0-6.118-6.118H80.2a7.342,7.342,0,1,0-10.915,0h-.661a6.055,6.055,0,0,0-3.671,1.256V18.355a6.125,6.125,0,0,0-6.118-6.118h-.661a7.342,7.342,0,1,0-10.915,0h-.661a6.125,6.125,0,0,0-6.118,6.118v1.256A6.055,6.055,0,0,0,36.8,18.355h-.661a7.342,7.342,0,1,0-10.915,0h-.661a6.125,6.125,0,0,0-6.118,6.118V33.04a1.223,1.223,0,0,0,1.224,1.224h3.671v20.8h.02A36.522,36.522,0,0,0,16,77.093a1.223,1.223,0,0,0,1.224,1.224H88.2a1.223,1.223,0,0,0,1.224-1.224A36.522,36.522,0,0,0,82.06,55.066ZM69.843,13.461a4.895,4.895,0,1,1,4.895,4.895A4.9,4.9,0,0,1,69.843,13.461ZM68.619,20.8H80.856a3.676,3.676,0,0,1,3.671,3.671v7.342H82.08V24.474H79.632V52.169a37.2,37.2,0,0,0-3.671-3.463V34.264H73.514v12.6q-1.189-.822-2.447-1.547v-.044h-.077c-.379-.219-.76-.433-1.147-.639V24.474H67.4v7.342H64.948V24.474A3.676,3.676,0,0,1,68.619,20.8ZM72.29,59.961H60.053a1.224,1.224,0,0,1,0-2.447H62.5a3.671,3.671,0,0,0,0-7.342H56.382a1.224,1.224,0,0,1,0-2.447H70.335A34.366,34.366,0,0,1,86.173,69.751H69.843a1.224,1.224,0,0,1,0-2.447H72.29a3.671,3.671,0,1,0,0-7.342ZM60.053,28.145H62.5V33.04a1.223,1.223,0,0,0,1.224,1.224H67.4v9.192a36.393,36.393,0,0,0-7.342-2.336ZM47.816,7.342a4.895,4.895,0,1,1,4.895,4.895A4.9,4.9,0,0,1,47.816,7.342ZM42.921,18.355a3.676,3.676,0,0,1,3.671-3.671H58.829A3.676,3.676,0,0,1,62.5,18.355V25.7H60.053V18.355H57.606V40.715c-.033,0-.067-.006-.1-.01q-1.057-.14-2.134-.217c-.116-.009-.233-.02-.349-.027-.361-.022-.723-.037-1.088-.049V28.145H51.487V40.413c-.363.012-.727.027-1.088.049-.116.007-.232.018-.349.027q-1.076.077-2.134.217c-.033,0-.067.006-.1.01V18.355H45.369V25.7H42.921V18.355Zm-4.895,25.1V34.264H41.7a1.223,1.223,0,0,0,1.224-1.224V28.145h2.447V41.121A36.389,36.389,0,0,0,38.027,43.456Zm-12.237-30a4.895,4.895,0,1,1,4.895,4.895A4.9,4.9,0,0,1,25.79,13.461ZM23.342,24.474v7.342H20.895V24.474A3.676,3.676,0,0,1,24.566,20.8H36.8a3.676,3.676,0,0,1,3.671,3.671v7.342H38.027V24.474H35.579V44.638a36.6,36.6,0,0,0-3.671,2.23v-12.6H29.461V48.707A36.911,36.911,0,0,0,25.79,52.17v-27.7Zm-4.873,51.4a34.134,34.134,0,0,1,9.1-22.027l10.525,0a1.168,1.168,0,0,1,1.153,1.214,1.236,1.236,0,0,1-.36.879,1.207,1.207,0,0,1-.861.357H35.577a3.671,3.671,0,0,0,0,7.342H47.816a1.224,1.224,0,0,1,.006,2.447H28.23a3.671,3.671,0,0,0,.007,7.342h3.671a1.224,1.224,0,0,1,0,2.447Zm16.885,0a3.63,3.63,0,0,0,.225-1.224,3.676,3.676,0,0,0-3.671-3.671H28.237a1.224,1.224,0,0,1-.007-2.447H47.822a3.671,3.671,0,0,0-.006-7.342H35.579a1.224,1.224,0,0,1,0-2.447H38.03a3.634,3.634,0,0,0,2.6-1.078A3.709,3.709,0,0,0,41.7,54.992a3.6,3.6,0,0,0-3.6-3.6H30.073a34.16,34.16,0,0,1,16.77-8.052q1.441-.248,2.872-.376l.138-.01a33.785,33.785,0,0,1,5.717,0l.138.01q1.432.127,2.872.376a34.025,34.025,0,0,1,6.831,1.933H56.382a3.671,3.671,0,1,0,0,7.342H62.5a1.224,1.224,0,1,1,0,2.447H60.053a3.671,3.671,0,0,0,0,7.342H72.29a1.224,1.224,0,1,1,0,2.447H69.843a3.671,3.671,0,0,0,0,7.342H86.62a34.209,34.209,0,0,1,.333,3.671h-51.6Z" transform="translate(-16)" fill="#0a5936"/>
        </g>
      </g>
    </g>
  </g>
</svg>
