<svg xmlns="http://www.w3.org/2000/svg" width="168" height="167" viewBox="0 0 168 167">
  <g id="Grupo_97147" data-name="Grupo 97147" transform="translate(-795.919 -2154)">
    <g id="Rectángulo_32952" data-name="Rectángulo 32952" transform="translate(795.919 2271)" fill="#5cd8a0" stroke="#0a5936" stroke-width="3">
      <rect width="168" height="50" rx="12" stroke="none"/>
      <rect x="1.5" y="1.5" width="165" height="47" rx="10.5" fill="none"/>
    </g>
    <text id="Feature_One" data-name="Feature One" transform="translate(879.919 2304)" fill="#12263f" font-size="20" font-family="Roboto-Black, Roboto" font-weight="800"><tspan x="-49.746" y="0">Geográfico</tspan></text>
    <g id="Trazado_140998" data-name="Trazado 140998" transform="translate(815.919 2154)" fill="#fff">
      <path d="M 64 127.5 C 55.56334686279297 127.5 47.37974548339844 125.8350524902344 39.67650985717773 122.551399230957 C 35.97372817993164 120.973014831543 32.40221786499023 119.0193099975586 29.06119918823242 116.7445297241211 C 25.75130844116211 114.4909439086914 22.63874626159668 111.9027481079102 19.80994606018066 109.0518569946289 C 16.9809627532959 106.2007598876953 14.41258144378662 103.0635452270508 12.17614555358887 99.72734832763672 C 9.918381690979004 96.35929107666016 7.979236125946045 92.75879669189453 6.412563800811768 89.02583312988281 C 3.152818202972412 81.25872802734375 1.5 73.00705718994141 1.5 64.5 C 1.5 55.99294662475586 3.152818202972412 47.74127197265625 6.412563800811768 39.97416305541992 C 7.979236125946045 36.2411994934082 9.918381690979004 32.64070892333984 12.17614555358887 29.27265548706055 C 14.41258144378662 25.93645477294922 16.9809627532959 22.79923629760742 19.80994606018066 19.94814491271973 C 22.63874626159668 17.09725379943848 25.75130844116211 14.50905418395996 29.06119918823242 12.25547313690186 C 32.40221786499023 9.980690956115723 35.97372817993164 8.026981353759766 39.67650985717773 6.448599815368652 C 47.37974548339844 3.164945363998413 55.56334686279297 1.5 64 1.5 C 72.43665313720703 1.5 80.62025451660156 3.164945363998413 88.32349395751953 6.448599815368652 C 92.02627563476562 8.026981353759766 95.5977783203125 9.980690956115723 98.93879699707031 12.25547313690186 C 102.2486877441406 14.50905418395996 105.3612518310547 17.09725379943848 108.190055847168 19.94814491271973 C 111.0190353393555 22.79923629760742 113.5874176025391 25.93645477294922 115.8238525390625 29.27265548706055 C 118.0816192626953 32.64070892333984 120.0207672119141 36.2411994934082 121.5874328613281 39.97416305541992 C 124.8471832275391 47.74127197265625 126.5 55.99294662475586 126.5 64.5 C 126.5 73.00705718994141 124.8471832275391 81.25872802734375 121.5874328613281 89.02583312988281 C 120.0207672119141 92.75879669189453 118.0816192626953 96.35929107666016 115.8238525390625 99.72734832763672 C 113.5874176025391 103.0635452270508 111.0190353393555 106.2007598876953 108.190055847168 109.0518569946289 C 105.3612518310547 111.9027481079102 102.2486877441406 114.4909439086914 98.93879699707031 116.7445297241211 C 95.5977783203125 119.0193099975586 92.02627563476562 120.973014831543 88.32349395751953 122.551399230957 C 80.62025451660156 125.8350524902344 72.43665313720703 127.5 64 127.5 Z" stroke="none"/>
      <path d="M 64 3 C 55.76663970947266 3 47.78092193603516 4.624519348144531 40.26470184326172 7.828460693359375 C 36.65138244628906 9.368698120117188 33.16602325439453 11.27532196044922 29.90538024902344 13.49537658691406 C 26.67453765869141 15.69513702392578 23.63617706298828 18.22164154052734 20.87471771240234 21.00466156005859 C 18.11287689208984 23.78810119628906 15.60546112060547 26.85086059570312 13.42209625244141 30.10787963867188 C 11.21804046630859 33.39582061767578 9.325042724609375 36.91062164306641 7.795700073242188 40.55464172363281 C 4.613502502441406 48.136962890625 3 56.19333648681641 3 64.5 C 3 72.80665588378906 4.613502502441406 80.863037109375 7.795700073242188 88.44535827636719 C 9.325042724609375 92.08937835693359 11.21804046630859 95.60417938232422 13.42209625244141 98.89212036132812 C 15.60546112060547 102.1491394042969 18.11287689208984 105.2118988037109 20.87471771240234 107.9953384399414 C 23.63617706298828 110.7783584594727 26.67453765869141 113.3048629760742 29.90538024902344 115.5046234130859 C 33.16602325439453 117.7246780395508 36.65138244628906 119.6313018798828 40.26470184326172 121.1715393066406 C 47.78092193603516 124.3754806518555 55.76663970947266 126 64 126 C 72.23336029052734 126 80.21908569335938 124.3754806518555 87.73529815673828 121.1715393066406 C 91.34861755371094 119.6313018798828 94.833984375 117.7246780395508 98.09461975097656 115.5046234130859 C 101.3254623413086 113.3048629760742 104.3638153076172 110.7783584594727 107.1252822875977 107.9953384399414 C 109.8871154785156 105.2118988037109 112.3945388793945 102.1491394042969 114.5778961181641 98.89212036132812 C 116.7819595336914 95.60417938232422 118.6749572753906 92.08937835693359 120.2042999267578 88.44535827636719 C 123.3864974975586 80.863037109375 125 72.80665588378906 125 64.5 C 125 56.19333648681641 123.3864974975586 48.136962890625 120.2042999267578 40.55464172363281 C 118.6749572753906 36.91062164306641 116.7819595336914 33.39582061767578 114.5778961181641 30.10787963867188 C 112.3945388793945 26.85086059570312 109.8871154785156 23.78810119628906 107.1252822875977 21.00466156005859 C 104.3638153076172 18.22164154052734 101.3254623413086 15.69513702392578 98.09461975097656 13.49537658691406 C 94.833984375 11.27532196044922 91.34861755371094 9.368698120117188 87.73529815673828 7.828460693359375 C 80.21908569335938 4.624519348144531 72.23336029052734 3 64 3 M 64 0 C 99.34622192382812 0 128 28.87763977050781 128 64.5 C 128 100.1223602294922 99.34622192382812 129 64 129 C 28.65377807617188 129 0 100.1223602294922 0 64.5 C 0 28.87763977050781 28.65377807617188 0 64 0 Z" stroke="none" fill="#0a5936"/>
    </g>
    <g id="mapa" transform="translate(842.301 2177.833)">
      <path id="Trazado_140924" data-name="Trazado 140924" d="M80.515,352.055H7.478L18.323,325.8H69.67Z" transform="translate(-6.379 -277.927)" fill="#a8eefc"/>
      <path id="Trazado_140925" data-name="Trazado 140925" d="M407.753,325.8H403.8l10.845,26.254H418.6Z" transform="translate(-344.461 -277.927)" fill="#7ee5f2"/>
      <path id="Trazado_140926" data-name="Trazado 140926" d="M103.538,340.456l-2.411-5.836H72.577L62.493,325.8H56l-3.643,8.819H42.494l-2.411,5.836h9.861l-4.791,11.6h6.5L59.726,332.5l22.988,19.555h9.8l-13.262-11.6Z" transform="translate(-34.193 -277.927)" fill="#ea7596"/>
      <path id="Trazado_140927" data-name="Trazado 140927" d="M431,391.653h3.956l-2.411-5.836h-3.956Z" transform="translate(-365.61 -329.124)" fill="#ffbb24"/>
      <g id="Grupo_97116" data-name="Grupo 97116" transform="translate(8.301 47.874)">
        <path id="Trazado_140928" data-name="Trazado 140928" d="M66.352,334.62H56.491l3.643-8.819h9.861Z" transform="translate(-56.491 -325.801)" fill="#4ce166"/>
        <path id="Trazado_140929" data-name="Trazado 140929" d="M231.224,334.62h-28.55L192.59,325.8h34.991Z" transform="translate(-172.591 -325.801)" fill="#4ce166"/>
      </g>
      <path id="Trazado_140930" data-name="Trazado 140930" d="M411.4,334.62l-3.643-8.819H403.8l3.643,8.819Z" transform="translate(-344.461 -277.927)" fill="#44c868"/>
      <path id="Trazado_140931" data-name="Trazado 140931" d="M126.864,371.389l-8.078,19.555h31.066Z" transform="translate(-101.331 -316.816)" fill="#4ce166"/>
      <path id="Trazado_140932" data-name="Trazado 140932" d="M124.6,7.534a22.721,22.721,0,0,0-22.635,22.805c0,19.18,22.635,36.827,22.635,36.827s22.635-17.647,22.635-36.827A22.721,22.721,0,0,0,124.6,7.534Zm0,31.9a9.1,9.1,0,1,1,9.028-9.1A9.062,9.062,0,0,1,124.6,39.435Z" transform="translate(-86.978 -6.427)" fill="#f1d54e"/>
      <path id="Trazado_140933" data-name="Trazado 140933" d="M244.518,7.534c-.667,0-1.326.031-1.978.088A22.74,22.74,0,0,1,263.2,30.339c0,15.69-15.145,30.352-20.657,35.169,1.226,1.072,1.978,1.658,1.978,1.658s22.635-17.647,22.635-36.827A22.721,22.721,0,0,0,244.518,7.534Z" transform="translate(-206.9 -6.427)" fill="#fb9e36"/>
      <path id="Trazado_140934" data-name="Trazado 140934" d="M197.211,113.7a10.2,10.2,0,0,0,0-20.406,10.018,10.018,0,0,0-5.734,1.792,1.112,1.112,0,0,0-.282,1.54,1.094,1.094,0,0,0,1.528.284,7.841,7.841,0,0,1,4.489-1.4,7.966,7.966,0,1,1-7.039,4.307,1.111,1.111,0,0,0-.468-1.493,1.1,1.1,0,0,0-1.482.471,10.293,10.293,0,0,0-1.138,4.7A10.177,10.177,0,0,0,197.211,113.7Z" transform="translate(-159.593 -79.588)" fill="#0a5936"/>
      <path id="Trazado_140935" data-name="Trazado 140935" d="M75.151,73.7,64.306,47.449h0a1.1,1.1,0,0,0-1.014-.682H52.484A56.038,56.038,0,0,0,57.7,38.246a32.85,32.85,0,0,0,3.649-14.334,23.735,23.735,0,1,0-47.468,0,32.849,32.849,0,0,0,3.649,14.334,56.007,56.007,0,0,0,5.218,8.521H11.944a1.1,1.1,0,0,0-1.014.682L3.54,65.338a1.11,1.11,0,0,0,.592,1.447,1.093,1.093,0,0,0,1.437-.6l1.054-2.553H14.1l-3.876,9.384H2.747L3.87,70.3a1.11,1.11,0,0,0-.592-1.447,1.1,1.1,0,0,0-1.437.6L.085,73.7a1.113,1.113,0,0,0,.1,1.04,1.1,1.1,0,0,0,.914.493H74.137a1.1,1.1,0,0,0,.914-.493A1.114,1.114,0,0,0,75.151,73.7ZM16.082,23.912a21.537,21.537,0,1,1,43.072,0c0,5.017-1.73,13.034-9.734,23.251l-.023.03q-.613.782-1.276,1.581a84.54,84.54,0,0,1-10.5,10.543A84.409,84.409,0,0,1,27.143,48.808q-.68-.818-1.306-1.618l-.02-.026C17.813,36.948,16.082,28.931,16.082,23.912Zm-3.4,25.069h7.48l-2.728,6.6H9.949ZM19.1,73.021l6.868-16.626L45.516,73.021Zm29.82,0L26.242,53.727a1.095,1.095,0,0,0-1.723.42l-7.8,18.873H12.607l4.158-10.066a1.113,1.113,0,0,0-.1-1.04,1.1,1.1,0,0,0-.914-.493H7.538l1.5-3.622h9.128a1.1,1.1,0,0,0,1.014-.682l3.361-8.137h1.907q.5.624,1.013,1.248A82.9,82.9,0,0,0,36.946,61.615a1.093,1.093,0,0,0,1.345,0c.129-.1,1.875-1.471,4.36-3.815H55.094a1.107,1.107,0,0,0,0-2.214H44.915c1.524-1.543,3.189-3.343,4.863-5.357q.518-.624,1.013-1.248H62.559l2.728,6.6h-5.8a1.107,1.107,0,0,0,0,2.214H66.2l1.5,3.622H45.058a1.1,1.1,0,0,0-1.029.72,1.113,1.113,0,0,0,.309,1.223l11.04,9.655Zm9.808,0L48,63.637H68.613l3.877,9.384Z" transform="translate(0)" fill="#0a5936"/>
    </g>
  </g>
</svg>
