<svg xmlns="http://www.w3.org/2000/svg" width="168" height="167" viewBox="0 0 168 167">
  <g id="Grupo_99465" data-name="Grupo 99465" transform="translate(-616.919 -1585)">
    <g id="Rectángulo_32954" data-name="Rectángulo 32954" transform="translate(616.919 1702)" fill="#5cd8a0" stroke="#0a5936" stroke-width="3">
      <rect width="168" height="50" rx="12" stroke="none"/>
      <rect x="1.5" y="1.5" width="165" height="47" rx="10.5" fill="none"/>
    </g>
    <path id="Feature_One" data-name="Feature One" d="M-39.849-6.025h-5.391v3.389h6.367V0h-9.795V-14.219h9.814v2.646h-6.387v3h5.391Zm6.5,3.682a1.464,1.464,0,0,0,1.074-.376A1.379,1.379,0,0,0-31.9-3.77h3.086A3.653,3.653,0,0,1-30.059-.918,4.631,4.631,0,0,1-33.267.2,4.689,4.689,0,0,1-36.9-1.25a5.7,5.7,0,0,1-1.328-4v-.137a6.436,6.436,0,0,1,.591-2.827,4.3,4.3,0,0,1,1.7-1.885,5.081,5.081,0,0,1,2.637-.659,4.573,4.573,0,0,1,3.271,1.143,4.053,4.053,0,0,1,1.211,3.1H-31.9a1.807,1.807,0,0,0-.4-1.26,1.382,1.382,0,0,0-1.074-.439q-1.279,0-1.494,1.631a11.507,11.507,0,0,0-.068,1.426,4.52,4.52,0,0,0,.381,2.207A1.319,1.319,0,0,0-33.345-2.344Zm5.508-3.037A6.236,6.236,0,0,1-27.222-8.2a4.4,4.4,0,0,1,1.768-1.9,5.323,5.323,0,0,1,2.705-.664,4.858,4.858,0,0,1,3.74,1.47,5.64,5.64,0,0,1,1.367,4v.117a5.472,5.472,0,0,1-1.372,3.921A4.871,4.871,0,0,1-22.729.2a4.927,4.927,0,0,1-3.623-1.353,5.29,5.29,0,0,1-1.475-3.667Zm3.291.205a3.932,3.932,0,0,0,.459,2.148,1.529,1.529,0,0,0,1.357.684q1.758,0,1.8-2.705v-.332q0-2.842-1.816-2.842-1.65,0-1.787,2.451Zm11.377-5.391.107,1.24a3.583,3.583,0,0,1,3.018-1.436,3.015,3.015,0,0,1,2.466.986,4.7,4.7,0,0,1,.845,2.969V0h-3.3V-6.67a1.783,1.783,0,0,0-.322-1.177,1.491,1.491,0,0,0-1.172-.376,1.569,1.569,0,0,0-1.436.762V0h-3.291V-10.566Zm7.842,5.186A6.236,6.236,0,0,1-4.712-8.2a4.4,4.4,0,0,1,1.768-1.9,5.323,5.323,0,0,1,2.705-.664A4.858,4.858,0,0,1,3.5-9.292a5.64,5.64,0,0,1,1.367,4v.117A5.472,5.472,0,0,1,3.5-1.255,4.871,4.871,0,0,1-.22.2,4.927,4.927,0,0,1-3.843-1.157,5.29,5.29,0,0,1-5.317-4.824Zm3.291.205a3.932,3.932,0,0,0,.459,2.148A1.529,1.529,0,0,0-.22-2.344q1.758,0,1.8-2.705v-.332q0-2.842-1.816-2.842-1.65,0-1.787,2.451ZM.21-15H3.687L.972-11.934H-1.714Zm9.219,4.434.107,1.24a3.633,3.633,0,0,1,3.018-1.436A2.675,2.675,0,0,1,15.259-9.17a3.517,3.517,0,0,1,3.105-1.592q3.213,0,3.3,3.887V0h-3.3V-6.67a2.014,2.014,0,0,0-.273-1.182,1.164,1.164,0,0,0-1-.371,1.559,1.559,0,0,0-1.455.869l.01.137V0h-3.3V-6.65a2.117,2.117,0,0,0-.264-1.2,1.161,1.161,0,0,0-1.006-.371,1.578,1.578,0,0,0-1.445.869V0H6.343V-10.566ZM27.017,0h-3.3V-10.566h3.3Zm-3.5-13.291a1.469,1.469,0,0,1,.508-1.152,1.916,1.916,0,0,1,1.318-.449,1.916,1.916,0,0,1,1.318.449,1.469,1.469,0,0,1,.508,1.152,1.469,1.469,0,0,1-.508,1.152,1.916,1.916,0,0,1-1.318.449,1.916,1.916,0,0,1-1.318-.449A1.469,1.469,0,0,1,23.521-13.291Zm9.99,10.947a1.464,1.464,0,0,0,1.074-.376,1.379,1.379,0,0,0,.371-1.05h3.086A3.653,3.653,0,0,1,36.8-.918,4.631,4.631,0,0,1,33.589.2,4.689,4.689,0,0,1,29.956-1.25a5.7,5.7,0,0,1-1.328-4v-.137a6.436,6.436,0,0,1,.591-2.827,4.3,4.3,0,0,1,1.7-1.885,5.081,5.081,0,0,1,2.637-.659,4.573,4.573,0,0,1,3.271,1.143,4.053,4.053,0,0,1,1.211,3.1H34.956a1.807,1.807,0,0,0-.4-1.26,1.382,1.382,0,0,0-1.074-.439q-1.279,0-1.494,1.631a11.508,11.508,0,0,0-.068,1.426A4.52,4.52,0,0,0,32.3-2.959,1.319,1.319,0,0,0,33.511-2.344Zm5.508-3.037A6.236,6.236,0,0,1,39.634-8.2,4.4,4.4,0,0,1,41.4-10.1a5.323,5.323,0,0,1,2.705-.664,4.858,4.858,0,0,1,3.74,1.47,5.64,5.64,0,0,1,1.367,4v.117a5.472,5.472,0,0,1-1.372,3.921A4.871,4.871,0,0,1,44.126.2,4.927,4.927,0,0,1,40.5-1.157a5.29,5.29,0,0,1-1.475-3.667Zm3.291.205a3.932,3.932,0,0,0,.459,2.148,1.529,1.529,0,0,0,1.357.684q1.758,0,1.8-2.705v-.332q0-2.842-1.816-2.842-1.65,0-1.787,2.451Z" transform="translate(700.919 1735)" fill="#12263f"/>
    <g id="Grupo_97121" data-name="Grupo 97121" transform="translate(-19 -28)">
      <g id="Elipse_4455" data-name="Elipse 4455" transform="translate(655.919 1613)" fill="#fff" stroke="#0a5936" stroke-width="3">
        <ellipse cx="64" cy="64.5" rx="64" ry="64.5" stroke="none"/>
        <ellipse cx="64" cy="64.5" rx="62.5" ry="63" fill="none"/>
      </g>
      <g id="economico" transform="translate(668.466 1620.951)">
        <path id="Trazado_140914" data-name="Trazado 140914" d="M105.9,52.94a28.949,28.949,0,0,1-57.9,0q0-1.272.109-2.517A28.949,28.949,0,0,1,105.9,52.94Z" transform="translate(-26.965 -6.733)" fill="#9ce6ed"/>
        <path id="Trazado_140915" data-name="Trazado 140915" d="M254.207,91.964a28.928,28.928,0,0,1-13.754,24.644l-6.384-7.023V99.516h-5.035L224,91.964l5.035-3.776h6.293l3.776-5.035-2.517-6.293,7.874-6.561A28.88,28.88,0,0,1,254.207,91.964Z" transform="translate(-175.276 -45.757)" fill="#5cd8a0"/>
        <rect id="Rectángulo_32946" data-name="Rectángulo 32946" width="10.259" height="12.31" transform="translate(59.77 76.472)" fill="#f1d54e"/>
        <rect id="Rectángulo_32947" data-name="Rectángulo 32947" width="10.259" height="22.569" transform="translate(70.028 66.214)" fill="#fb9e36"/>
        <rect id="Rectángulo_32948" data-name="Rectángulo 32948" width="10.259" height="34.879" transform="translate(80.287 53.903)" fill="#d2f6e6"/>
        <path id="Trazado_140916" data-name="Trazado 140916" d="M124.654,26.358l-8.961,8.961v7.552l-7.552,5.035-5.035-5.035H96.813V37.836L90.99,34.342A28.973,28.973,0,0,1,124.654,26.358Z" transform="translate(-63.192 -6.733)" fill="#5cd8a0"/>
        <path id="Trazado_140917" data-name="Trazado 140917" d="M73.173,203.328,68.138,207.1v15A28.96,28.96,0,0,1,48,194.517q0-1.272.109-2.517h7.443l3.776,5.035H69.4Z" transform="translate(-26.965 -148.31)" fill="#5cd8a0"/>
        <path id="Trazado_140918" data-name="Trazado 140918" d="M36.586,258.517c0-1.39-2.818-2.517-6.293-2.517S24,257.127,24,258.517v31.466c0,1.39,2.818,2.517,6.293,2.517s6.293-1.127,6.293-2.517Z" transform="translate(-6.741 -202.241)" fill="#f1d54e"/>
        <ellipse id="Elipse_4447" data-name="Elipse 4447" cx="6.155" cy="2.394" rx="6.155" ry="2.394" transform="translate(17.368 53.903)" fill="#ffd873"/>
        <path id="Trazado_140919" data-name="Trazado 140919" d="M116.586,338.517c0-1.39-2.818-2.517-6.293-2.517S104,337.127,104,338.517V357.4c0,1.39,2.818,2.517,6.293,2.517s6.293-1.127,6.293-2.517Z" transform="translate(-74.155 -269.655)" fill="#ffc431"/>
        <ellipse id="Elipse_4448" data-name="Elipse 4448" cx="6.497" cy="2.736" rx="6.497" ry="2.736" transform="translate(29.678 66.214)" fill="#ffd873"/>
        <path id="Trazado_140920" data-name="Trazado 140920" d="M196.586,378.517c0-1.39-2.818-2.517-6.293-2.517S184,377.127,184,378.517V391.1c0,1.39,2.818,2.517,6.293,2.517s6.293-1.127,6.293-2.517Z" transform="translate(-141.569 -303.362)" fill="#ffc431"/>
        <ellipse id="Elipse_4449" data-name="Elipse 4449" cx="6.155" cy="2.736" rx="6.155" ry="2.736" transform="translate(42.672 72.369)" fill="#ffd873"/>
        <path id="Trazado_140921" data-name="Trazado 140921" d="M90.259,248H80.19a1.259,1.259,0,0,0-1.259,1.259v11.328h-8.81a1.259,1.259,0,0,0-1.259,1.259v8.81h-8.81a1.259,1.259,0,0,0-1.259,1.259v11.328H56.276V270.655c0-.708-.342-2.032-2.634-2.949a15.027,15.027,0,0,0-9.835,0l-.117.049v-3.393c0-.708-.342-2.032-2.634-2.949a13.657,13.657,0,0,0-4.917-.827,13.657,13.657,0,0,0-4.917.827l-.117.049v-9.687c0-.708-.342-2.032-2.634-2.949A13.657,13.657,0,0,0,23.552,248a13.657,13.657,0,0,0-4.917.827c-2.292.917-2.634,2.241-2.634,2.949v31.466c0,.708.342,2.032,2.634,2.949a13.658,13.658,0,0,0,4.917.827,13.658,13.658,0,0,0,4.917-.827,6.064,6.064,0,0,0,1.376-.746,6.064,6.064,0,0,0,1.376.746,13.658,13.658,0,0,0,4.917.827,13.658,13.658,0,0,0,4.917-.827,6.064,6.064,0,0,0,1.376-.746,6.064,6.064,0,0,0,1.376.746,15.027,15.027,0,0,0,9.835,0,6.851,6.851,0,0,0,.895-.431H90.259a1.259,1.259,0,0,0,1.259-1.259V249.259A1.259,1.259,0,0,0,90.259,248ZM18.517,273.555l.117.049a13.658,13.658,0,0,0,4.917.827,13.658,13.658,0,0,0,4.917-.827l.117-.049V276.9c-.219.39-1.96,1.306-5.035,1.306s-4.816-.917-5.035-1.306Zm0-6.293.117.049a13.658,13.658,0,0,0,4.917.827,13.658,13.658,0,0,0,4.917-.827l.117-.049v3.346c-.219.39-1.96,1.306-5.035,1.306s-4.816-.917-5.035-1.306Zm0-6.293.117.049a13.657,13.657,0,0,0,4.917.827,13.657,13.657,0,0,0,4.917-.827l.117-.049v3.346c-.219.39-1.96,1.306-5.035,1.306s-4.816-.917-5.035-1.306Zm0-6.293.117.049a13.657,13.657,0,0,0,4.917.827,13.657,13.657,0,0,0,4.917-.827l.117-.049v3.346c-.219.39-1.96,1.306-5.035,1.306s-4.816-.917-5.035-1.306Zm17.621,17.238c-3.074,0-4.816-.917-5.035-1.306v-3.346l.117.049a13.658,13.658,0,0,0,4.917.827,13.658,13.658,0,0,0,4.917-.827l.117-.049v3.346C40.954,271,39.213,271.914,36.138,271.914ZM31.1,273.555l.117.049a13.658,13.658,0,0,0,4.917.827,13.658,13.658,0,0,0,4.917-.827l.117-.049V276.9c-.219.39-1.96,1.306-5.035,1.306s-4.816-.917-5.035-1.306Zm12.586,0,.117.049a15.027,15.027,0,0,0,9.835,0l.117-.049V276.9c-.219.39-1.96,1.306-5.035,1.306s-4.816-.917-5.035-1.306Zm5.035-4.158c2.962,0,4.683.85,5,1.26-.327.412-2.05,1.257-5,1.257s-4.674-.844-5-1.257C44.041,270.246,45.763,269.4,48.724,269.4ZM36.138,263.1c2.962,0,4.683.85,5,1.26-.327.412-2.05,1.257-5,1.257s-4.679-.847-5-1.259C31.459,263.95,33.183,263.1,36.138,263.1ZM23.552,250.517c2.962,0,4.683.85,5,1.26-.327.412-2.05,1.257-5,1.257s-4.674-.844-5-1.257C18.869,251.367,20.59,250.517,23.552,250.517Zm0,33.983c-3.069,0-4.811-.914-5.035-1.3v-3.347l.117.049a13.657,13.657,0,0,0,4.917.827,13.657,13.657,0,0,0,4.917-.827l.117-.049V283.2C28.363,283.587,26.621,284.5,23.552,284.5Zm12.586,0c-3.074,0-4.816-.917-5.035-1.306v-3.346l.117.049a13.657,13.657,0,0,0,4.917.827,13.657,13.657,0,0,0,4.917-.827l.117-.049V283.2C40.949,283.587,39.207,284.5,36.138,284.5Zm12.586,0c-3.069,0-4.811-.914-5.035-1.3v-3.347l.117.049a15.027,15.027,0,0,0,9.835,0l.117-.049V283.2C53.535,283.587,51.793,284.5,48.724,284.5Zm12.586-11.328h7.552v10.069H61.311ZM71.38,263.1h7.552v20.138H71.38Zm10.069,20.138V250.517H89v32.725Z" transform="translate(0 -195.5)" fill="#0a5936"/>
        <rect id="Rectángulo_32949" data-name="Rectángulo 32949" width="2.736" height="2.736" transform="translate(48.827 66.214)"/>
        <path id="Trazado_140922" data-name="Trazado 140922" d="M256,187.69v2.517h6.293a1.259,1.259,0,0,0,.89-.369L288.724,164.3v2h2.517v-5.035A1.259,1.259,0,0,0,289.983,160h-5.035v2.517h2L261.772,187.69Z" transform="translate(-202.241 -121.345)" fill="#0a5936"/>
        <path id="Trazado_140923" data-name="Trazado 140923" d="M90.68,24A30.207,30.207,0,0,0,40,46.207a30.6,30.6,0,0,0,.255,3.938l2.5-.325a28.071,28.071,0,0,1-.234-3.613c0-.422.011-.841.03-1.259h5.634l3.4,4.531a1.259,1.259,0,0,0,1.007.5h9.356l2.825,4.709-4.126,3.095a1.259,1.259,0,0,0-.5,1.007v3.776h2.517V59.423l4.531-3.4a1.259,1.259,0,0,0,.324-1.655l-3.776-6.293a1.259,1.259,0,0,0-1.079-.611h-9.44l-3.4-4.531a1.258,1.258,0,0,0-1.007-.5H42.776a27.558,27.558,0,0,1,5.549-13.172l4.261,2.557v4.322A1.259,1.259,0,0,0,53.845,37.4h5.772l4.666,4.666a1.259,1.259,0,0,0,1.588.157l7.552-5.035a1.259,1.259,0,0,0,.561-1.047V29.108l7.978-7.978a27.626,27.626,0,0,1,5.487,3.408l-6.718,5.6a1.259,1.259,0,0,0-.363,1.434l2.255,5.637-2.974,3.965H73.983a1.259,1.259,0,0,0-.755.252L68.193,45.2a1.259,1.259,0,0,0-.292,1.705l5.035,7.552a1.259,1.259,0,0,0,1.047.56h3.776v7.552h2.517v-8.81A1.259,1.259,0,0,0,79.018,52.5H74.657l-4-6L74.4,43.69h5.874a1.259,1.259,0,0,0,1.007-.5l3.776-5.035a1.258,1.258,0,0,0,.162-1.223l-2.178-5.444,6.322-5.269A27.588,27.588,0,0,1,97.794,43.8l2.508-.216A30.108,30.108,0,0,0,90.68,24ZM71.835,27.7a1.259,1.259,0,0,0-.369.89v6.878l-6.133,4.089-4.3-4.305a1.259,1.259,0,0,0-.89-.369H55.1V31.1a1.259,1.259,0,0,0-.611-1.079l-4.511-2.707A27.678,27.678,0,0,1,79.435,20.1Z" transform="translate(-20.224 0)" fill="#0a5936"/>
      </g>
    </g>
  </g>
</svg>
