<svg xmlns="http://www.w3.org/2000/svg" width="168" height="167" viewBox="0 0 168 167">
  <g id="Grupo_97148" data-name="Grupo 97148" transform="translate(-635.919 -2253)">
    <g id="Rectángulo_32954" data-name="Rectángulo 32954" transform="translate(635.919 2370)" fill="#5cd8a0" stroke="#0a5936" stroke-width="3">
      <rect width="168" height="50" rx="12" stroke="none"/>
      <rect x="1.5" y="1.5" width="165" height="47" rx="10.5" fill="none"/>
    </g>
    <text id="Feature_One" data-name="Feature One" transform="translate(719.919 2403)" fill="#12263f" font-size="20" font-family="Roboto-Black, Roboto" font-weight="800"><tspan x="-49.741" y="0">Económico</tspan></text>
    <g id="Grupo_97121" data-name="Grupo 97121" transform="translate(0 640)">
      <g id="Elipse_4455" data-name="Elipse 4455" transform="translate(655.919 1613)" fill="#fff" stroke="#0a5936" stroke-width="3">
        <ellipse cx="64" cy="64.5" rx="64" ry="64.5" stroke="none"/>
        <ellipse cx="64" cy="64.5" rx="62.5" ry="63" fill="none"/>
      </g>
      <g id="economico" transform="translate(668.466 1620.951)">
        <path id="Trazado_140914" data-name="Trazado 140914" d="M105.9,52.94a28.949,28.949,0,0,1-57.9,0q0-1.272.109-2.517A28.949,28.949,0,0,1,105.9,52.94Z" transform="translate(-26.965 -6.733)" fill="#9ce6ed"/>
        <path id="Trazado_140915" data-name="Trazado 140915" d="M254.207,91.964a28.928,28.928,0,0,1-13.754,24.644l-6.384-7.023V99.516h-5.035L224,91.964l5.035-3.776h6.293l3.776-5.035-2.517-6.293,7.874-6.561A28.88,28.88,0,0,1,254.207,91.964Z" transform="translate(-175.276 -45.757)" fill="#5cd8a0"/>
        <rect id="Rectángulo_32946" data-name="Rectángulo 32946" width="10.259" height="12.31" transform="translate(59.77 76.472)" fill="#f1d54e"/>
        <rect id="Rectángulo_32947" data-name="Rectángulo 32947" width="10.259" height="22.569" transform="translate(70.028 66.214)" fill="#fb9e36"/>
        <rect id="Rectángulo_32948" data-name="Rectángulo 32948" width="10.259" height="34.879" transform="translate(80.287 53.903)" fill="#d2f6e6"/>
        <path id="Trazado_140916" data-name="Trazado 140916" d="M124.654,26.358l-8.961,8.961v7.552l-7.552,5.035-5.035-5.035H96.813V37.836L90.99,34.342A28.973,28.973,0,0,1,124.654,26.358Z" transform="translate(-63.192 -6.733)" fill="#5cd8a0"/>
        <path id="Trazado_140917" data-name="Trazado 140917" d="M73.173,203.328,68.138,207.1v15A28.96,28.96,0,0,1,48,194.517q0-1.272.109-2.517h7.443l3.776,5.035H69.4Z" transform="translate(-26.965 -148.31)" fill="#5cd8a0"/>
        <path id="Trazado_140918" data-name="Trazado 140918" d="M36.586,258.517c0-1.39-2.818-2.517-6.293-2.517S24,257.127,24,258.517v31.466c0,1.39,2.818,2.517,6.293,2.517s6.293-1.127,6.293-2.517Z" transform="translate(-6.741 -202.241)" fill="#f1d54e"/>
        <ellipse id="Elipse_4447" data-name="Elipse 4447" cx="6.155" cy="2.394" rx="6.155" ry="2.394" transform="translate(17.368 53.903)" fill="#ffd873"/>
        <path id="Trazado_140919" data-name="Trazado 140919" d="M116.586,338.517c0-1.39-2.818-2.517-6.293-2.517S104,337.127,104,338.517V357.4c0,1.39,2.818,2.517,6.293,2.517s6.293-1.127,6.293-2.517Z" transform="translate(-74.155 -269.655)" fill="#ffc431"/>
        <ellipse id="Elipse_4448" data-name="Elipse 4448" cx="6.497" cy="2.736" rx="6.497" ry="2.736" transform="translate(29.678 66.214)" fill="#ffd873"/>
        <path id="Trazado_140920" data-name="Trazado 140920" d="M196.586,378.517c0-1.39-2.818-2.517-6.293-2.517S184,377.127,184,378.517V391.1c0,1.39,2.818,2.517,6.293,2.517s6.293-1.127,6.293-2.517Z" transform="translate(-141.569 -303.362)" fill="#ffc431"/>
        <ellipse id="Elipse_4449" data-name="Elipse 4449" cx="6.155" cy="2.736" rx="6.155" ry="2.736" transform="translate(42.672 72.369)" fill="#ffd873"/>
        <path id="Trazado_140921" data-name="Trazado 140921" d="M90.259,248H80.19a1.259,1.259,0,0,0-1.259,1.259v11.328h-8.81a1.259,1.259,0,0,0-1.259,1.259v8.81h-8.81a1.259,1.259,0,0,0-1.259,1.259v11.328H56.276V270.655c0-.708-.342-2.032-2.634-2.949a15.027,15.027,0,0,0-9.835,0l-.117.049v-3.393c0-.708-.342-2.032-2.634-2.949a13.657,13.657,0,0,0-4.917-.827,13.657,13.657,0,0,0-4.917.827l-.117.049v-9.687c0-.708-.342-2.032-2.634-2.949A13.657,13.657,0,0,0,23.552,248a13.657,13.657,0,0,0-4.917.827c-2.292.917-2.634,2.241-2.634,2.949v31.466c0,.708.342,2.032,2.634,2.949a13.658,13.658,0,0,0,4.917.827,13.658,13.658,0,0,0,4.917-.827,6.064,6.064,0,0,0,1.376-.746,6.064,6.064,0,0,0,1.376.746,13.658,13.658,0,0,0,4.917.827,13.658,13.658,0,0,0,4.917-.827,6.064,6.064,0,0,0,1.376-.746,6.064,6.064,0,0,0,1.376.746,15.027,15.027,0,0,0,9.835,0,6.851,6.851,0,0,0,.895-.431H90.259a1.259,1.259,0,0,0,1.259-1.259V249.259A1.259,1.259,0,0,0,90.259,248ZM18.517,273.555l.117.049a13.658,13.658,0,0,0,4.917.827,13.658,13.658,0,0,0,4.917-.827l.117-.049V276.9c-.219.39-1.96,1.306-5.035,1.306s-4.816-.917-5.035-1.306Zm0-6.293.117.049a13.658,13.658,0,0,0,4.917.827,13.658,13.658,0,0,0,4.917-.827l.117-.049v3.346c-.219.39-1.96,1.306-5.035,1.306s-4.816-.917-5.035-1.306Zm0-6.293.117.049a13.657,13.657,0,0,0,4.917.827,13.657,13.657,0,0,0,4.917-.827l.117-.049v3.346c-.219.39-1.96,1.306-5.035,1.306s-4.816-.917-5.035-1.306Zm0-6.293.117.049a13.657,13.657,0,0,0,4.917.827,13.657,13.657,0,0,0,4.917-.827l.117-.049v3.346c-.219.39-1.96,1.306-5.035,1.306s-4.816-.917-5.035-1.306Zm17.621,17.238c-3.074,0-4.816-.917-5.035-1.306v-3.346l.117.049a13.658,13.658,0,0,0,4.917.827,13.658,13.658,0,0,0,4.917-.827l.117-.049v3.346C40.954,271,39.213,271.914,36.138,271.914ZM31.1,273.555l.117.049a13.658,13.658,0,0,0,4.917.827,13.658,13.658,0,0,0,4.917-.827l.117-.049V276.9c-.219.39-1.96,1.306-5.035,1.306s-4.816-.917-5.035-1.306Zm12.586,0,.117.049a15.027,15.027,0,0,0,9.835,0l.117-.049V276.9c-.219.39-1.96,1.306-5.035,1.306s-4.816-.917-5.035-1.306Zm5.035-4.158c2.962,0,4.683.85,5,1.26-.327.412-2.05,1.257-5,1.257s-4.674-.844-5-1.257C44.041,270.246,45.763,269.4,48.724,269.4ZM36.138,263.1c2.962,0,4.683.85,5,1.26-.327.412-2.05,1.257-5,1.257s-4.679-.847-5-1.259C31.459,263.95,33.183,263.1,36.138,263.1ZM23.552,250.517c2.962,0,4.683.85,5,1.26-.327.412-2.05,1.257-5,1.257s-4.674-.844-5-1.257C18.869,251.367,20.59,250.517,23.552,250.517Zm0,33.983c-3.069,0-4.811-.914-5.035-1.3v-3.347l.117.049a13.657,13.657,0,0,0,4.917.827,13.657,13.657,0,0,0,4.917-.827l.117-.049V283.2C28.363,283.587,26.621,284.5,23.552,284.5Zm12.586,0c-3.074,0-4.816-.917-5.035-1.306v-3.346l.117.049a13.657,13.657,0,0,0,4.917.827,13.657,13.657,0,0,0,4.917-.827l.117-.049V283.2C40.949,283.587,39.207,284.5,36.138,284.5Zm12.586,0c-3.069,0-4.811-.914-5.035-1.3v-3.347l.117.049a15.027,15.027,0,0,0,9.835,0l.117-.049V283.2C53.535,283.587,51.793,284.5,48.724,284.5Zm12.586-11.328h7.552v10.069H61.311ZM71.38,263.1h7.552v20.138H71.38Zm10.069,20.138V250.517H89v32.725Z" transform="translate(0 -195.5)" fill="#0a5936"/>
        <rect id="Rectángulo_32949" data-name="Rectángulo 32949" width="2.736" height="2.736" transform="translate(48.827 66.214)"/>
        <path id="Trazado_140922" data-name="Trazado 140922" d="M256,187.69v2.517h6.293a1.259,1.259,0,0,0,.89-.369L288.724,164.3v2h2.517v-5.035A1.259,1.259,0,0,0,289.983,160h-5.035v2.517h2L261.772,187.69Z" transform="translate(-202.241 -121.345)" fill="#0a5936"/>
        <path id="Trazado_140923" data-name="Trazado 140923" d="M90.68,24A30.207,30.207,0,0,0,40,46.207a30.6,30.6,0,0,0,.255,3.938l2.5-.325a28.071,28.071,0,0,1-.234-3.613c0-.422.011-.841.03-1.259h5.634l3.4,4.531a1.259,1.259,0,0,0,1.007.5h9.356l2.825,4.709-4.126,3.095a1.259,1.259,0,0,0-.5,1.007v3.776h2.517V59.423l4.531-3.4a1.259,1.259,0,0,0,.324-1.655l-3.776-6.293a1.259,1.259,0,0,0-1.079-.611h-9.44l-3.4-4.531a1.258,1.258,0,0,0-1.007-.5H42.776a27.558,27.558,0,0,1,5.549-13.172l4.261,2.557v4.322A1.259,1.259,0,0,0,53.845,37.4h5.772l4.666,4.666a1.259,1.259,0,0,0,1.588.157l7.552-5.035a1.259,1.259,0,0,0,.561-1.047V29.108l7.978-7.978a27.626,27.626,0,0,1,5.487,3.408l-6.718,5.6a1.259,1.259,0,0,0-.363,1.434l2.255,5.637-2.974,3.965H73.983a1.259,1.259,0,0,0-.755.252L68.193,45.2a1.259,1.259,0,0,0-.292,1.705l5.035,7.552a1.259,1.259,0,0,0,1.047.56h3.776v7.552h2.517v-8.81A1.259,1.259,0,0,0,79.018,52.5H74.657l-4-6L74.4,43.69h5.874a1.259,1.259,0,0,0,1.007-.5l3.776-5.035a1.258,1.258,0,0,0,.162-1.223l-2.178-5.444,6.322-5.269A27.588,27.588,0,0,1,97.794,43.8l2.508-.216A30.108,30.108,0,0,0,90.68,24ZM71.835,27.7a1.259,1.259,0,0,0-.369.89v6.878l-6.133,4.089-4.3-4.305a1.259,1.259,0,0,0-.89-.369H55.1V31.1a1.259,1.259,0,0,0-.611-1.079l-4.511-2.707A27.678,27.678,0,0,1,79.435,20.1Z" transform="translate(-20.224 0)" fill="#0a5936"/>
      </g>
    </g>
  </g>
</svg>
