<svg xmlns="http://www.w3.org/2000/svg" width="168" height="167" viewBox="0 0 168 167">
  <g id="Grupo_97150" data-name="Grupo 97150" transform="translate(-635.919 -2436)">
    <g id="Rectángulo_32956" data-name="Rectángulo 32956" transform="translate(635.919 2553)" fill="#5cd8a0" stroke="#0a5936" stroke-width="3">
      <rect width="168" height="50" rx="12" stroke="none"/>
      <rect x="1.5" y="1.5" width="165" height="47" rx="10.5" fill="none"/>
    </g>
    <text id="Feature_One" data-name="Feature One" transform="translate(719.919 2586)" fill="#12263f" font-size="20" font-family="Roboto-Black, Roboto" font-weight="800"><tspan x="-55.439" y="0">Tecnológico</tspan></text>
    <g id="Elipse_4455" data-name="Elipse 4455" transform="translate(655.919 2436)" fill="#fff" stroke="#0a5936" stroke-width="3">
      <ellipse cx="64" cy="64.5" rx="64" ry="64.5" stroke="none"/>
      <ellipse cx="64" cy="64.5" rx="62.5" ry="63" fill="none"/>
    </g>
    <g id="wifi" transform="translate(683.243 2498.836)">
      <g id="Grupo_97136" data-name="Grupo 97136" transform="translate(1.074 -44.514)">
        <g id="Grupo_97131" data-name="Grupo 97131" transform="translate(0 27.626)">
          <g id="Grupo_97130" data-name="Grupo 97130">
            <g id="Grupo_97129" data-name="Grupo 97129" transform="translate(2.373)">
              <path id="Trazado_140972" data-name="Trazado 140972" d="M85.775,148.315a4.747,4.747,0,0,1,4.747,4.747v35.132H24.065V153.062a4.747,4.747,0,0,1,4.747-4.747Z" transform="translate(-24.065 -148.315)" fill="#b3ddff"/>
              <path id="Trazado_140973" data-name="Trazado 140973" d="M114.16,216.581V183.823a2.374,2.374,0,0,0-2.373-2.373H59.571a2.374,2.374,0,0,0-2.373,2.373v32.758Z" transform="translate(-52.45 -176.703)" fill="#5cd8a0"/>
              <path id="Trazado_140975" data-name="Trazado 140975" d="M418.53,181.45h-3.3a2.373,2.373,0,0,1,2.373,2.373v32.758h3.3V183.823A2.374,2.374,0,0,0,418.53,181.45Z" transform="translate(-359.194 -176.703)" fill="#17c878"/>
            </g>
            <path id="Trazado_140976" data-name="Trazado 140976" d="M7.5,422.557v3.857a4.747,4.747,0,0,0,4.747,4.747H73.956a4.747,4.747,0,0,0,4.747-4.747v-3.857a.89.89,0,0,0-.89-.89H8.39a.89.89,0,0,0-.89.89Z" transform="translate(-7.5 -382.505)" fill="#b3ddff"/>
            <path id="Trazado_140977" data-name="Trazado 140977" d="M455.519,421.668h-3.3a.89.89,0,0,1,.89.89v3.857a4.747,4.747,0,0,1-4.747,4.747h3.3a4.747,4.747,0,0,0,4.747-4.747v-3.857A.89.89,0,0,0,455.519,421.668Z" transform="translate(-385.206 -382.506)" fill="#abc1d1"/>
          </g>
        </g>
        <g id="Grupo_97135" data-name="Grupo 97135" transform="translate(2.034 0)">
          <circle id="Elipse_4456" data-name="Elipse 4456" cx="23.734" cy="23.734" r="23.734" transform="translate(0 33.561) rotate(-45)" fill="#f1d54e"/>
          <g id="Grupo_97133" data-name="Grupo 97133" transform="translate(17.297 21.692)">
            <g id="Grupo_97132" data-name="Grupo 97132">
              <circle id="Elipse_4457" data-name="Elipse 4457" cx="2.373" cy="2.373" r="2.373" transform="translate(13.738 23.53) rotate(-85.241)" fill="#f5f5f5"/>
              <path id="Trazado_140978" data-name="Trazado 140978" d="M144.538,117.356a1.191,1.191,0,0,0,1.71-.091,16.612,16.612,0,0,1,24.908,0,1.191,1.191,0,0,0,1.71.091l1.731-1.623a1.188,1.188,0,0,0,.076-1.656,21.358,21.358,0,0,0-31.941,0,1.188,1.188,0,0,0,.076,1.656Z" transform="translate(-142.431 -106.9)" fill="#f5f5f5"/>
              <path id="Trazado_140979" data-name="Trazado 140979" d="M192.932,180.628a1.191,1.191,0,0,0,1.737-.123,7.117,7.117,0,0,1,10.987,0,1.191,1.191,0,0,0,1.737.123L209.126,179a1.191,1.191,0,0,0,.089-1.641,11.86,11.86,0,0,0-18.1,0A1.191,1.191,0,0,0,191.2,179Z" transform="translate(-183.892 -163.672)" fill="#f5f5f5"/>
            </g>
          </g>
          <g id="Grupo_97134" data-name="Grupo 97134" transform="translate(31.92 21.692)">
            <path id="Trazado_140980" data-name="Trazado 140980" d="M262.118,114.076a21.307,21.307,0,0,0-15.971-7.177c-.554,0-1.1.022-1.648.064a21.309,21.309,0,0,1,14.323,7.113,1.188,1.188,0,0,1-.076,1.656l-.844.791q.36.36.7.741a1.191,1.191,0,0,0,1.71.091l1.731-1.623A1.188,1.188,0,0,0,262.118,114.076Z" transform="translate(-244.5 -106.899)" fill="#e0e0e0"/>
            <path id="Trazado_140981" data-name="Trazado 140981" d="M255.2,177.363a11.875,11.875,0,0,0-10.7-4.083,11.847,11.847,0,0,1,7.4,4.083,1.191,1.191,0,0,1-.089,1.641l-.848.795a7.188,7.188,0,0,1,.673.707,1.191,1.191,0,0,0,1.737.123L255.111,179A1.191,1.191,0,0,0,255.2,177.363Z" transform="translate(-244.5 -163.672)" fill="#e0e0e0"/>
            <path id="Trazado_140982" data-name="Trazado 140982" d="M246.148,239.433a2.364,2.364,0,0,0-1.648.667,2.368,2.368,0,0,1,0,3.412,2.373,2.373,0,1,0,1.648-4.079Z" transform="translate(-244.5 -220.445)" fill="#e0e0e0"/>
          </g>
          <path id="Trazado_140983" data-name="Trazado 140983" d="M246.148,24.065c-.554,0-1.1.02-1.648.058a23.734,23.734,0,0,1,0,47.353c.544.037,1.094.058,1.648.058a23.734,23.734,0,1,0,0-47.469Z" transform="translate(-212.58 -14.24)" fill="#fb9e36"/>
        </g>
      </g>
      <g id="Grupo_97137" data-name="Grupo 97137" transform="translate(0 -35.764)">
        <path id="Trazado_140984" data-name="Trazado 140984" d="M71.387,73.528h-.408V40.187a5.828,5.828,0,0,0-5.821-5.821H60.475a24.81,24.81,0,0,0-47.6,0H8.195a5.828,5.828,0,0,0-5.821,5.821V73.528H1.965A1.967,1.967,0,0,0,0,75.492v3.857a5.828,5.828,0,0,0,5.821,5.821H67.531a5.828,5.828,0,0,0,5.821-5.821V75.492A1.967,1.967,0,0,0,71.387,73.528Zm-6.23-37.013a3.676,3.676,0,0,1,3.672,3.672V73.528h-2.6V42.561a3.452,3.452,0,0,0-3.448-3.448h-1.4a24.752,24.752,0,0,0-.375-2.6ZM9.269,73.528V42.561a1.3,1.3,0,0,1,1.3-1.3h1.3c0,.037,0,.075,0,.112a24.809,24.809,0,0,0,49.618,0c0-.038,0-.075,0-.112h1.3a1.3,1.3,0,0,1,1.3,1.3V73.528ZM42.42,75.677l-.4,1.614a1.3,1.3,0,0,1-1.26.984H32.6a1.3,1.3,0,0,1-1.26-.984l-.4-1.614ZM36.676,18.714a22.66,22.66,0,1,1-22.66,22.66,22.686,22.686,0,0,1,22.66-22.66ZM4.522,40.187a3.676,3.676,0,0,1,3.672-3.672h4.152a24.716,24.716,0,0,0-.375,2.6h-1.4A3.452,3.452,0,0,0,7.12,42.561V73.528h-2.6Zm59.56,42.835H51.991v-1.3a1.3,1.3,0,0,1,1.3-1.3h9.494a1.3,1.3,0,0,1,1.3,1.3Zm7.12-3.672a3.676,3.676,0,0,1-3.672,3.672h-1.3v-1.3a3.452,3.452,0,0,0-3.448-3.448H53.29a3.452,3.452,0,0,0-3.448,3.448v1.3H18.763v-1.3a1.074,1.074,0,1,0-2.149,0v1.3h-2.6v-1.3a1.074,1.074,0,1,0-2.149,0v1.3h-2.6v-1.3a1.074,1.074,0,1,0-2.149,0v1.3h-1.3a3.676,3.676,0,0,1-3.672-3.672V75.677H28.717l.534,2.135A3.443,3.443,0,0,0,32.6,80.424h8.161A3.443,3.443,0,0,0,44.1,77.812l.534-2.135H71.2Z" transform="translate(0 -16.565)" fill="#0a5936"/>
        <path id="Trazado_140985" data-name="Trazado 140985" d="M235.381,231.933a3.448,3.448,0,1,0,3.448,3.448A3.452,3.452,0,0,0,235.381,231.933Zm0,4.747a1.3,1.3,0,1,1,1.3-1.3A1.3,1.3,0,0,1,235.381,236.68Z" transform="translate(-198.705 -201.078)" fill="#0a5936"/>
        <path id="Trazado_140986" data-name="Trazado 140986" d="M135.616,110.09l1.731,1.623a2.234,2.234,0,0,0,1.539.61l.109,0a2.294,2.294,0,0,0,1.6-.77,15.537,15.537,0,0,1,23.3,0,2.294,2.294,0,0,0,1.6.77,2.229,2.229,0,0,0,1.648-.607l1.731-1.623a2.25,2.25,0,0,0,.144-3.153,22.433,22.433,0,0,0-33.548,0A2.251,2.251,0,0,0,135.616,110.09Zm1.462-1.726a20.284,20.284,0,0,1,30.335,0,.114.114,0,0,1-.008.158l-1.731,1.623a.1.1,0,0,1-.077.029.13.13,0,0,1-.093-.046,17.686,17.686,0,0,0-26.518,0,.13.13,0,0,1-.093.046.1.1,0,0,1-.077-.028l-1.731-1.623A.115.115,0,0,1,137.079,108.364Z" transform="translate(-115.57 -87.532)" fill="#0a5936"/>
        <path id="Trazado_140987" data-name="Trazado 140987" d="M193.733,165.666a12.922,12.922,0,0,0-9.872,4.576,2.265,2.265,0,0,0,.173,3.119l1.733,1.625a2.261,2.261,0,0,0,1.685.6,2.293,2.293,0,0,0,1.615-.828,6.043,6.043,0,0,1,9.33,0,2.294,2.294,0,0,0,1.615.828c.048,0,.095,0,.142,0a2.263,2.263,0,0,0,1.543-.609l1.733-1.625a2.265,2.265,0,0,0,.173-3.119A12.922,12.922,0,0,0,193.733,165.666Zm8.228,6.128-1.733,1.625a.1.1,0,0,1-.078.028.132.132,0,0,1-.095-.051,8.192,8.192,0,0,0-12.645,0,.132.132,0,0,1-.1.051.1.1,0,0,1-.078-.028h0l-1.733-1.625a.117.117,0,0,1,0-.162,10.786,10.786,0,0,1,16.465,0A.117.117,0,0,1,201.962,171.794Z" transform="translate(-157.057 -144.305)" fill="#0a5936"/>
      </g>
    </g>
  </g>
</svg>
