<svg xmlns="http://www.w3.org/2000/svg" width="168" height="167" viewBox="0 0 168 167">
  <g id="Grupo_99467" data-name="Grupo 99467" transform="translate(-814.919 -1768)">
    <g id="Rectángulo_32957" data-name="Rectángulo 32957" transform="translate(814.919 1885)" fill="#5cd8a0" stroke="#0a5936" stroke-width="3">
      <rect width="168" height="50" rx="12" stroke="none"/>
      <rect x="1.5" y="1.5" width="165" height="47" rx="10.5" fill="none"/>
    </g>
    <path id="Feature_One" data-name="Feature One" d="M-23.145-4.814a5.193,5.193,0,0,1-.8,2.622A4.833,4.833,0,0,1-26-.43,7,7,0,0,1-29.023.2a5.584,5.584,0,0,1-4.414-1.826,7.54,7.54,0,0,1-1.611-5.156v-.7a8.607,8.607,0,0,1,.728-3.657,5.513,5.513,0,0,1,2.095-2.422,5.844,5.844,0,0,1,3.164-.854,6.129,6.129,0,0,1,4.16,1.362,5.383,5.383,0,0,1,1.787,3.755h-3.418a2.547,2.547,0,0,0-.654-1.865,2.691,2.691,0,0,0-1.875-.566,2.048,2.048,0,0,0-1.875.957,6.151,6.151,0,0,0-.625,3.057v1.006a6.806,6.806,0,0,0,.571,3.252,2.091,2.091,0,0,0,1.968.977,2.632,2.632,0,0,0,1.807-.557,2.363,2.363,0,0,0,.664-1.768Zm7.764,3.672A3.393,3.393,0,0,1-18.2.2,3.328,3.328,0,0,1-20.835-.815a4.251,4.251,0,0,1-.894-2.905v-6.846h3.291V-3.7a1.183,1.183,0,0,0,1.318,1.357,1.72,1.72,0,0,0,1.611-.811v-7.412H-12.2V0h-3.086ZM-6.924,0h-3.3V-15h3.3Zm5.859-13.193v2.627H.674v2.285H-1.064v4.834a1.234,1.234,0,0,0,.215.83A1.152,1.152,0,0,0,0-2.383a4.828,4.828,0,0,0,.82-.059V-.088A6.074,6.074,0,0,1-1.035.2a3.448,3.448,0,0,1-2.51-.8,3.282,3.282,0,0,1-.811-2.432V-8.281H-5.7v-2.285h1.348v-2.627ZM8.262-1.143A3.393,3.393,0,0,1,5.439.2,3.328,3.328,0,0,1,2.808-.815a4.251,4.251,0,0,1-.894-2.905v-6.846H5.205V-3.7A1.183,1.183,0,0,0,6.523-2.344a1.72,1.72,0,0,0,1.611-.811v-7.412h3.311V0H8.359ZM19.639-7.588l-1.084-.078a1.947,1.947,0,0,0-1.992.977V0H13.271V-10.566h3.086l.107,1.357a2.548,2.548,0,0,1,2.314-1.553,3.209,3.209,0,0,1,.918.117ZM26.484,0a3.716,3.716,0,0,1-.312-.947A3.06,3.06,0,0,1,23.633.2a3.749,3.749,0,0,1-2.539-.9,2.875,2.875,0,0,1-1.045-2.271,2.955,2.955,0,0,1,1.27-2.6,6.468,6.468,0,0,1,3.691-.879h1.016v-.557q0-1.455-1.26-1.455a1.027,1.027,0,0,0-1.172,1.152H20.3a2.955,2.955,0,0,1,1.3-2.49,5.474,5.474,0,0,1,3.325-.957,4.8,4.8,0,0,1,3.193.986,3.429,3.429,0,0,1,1.2,2.705v4.678a4.79,4.79,0,0,0,.449,2.227V0ZM24.424-2.148a1.836,1.836,0,0,0,1.021-.264,1.653,1.653,0,0,0,.581-.6V-4.7h-.957q-1.719,0-1.719,1.543a.942.942,0,0,0,.3.728A1.1,1.1,0,0,0,24.424-2.148ZM34.619,0h-3.3V-15h3.3Z" transform="translate(898.919 1918)" fill="#12263f"/>
    <g id="Elipse_4458" data-name="Elipse 4458" transform="translate(834.919 1768)" fill="#fff" stroke="#0a5936" stroke-width="3">
      <ellipse cx="64" cy="64.5" rx="64" ry="64.5" stroke="none"/>
      <ellipse cx="64" cy="64.5" rx="62.5" ry="63" fill="none"/>
    </g>
    <g id="Page-1" transform="translate(859.664 1793.237)">
      <g id="_012---Religious-Podcast" data-name="012---Religious-Podcast" transform="translate(0.02 0)">
        <path id="Shape" d="M63.967,36.482A27.483,27.483,0,0,1,43.59,63.036l-4.764,9.946a2.617,2.617,0,0,1-4.685,0l-4.764-9.946A27.483,27.483,0,1,1,63.967,36.482Z" transform="translate(2.752 2.779)" fill="#f1d54e"/>
        <path id="Shape-2" data-name="Shape" d="M30.463,9a12.26,12.26,0,0,0-1.963.1,27.483,27.483,0,0,1,5.143,53.932L28.88,72.983a2.735,2.735,0,0,1-.38.55,2.617,2.617,0,0,0,4.306-.55l4.764-9.946A27.483,27.483,0,0,0,30.463,9Z" transform="translate(8.772 2.778)" fill="#fb9e36"/>
        <path id="Shape-3" data-name="Shape" d="M46.483,24.47H38.631a1.309,1.309,0,0,1-1.309-1.309V15.309A1.309,1.309,0,0,0,36.013,14H30.778a1.309,1.309,0,0,0-1.309,1.309v7.852a1.309,1.309,0,0,1-1.309,1.309H20.309A1.309,1.309,0,0,0,19,25.778v5.235a1.309,1.309,0,0,0,1.309,1.309h7.852a1.309,1.309,0,0,1,1.309,1.309V53.261a1.309,1.309,0,0,0,1.309,1.309h5.235a1.309,1.309,0,0,0,1.309-1.309V33.631a1.309,1.309,0,0,1,1.309-1.309h7.852a1.309,1.309,0,0,0,1.309-1.309V25.778A1.309,1.309,0,0,0,46.483,24.47Z" transform="translate(5.839 4.322)" fill="#5cd8a0"/>
        <path id="Shape-4" data-name="Shape" d="M30.309,29.309V48.939A1.309,1.309,0,0,1,29,50.248h3.926a1.309,1.309,0,0,0,1.309-1.309V29.309A1.309,1.309,0,0,1,35.544,28H31.617A1.309,1.309,0,0,0,30.309,29.309Z" transform="translate(8.927 8.644)" fill="#d2f6e6"/>
        <path id="Shape-5" data-name="Shape" d="M30.309,15.309v7.852a1.309,1.309,0,0,0,1.309,1.309h3.926a1.309,1.309,0,0,1-1.309-1.309V15.309A1.309,1.309,0,0,0,32.926,14H29A1.309,1.309,0,0,1,30.309,15.309Z" transform="translate(8.927 4.322)" fill="#d2f6e6"/>
        <path id="Shape-6" data-name="Shape" d="M40.926,22H37a1.309,1.309,0,0,1,1.309,1.309v5.235A1.309,1.309,0,0,1,37,29.852h3.926a1.309,1.309,0,0,0,1.309-1.309V23.309A1.309,1.309,0,0,0,40.926,22Z" transform="translate(11.396 6.792)" fill="#d2f6e6"/>
        <g id="Grupo_97138" data-name="Grupo 97138">
          <path id="Shape-7" data-name="Shape" d="M46.309,5.6a1.309,1.309,0,0,0,.51-2.513A38.9,38.9,0,0,0,31.547,0a41.551,41.551,0,0,0-5.418.366,1.321,1.321,0,1,0,.366,2.617A36.644,36.644,0,0,1,45.8,5.5,1.152,1.152,0,0,0,46.309,5.6Z" transform="translate(7.689 0)" fill="#0a5936"/>
          <path id="Shape-8" data-name="Shape" d="M24.617,2.075a1.309,1.309,0,0,0-1.623-.9,40.57,40.57,0,0,0-4.437,1.57,1.309,1.309,0,0,0,.51,2.513,1.152,1.152,0,0,0,.51-.1,38.018,38.018,0,0,1,4.149-1.466,1.309,1.309,0,0,0,.89-1.61Z" transform="translate(5.457 0.346)" fill="#0a5936"/>
          <path id="Shape-9" data-name="Shape" d="M21.09,9.1a31.553,31.553,0,0,1,24.447,0,1.426,1.426,0,0,0,.51.1,1.314,1.314,0,0,0,.51-2.578,34.183,34.183,0,0,0-26.488,0A1.314,1.314,0,1,0,21.09,9.051Z" transform="translate(5.922 1.223)" fill="#0a5936"/>
          <path id="Shape-10" data-name="Shape" d="M1.682,40.34h.183a1.309,1.309,0,0,0,1.112-1.466A38.581,38.581,0,0,1,2.611,33.8,36.33,36.33,0,0,1,5.517,19.531,1.31,1.31,0,1,0,3.109,18.5,39.536,39.536,0,0,0,.386,39.188a1.309,1.309,0,0,0,1.3,1.152Z" transform="translate(-0.02 5.465)" fill="#0a5936"/>
          <path id="Shape-11" data-name="Shape" d="M2.082,37.012a1.309,1.309,0,0,0-.89,1.623,38.855,38.855,0,0,0,1.57,4.437,1.309,1.309,0,0,0,1.2.8,1.426,1.426,0,0,0,.51-.1,1.309,1.309,0,0,0,.694-1.714,37.024,37.024,0,0,1-1.466-4.109,1.309,1.309,0,0,0-1.623-.929Z" transform="translate(0.326 11.411)" fill="#0a5936"/>
          <path id="Shape-12" data-name="Shape" d="M7.914,47.335a1.191,1.191,0,0,0,.51-.1,1.309,1.309,0,0,0,.694-1.714,31.592,31.592,0,0,1,0-24.447A1.308,1.308,0,0,0,6.71,20.048a34.183,34.183,0,0,0,0,26.488,1.309,1.309,0,0,0,1.2.8Z" transform="translate(1.221 5.943)" fill="#0a5936"/>
          <path id="Shape-13" data-name="Shape" d="M60.935,39.188A39.536,39.536,0,0,0,58.213,18.5a1.31,1.31,0,1,0-2.408,1.034A36.33,36.33,0,0,1,58.71,33.8a38.581,38.581,0,0,1-.34,5.065,1.309,1.309,0,0,0,1.086,1.479h.183a1.309,1.309,0,0,0,1.3-1.152Z" transform="translate(17.169 5.465)" fill="#0a5936"/>
          <path id="Shape-14" data-name="Shape" d="M58.893,37.012a1.309,1.309,0,0,0-1.623.9A37.022,37.022,0,0,1,55.8,42.051a1.309,1.309,0,0,0,.694,1.714,1.426,1.426,0,0,0,.51.1,1.309,1.309,0,0,0,1.2-.8,38.854,38.854,0,0,0,1.57-4.437,1.309,1.309,0,0,0-.89-1.623Z" transform="translate(17.169 11.41)" fill="#0a5936"/>
          <path id="Shape-15" data-name="Shape" d="M52.818,47.23a1.191,1.191,0,0,0,.51.1,1.309,1.309,0,0,0,1.2-.8,34.183,34.183,0,0,0,0-26.488,1.308,1.308,0,1,0-2.408,1.021,31.592,31.592,0,0,1,0,24.447,1.309,1.309,0,0,0,.694,1.714Z" transform="translate(16.033 5.943)" fill="#0a5936"/>
          <path id="Shape-16" data-name="Shape" d="M28.757,64.437l4.528,9.436a3.926,3.926,0,0,0,7.028,0l4.515-9.41a28.792,28.792,0,1,0-16.071,0ZM36.792,10.61a26.174,26.174,0,0,1,6.766,51.458,1.309,1.309,0,0,0-.838.707L37.97,72.7a1.309,1.309,0,0,1-2.343,0l-4.764-9.946a1.309,1.309,0,0,0-.838-.707A26.174,26.174,0,0,1,36.792,10.61Z" transform="translate(2.443 2.477)" fill="#0a5936"/>
          <path id="Shape-17" data-name="Shape" d="M20.617,33.939H28.47V53.57a2.617,2.617,0,0,0,2.617,2.617h5.235a2.617,2.617,0,0,0,2.617-2.617V33.939h7.852a2.617,2.617,0,0,0,2.617-2.617V26.087a2.617,2.617,0,0,0-2.617-2.617H38.939V15.617A2.617,2.617,0,0,0,36.322,13H31.087a2.617,2.617,0,0,0-2.617,2.617V23.47H20.617A2.617,2.617,0,0,0,18,26.087v5.235A2.617,2.617,0,0,0,20.617,33.939Zm0-7.852H28.47a2.617,2.617,0,0,0,2.617-2.617V15.617h5.235V23.47a2.617,2.617,0,0,0,2.617,2.617h7.852v5.235H38.939a2.617,2.617,0,0,0-2.617,2.617V53.57H31.087V33.939a2.617,2.617,0,0,0-2.617-2.617H20.617Z" transform="translate(5.531 4.013)" fill="#0a5936"/>
        </g>
      </g>
    </g>
  </g>
</svg>
