<svg xmlns="http://www.w3.org/2000/svg" width="168" height="167" viewBox="0 0 168 167">
  <g id="Grupo_97152" data-name="Grupo 97152" transform="translate(-635.919 -2619)">
    <g id="Rectángulo_32958" data-name="Rectángulo 32958" transform="translate(635.919 2736)" fill="#5cd8a0" stroke="#0a5936" stroke-width="3">
      <rect width="168" height="50" rx="12" stroke="none"/>
      <rect x="1.5" y="1.5" width="165" height="47" rx="10.5" fill="none"/>
    </g>
    <text id="Feature_One" data-name="Feature One" transform="translate(719.919 2769)" fill="#12263f" font-size="20" font-family="Roboto-Black, Roboto" font-weight="800"><tspan x="-74.219" y="0">Medio Ambiente</tspan></text>
    <g id="Trazado_141000" data-name="Trazado 141000" transform="translate(655.919 2619)" fill="#fff">
      <path d="M 64 127.5 C 55.56334686279297 127.5 47.37974548339844 125.8350524902344 39.67650985717773 122.551399230957 C 35.97372817993164 120.973014831543 32.40221786499023 119.0193099975586 29.06119918823242 116.7445297241211 C 25.75130844116211 114.4909439086914 22.63874626159668 111.9027481079102 19.80994606018066 109.0518569946289 C 16.9809627532959 106.2007598876953 14.41258144378662 103.0635452270508 12.17614555358887 99.72734832763672 C 9.918381690979004 96.35929107666016 7.979236125946045 92.75879669189453 6.412563800811768 89.02583312988281 C 3.152818202972412 81.25872802734375 1.5 73.00705718994141 1.5 64.5 C 1.5 55.99294662475586 3.152818202972412 47.74127197265625 6.412563800811768 39.97416305541992 C 7.979236125946045 36.2411994934082 9.918381690979004 32.64070892333984 12.17614555358887 29.27265548706055 C 14.41258144378662 25.93645477294922 16.9809627532959 22.79923629760742 19.80994606018066 19.94814491271973 C 22.63874626159668 17.09725379943848 25.75130844116211 14.50905418395996 29.06119918823242 12.25547313690186 C 32.40221786499023 9.980690956115723 35.97372817993164 8.026981353759766 39.67650985717773 6.448599815368652 C 47.37974548339844 3.164945363998413 55.56334686279297 1.5 64 1.5 C 72.43665313720703 1.5 80.62025451660156 3.164945363998413 88.32349395751953 6.448599815368652 C 92.02627563476562 8.026981353759766 95.5977783203125 9.980690956115723 98.93879699707031 12.25547313690186 C 102.2486877441406 14.50905418395996 105.3612518310547 17.09725379943848 108.190055847168 19.94814491271973 C 111.0190353393555 22.79923629760742 113.5874176025391 25.93645477294922 115.8238525390625 29.27265548706055 C 118.0816192626953 32.64070892333984 120.0207672119141 36.2411994934082 121.5874328613281 39.97416305541992 C 124.8471832275391 47.74127197265625 126.5 55.99294662475586 126.5 64.5 C 126.5 73.00705718994141 124.8471832275391 81.25872802734375 121.5874328613281 89.02583312988281 C 120.0207672119141 92.75879669189453 118.0816192626953 96.35929107666016 115.8238525390625 99.72734832763672 C 113.5874176025391 103.0635452270508 111.0190353393555 106.2007598876953 108.190055847168 109.0518569946289 C 105.3612518310547 111.9027481079102 102.2486877441406 114.4909439086914 98.93879699707031 116.7445297241211 C 95.5977783203125 119.0193099975586 92.02627563476562 120.973014831543 88.32349395751953 122.551399230957 C 80.62025451660156 125.8350524902344 72.43665313720703 127.5 64 127.5 Z" stroke="none"/>
      <path d="M 64 3 C 55.76663970947266 3 47.78092193603516 4.624519348144531 40.26470184326172 7.828460693359375 C 36.65138244628906 9.368698120117188 33.16602325439453 11.27532196044922 29.90538024902344 13.49537658691406 C 26.67453765869141 15.69513702392578 23.63617706298828 18.22164154052734 20.87471771240234 21.00466156005859 C 18.11287689208984 23.78810119628906 15.60546112060547 26.85086059570312 13.42209625244141 30.10787963867188 C 11.21804046630859 33.39582061767578 9.325042724609375 36.91062164306641 7.795700073242188 40.55464172363281 C 4.613502502441406 48.136962890625 3 56.19333648681641 3 64.5 C 3 72.80665588378906 4.613502502441406 80.863037109375 7.795700073242188 88.44535827636719 C 9.325042724609375 92.08937835693359 11.21804046630859 95.60417938232422 13.42209625244141 98.89212036132812 C 15.60546112060547 102.1491394042969 18.11287689208984 105.2118988037109 20.87471771240234 107.9953384399414 C 23.63617706298828 110.7783584594727 26.67453765869141 113.3048629760742 29.90538024902344 115.5046234130859 C 33.16602325439453 117.7246780395508 36.65138244628906 119.6313018798828 40.26470184326172 121.1715393066406 C 47.78092193603516 124.3754806518555 55.76663970947266 126 64 126 C 72.23336029052734 126 80.21908569335938 124.3754806518555 87.73529815673828 121.1715393066406 C 91.34861755371094 119.6313018798828 94.833984375 117.7246780395508 98.09461975097656 115.5046234130859 C 101.3254623413086 113.3048629760742 104.3638153076172 110.7783584594727 107.1252822875977 107.9953384399414 C 109.8871154785156 105.2118988037109 112.3945388793945 102.1491394042969 114.5778961181641 98.89212036132812 C 116.7819595336914 95.60417938232422 118.6749572753906 92.08937835693359 120.2042999267578 88.44535827636719 C 123.3864974975586 80.863037109375 125 72.80665588378906 125 64.5 C 125 56.19333648681641 123.3864974975586 48.136962890625 120.2042999267578 40.55464172363281 C 118.6749572753906 36.91062164306641 116.7819595336914 33.39582061767578 114.5778961181641 30.10787963867188 C 112.3945388793945 26.85086059570312 109.8871154785156 23.78810119628906 107.1252822875977 21.00466156005859 C 104.3638153076172 18.22164154052734 101.3254623413086 15.69513702392578 98.09461975097656 13.49537658691406 C 94.833984375 11.27532196044922 91.34861755371094 9.368698120117188 87.73529815673828 7.828460693359375 C 80.21908569335938 4.624519348144531 72.23336029052734 3 64 3 M 64 0 C 99.34622192382812 0 128 28.87763977050781 128 64.5 C 128 100.1223602294922 99.34622192382812 129 64 129 C 28.65377807617188 129 0 100.1223602294922 0 64.5 C 0 28.87763977050781 28.65377807617188 0 64 0 Z" stroke="none" fill="#0a5936"/>
    </g>
    <g id="respetuoso-del-medio-ambiente" transform="translate(628.504 2642.495)">
      <g id="Grupo_97144" data-name="Grupo 97144" transform="translate(61.401 1.109)">
        <path id="Trazado_140988" data-name="Trazado 140988" d="M124.365,42.442a6.482,6.482,0,0,0-8.815,2.525,28.171,28.171,0,0,0-2.433,5.836V20.334a5.679,5.679,0,1,0-11.358,0v-7.15a5.68,5.68,0,1,0-11.359,0v19.8l-11.359.562a5.68,5.68,0,0,0-11.359,0V60.666c0,12.215,7.836,26.41,21.7,26.41H106.3c18.792,0,18.917-26.02,18.917-26.02,0-.078,0-6.8,1.669-9.8A6.483,6.483,0,0,0,124.365,42.442Z" transform="translate(-67.681 -7.393)" fill="#f1d54e"/>
        <g id="Grupo_97139" data-name="Grupo 97139" transform="translate(0 20.469)">
          <path id="Trazado_140989" data-name="Trazado 140989" d="M70.848,165.677V138.552a5.681,5.681,0,0,1,4.1-5.454,5.679,5.679,0,0,0-7.263,5.454v27.125c0,12.215,7.836,26.41,21.7,26.41h3.167C78.683,192.087,70.848,177.892,70.848,165.677Z" transform="translate(-67.681 -132.873)" fill="#fb9e36"/>
        </g>
        <g id="Grupo_97140" data-name="Grupo 97140" transform="translate(34.078 7.15)">
          <path id="Trazado_140990" data-name="Trazado 140990" d="M279.114,83.66a1.583,1.583,0,0,0,1.583-1.583V56.535a5.681,5.681,0,0,1,4.1-5.454,5.676,5.676,0,0,0-1.695-.224,5.753,5.753,0,0,0-5.568,5.789v25.43A1.583,1.583,0,0,0,279.114,83.66Z" transform="translate(-277.531 -50.856)" fill="#fb9e36"/>
        </g>
        <g id="Grupo_97141" data-name="Grupo 97141" transform="translate(22.719)">
          <path id="Trazado_140991" data-name="Trazado 140991" d="M209.163,39.63a1.583,1.583,0,0,0,1.583-1.583V12.505a5.681,5.681,0,0,1,4.1-5.454,5.676,5.676,0,0,0-1.695-.224,5.753,5.753,0,0,0-5.568,5.789v25.43A1.584,1.584,0,0,0,209.163,39.63Z" transform="translate(-207.58 -6.826)" fill="#fb9e36"/>
        </g>
        <g id="Grupo_97142" data-name="Grupo 97142" transform="translate(29.48 34.234)">
          <path id="Trazado_140992" data-name="Trazado 140992" d="M252.358,248.354c.722-7.588,7.113-11.087,14.89-11.087-.058-4.8,1.131-11.987,3.521-16.3a6.461,6.461,0,0,1,4.09-3.143,6.483,6.483,0,0,0-7.257,3.143,27.8,27.8,0,0,0-3.521,13.86,14.961,14.961,0,0,0-14.857,13.2,1.575,1.575,0,1,0,3.133.318Z" transform="translate(-249.215 -217.631)" fill="#fb9e36"/>
        </g>
        <g id="Grupo_97143" data-name="Grupo 97143" transform="translate(4.823 4.09)">
          <path id="Trazado_140993" data-name="Trazado 140993" d="M125.675,50.539s-6.716-14-15.173-18.529A28.682,28.682,0,0,0,97.638,59.922c1.894,14.106,9.4,13.1,15.006,26.3,13.638-6.461,19.155-19.317,17.629-30.685-.174-1.3-.7-4.581-1.043-5.811Z" transform="translate(-97.38 -32.01)" fill="#5cd8a0"/>
        </g>
      </g>
      <g id="Grupo_97145" data-name="Grupo 97145" transform="translate(60.184 0)">
        <path id="Trazado_140994" data-name="Trazado 140994" d="M204.388,5.465a1.218,1.218,0,0,0,1.633-.549A4.463,4.463,0,0,1,214.482,6.9V18.232a1.218,1.218,0,0,0,2.436,0V14.046a4.461,4.461,0,0,1,8.923,0V36.437a1.218,1.218,0,0,0,2.436,0V14.049A6.892,6.892,0,0,0,216.918,8.8V6.9a6.9,6.9,0,0,0-13.079-3.065,1.218,1.218,0,0,0,.549,1.633Z" transform="translate(-180.404 0)" fill="#0a5936"/>
        <path id="Trazado_140995" data-name="Trazado 140995" d="M114.9,185.105a1.218,1.218,0,0,0-1.673.41c-3.078,5.074-7.52,7.647-13.2,7.647H83.106c-7.57,0-12.373-4.417-15.069-8.123A29.583,29.583,0,0,1,62.62,167.97V140.845a4.433,4.433,0,0,1,1.307-3.155,1.218,1.218,0,0,0-1.722-1.722,6.853,6.853,0,0,0-2.02,4.877v27.125a32.071,32.071,0,0,0,5.884,18.5c4.281,5.885,10.332,9.126,17.038,9.126h16.917c6.593,0,11.735-2.967,15.285-8.82a1.218,1.218,0,0,0-.41-1.673Z" transform="translate(-60.184 -113.589)" fill="#0a5936"/>
        <path id="Trazado_140996" data-name="Trazado 140996" d="M273.927,215.7a7.7,7.7,0,0,0-14.14-1.616,29.2,29.2,0,0,0-3.664,13.277,16.2,16.2,0,0,0-14.969,16.131,1.218,1.218,0,1,0,2.436,0,13.756,13.756,0,0,1,13.74-13.74,1.218,1.218,0,0,0,1.218-1.233,26.714,26.714,0,0,1,3.369-13.255,5.266,5.266,0,1,1,9.21,5.11c-1.806,3.257-1.823,10.1-1.822,10.382a41.612,41.612,0,0,1-2.767,13.7,1.218,1.218,0,1,0,2.253.926,43.5,43.5,0,0,0,2.95-14.626c0-1.8.272-6.961,1.516-9.206A7.649,7.649,0,0,0,273.927,215.7Z" transform="translate(-211.766 -175.992)" fill="#0a5936"/>
        <path id="Trazado_140997" data-name="Trazado 140997" d="M91.587,59.959a1.218,1.218,0,0,0,2.293-.822,27.6,27.6,0,0,1,10.4-31.978C112,31.79,118.237,44.653,118.3,44.786a1.219,1.219,0,0,0,1.368.661l2.366-.539c.285,1.427.616,3.488.754,4.515a27.534,27.534,0,0,1-3,16.449,29.547,29.547,0,0,1-11.38,11.621l.213-.632c2.115-6.275,5.012-14.868.46-26.315a1.218,1.218,0,0,0-2.263.9c4.221,10.616,1.49,18.72-.505,24.637l-.177.526a39.85,39.85,0,0,0-6.631-9.042,35.694,35.694,0,0,1-3.666-4.472,1.218,1.218,0,0,0-2.037,1.336,37.551,37.551,0,0,0,3.9,4.779,35.637,35.637,0,0,1,7.535,11.212,1.218,1.218,0,0,0,1.643.625,32.527,32.527,0,0,0,15.055-14.031A29.991,29.991,0,0,0,125.2,49.1c-.154-1.146-.7-4.6-1.075-5.971a1.218,1.218,0,0,0-1.445-.865l-2.625.6a71.236,71.236,0,0,0-4.064-6.847c-3.743-5.563-7.509-9.384-11.194-11.357a1.218,1.218,0,0,0-1.236.051A30.345,30.345,0,0,0,91.587,59.959Z" transform="translate(-85.063 -20.531)" fill="#0a5936"/>
      </g>
    </g>
  </g>
</svg>
