<svg xmlns="http://www.w3.org/2000/svg" width="168" height="167" viewBox="0 0 168 167">
  <g id="Grupo_99470" data-name="Grupo 99470" transform="translate(-616.919 -2501)">
    <g id="Rectángulo_32953" data-name="Rectángulo 32953" transform="translate(616.919 2618)" fill="#f0dd81" stroke="#0a5936" stroke-width="3">
      <rect width="168" height="50" rx="12" stroke="none"/>
      <rect x="1.5" y="1.5" width="165" height="47" rx="10.5" fill="none"/>
    </g>
    <path id="Feature_One" data-name="Feature One" d="M-24.565-4.814a5.193,5.193,0,0,1-.8,2.622A4.833,4.833,0,0,1-27.422-.43,7,7,0,0,1-30.444.2a5.584,5.584,0,0,1-4.414-1.826A7.54,7.54,0,0,1-36.47-6.787v-.7a8.607,8.607,0,0,1,.728-3.657,5.513,5.513,0,0,1,2.095-2.422,5.844,5.844,0,0,1,3.164-.854,6.129,6.129,0,0,1,4.16,1.362,5.383,5.383,0,0,1,1.787,3.755h-3.418a2.547,2.547,0,0,0-.654-1.865,2.691,2.691,0,0,0-1.875-.566,2.048,2.048,0,0,0-1.875.957,6.151,6.151,0,0,0-.625,3.057v1.006a6.806,6.806,0,0,0,.571,3.252,2.091,2.091,0,0,0,1.968.977,2.632,2.632,0,0,0,1.807-.557,2.363,2.363,0,0,0,.664-1.768ZM-19.624,0h-3.3V-15h3.3Zm5.5,0h-3.3V-10.566h3.3Zm-3.5-13.291a1.469,1.469,0,0,1,.508-1.152,1.916,1.916,0,0,1,1.318-.449,1.916,1.916,0,0,1,1.318.449,1.469,1.469,0,0,1,.508,1.152,1.469,1.469,0,0,1-.508,1.152,1.916,1.916,0,0,1-1.318.449,1.916,1.916,0,0,1-1.318-.449A1.469,1.469,0,0,1-17.622-13.291ZM-6.987.2a5.432,5.432,0,0,1-3.936-1.45,5.008,5.008,0,0,1-1.5-3.774V-5.3a6.489,6.489,0,0,1,.6-2.861,4.395,4.395,0,0,1,1.753-1.919,5.292,5.292,0,0,1,2.734-.679A4.574,4.574,0,0,1-3.823-9.38,5.43,5.43,0,0,1-2.534-5.527v1.279H-9.077a2.372,2.372,0,0,0,.771,1.4,2.3,2.3,0,0,0,1.543.508A2.958,2.958,0,0,0-4.321-3.437l1.5,1.777A4.2,4.2,0,0,1-4.561-.308,5.891,5.891,0,0,1-6.987.2Zm-.371-8.418q-1.445,0-1.719,1.914h3.32v-.254a1.63,1.63,0,0,0-.4-1.226A1.593,1.593,0,0,0-7.358-8.223Zm9.17-2.344.107,1.24a3.583,3.583,0,0,1,3.018-1.436A3.015,3.015,0,0,1,7.4-9.775a4.7,4.7,0,0,1,.845,2.969V0h-3.3V-6.67a1.783,1.783,0,0,0-.322-1.177,1.491,1.491,0,0,0-1.172-.376,1.569,1.569,0,0,0-1.436.762V0H-1.274V-10.566ZM13.9-13.193v2.627H15.64v2.285H13.9v4.834a1.234,1.234,0,0,0,.215.83,1.152,1.152,0,0,0,.85.234,4.828,4.828,0,0,0,.82-.059V-.088A6.074,6.074,0,0,1,13.931.2a3.448,3.448,0,0,1-2.51-.8,3.282,3.282,0,0,1-.811-2.432V-8.281H9.263v-2.285H10.61v-2.627ZM22.046.2a5.432,5.432,0,0,1-3.936-1.45,5.008,5.008,0,0,1-1.5-3.774V-5.3a6.489,6.489,0,0,1,.6-2.861,4.395,4.395,0,0,1,1.753-1.919,5.292,5.292,0,0,1,2.734-.679A4.574,4.574,0,0,1,25.21-9.38,5.43,5.43,0,0,1,26.5-5.527v1.279H19.956a2.372,2.372,0,0,0,.771,1.4,2.3,2.3,0,0,0,1.543.508,2.958,2.958,0,0,0,2.441-1.094l1.5,1.777A4.2,4.2,0,0,1,24.473-.308,5.891,5.891,0,0,1,22.046.2Zm-.371-8.418q-1.445,0-1.719,1.914h3.32v-.254a1.63,1.63,0,0,0-.4-1.226A1.593,1.593,0,0,0,21.675-8.223Zm11.68,5.254a.76.76,0,0,0-.439-.674,6.685,6.685,0,0,0-1.67-.527,7.615,7.615,0,0,1-2.031-.718,3.4,3.4,0,0,1-1.221-1.079,2.577,2.577,0,0,1-.42-1.455,2.92,2.92,0,0,1,1.2-2.4,4.948,4.948,0,0,1,3.145-.942,5.482,5.482,0,0,1,3.359.947,2.962,2.962,0,0,1,1.27,2.49h-3.3q0-1.27-1.338-1.27a1.326,1.326,0,0,0-.869.288.892.892,0,0,0-.352.718.819.819,0,0,0,.43.713,4.06,4.06,0,0,0,1.372.449,11.857,11.857,0,0,1,1.655.42,3.007,3.007,0,0,1,2.383,2.939A2.767,2.767,0,0,1,35.244-.713,5.632,5.632,0,0,1,31.919.2,5.747,5.747,0,0,1,29.5-.293a4.05,4.05,0,0,1-1.66-1.328,3.007,3.007,0,0,1-.6-1.768h3.076a1.272,1.272,0,0,0,.488,1.069,2.009,2.009,0,0,0,1.2.337,1.58,1.58,0,0,0,1.011-.273A.875.875,0,0,0,33.354-2.969Z" transform="translate(700.919 2651)" fill="#12263f"/>
    <g id="Elipse_4454" data-name="Elipse 4454" transform="translate(636.919 2501)" fill="#fff" stroke="#0a5936" stroke-width="3">
      <ellipse cx="64" cy="64.5" rx="64" ry="64.5" stroke="none"/>
      <ellipse cx="64" cy="64.5" rx="62.5" ry="63" fill="none"/>
    </g>
    <g id="objetivo" transform="translate(663.917 2527.862)">
      <path id="Trazado_141001" data-name="Trazado 141001" d="M147.1,246.522l10.819-10.706c4.041-4.041,11.812,1.057,7.614,6l-13.1,15.413a9.19,9.19,0,0,1-1.752,1.59,13.069,13.069,0,0,1-7.105,1.8H124.135a36.474,36.474,0,0,0-4.208.244l-5.591.628-11.6-11.254s6.579-12.424,19.485-8.853a27.791,27.791,0,0,0,7.416.986h12.777c6.015,0,6.062,9.557-.05,9.557H131.243" transform="translate(-86.265 -196.36)" fill="#ffcdac"/>
      <path id="Trazado_141002" data-name="Trazado 141002" d="M28.907,340.433,39.94,329.113a.008.008,0,0,0,0-.011L21.219,310.934a.009.009,0,0,0-.011,0L10.07,322.5Zm0,0" transform="translate(-8.455 -260.661)" fill="#5cd8a0"/>
      <path id="Trazado_141003" data-name="Trazado 141003" d="M60,100.317a6.892,6.892,0,0,0-6.233,6.86v7.338a2.3,2.3,0,0,0,2.295,2.295H71.8a2.3,2.3,0,0,0,2.295-2.295v-7.338a6.891,6.891,0,0,0-6.242-6.861" transform="translate(-45.144 -83.813)" fill="#d2f6e6"/>
      <path id="Trazado_141004" data-name="Trazado 141004" d="M84.524,18.532a7.7,7.7,0,1,1-7.7-7.7A7.7,7.7,0,0,1,84.524,18.532Zm0,0" transform="translate(-58.041 -8.676)" fill="#d2f6e6"/>
      <path id="Trazado_141005" data-name="Trazado 141005" d="M186.765,100.317a6.893,6.893,0,0,0-6.234,6.86v7.338a2.3,2.3,0,0,0,2.3,2.295h15.735a2.3,2.3,0,0,0,2.295-2.295v-7.338a6.892,6.892,0,0,0-6.242-6.861" transform="translate(-151.586 -83.813)" fill="#f1d54e"/>
      <path id="Trazado_141006" data-name="Trazado 141006" d="M211.29,18.532a7.7,7.7,0,1,1-7.7-7.7A7.7,7.7,0,0,1,211.29,18.532Zm0,0" transform="translate(-164.483 -8.676)" fill="#f1d54e"/>
      <path id="Trazado_141007" data-name="Trazado 141007" d="M313.535,100.317a6.892,6.892,0,0,0-6.234,6.86v7.338a2.3,2.3,0,0,0,2.295,2.295H325.33a2.3,2.3,0,0,0,2.3-2.295v-7.338a6.892,6.892,0,0,0-6.242-6.861" transform="translate(-258.03 -83.813)" fill="#d2f6e6"/>
      <path id="Trazado_141008" data-name="Trazado 141008" d="M338.06,18.532a7.7,7.7,0,1,1-7.7-7.7A7.7,7.7,0,0,1,338.06,18.532Zm0,0" transform="translate(-270.927 -8.676)" fill="#d2f6e6"/>
      <path id="Trazado_141009" data-name="Trazado 141009" d="M80.15,225.954a7.435,7.435,0,0,0-4.586-1.921,6.565,6.565,0,0,0-5.044,1.92l-9.127,9.032a6.058,6.058,0,0,0-.618-.881,5.917,5.917,0,0,0-4.623-2.067H43.374a26.207,26.207,0,0,1-6.986-.928A17.188,17.188,0,0,0,20.355,234.5a23.32,23.32,0,0,0-4.175,4.482l-2.291-2.223a1.629,1.629,0,0,0-1.13-.458h-.011a1.632,1.632,0,0,0-1.158.5L.453,248.359a1.616,1.616,0,0,0,.049,2.29l18.837,17.936a1.614,1.614,0,0,0,2.27-.042l11.033-11.319a1.624,1.624,0,0,0-.032-2.3l-.961-.932,2.2-.247a34.947,34.947,0,0,1,4.022-.233h19.44a14.6,14.6,0,0,0,7.975-2.054l.053-.035a10.763,10.763,0,0,0,2.06-1.87l13.1-15.412A5.64,5.64,0,0,0,80.15,225.954ZM20.411,265.146,3.906,249.43,12.8,240.2l16.409,15.923Zm57.628-33.1-13.1,15.413a7.548,7.548,0,0,1-1.418,1.292,11.484,11.484,0,0,1-6.209,1.529H37.87a38.133,38.133,0,0,0-4.388.254l-4.834.542L18.527,241.26A20.14,20.14,0,0,1,22.4,237a13.9,13.9,0,0,1,13.13-2.782,29.433,29.433,0,0,0,7.847,1.045H56.151a2.917,2.917,0,0,1,2.907,3.162,3.5,3.5,0,0,1-.756,2.241,2.744,2.744,0,0,1-2.2.924H44.978a1.615,1.615,0,0,0,0,3.23H56.1a5.988,5.988,0,0,0,4.663-2.063,6.632,6.632,0,0,0,1.521-4.115l10.512-10.4a3.78,3.78,0,0,1,5.163.086C78.639,228.955,79.552,230.27,78.039,232.051Zm0,0" transform="translate(0 -187.686)" fill="#0a5936"/>
      <path id="Trazado_141010" data-name="Trazado 141010" d="M232.426,334.468a1.615,1.615,0,1,0-3.144.737l.015.066a1.616,1.616,0,0,0,1.571,1.246,1.634,1.634,0,0,0,.37-.043,1.615,1.615,0,0,0,1.2-1.941Zm0,0" transform="translate(-192.484 -279.377)"/>
      <path id="Trazado_141011" data-name="Trazado 141011" d="M47.6,34.57H63.336a3.886,3.886,0,0,0,2.295-.748,3.886,3.886,0,0,0,2.295.748H83.661a3.886,3.886,0,0,0,2.295-.748,3.886,3.886,0,0,0,2.295.748h15.735a3.914,3.914,0,0,0,3.909-3.91V23.322a8.467,8.467,0,0,0-4.605-7.571,9.315,9.315,0,1,0-14.343,0,8.459,8.459,0,0,0-2.991,2.564,8.443,8.443,0,0,0-2.991-2.564,9.315,9.315,0,1,0-14.343,0,8.443,8.443,0,0,0-2.991,2.564,8.451,8.451,0,0,0-2.991-2.565,9.314,9.314,0,1,0-14.343,0,8.468,8.468,0,0,0-4.606,7.571V30.66A3.915,3.915,0,0,0,47.6,34.57ZM96.118,3.73a6.085,6.085,0,1,1-6.085,6.085A6.092,6.092,0,0,1,96.118,3.73Zm-4.2,14.4a9.281,9.281,0,0,0,8.39,0,5.247,5.247,0,0,1,4.353,5.2V30.66a.681.681,0,0,1-.68.68H88.25a.681.681,0,0,1-.68-.68V23.322A5.247,5.247,0,0,1,91.923,18.127ZM75.793,3.73a6.085,6.085,0,1,1-6.085,6.085A6.092,6.092,0,0,1,75.793,3.73ZM71.6,18.127a9.281,9.281,0,0,0,8.39,0,5.247,5.247,0,0,1,4.353,5.2V30.66a.681.681,0,0,1-.68.68H67.926a.681.681,0,0,1-.68-.68V23.322A5.248,5.248,0,0,1,71.6,18.127ZM55.469,3.73a6.085,6.085,0,1,1-6.085,6.085A6.092,6.092,0,0,1,55.469,3.73ZM46.921,23.322a5.248,5.248,0,0,1,4.353-5.2,9.281,9.281,0,0,0,8.39,0,5.247,5.247,0,0,1,4.353,5.2V30.66a.681.681,0,0,1-.68.68H47.6a.681.681,0,0,1-.68-.68Zm0,0" transform="translate(-36.685)" fill="#0a5936"/>
    </g>
  </g>
</svg>
