<svg xmlns="http://www.w3.org/2000/svg" width="98" height="98" viewBox="0 0 98 98">
  <g id="Grupo_97914" data-name="Grupo 97914" transform="translate(-627 -5815)">
    <g id="Elipse_4506" data-name="Elipse 4506" transform="translate(627 5815)" fill="#fff" stroke="#0a5936" stroke-width="2">
      <circle cx="49" cy="49" r="49" stroke="none"/>
      <circle cx="49" cy="49" r="48" fill="none"/>
    </g>
    <g id="red" transform="translate(643.733 5831.733)">
      <g id="Grupo_97861" data-name="Grupo 97861" transform="translate(55.929 12.907)">
        <g id="Grupo_97860" data-name="Grupo 97860">
          <path id="Trazado_142178" data-name="Trazado 142178" d="M448.036,102.4a4.3,4.3,0,1,0,4.3,4.3A4.306,4.306,0,0,0,448.036,102.4Zm0,6.453a2.151,2.151,0,1,1,2.151-2.151A2.153,2.153,0,0,1,448.036,108.853Z" transform="translate(-443.734 -102.4)" fill="#0a5936"/>
        </g>
      </g>
      <g id="Grupo_97863" data-name="Grupo 97863" transform="translate(0 48.4)">
        <g id="Grupo_97862" data-name="Grupo 97862">
          <path id="Trazado_142179" data-name="Trazado 142179" d="M4.3,384a4.3,4.3,0,1,0,4.3,4.3A4.307,4.307,0,0,0,4.3,384Zm0,6.453A2.151,2.151,0,1,1,6.453,388.3,2.153,2.153,0,0,1,4.3,390.453Z" transform="translate(0 -384)" fill="#0a5936"/>
        </g>
      </g>
      <g id="Grupo_97865" data-name="Grupo 97865" transform="translate(47.324 9.679)">
        <g id="Grupo_97864" data-name="Grupo 97864">
          <path id="Trazado_142180" data-name="Trazado 142180" d="M386.284,81.379l-9.279-4.48a1.075,1.075,0,1,0-.935,1.937l9.279,4.48a1.075,1.075,0,0,0,.935-1.937Z" transform="translate(-375.463 -76.792)" fill="#0a5936"/>
        </g>
      </g>
      <g id="Grupo_97867" data-name="Grupo 97867" transform="translate(44.098 55.929)">
        <g id="Grupo_97866" data-name="Grupo 97866">
          <path id="Trazado_142181" data-name="Trazado 142181" d="M354.169,443.733a4.3,4.3,0,1,0,4.3,4.3A4.306,4.306,0,0,0,354.169,443.733Zm0,6.453a2.151,2.151,0,1,1,2.151-2.151A2.153,2.153,0,0,1,354.169,450.186Z" transform="translate(-349.867 -443.733)" fill="#0a5936"/>
        </g>
      </g>
      <g id="Grupo_97869" data-name="Grupo 97869" transform="translate(35.493 52.701)">
        <g id="Grupo_97868" data-name="Grupo 97868">
          <path id="Trazado_142182" data-name="Trazado 142182" d="M292.417,422.712l-9.279-4.48a1.075,1.075,0,1,0-.935,1.937l9.279,4.48a1.075,1.075,0,1,0,.935-1.937Z" transform="translate(-281.596 -418.124)" fill="#0a5936"/>
        </g>
      </g>
      <g id="Grupo_97871" data-name="Grupo 97871" transform="translate(27.965 29.04)">
        <g id="Grupo_97870" data-name="Grupo 97870">
          <path id="Trazado_142183" data-name="Trazado 142183" d="M226.169,230.4a4.3,4.3,0,1,0,4.3,4.3A4.307,4.307,0,0,0,226.169,230.4Zm0,6.453a2.151,2.151,0,1,1,2.151-2.151A2.153,2.153,0,0,1,226.169,236.853Z" transform="translate(-221.867 -230.4)" fill="#0a5936"/>
        </g>
      </g>
      <g id="Grupo_97873" data-name="Grupo 97873" transform="translate(21.511 24.739)">
        <g id="Grupo_97872" data-name="Grupo 97872">
          <path id="Trazado_142184" data-name="Trazado 142184" d="M179.529,202.053,172.4,196.5a1.076,1.076,0,0,0-1.323,1.7l7.128,5.555a1.076,1.076,0,1,0,1.323-1.7Z" transform="translate(-170.664 -196.272)" fill="#0a5936"/>
        </g>
      </g>
      <g id="Grupo_97875" data-name="Grupo 97875" transform="translate(39.796 27.965)">
        <g id="Grupo_97874" data-name="Grupo 97874">
          <path id="Trazado_142185" data-name="Trazado 142185" d="M327.564,221.867A11.831,11.831,0,1,0,339.4,233.7,11.845,11.845,0,0,0,327.564,221.867Zm0,21.511a9.68,9.68,0,1,1,9.68-9.68A9.69,9.69,0,0,1,327.564,243.378Z" transform="translate(-315.733 -221.867)" fill="#0a5936"/>
        </g>
      </g>
      <g id="Grupo_97877" data-name="Grupo 97877" transform="translate(47.325 32.267)">
        <g id="Grupo_97876" data-name="Grupo 97876">
          <path id="Trazado_142186" data-name="Trazado 142186" d="M379.769,256a4.3,4.3,0,1,0,4.3,4.3A4.307,4.307,0,0,0,379.769,256Zm0,6.453a2.151,2.151,0,1,1,2.151-2.151A2.153,2.153,0,0,1,379.769,262.453Z" transform="translate(-375.467 -256)" fill="#0a5936"/>
        </g>
      </g>
      <g id="Grupo_97879" data-name="Grupo 97879" transform="translate(45.174 43.022)">
        <g id="Grupo_97878" data-name="Grupo 97878">
          <path id="Trazado_142187" data-name="Trazado 142187" d="M367.974,341.333h-6.24a3.293,3.293,0,0,0-3.333,3.243v2.835a1.076,1.076,0,0,0,.537.931,11.771,11.771,0,0,0,11.833,0,1.075,1.075,0,0,0,.537-.93v-2.835A3.293,3.293,0,0,0,367.974,341.333Zm1.182,5.437a9.753,9.753,0,0,1-8.6,0v-2.193a1.141,1.141,0,0,1,1.182-1.093h6.24a1.141,1.141,0,0,1,1.182,1.093v2.193Z" transform="translate(-358.4 -341.333)" fill="#0a5936"/>
        </g>
      </g>
      <g id="Grupo_97881" data-name="Grupo 97881" transform="translate(13.982 40.871)">
        <g id="Grupo_97880" data-name="Grupo 97880">
          <path id="Trazado_142188" data-name="Trazado 142188" d="M122.764,324.267A11.831,11.831,0,1,0,134.6,336.1,11.845,11.845,0,0,0,122.764,324.267Zm0,21.511a9.68,9.68,0,1,1,9.68-9.68A9.69,9.69,0,0,1,122.764,345.778Z" transform="translate(-110.933 -324.267)" fill="#0a5936"/>
        </g>
      </g>
      <g id="Grupo_97883" data-name="Grupo 97883" transform="translate(21.511 45.174)">
        <g id="Grupo_97882" data-name="Grupo 97882">
          <path id="Trazado_142189" data-name="Trazado 142189" d="M174.969,358.4a4.3,4.3,0,1,0,4.3,4.3A4.307,4.307,0,0,0,174.969,358.4Zm0,6.453a2.151,2.151,0,1,1,2.151-2.151A2.153,2.153,0,0,1,174.969,364.853Z" transform="translate(-170.667 -358.4)" fill="#0a5936"/>
        </g>
      </g>
      <g id="Grupo_97885" data-name="Grupo 97885" transform="translate(19.36 55.929)">
        <g id="Grupo_97884" data-name="Grupo 97884">
          <path id="Trazado_142190" data-name="Trazado 142190" d="M163.174,443.733h-6.24a3.293,3.293,0,0,0-3.333,3.243v2.835a1.076,1.076,0,0,0,.537.931,11.771,11.771,0,0,0,11.833,0,1.074,1.074,0,0,0,.537-.93v-2.835A3.293,3.293,0,0,0,163.174,443.733Zm1.182,5.437a9.753,9.753,0,0,1-8.6,0v-2.193a1.141,1.141,0,0,1,1.182-1.093h6.24a1.141,1.141,0,0,1,1.182,1.093v2.193Z" transform="translate(-153.6 -443.733)" fill="#0a5936"/>
        </g>
      </g>
      <g id="Grupo_97887" data-name="Grupo 97887" transform="translate(0 13.982)">
        <g id="Grupo_97886" data-name="Grupo 97886">
          <path id="Trazado_142191" data-name="Trazado 142191" d="M11.831,110.933a11.831,11.831,0,1,0,11.831,11.831A11.845,11.845,0,0,0,11.831,110.933Zm0,21.511a9.68,9.68,0,1,1,9.68-9.68A9.69,9.69,0,0,1,11.831,132.444Z" transform="translate(0 -110.933)" fill="#0a5936"/>
        </g>
      </g>
      <g id="Grupo_97889" data-name="Grupo 97889" transform="translate(7.529 18.285)">
        <g id="Grupo_97888" data-name="Grupo 97888">
          <path id="Trazado_142192" data-name="Trazado 142192" d="M64.036,145.067a4.3,4.3,0,1,0,4.3,4.3A4.307,4.307,0,0,0,64.036,145.067Zm0,6.453a2.151,2.151,0,1,1,2.151-2.151A2.153,2.153,0,0,1,64.036,151.52Z" transform="translate(-59.734 -145.067)" fill="#0a5936"/>
        </g>
      </g>
      <g id="Grupo_97891" data-name="Grupo 97891" transform="translate(5.378 29.04)">
        <g id="Grupo_97890" data-name="Grupo 97890">
          <path id="Trazado_142193" data-name="Trazado 142193" d="M52.241,230.4H46a3.293,3.293,0,0,0-3.333,3.243v2.835a1.076,1.076,0,0,0,.537.931,11.771,11.771,0,0,0,11.833,0,1.075,1.075,0,0,0,.537-.93v-2.835A3.293,3.293,0,0,0,52.241,230.4Zm1.182,5.437a9.753,9.753,0,0,1-8.6,0v-2.193A1.141,1.141,0,0,1,46,232.551h6.24a1.141,1.141,0,0,1,1.182,1.093v2.193Z" transform="translate(-42.667 -230.4)" fill="#0a5936"/>
        </g>
      </g>
      <g id="Grupo_97893" data-name="Grupo 97893" transform="translate(25.813)">
        <g id="Grupo_97892" data-name="Grupo 97892">
          <path id="Trazado_142194" data-name="Trazado 142194" d="M216.631,0a11.831,11.831,0,1,0,11.831,11.831A11.845,11.845,0,0,0,216.631,0Zm0,21.511a9.68,9.68,0,1,1,9.68-9.68A9.69,9.69,0,0,1,216.631,21.511Z" transform="translate(-204.8)" fill="#0a5936"/>
        </g>
      </g>
      <g id="Grupo_97895" data-name="Grupo 97895" transform="translate(33.342 4.302)">
        <g id="Grupo_97894" data-name="Grupo 97894">
          <path id="Trazado_142195" data-name="Trazado 142195" d="M268.836,34.133a4.3,4.3,0,1,0,4.3,4.3A4.307,4.307,0,0,0,268.836,34.133Zm0,6.453a2.151,2.151,0,1,1,2.151-2.151A2.153,2.153,0,0,1,268.836,40.586Z" transform="translate(-264.534 -34.133)" fill="#0a5936"/>
        </g>
      </g>
      <g id="Grupo_97897" data-name="Grupo 97897" transform="translate(31.191 15.058)">
        <g id="Grupo_97896" data-name="Grupo 97896">
          <path id="Trazado_142196" data-name="Trazado 142196" d="M257.041,119.467H250.8a3.293,3.293,0,0,0-3.333,3.243v2.835a1.076,1.076,0,0,0,.537.931,11.771,11.771,0,0,0,11.833,0,1.075,1.075,0,0,0,.537-.93v-2.835A3.293,3.293,0,0,0,257.041,119.467Zm1.182,5.437a9.753,9.753,0,0,1-8.6,0v-2.193a1.141,1.141,0,0,1,1.182-1.093h6.24a1.141,1.141,0,0,1,1.182,1.093V124.9Z" transform="translate(-247.467 -119.467)" fill="#0a5936"/>
        </g>
      </g>
      <g id="Grupo_97899" data-name="Grupo 97899" transform="translate(18.361 10.756)">
        <g id="Grupo_97898" data-name="Grupo 97898">
          <path id="Trazado_142197" data-name="Trazado 142197" d="M155.018,85.709a1.077,1.077,0,0,0-1.517-.117l-7.454,6.378a1.075,1.075,0,1,0,1.4,1.634l7.454-6.378A1.075,1.075,0,0,0,155.018,85.709Z" transform="translate(-145.671 -85.333)" fill="#0a5936"/>
        </g>
      </g>
      <g id="Grupo_97901" data-name="Grupo 97901" transform="translate(43.022 19.361)">
        <g id="Grupo_97900" data-name="Grupo 97900">
          <path id="Trazado_142198" data-name="Trazado 142198" d="M349.722,162.645l-6.453-8.6a1.075,1.075,0,0,0-1.721,1.29l6.453,8.6a1.075,1.075,0,0,0,1.721-1.29Z" transform="translate(-341.333 -153.61)" fill="#0a5936"/>
        </g>
      </g>
      <g id="Grupo_97903" data-name="Grupo 97903" transform="translate(34.641 42.922)">
        <g id="Grupo_97902" data-name="Grupo 97902">
          <path id="Trazado_142199" data-name="Trazado 142199" d="M282.777,340.97a1.076,1.076,0,0,0-1.506-.215l-6.008,4.505a1.075,1.075,0,0,0,1.291,1.72l6.008-4.506A1.074,1.074,0,0,0,282.777,340.97Z" transform="translate(-274.833 -340.54)" fill="#0a5936"/>
        </g>
      </g>
      <g id="Grupo_97905" data-name="Grupo 97905" transform="translate(6.453 51.627)">
        <g id="Grupo_97904" data-name="Grupo 97904">
          <path id="Trazado_142200" data-name="Trazado 142200" d="M59.8,409.6H52.276a1.076,1.076,0,0,0,0,2.151H59.8a1.076,1.076,0,0,0,0-2.151Z" transform="translate(-51.2 -409.6)" fill="#0a5936"/>
        </g>
      </g>
      <g id="Grupo_97907" data-name="Grupo 97907" transform="translate(7.529)">
        <g id="Grupo_97906" data-name="Grupo 97906">
          <path id="Trazado_142201" data-name="Trazado 142201" d="M64.035,0a4.3,4.3,0,1,0,4.3,4.3A4.307,4.307,0,0,0,64.035,0Zm0,6.453A2.151,2.151,0,1,1,66.187,4.3,2.153,2.153,0,0,1,64.035,6.453Z" transform="translate(-59.733)" fill="#0a5936"/>
        </g>
      </g>
      <g id="Grupo_97909" data-name="Grupo 97909" transform="translate(10.756 6.453)">
        <g id="Grupo_97908" data-name="Grupo 97908">
          <path id="Trazado_142202" data-name="Trazado 142202" d="M86.41,51.2a1.075,1.075,0,0,0-1.076,1.076V59.8a1.076,1.076,0,0,0,2.151,0V52.276A1.075,1.075,0,0,0,86.41,51.2Z" transform="translate(-85.334 -51.2)" fill="#0a5936"/>
        </g>
      </g>
    </g>
  </g>
</svg>
