<svg xmlns="http://www.w3.org/2000/svg" width="98" height="98" viewBox="0 0 98 98">
  <g id="Grupo_97916" data-name="Grupo 97916" transform="translate(-1008 -5968)">
    <g id="Elipse_4508" data-name="Elipse 4508" transform="translate(1008 5968)" fill="#fff" stroke="#0a5936" stroke-width="2">
      <circle cx="49" cy="49" r="49" stroke="none"/>
      <circle cx="49" cy="49" r="48" fill="none"/>
    </g>
    <g id="idea-genial" transform="translate(1026.245 5979.737)">
      <g id="Grupo_97912" data-name="Grupo 97912" transform="translate(0 0.263)">
        <g id="Grupo_97911" data-name="Grupo 97911" transform="translate(0 0)">
          <path id="Trazado_142206" data-name="Trazado 142206" d="M242.683,56.89a.934.934,0,0,0,.988-.988V53.431a.988.988,0,0,0-1.976,0V55.9A.934.934,0,0,0,242.683,56.89Z" transform="translate(-209.971 -45.594)" fill="#0a5936"/>
          <path id="Trazado_142207" data-name="Trazado 142207" d="M267.111,66.74l1.68-1.779a.981.981,0,0,0-1.482-1.285l-1.68,1.779a.961.961,0,0,0,.1,1.384A1.058,1.058,0,0,0,267.111,66.74Z" transform="translate(-230.544 -55.048)" fill="#0a5936"/>
          <path id="Trazado_142208" data-name="Trazado 142208" d="M206.975,66.74a.981.981,0,0,0,1.482-1.285l-1.581-1.779a.981.981,0,0,0-1.482,1.285Z" transform="translate(-178.215 -55.048)" fill="#0a5936"/>
          <path id="Trazado_142209" data-name="Trazado 142209" d="M160.894,28.063H160.1a1.561,1.561,0,0,0-1.581,1.581v4.348a1.561,1.561,0,0,0,1.581,1.581h2.668v1.087h-1.186a.99.99,0,0,0-.988.988.934.934,0,0,0,.988.988h1.285a3.081,3.081,0,0,0,2.965,2.372h1.581a2.98,2.98,0,0,0,2.965-2.372h1.285a.99.99,0,0,0,.988-.988.934.934,0,0,0-.988-.988H170.48V35.574h2.668a1.561,1.561,0,0,0,1.581-1.581V29.645a1.561,1.561,0,0,0-1.581-1.581h-.791a11.976,11.976,0,0,1,3.261-6.72,12.517,12.517,0,0,0,3.558-8.7A12.476,12.476,0,0,0,165.835.292a12.677,12.677,0,0,0-11.761,11.266,12.574,12.574,0,0,0,3.558,9.883A11.41,11.41,0,0,1,160.894,28.063Zm7.61,9.784a1.1,1.1,0,0,1-1.087,1.087h-1.581a1.1,1.1,0,0,1-1.087-1.087V35.475H168.5v2.372Zm4.151-7.906V33.4c-9.191,0-11.958.1-12.156.1V30.04S162.277,30.04,172.654,29.941Zm-7.313-14.33a1.016,1.016,0,0,1,1.087-.988,1.082,1.082,0,0,1,1.087.988,1.016,1.016,0,0,1-1.087.988A1.082,1.082,0,0,1,165.341,15.611Zm-9.389-3.953a10.581,10.581,0,0,1,9.883-9.487h.593A10.483,10.483,0,0,1,177,12.547a10.15,10.15,0,0,1-2.965,7.313,13.841,13.841,0,0,0-3.854,8.1h-2.767V18.378a3.016,3.016,0,1,0-1.878,0v9.586h-2.569a12.914,12.914,0,0,0-3.953-8.005A10,10,0,0,1,155.952,11.658Z" transform="translate(-133.815 -0.263)" fill="#0a5936"/>
          <path id="Trazado_142210" data-name="Trazado 142210" d="M15.22,336.113H11.563a5.859,5.859,0,0,0,4.546-5.831,6.052,6.052,0,0,0-6.028-6.028,5.99,5.99,0,0,0-6.028,6.028A6.137,6.137,0,0,0,8.6,336.113H4.941A4.956,4.956,0,0,0,0,341.055V345.9a.934.934,0,0,0,.988.988H19.173a.934.934,0,0,0,.988-.988v-4.843A4.956,4.956,0,0,0,15.22,336.113Zm-9.191-5.831a4.07,4.07,0,0,1,4.052-4.052,4.052,4.052,0,1,1,0,8.1A4.136,4.136,0,0,1,6.028,330.283ZM1.977,344.909v-3.854a2.973,2.973,0,0,1,2.965-2.965H15.121a2.973,2.973,0,0,1,2.965,2.965v3.854Z" transform="translate(0 -281.728)" fill="#0a5936"/>
          <path id="Trazado_142211" data-name="Trazado 142211" d="M186.891,336.113h-3.657a5.859,5.859,0,0,0,4.546-5.831,6.052,6.052,0,0,0-6.028-6.028,5.99,5.99,0,0,0-6.029,6.028,6.137,6.137,0,0,0,4.546,5.831h-3.657a4.956,4.956,0,0,0-4.941,4.941V345.9a.934.934,0,0,0,.988.988h18.184a.934.934,0,0,0,.988-.988v-4.843A4.956,4.956,0,0,0,186.891,336.113Zm-9.191-5.831a4.07,4.07,0,0,1,4.052-4.052,4.052,4.052,0,1,1,0,8.1A4.07,4.07,0,0,1,177.7,330.283Zm-4.052,14.627v-3.854a2.973,2.973,0,0,1,2.965-2.965h10.179a2.973,2.973,0,0,1,2.965,2.965v3.854Z" transform="translate(-149.138 -281.728)" fill="#0a5936"/>
          <path id="Trazado_142212" data-name="Trazado 142212" d="M358.561,336.113H354.9a5.859,5.859,0,0,0,4.546-5.831,6.052,6.052,0,0,0-6.029-6.028,5.99,5.99,0,0,0-6.028,6.028,6.137,6.137,0,0,0,4.546,5.831h-3.657a4.956,4.956,0,0,0-4.941,4.941V345.9a.934.934,0,0,0,.988.988h18.184a.934.934,0,0,0,.988-.988v-4.843A4.956,4.956,0,0,0,358.561,336.113Zm-9.191-5.831a4.07,4.07,0,0,1,4.052-4.052,4.052,4.052,0,0,1,0,8.1A4.136,4.136,0,0,1,349.37,330.283Zm12.156,14.627H345.318v-3.854a2.973,2.973,0,0,1,2.965-2.965h10.278a2.973,2.973,0,0,1,2.965,2.965Z" transform="translate(-298.275 -281.728)" fill="#0a5936"/>
          <path id="Trazado_142213" data-name="Trazado 142213" d="M64.988,91.006a.934.934,0,0,0,.988-.988l.1-28.067H72.6a.988.988,0,1,0,0-1.976H65.087a.99.99,0,0,0-.988.988L64,90.018A.934.934,0,0,0,64.988,91.006Z" transform="translate(-55.6 -52.136)" fill="#0a5936"/>
          <path id="Trazado_142214" data-name="Trazado 142214" d="M360.893,62.7h6.523V90.769a.988.988,0,1,0,1.976,0V61.713a.934.934,0,0,0-.988-.988h-7.511a.988.988,0,0,0,0,1.977Z" transform="translate(-312.665 -52.789)" fill="#0a5936"/>
        </g>
      </g>
    </g>
  </g>
</svg>
