<svg xmlns="http://www.w3.org/2000/svg" width="91.395" height="71.363" viewBox="0 0 91.395 71.363">
  <g id="table" transform="translate(0 -56)">
    <path id="Trazado_142242" data-name="Trazado 142242" d="M33.341,218.683h4.293a1.341,1.341,0,0,0,0-2.683H33.341a1.341,1.341,0,1,0,0,2.683Z" transform="translate(-26.277 -131.383)"/>
    <path id="Trazado_142243" data-name="Trazado 142243" d="M33.341,154.683H63.389a1.341,1.341,0,1,0,0-2.683H33.341a1.341,1.341,0,1,0,0,2.683Z" transform="translate(-26.277 -78.83)"/>
    <path id="Trazado_142244" data-name="Trazado 142244" d="M233.341,154.683h5.723a1.341,1.341,0,0,0,0-2.683h-5.723a1.341,1.341,0,0,0,0,2.683Z" transform="translate(-190.506 -78.83)"/>
    <path id="Trazado_142245" data-name="Trazado 142245" d="M369.341,154.683h17.17a1.341,1.341,0,0,0,0-2.683h-17.17a1.341,1.341,0,1,0,0,2.683Z" transform="translate(-302.181 -78.83)"/>
    <path id="Trazado_142246" data-name="Trazado 142246" d="M369.341,216a1.343,1.343,0,1,0,.948.393A1.346,1.346,0,0,0,369.341,216Z" transform="translate(-302.181 -131.383)"/>
    <path id="Trazado_142247" data-name="Trazado 142247" d="M370.289,280.393a1.339,1.339,0,1,0,.393.948A1.346,1.346,0,0,0,370.289,280.393Z" transform="translate(-302.181 -183.936)"/>
    <path id="Trazado_142248" data-name="Trazado 142248" d="M369.341,344a1.343,1.343,0,1,0,.948.393A1.346,1.346,0,0,0,369.341,344Z" transform="translate(-302.181 -236.49)"/>
    <path id="Trazado_142249" data-name="Trazado 142249" d="M401.341,344a1.343,1.343,0,1,0,.948.393A1.343,1.343,0,0,0,401.341,344Z" transform="translate(-328.458 -236.49)"/>
    <path id="Trazado_142250" data-name="Trazado 142250" d="M369.341,408a1.343,1.343,0,1,0,.948.393A1.346,1.346,0,0,0,369.341,408Z" transform="translate(-302.181 -289.043)"/>
    <path id="Trazado_142251" data-name="Trazado 142251" d="M401.341,408a1.343,1.343,0,1,0,.948.393A1.346,1.346,0,0,0,401.341,408Z" transform="translate(-328.458 -289.043)"/>
    <path id="Trazado_142252" data-name="Trazado 142252" d="M434.289,344.393a1.339,1.339,0,1,0,.393.948A1.346,1.346,0,0,0,434.289,344.393Z" transform="translate(-354.734 -236.49)"/>
    <path id="Trazado_142253" data-name="Trazado 142253" d="M402.289,216.393a1.339,1.339,0,1,0,.393.948A1.343,1.343,0,0,0,402.289,216.393Z" transform="translate(-328.458 -131.383)"/>
    <path id="Trazado_142254" data-name="Trazado 142254" d="M37.634,408H33.341a1.341,1.341,0,1,0,0,2.683h4.293a1.341,1.341,0,1,0,0-2.683Z" transform="translate(-26.277 -289.043)"/>
    <path id="Trazado_142255" data-name="Trazado 142255" d="M137.341,90.683H177.4a1.341,1.341,0,0,0,0-2.683H137.341a1.341,1.341,0,0,0,0,2.683Z" transform="translate(-111.676 -26.277)"/>
    <path id="Trazado_142256" data-name="Trazado 142256" d="M33.341,282.683h4.293a1.341,1.341,0,1,0,0-2.683H33.341a1.341,1.341,0,1,0,0,2.683Z" transform="translate(-26.277 -183.936)"/>
    <path id="Trazado_142257" data-name="Trazado 142257" d="M37.634,344H33.341a1.341,1.341,0,1,0,0,2.683h4.293a1.341,1.341,0,1,0,0-2.683Z" transform="translate(-26.277 -236.49)"/>
    <path id="Trazado_142258" data-name="Trazado 142258" d="M196.2,344h-2.862a1.341,1.341,0,1,0,0,2.683H196.2a1.341,1.341,0,1,0,0-2.683Z" transform="translate(-157.66 -236.49)"/>
    <path id="Trazado_142259" data-name="Trazado 142259" d="M193.341,410.683H196.2a1.341,1.341,0,1,0,0-2.683h-2.862a1.341,1.341,0,1,0,0,2.683Z" transform="translate(-157.66 -289.043)"/>
    <path id="Trazado_142260" data-name="Trazado 142260" d="M196.2,280h-2.862a1.341,1.341,0,1,0,0,2.683H196.2a1.341,1.341,0,1,0,0-2.683Z" transform="translate(-157.66 -183.936)"/>
    <path id="Trazado_142261" data-name="Trazado 142261" d="M193.341,218.683H196.2a1.341,1.341,0,1,0,0-2.683h-2.862a1.341,1.341,0,1,0,0,2.683Z" transform="translate(-157.66 -131.383)"/>
    <path id="Trazado_142262" data-name="Trazado 142262" d="M241.341,218.683h5.723a1.341,1.341,0,1,0,0-2.683h-5.723a1.341,1.341,0,0,0,0,2.683Z" transform="translate(-197.075 -131.383)"/>
    <path id="Trazado_142263" data-name="Trazado 142263" d="M251.357,280H241.341a1.341,1.341,0,1,0,0,2.683h10.016a1.341,1.341,0,1,0,0-2.683Z" transform="translate(-197.075 -183.936)"/>
    <path id="Trazado_142264" data-name="Trazado 142264" d="M244.2,344h-2.862a1.341,1.341,0,0,0,0,2.683H244.2a1.341,1.341,0,1,0,0-2.683Z" transform="translate(-197.075 -236.49)"/>
    <path id="Trazado_142265" data-name="Trazado 142265" d="M241.341,410.683h5.723a1.341,1.341,0,1,0,0-2.683h-5.723a1.341,1.341,0,1,0,0,2.683Z" transform="translate(-197.075 -289.043)"/>
    <path id="Trazado_142266" data-name="Trazado 142266" d="M84.33,56H7.065A7.073,7.073,0,0,0,0,63.065V120.3a7.073,7.073,0,0,0,7.065,7.065H84.33A7.073,7.073,0,0,0,91.4,120.3V63.065A7.073,7.073,0,0,0,84.33,56ZM31.3,113.234V104.47H60.1v8.764Zm28.8,2.683v8.764H31.3v-8.764ZM88.712,70.13v8.764H62.778V70.13ZM60.1,81.576V90.34H31.3V81.576ZM28.617,90.34H2.683V81.576H28.617Zm0,2.683v8.764H2.683V93.023Zm2.683,0H60.1v8.764H31.3Zm31.479,0H88.712v8.764H62.778Zm0-2.683V81.576H88.712V90.34ZM60.1,78.893H2.683V70.13H60.1ZM2.683,104.47H28.617v8.764H2.683Zm60.1,0H88.712v8.764H62.778ZM7.065,58.683H84.33a4.387,4.387,0,0,1,4.382,4.382v4.382H2.683V63.065A4.387,4.387,0,0,1,7.065,58.683ZM2.683,120.3v-4.382H28.617v8.764H7.065A4.387,4.387,0,0,1,2.683,120.3ZM84.33,124.68H62.778v-8.764H88.712V120.3A4.387,4.387,0,0,1,84.33,124.68Z"/>
  </g>
</svg>
