<svg xmlns="http://www.w3.org/2000/svg" width="83" height="83" viewBox="0 0 83 83">
  <g id="Grupo_99307" data-name="Grupo 99307" transform="translate(5099 5022)">
    <g id="Grupo_97955" data-name="Grupo 97955" transform="translate(11 -107)">
      <rect id="Rectángulo_33263" data-name="Rectángulo 33263" width="83" height="83" rx="7" transform="translate(-5110 -4915)" fill="#fff"/>
      <g id="idea-genial_1_" data-name="idea-genial (1)" transform="translate(-5095.304 -4897.709)">
        <path id="Trazado_142215" data-name="Trazado 142215" d="M23.434,262.952a7.093,7.093,0,0,0-4.786,1.966,6.421,6.421,0,0,0-.179,9.31c1.044,1.039,1.293,1.415,1.148,2.448a.921.921,0,0,0,.206.715.891.891,0,0,0,.654.321h0l6.071-.048a.887.887,0,0,0,.857-1c-.145-1.049.081-1.319,1.173-2.4a.089.089,0,0,0,.008-.01,6.576,6.576,0,0,0,1.927-4.608,6.51,6.51,0,0,0-1.975-4.66A7.069,7.069,0,0,0,23.434,262.952Zm3.918,10.074a4.353,4.353,0,0,0-1.706,2.882l-4.267.017A4.452,4.452,0,0,0,19.692,273a4.754,4.754,0,0,1-1.4-3.444,5.208,5.208,0,0,1,5.164-4.865h.083a5.335,5.335,0,0,1,3.779,1.527,4.783,4.783,0,0,1,1.458,3.422A4.848,4.848,0,0,1,27.352,273.025Zm0,0" transform="translate(-14.762 -234.407)"/>
        <path id="Trazado_142216" data-name="Trazado 142216" d="M72.892,221.531a.868.868,0,0,0-.868.868V224.8a.868.868,0,1,0,1.736,0V222.4A.868.868,0,0,0,72.892,221.531Zm0,0" transform="translate(-64.208 -197.482)"/>
        <path id="Trazado_142217" data-name="Trazado 142217" d="M131.088,254.442l-1.86,1.669a.868.868,0,0,0,1.159,1.292l1.86-1.668a.868.868,0,1,0-1.159-1.292Zm0,0" transform="translate(-114.948 -226.621)"/>
        <path id="Trazado_142218" data-name="Trazado 142218" d="M2.64,255.292a.868.868,0,0,0,.6-1.493l-1.782-1.718a.868.868,0,0,0-1.2,1.25l1.783,1.718A.866.866,0,0,0,2.64,255.292Zm0,0" transform="translate(0 -224.51)"/>
        <path id="Trazado_142219" data-name="Trazado 142219" d="M58.426,404.864a.868.868,0,0,0-.868-.868H52.892a.868.868,0,0,0-.868.868v2.713a.868.868,0,0,0,.868.868h4.666a.868.868,0,0,0,.868-.868Zm-1.845,1.953H53.76v-1.085h2.821Zm0,0" transform="translate(-46.378 -360.148)"/>
        <path id="Trazado_142220" data-name="Trazado 142220" d="M303.827,334.17a3.34,3.34,0,1,0-3.257,0,5.186,5.186,0,0,0-3.547,4.9v.762a.92.92,0,0,0,.9.9h8.6a.849.849,0,0,0,.814-.9v-.762A5.149,5.149,0,0,0,303.827,334.17Zm-1.606-4.555a1.622,1.622,0,1,1-1.622,1.622,1.622,1.622,0,0,1,1.622-1.622Zm-3.428,9.377a3.429,3.429,0,0,1,6.855,0Zm0,0" transform="translate(-264.793 -292.322)"/>
        <path id="Trazado_142221" data-name="Trazado 142221" d="M103.378,16.33a.892.892,0,0,0,.029.9l4.007,6.3a.867.867,0,0,0,1.464.005l4.007-6.289a.918.918,0,0,0,.029-.91.9.9,0,0,0-.761-.478h-3.12A18.8,18.8,0,0,0,71.672,18.82a.868.868,0,1,0,1.736.01,17.062,17.062,0,0,1,33.866-2.977h-3.135A.894.894,0,0,0,103.378,16.33Zm4.906,1.258h2.286l-2.425,3.806-2.425-3.806Zm0,0" transform="translate(-63.895)"/>
        <path id="Trazado_142222" data-name="Trazado 142222" d="M405.806,333.846a3.358,3.358,0,1,0-3.255,0,5.169,5.169,0,0,0-3.528,4.9v.762a.886.886,0,0,0,.86.9h8.595a.882.882,0,0,0,.854-.9v-.762A5.167,5.167,0,0,0,405.806,333.846Zm-1.626-4.555a1.622,1.622,0,1,1-1.622,1.622A1.622,1.622,0,0,1,404.18,329.29Zm-3.427,9.377a3.429,3.429,0,0,1,6.855,0Zm0,0" transform="translate(-355.724 -291.998)"/>
        <path id="Trazado_142223" data-name="Trazado 142223" d="M202.792,333.619a3.371,3.371,0,1,0-3.254,0,5.157,5.157,0,0,0-3.514,4.9v.762a.863.863,0,0,0,.831.9h8.595a.905.905,0,0,0,.883-.9v-.762A5.179,5.179,0,0,0,202.792,333.619Zm-1.64-4.555a1.622,1.622,0,1,1-1.623,1.622A1.622,1.622,0,0,1,201.152,329.064Zm-3.428,9.377a3.429,3.429,0,0,1,6.855,0Zm0,0" transform="translate(-174.753 -291.771)"/>
      </g>
    </g>
  </g>
</svg>
