<svg xmlns="http://www.w3.org/2000/svg" width="83" height="83" viewBox="0 0 83 83">
  <g id="Grupo_99308" data-name="Grupo 99308" transform="translate(4922 5022)">
    <g id="Grupo_97956" data-name="Grupo 97956" transform="translate(29 -107)">
      <rect id="Rectángulo_33264" data-name="Rectángulo 33264" width="83" height="83" rx="7" transform="translate(-4951 -4915)" fill="#fff"/>
      <g id="pescado" transform="translate(-4928.5 -4894.862)">
        <path id="Trazado_142224" data-name="Trazado 142224" d="M41.087,0H19.174a.913.913,0,0,0-.646,1.559L28.839,11.87l-4.187,4.187L17.993,9.4A.913.913,0,0,0,16.7,10.689l6.659,6.659L21,19.709,14.341,13.05a.913.913,0,0,0-1.291,1.291L19.709,21l-2.361,2.361-4.833-4.833a.913.913,0,0,0-1.291,1.291l4.833,4.833L13.7,27.013l-3.007-3.007A.913.913,0,0,0,9.4,25.3L12.4,28.3,8.217,32.492,1.559,25.833A.913.913,0,0,0,0,26.478V41.087A.913.913,0,0,0,.913,42H15.522a.913.913,0,0,0,.646-1.559L9.508,33.783,13.7,29.6,16.7,32.6a.913.913,0,0,0,1.291-1.291L14.987,28.3l2.361-2.361,4.833,4.833a.913.913,0,0,0,1.291-1.291l-4.833-4.833L21,22.291l6.659,6.659a.913.913,0,1,0,1.291-1.291L22.291,21l2.361-2.361L31.311,25.3A.913.913,0,0,0,32.6,24.007l-6.659-6.659,4.187-4.187L40.441,23.472a.914.914,0,0,0,.646.267.9.9,0,0,0,.35-.07A.913.913,0,0,0,42,22.826V.913A.914.914,0,0,0,41.087,0ZM1.826,40.174V28.682L13.318,40.174ZM40.174,20.622l-18.8-18.8h18.8Zm0,0"/>
        <path id="Trazado_142225" data-name="Trazado 142225" d="M291.652,49.826A1.826,1.826,0,1,1,289.826,48,1.826,1.826,0,0,1,291.652,49.826Zm0,0" transform="translate(-255.13 -42.522)"/>
      </g>
    </g>
  </g>
</svg>
