<svg xmlns="http://www.w3.org/2000/svg" width="152" height="153" viewBox="0 0 152 153">
  <g id="Grupo_97406" data-name="Grupo 97406" transform="translate(-468 -944)">
    <ellipse id="Elipse_4192" data-name="Elipse 4192" cx="76" cy="76.5" rx="76" ry="76.5" transform="translate(468 944)" fill="#fff"/>
    <g id="votacion" transform="translate(502.959 980)">
      <g id="Grupo_97405" data-name="Grupo 97405" transform="translate(1.237 1.196)">
        <g id="Grupo_97399" data-name="Grupo 97399" transform="translate(0.358 0.201)">
          <path id="Trazado_141650" data-name="Trazado 141650" d="M313.821,44.377H299.794a1.592,1.592,0,0,1-1.555-1.247A22.564,22.564,0,0,0,292.7,32.659q-.51-.553-1.061-1.067a22.827,22.827,0,0,0-10.457-5.637,1.593,1.593,0,0,1-1.235-1.552l0-14.05a1.6,1.6,0,0,1,1.829-1.579A39.6,39.6,0,0,1,315.4,42.556a1.6,1.6,0,0,1-1.579,1.821Z" transform="translate(-236.859 -8.757)" fill="#98d5b9"/>
          <path id="Trazado_141651" data-name="Trazado 141651" d="M45.246,10.353V24.39a1.593,1.593,0,0,1-1.239,1.554,22.569,22.569,0,0,0-10.261,5.415q-.766.7-1.464,1.474a22.584,22.584,0,0,0-5.326,10.294,1.594,1.594,0,0,1-1.557,1.25H11.377A1.6,1.6,0,0,1,9.8,42.554a39.287,39.287,0,0,1,1.951-7.943A39.615,39.615,0,0,1,43.416,8.774a1.6,1.6,0,0,1,1.829,1.579Z" transform="translate(-9.783 -8.757)" fill="#fd9468"/>
        </g>
        <g id="Grupo_97400" data-name="Grupo 97400" transform="translate(0.358 43.451)">
          <path id="Trazado_141652" data-name="Trazado 141652" d="M315.4,281.741a39.3,39.3,0,0,1-1.951,7.945,39.615,39.615,0,0,1-31.667,25.838,1.6,1.6,0,0,1-1.829-1.579l0-14.05a1.593,1.593,0,0,1,1.235-1.552,22.827,22.827,0,0,0,10.457-5.637q.55-.514,1.061-1.067a22.564,22.564,0,0,0,5.536-10.471,1.592,1.592,0,0,1,1.555-1.247h14.026A1.6,1.6,0,0,1,315.4,281.741Z" transform="translate(-236.859 -279.92)" fill="#fe646f"/>
          <path id="Trazado_141653" data-name="Trazado 141653" d="M45.246,299.907v14.038a1.6,1.6,0,0,1-1.829,1.579A39.6,39.6,0,0,1,9.8,281.742a1.6,1.6,0,0,1,1.579-1.822H25.4a1.593,1.593,0,0,1,1.557,1.25,22.584,22.584,0,0,0,5.326,10.294q.7.77,1.464,1.474a22.569,22.569,0,0,0,10.261,5.415A1.593,1.593,0,0,1,45.246,299.907Z" transform="translate(-9.783 -279.92)" fill="#f1d54e"/>
        </g>
        <g id="Grupo_97401" data-name="Grupo 97401" transform="translate(52.999 52.999)">
          <path id="Trazado_141654" data-name="Trazado 141654" d="M363.77,340a39.742,39.742,0,0,1-23.707,23.837,9.128,9.128,0,0,1-.242-2.091V348.873a9.055,9.055,0,0,1,2.142-5.855,9.181,9.181,0,0,1,1.061-1.067,9.06,9.06,0,0,1,5.89-2.171h12.872A9.048,9.048,0,0,1,363.77,340Z" transform="translate(-339.821 -339.78)" fill="#fd4755"/>
          <path id="Trazado_141655" data-name="Trazado 141655" d="M387,391.271H374.133a4.308,4.308,0,0,1-4.308-4.308V374.092a4.308,4.308,0,0,1,4.308-4.308H387a4.308,4.308,0,0,1,4.308,4.308v12.871A4.308,4.308,0,0,1,387,391.271Z" transform="translate(-365.039 -364.998)" fill="#918291"/>
          <circle id="Elipse_4499" data-name="Elipse 4499" cx="5.202" cy="5.202" r="5.202" transform="translate(10.327 9.094)" fill="#ffcebf"/>
          <path id="Trazado_141656" data-name="Trazado 141656" d="M390.611,468.8h12.871a4.3,4.3,0,0,0,1.181-.165,7.693,7.693,0,0,0-15.233,0A4.3,4.3,0,0,0,390.611,468.8Z" transform="translate(-381.517 -442.529)" fill="#8ac9fe"/>
        </g>
        <g id="Grupo_97402" data-name="Grupo 97402" transform="translate(0 52.999)">
          <path id="Trazado_141657" data-name="Trazado 141657" d="M46.06,348.873v12.872a9.127,9.127,0,0,1-.242,2.091A39.742,39.742,0,0,1,22.111,340a9.05,9.05,0,0,1,1.984-.219H36.967a9.1,9.1,0,0,1,9.093,9.093Z" transform="translate(-19.787 -339.78)" fill="#fedf30"/>
          <path id="Trazado_141658" data-name="Trazado 141658" d="M24.72,391.271H11.849a4.308,4.308,0,0,1-4.308-4.308V374.092a4.308,4.308,0,0,1,4.308-4.308H24.72a4.308,4.308,0,0,1,4.308,4.308v12.871A4.308,4.308,0,0,1,24.72,391.271Z" transform="translate(-7.541 -364.998)" fill="#918291"/>
          <circle id="Elipse_4500" data-name="Elipse 4500" cx="5.202" cy="5.202" r="5.202" transform="translate(5.541 9.094)" fill="#ffcebf"/>
          <path id="Trazado_141659" data-name="Trazado 141659" d="M28.327,468.8H41.2a4.3,4.3,0,0,0,1.181-.165,7.693,7.693,0,0,0-15.233,0A4.3,4.3,0,0,0,28.327,468.8Z" transform="translate(-24.019 -442.529)" fill="#8ac9fe"/>
        </g>
        <g id="Grupo_97403" data-name="Grupo 97403" transform="translate(52.999)">
          <path id="Trazado_141660" data-name="Trazado 141660" d="M363.77,45.237a9.049,9.049,0,0,1-1.984.219H348.914a9.06,9.06,0,0,1-5.89-2.171,9.182,9.182,0,0,1-1.061-1.067,9.055,9.055,0,0,1-2.142-5.855V23.491a9.129,9.129,0,0,1,.242-2.091A39.742,39.742,0,0,1,363.77,45.237Z" transform="translate(-339.821 -19.183)" fill="#57be92"/>
          <path id="Trazado_141661" data-name="Trazado 141661" d="M387,28.987H374.133a4.308,4.308,0,0,1-4.308-4.308V11.808A4.308,4.308,0,0,1,374.133,7.5H387a4.308,4.308,0,0,1,4.308,4.308V24.679A4.308,4.308,0,0,1,387,28.987Z" transform="translate(-365.039 -7.5)" fill="#918291"/>
          <circle id="Elipse_4501" data-name="Elipse 4501" cx="5.202" cy="5.202" r="5.202" transform="translate(10.327 4.308)" fill="#ffcebf"/>
          <path id="Trazado_141662" data-name="Trazado 141662" d="M390.611,106.518h12.871a4.3,4.3,0,0,0,1.181-.165,7.693,7.693,0,0,0-15.233,0A4.31,4.31,0,0,0,390.611,106.518Z" transform="translate(-381.517 -85.031)" fill="#8ac9fe"/>
        </g>
        <g id="Grupo_97404" data-name="Grupo 97404">
          <path id="Trazado_141663" data-name="Trazado 141663" d="M46.06,23.491V36.363a9.107,9.107,0,0,1-9.093,9.093H24.1a9.049,9.049,0,0,1-1.984-.219A39.742,39.742,0,0,1,45.818,21.4a9.127,9.127,0,0,1,.242,2.091Z" transform="translate(-19.787 -19.183)" fill="#fe7d43"/>
          <path id="Trazado_141664" data-name="Trazado 141664" d="M24.72,28.987H11.849a4.308,4.308,0,0,1-4.308-4.308V11.808A4.308,4.308,0,0,1,11.849,7.5H24.72a4.308,4.308,0,0,1,4.308,4.308V24.679A4.308,4.308,0,0,1,24.72,28.987Z" transform="translate(-7.541 -7.5)" fill="#918291"/>
          <circle id="Elipse_4502" data-name="Elipse 4502" cx="5.202" cy="5.202" r="5.202" transform="translate(5.541 4.308)" fill="#ffcebf"/>
          <path id="Trazado_141665" data-name="Trazado 141665" d="M28.327,106.518H41.2a4.3,4.3,0,0,0,1.181-.165,7.693,7.693,0,0,0-15.233,0A4.309,4.309,0,0,0,28.327,106.518Z" transform="translate(-24.019 -85.031)" fill="#8ac9fe"/>
        </g>
      </g>
      <path id="Trazado_141666" data-name="Trazado 141666" d="M36.164,52.167a1.2,1.2,0,0,0,1.566-.64l8.776-20.912a1.2,1.2,0,0,0-2.206-.926L35.524,50.6a1.2,1.2,0,0,0,.64,1.566ZM29.872,33.683c0,3.144,2.276,5.7,5.074,5.7s5.074-2.558,5.074-5.7-2.276-5.7-5.074-5.7S29.872,30.539,29.872,33.683Zm7.756,0c0,1.825-1.2,3.31-2.682,3.31s-2.682-1.485-2.682-3.31,1.2-3.31,2.682-3.31S37.628,31.858,37.628,33.683ZM3.77,23.583A40.491,40.491,0,0,0,.422,35.051a2.819,2.819,0,0,0,2.767,3.162H17.212a2.773,2.773,0,0,0,2.724-2.189A21.536,21.536,0,0,1,36.087,19.749a2.776,2.776,0,0,0,2.167-2.719V2.992A2.818,2.818,0,0,0,35.079.227,40.467,40.467,0,0,0,23.6,3.645,5.514,5.514,0,0,0,18.416,0H5.546a5.511,5.511,0,0,0-5.5,5.5V18.375A5.512,5.512,0,0,0,3.77,23.583Zm20.151-5.208V6.143A38.084,38.084,0,0,1,35.415,2.6a.383.383,0,0,1,.307.092.4.4,0,0,1,.139.3V17.03a.4.4,0,0,1-.309.387A23.938,23.938,0,0,0,17.6,35.508a.4.4,0,0,1-.388.312H3.189a.372.372,0,0,1-.4-.445,38.108,38.108,0,0,1,3.484-11.5h12.14a5.535,5.535,0,0,0,5.5-5.5Zm-11.94-1.27a6.531,6.531,0,0,1,6.142,4.382H6.1a1.183,1.183,0,0,0-.231-.081A6.53,6.53,0,0,1,11.981,17.106Zm-4.006-6.4a4.006,4.006,0,1,1,4.006,4.006A4.011,4.011,0,0,1,7.975,10.707ZM2.434,5.5A3.116,3.116,0,0,1,5.546,2.392H18.416A3.116,3.116,0,0,1,21.528,5.5V18.375a3.106,3.106,0,0,1-1.123,2.391A8.955,8.955,0,0,0,16,15.683a6.4,6.4,0,1,0-8.032,0,8.954,8.954,0,0,0-4.409,5.082,3.106,3.106,0,0,1-1.123-2.391V5.5Zm33.653,56.41A21.505,21.505,0,0,1,19.71,44.456a1.2,1.2,0,0,0-1.181-1H1.4a1.2,1.2,0,0,0-1.191,1.3A40.647,40.647,0,0,0,2.627,55.344a1.2,1.2,0,1,0,2.24-.84,38.237,38.237,0,0,1-2.133-8.66h14.8a23.9,23.9,0,0,0,18.019,18.4.4.4,0,0,1,.309.387V78.672a.37.37,0,0,1-.446.4,38.1,38.1,0,0,1-11.494-3.547V63.289a5.511,5.511,0,0,0-5.5-5.5H5.546a5.511,5.511,0,0,0-5.5,5.5V76.16a5.5,5.5,0,0,0,5.5,5.5H18.416A5.778,5.778,0,0,0,23.6,78.02a40.485,40.485,0,0,0,11.482,3.418,2.789,2.789,0,0,0,3.176-2.765V64.634a2.776,2.776,0,0,0-2.167-2.719ZM5.838,79.272a6.5,6.5,0,0,1,12.287,0Zm2.137-10.78A4.006,4.006,0,1,1,11.981,72.5,4.011,4.011,0,0,1,7.975,68.492ZM21.528,76.16a3.106,3.106,0,0,1-1.123,2.391A8.955,8.955,0,0,0,16,73.468a6.4,6.4,0,1,0-8.032,0,8.954,8.954,0,0,0-4.409,5.082A3.106,3.106,0,0,1,2.433,76.16V63.289a3.116,3.116,0,0,1,3.112-3.112H18.416a3.116,3.116,0,0,1,3.112,3.112V76.16ZM77.977,58.08a40.459,40.459,0,0,0,3.348-11.467,2.79,2.79,0,0,0-2.767-3.162H64.531a2.773,2.773,0,0,0-2.723,2.184A21.65,21.65,0,0,1,45.649,61.9a2.778,2.778,0,0,0-2.158,2.717V78.673a2.789,2.789,0,0,0,3.175,2.765,40.488,40.488,0,0,0,11.483-3.417,5.543,5.543,0,0,0,5.18,3.644H76.2a5.536,5.536,0,0,0,5.5-5.5V63.289a5.513,5.513,0,0,0-3.728-5.209ZM57.826,63.289V75.523a38.1,38.1,0,0,1-11.495,3.546.381.381,0,0,1-.307-.092.4.4,0,0,1-.139-.3V64.621a.4.4,0,0,1,.308-.387,24.055,24.055,0,0,0,17.952-18.08.4.4,0,0,1,.388-.311H78.557a.4.4,0,0,1,.3.138.384.384,0,0,1,.093.306,38.071,38.071,0,0,1-3.484,11.5H63.33a5.511,5.511,0,0,0-5.5,5.5Zm5.8,15.983a6.5,6.5,0,0,1,12.284,0Zm2.136-10.78A4.006,4.006,0,1,1,69.766,72.5,4.011,4.011,0,0,1,65.759,68.492ZM79.313,76.16a3.106,3.106,0,0,1-1.123,2.391,8.955,8.955,0,0,0-4.409-5.082,6.4,6.4,0,1,0-8.032,0,8.954,8.954,0,0,0-4.409,5.082,3.106,3.106,0,0,1-1.123-2.391V63.289a3.116,3.116,0,0,1,3.112-3.112H76.115a1.2,1.2,0,0,0,.14,0,3.114,3.114,0,0,1,3.058,3.109V76.16ZM76.2,0H63.33a5.513,5.513,0,0,0-5.18,3.644A40.487,40.487,0,0,0,46.667.227a2.815,2.815,0,0,0-3.175,2.765V17.043a2.778,2.778,0,0,0,2.158,2.717A21.651,21.651,0,0,1,61.808,36.03a2.773,2.773,0,0,0,2.723,2.184H78.557a2.824,2.824,0,0,0,2.767-3.162,40.666,40.666,0,0,0-2.012-8.205,1.2,1.2,0,1,0-2.252.809,38.277,38.277,0,0,1,1.893,7.721.37.37,0,0,1-.4.445H64.531a.4.4,0,0,1-.388-.311A24.055,24.055,0,0,0,46.191,17.43a.4.4,0,0,1-.308-.387V2.992a.373.373,0,0,1,.446-.4A38.1,38.1,0,0,1,57.826,6.141V18.375a5.538,5.538,0,0,0,5.5,5.5H76.2a5.593,5.593,0,0,0,5.5-5.5V5.5A5.511,5.511,0,0,0,76.2,0ZM63.623,21.487a6.5,6.5,0,0,1,12.284,0Zm2.136-10.78a4.006,4.006,0,1,1,4.006,4.006A4.011,4.011,0,0,1,65.759,10.707Zm13.553,7.668a3.106,3.106,0,0,1-1.123,2.391,8.955,8.955,0,0,0-4.409-5.082,6.4,6.4,0,1,0-8.032,0,8.954,8.954,0,0,0-4.409,5.082,3.106,3.106,0,0,1-1.123-2.391V5.5A3.116,3.116,0,0,1,63.33,2.392H76.2A3.116,3.116,0,0,1,79.313,5.5V18.375ZM51.874,47.981c0-3.144-2.276-5.7-5.074-5.7s-5.074,2.558-5.074,5.7,2.276,5.7,5.074,5.7S51.874,51.126,51.874,47.981Zm-7.756,0c0-1.825,1.2-3.31,2.682-3.31s2.682,1.485,2.682,3.31-1.2,3.31-2.682,3.31S44.118,49.806,44.118,47.981Z" fill="#0a5936"/>
    </g>
  </g>
</svg>
