<svg xmlns="http://www.w3.org/2000/svg" width="152" height="153" viewBox="0 0 152 153">
  <g id="Grupo_97847" data-name="Grupo 97847" transform="translate(-982 -944)">
    <ellipse id="Elipse_4193" data-name="Elipse 4193" cx="76" cy="76.5" rx="76" ry="76.5" transform="translate(982 944)" fill="#fff"/>
    <g id="Grupo_97397" data-name="Grupo 97397" transform="translate(1019.242 975.364)">
      <path id="Trazado_141627" data-name="Trazado 141627" d="M106.907,104.334V165.2A5.5,5.5,0,0,0,112.4,170.7h52.2A5.5,5.5,0,0,0,170.1,165.2V104.334Z" transform="translate(-93.166 -88.276)" fill="#f9f5f3"/>
      <path id="Trazado_141628" data-name="Trazado 141628" d="M437.3,104.334V165.2a5.5,5.5,0,0,1-5.495,5.495h3.814a5.5,5.5,0,0,0,5.495-5.495V104.334Z" transform="translate(-364.187 -88.276)" fill="#f9eae0"/>
      <g id="Grupo_97395" data-name="Grupo 97395" transform="translate(0 38.458)">
        <path id="Trazado_141629" data-name="Trazado 141629" d="M78.462,286.052,57.02,264.609l-7.771,7.771,21.443,21.443a1.327,1.327,0,0,0,.938.389h1.184l6.037-6.037V286.99a1.327,1.327,0,0,0-.389-.938Z" transform="translate(-45.07 -260.43)" fill="#a0c8ff"/>
        <path id="Trazado_141630" data-name="Trazado 141630" d="M107.976,286.052,86.533,264.609l-1.9,1.9,22.19,22.19a1.325,1.325,0,0,1,.358.659l1.187-1.187V286.99a1.327,1.327,0,0,0-.388-.938Z" transform="translate(-74.583 -260.43)" fill="#91b2fa"/>
        <path id="Trazado_141631" data-name="Trazado 141631" d="M189.094,403.128v-5.894a1.325,1.325,0,0,0-.085-.464l-7.6,7.6a1.325,1.325,0,0,0,.464.085h5.894A1.327,1.327,0,0,0,189.094,403.128Z" transform="translate(-155.313 -370.673)" fill="#f9eae0"/>
        <path id="Trazado_141632" data-name="Trazado 141632" d="M28.738,240.213,24.852,244.1a2.747,2.747,0,0,0,0,3.885l3.885,3.885,7.771-7.771-3.885-3.885A2.748,2.748,0,0,0,28.738,240.213Z" transform="translate(-24.047 -239.408)" fill="#fa8ebb"/>
        <path id="Trazado_141633" data-name="Trazado 141633" d="M52.567,240.182c.013.012.027.023.039.036l5.788,5.788,1.9-1.9-3.885-3.885A2.746,2.746,0,0,0,52.567,240.182Z" transform="translate(-47.837 -239.413)" fill="#f57fb0"/>
      </g>
      <path id="Trazado_141634" data-name="Trazado 141634" d="M164.6,40.634H112.4a5.5,5.5,0,0,0-5.495,5.495v8.242h63.189V46.128A5.494,5.494,0,0,0,164.6,40.634Z" transform="translate(-93.165 -35.139)" fill="#ffce69"/>
      <path id="Trazado_141635" data-name="Trazado 141635" d="M435.622,40.634h-3.814a5.5,5.5,0,0,1,5.495,5.495v8.242h3.814V46.128A5.5,5.5,0,0,0,435.622,40.634Z" transform="translate(-364.187 -35.139)" fill="#ffbd61"/>
      <g id="Grupo_97396" data-name="Grupo 97396" transform="translate(21.983)">
        <path id="Trazado_141636" data-name="Trazado 141636" d="M156.607,15.742a2.747,2.747,0,1,0,5.495,0V10.247a2.747,2.747,0,1,0-5.495,0Z" transform="translate(-156.607 -7.5)" fill="#bdd3dd"/>
        <path id="Trazado_141637" data-name="Trazado 141637" d="M405.107,15.742a2.747,2.747,0,1,0,5.495,0V10.247a2.747,2.747,0,1,0-5.495,0Z" transform="translate(-363.897 -7.5)" fill="#bdd3dd"/>
        <path id="Trazado_141638" data-name="Trazado 141638" d="M239.44,15.742a2.747,2.747,0,1,0,5.495,0V10.247a2.747,2.747,0,0,0-5.495,0Z" transform="translate(-225.703 -7.5)" fill="#bdd3dd"/>
        <path id="Trazado_141639" data-name="Trazado 141639" d="M322.274,15.742a2.747,2.747,0,1,0,5.495,0V10.247a2.747,2.747,0,1,0-5.495,0Z" transform="translate(-294.801 -7.5)" fill="#bdd3dd"/>
      </g>
      <path id="Trazado_141640" data-name="Trazado 141640" d="M412.081,7.5a2.737,2.737,0,0,0-1.907.772,2.738,2.738,0,0,1,.84,1.975v5.495a2.738,2.738,0,0,1-.84,1.975,2.745,2.745,0,0,0,4.654-1.975V10.247A2.747,2.747,0,0,0,412.081,7.5Z" transform="translate(-346.141 -7.5)" fill="#abc4d6"/>
      <path id="Trazado_141641" data-name="Trazado 141641" d="M329.248,7.5a2.736,2.736,0,0,0-1.907.772,2.738,2.738,0,0,1,.84,1.975v5.495a2.738,2.738,0,0,1-.84,1.975A2.745,2.745,0,0,0,332,15.742V10.247A2.747,2.747,0,0,0,329.248,7.5Z" transform="translate(-277.044 -7.5)" fill="#abc4d6"/>
      <path id="Trazado_141642" data-name="Trazado 141642" d="M246.415,7.5a2.737,2.737,0,0,0-1.907.772,2.738,2.738,0,0,1,.84,1.975v5.495a2.737,2.737,0,0,1-.84,1.975,2.745,2.745,0,0,0,4.654-1.975V10.247A2.747,2.747,0,0,0,246.415,7.5Z" transform="translate(-207.948 -7.5)" fill="#abc4d6"/>
      <path id="Trazado_141643" data-name="Trazado 141643" d="M163.581,7.5a2.736,2.736,0,0,0-1.907.772,2.738,2.738,0,0,1,.84,1.975v5.495a2.737,2.737,0,0,1-.84,1.975,2.745,2.745,0,0,0,4.654-1.975V10.247A2.747,2.747,0,0,0,163.581,7.5Z" transform="translate(-138.851 -7.5)" fill="#abc4d6"/>
    </g>
    <g id="Grupo_97398" data-name="Grupo 97398" transform="translate(1018 974.12)">
      <path id="Trazado_141644" data-name="Trazado 141644" d="M89.236,5.495h-1.5v-1.5a3.991,3.991,0,0,0-7.982,0v1.5H74v-1.5a3.991,3.991,0,1,0-7.982,0v1.5H60.259v-1.5a3.991,3.991,0,1,0-7.982,0v1.5H46.522v-1.5a3.991,3.991,0,1,0-7.982,0v1.5h-1.5A6.746,6.746,0,0,0,30.3,12.233V42.67l-3.042-3.042a4,4,0,0,0-5.644,0l-3.885,3.885a4,4,0,0,0,0,5.644L30.3,61.729v16.44a6.746,6.746,0,0,0,6.738,6.738h42.31a1.244,1.244,0,0,0,0-2.488H37.036a4.256,4.256,0,0,1-4.251-4.251V64.216L42.932,74.363a1.212,1.212,0,0,0,.092.083c.022.018.044.034.067.05l.031.023c.029.019.058.036.088.052l.017.01c.031.017.063.031.1.045l.014.007c.031.013.063.024.1.034l.02.007c.03.009.061.016.091.023l.027.007c.03.006.06.01.09.013l.031,0c.04,0,.081.006.121.006h7.255l1.578,1.578A1.244,1.244,0,1,0,54.4,74.546l-1.578-1.578V65.713q0-.061-.006-.122c0-.009,0-.018,0-.027,0-.032-.008-.063-.014-.094,0-.008,0-.016-.006-.024-.007-.032-.014-.063-.024-.095l-.006-.017c-.01-.033-.022-.066-.035-.1l0-.01c-.014-.034-.03-.067-.047-.1l-.007-.012c-.017-.031-.035-.062-.055-.092L52.6,65c-.017-.024-.034-.048-.053-.071s-.054-.063-.083-.092L42.315,54.686h42.8a1.244,1.244,0,1,0,0-2.488H41.157a1.239,1.239,0,0,0-.921.409l-7.451-7.451V21.719h60.7V30.2a1.244,1.244,0,1,0,2.488,0V12.233a6.746,6.746,0,0,0-6.738-6.738Zm-38.9,66.745H46.814l3.524-3.524ZM24.25,52.163l2.126-2.126L45.938,69.6l-2.126,2.126ZM47.7,67.839,28.135,48.277l2.126-2.126L49.823,65.713ZM19.485,45.272l3.885-3.885a1.505,1.505,0,0,1,2.126,0L28.5,44.392,25.5,47.4h0L22.491,50.4,19.485,47.4A1.505,1.505,0,0,1,19.485,45.272ZM83.741,2.488a1.505,1.505,0,0,1,1.5,1.5V9.486a1.5,1.5,0,1,1-3.007,0V3.991A1.505,1.505,0,0,1,83.741,2.488ZM70,2.488a1.505,1.505,0,0,1,1.5,1.5V9.486a1.5,1.5,0,1,1-3.007,0V3.991A1.505,1.505,0,0,1,70,2.488Zm-15.24,1.5a1.5,1.5,0,1,1,3.007,0V9.486a1.5,1.5,0,1,1-3.007,0Zm-12.233-1.5a1.505,1.505,0,0,1,1.5,1.5V9.486a1.5,1.5,0,1,1-3.007,0V3.991A1.505,1.505,0,0,1,42.531,2.488ZM32.786,19.231v-7a4.255,4.255,0,0,1,4.251-4.251h1.5v1.5a3.991,3.991,0,1,0,7.982,0v-1.5h5.754v1.5a3.991,3.991,0,1,0,7.982,0v-1.5h5.754v1.5a3.991,3.991,0,0,0,7.982,0v-1.5H79.75v1.5a3.991,3.991,0,1,0,7.982,0v-1.5h1.5a4.256,4.256,0,0,1,4.251,4.251v7Z" transform="translate(-16.559 0)" fill="#0a5936"/>
      <path id="Trazado_141645" data-name="Trazado 141645" d="M429.327,204.619a1.244,1.244,0,0,0-1.244,1.244v42.992a4.256,4.256,0,0,1-4.251,4.251h-4.914a1.244,1.244,0,1,0,0,2.487h4.914a6.746,6.746,0,0,0,6.738-6.738V205.863A1.244,1.244,0,0,0,429.327,204.619Z" transform="translate(-351.155 -170.686)" fill="#0a5936"/>
      <path id="Trazado_141646" data-name="Trazado 141646" d="M158.634,168.155h43.957a1.244,1.244,0,1,0,0-2.488H158.634a1.244,1.244,0,1,0,0,2.488Z" transform="translate(-134.035 -138.194)" fill="#0a5936"/>
      <path id="Trazado_141647" data-name="Trazado 141647" d="M158.634,217.855h43.957a1.244,1.244,0,1,0,0-2.488H158.634a1.244,1.244,0,1,0,0,2.488Z" transform="translate(-134.035 -179.652)" fill="#0a5936"/>
      <path id="Trazado_141648" data-name="Trazado 141648" d="M158.634,267.554h43.957a1.244,1.244,0,1,0,0-2.487H158.634a1.244,1.244,0,1,0,0,2.487Z" transform="translate(-134.035 -221.11)" fill="#0a5936"/>
      <path id="Trazado_141649" data-name="Trazado 141649" d="M279.842,365.711a1.244,1.244,0,0,0-1.244-1.244H249.752a1.244,1.244,0,0,0,0,2.488H278.6A1.244,1.244,0,0,0,279.842,365.711Z" transform="translate(-210.043 -304.026)" fill="#0a5936"/>
    </g>
  </g>
</svg>
