<svg xmlns="http://www.w3.org/2000/svg" width="98" height="98" viewBox="0 0 98 98">
  <g id="Grupo_97913" data-name="Grupo 97913" transform="translate(-461 -5968)">
    <g id="Elipse_4505" data-name="Elipse 4505" transform="translate(461 5968)" fill="#fff" stroke="#0a5936" stroke-width="2">
      <circle cx="49" cy="49" r="49" stroke="none"/>
      <circle cx="49" cy="49" r="48" fill="none"/>
    </g>
    <g id="Grupo_97850" data-name="Grupo 97850" transform="translate(479.311 5996.541)">
      <g id="Grupo_97849" data-name="Grupo 97849">
        <path id="Trazado_142176" data-name="Trazado 142176" d="M58.139,94.689a8.184,8.184,0,1,0-10.34-.367H42.365L35.5,87.46a1.022,1.022,0,0,0-1.446,0l-4.092,4.092a1.022,1.022,0,0,0,0,1.446l9.207,9.207a1.019,1.019,0,0,0,.723.3h8.184v7.161H30.554l5.078-7.616-1.7-1.134-5.834,8.75H25.574v-5.115a1.022,1.022,0,0,0-1.023-1.023H16.367V99.436a5.115,5.115,0,0,0-3.239-4.748,8.184,8.184,0,1,0-9.89,0A5.115,5.115,0,0,0,0,99.436v14.322a5.121,5.121,0,0,0,5.115,5.115v12.276H7.161V118.873h7.161v11.253a1.022,1.022,0,0,0,1.023,1.023h7.161a1.022,1.022,0,0,0,1.023-1.023V114.781a5.088,5.088,0,0,0-1.025-3.069h7.163V129.1H25.574v2.046H35.8V129.1H31.712v-17.39H38.9a5.062,5.062,0,0,0-1.05,3.069v15.344a1.022,1.022,0,0,0,1.023,1.023h7.161a1.022,1.022,0,0,0,1.023-1.023V118.873h7.161v12.276h2.046V118.873a5.121,5.121,0,0,0,5.115-5.115V99.436A5.115,5.115,0,0,0,58.139,94.689ZM2.046,88.184a6.138,6.138,0,1,1,6.138,6.138A6.144,6.144,0,0,1,2.046,88.184Zm21.482,21.482H10.23v-8.184H8.184v9.207a1.022,1.022,0,0,0,1.023,1.023h9.207a3.073,3.073,0,0,1,3.069,3.069V129.1H16.367V117.85a1.022,1.022,0,0,0-1.023-1.023H5.115a3.073,3.073,0,0,1-3.069-3.069V99.436a3.073,3.073,0,0,1,3.069-3.069h6.138a3.073,3.073,0,0,1,3.069,3.069v5.115a1.022,1.022,0,0,0,1.023,1.023h8.184ZM47.056,88.184a6.138,6.138,0,1,1,6.138,6.138A6.144,6.144,0,0,1,47.056,88.184Zm12.276,25.574a3.073,3.073,0,0,1-3.069,3.069H46.033a1.022,1.022,0,0,0-1.023,1.023V129.1H39.9V114.781a3.073,3.073,0,0,1,3.069-3.069H49.1a1.022,1.022,0,0,0,1.023-1.023v-9.207a1.022,1.022,0,0,0-1.023-1.023H40.319l-8.184-8.184,2.645-2.645,6.438,6.438a1.018,1.018,0,0,0,.723.3H56.263a3.073,3.073,0,0,1,3.069,3.069Z" transform="translate(0 -80)" fill="#0a5936"/>
      </g>
    </g>
    <g id="Grupo_97852" data-name="Grupo 97852" transform="translate(496.702 5986.311)">
      <g id="Grupo_97851" data-name="Grupo 97851">
        <path id="Trazado_142177" data-name="Trazado 142177" d="M159.528,0H139.069A3.073,3.073,0,0,0,136,3.069v8.184a3.073,3.073,0,0,0,3.069,3.069h1.023v6.138a1.022,1.022,0,0,0,.631.945,1.01,1.01,0,0,0,.392.078,1.023,1.023,0,0,0,.723-.3l6.861-6.861h10.829a3.073,3.073,0,0,0,3.069-3.069V3.069A3.073,3.073,0,0,0,159.528,0Zm1.023,11.253a1.023,1.023,0,0,1-1.023,1.023H148.276a1.018,1.018,0,0,0-.723.3l-5.415,5.415V13.3a1.022,1.022,0,0,0-1.023-1.023h-2.046a1.023,1.023,0,0,1-1.023-1.023V3.069a1.023,1.023,0,0,1,1.023-1.023h20.459a1.023,1.023,0,0,1,1.023,1.023Z" transform="translate(-136)" fill="#0a5936"/>
      </g>
    </g>
    <g id="Grupo_97854" data-name="Grupo 97854" transform="translate(500.913 5990.598)">
      <g id="Grupo_97853" data-name="Grupo 97853" transform="translate(0 0)">
        <rect id="Rectángulo_33255" data-name="Rectángulo 33255" width="5.4" height="1.543" transform="translate(0 0)" fill="#0a5936"/>
      </g>
    </g>
    <g id="Grupo_97856" data-name="Grupo 97856" transform="translate(500.913 5994.456)">
      <g id="Grupo_97855" data-name="Grupo 97855" transform="translate(0 0)">
        <rect id="Rectángulo_33256" data-name="Rectángulo 33256" width="18.516" height="2.314" fill="#0a5936"/>
      </g>
    </g>
    <g id="Grupo_97858" data-name="Grupo 97858" transform="translate(509.399 5990.598)">
      <g id="Grupo_97857" data-name="Grupo 97857" transform="translate(0 0)">
        <rect id="Rectángulo_33257" data-name="Rectángulo 33257" width="10.029" height="1.543" transform="translate(0 0)" fill="#0a5936"/>
      </g>
    </g>
  </g>
</svg>
