<svg xmlns="http://www.w3.org/2000/svg" width="241" height="198" viewBox="0 0 241 198">
  <g id="Grupo_99307" data-name="Grupo 99307" transform="translate(-270.919 -431.809)">
    <g id="Grupo_98029" data-name="Grupo 98029" transform="translate(-7 -102.191)">
      <rect id="Rectángulo_32944" data-name="Rectángulo 32944" width="241" height="198" transform="translate(277.919 534)" fill="#e8fff5"/>
    </g>
    <g id="reporte-de-negocios" transform="translate(269.283 461.229)">
      <g id="Grupo_98745" data-name="Grupo 98745" transform="translate(68.709 2.038)">
        <path id="Trazado_143480" data-name="Trazado 143480" d="M74.171,7.5h98.842V142.583H74.171Z" transform="translate(-74.171 -7.5)" fill="#ecf4ff"/>
      </g>
      <g id="Grupo_98746" data-name="Grupo 98746" transform="translate(69.007 80.534)">
        <path id="Trazado_143481" data-name="Trazado 143481" d="M138.332,327.03C117.4,340.887,95.37,349.555,75.269,352.89h98.543V296.3A177.178,177.178,0,0,1,138.332,327.03Z" transform="translate(-75.269 -296.303)" fill="#cbe2ff"/>
      </g>
      <g id="Grupo_98749" data-name="Grupo 98749" transform="translate(77.495 28.671)">
        <g id="Grupo_98747" data-name="Grupo 98747" transform="translate(0 0)">
          <path id="Trazado_143482" data-name="Trazado 143482" d="M120.224,119.214V105.486a13.728,13.728,0,1,0,13.728,13.728Z" transform="translate(-106.496 -105.486)" fill="#f1d54e"/>
        </g>
        <g id="Grupo_98748" data-name="Grupo 98748" transform="translate(13.728)">
          <path id="Trazado_143483" data-name="Trazado 143483" d="M157,105.486v13.728h13.728A13.728,13.728,0,0,0,157,105.486Z" transform="translate(-157.004 -105.486)" fill="#fb9e36"/>
        </g>
      </g>
      <g id="Grupo_98750" data-name="Grupo 98750" transform="translate(96.165 10.824)">
        <path id="Trazado_143484" data-name="Trazado 143484" d="M175.187,39.825h43.93v8.786h-43.93Z" transform="translate(-175.187 -39.825)" fill="#f1d54e"/>
      </g>
      <g id="Grupo_98758" data-name="Grupo 98758" transform="translate(78.593 78.915)">
        <g id="Grupo_98751" data-name="Grupo 98751" transform="translate(0 40.635)">
          <path id="Trazado_143485" data-name="Trazado 143485" d="M110.537,439.85h13.179v8.786H110.537Z" transform="translate(-110.537 -439.85)" fill="#fb9e36"/>
        </g>
        <g id="Grupo_98752" data-name="Grupo 98752" transform="translate(21.965 27.456)">
          <path id="Trazado_143486" data-name="Trazado 143486" d="M191.35,391.362h13.179v21.965H191.35Z" transform="translate(-191.35 -391.362)" fill="#e49542"/>
        </g>
        <g id="Grupo_98753" data-name="Grupo 98753" transform="translate(21.965 43.045)">
          <path id="Trazado_143487" data-name="Trazado 143487" d="M204.528,448.718q-6.588,3.353-13.179,6.04v.335h13.179Z" transform="translate(-191.349 -448.718)" fill="#e28424"/>
        </g>
        <g id="Grupo_98754" data-name="Grupo 98754" transform="translate(43.93 10.982)">
          <path id="Trazado_143488" data-name="Trazado 143488" d="M272.163,330.752h13.179V369.19H272.163Z" transform="translate(-272.163 -330.752)" fill="#f1d54e"/>
        </g>
        <g id="Grupo_98755" data-name="Grupo 98755" transform="translate(43.93 29.874)">
          <path id="Trazado_143489" data-name="Trazado 143489" d="M285.342,400.26c-1.2.833-2.4,1.659-3.632,2.472q-4.741,3.138-9.547,5.919v11.155h13.179V400.26Z" transform="translate(-272.163 -400.26)" fill="#fb9e36"/>
        </g>
        <g id="Grupo_98756" data-name="Grupo 98756" transform="translate(65.894)">
          <path id="Trazado_143490" data-name="Trazado 143490" d="M352.976,290.346h13.179v49.421H352.976Z" transform="translate(-352.976 -290.346)" fill="#5cd8a0"/>
        </g>
        <g id="Grupo_98757" data-name="Grupo 98757" transform="translate(65.894 11.946)">
          <path id="Trazado_143491" data-name="Trazado 143491" d="M366.154,334.3c-4.1,3.934-8.5,7.76-13.179,11.437v26.037h13.179Z" transform="translate(-352.975 -334.299)" fill="#d2f6e6"/>
        </g>
      </g>
      <g id="Grupo_98759" data-name="Grupo 98759" transform="translate(66.67)">
        <path id="Trazado_143492" data-name="Trazado 143492" d="M167.55,0H68.708A2.038,2.038,0,0,0,66.67,2.038V98.869a2.038,2.038,0,1,0,4.077,0V4.077h94.765V16.892a2.038,2.038,0,1,0,4.077,0V2.038A2.038,2.038,0,0,0,167.55,0Z" transform="translate(-66.67)" fill="#0a5936"/>
        <path id="Trazado_143493" data-name="Trazado 143493" d="M167.55,89.65a2.038,2.038,0,0,0-2.038,2.038V200.367H70.747v-26.7a2.038,2.038,0,0,0-4.077,0v28.74a2.038,2.038,0,0,0,2.038,2.038H167.55a2.038,2.038,0,0,0,2.038-2.038V91.688A2.038,2.038,0,0,0,167.55,89.65Z" transform="translate(-66.67 -65.283)" fill="#0a5936"/>
        <path id="Trazado_143494" data-name="Trazado 143494" d="M99,113.752a15.766,15.766,0,1,0,15.766-15.766A15.784,15.784,0,0,0,99,113.752Zm15.766,11.689a11.688,11.688,0,0,1-2.038-23.2v11.508a2.038,2.038,0,0,0,2.038,2.038H126.27A11.706,11.706,0,0,1,114.762,125.442Zm11.508-13.728H116.8v-9.469A11.716,11.716,0,0,1,126.27,111.714Z" transform="translate(-90.21 -71.354)" fill="#0a5936"/>
        <path id="Trazado_143495" data-name="Trazado 143495" d="M105.074,432.35a2.038,2.038,0,0,0-2.038,2.039v8.786a2.038,2.038,0,0,0,2.038,2.038h13.179a2.038,2.038,0,0,0,2.038-2.038v-8.786a2.038,2.038,0,0,0-2.038-2.039Zm11.14,8.786h-9.1v-4.709h9.1Z" transform="translate(-93.152 -314.838)" fill="#0a5936"/>
        <path id="Trazado_143496" data-name="Trazado 143496" d="M185.888,409.9h13.179a2.038,2.038,0,0,0,2.038-2.038V385.9a2.038,2.038,0,0,0-2.038-2.038H185.888a2.038,2.038,0,0,0-2.038,2.038v21.965A2.038,2.038,0,0,0,185.888,409.9Zm2.038-21.965h9.1v17.888h-9.1Z" transform="translate(-152.001 -279.529)" fill="#0a5936"/>
        <path id="Trazado_143497" data-name="Trazado 143497" d="M266.7,323.252a2.038,2.038,0,0,0-2.038,2.038v38.438a2.038,2.038,0,0,0,2.038,2.038H279.88a2.038,2.038,0,0,0,2.038-2.038V325.29a2.038,2.038,0,0,0-2.038-2.038Zm11.14,38.438h-9.1V327.329h9.1Z" transform="translate(-210.849 -235.393)" fill="#0a5936"/>
        <path id="Trazado_143498" data-name="Trazado 143498" d="M360.7,294.116a2.038,2.038,0,0,0,2.039-2.038v-7.189a2.038,2.038,0,0,0-2.039-2.038H347.518a2.038,2.038,0,0,0-2.038,2.038v49.418a2.038,2.038,0,0,0,2.038,2.039h13.176a2.038,2.038,0,0,0,2.038-2.039V301.59a2.038,2.038,0,0,0-4.077,0v30.678h-9.1V286.927h9.1v5.151A2.039,2.039,0,0,0,360.7,294.116Z" transform="translate(-269.7 -205.972)" fill="#0a5936"/>
        <path id="Trazado_143499" data-name="Trazado 143499" d="M213.655,32.325h-43.93a2.038,2.038,0,0,0-2.038,2.038v8.786a2.038,2.038,0,0,0,2.038,2.038h43.93a2.038,2.038,0,0,0,2.038-2.038V34.363A2.039,2.039,0,0,0,213.655,32.325Zm-2.038,8.786H171.764V36.4h39.853v4.709Z" transform="translate(-140.231 -23.539)" fill="#0a5936"/>
        <path id="Trazado_143500" data-name="Trazado 143500" d="M291.173,97.986H250.538a2.038,2.038,0,1,0,0,4.077h40.635a2.038,2.038,0,1,0,0-4.077Z" transform="translate(-199.079 -71.354)" fill="#0a5936"/>
        <path id="Trazado_143501" data-name="Trazado 143501" d="M291.173,131.658H250.538a2.038,2.038,0,1,0,0,4.077h40.635a2.038,2.038,0,1,0,0-4.077Z" transform="translate(-199.079 -95.874)" fill="#0a5936"/>
        <path id="Trazado_143502" data-name="Trazado 143502" d="M293.212,167.368a2.038,2.038,0,0,0-2.038-2.038H250.538a2.038,2.038,0,1,0,0,4.077h40.635A2.039,2.039,0,0,0,293.212,167.368Z" transform="translate(-199.079 -120.394)" fill="#0a5936"/>
        <path id="Trazado_143503" data-name="Trazado 143503" d="M276.738,201.04A2.038,2.038,0,0,0,274.7,199H250.538a2.038,2.038,0,1,0,0,4.077H274.7A2.039,2.039,0,0,0,276.738,201.04Z" transform="translate(-199.079 -144.914)" fill="#0a5936"/>
        <path id="Trazado_143504" data-name="Trazado 143504" d="M151.232,248.5H114.166a2.038,2.038,0,1,0,0,4.077h37.066a2.038,2.038,0,1,0,0-4.077Z" transform="translate(-99.773 -180.958)" fill="#0a5936"/>
        <path id="Trazado_143505" data-name="Trazado 143505" d="M153.271,284.21a2.038,2.038,0,0,0-2.038-2.038H114.166a2.038,2.038,0,0,0,0,4.077h37.066A2.038,2.038,0,0,0,153.271,284.21Z" transform="translate(-99.773 -205.478)" fill="#0a5936"/>
        <path id="Trazado_143506" data-name="Trazado 143506" d="M136.8,317.882a2.038,2.038,0,0,0-2.038-2.038H114.166a2.038,2.038,0,0,0,0,4.077h20.592A2.039,2.039,0,0,0,136.8,317.882Z" transform="translate(-99.773 -229.998)" fill="#0a5936"/>
      </g>
    </g>
  </g>
</svg>
