<svg xmlns="http://www.w3.org/2000/svg" xmlns:xlink="http://www.w3.org/1999/xlink" width="451" height="349" viewBox="0 0 451 349">
  <defs>
    <linearGradient id="linear-gradient" y1="0.5" x2="1" y2="0.5" gradientUnits="objectBoundingBox">
      <stop offset="0" stop-color="#444b8c"/>
      <stop offset="0.996" stop-color="#26264f"/>
    </linearGradient>
    <linearGradient id="linear-gradient-2" x1="0.226" y1="1.759" x2="0.668" y2="-0.364" gradientUnits="objectBoundingBox">
      <stop offset="0.004" stop-color="#ebeff2"/>
      <stop offset="1" stop-color="#fff"/>
    </linearGradient>
    <linearGradient id="linear-gradient-3" x1="0.581" y1="0.412" x2="-1.182" y2="3.113" gradientUnits="objectBoundingBox">
      <stop offset="0" stop-color="#ffc444"/>
      <stop offset="0.996" stop-color="#f36f56"/>
    </linearGradient>
    <linearGradient id="linear-gradient-4" x1="0.782" y1="0.329" x2="-0.103" y2="0.987" xlink:href="#linear-gradient-3"/>
    <linearGradient id="linear-gradient-5" x1="0.416" y1="0.207" x2="0.655" y2="0.651" xlink:href="#linear-gradient-3"/>
    <linearGradient id="linear-gradient-6" x1="-24.159" y1="1.152" x2="-24.159" y2="-0.027" xlink:href="#linear-gradient-3"/>
    <linearGradient id="linear-gradient-7" x1="-25.295" y1="0.734" x2="-25.295" y2="-0.116" xlink:href="#linear-gradient-3"/>
    <linearGradient id="linear-gradient-8" x1="-3.421" y1="0.5" x2="-2.421" y2="0.5" gradientUnits="objectBoundingBox">
      <stop offset="0" stop-color="#311944"/>
      <stop offset="1" stop-color="#893976"/>
    </linearGradient>
    <linearGradient id="linear-gradient-9" x1="-3.453" y1="0.129" x2="-2.732" y2="0.731" xlink:href="#linear-gradient-8"/>
    <linearGradient id="linear-gradient-10" x1="-3.169" y1="0.047" x2="-2.449" y2="0.677" xlink:href="#linear-gradient-8"/>
    <linearGradient id="linear-gradient-11" x1="-12.441" y1="-1.343" x2="-11.897" y2="1.115" gradientUnits="objectBoundingBox">
      <stop offset="0.004" stop-color="#e38ddd"/>
      <stop offset="1" stop-color="#9571f6"/>
    </linearGradient>
    <linearGradient id="linear-gradient-12" x1="-14.878" y1="0.292" x2="-15.625" y2="1.155" xlink:href="#linear-gradient-3"/>
    <linearGradient id="linear-gradient-13" x1="-112.025" y1="-28.403" x2="-115.459" y2="-22.685" xlink:href="#linear-gradient-3"/>
    <linearGradient id="linear-gradient-14" x1="0.483" y1="0.713" x2="-0.718" y2="5.758" xlink:href="#linear-gradient-8"/>
    <linearGradient id="linear-gradient-15" x1="0.553" y1="-0.989" x2="0.482" y2="1.176" xlink:href="#linear-gradient-8"/>
    <linearGradient id="linear-gradient-16" x1="0.457" y1="0.977" x2="0.182" y2="6.619" xlink:href="#linear-gradient-8"/>
    <linearGradient id="linear-gradient-17" x1="0.279" y1="0.562" x2="4.19" y2="-2.46" xlink:href="#linear-gradient-8"/>
    <linearGradient id="linear-gradient-18" x1="1.543" y1="-3.195" x2="0.185" y2="1.907" xlink:href="#linear-gradient-8"/>
    <linearGradient id="linear-gradient-19" x1="12.646" y1="-7.925" x2="13.029" y2="-7.925" xlink:href="#linear-gradient-8"/>
    <linearGradient id="linear-gradient-20" x1="0" y1="0.5" x2="1" y2="0.5" xlink:href="#linear-gradient-8"/>
  </defs>
  <g id="Grupo_98987" data-name="Grupo 98987" transform="translate(-624 10253)">
    <g id="Grupo_98986" data-name="Grupo 98986" transform="translate(278.857 -10693.526)">
      <path id="Trazado_143871" data-name="Trazado 143871" d="M592.327,455.069c-83.829-2.362-156.442,55.692-167.413,131.866C412.92,670.222,478.938,745.16,560.17,757.162c101.039,14.929,199.041-71.437,190.242-165.131C743.782,521.441,677.541,457.471,592.327,455.069Z" transform="translate(0 0)" fill="#f4f7fa"/>
      <g id="Grupo_98970" data-name="Grupo 98970" transform="translate(481.977 494.431)">
        <path id="Trazado_143914" data-name="Trazado 143914" d="M1123.962,1009.749l-172.654-9.988c-3.977-.194-7.556,4.145-7.556,7.789v222.323c0,5.053,5.162,6.07,9.138,5.664l171.072-17.471a6.493,6.493,0,0,0,5.648-6.388V1015.836A6.078,6.078,0,0,0,1123.962,1009.749Z" transform="translate(-943.752 -977.957)" fill="#17c878"/>
        <path id="Trazado_143915" data-name="Trazado 143915" d="M1149.226,1005.68l-172.994-8.51c-3.977-.2-7.215,2.622-7.215,6.294v224.06c0,3.672,3.238,6.316,7.215,5.906l172.994-17.806a6.526,6.526,0,0,0,5.648-6.438V1011.815A6.107,6.107,0,0,0,1149.226,1005.68Z" transform="translate(-966.177 -975.654)" fill="#d8dee8"/>
        <path id="Trazado_143916" data-name="Trazado 143916" d="M1002.456,1254.426a3.337,3.337,0,0,1-3.894-3.2V1027.647a3.551,3.551,0,0,1,3.894-3.4l172.994,8.172a3.306,3.306,0,0,1,3.061,3.318v197.743a3.533,3.533,0,0,1-3.061,3.483Z" transform="translate(-992.401 -999.688)" fill="#5cd8a0" style="mix-blend-mode: multiply;isolation: isolate"/>
        <path id="Trazado_143917" data-name="Trazado 143917" d="M1304.676,1353.265l-147.963,14.256V1161.246l147.963,5.573Z" transform="translate(-1132.777 -1121.296)" fill="#fff"/>
        <path id="Trazado_143918" data-name="Trazado 143918" d="M1479.625,1046.219l-59.134.74,1.326-13.336a3.614,3.614,0,0,1,3-3.409l10.015-1.539a3.6,3.6,0,0,0,2.71-2.079l1.086-2.358,26.195,1.617Z" transform="translate(-1366.906 -999.687)" fill="#97a6b7" opacity="0.3" style="mix-blend-mode: multiply;isolation: isolate"/>
        <path id="Trazado_143919" data-name="Trazado 143919" d="M1511.2,843.7a3.164,3.164,0,0,0-3.012-2.636l-9.449-.424a7.587,7.587,0,0,1-7.275-8.089l.365-10.227a3.318,3.318,0,0,0-3.14-3.518l-3.1-.185a3.93,3.93,0,0,1-3.611-4.641,7.011,7.011,0,0,0-6.5-8.142,8.509,8.509,0,0,0-8.788,7.208,4.748,4.748,0,0,1-.656,1.821,4.86,4.86,0,0,1-4.358,2.326l-3.2-.191a4.246,4.246,0,0,0-4.276,3.162l-2.663,10.381a10.169,10.169,0,0,1-10.108,7.527l-10.365-.464a4.5,4.5,0,0,0-4.145,2.465l-6.246,12.394a1.434,1.434,0,0,0,1.233,2.149l89.888,2.986a1.669,1.669,0,0,0,1.637-1.923Zm-37-29.011a2.057,2.057,0,0,1-1.917-2.4,2.492,2.492,0,0,1,2.568-2.119,2.057,2.057,0,0,1,1.91,2.4A2.493,2.493,0,0,1,1474.2,814.687Z" transform="translate(-1366.906 -805.818)" fill="url(#linear-gradient)"/>
        <path id="Trazado_143920" data-name="Trazado 143920" d="M1515.94,846.164a3.164,3.164,0,0,0-3.013-2.636l-9.449-.424a7.587,7.587,0,0,1-7.275-8.09l.365-10.227a3.319,3.319,0,0,0-3.14-3.518l-3.1-.185a3.93,3.93,0,0,1-3.612-4.641,7.011,7.011,0,0,0-6.5-8.142,8.508,8.508,0,0,0-8.788,7.208,4.752,4.752,0,0,1-.657,1.822,4.86,4.86,0,0,1-4.358,2.326l-3.2-.191a4.246,4.246,0,0,0-4.276,3.162l-2.663,10.381a10.169,10.169,0,0,1-10.108,7.527l-10.365-.465a4.5,4.5,0,0,0-4.145,2.465l-6.246,12.394a1.434,1.434,0,0,0,1.233,2.149l89.888,2.986a1.669,1.669,0,0,0,1.637-1.923Zm-37-29.011a2.057,2.057,0,0,1-1.917-2.4,2.492,2.492,0,0,1,2.568-2.119,2.058,2.058,0,0,1,1.911,2.4A2.493,2.493,0,0,1,1478.942,817.153Z" transform="translate(-1371.111 -808.007)" fill="#97a6b7"/>
        <g id="Grupo_98962" data-name="Grupo 98962" transform="translate(54.117 16.344)">
          <path id="Trazado_143921" data-name="Trazado 143921" d="M1500.557,978.739c-8.018-4.95-14.171-1.44-19.168-7.023-5.349-5.976-1.741-13.844-7.276-17.557-3.544-2.377-6.7-.28-10.826-.924a11.365,11.365,0,0,1-4.793-2l-2.221,8.658a10.169,10.169,0,0,1-10.108,7.527l-10.365-.465a4.5,4.5,0,0,0-4.145,2.465l-6.246,12.394a1.434,1.434,0,0,0,1.233,2.148l81.69,2.713A24.372,24.372,0,0,0,1500.557,978.739Z" transform="translate(-1425.228 -951.231)" fill="#fff" opacity="0.5" style="mix-blend-mode: soft-light;isolation: isolate"/>
        </g>
        <g id="Grupo_98969" data-name="Grupo 98969" transform="translate(41.162 64.658)">
          <g id="Grupo_98968" data-name="Grupo 98968">
            <g id="Grupo_98963" data-name="Grupo 98963" transform="translate(1.715)">
              <path id="Trazado_143922" data-name="Trazado 143922" d="M1439.812,1388.581l-114.594-.7v-6.8l114.594.948Z" transform="translate(-1325.218 -1381.079)" fill="#d8dee8"/>
              <path id="Trazado_143923" data-name="Trazado 143923" d="M1439.812,1494.133l-114.594-.26v-6.8l114.594.51Z" transform="translate(-1325.218 -1475.155)" fill="#d8dee8"/>
              <path id="Trazado_143924" data-name="Trazado 143924" d="M1439.812,1599.685l-114.594.177v-6.8l114.594.073Z" transform="translate(-1325.218 -1569.231)" fill="#d8dee8"/>
              <path id="Trazado_143925" data-name="Trazado 143925" d="M1439.812,1702.359l-114.594.614v-6.8l114.594-.364Z" transform="translate(-1325.218 -1660.43)" fill="#d8dee8"/>
            </g>
            <g id="Grupo_98964" data-name="Grupo 98964" transform="translate(0 54.187)">
              <path id="Trazado_143926" data-name="Trazado 143926" d="M1406.893,1869.818l-96.93,2.335v-7.086l96.93-1.892Z" transform="translate(-1309.963 -1863.175)" fill="#d8dee8"/>
              <path id="Trazado_143927" data-name="Trazado 143927" d="M1406.893,1973.3l-96.93,3.11v-7.086l96.93-2.667Z" transform="translate(-1309.963 -1955.022)" fill="#d8dee8"/>
              <path id="Trazado_143928" data-name="Trazado 143928" d="M1406.893,2076.773l-96.93,3.885v-7.086l96.93-3.443Z" transform="translate(-1309.963 -2046.869)" fill="#d8dee8"/>
              <path id="Trazado_143929" data-name="Trazado 143929" d="M1406.893,2180.251l-96.93,4.661v-7.086l96.93-4.218Z" transform="translate(-1309.963 -2138.716)" fill="#d8dee8"/>
            </g>
            <g id="Grupo_98965" data-name="Grupo 98965" transform="translate(103.558 53.809)">
              <path id="Trazado_143930" data-name="Trazado 143930" d="M2244.058,1866.365l-12.75.307v-6.613l12.75-.249Z" transform="translate(-2231.307 -1859.81)" fill="#d8dee8"/>
              <path id="Trazado_143931" data-name="Trazado 143931" d="M2244.058,1968.463l-12.75.409v-6.613l12.75-.351Z" transform="translate(-2231.307 -1950.433)" fill="#d8dee8"/>
              <path id="Trazado_143932" data-name="Trazado 143932" d="M2244.058,2070.562l-12.75.511v-6.613l12.75-.453Z" transform="translate(-2231.307 -2041.055)" fill="#d8dee8"/>
              <path id="Trazado_143933" data-name="Trazado 143933" d="M2244.058,2172.66l-12.75.613v-6.613l12.75-.555Z" transform="translate(-2231.307 -2131.678)" fill="#d8dee8"/>
            </g>
            <g id="Grupo_98966" data-name="Grupo 98966" transform="translate(0 107.953)">
              <path id="Trazado_143934" data-name="Trazado 143934" d="M1406.893,2348.172l-96.93,5.919v-7.086l96.93-5.476Z" transform="translate(-1309.963 -2341.529)" fill="#d8dee8"/>
              <path id="Trazado_143935" data-name="Trazado 143935" d="M1406.893,2451.65l-96.93,6.695v-7.086l96.93-6.252Z" transform="translate(-1309.963 -2433.376)" fill="#d8dee8"/>
              <path id="Trazado_143936" data-name="Trazado 143936" d="M1406.893,2555.127l-96.93,7.47v-7.086l96.93-7.027Z" transform="translate(-1309.963 -2525.223)" fill="#d8dee8"/>
              <path id="Trazado_143937" data-name="Trazado 143937" d="M1406.893,2658.6l-96.93,8.246v-7.086l96.93-7.8Z" transform="translate(-1309.963 -2617.069)" fill="#d8dee8"/>
            </g>
            <g id="Grupo_98967" data-name="Grupo 98967" transform="translate(103.558 106.858)">
              <path id="Trazado_143938" data-name="Trazado 143938" d="M2244.058,2338.343l-12.75.779v-6.613l12.75-.72Z" transform="translate(-2231.307 -2331.788)" fill="#d8dee8"/>
              <path id="Trazado_143939" data-name="Trazado 143939" d="M2244.058,2440.441l-12.75.881v-6.613l12.75-.822Z" transform="translate(-2231.307 -2422.411)" fill="#d8dee8"/>
              <path id="Trazado_143940" data-name="Trazado 143940" d="M2244.058,2542.54l-12.75.983v-6.613l12.75-.924Z" transform="translate(-2231.307 -2513.034)" fill="#d8dee8"/>
              <path id="Trazado_143941" data-name="Trazado 143941" d="M2244.058,2644.638l-12.75,1.085v-6.613l12.75-1.027Z" transform="translate(-2231.307 -2603.656)" fill="#d8dee8"/>
            </g>
          </g>
        </g>
      </g>
      <g id="Grupo_98973" data-name="Grupo 98973" transform="translate(435.387 613.781)">
        <path id="Trazado_143942" data-name="Trazado 143942" d="M796.66,1873.776l-242.8-6.1c-13.463-.339-24.618,9.809-24.618,22.672V1939.1c0,12.863,11.156,22.635,24.618,21.843l242.8-14.281c8.048-.473,14.463-8.69,14.463-18.361v-36.654C811.123,1881.979,804.707,1873.978,796.66,1873.776Z" transform="translate(-529.246 -1867.666)" fill="#5cd8a0"/>
        <path id="Trazado_143943" data-name="Trazado 143943" d="M820.272,1873.776l-242.8-6.1c-13.463-.339-24.618,9.809-24.618,22.672V1939.1c0,12.863,11.156,22.635,24.618,21.843l242.8-14.281c8.048-.473,14.463-8.69,14.463-18.361v-36.654C834.735,1881.979,828.319,1873.978,820.272,1873.776Z" transform="translate(-550.204 -1867.666)" fill="#97a6b7"/>
        <path id="Trazado_143944" data-name="Trazado 143944" d="M603.894,1981.92c-11.63.652-21.273-7.835-21.273-18.933v-48.612c0-11.1,9.643-19.91,21.273-19.65l242.8,5.438c6.972.156,12.562,7.1,12.562,15.49v36.735c0,8.386-5.59,15.523-12.562,15.914Z" transform="translate(-576.622 -1891.678)" fill="url(#linear-gradient-2)"/>
        <g id="Grupo_98971" data-name="Grupo 98971" transform="translate(30.247 21.007)">
          <path id="Trazado_143945" data-name="Trazado 143945" d="M827.691,2055.533l6.919,13.7a1.728,1.728,0,0,0,1.315.927l15.117,2.034a1.676,1.676,0,0,1,.939,2.868L841.1,2085.77a1.723,1.723,0,0,0-.5,1.521l2.59,14.831a1.784,1.784,0,0,1-2.5,1.893l-13.769-6.59a1.823,1.823,0,0,0-1.653.055L811.1,2105.2a1.754,1.754,0,0,1-2.656-1.745L811.193,2088a1.676,1.676,0,0,0-.525-1.539l-11.75-10.719a1.759,1.759,0,0,1,1.034-3.033l16.143-2.392a1.823,1.823,0,0,0,1.361-.965l7.05-13.84A1.8,1.8,0,0,1,827.691,2055.533Z" transform="translate(-798.352 -2054.561)" fill="#d8dee8"/>
          <path id="Trazado_143946" data-name="Trazado 143946" d="M1343.458,2058.647l6.229,13a1.562,1.562,0,0,0,1.184.881l13.627,1.938a1.615,1.615,0,0,1,.847,2.724l-9.807,10.159a1.69,1.69,0,0,0-.448,1.443l2.334,14.084a1.626,1.626,0,0,1-2.255,1.792l-12.4-6.278a1.565,1.565,0,0,0-1.488.049l-12.744,7.292a1.593,1.593,0,0,1-2.386-1.66l2.47-14.638a1.643,1.643,0,0,0-.472-1.459L1317.6,2077.8a1.689,1.689,0,0,1,.928-2.873l14.5-2.26a1.644,1.644,0,0,0,1.224-.914l6.341-13.126A1.581,1.581,0,0,1,1343.458,2058.647Z" transform="translate(-1258.783 -2057.369)" fill="#f1d54e"/>
          <path id="Trazado_143947" data-name="Trazado 143947" d="M1807.79,2061.456l5.638,12.366a1.424,1.424,0,0,0,1.072.838l12.346,1.85a1.562,1.562,0,0,1,.768,2.595l-8.887,9.663a1.66,1.66,0,0,0-.406,1.373l2.115,13.408a1.491,1.491,0,0,1-2.043,1.7l-11.225-5.994a1.355,1.355,0,0,0-1.346.045l-11.522,6.911a1.456,1.456,0,0,1-2.156-1.582l2.231-13.909a1.614,1.614,0,0,0-.426-1.388l-9.529-9.672a1.628,1.628,0,0,1,.838-2.729l13.1-2.142a1.5,1.5,0,0,0,1.106-.868l5.734-12.481A1.4,1.4,0,0,1,1807.79,2061.456Z" transform="translate(-1673.18 -2059.903)" fill="#f1d54e"/>
          <path id="Trazado_143948" data-name="Trazado 143948" d="M2228.017,2064l5.126,11.793a1.308,1.308,0,0,0,.976.8l11.238,1.77a1.516,1.516,0,0,1,.7,2.477l-8.092,9.213a1.633,1.633,0,0,0-.37,1.31l1.925,12.794c.179,1.191-.918,2.149-1.86,1.62l-10.209-5.735a1.183,1.183,0,0,0-1.224.041l-10.466,6.568a1.34,1.34,0,0,1-1.958-1.511l2.026-13.25a1.589,1.589,0,0,0-.387-1.323l-8.648-9.221a1.575,1.575,0,0,1,.76-2.6l11.89-2.035a1.372,1.372,0,0,0,1-.827l5.211-11.9A1.253,1.253,0,0,1,2228.017,2064Z" transform="translate(-2048.118 -2062.201)" fill="url(#linear-gradient-3)"/>
          <path id="Trazado_143949" data-name="Trazado 143949" d="M2610.138,2066.324l4.682,11.27a1.209,1.209,0,0,0,.891.765l10.272,1.7a1.475,1.475,0,0,1,.64,2.369l-7.4,8.8a1.611,1.611,0,0,0-.337,1.251l1.759,12.234c.164,1.139-.84,2.053-1.7,1.546l-9.326-5.5a1.038,1.038,0,0,0-1.117.038l-9.55,6.258c-.9.591-1.958-.263-1.785-1.447l1.847-12.65a1.568,1.568,0,0,0-.354-1.264l-7.883-8.811a1.528,1.528,0,0,1,.692-2.48l10.841-1.939a1.265,1.265,0,0,0,.917-.79l4.755-11.365A1.127,1.127,0,0,1,2610.138,2066.324Z" transform="translate(-2388.977 -2064.294)" fill="#d8dee8"/>
        </g>
        <g id="Grupo_98972" data-name="Grupo 98972" transform="translate(2.654)" opacity="0.1" style="mix-blend-mode: multiply;isolation: isolate">
          <path id="Trazado_143950" data-name="Trazado 143950" d="M786.5,1914.238c-30.137-7.7-50.674,33.289-86.777,25.047-31.895-7.282-32.794-41.523-71.455-65.845q-4.019-2.528-8.194-4.7l-42.6-1.07c-13.463-.339-24.618,9.809-24.618,22.672V1939.1c0,12.863,11.156,22.635,24.618,21.843l241.251-14.191C807.842,1924.569,796.25,1916.727,786.5,1914.238Z" transform="translate(-552.858 -1867.666)" fill="#97a6b7"/>
        </g>
        <path id="Trazado_143951" data-name="Trazado 143951" d="M827.691,2055.533l6.919,13.7a1.728,1.728,0,0,0,1.315.927l15.117,2.034a1.676,1.676,0,0,1,.939,2.868L841.1,2085.77a1.723,1.723,0,0,0-.5,1.521l2.59,14.831a1.784,1.784,0,0,1-2.5,1.893l-13.769-6.59a1.823,1.823,0,0,0-1.653.055L811.1,2105.2a1.754,1.754,0,0,1-2.656-1.745L811.193,2088a1.676,1.676,0,0,0-.525-1.539l-11.75-10.719a1.759,1.759,0,0,1,1.034-3.033l16.143-2.392a1.823,1.823,0,0,0,1.361-.965l7.05-13.84A1.8,1.8,0,0,1,827.691,2055.533Z" transform="translate(-768.105 -2033.554)" fill="#f1d54e"/>
      </g>
      <g id="Grupo_98977" data-name="Grupo 98977" transform="translate(619.28 608.131)">
        <g id="Grupo_98976" data-name="Grupo 98976">
          <path id="Trazado_143952" data-name="Trazado 143952" d="M2182.621,1827.231a7.348,7.348,0,0,0,1.194-3.765c.092-3.492-2.5-6.216-2.846-6.06-.188.084.05,1.108.184,1.561.277.944.576,1.036.551,1.469-.052.893-1.34.927-2.02,2.112a3.2,3.2,0,0,0,0,3.03A3.61,3.61,0,0,0,2182.621,1827.231Z" transform="translate(-2177.73 -1817.4)" fill="url(#linear-gradient-4)"/>
          <path id="Trazado_143953" data-name="Trazado 143953" d="M2693.27,2520.738l-1-3.426,4.157-3.08,2.591-.969-1.534,4.794Z" transform="translate(-2633.046 -2435.049)" fill="url(#linear-gradient-5)"/>
          <path id="Trazado_143954" data-name="Trazado 143954" d="M2655.355,3189.141s2.273,5.719,1.675,8.257a25.584,25.584,0,0,0,4.02-.359,27.684,27.684,0,0,1-1.173-3.9,38.348,38.348,0,0,1-.239-4.571Z" transform="translate(-2600.276 -3034.45)" fill="url(#linear-gradient-6)"/>
          <path id="Trazado_143955" data-name="Trazado 143955" d="M2374.907,3312.471a1.792,1.792,0,0,1,.43,1.051,1.7,1.7,0,0,1-.129.7c-.387,1.021-1,1.155-1.654,2.237-.4.661-.326.861-.694,1.159a2.408,2.408,0,0,1-1.579.422,28.04,28.04,0,0,1-3.653-.206q1.224-1.578,2.607-3.2.607-.71,1.212-1.386l2.4-.811Z" transform="translate(-2344.89 -3144.403)" fill="#26264f"/>
          <path id="Trazado_143956" data-name="Trazado 143956" d="M2378.653,3209.07s-1.371,7.155.374,9.158c1.486,2-.718.574-.718.574l-2.633,2.3-1.579,2.728s1.454-7,1.066-9.782-.581-4.653-.581-4.653Z" transform="translate(-2350.631 -3052.648)" fill="url(#linear-gradient-7)"/>
          <path id="Trazado_143957" data-name="Trazado 143957" d="M2339.541,2501.621s-3.684,3.3-3.684,16.868,1.745,43.043,1.745,43.043l2.792,21.1a18.469,18.469,0,0,0,4.834-.479c1.745-7.949,4.588-21.4,3.231-32.642-.582-12.215,4.847-27.532,4.847-27.532s4.653,15.511,7.949,23.266,9.571,32.051,10.153,33.8c3.857.35,5.5-.67,5.5-.67s-2.473-26.146-4.8-36.034-2.133-33.736-6.01-40.522C2357.378,2498.324,2339.541,2501.621,2339.541,2501.621Z" transform="translate(-2316.69 -2423.464)" fill="url(#linear-gradient-8)"/>
          <path id="Trazado_143958" data-name="Trazado 143958" d="M2339.54,2501.62s-3.684,3.3-3.684,16.868,1.745,43.043,1.745,43.043l2.792,21.1a18.458,18.458,0,0,0,4.835-.479c1.745-7.949,4.588-21.4,3.231-32.642-.582-12.215,4.847-27.532,4.847-27.532s4.653,15.511,7.949,23.266,9.571,32.051,10.153,33.8c3.857.35,5.5-.67,5.5-.67s-2.473-26.147-4.8-36.035-2.133-33.736-6.01-40.522C2357.378,2498.324,2339.54,2501.62,2339.54,2501.62Z" transform="translate(-2316.689 -2423.464)" fill="url(#linear-gradient-9)"/>
          <path id="Trazado_143959" data-name="Trazado 143959" d="M2358.677,2526.488c1.148,7.467,3.446,11.487,9.19,16.656,4.595,3.446,1.149,10.913,2.872,16.656.574,1.723,2.3,3.446,2.872,5.169,2.137,4.274.141,9.5,1.11,14.029a6.158,6.158,0,0,0,2.192-.628s-2.473-26.147-4.8-36.035-2.133-33.736-6.01-40.522c-8.725-3.49-26.562-.194-26.562-.194s-3.684,3.3-3.684,16.868c0,1.1.011,2.308.033,3.594,3.824,3.385,11.646,4.137,16.47.385a2.277,2.277,0,0,1,.922-.418l.025-.072.02.067C2355.521,2521.645,2358.179,2524.5,2358.677,2526.488Z" transform="translate(-2316.689 -2423.464)" opacity="0.25" fill="url(#linear-gradient-10)" style="mix-blend-mode: multiply;isolation: isolate"/>
          <g id="Grupo_98974" data-name="Grupo 98974" transform="translate(55.633 160.879)">
            <path id="Trazado_143960" data-name="Trazado 143960" d="M2660.814,3286.443s-.567,0-.52.732-.255,3.25,2.625,3.367,3.324-.2,3.419-.2a23.51,23.51,0,0,0-.756-2.408l-.921-1.18-2.479-.26Z" transform="translate(-2660.292 -3282.204)" fill="#26264f"/>
            <path id="Trazado_143961" data-name="Trazado 143961" d="M2667.969,3255.493a9.157,9.157,0,0,0-.744-2.335c-.509-1.144-.091-1.572-.577-2.614a3.115,3.115,0,0,0-.687-1.041,2.976,2.976,0,0,0-2.034-.775,2.067,2.067,0,0,0-.957.225,2.235,2.235,0,0,0-.862.909,10.07,10.07,0,0,0-.694,2.058,5.092,5.092,0,0,0-.257,1.329c.755,0,3.659.118,4.273.567a2.406,2.406,0,0,1,.921,1.959c0,.756.377,1.11.755,1.086A1.24,1.24,0,0,0,2667.969,3255.493Z" transform="translate(-2661.061 -3248.727)" fill="#444b8c"/>
          </g>
          <path id="Trazado_143962" data-name="Trazado 143962" d="M2370.051,3281.609c.649.01,1.125.526,1.484,1.771s2.082,2.345.072,2.082-3.47,2.584-4.188,3.638-2.645,1.989-2.6.959.9-1.51,1.137-2.563S2368.571,3281.586,2370.051,3281.609Z" transform="translate(-2342.397 -3117.034)" fill="#444b8c"/>
          <path id="Trazado_143963" data-name="Trazado 143963" d="M2517.316,2158.212c.477-1.326,3.454-10.038-1.357-17.983a21.417,21.417,0,0,0-11.728-8.913c-5.916-1.747-8.881.5-10.748-1.568-3.168-3.506.42-15.447,7.361-17.839,7.824-2.7,17.209,7.671,21.013,14.48a31.4,31.4,0,0,1,3.473,19.641,30.642,30.642,0,0,1-3.787,10.6Z" transform="translate(-2455.567 -2078.417)" fill="#d2f6e6"/>
          <path id="Trazado_143964" data-name="Trazado 143964" d="M2327.683,2099.57c-6.984-.279-12.369-.168-15.412,2.872-3.213,3.211.034,6.836-.664,15.237-1.068,12.86-9.263,16-9.88,29.049a33.312,33.312,0,0,0,1.114,10.153,35.068,35.068,0,0,0,9.086,8.044c6.322,3.846,9.988,3.176,19.067,5.66,14.851,4.065,16.172,8.9,23.536,7.672,7.442-1.246,13.971-7.509,13.183-10.948-.472-2.06-3.472-1.476-6.927-4.618-4.452-4.049-2.735-7.914-6.119-12.264-4.862-6.249-11.635-2.429-15.778-7.845-4.191-5.479-2.528-16.275,1-22.16,2.307-3.844,3.3-8.348,5.259-12.378a2.8,2.8,0,0,0,.269-1.57c-.319-2.625-4.694-4.049-8.008-5.093A39.528,39.528,0,0,0,2327.683,2099.57Z" transform="translate(-2286.365 -2067.765)" fill="#d2f6e6"/>
          <path id="Trazado_143965" data-name="Trazado 143965" d="M2480.6,2094.451l1.377-.424s.36,1.865,4.789,2.1a6.618,6.618,0,0,0,4.047-1.377l.941.686a7.237,7.237,0,0,1-5.349,2.514A6.588,6.588,0,0,1,2480.6,2094.451Z" transform="translate(-2445.16 -2062.935)" fill="url(#linear-gradient-11)"/>
          <g id="Grupo_98975" data-name="Grupo 98975" transform="translate(36.754 18.69)">
            <path id="Trazado_143966" data-name="Trazado 143966" d="M2493.808,2006.765a5.9,5.9,0,0,1,2.238-3.641c1.479-1.176,1.781-1.294,2.288-1.391l.694-.1.076,0a6.923,6.923,0,0,1,1.845.655c.707.5.186,4.018-1.957,8.4l-.253,1.113c1.868.328,2.331.665,2.345.934.032.583-2.013,1.327-3.909,1.375-2.377.061-4.9-.962-4.853-1.726.019-.309.468-.69,2.194-1.064l.809-1.138C2495.08,2009.881,2493.612,2008.274,2493.808,2006.765Z" transform="translate(-2492.321 -1999.611)" fill="url(#linear-gradient-12)"/>
            <path id="Trazado_143967" data-name="Trazado 143967" d="M2522.968,2039.823c.539-.323.95.371.7.977a1.2,1.2,0,0,1-1.625.624C2521.521,2041.063,2522.242,2040.257,2522.968,2039.823Z" transform="translate(-2518.542 -2033.44)" fill="url(#linear-gradient-13)"/>
            <path id="Trazado_143968" data-name="Trazado 143968" d="M2582.419,1990.056c-7.1-7.7-23.611-5.589-32.771.6-4.256,2.874-6.44,6.269-11.47,6.554-3.823.217-9.905-1.221-13.108-5.363-.4-.522-2.017-2.71-4.441-5.47-1.068-1.217-2.131-2.358-3.778-2.617a3.191,3.191,0,0,0-2.731.607,3.223,3.223,0,0,0-.708,2.908c.132.546.3.6.278.961-.068,1-1.9,1.441-1.795,1.947.073.361,1.024.229,1.188.683.179.5-.866.924-1.315,2.174-.842.563-1.373,1.965-1.557,3.84a17.078,17.078,0,0,0,.529,6.685c2.515,8.124,4.314,13.935,8.669,17.179,5.765,4.3,10.956.329,25.621-.3,20.081-.859,25.087,5.948,32.3,1.291C2586.347,2015.92,2589.788,1998.052,2582.419,1990.056Z" transform="translate(-2508.107 -1983.683)" fill="#12263f"/>
          </g>
          <path id="Trazado_143969" data-name="Trazado 143969" d="M2171.065,1897.921c-.179,1.68-.785,9.113,4.342,15.389a21.227,21.227,0,0,0,12.836,7.226c6.1.922,8.73-1.707,10.862.084,3.617,3.04,1.7,15.359-4.853,18.678-7.382,3.741-18.1-5.246-22.8-11.471a31.4,31.4,0,0,1-6.126-18.982,30.64,30.64,0,0,1,2.3-11.02,5.442,5.442,0,0,1,3.433.1Z" transform="translate(-2165.326 -1888.579)" fill="#d2f6e6"/>
          <path id="Trazado_143970" data-name="Trazado 143970" d="M2354.754,2424.272c-1.785-1.831.18-5.522-2.458-8.267-2.448-2.547-5.22-.49-9.161-2.681-5.055-2.812-3.662-7.958-8.491-10.726-3.472-1.99-5.1.15-10.5-.894a21.853,21.853,0,0,1-15.194-11.4,19.593,19.593,0,0,1-1.953-8.132c-2.423,4.33-4.937,8.479-5.268,15.482a33.32,33.32,0,0,0,1.114,10.153,35.067,35.067,0,0,0,9.086,8.043c6.322,3.846,9.988,3.176,19.067,5.66,14.851,4.064,16.172,8.9,23.536,7.671A19.934,19.934,0,0,0,2366,2422.7C2359.135,2425.754,2356.05,2425.6,2354.754,2424.272Z" transform="translate(-2286.365 -2318.698)" fill="#d2f6e6" opacity="0.628" style="mix-blend-mode: multiply;isolation: isolate"/>
        </g>
      </g>
      <g id="Grupo_98985" data-name="Grupo 98985" transform="translate(498.911 524.83)">
        <g id="Grupo_98978" data-name="Grupo 98978" transform="translate(0 0)">
          <path id="Trazado_143971" data-name="Trazado 143971" d="M1110.591,1341.836h1.633l31.624,22.421a37.949,37.949,0,0,0-7.731,23.227l-41.7-.62C1094.417,1369.711,1100.431,1354.493,1110.591,1341.836Z" transform="translate(-1094.417 -1311.987)" fill="url(#linear-gradient-14)"/>
          <path id="Trazado_143972" data-name="Trazado 143972" d="M1317.328,1132.61c-7.473,2.233-13.05,6.792-18.185,12.12-.041.042-.062.155-.121.157a7.863,7.863,0,0,1-1.633,0l-.072-.05-33.036-22.324a80.445,80.445,0,0,1,41.414-24.058h1.633Z" transform="translate(-1245.188 -1095.958)" fill="url(#linear-gradient-15)"/>
          <path id="Trazado_143973" data-name="Trazado 143973" d="M1719.278,1081.767l-9.215,31.636a50.155,50.155,0,0,0-13.16-2.765c-4.074-.2-9.414.742-13.219,1.493l-11.66-34.359a89.843,89.843,0,0,1,47.254,3.995Z" transform="translate(-1607.102 -1076.273)" fill="url(#linear-gradient-16)"/>
          <path id="Trazado_143974" data-name="Trazado 143974" d="M2076.971,1165.635l-26.49,17.065.246.906h-1.633a46.268,46.268,0,0,0-16.935-12.776l10.8-31.615a15.967,15.967,0,0,1,1.633,0c.03,0,.055.023.082.035A83.385,83.385,0,0,1,2076.971,1165.635Z" transform="translate(-1926.758 -1132.118)" fill="url(#linear-gradient-17)"/>
          <path id="Trazado_143975" data-name="Trazado 143975" d="M2244.838,1444.265l-33.548-.47a38.757,38.757,0,0,0-6.713-21.97l27.755-17.965a9.384,9.384,0,0,1,1.633,0c.277.068-.939,1.05-.784,1.29A71.64,71.64,0,0,1,2244.838,1444.265Z" transform="translate(-2079.797 -1367.018)" fill="url(#linear-gradient-18)"/>
        </g>
        <path id="Trazado_143976" data-name="Trazado 143976" d="M1834.878,1392.986l44.427-32.044-31.551,43.174Z" transform="translate(-1751.652 -1328.945)" fill="url(#linear-gradient-19)"/>
        <g id="Grupo_98980" data-name="Grupo 98980" transform="translate(76.445 61.01)">
          <path id="Trazado_143977" data-name="Trazado 143977" d="M1798.052,1630.136c0,5.934-5.182,10.7-11.638,10.647-6.528-.055-11.875-5.008-11.875-11.063s5.346-10.819,11.875-10.643C1792.87,1619.252,1798.052,1624.2,1798.052,1630.136Z" transform="translate(-1774.539 -1619.073)" fill="url(#linear-gradient-20)"/>
          <g id="Grupo_98979" data-name="Grupo 98979" transform="translate(4.688 4.261)">
            <path id="Trazado_143978" data-name="Trazado 143978" d="M1823.434,1670.173c-3.952-.048-7.187-3.063-7.187-6.722a6.751,6.751,0,0,1,7.187-6.467,7.041,7.041,0,0,1,7.1,6.72A6.746,6.746,0,0,1,1823.434,1670.173Zm0-11.9a5.433,5.433,0,0,0-5.778,5.206,5.669,5.669,0,0,0,5.778,5.41,5.43,5.43,0,0,0,5.721-5.206A5.667,5.667,0,0,0,1823.434,1658.271Z" transform="translate(-1816.247 -1656.982)" fill="url(#linear-gradient-20)"/>
          </g>
        </g>
        <g id="Grupo_98984" data-name="Grupo 98984" transform="translate(1.633 0)">
          <g id="Grupo_98981" data-name="Grupo 98981">
            <path id="Trazado_143979" data-name="Trazado 143979" d="M1125.121,1342.68l33.257,22.374a37.878,37.878,0,0,0-7.731,23.2l-41.7-.584A70.462,70.462,0,0,1,1125.121,1342.68Z" transform="translate(-1108.947 -1312.736)" fill="#f1d54e"/>
            <path id="Trazado_143980" data-name="Trazado 143980" d="M1331.858,1132.188a44.35,44.35,0,0,0-19.94,12.3l-33.108-22.4A82.208,82.208,0,0,1,1320.224,1098Z" transform="translate(-1259.718 -1095.562)" fill="#fb9e36"/>
            <path id="Trazado_143981" data-name="Trazado 143981" d="M1733.809,1081.767,1722.96,1113.4a49.142,49.142,0,0,0-24.862-1.575l-11.544-34.056a89.843,89.843,0,0,1,47.254,3.995Z" transform="translate(-1621.633 -1076.273)" fill="#f1d54e"/>
            <path id="Trazado_143982" data-name="Trazado 143982" d="M2091.5,1165.785l-27.877,17.944a45.329,45.329,0,0,0-16.935-12.762l10.8-31.608A83.287,83.287,0,0,1,2091.5,1165.785Z" transform="translate(-1941.288 -1132.267)" fill="#fb9e36"/>
            <path id="Trazado_143983" data-name="Trazado 143983" d="M2259.369,1444.459l-33.548-.47a38.759,38.759,0,0,0-6.712-21.97l27.754-17.965A71.8,71.8,0,0,1,2259.369,1444.459Z" transform="translate(-2094.329 -1367.212)" fill="#fb9e36"/>
          </g>
          <path id="Trazado_143984" data-name="Trazado 143984" d="M1849.409,1392.986l44.427-32.044-31.551,43.174Z" transform="translate(-1766.182 -1328.945)" fill="#17c878"/>
          <g id="Grupo_98983" data-name="Grupo 98983" transform="translate(76.445 61.01)">
            <path id="Trazado_143985" data-name="Trazado 143985" d="M1812.583,1630.136c0,5.934-5.182,10.7-11.638,10.647-6.529-.055-11.875-5.008-11.875-11.063s5.346-10.819,11.875-10.643C1807.4,1619.252,1812.583,1624.2,1812.583,1630.136Z" transform="translate(-1789.07 -1619.073)" fill="#5cd8a0"/>
            <g id="Grupo_98982" data-name="Grupo 98982" transform="translate(4.688 4.261)">
              <path id="Trazado_143986" data-name="Trazado 143986" d="M1837.964,1670.173c-3.952-.048-7.187-3.063-7.187-6.722a6.751,6.751,0,0,1,7.187-6.467,7.041,7.041,0,0,1,7.1,6.72A6.746,6.746,0,0,1,1837.964,1670.173Zm0-11.9a5.433,5.433,0,0,0-5.777,5.206,5.669,5.669,0,0,0,5.777,5.41,5.43,5.43,0,0,0,5.721-5.206A5.667,5.667,0,0,0,1837.964,1658.271Z" transform="translate(-1830.778 -1656.982)" fill="#d8dee8"/>
            </g>
          </g>
        </g>
      </g>
    </g>
    <rect id="Rectángulo_33510" data-name="Rectángulo 33510" width="451" height="349" transform="translate(624 -10253)" fill="none"/>
  </g>
</svg>
