<svg xmlns="http://www.w3.org/2000/svg" width="584.931" height="315.09" viewBox="0 0 584.931 315.09">
  <g id="Grupo_97111" data-name="Grupo 97111" transform="translate(-146.048 -198.513)">
    <g id="Grupo_97084" data-name="Grupo 97084" transform="translate(146.048 198.513)">
      <path id="Trazado_140818" data-name="Trazado 140818" d="M763.717,512.855S833,438.466,775.434,357.929c-51.077-71.458-110.628-66.573-154.32-37.575-18.609,12.351-72.26,1.522-117.924-71.189-62.273-99.157-290.447-48.364-250.245,114.2,18.3,74.014-46.5,75.848-7.256,149.645Z" transform="translate(-215.654 -198.513)" fill="#d2f6e6"/>
      <path id="Rectángulo_32935" data-name="Rectángulo 32935" d="M.789,0H584.142a.79.79,0,0,1,.79.79v0a.79.79,0,0,1-.79.79H.79A.79.79,0,0,1,0,.789v0A.789.789,0,0,1,.789,0Z" transform="translate(584.931 315.09) rotate(180)" fill="#15ac68"/>
    </g>
    <g id="Grupo_97091" data-name="Grupo 97091" transform="translate(310.759 395.668)">
      <g id="Grupo_97086" data-name="Grupo 97086" transform="translate(62.19 46.448)">
        <path id="Trazado_140819" data-name="Trazado 140819" d="M1346.908,1449.224s-8.139-9.5-.5-15.526c0,0,5.579-3.377,10.127-3.1,0,0-6.445,10.808-4.36,11.883s6.314-12.561,6.314-12.561,12.695-1.231,16.778.732c0,0-10.852,8.881-8.567,9.409s14.008-8.188,14.008-8.188,11.815,2.011,11.185,9.218-4.7,9.433-6.49,9.242-12.256-4.187-12.484-2.721,6.073,6.257,10.485,6.482c0,0-8.33,9.186-13.866,6.535s-6.009-6.854-9.46-8.43-6.4-1.572-4.972.035,7.671,3.17,9.644,6.661,3.744,5.846-1.983,4.984-15.038-5.053-15.447-9.852Z" transform="translate(-1333.151 -1429.536)" fill="#82b378"/>
        <g id="Grupo_97085" data-name="Grupo 97085" transform="translate(0 11.692)">
          <path id="Trazado_140820" data-name="Trazado 140820" d="M1372.421,1488.675s-32.091-1.237-39.178,7.941a23.212,23.212,0,0,1-6.39,8.969l-.752,2.049s5.561-5.863,7.551-6.218C1333.652,1501.415,1330.54,1490.045,1372.421,1488.675Z" transform="translate(-1319.486 -1488.619)" fill="#82b378"/>
          <path id="Trazado_140821" data-name="Trazado 140821" d="M1300.041,1571.078a20.151,20.151,0,0,0-7.367,14.2l1.25.112s2.2-9.411,6.176-13.092S1300.041,1571.078,1300.041,1571.078Z" transform="translate(-1292.674 -1554.113)" fill="#82b378"/>
        </g>
      </g>
      <g id="Grupo_97088" data-name="Grupo 97088" transform="translate(0 20.667)">
        <path id="Trazado_140822" data-name="Trazado 140822" d="M1025.891,1332.785s12.947-7.251,6.905-17.09c0,0-4.833-6.042-10.012-7.6,0,0,2.762,14.673,0,15.019s-1.9-16.572-1.9-16.572-13.638-6.56-18.989-6.042c0,0,8.459,14.328,5.7,13.983s-12.257-14.846-12.257-14.846-13.983-2.589-16.227,5.7,1.381,12.429,3.453,12.947,15.364.345,15.019,2.072-9.322,4.488-14.328,2.935c0,0,5.524,13.637,12.774,12.947s9.495-5.179,13.983-5.524,7.768.863,5.524,2.072-9.84.4-13.465,3.478-6.56,4.981.173,6.362,18.816.518,21.233-4.661Z" transform="translate(-978.401 -1299.257)" fill="#a8d29f"/>
        <g id="Grupo_97087" data-name="Grupo 97087" transform="translate(7.095 8.669)">
          <path id="Trazado_140823" data-name="Trazado 140823" d="M1014.256,1343.066s36.252,11.739,40.395,24.859a27.542,27.542,0,0,0,3.453,12.6v2.589s-3.8-8.8-5.869-10.012C1052.234,1373.1,1060.347,1361.71,1014.256,1343.066Z" transform="translate(-1014.256 -1343.066)" fill="#82b378"/>
          <path id="Trazado_140824" data-name="Trazado 140824" d="M1228.814,1525.836a23.91,23.91,0,0,1,2.4,18.824l-1.438-.386s1.4-11.383-1.529-17.107S1228.814,1525.836,1228.814,1525.836Z" transform="translate(-1184.967 -1488.375)" fill="#82b378"/>
        </g>
      </g>
      <g id="Grupo_97090" data-name="Grupo 97090" transform="translate(56.868 0)">
        <path id="Trazado_140825" data-name="Trazado 140825" d="M1277,1239.012s-17.066-9.557-9.1-22.528c0,0,6.372-7.964,13.2-10.012,0,0-3.641,19.343,0,19.8s2.5-21.845,2.5-21.845,17.977-8.647,25.031-7.964c0,0-11.15,18.887-7.509,18.432s16.156-19.57,16.156-19.57,18.432-3.413,21.39,7.509-1.82,16.384-4.551,17.067-20.252.455-19.8,2.731,12.288,5.916,18.887,3.869c0,0-7.282,17.977-16.839,17.066s-12.516-6.827-18.432-7.282-10.24,1.138-7.282,2.731,12.97.522,17.749,4.584,8.647,6.566-.227,8.386-24.8.683-27.989-6.144Z" transform="translate(-1265.779 -1194.817)" fill="#a8d29f"/>
        <g id="Grupo_97089" data-name="Grupo 97089" transform="translate(2.206 11.428)">
          <path id="Trazado_140826" data-name="Trazado 140826" d="M1357.278,1252.565s-47.787,15.474-53.248,32.768a36.3,36.3,0,0,1-4.551,16.611v3.413s5.006-11.605,7.737-13.2C1307.216,1292.16,1296.521,1277.141,1357.278,1252.565Z" transform="translate(-1295.016 -1252.565)" fill="#82b378"/>
          <path id="Trazado_140827" data-name="Trazado 140827" d="M1281.389,1493.49s-7.369,11.191-3.168,24.813l1.9-.509s-1.841-15,2.015-22.551S1281.389,1493.49,1281.389,1493.49Z" transform="translate(-1276.927 -1444.11)" fill="#82b378"/>
        </g>
      </g>
      <path id="Trazado_140828" data-name="Trazado 140828" d="M1184.063,1641.267a33.431,33.431,0,0,0,33.431-33.431h-66.861A33.431,33.431,0,0,0,1184.063,1641.267Z" transform="translate(-1116.55 -1526.105)" fill="#f1d54e"/>
      <path id="Trazado_140829" data-name="Trazado 140829" d="M1269.68,1641.01a33.453,33.453,0,0,0,37.583-33.175h-8.305A33.436,33.436,0,0,1,1269.68,1641.01Z" transform="translate(-1212.04 -1526.104)" fill="#ffac6e"/>
      <path id="Trazado_140830" data-name="Trazado 140830" d="M1216.083,1768.654H1148.3a4.125,4.125,0,0,1,4.125-4.125h59.536a4.125,4.125,0,0,1,4.125,4.125Z" transform="translate(-1114.678 -1651.791)" fill="#f1d54e"/>
      <rect id="Rectángulo_32936" data-name="Rectángulo 32936" width="68.721" height="1.025" transform="translate(32.983 81.73)" fill="#ed7d2b"/>
    </g>
    <g id="Grupo_97093" data-name="Grupo 97093" transform="translate(316.016 211.707)">
      <rect id="Rectángulo_32937" data-name="Rectángulo 32937" width="149.412" height="210.902" transform="matrix(0, 1, -1, 0, 210.902, 0)" fill="#15ac68"/>
      <rect id="Rectángulo_32938" data-name="Rectángulo 32938" width="205.361" height="143.871" transform="translate(208.149 146.642) rotate(179.993)" fill="#fff"/>
      <g id="Grupo_97092" data-name="Grupo 97092" transform="translate(17.912 20.233)">
        <path id="Trazado_140831" data-name="Trazado 140831" d="M1347.818,845.312l-72.033.009a2.582,2.582,0,0,1-2.583-2.582h0a2.582,2.582,0,0,1,2.582-2.583l72.033-.009a2.582,2.582,0,0,1,2.583,2.582h0A2.582,2.582,0,0,1,1347.818,845.312Z" transform="translate(-1238.036 -746.604)" fill="#8eb2dd"/>
        <path id="Trazado_140832" data-name="Trazado 140832" d="M1347.828,922.022l-72.032.009a2.582,2.582,0,0,1-2.583-2.582h0a2.582,2.582,0,0,1,2.582-2.583l72.033-.009a2.582,2.582,0,0,1,2.583,2.582h0A2.582,2.582,0,0,1,1347.828,922.022Z" transform="translate(-1238.044 -808.134)" fill="#8eb2dd"/>
        <rect id="Rectángulo_32939" data-name="Rectángulo 32939" width="166.727" height="1.335" transform="translate(0 83.267)" fill="#8eb2dd"/>
        <path id="Trazado_140833" data-name="Trazado 140833" d="M1928.6,783.223v-5.45l7.474,2.724Z" transform="translate(-1763.737 -696.573)" fill="#8eb2dd"/>
        <rect id="Rectángulo_32940" data-name="Rectángulo 32940" width="88.641" height="1.396" transform="matrix(0, -1, 1, 0, 7.777, 92.898)" fill="#8eb2dd"/>
        <path id="Trazado_140834" data-name="Trazado 140834" d="M1123.857,374.221h5.7l-2.851-6.784Z" transform="translate(-1118.243 -367.435)" fill="#8eb2dd"/>
        <path id="Trazado_140835" data-name="Trazado 140835" d="M1203.09,842.1h-.43a4.684,4.684,0,0,1-4.685-4.684h0a4.684,4.684,0,0,1,4.683-4.685h.431a4.684,4.684,0,0,1,4.685,4.684h0A4.684,4.684,0,0,1,1203.09,842.1Z" transform="translate(-1177.694 -740.654)" fill="#f1d54e"/>
        <path id="Rectángulo_32941" data-name="Rectángulo 32941" d="M4.685,0h.43A4.684,4.684,0,0,1,9.8,4.684v0A4.684,4.684,0,0,1,5.115,9.368H4.684A4.684,4.684,0,0,1,0,4.685v0A4.685,4.685,0,0,1,4.685,0Z" transform="translate(20.282 105.527)" fill="#f99746"/>
        <path id="Trazado_140836" data-name="Trazado 140836" d="M1311.79,409.386l-9.575.8,1.259,2.482-30.055,14.151-28.077,47.192L1212.2,445.6l-26.73,12.962-.076.036-17.041,15.873.778.764,16.919-15.76,25.974-12.6,33.6,28.8,28.592-48.056,29.742-14,1.243,2.451Z" transform="translate(-1153.938 -401.085)" fill="#699ff0"/>
        <path id="Trazado_140837" data-name="Trazado 140837" d="M1240.508,651.531h-.318a3.465,3.465,0,0,1-3.465-3.464h0a3.465,3.465,0,0,1,3.465-3.465h.318a3.465,3.465,0,0,1,3.465,3.464h0A3.465,3.465,0,0,1,1240.508,651.531Z" transform="translate(-1208.775 -589.754)" fill="#f1d54e"/>
        <path id="Trazado_140838" data-name="Trazado 140838" d="M1685.959,492.539h-.319a3.465,3.465,0,0,1-3.465-3.464h0a3.465,3.465,0,0,1,3.464-3.465h.318a3.465,3.465,0,0,1,3.465,3.464h0A3.465,3.465,0,0,1,1685.959,492.539Z" transform="translate(-1566.078 -462.224)" fill="#f1d54e"/>
        <path id="Trazado_140839" data-name="Trazado 140839" d="M1374.157,589.537h-.318a3.465,3.465,0,0,1-3.465-3.464h0a3.465,3.465,0,0,1,3.464-3.465h.318a3.465,3.465,0,0,1,3.465,3.465h0A3.465,3.465,0,0,1,1374.157,589.537Z" transform="translate(-1315.977 -540.028)" fill="#f1d54e"/>
        <path id="Trazado_140840" data-name="Trazado 140840" d="M1542.774,724.666h-.319a3.465,3.465,0,0,1-3.465-3.465h0a3.465,3.465,0,0,1,3.465-3.465h.318a3.465,3.465,0,0,1,3.465,3.465h0A3.465,3.465,0,0,1,1542.774,724.666Z" transform="translate(-1451.227 -648.417)" fill="#f99746"/>
      </g>
    </g>
    <g id="Grupo_97097" data-name="Grupo 97097" transform="translate(183.339 234.874)">
      <path id="Trazado_140841" data-name="Trazado 140841" d="M618.827,544.576s7.467,8.859,16.977,5.153c0,0,2.046-4.948,2.075-8.595,0-.449.009-.884.016-1.3.051-4.107.189-6.412.189-6.412l-.01,0c-.433-.18-14.537-5.971-14.525-5.49C623.791,539.041,618.827,544.576,618.827,544.576Z" transform="translate(-562.562 -499.083)" fill="#ffb27d"/>
      <path id="Trazado_140842" data-name="Trazado 140842" d="M649.807,541.012c1.36,2.521,6.027,7.453,12.93,9.255.051-4.107.189-6.412.189-6.412l-.01,0C662.526,543.749,649.4,540.269,649.807,541.012Z" transform="translate(-587.404 -509.514)" fill="#ed975d"/>
      <path id="Trazado_140843" data-name="Trazado 140843" d="M648.228,447.68s-15.862,3.729-18.032-6.185-5.679-16.109,4.356-18.909,12.838.551,14.367,3.683S652.3,446.454,648.228,447.68Z" transform="translate(-569.752 -413.765)" fill="#ffb27d"/>
      <path id="Trazado_140844" data-name="Trazado 140844" d="M597.972,412.691c-.217.139-3.63,1.187-10.093-11.689a11.213,11.213,0,0,1,.659-10.258c2.365-3.863,10.751-6.9,17.719-8.223s8.641,2.6,10.281,6.539c1.722,4.136,6.7,7.542,6.7,7.542-6.008,3.356-13.245-1.444-15.752-.655s-3.393,4.741-3.581,6.007-.477,2.319-3.63,1.188-1.426,4.468-.921,5.538C599.352,408.68,599.78,411.532,597.972,412.691Z" transform="translate(-536.985 -382.259)" fill="#a9453d"/>
      <g id="Grupo_97094" data-name="Grupo 97094" transform="translate(0 121.778)">
        <path id="Trazado_140845" data-name="Trazado 140845" d="M354.62,1689.213h-9.6c-2.013,0-4.251-2.016-4.811-5.707s-4.7-5.707-5.595-8.728,3.694-7.275,3.694-7.275l.767-.986.8-1.028,7.608,1.789s.188,1.812.305,4.119a52.786,52.786,0,0,1,.031,5.281c-.224,4.03,1.128,8.367,4.707,9.151S354.62,1689.213,354.62,1689.213Z" transform="translate(-334.494 -1533.335)" fill="#2c3a64"/>
        <path id="Trazado_140846" data-name="Trazado 140846" d="M663.811,1729.187H638.352a2.311,2.311,0,0,1-.541-.157c-1.7-.851-1.168-7.359-.963-9.369.039-.372.067-.591.067-.591s8.952-7.16,10.184-1.677c.039.171.084.339.132.5v0c1.554,5.13,8.5,7.46,12.514,8.109C662.812,1726.507,663.607,1728.294,663.811,1729.187Z" transform="translate(-576.823 -1573.309)" fill="#2c3a64"/>
        <path id="Trazado_140847" data-name="Trazado 140847" d="M594.172,1033.932s-1.36,16.963-2.958,37.354c-2.172,27.7-4.784,61.722-5.042,68.167-.446,11.192-2.239,29.095-2.239,29.095s-4.25,4.253-12.757,2.461c0,0-7.58-25.557-9.745-52.6l-.1-1.336c-2.014-27.527-5.146-85.493-5.146-85.493Z" transform="translate(-512.315 -1024.868)" fill="#2b478b"/>
        <path id="Trazado_140848" data-name="Trazado 140848" d="M594.172,1033.932s-1.36,16.963-2.958,37.354l-29.783,47.126-.1-1.336c-2.014-27.527-5.146-85.493-5.146-85.493Z" transform="translate(-512.315 -1024.868)" fill="#233862"/>
        <path id="Trazado_140849" data-name="Trazado 140849" d="M425.579,1008.732s-24.506,61.433-40.62,90.3-21.149,36.927-21.149,36.927-9.232-3.693-10.071-6.21c0,0,6.162-55.735,16.953-69.322,6.1-7.677,13.261-30.717,13.6-38.774s2.182-24,2.182-24Z" transform="translate(-349.931 -997.654)" fill="#2b478b"/>
      </g>
      <g id="Grupo_97095" data-name="Grupo 97095" transform="translate(11.53 46.474)">
        <path id="Trazado_140850" data-name="Trazado 140850" d="M400.99,991.373l-.259,3.951a8.514,8.514,0,0,1-4.7,10.62s-3.125,1.26-3.252-1.172.273-1.518.019-4.944,1.093-6.664,3.359-7.754l1.86-2.145Z" transform="translate(-392.758 -916.152)" fill="#ffb27d"/>
        <path id="Trazado_140851" data-name="Trazado 140851" d="M406.269,695.21c2.713.871,3.147.674,3.147.674s13.2-24.036,14.539-26.237,28.031-26.954,28.031-26.954l-6.86-25.58s-30.361,39.315-33.639,44.957c-5.418,9.323-8.592,30.974-8.592,30.974A7.938,7.938,0,0,0,406.269,695.21Z" transform="translate(-400.889 -617.113)" fill="#17c878"/>
      </g>
      <path id="Trazado_140852" data-name="Trazado 140852" d="M511.914,681.021c6.709,3.963,13.041,6.9,20.394,8.455,8.714,1.9,19.358,1.087,22.926,1.536a1.529,1.529,0,0,0,1.043-.267c.262-.164,1.664-10.913,3-24.516.036-.313.072-.643.1-.972.018-.22.031-.441.036-.654l.023-.192c.146-1.412.287-2.854.418-4.31.328-3.63.613-7.355.877-11.072.026-.354.051-.71.074-1.066.413-6,.718-11.9.813-17.156,0-.126.005-.251.005-.377a113.74,113.74,0,0,0-.282-11.454c-.057-.659-.123-1.277-.2-1.859-1.041-7.886-4.858-13.433-8.442-17.6l-3.5-3.977c-3.363.3-6.276.416-9.56-1.692-3.558-2.282-5.856-4.43-6.577-4.028-5.507,3.223-11.471,11.147-14.46,21.9a121.959,121.959,0,0,0-3.553,19.173q-.427,3.953-.656,8.029A263.946,263.946,0,0,1,510,673.177c-.379,2.082-.679,3.735-.843,4.881C508.994,679.1,511.025,680.493,511.914,681.021Z" transform="translate(-474.587 -548.71)" fill="#17c878"/>
      <path id="Trazado_140853" data-name="Trazado 140853" d="M650.976,706.825s3,33.13,22.162,52.321c.018-.22.031-.441.036-.654l.023-.192c.146-1.412.287-2.854.418-4.31.328-3.63.613-7.355.877-11.072.026-.354.051-.71.074-1.066.413-6,.718-11.9.813-17.156,0-.126.005-.251.005-.377-.039-3.14-.131-6-.282-8.519A42.252,42.252,0,0,0,650.976,706.825Z" transform="translate(-588.349 -642.598)" fill="#15ac68"/>
      <g id="Grupo_97096" data-name="Grupo 97096" transform="translate(122.718 24.316)">
        <path id="Trazado_140854" data-name="Trazado 140854" d="M958.445,611.26,994.1,506.449c.164-.477.383-.934-.091-1.106l-.433-.158c-.486-.177-.629.137-.806.623l-38.011,103.3a2,2,0,0,0,1.066,2.51l.881.392A1.284,1.284,0,0,0,958.445,611.26Z" transform="translate(-954.642 -505.136)" fill="#2a4e96"/>
      </g>
      <path id="Trazado_140855" data-name="Trazado 140855" d="M1008.391,777.526c.018-1.534,4.065-5.081,4.333-4.653a6.593,6.593,0,0,1-.452,2.6c1.681-1.125,2.065-5.1,4.9-6.876.786-.492,3.588,7.194.932,9.983s-3.931,2.478-8.352,5.059l-3.2.215-1.582-4.979S1006.677,778.246,1008.391,777.526Z" transform="translate(-872.292 -692.126)" fill="#ffb27d"/>
      <path id="Trazado_140856" data-name="Trazado 140856" d="M690.419,675.764c.21-3.022-3.775-4.77-3.775-4.77s-30.362,3.165-32.974,2.343-22.125-28.823-22.125-28.823-8.56-9.654-15.569-7.522c-6.091,1.852-8.472,6.6-9.282,11.13a13.333,13.333,0,0,0,6.191,13.686c10.485,6.431,28.824,24.155,33.767,25.6,11,3.226,42.428-7.317,42.428-7.317A10.88,10.88,0,0,0,690.419,675.764Z" transform="translate(-552.663 -586.337)" fill="#17c878"/>
    </g>
    <g id="Grupo_97110" data-name="Grupo 97110" transform="translate(532.221 298.83)">
      <g id="Grupo_97105" data-name="Grupo 97105" transform="translate(9.826)">
        <g id="Grupo_97103" data-name="Grupo 97103">
          <path id="Trazado_140857" data-name="Trazado 140857" d="M2738.459,1063.676a273.9,273.9,0,0,1,3.163-33.588c2.268-13.116,4.31-20.661,4.333-20.741.3-1.153,4.615-5.82,14.212-5.676s8.686,6.264,8.686,6.264h0a1.984,1.984,0,0,1-.069.544c-.093.315-8.9,32.256-8.52,73.5.005.579.071,1.58.029,2.246,0,0-22.239.574-22.244,0C2737.274,1082.617,2737.653,1072.629,2738.459,1063.676Z" transform="translate(-2620.789 -944.655)" fill="#b7d3f3"/>
          <path id="Trazado_140858" data-name="Trazado 140858" d="M2725.855,1083.771c.007.574.31,1.034.68,1.034h.009c.37-.008.664-.469.668-1.034h19.059c.007.574.31,1.034.68,1.034h.009c.376-.008.675-.484.671-1.065a287.793,287.793,0,0,1,1.581-32.558c2.533-24.263,7.217-40.479,7.284-40.7a2.024,2.024,0,0,0,.069-.544s.91-6.12-8.686-6.264-13.914,4.523-14.213,5.677c-.018.06-1.174,4.333-2.711,12.015-.509,2.545-1.058,5.463-1.623,8.725a274.213,274.213,0,0,0-3.162,33.588C2725.363,1072.629,2725.08,1080.168,2725.855,1083.771Z" transform="translate(-2610.981 -944.655)" fill="#d2e3fc"/>
          <path id="Trazado_140859" data-name="Trazado 140859" d="M2541.995,1388.976h-74.72s1.74-7.042,45.013-5.993C2542.911,1383.726,2541.995,1388.976,2541.995,1388.976Z" transform="translate(-2403.937 -1248.825)" fill="#c5dcf8"/>
          <g id="Grupo_97098" data-name="Grupo 97098" transform="translate(131.473 141.242)">
            <path id="Trazado_140860" data-name="Trazado 140860" d="M2824.255,1491.67c-8.663-43.858-6.436-70.771-6.425-71.109.021-.675-1.223-1.288-1.892-1.31s-3.668-.2-4.014.378c-.453.757-2.2,33.916,10.714,72.041Z" transform="translate(-2811.588 -1419.212)" fill="#b7d3f3"/>
          </g>
          <g id="Grupo_97099" data-name="Grupo 97099" transform="translate(74.375 141.242)">
            <path id="Trazado_140861" data-name="Trazado 140861" d="M2523.048,1491.67c8.663-43.858,6.436-70.771,6.425-71.109-.022-.675,1.223-1.288,1.892-1.31s3.668-.2,4.014.378c.453.757,2.2,33.916-10.714,72.041Z" transform="translate(-2523.048 -1419.212)" fill="#b7d3f3"/>
          </g>
          <g id="Grupo_97100" data-name="Grupo 97100" transform="translate(60.549 141.242)">
            <path id="Trazado_140862" data-name="Trazado 140862" d="M2453.18,1491.67c8.663-43.858,6.436-70.771,6.425-71.109-.022-.675,1.223-1.288,1.892-1.31s3.668-.2,4.014.378c.453.757,2.2,33.916-10.714,72.041Z" transform="translate(-2453.18 -1419.212)" fill="#b7d3f3"/>
          </g>
          <g id="Grupo_97101" data-name="Grupo 97101" transform="translate(117.554 141.242)">
            <path id="Trazado_140863" data-name="Trazado 140863" d="M2753.917,1491.67c-8.663-43.858-6.436-70.771-6.425-71.109.022-.675-1.223-1.288-1.892-1.31s-3.668-.2-4.014.378c-.453.757-2.2,33.916,10.714,72.041Z" transform="translate(-2741.251 -1419.212)" fill="#b7d3f3"/>
          </g>
          <rect id="Rectángulo_32942" data-name="Rectángulo 32942" width="77.781" height="4.067" rx="2.034" transform="translate(139.544 142.399) rotate(-180)" fill="#b7d3f3"/>
          <g id="Grupo_97102" data-name="Grupo 97102">
            <path id="Trazado_140864" data-name="Trazado 140864" d="M2373.71,1062.25l-24.837-5.38-1.463,3.565s27.405,16.307,29.973,15.509S2373.71,1062.25,2373.71,1062.25Z" transform="translate(-2307.791 -987.331)" fill="#ffb27d"/>
            <path id="Trazado_140865" data-name="Trazado 140865" d="M2513.745,1571.454a2.206,2.206,0,0,1,.394,2.36.02.02,0,0,1-.006.012c-.57,1.573-2.451,3.33-4.635,5.085-.279.226-.528.43-.744.62-.057.05-.114.1-.167.15s-.086.079-.128.116c-2.038,1.878-1.271,2.309-4.931,6.12-4.174,4.343-7.048,4.421-7.865,4.025-.692-.337.713-2.64,2.271-5.229.075-.125.149-.251.227-.377.208-.344.414-.694.619-1.039,1.825-3.116,1.356-4.578.924-9.214-.352-3.768-5.862-21.049-5.862-21.049l8-1.378s2.409,13.761,5.063,15.881c1.419,1.13,3.008,1.144,4.372,1.981q.145.088.284.179A10.483,10.483,0,0,1,2513.745,1571.454Z" transform="translate(-2425.245 -1384.203)" fill="#ffb27d"/>
            <path id="Trazado_140866" data-name="Trazado 140866" d="M2520.395,1643.855a2.207,2.207,0,0,1,.393,2.36.018.018,0,0,1-.006.012c-.7,1.572-2.531,3.32-4.643,5.069-.276.229-.519.439-.736.636-.057.05-.114.1-.167.15s-.086.079-.129.116c-2.037,1.878-1.271,2.308-4.931,6.12-4.174,4.343-7.047,4.421-7.865,4.025-.692-.337.714-2.64,2.271-5.229a17.787,17.787,0,0,0,7.44-5.482c2.513-3.207,4.189-7.327,5.9-9.714.1.058.191.118.284.179A10.5,10.5,0,0,1,2520.395,1643.855Z" transform="translate(-2431.895 -1456.605)" fill="#1c468a"/>
            <path id="Trazado_140867" data-name="Trazado 140867" d="M2171.206,1556.592c-.494,2.469-4.013,2.057-7.945,1.1s-3,.182-8.593-.438-7.291-2.706-7.462-3.538c-.153-.738,2.612-1,5.578-1.34.373-.042.748-.088,1.122-.134,3.349-.42,5.8-2.581,8.842-4.355,2.881-1.681,7.18-8.529,7.18-8.529l7.674.608s-4.027,6.116-5.584,8.776a9.274,9.274,0,0,0-.753,5.23A9.842,9.842,0,0,1,2171.206,1556.592Z" transform="translate(-2147.2 -1374.337)" fill="#ffb27d"/>
            <path id="Trazado_140868" data-name="Trazado 140868" d="M2163.261,1610.457c-3.932-.961-3,.182-8.593-.438s-7.291-2.706-7.462-3.538c-.153-.738,2.612-1,5.578-1.34l.028.057a15.774,15.774,0,0,0,8.014,2.491c3.8.092,7.818-1,10.439-.953a9.842,9.842,0,0,1-.059,2.625C2170.712,1611.83,2167.193,1611.418,2163.261,1610.457Z" transform="translate(-2147.2 -1427.106)" fill="#1c468a"/>
            <path id="Trazado_140869" data-name="Trazado 140869" d="M2302.6,1035.326s-1.828-4.48-3.84-4.663-8.411-1.189-8.868-.274a6.326,6.326,0,0,0,1.371,5.394c1.371,1.188,9.874,3.108,9.874,3.108Z" transform="translate(-2261.517 -965.786)" fill="#ffb27d"/>
            <path id="Trazado_140870" data-name="Trazado 140870" d="M2417.13,1328.627l16.539,44.51a15.145,15.145,0,0,0,4.977-.456,21.43,21.43,0,0,0,4.81-2.343s-4.1-42.738-11.625-51.627S2417.13,1328.627,2417.13,1328.627Z" transform="translate(-2363.715 -1195.443)" fill="#163560"/>
            <path id="Trazado_140871" data-name="Trazado 140871" d="M2340.157,1234.284s-47.525-16.07-58.123-12.65-42.422,66.733-42.422,66.733a6.143,6.143,0,0,0,2.678,1.691c1.824.684,6.238.64,6.238.64s28.72-24.617,32.138-31.8,4.787-14.018,8.206-13.334,44.105,16.753,53.337,7.18,6.817-22.011,6.817-22.011Z" transform="translate(-2221.324 -1119.107)" fill="#1c468a"/>
            <path id="Trazado_140872" data-name="Trazado 140872" d="M2582.7,745.877c-.759-1.567-1.607-4.35-2.023-9.311.064.492.919,6.75,3.325,10.292,9.884,6.489,28.827,28.156,28.453,32.262,0,0,6.673-11.318,6.788-11.385,0,0,12.309-15.652-2.279-24.618-7.415-4.557-7.376-10.405-7.067-15.485s-2.022-26.95-16.875-21.227c0,0-2.384-1.059-3.451-.9a2.917,2.917,0,0,1,1.315.624,11.525,11.525,0,0,0-6.238,1.193C2579.2,710.415,2574.332,738.174,2582.7,745.877Z" transform="translate(-2492.911 -705.456)" fill="#2c3a64"/>
            <path id="Trazado_140873" data-name="Trazado 140873" d="M2610.485,856.992c-.05.022,4.772,2.526,8.4,1.534,3.412-.93,5.641-5.353,5.594-5.363-1.445-.287-1.861-2.272-1.831-10.8l-.653.129-10.982,2.175s.25,3.456.257,6.712C2611.277,854.107,2611.111,856.7,2610.485,856.992Z" transform="translate(-2518.807 -815.268)" fill="#ffb27d"/>
            <path id="Trazado_140874" data-name="Trazado 140874" d="M2613.149,845.184s.25,3.456.257,6.712c6.145-.173,9.393-5.779,10.724-8.886Z" transform="translate(-2520.944 -815.789)" fill="#ed975d"/>
            <path id="Trazado_140875" data-name="Trazado 140875" d="M2597.231,745.506s3.22-5.088,3.993-9.439c.552-3.106-1.03-14.621-12.6-12.962a15.721,15.721,0,0,0-6.519,2.465c-2.512,1.7-6.138,5.36-2.084,15.407l1.053,3.394Z" transform="translate(-2492.911 -719.482)" fill="#2c3a64"/>
            <path id="Trazado_140876" data-name="Trazado 140876" d="M2583.15,770.132s14.539.24,14.549-8.817,1.893-15.125-7.389-15.661-11.09,2.918-11.829,5.94S2579.368,769.837,2583.15,770.132Z" transform="translate(-2492.997 -737.655)" fill="#ffb27d"/>
            <path id="Trazado_140877" data-name="Trazado 140877" d="M2605.5,735.819s3.98,10.625,10.09,12.2,8.759-.066,8.759-.066a58.208,58.208,0,0,1-3.208-11.964S2608.5,730.762,2605.5,735.819Z" transform="translate(-2514.807 -728.042)" fill="#2c3a64"/>
            <path id="Trazado_140878" data-name="Trazado 140878" d="M2580.643,742.094s-2.973,2.372-3.7,4.678-1.051,7.054-2.435,6.892c0,0-3-7.222.372-11.307C2578.456,738.026,2580.643,742.094,2580.643,742.094Z" transform="translate(-2488.966 -733.454)" fill="#2c3a64"/>
            <path id="Trazado_140879" data-name="Trazado 140879" d="M2526.734,939.871c1.434-6.013-3.444-17.682-8.536-27.342-4.621-8.756-9.417-15.858-9.847-15.6-12.186,7.233-13.287,1.22-13.287,1.22h0s-11.07,1.469-14.2,6.864c-3.887,6.694-8.088,25.4-12.26,28.94.641,1.961.366,3.005-.313,5.434q-.219.782-.483,1.485a28.593,28.593,0,0,1-2.094,4.3c2.121,1.289,6.216,3.739,9.233,1.977,4.6-2.692,8.188-10.887,10.209-14.151l.022-.037c4.391,24.851-1.579,30.511,1.443,33.131,3.191,2.767,7.75-1.317,17.78,3.029,6.578,2.854,15.708,6.98,21.853,7.7,3.223.378,5.628-.182,6.412-2.359C2534.94,968.134,2524,951.334,2526.734,939.871Z" transform="translate(-2402.68 -859.031)" fill="#17c878"/>
            <path id="Trazado_140880" data-name="Trazado 140880" d="M2596.962,838.852s-.271,1.151-3.133.973c0,0-2.4-.148-2.329-1.413A7.732,7.732,0,0,1,2596.962,838.852Z" transform="translate(-2503.578 -811.865)" fill="#fff"/>
            <path id="Trazado_140881" data-name="Trazado 140881" d="M2687.158,1083.178c-.784,2.177-3.189,2.738-6.412,2.359-4.254-1.853-22.628-8.972-22.423-13.8.305-7.141,3.533-7.37,1.254-16.184-1.831-7.078,15.148-20.238,17.856-23.1,5.093,9.661,5.233,10.117,3.8,16.13C2678.5,1060.053,2689.438,1076.852,2687.158,1083.178Z" transform="translate(-2557.178 -967.75)" fill="#15ac68"/>
            <path id="Trazado_140882" data-name="Trazado 140882" d="M2707.584,948.725a26.945,26.945,0,0,0-8.886-8.212c.514-1.324-13.706-18.758-13.706-21.46,0-2.735-3.794-22.105-3.794-22.105s11.849.732,15.951,6.453C2702.279,910.556,2712.935,938.094,2707.584,948.725Z" transform="translate(-2575.526 -859.054)" fill="#17c878"/>
            <path id="Trazado_140883" data-name="Trazado 140883" d="M2673.656,1117.1l-23.678,6.178,2.223,3.989s28.815-.2,30.342-1.955S2673.656,1117.1,2673.656,1117.1Z" transform="translate(-2550.486 -1035.641)" fill="#ffb27d"/>
            <path id="Trazado_140884" data-name="Trazado 140884" d="M2485.15,1079.236c-2.02,3.264-5.609,11.459-10.209,14.151-3.017,1.762-7.113-.688-9.233-1.977a28.593,28.593,0,0,0,2.094-4.3c1.693.387,3.758.882,5.09,1.284C2475.484,1089.177,2485.15,1079.236,2485.15,1079.236Z" transform="translate(-2402.68 -1005.27)" fill="#82b378"/>
            <path id="Trazado_140885" data-name="Trazado 140885" d="M2584.009,1141.486s-7.436-2.1-9.207-1.612-7.839,4.51-6.986,5.6,6.2-.654,8.659-.323,4.362,1.544,6.134,1.282a20.544,20.544,0,0,0,3.623-.958Z" transform="translate(-2484.517 -1053.849)" fill="#ffb27d"/>
            <path id="Trazado_140886" data-name="Trazado 140886" d="M2628.283,1136.087a27.857,27.857,0,0,1-4.673-2.933.29.29,0,0,0-.452.052c-.278.437-.537,1.282.739,2.122A6.862,6.862,0,0,0,2628.283,1136.087Z" transform="translate(-2528.791 -1048.45)" fill="#ffb27d"/>
          </g>
        </g>
        <g id="Grupo_97104" data-name="Grupo 97104" transform="translate(10.803 60.317)">
          <path id="Trazado_140887" data-name="Trazado 140887" d="M2476.327,1189.979h34.691a2.766,2.766,0,0,0-2.765-2.766h-31.926Z" transform="translate(-2422.001 -1152.198)" fill="#f1d54e"/>
          <path id="Trazado_140888" data-name="Trazado 140888" d="M2259.426,1010.262h-53.635l12.865,37.782h53.983Z" transform="translate(-2205 -1010.262)" fill="#ed7d2b"/>
          <path id="Trazado_140889" data-name="Trazado 140889" d="M2201.795,1010.262l12.867,37.781h53.981l-13.212-37.781Z" transform="translate(-2201.795 -1010.262)" fill="#f1d54e"/>
          <path id="Trazado_140890" data-name="Trazado 140890" d="M2347.647,1093.365a3.487,3.487,0,0,0,3.217,2.614,2.013,2.013,0,0,0,2.01-2.614,3.487,3.487,0,0,0-3.217-2.614A2.013,2.013,0,0,0,2347.647,1093.365Z" transform="translate(-2318.729 -1074.823)" fill="#f9ddbf"/>
          <path id="Trazado_140891" data-name="Trazado 140891" d="M2201.795,1010.262l12.867,37.781h35.75c-23.681-8.083-29.985-32.728-31.043-37.781Z" transform="translate(-2201.795 -1010.262)" fill="#f4dc6d"/>
        </g>
      </g>
      <g id="Grupo_97107" data-name="Grupo 97107" transform="translate(155.83 103.923)">
        <g id="Grupo_97106" data-name="Grupo 97106">
          <path id="Trazado_140892" data-name="Trazado 140892" d="M2905.529,1340.4a1.386,1.386,0,0,1-1.375-1.127l-6.736-38.183-9.69-54.915-2.709-15.356,6.9-.2,1.2,8.914,8.408,62.644,4.984,37.132A.972.972,0,0,1,2905.529,1340.4Z" transform="translate(-2885.019 -1230.622)" fill="#95c0f4"/>
        </g>
        <path id="Trazado_140893" data-name="Trazado 140893" d="M2893.118,1239.536a9.9,9.9,0,0,0-5.39,6.639l-2.709-15.356,6.9-.2Z" transform="translate(-2885.019 -1230.622)" fill="#78acea"/>
      </g>
      <g id="Grupo_97109" data-name="Grupo 97109" transform="translate(3.691 103.923)">
        <g id="Grupo_97108" data-name="Grupo 97108">
          <path id="Trazado_140894" data-name="Trazado 140894" d="M2117.186,1340.4a1.386,1.386,0,0,0,1.374-1.127l6.736-38.183,9.69-54.915,2.709-15.356-6.9-.2-1.2,8.914-8.407,62.644-4.985,37.132A.972.972,0,0,0,2117.186,1340.4Z" transform="translate(-2116.196 -1230.622)" fill="#95c0f4"/>
        </g>
        <path id="Trazado_140895" data-name="Trazado 140895" d="M2183.914,1239.536a9.9,9.9,0,0,1,5.389,6.639l2.709-15.356-6.9-.2Z" transform="translate(-2170.514 -1230.622)" fill="#78acea"/>
      </g>
      <path id="Rectángulo_32943" data-name="Rectángulo 32943" d="M6.029,0h173.1a6.029,6.029,0,0,1,6.029,6.029v0a6.029,6.029,0,0,1-6.029,6.029H6.029A6.029,6.029,0,0,1,0,6.029v0A6.029,6.029,0,0,1,6.029,0Z" transform="translate(0 98.091)" fill="#78acea"/>
    </g>
  </g>
</svg>
