<svg xmlns="http://www.w3.org/2000/svg" width="98" height="98" viewBox="0 0 98 98">
  <g id="Grupo_97915" data-name="Grupo 97915" transform="translate(-842 -5815)">
    <g id="Elipse_4507" data-name="Elipse 4507" transform="translate(842 5815)" fill="#fff" stroke="#0a5936" stroke-width="2">
      <circle cx="49" cy="49" r="49" stroke="none"/>
      <circle cx="49" cy="49" r="48" fill="none"/>
    </g>
    <g id="observacion" transform="translate(862.705 5833.733)">
      <g id="Grupo_97910" data-name="Grupo 97910" transform="translate(0.01)">
        <path id="Trazado_142203" data-name="Trazado 142203" d="M34.134,0A20.384,20.384,0,0,0,23.21,3.162a1.066,1.066,0,1,0,1.141,1.8,18.319,18.319,0,0,1,27.63,19.6A9.559,9.559,0,0,0,50.3,21.05c.008-.206.013-.409.013-.6a16.182,16.182,0,0,0-32.352-.622c-.012.308-.018.82-.008,1.238a9.561,9.561,0,0,0-1.668,3.5,18.343,18.343,0,0,1,2.363-13.9,1.066,1.066,0,0,0-1.8-1.141,20.43,20.43,0,0,0,.012,21.852L13.706,34.53h0L1.32,46.916a4.5,4.5,0,0,0-.007,6.337l.007.007a4.491,4.491,0,0,0,6.344,0L20.048,40.875h0l3.158-3.158A20.443,20.443,0,1,0,34.134,0Zm5.329,14.05a3.2,3.2,0,1,1,3.2,3.2h0A3.2,3.2,0,0,1,39.463,14.05Zm8.068,2.159a13.947,13.947,0,0,1,.573,2.738,9.579,9.579,0,0,0-1.825-.989A5.354,5.354,0,0,0,47.532,16.209Zm-13.4,5.3h0a3.2,3.2,0,1,1,3.2-3.2A3.2,3.2,0,0,1,34.133,21.511Zm-8.527-4.263h0a3.2,3.2,0,1,1,3.2-3.2A3.2,3.2,0,0,1,25.606,17.248Zm-3.62.71a9.579,9.579,0,0,0-1.825.99,14.1,14.1,0,0,1,.568-2.752A5.35,5.35,0,0,0,21.989,17.957Zm3.618,1.422h0a7.445,7.445,0,0,1,3.58.916,5.348,5.348,0,0,0,1.326,1.926,9.649,9.649,0,0,0-4.353,3.554H18.223A7.473,7.473,0,0,1,25.607,19.38Zm-.516,8.527a9.536,9.536,0,0,0-.54,2.8,14.04,14.04,0,0,1-2.32-2.8Zm4.78,4.263a1.066,1.066,0,1,0,0-2.132H26.749a7.472,7.472,0,0,1,7.384-6.395h0a7.472,7.472,0,0,1,7.384,6.395H38.4a1.066,1.066,0,1,0,0,2.132h3.459a13.979,13.979,0,0,1-15.444,0Zm13.847-1.461a9.531,9.531,0,0,0-.54-2.8h2.86A14.035,14.035,0,0,1,43.718,30.708Zm-1.612-4.934a9.649,9.649,0,0,0-4.353-3.554,5.348,5.348,0,0,0,1.327-1.926,7.447,7.447,0,0,1,3.58-.915h0a7.472,7.472,0,0,1,7.384,6.395Zm-.163-17a5.336,5.336,0,0,0-4.612,5.28v0a5.318,5.318,0,0,0-6.4,0v0a5.336,5.336,0,0,0-4.645-5.284,14.086,14.086,0,0,1,15.652,0ZM6.156,51.753a2.357,2.357,0,0,1-3.324.005l-.006-.006a2.364,2.364,0,0,1,0-3.329L14.458,36.792l3.329,3.329ZM19.295,38.614l-3.329-3.329,2.15-2.15a20.63,20.63,0,0,0,3.329,3.329Zm14.84.145A18.339,18.339,0,0,1,17.411,27.906h2.364a16.181,16.181,0,0,0,28.72,0h2.364A18.339,18.339,0,0,1,34.134,38.759Z" transform="translate(-0.01)" fill="#0a5936"/>
        <path id="Trazado_142204" data-name="Trazado 142204" d="M182.669,55.387a1.066,1.066,0,1,0-.788-1.783h0a1.066,1.066,0,0,0,.788,1.782Z" transform="translate(-162.249 -47.579)" fill="#0a5936"/>
        <path id="Trazado_142205" data-name="Trazado 142205" d="M312.307,282.891a1.066,1.066,0,0,0-1.066-1.066h0a1.066,1.066,0,1,0,1.067,1.066Z" transform="translate(-277.117 -251.787)" fill="#0a5936"/>
      </g>
    </g>
  </g>
</svg>
