<svg xmlns="http://www.w3.org/2000/svg" width="241" height="198" viewBox="0 0 241 198">
  <g id="Grupo_99307" data-name="Grupo 99307" transform="translate(-3642 7998)">
    <g id="Grupo_99287" data-name="Grupo 99287" transform="translate(2637.5 -11310)">
      <g id="Grupo_98029" data-name="Grupo 98029" transform="translate(726.581 2778)">
        <rect id="Rectángulo_32944" data-name="Rectángulo 32944" width="241" height="198" transform="translate(277.919 534)" fill="#d7fced"/>
      </g>
    </g>
    <g id="file" transform="translate(3679.648 -7967.925)">
      <g id="Grupo_99268" data-name="Grupo 99268" transform="translate(30.107 2.755)">
        <g id="Grupo_99264" data-name="Grupo 99264" transform="translate(18.77 49.942)">
          <path id="Trazado_145022" data-name="Trazado 145022" d="M181.009,193.7a26.174,26.174,0,0,1-7.718-1.156v62.242a7.272,7.272,0,0,1-7.272,7.272H105.476v7.55a7.272,7.272,0,0,0,7.272,7.272h72.041a7.272,7.272,0,0,0,7.272-7.272V191.256A26.082,26.082,0,0,1,181.009,193.7Z" transform="translate(-105.476 -191.256)" fill="#5cd8a0"/>
        </g>
        <g id="Grupo_99265" data-name="Grupo 99265" transform="translate(0 5.964)">
          <path id="Trazado_145023" data-name="Trazado 145023" d="M114.468,31.646H44.624a7.272,7.272,0,0,0-7.272,7.272V139.149a7.272,7.272,0,0,0,7.272,7.272h72.041a7.272,7.272,0,0,0,7.272-7.272V77.459" transform="translate(-37.352 -31.646)" fill="#faf7f5"/>
        </g>
        <g id="Grupo_99266" data-name="Grupo 99266" transform="translate(68.118)">
          <ellipse id="Elipse_4668" data-name="Elipse 4668" cx="26.186" cy="26.191" rx="26.186" ry="26.191" fill="#f1d54e"/>
        </g>
        <g id="Grupo_99267" data-name="Grupo 99267" transform="translate(18.468 27.724)">
          <path id="Trazado_145024" data-name="Trazado 145024" d="M104.377,110.62h49.65v11.637h-49.65Z" transform="translate(-104.377 -110.62)" fill="#ffe6b4"/>
        </g>
      </g>
      <g id="Grupo_99286" data-name="Grupo 99286" transform="translate(27.352)">
        <g id="Grupo_99270" data-name="Grupo 99270" transform="translate(94.316 22.582)">
          <g id="Grupo_99269" data-name="Grupo 99269">
            <path id="Trazado_145025" data-name="Trazado 145025" d="M372.41,106.307a2.756,2.756,0,0,1-2.755-2.755V84.711a2.755,2.755,0,0,1,5.511,0v18.841A2.755,2.755,0,0,1,372.41,106.307Z" transform="translate(-369.655 -81.956)" fill="#0a5936"/>
          </g>
        </g>
        <g id="Grupo_99272" data-name="Grupo 99272" transform="translate(94.304 13.715)">
          <g id="Grupo_99271" data-name="Grupo 99271">
            <circle id="Elipse_4669" data-name="Elipse 4669" cx="2.755" cy="2.755" r="2.755" fill="#0a5936"/>
          </g>
        </g>
        <g id="Grupo_99275" data-name="Grupo 99275">
          <path id="Trazado_145026" data-name="Trazado 145026" d="M153.352,28.947A28.926,28.926,0,0,0,106.834,5.964H37.379A10.039,10.039,0,0,0,27.352,15.992V116.223a10.039,10.039,0,0,0,10.027,10.028h8.743v4.794A10.039,10.039,0,0,0,56.15,141.073h72.041a10.039,10.039,0,0,0,10.027-10.028V92.828a2.755,2.755,0,1,0-5.511,0v38.217a4.522,4.522,0,0,1-4.517,4.517H56.15a4.522,4.522,0,0,1-4.517-4.517v-4.794h57.788a10.039,10.039,0,0,0,10.028-10.028V57.467a29.046,29.046,0,0,0,13.259-.786V67.917a2.755,2.755,0,0,0,5.511,0V54.381a28.973,28.973,0,0,0,15.133-25.435Zm-39.414,87.277a4.522,4.522,0,0,1-4.517,4.517H37.379a4.522,4.522,0,0,1-4.517-4.517V15.992a4.522,4.522,0,0,1,4.517-4.517H101.35A28.8,28.8,0,0,0,95.5,27.724H48.575a2.756,2.756,0,0,0-2.755,2.755V42.116a2.756,2.756,0,0,0,2.755,2.755h49.65a2.743,2.743,0,0,0,1.667-.561,29.111,29.111,0,0,0,14.046,11.622ZM95.47,33.235v6.126H51.33V33.235Zm28.941,19.148a23.436,23.436,0,1,1,23.43-23.436A23.46,23.46,0,0,1,124.411,52.382Z" transform="translate(-27.352)" fill="#0a5936"/>
          <g id="Grupo_99274" data-name="Grupo 99274" transform="translate(105.361 77.574)">
            <g id="Grupo_99273" data-name="Grupo 99273">
              <path id="Trazado_145027" data-name="Trazado 145027" d="M412.491,287.046a2.755,2.755,0,1,1,2.684-2.13A2.782,2.782,0,0,1,412.491,287.046Z" transform="translate(-409.742 -281.541)" fill="#0a5936"/>
            </g>
          </g>
        </g>
        <g id="Grupo_99285" data-name="Grupo 99285" transform="translate(18.468 54.454)">
          <g id="Grupo_99284" data-name="Grupo 99284">
            <g id="Grupo_99277" data-name="Grupo 99277">
              <g id="Grupo_99276" data-name="Grupo 99276">
                <path id="Trazado_145028" data-name="Trazado 145028" d="M146.783,203.144H97.132a2.755,2.755,0,1,1,0-5.511h49.65a2.755,2.755,0,0,1,0,5.511Z" transform="translate(-94.377 -197.633)" fill="#0a5936"/>
              </g>
            </g>
            <g id="Grupo_99279" data-name="Grupo 99279" transform="translate(0 13.069)">
              <g id="Grupo_99278" data-name="Grupo 99278">
                <path id="Trazado_145029" data-name="Trazado 145029" d="M146.783,250.574H97.132a2.755,2.755,0,0,1,0-5.511h49.65a2.755,2.755,0,0,1,0,5.511Z" transform="translate(-94.377 -245.063)" fill="#0a5936"/>
              </g>
            </g>
            <g id="Grupo_99281" data-name="Grupo 99281" transform="translate(0 26.137)">
              <g id="Grupo_99280" data-name="Grupo 99280">
                <path id="Trazado_145030" data-name="Trazado 145030" d="M146.783,298H97.132a2.755,2.755,0,1,1,0-5.511h49.65a2.755,2.755,0,1,1,0,5.511Z" transform="translate(-94.377 -292.493)" fill="#0a5936"/>
              </g>
            </g>
            <g id="Grupo_99283" data-name="Grupo 99283" transform="translate(0 39.206)">
              <g id="Grupo_99282" data-name="Grupo 99282">
                <path id="Trazado_145031" data-name="Trazado 145031" d="M146.783,345.434H97.132a2.755,2.755,0,0,1,0-5.511h49.65a2.755,2.755,0,0,1,0,5.511Z" transform="translate(-94.377 -339.923)" fill="#0a5936"/>
              </g>
            </g>
          </g>
        </g>
      </g>
    </g>
  </g>
</svg>
