<svg xmlns="http://www.w3.org/2000/svg" width="315" height="165" viewBox="0 0 315 165">
  <g id="Grupo_98378" data-name="Grupo 98378" transform="translate(2115 4415)">
    <rect id="Rectángulo_33345" data-name="Rectángulo 33345" width="315" height="165" rx="5" transform="translate(-2115 -4415)" fill="#fff"/>
    <g id="ganador" transform="translate(-2051.301 -4400.135)">
      <g id="Grupo_98376" data-name="Grupo 98376" transform="translate(38.644 7.927)">
        <path id="Trazado_142625" data-name="Trazado 142625" d="M201.448,76.471a4.2,4.2,0,0,0,3.582-4.733l-1.607-11.5,7.975-8.411a4.2,4.2,0,0,0-2.147-7.213l-11.43-2.025-5.653-10.4a4.191,4.191,0,0,0-7.378.032l-5.457,10.244-11.513,2.139a4.2,4.2,0,0,0-2.4,7.057l8.061,8.361-1.5,11.444a4.2,4.2,0,0,0,5.958,4.625l10.431-5.077,10.692,5.094A4.187,4.187,0,0,0,201.448,76.471Z" transform="translate(-133.01 -30.003)" fill="#f1d54e" fill-rule="evenodd"/>
        <path id="Trazado_142626" data-name="Trazado 142626" d="M217.706,262h-26.42A5.3,5.3,0,0,0,186,267.286V325.41H222.99V267.286A5.3,5.3,0,0,0,217.706,262Z" transform="translate(-149.014 -200.708)" fill="#5cd8a0" fill-rule="evenodd"/>
        <g id="Grupo_98375" data-name="Grupo 98375" transform="translate(0 71.862)">
          <path id="Trazado_142627" data-name="Trazado 142627" d="M82.99,354.843V302h-31.7A5.3,5.3,0,0,0,46,307.287v47.556H82.99Z" transform="translate(-46.002 -302.003)" fill="#d2f6e6" fill-rule="evenodd"/>
          <path id="Trazado_142628" data-name="Trazado 142628" d="M326,342v42.272H362.99V347.287A5.3,5.3,0,0,0,357.706,342Z" transform="translate(-252.026 -331.435)" fill="#d2f6e6" fill-rule="evenodd"/>
        </g>
      </g>
      <g id="Grupo_98377" data-name="Grupo 98377" transform="translate(36.002 0)">
        <path id="Trazado_142629" data-name="Trazado 142629" d="M144.323,273.138H115.261v-13.21A7.935,7.935,0,0,0,107.336,252H80.916a7.935,7.935,0,0,0-7.926,7.926v2.642H43.928A7.935,7.935,0,0,0,36,270.5v47.556a2.642,2.642,0,0,0,2.642,2.642H149.607a2.642,2.642,0,0,0,2.642-2.642V281.064A7.935,7.935,0,0,0,144.323,273.138ZM109.977,315.41h-31.7V308.8a2.642,2.642,0,1,0-5.284,0v6.606h-31.7V270.5a2.645,2.645,0,0,1,2.642-2.642H72.99v17.172a2.642,2.642,0,1,0,5.284,0v-25.1a2.645,2.645,0,0,1,2.642-2.642h26.42a2.645,2.645,0,0,1,2.642,2.642Zm36.988,0h-31.7V278.422h29.062a2.645,2.645,0,0,1,2.642,2.642Z" transform="translate(-36.002 -185.424)" fill="#0a5936"/>
        <path id="Trazado_142630" data-name="Trazado 142630" d="M380.538,379.929a7.9,7.9,0,0,0-13.9-5.154,2.642,2.642,0,1,0,4.018,3.431,2.628,2.628,0,1,1,3.812,3.614,2.642,2.642,0,0,0,.368,4.067,3.969,3.969,0,0,1-2.195,7.252,3.875,3.875,0,0,1-2.383-.81,2.642,2.642,0,0,0-3.222,4.188,9.114,9.114,0,0,0,5.6,1.906,9.254,9.254,0,0,0,7.142-15.092A7.916,7.916,0,0,0,380.538,379.929Z" transform="translate(-278.816 -273.721)" fill="#0a5936"/>
        <path id="Trazado_142631" data-name="Trazado 142631" d="M99.212,353.126H92.846c.582-.535,1.311-1.108,2.162-1.765,3.022-2.331,6.782-5.233,6.846-10.7a8.466,8.466,0,0,0-6.243-8.43,7.687,7.687,0,0,0-8.841,4.127,2.642,2.642,0,0,0,4.668,2.476,2.415,2.415,0,0,1,2.867-1.483A3.156,3.156,0,0,1,96.57,340.6c-.032,2.711-1.831,4.293-4.79,6.576-2.708,2.09-5.777,4.458-5.777,8.59a2.642,2.642,0,0,0,2.642,2.642H99.212a2.642,2.642,0,1,0,0-5.284Z" transform="translate(-72.793 -244.275)" fill="#0a5936"/>
        <path id="Trazado_142632" data-name="Trazado 142632" d="M243.414,313.139h-.287V294.645a2.642,2.642,0,0,0-3.963-2.288l-2.929,1.691a2.642,2.642,0,0,0,1.608,4.915v14.176h-.287a2.642,2.642,0,0,0,0,5.284h5.858a2.642,2.642,0,0,0,0-5.284Z" transform="translate(-182.361 -214.856)" fill="#0a5936"/>
        <path id="Trazado_142633" data-name="Trazado 142633" d="M163.34,53.576l-1.324,10.1a6.782,6.782,0,0,0,.571,4.27,6.847,6.847,0,0,0,9.152,3.158l9.287-4.52,9.542,4.546a6.845,6.845,0,0,0,9.72-7.121l-1.431-10.241,7.05-7.436a6.846,6.846,0,0,0-3.555-11.684l-10.177-1.8-5.045-9.281h0a6.833,6.833,0,0,0-12.03.053l-4.859,9.121-10.223,1.9a6.838,6.838,0,0,0-3.855,11.5Zm-3.33-13.307a1.54,1.54,0,0,1,.842-.417l.09-.015L172.456,37.7a2.642,2.642,0,0,0,1.849-1.355L179.762,26.1a1.549,1.549,0,0,1,2.726-.013l5.653,10.4A2.642,2.642,0,0,0,190,37.824l11.437,2.026a1.562,1.562,0,0,1,.8,2.678q-.059.055-.115.114l-7.975,8.411a2.642,2.642,0,0,0-.7,2.183l1.607,11.5a1.566,1.566,0,0,1-2.212,1.624L182.15,61.264a2.642,2.642,0,0,0-2.292.01l-10.431,5.077a1.563,1.563,0,0,1-2.088-.72,1.546,1.546,0,0,1-.126-1q.019-.094.032-.19L168.745,53a2.642,2.642,0,0,0-.718-2.177l-8.059-8.359a1.553,1.553,0,0,1,.042-2.2Z" transform="translate(-123.009 -14.71)" fill="#0a5936"/>
        <path id="Trazado_142634" data-name="Trazado 142634" d="M95.822,4.931l10.429,6.021a2.642,2.642,0,0,0,2.642-4.576L98.464.355a2.642,2.642,0,1,0-2.642,4.576Z" transform="translate(-79.045 0)" fill="#0a5936"/>
        <path id="Trazado_142635" data-name="Trazado 142635" d="M63.3,119a2.71,2.71,0,0,0,.384-.028L75.6,117.24a2.642,2.642,0,1,0-.761-5.229l-11.917,1.734A2.642,2.642,0,0,0,63.3,119Z" transform="translate(-54.143 -82.397)" fill="#0a5936"/>
        <path id="Trazado_142636" data-name="Trazado 142636" d="M113.484,197.242l-8.515,8.515a2.642,2.642,0,1,0,3.736,3.737l8.515-8.515a2.642,2.642,0,0,0-3.736-3.737Z" transform="translate(-86.179 -144.561)" fill="#0a5936"/>
        <path id="Trazado_142637" data-name="Trazado 142637" d="M360.672,11.306a2.631,2.631,0,0,0,1.319-.355L372.42,4.93A2.642,2.642,0,0,0,369.778.355L359.349,6.376a2.642,2.642,0,0,0,1.323,4.93Z" transform="translate(-272.949 0)" fill="#0a5936"/>
        <path id="Trazado_142638" data-name="Trazado 142638" d="M386.267,114.244a2.642,2.642,0,0,0,2.234,2.995l11.917,1.734a2.642,2.642,0,0,0,.761-5.229l-11.917-1.734A2.644,2.644,0,0,0,386.267,114.244Z" transform="translate(-293.707 -82.397)" fill="#0a5936"/>
        <path id="Trazado_142639" data-name="Trazado 142639" d="M356.352,197.242a2.642,2.642,0,0,0,0,3.737l8.515,8.515a2.642,2.642,0,0,0,3.736-3.737l-8.515-8.515a2.642,2.642,0,0,0-3.736,0Z" transform="translate(-271.147 -144.562)" fill="#0a5936"/>
        <path id="Trazado_142640" data-name="Trazado 142640" d="M178.644,412a2.642,2.642,0,1,0,2.642,2.643v0A2.641,2.641,0,0,0,178.644,412Z" transform="translate(-139.014 -303.15)" fill="#0a5936"/>
      </g>
    </g>
  </g>
</svg>
