<svg xmlns="http://www.w3.org/2000/svg" width="171" height="140" viewBox="0 0 171 140">
  <g id="Grupo_97253" data-name="Grupo 97253" transform="translate(-1003.919 -3983)">
    <rect id="Rectángulo_32944" data-name="Rectángulo 32944" width="171" height="140" rx="5" transform="translate(1003.919 3983)" fill="#fff"/>
    <g id="investigacion" transform="translate(1043.583 4011)">
      <path id="Trazado_141278" data-name="Trazado 141278" d="M67.552,72.133V90.456H8V8H81.294v7.238a25.965,25.965,0,1,0-10.689,50.6v6.291Zm0,0" transform="translate(-6.473 -6.473)" fill="#fff"/>
      <path id="Trazado_141279" data-name="Trazado 141279" d="M135.27,263.27H120V248A15.275,15.275,0,0,1,135.27,263.27Zm0,0" transform="translate(-97.096 -200.664)" fill="#5cd8a0"/>
      <path id="Trazado_141280" data-name="Trazado 141280" d="M55.27,263.27v15.27a15.27,15.27,0,0,1,0-30.539Zm0,0" transform="translate(-32.365 -200.664)" fill="#d2f6e6"/>
      <path id="Trazado_141281" data-name="Trazado 141281" d="M120,328h15.27A15.275,15.275,0,0,1,120,343.27Zm0,0" transform="translate(-97.096 -265.394)" fill="#fb9e36"/>
      <path id="Trazado_141282" data-name="Trazado 141282" d="M332.216,344v21.378a6.108,6.108,0,1,1-12.216,0V344Zm0,0" transform="translate(-258.921 -278.34)" fill="#f1d54e"/>
      <path id="Trazado_141283" data-name="Trazado 141283" d="M342.108,311.039v6.291H336v-6.291a25.517,25.517,0,0,0,6.108,0Zm0,0" transform="translate(-271.867 -251.671)" fill="#aab2bd"/>
      <path id="Trazado_141284" data-name="Trazado 141284" d="M249.593,41.13a25.967,25.967,0,0,1-4.581,50.6,25.516,25.516,0,0,1-6.108,0,25.96,25.96,0,1,1,10.689-50.6Zm0,0" transform="translate(-174.772 -32.365)" fill="#ccd1d9"/>
      <path id="Trazado_141285" data-name="Trazado 141285" d="M287.7,91.851A19.851,19.851,0,1,1,267.851,72,19.851,19.851,0,0,1,287.7,91.851Zm0,0" transform="translate(-200.664 -58.257)" fill="#f1d54e"/>
      <path id="Trazado_141286" data-name="Trazado 141286" d="M307.485,128.456H280a6.056,6.056,0,0,1,4.4-5.833l6.291-1.8v-2.367a6.1,6.1,0,0,1-3.054-5.268v-3.054a6.1,6.1,0,0,1,6.657-6.077,6.316,6.316,0,0,1,5.558,6.4v2.733a6.1,6.1,0,0,1-3.054,5.268v2.367l6.291,1.8a6.059,6.059,0,0,1,3.176,2.168A6.176,6.176,0,0,1,307.485,128.456Zm0,0" transform="translate(-226.556 -84.174)" fill="#e6e9ed"/>
      <path id="Trazado_141287" data-name="Trazado 141287" d="M240,85.378A21.378,21.378,0,1,0,261.378,64,21.4,21.4,0,0,0,240,85.378ZM261.378,103.7a18.264,18.264,0,0,1-13.619-6.108H275A18.264,18.264,0,0,1,261.378,103.7Zm-2.286-18.963A4.532,4.532,0,0,1,256.8,80.8V77.743a4.594,4.594,0,0,1,1.486-3.378,4.538,4.538,0,0,1,3.509-1.185,4.785,4.785,0,0,1,4.167,4.88V80.8a4.532,4.532,0,0,1-2.295,3.941l-.759.441v4.4l7.39,2.112a4.566,4.566,0,0,1,3.032,2.844h-23.9a4.566,4.566,0,0,1,3.032-2.844l7.39-2.112v-4.4Zm20.61.64a18.222,18.222,0,0,1-3.1,10.177,7.619,7.619,0,0,0-5.47-6.8l-5.177-1.479v-.406a7.642,7.642,0,0,0,3.054-6.076V78.062a7.855,7.855,0,0,0-6.957-7.922,7.633,7.633,0,0,0-8.313,7.6V80.8a7.64,7.64,0,0,0,3.054,6.076v.406l-5.177,1.479a7.621,7.621,0,0,0-5.47,6.8A18.32,18.32,0,1,1,279.7,85.378Zm0,0" transform="translate(-194.191 -51.784)" fill="#0a5936"/>
      <path id="Trazado_141288" data-name="Trazado 141288" d="M94.672,33.593A27.509,27.509,0,0,0,76.348,7.711V0H0V85.51H59.552v1.527a7.635,7.635,0,0,0,15.27,0v-22.9H71.767V60.665A27.507,27.507,0,0,0,94.672,33.593Zm-3.054,0A24.431,24.431,0,1,1,67.186,9.162,24.46,24.46,0,0,1,91.618,33.593ZM71.767,87.037a4.581,4.581,0,0,1-9.162,0V82.456H3.054V3.054h70.24V6.816A27.461,27.461,0,1,0,62.606,60.665v3.468H59.552V79.4h3.054V67.186h9.162Zm-3.054-22.9H65.66V61c.508.028,1.011.078,1.527.078S68.2,61.029,68.713,61Zm0,0" fill="#0a5936"/>
      <path id="Trazado_141289" data-name="Trazado 141289" d="M48.8,240a16.8,16.8,0,1,0,16.8,16.8A16.817,16.817,0,0,0,48.8,240Zm13.652,15.27H50.324V243.144A13.762,13.762,0,0,1,62.449,255.27Zm-27.4,1.527A13.759,13.759,0,0,1,47.27,243.144v27.3A13.759,13.759,0,0,1,35.054,256.8Zm15.27,13.652V258.324H62.449A13.762,13.762,0,0,1,50.324,270.449Zm0,0" transform="translate(-25.892 -194.191)" fill="#0a5936"/>
      <path id="Trazado_141290" data-name="Trazado 141290" d="M32,32h3.054v3.054H32Zm0,0" transform="translate(-25.892 -25.892)" fill="#fb9e36"/>
      <path id="Trazado_141291" data-name="Trazado 141291" d="M64,32H88.431v3.054H64Zm0,0" transform="translate(-51.784 -25.892)" fill="#fb9e36"/>
      <path id="Trazado_141292" data-name="Trazado 141292" d="M32,64H62.539v3.054H32Zm0,0" transform="translate(-25.892 -51.784)" fill="#fb9e36"/>
      <path id="Trazado_141293" data-name="Trazado 141293" d="M32,96H62.539v3.054H32Zm0,0" transform="translate(-25.892 -77.676)" fill="#fb9e36"/>
      <path id="Trazado_141294" data-name="Trazado 141294" d="M32,128H62.539v3.054H32Zm0,0" transform="translate(-25.892 -103.569)" fill="#fb9e36"/>
      <path id="Trazado_141295" data-name="Trazado 141295" d="M32,160H62.539v3.054H32Zm0,0" transform="translate(-25.892 -129.461)" fill="#fb9e36"/>
      <path id="Trazado_141296" data-name="Trazado 141296" d="M32,192H56.431v3.054H32Zm0,0" transform="translate(-25.892 -155.353)" fill="#fb9e36"/>
      <path id="Trazado_141297" data-name="Trazado 141297" d="M176,192h3.054v3.054H176Zm0,0" transform="translate(-142.407 -155.353)"/>
      <path id="Trazado_141298" data-name="Trazado 141298" d="M224,400h13.743v3.054H224Zm0,0" transform="translate(-181.245 -323.652)" fill="#f1d54e"/>
      <path id="Trazado_141299" data-name="Trazado 141299" d="M224,368h13.743v3.054H224Zm0,0" transform="translate(-181.245 -297.76)" fill="#f1d54e"/>
      <path id="Trazado_141300" data-name="Trazado 141300" d="M224,336h13.743v3.054H224Zm0,0" transform="translate(-181.245 -271.867)" fill="#f1d54e"/>
    </g>
  </g>
</svg>
