<svg id="analisis-foda" xmlns="http://www.w3.org/2000/svg" width="57.5" height="57.499" viewBox="0 0 57.5 57.499">
  <path id="Trazado_143023" data-name="Trazado 143023" d="M163.165,149.72a13.446,13.446,0,1,0-13.446,13.446A13.461,13.461,0,0,0,163.165,149.72ZM149.72,161.481a11.761,11.761,0,1,1,11.761-11.761A11.774,11.774,0,0,1,149.72,161.481Z" transform="translate(-120.97 -120.97)" fill="#5cd8a0"/>
  <path id="Trazado_143026" data-name="Trazado 143026" d="M12.75,26.857h.044a.842.842,0,0,0,.042-1.684A11.753,11.753,0,1,1,25.175,12.837a.842.842,0,0,0,1.682-.086A13.437,13.437,0,1,0,12.75,26.857Z" fill="#5cd8a0"/>
  <path id="Trazado_143027" data-name="Trazado 143027" d="M273.64,13.635a.844.844,0,0,0,.884-.8,11.753,11.753,0,1,1,12.338,12.338.842.842,0,0,0,.042,1.684h.044A13.437,13.437,0,1,0,272.842,12.75a.842.842,0,0,0,.8.884Z" transform="translate(-242.2 0)" fill="#5cd8a0"/>
  <path id="Trazado_143028" data-name="Trazado 143028" d="M286.948,272.843a.842.842,0,1,0-.086,1.682,11.753,11.753,0,1,1-12.338,12.338.842.842,0,0,0-1.682.086,13.437,13.437,0,1,0,14.107-14.107Z" transform="translate(-242.199 -242.201)" fill="#5cd8a0"/>
  <path id="Trazado_143029" data-name="Trazado 143029" d="M202.055,200.864a5.352,5.352,0,1,0-1.191,1.191l3.473,3.473a.842.842,0,0,0,1.191-1.191Zm-4.324.526a3.659,3.659,0,1,1,3.659-3.659A3.663,3.663,0,0,1,197.731,201.389Z" transform="translate(-170.781 -170.781)" fill="#5cd8a0"/>
  <path id="Trazado_143031" data-name="Trazado 143031" d="M26.059,286.066a.843.843,0,0,0-.884.8,11.753,11.753,0,1,1-12.338-12.338.842.842,0,1,0-.086-1.682A13.437,13.437,0,1,0,26.857,286.95.842.842,0,0,0,26.059,286.066Z" transform="translate(0 -242.201)" fill="#5cd8a0"/>
</svg>
