<svg xmlns="http://www.w3.org/2000/svg" width="83" height="83" viewBox="0 0 83 83">
  <g id="Grupo_99309" data-name="Grupo 99309" transform="translate(4722 5022)">
    <g id="Grupo_97957" data-name="Grupo 97957" transform="translate(9 -107)">
      <rect id="Rectángulo_33265" data-name="Rectángulo 33265" width="83" height="83" rx="7" transform="translate(-4731 -4915)" fill="#fff"/>
      <g id="arbol-de-frutas" transform="translate(-4714.004 -4897.862)">
        <g id="Grupo_97931" data-name="Grupo 97931" transform="translate(12.871 15.48)">
          <g id="Grupo_97930" data-name="Grupo 97930">
            <path id="Trazado_142230" data-name="Trazado 142230" d="M143.026,168.35l-6.493-6.166a.956.956,0,0,0-1.317,1.386l6.2,5.884V170.8H135.54a.956.956,0,0,0,0,1.912h6.828a.956.956,0,0,0,.956-.956v-2.709A.956.956,0,0,0,143.026,168.35Z" transform="translate(-134.584 -161.92)"/>
          </g>
        </g>
        <g id="Grupo_97933" data-name="Grupo 97933" transform="translate(15.404 10.676)">
          <g id="Grupo_97932" data-name="Grupo 97932">
            <path id="Trazado_142231" data-name="Trazado 142231" d="M168.239,111.672a.956.956,0,0,0-.956.956v6.543l-4.566-4.566a.956.956,0,0,0-1.352,1.352l6.168,6.168a.956.956,0,0,0,.676.28h.03a.956.956,0,0,0,.956-.956v-8.822A.956.956,0,0,0,168.239,111.672Z" transform="translate(-161.084 -111.672)"/>
          </g>
        </g>
        <g id="Grupo_97935" data-name="Grupo 97935" transform="translate(25.442 10.676)">
          <g id="Grupo_97934" data-name="Grupo 97934">
            <path id="Trazado_142232" data-name="Trazado 142232" d="M273.488,114.945a2.867,2.867,0,0,0-2.571,4.137l-2.924,2.924v-9.38a.956.956,0,1,0-1.912,0v11.688a.956.956,0,0,0,1.632.676l4.574-4.574a2.868,2.868,0,1,0,1.2-5.472Zm0,3.824a.956.956,0,1,1,.956-.956A.957.957,0,0,1,273.488,118.77Z" transform="translate(-266.081 -111.671)"/>
          </g>
        </g>
        <g id="Grupo_97937" data-name="Grupo 97937" transform="translate(14.893 2.364)">
          <g id="Grupo_97936" data-name="Grupo 97936">
            <path id="Trazado_142233" data-name="Trazado 142233" d="M157.545,25.2a.956.956,0,0,0-1.309-.338l-.027.016a.956.956,0,1,0,.978,1.643l.02-.012A.956.956,0,0,0,157.545,25.2Z" transform="translate(-155.741 -24.728)"/>
          </g>
        </g>
        <g id="Grupo_97939" data-name="Grupo 97939" transform="translate(3.254 19.706)">
          <g id="Grupo_97938" data-name="Grupo 97938">
            <path id="Trazado_142234" data-name="Trazado 142234" d="M36.87,206.119a2.868,2.868,0,1,0,2.868,2.868A2.871,2.871,0,0,0,36.87,206.119Zm0,3.824a.956.956,0,1,1,.956-.956A.957.957,0,0,1,36.87,209.943Z" transform="translate(-34.002 -206.119)"/>
          </g>
        </g>
        <g id="Grupo_97941" data-name="Grupo 97941" transform="translate(26.054 3.251)">
          <g id="Grupo_97940" data-name="Grupo 97940">
            <path id="Trazado_142235" data-name="Trazado 142235" d="M275.346,34.006a2.868,2.868,0,1,0,2.868,2.868A2.871,2.871,0,0,0,275.346,34.006Zm0,3.824a.956.956,0,1,1,.956-.956A.957.957,0,0,1,275.346,37.83Z" transform="translate(-272.478 -34.006)"/>
          </g>
        </g>
        <g id="Grupo_97943" data-name="Grupo 97943" transform="translate(14.209 6.231)">
          <g id="Grupo_97942" data-name="Grupo 97942">
            <path id="Trazado_142236" data-name="Trazado 142236" d="M151.451,65.173a2.868,2.868,0,1,0,2.868,2.868A2.871,2.871,0,0,0,151.451,65.173Zm0,3.824a.956.956,0,1,1,.956-.956A.957.957,0,0,1,151.451,69Z" transform="translate(-148.583 -65.173)"/>
          </g>
        </g>
        <g id="Grupo_97945" data-name="Grupo 97945" transform="translate(37.23 21.619)">
          <g id="Grupo_97944" data-name="Grupo 97944">
            <path id="Trazado_142237" data-name="Trazado 142237" d="M392.245,226.13A2.868,2.868,0,1,0,395.113,229,2.871,2.871,0,0,0,392.245,226.13Zm0,3.824A.956.956,0,1,1,393.2,229,.957.957,0,0,1,392.245,229.954Z" transform="translate(-389.377 -226.13)"/>
          </g>
        </g>
        <g id="Grupo_97947" data-name="Grupo 97947" transform="translate(39.372 39.986)">
          <g id="Grupo_97946" data-name="Grupo 97946">
            <path id="Trazado_142238" data-name="Trazado 142238" d="M418.691,422.368a5.377,5.377,0,0,0-2.1-3.559,5.221,5.221,0,0,0-4.081-.284.956.956,0,0,0-.729,1.041,5.32,5.32,0,0,0,2.065,3.661,4,4,0,0,0,2.135.559,6.5,6.5,0,0,0,2.056-.356.956.956,0,0,0,.65-1.063Zm-3.829-.762a.939.939,0,1,1,.72-1.174,2.778,2.778,0,0,1,.993,1.393A2.648,2.648,0,0,1,414.863,421.605Z" transform="translate(-411.778 -418.235)"/>
          </g>
        </g>
        <g id="Grupo_97949" data-name="Grupo 97949" transform="translate(0.445 37.539)">
          <g id="Grupo_97948" data-name="Grupo 97948">
            <path id="Trazado_142239" data-name="Trazado 142239" d="M9.883,393.38a.956.956,0,0,0-1.042-.731,5.32,5.32,0,0,0-3.661,2.065,5.2,5.2,0,0,0-.2,4.19.956.956,0,0,0,.909.663.963.963,0,0,0,.151-.012,5.377,5.377,0,0,0,3.562-2.1A5.232,5.232,0,0,0,9.883,393.38Zm-1.906,3.067a2.778,2.778,0,0,1-1.393.993,2.649,2.649,0,0,1,.218-1.713,2.715,2.715,0,0,1,1.428-.975A2.7,2.7,0,0,1,7.977,396.447Z" transform="translate(-4.621 -392.643)"/>
          </g>
        </g>
        <g id="Grupo_97951" data-name="Grupo 97951" transform="translate(39.142 47.038)">
          <g id="Grupo_97950" data-name="Grupo 97950">
            <path id="Trazado_142240" data-name="Trazado 142240" d="M411.01,492.28a.956.956,0,1,0,.28.676A.963.963,0,0,0,411.01,492.28Z" transform="translate(-409.378 -492)"/>
          </g>
        </g>
        <g id="Grupo_97953" data-name="Grupo 97953" transform="translate(0.004)">
          <g id="Grupo_97952" data-name="Grupo 97952" transform="translate(0)">
            <path id="Trazado_142241" data-name="Trazado 142241" d="M41.1,11.459q-.234-.616-.511-1.207a3.079,3.079,0,0,0,.434.032h0A4.54,4.54,0,0,0,44.236,8.5a.956.956,0,0,0-.011-1.246,4.7,4.7,0,0,0-3.2-1.664h0A4.076,4.076,0,0,0,38.4,6.714a17.771,17.771,0,0,0-2.087-2.205,2.91,2.91,0,0,0,.64-.338,4.152,4.152,0,0,0,1.464-3.019.956.956,0,0,0-.726-1.01,4.284,4.284,0,0,0-3.271.45,3.451,3.451,0,0,0-1.217,1.7A17.819,17.819,0,0,0,18.677.968.956.956,0,0,0,19.3,2.776a15.891,15.891,0,0,1,20.19,9.848.956.956,0,0,0,.78.637,7.792,7.792,0,0,1,3.416,14.13.956.956,0,0,0-.411.785v.016A7.565,7.565,0,0,1,30.1,33.264l-.607-.753a.951.951,0,0,0-.171-.164H37a.956.956,0,0,0,.848-1.4l-1.912-3.666a.956.956,0,0,0-.9-.513l-5.849.3v-.844l2.792-2.792a.956.956,0,1,0-1.352-1.352L27.56,25.157a.956.956,0,0,0-.28.676v2.247a.956.956,0,0,0,1.005.955l6.242-.322.9,1.723H28.3a.956.956,0,0,0-.956.956V45.03a.956.956,0,0,0,.644.9l.2.069a6.729,6.729,0,0,1,1.919,1.035H18.847A6.728,6.728,0,0,1,20.767,46l.2-.069a.956.956,0,0,0,.644-.9V30.02a.956.956,0,0,0-.411-.786l-1.721-1.193a.956.956,0,0,0-.545-.17h-4.84a2.867,2.867,0,1,0,.688,1.912h3.853l1.064.737V32.3c-.018.017-.036.035-.052.054l-.778.895A7.565,7.565,0,0,1,5.68,28.2c0-.006,0-.019,0-.025a.956.956,0,0,0-.411-.785A7.792,7.792,0,0,1,8.686,13.26a.956.956,0,0,0,.78-.637,15.946,15.946,0,0,1,4.012-6.279.956.956,0,0,0-1.326-1.378A17.907,17.907,0,0,0,8.686,9.607a3.431,3.431,0,0,0-.629-.9A4.745,4.745,0,0,0,4.532,7.588a.956.956,0,0,0-.958.842A4.82,4.82,0,0,0,4.626,12.1a3.118,3.118,0,0,0,.44.369,9.7,9.7,0,0,0-1.286,16.2A9.475,9.475,0,0,0,19.7,35.13v9.233a8.581,8.581,0,0,0-3.541,2.675H13.352a4.926,4.926,0,0,0-1.959-3.079,5.2,5.2,0,0,0-4.192-.2.956.956,0,0,0-.651,1.055,6.359,6.359,0,0,0,.809,2.227H4.21a.956.956,0,1,0,0,1.912H35.855a.956.956,0,1,0,0-1.912H32.8a8.578,8.578,0,0,0-3.541-2.675V35.13a9.475,9.475,0,0,0,15.918-6.462A9.7,9.7,0,0,0,41.1,11.459ZM35.852,2.607a1.51,1.51,0,0,1-.807.221,1.5,1.5,0,0,1,.476-.674,1.565,1.565,0,0,1,.795-.235A1.452,1.452,0,0,1,35.852,2.607Zm4.083,5.329a1.97,1.97,0,0,1,1.083-.43h0a2.025,2.025,0,0,1,1.094.412,1.907,1.907,0,0,1-1.084.455h0A1.967,1.967,0,0,1,39.934,7.936ZM11.915,30.69a.956.956,0,1,1,.956-.956A.957.957,0,0,1,11.915,30.69ZM6.694,10.048a2.22,2.22,0,0,1,.518,1.2,2.1,2.1,0,0,1-1.223-.5,2.164,2.164,0,0,1-.5-1.225A2.151,2.151,0,0,1,6.694,10.048Zm4.023,36.99a2.16,2.16,0,0,1-1.057-.282,2.778,2.778,0,0,1-.993-1.393,2.649,2.649,0,0,1,1.713.219,2.715,2.715,0,0,1,.975,1.428C11.237,47.024,10.717,47.038,10.717,47.038Z" transform="translate(-0.004)"/>
          </g>
        </g>
      </g>
    </g>
  </g>
</svg>
