<svg xmlns="http://www.w3.org/2000/svg" width="83" height="83" viewBox="0 0 83 83">
  <g id="Grupo_99310" data-name="Grupo 99310" transform="translate(4529 5022)">
    <g id="Grupo_97954" data-name="Grupo 97954" transform="translate(41 -107)">
      <rect id="Rectángulo_33266" data-name="Rectángulo 33266" width="83" height="83" rx="7" transform="translate(-4570 -4915)" fill="#fff"/>
      <g id="lista" transform="translate(-4550 -4967.15)">
        <g id="Grupo_97919" data-name="Grupo 97919" transform="translate(10.414 92.169)">
          <g id="Grupo_97918" data-name="Grupo 97918">
            <path id="Trazado_142227" data-name="Trazado 142227" d="M155.081,236H125.938a1.676,1.676,0,0,0,0,3.352h29.143a1.676,1.676,0,0,0,0-3.352Z" transform="translate(-124.262 -236)"/>
          </g>
        </g>
        <g id="Grupo_97921" data-name="Grupo 97921" transform="translate(10.414 79.598)">
          <g id="Grupo_97920" data-name="Grupo 97920">
            <path id="Trazado_142228" data-name="Trazado 142228" d="M155.081,86H125.938a1.676,1.676,0,0,0,0,3.352h29.143a1.676,1.676,0,0,0,0-3.352Z" transform="translate(-124.262 -86)"/>
          </g>
        </g>
        <g id="Grupo_97923" data-name="Grupo 97923" transform="translate(10.414 104.74)">
          <g id="Grupo_97922" data-name="Grupo 97922">
            <path id="Trazado_142229" data-name="Trazado 142229" d="M155.081,386H125.938a1.676,1.676,0,0,0,0,3.352h29.143a1.676,1.676,0,0,0,0-3.352Z" transform="translate(-124.262 -386)"/>
          </g>
        </g>
        <g id="Grupo_97925" data-name="Grupo 97925" transform="translate(0 79.15)">
          <g id="Grupo_97924" data-name="Grupo 97924" transform="translate(0 0)">
            <circle id="Elipse_4509" data-name="Elipse 4509" cx="2.307" cy="2.307" r="2.307"/>
          </g>
        </g>
        <g id="Grupo_97927" data-name="Grupo 97927" transform="translate(0 91.147)">
          <g id="Grupo_97926" data-name="Grupo 97926" transform="translate(0 0)">
            <circle id="Elipse_4510" data-name="Elipse 4510" cx="2.307" cy="2.307" r="2.307"/>
          </g>
        </g>
        <g id="Grupo_97929" data-name="Grupo 97929" transform="translate(0 104.065)">
          <g id="Grupo_97928" data-name="Grupo 97928" transform="translate(0 0)">
            <circle id="Elipse_4511" data-name="Elipse 4511" cx="2.307" cy="2.307" r="2.307"/>
          </g>
        </g>
      </g>
    </g>
  </g>
</svg>
