<svg xmlns="http://www.w3.org/2000/svg" xmlns:xlink="http://www.w3.org/1999/xlink" width="256.729" height="250.43" viewBox="0 0 256.729 250.43">
  <defs>
    <linearGradient id="linear-gradient" x1="-63.915" y1="2.654" x2="-71.915" y2="3.512" gradientUnits="objectBoundingBox">
      <stop offset="0" stop-color="#09005d"/>
      <stop offset="1" stop-color="#1a0f91"/>
    </linearGradient>
    <linearGradient id="linear-gradient-2" x1="-6.881" y1="10.137" x2="-7.203" y2="13.584" xlink:href="#linear-gradient"/>
    <linearGradient id="linear-gradient-3" x1="74.698" y1="-1.308" x2="71.861" y2="5.08" xlink:href="#linear-gradient"/>
    <linearGradient id="linear-gradient-4" x1="294.732" y1="-1.081" x2="295.739" y2="-1.081" gradientUnits="objectBoundingBox">
      <stop offset="0" stop-color="#febbba"/>
      <stop offset="1" stop-color="#ff928e"/>
    </linearGradient>
    <linearGradient id="linear-gradient-5" x1="94.278" y1="-0.073" x2="91.261" y2="0.782" xlink:href="#linear-gradient"/>
    <linearGradient id="linear-gradient-6" x1="185.543" y1="-3.175" x2="178.523" y2="4.39" xlink:href="#linear-gradient"/>
    <linearGradient id="linear-gradient-7" x1="343.594" y1="-0.682" x2="344.608" y2="-0.682" xlink:href="#linear-gradient-4"/>
    <linearGradient id="linear-gradient-8" x1="63.163" y1="-0.139" x2="61.145" y2="0.704" xlink:href="#linear-gradient"/>
    <linearGradient id="linear-gradient-9" x1="56.86" y1="0.222" x2="57.853" y2="0.222" xlink:href="#linear-gradient-4"/>
    <linearGradient id="linear-gradient-10" x1="-70.452" y1="1.023" x2="-68.471" y2="3.707" xlink:href="#linear-gradient-4"/>
    <linearGradient id="linear-gradient-11" x1="409.415" y1="-0.657" x2="411.416" y2="-2.437" xlink:href="#linear-gradient-4"/>
    <linearGradient id="linear-gradient-12" x1="45.312" y1="0.037" x2="46.314" y2="0.037" xlink:href="#linear-gradient-4"/>
    <linearGradient id="linear-gradient-13" x1="-0.103" y1="1.691" x2="0.844" y2="-0.028" xlink:href="#linear-gradient-4"/>
    <linearGradient id="linear-gradient-14" x1="33.139" y1="46.635" x2="32.815" y2="45.569" xlink:href="#linear-gradient-4"/>
    <linearGradient id="linear-gradient-15" x1="25.118" y1="34.692" x2="25.322" y2="35.875" xlink:href="#linear-gradient"/>
    <linearGradient id="linear-gradient-16" x1="106.616" y1="221.975" x2="105.67" y2="217.362" xlink:href="#linear-gradient-4"/>
    <linearGradient id="linear-gradient-17" x1="41.57" y1="-0.062" x2="42.084" y2="2.428" xlink:href="#linear-gradient"/>
    <linearGradient id="linear-gradient-18" x1="141.633" y1="0.5" x2="142.633" y2="0.5" xlink:href="#linear-gradient-4"/>
    <linearGradient id="linear-gradient-19" x1="9.972" y1="-0.407" x2="8.878" y2="0.795" xlink:href="#linear-gradient-4"/>
    <linearGradient id="linear-gradient-20" x1="-115.067" y1="7.711" x2="-114.842" y2="6.801" xlink:href="#linear-gradient-4"/>
    <linearGradient id="linear-gradient-21" x1="-66.571" y1="5.644" x2="-65.362" y2="6.807" xlink:href="#linear-gradient-4"/>
    <linearGradient id="linear-gradient-22" x1="-76.739" y1="5.01" x2="-78.62" y2="6.915" xlink:href="#linear-gradient"/>
    <linearGradient id="linear-gradient-23" x1="-187.299" y1="18.446" x2="-183.923" y2="22.765" xlink:href="#linear-gradient-4"/>
    <linearGradient id="linear-gradient-24" x1="7.286" y1="1.272" x2="8.687" y2="0.135" xlink:href="#linear-gradient-4"/>
    <linearGradient id="linear-gradient-25" x1="16.645" y1="0.43" x2="17.64" y2="0.43" xlink:href="#linear-gradient"/>
    <linearGradient id="linear-gradient-26" x1="15.83" y1="0.377" x2="11.933" y2="0.708" xlink:href="#linear-gradient-4"/>
    <linearGradient id="linear-gradient-27" x1="15.631" y1="0.421" x2="16.624" y2="0.421" xlink:href="#linear-gradient"/>
    <linearGradient id="linear-gradient-28" x1="1.968" y1="-0.231" x2="0.935" y2="0.314" xlink:href="#linear-gradient"/>
    <linearGradient id="linear-gradient-29" x1="8.911" y1="0.789" x2="11.881" y2="-1.387" xlink:href="#linear-gradient-4"/>
    <linearGradient id="linear-gradient-30" x1="-9.604" y1="-1.469" x2="-10.014" y2="-0.35" xlink:href="#linear-gradient"/>
    <linearGradient id="linear-gradient-31" x1="-30.264" y1="-0.93" x2="-29.136" y2="-0.93" xlink:href="#linear-gradient-4"/>
    <linearGradient id="linear-gradient-32" x1="-4.436" y1="0.383" x2="-3.744" y2="-0.528" xlink:href="#linear-gradient"/>
    <linearGradient id="linear-gradient-33" x1="-8.486" y1="-1.105" x2="-9.728" y2="2.367" xlink:href="#linear-gradient"/>
    <linearGradient id="linear-gradient-34" x1="-8.81" y1="-1.332" x2="-7.877" y2="-1.332" gradientUnits="objectBoundingBox">
      <stop offset="0" stop-color="#4f52ff"/>
      <stop offset="1" stop-color="#4042e2"/>
    </linearGradient>
    <linearGradient id="linear-gradient-35" x1="-26.908" y1="-1.077" x2="-26.006" y2="-1.077" xlink:href="#linear-gradient-4"/>
    <linearGradient id="linear-gradient-36" x1="-3.986" y1="0.705" x2="-3.955" y2="-0.272" xlink:href="#linear-gradient"/>
    <linearGradient id="linear-gradient-37" x1="-6.41" y1="0.002" x2="-5.417" y2="0.002" xlink:href="#linear-gradient-4"/>
    <linearGradient id="linear-gradient-38" x1="-15.914" y1="-0.516" x2="-14.795" y2="-0.516" xlink:href="#linear-gradient-4"/>
    <linearGradient id="linear-gradient-39" x1="-4.698" y1="0.781" x2="-5.941" y2="7.598" xlink:href="#linear-gradient-4"/>
    <linearGradient id="linear-gradient-40" x1="-9.537" y1="-10.969" x2="-10.634" y2="-9.655" xlink:href="#linear-gradient-4"/>
    <linearGradient id="linear-gradient-41" x1="-36.21" y1="-39.653" x2="-33.79" y2="-42.329" xlink:href="#linear-gradient-4"/>
  </defs>
  <g id="Grupo_97250" data-name="Grupo 97250" transform="translate(-141.413 -305.622)">
    <path id="Trazado_141198" data-name="Trazado 141198" d="M655.776,652.43a82.678,82.678,0,0,1-12.649,10.65c-41.264,29.607-90.089,20.977-100.466,18.869-15.323-3.112-44.943-9.128-66.358-34.311-32.4-38.1-27.353-98.125-2.223-137.748,4.6-7.248,28.878-47.475,78.23-53.926,29.867-3.9,64.682,3.97,89.895,25.093C695.128,525.4,691.36,614.968,655.776,652.43Z" transform="translate(-286.463 -137.067)" fill="#d2f6e6"/>
    <g id="Grupo_97221" data-name="Grupo 97221" transform="translate(141.413 305.622)">
      <g id="Grupo_97219" data-name="Grupo 97219" transform="translate(0 0)">
        <circle id="Elipse_4462" data-name="Elipse 4462" cx="88.54" cy="88.54" r="88.54" transform="translate(0 125.215) rotate(-45)" fill="#bdd0fb"/>
        <g id="Grupo_97216" data-name="Grupo 97216" transform="translate(45.864 45.864)">
          <circle id="Elipse_4463" data-name="Elipse 4463" cx="75.566" cy="75.566" r="75.566" transform="translate(3.785 3.785)" fill="#f1d54e"/>
          <path id="Trazado_141199" data-name="Trazado 141199" d="M777.25,1020.806a79.351,79.351,0,1,1,79.35-79.351A79.44,79.44,0,0,1,777.25,1020.806Zm0-154.916a75.566,75.566,0,1,0,75.565,75.566A75.651,75.651,0,0,0,777.25,865.89Z" transform="translate(-697.9 -862.105)" fill="#fff"/>
        </g>
        <g id="Grupo_97217" data-name="Grupo 97217" transform="translate(60.064 60.064)">
          <circle id="Elipse_4464" data-name="Elipse 4464" cx="46.068" cy="46.068" r="46.068" transform="translate(0 65.151) rotate(-45)" fill="#f1d54e"/>
          <path id="Trazado_141200" data-name="Trazado 141200" d="M1105.652,1319.718a49.853,49.853,0,1,1,49.853-49.854A49.91,49.91,0,0,1,1105.652,1319.718Zm0-92.137a42.284,42.284,0,1,0,42.284,42.283A42.331,42.331,0,0,0,1105.652,1227.581Z" transform="translate(-1040.502 -1204.714)" fill="#fff"/>
        </g>
        <g id="Grupo_97218" data-name="Grupo 97218" transform="translate(99.973 99.973)">
          <circle id="Elipse_4465" data-name="Elipse 4465" cx="17.848" cy="17.848" r="17.848" transform="translate(0 25.241) rotate(-45)" fill="#fb9e36"/>
          <path id="Trazado_141201" data-name="Trazado 141201" d="M1419.837,1605.677a21.633,21.633,0,1,1,21.633-21.633A21.657,21.657,0,0,1,1419.837,1605.677Zm0-35.7a14.064,14.064,0,1,0,14.064,14.064A14.079,14.079,0,0,0,1419.837,1569.979Z" transform="translate(-1394.596 -1558.802)" fill="#fff"/>
        </g>
      </g>
      <g id="Grupo_97220" data-name="Grupo 97220" transform="translate(124.847 31.424)">
        <rect id="Rectángulo_32967" data-name="Rectángulo 32967" width="2.659" height="100.675" transform="matrix(-0.707, -0.707, 0.707, -0.707, 15.543, 82.605)" fill="url(#linear-gradient)"/>
        <path id="Trazado_141202" data-name="Trazado 141202" d="M1671.222,1609.65c1.079-1.078,6.163,4.006,5.084,5.084l-18.858,14.825a.749.749,0,0,1-1.052-1.052Z" transform="translate(-1656.228 -1533.462)" fill="url(#linear-gradient-2)"/>
        <path id="Trazado_141203" data-name="Trazado 141203" d="M2485.922,825.905l9.577.952L2482.351,840a20.325,20.325,0,0,1-16.382,5.853h0Z" transform="translate(-2399.232 -814.448)" fill="#91b3fa"/>
        <path id="Trazado_141204" data-name="Trazado 141204" d="M2462,696.472l-.952-9.577L2447.9,700.042a20.323,20.323,0,0,0-5.853,16.382h0Z" transform="translate(-2377.192 -686.895)" fill="#91b3fa"/>
      </g>
    </g>
    <g id="Grupo_97232" data-name="Grupo 97232" transform="translate(141.413 305.622)">
      <g id="Grupo_97226" data-name="Grupo 97226" transform="translate(0 6.243)">
        <g id="Grupo_97222" data-name="Grupo 97222">
          <path id="Trazado_141205" data-name="Trazado 141205" d="M579.722,542.055a.685.685,0,0,1-.969,0c-.52-.52-1.07-1.025-1.635-1.5a.685.685,0,0,1-.091-.955l.008-.01a.685.685,0,0,1,.965-.082c.595.5,1.174,1.033,1.721,1.58a.685.685,0,0,1,.048.915A.634.634,0,0,1,579.722,542.055Zm-5.513-3.631c-.624-.395-1.272-.766-1.924-1.1a.685.685,0,1,1,.631-1.216c.687.356,1.368.747,2.025,1.162a.685.685,0,0,1,.213.945.72.72,0,0,1-.047.066A.685.685,0,0,1,574.209,538.425Zm-5.231-2.538c-.695-.245-1.408-.463-2.122-.647a.685.685,0,1,1,.343-1.327c.751.194,1.5.424,2.234.682a.685.685,0,1,1-.456,1.292Zm-5.667-1.3c-.733-.084-1.478-.136-2.214-.157a.685.685,0,0,1,.038-1.37c.776.022,1.56.078,2.331.165a.685.685,0,0,1-.155,1.362Zm-5.816-.009c-.731.081-1.47.194-2.194.337a.685.685,0,1,1-.265-1.344c.762-.15,1.539-.27,2.308-.355a.685.685,0,1,1,.151,1.362Zm-5.673,1.278c-.7.241-1.391.515-2.064.814a.685.685,0,1,1-.556-1.252c.709-.315,1.44-.6,2.173-.857a.685.685,0,0,1,.448,1.295Zm-17.475,18.489a.685.685,0,0,1-.49-.836c.2-.75.426-1.5.686-2.234a.685.685,0,0,1,1.291.458c-.247.7-.466,1.409-.651,2.121a.684.684,0,0,1-.836.49Zm12.229-15.987c-.625.39-1.24.811-1.83,1.253a.685.685,0,1,1-.822-1.1c.62-.465,1.269-.909,1.927-1.319a.685.685,0,1,1,.725,1.163ZM536.35,548.715a.685.685,0,0,1-.291-.924c.358-.687.751-1.368,1.167-2.024a.685.685,0,0,1,1.157.734c-.4.623-.769,1.27-1.109,1.923a.685.685,0,0,1-.924.291Zm5.673-6.751c-.522.519-1.028,1.068-1.5,1.631a.685.685,0,0,1-1.055-.874l.009-.011c.5-.593,1.034-1.171,1.583-1.717a.685.685,0,0,1,1.016.916C542.058,541.929,542.041,541.947,542.024,541.965Z" transform="translate(-533.049 -533.056)" fill="#5cd8a0"/>
          <path id="Trazado_141206" data-name="Trazado 141206" d="M525.516,821.515a.681.681,0,0,0,.151-.38c.026-.352.06-.71.1-1.063a.685.685,0,1,0-1.361-.156c-.043.371-.078.747-.106,1.118a.685.685,0,0,0,1.216.481Z" transform="translate(-524.298 -795.716)" fill="#5cd8a0"/>
        </g>
        <g id="Grupo_97223" data-name="Grupo 97223" transform="translate(6.005 27.421)">
          <path id="Trazado_141207" data-name="Trazado 141207" d="M599.091,1064.359a.685.685,0,0,0-.022-.888c-.236-.263-.47-.535-.7-.809a.685.685,0,0,0-1.057.871c.238.289.485.576.733.852a.685.685,0,0,0,1.043-.026Z" transform="translate(-597.158 -1046.205)" fill="#5cd8a0"/>
          <path id="Trazado_141208" data-name="Trazado 141208" d="M675.781,936.5a.685.685,0,1,1-1.021-.914c.481-.537.946-1.1,1.388-1.687a.685.685,0,0,1,1.093.827q-.287.38-.585.747C676.372,935.823,676.078,936.168,675.781,936.5Zm2.573-4.636a.685.685,0,0,1-.261-.933c.356-.633.689-1.288.989-1.947a.685.685,0,1,1,1.246.569c-.317.694-.667,1.383-1.041,2.05a.684.684,0,0,1-.933.262Zm-5.248,7.24c-.581.493-1.192.968-1.814,1.411a.685.685,0,0,1-.795-1.116c.592-.421,1.171-.872,1.723-1.34a.685.685,0,0,1,.886,1.045Zm7.683-12.587a.685.685,0,0,1-.46-.853c.208-.695.388-1.407.536-2.116a.685.685,0,0,1,1.341.28c-.156.747-.346,1.5-.565,2.229a.684.684,0,0,1-.853.46Zm-12.677,15.949c-.675.353-1.375.682-2.08.977a.685.685,0,1,1-.53-1.263c.67-.281,1.334-.593,1.975-.929a.685.685,0,1,1,.635,1.214ZM662.5,944.65c-.738.2-1.492.366-2.243.5a.685.685,0,1,1-.242-1.349c.713-.128,1.43-.288,2.131-.476a.685.685,0,1,1,.354,1.324Zm-5.954.91c-.764.032-1.537.032-2.3,0a.685.685,0,0,1,.057-1.369c.724.03,1.458.03,2.184,0a.685.685,0,0,1,.057,1.369Zm-6.01-.411c-.752-.136-1.507-.305-2.244-.5a.685.685,0,1,1,.357-1.323c.7.189,1.416.349,2.13.478a.685.685,0,0,1-.244,1.348Zm-5.776-1.722c-.7-.3-1.4-.629-2.076-.985a.685.685,0,0,1,.639-1.212c.642.339,1.305.653,1.972.936a.685.685,0,1,1-.535,1.261Zm-5.252-2.945c-.457-.326-.91-.671-1.345-1.024q-.237-.192-.468-.388a.677.677,0,0,1-.079-.965.685.685,0,0,1,.966-.08q.22.186.444.369c.414.336.844.663,1.279.974a.685.685,0,0,1,.159.956l-.026.034A.685.685,0,0,1,639.509,940.482Z" transform="translate(-634.129 -918.286)" fill="#5cd8a0"/>
          <path id="Trazado_141209" data-name="Trazado 141209" d="M1171.319,867.975a.684.684,0,0,0,.151-.384c.025-.37.043-.748.054-1.122a.685.685,0,1,0-1.37-.038c-.01.356-.027.714-.051,1.066a.685.685,0,0,0,1.216.478Z" transform="translate(-1122.881 -865.765)" fill="#5cd8a0"/>
        </g>
        <g id="Grupo_97225" data-name="Grupo 97225" transform="translate(6.541 6.659)">
          <path id="Trazado_141210" data-name="Trazado 141210" d="M643.862,627.961a.321.321,0,0,0-.273-.252l-3.866-.494a16.977,16.977,0,0,0-3.094-4.547l.957-3.775a.32.32,0,0,0-.135-.346l-3.909-2.563a.32.32,0,0,0-.371.014l-3.081,2.383a16.975,16.975,0,0,0-5.4-1.024l-1.994-3.348a.321.321,0,0,0-.34-.15l-4.577.952a.32.32,0,0,0-.252.273l-.494,3.866a16.973,16.973,0,0,0-4.547,3.094l-3.775-.957a.32.32,0,0,0-.346.135L605.8,625.13a.32.32,0,0,0,.015.371l2.383,3.081a16.972,16.972,0,0,0-1.024,5.4l-3.348,1.994a.32.32,0,0,0-.15.34l.952,4.577a.32.32,0,0,0,.273.252l3.866.494a16.975,16.975,0,0,0,3.094,4.547l-.957,3.775a.32.32,0,0,0,.135.346l3.909,2.563a.32.32,0,0,0,.371-.014l3.081-2.383a16.975,16.975,0,0,0,5.4,1.024l1.994,3.348a.32.32,0,0,0,.34.15l4.577-.952a.32.32,0,0,0,.252-.273l.494-3.866A16.975,16.975,0,0,0,636,646.814l3.775.957a.32.32,0,0,0,.346-.135l2.563-3.909a.32.32,0,0,0-.014-.371l-2.383-3.081a16.976,16.976,0,0,0,1.024-5.4l3.348-1.994a.32.32,0,0,0,.15-.34Z" transform="translate(-603.666 -613.852)" fill="#5cd8a0"/>
          <g id="Grupo_97224" data-name="Grupo 97224" transform="translate(15.878 15.88)">
            <path id="Trazado_141211" data-name="Trazado 141211" d="M804.2,814.691a4.7,4.7,0,1,1,.473-.5A4.7,4.7,0,0,1,804.2,814.691Zm-6.779-3.612a3.6,3.6,0,1,0,1.162-2.5,3.652,3.652,0,0,0-.366.389A3.576,3.576,0,0,0,797.419,811.079Z" transform="translate(-796.32 -806.535)" fill="#fff"/>
          </g>
          <path id="Trazado_141212" data-name="Trazado 141212" d="M732.428,742.371a11.755,11.755,0,0,0,.7-.959h0q.1-.157.2-.318a11.625,11.625,0,0,0,.836-1.651l.01-.023.027-.066c.017-.043.034-.086.051-.129a.274.274,0,0,0-.511-.2,11.018,11.018,0,0,1-10.433,7.052,10.939,10.939,0,0,1-5.876-1.8,11.12,11.12,0,0,1-.915-.668A11.006,11.006,0,0,1,729.5,725.874a11.006,11.006,0,0,1,3.871,4.4.274.274,0,0,0,.493-.239,11.555,11.555,0,1,0-17.693,14,11.855,11.855,0,0,0,.96.7,11.556,11.556,0,0,0,15.3-2.368Z" transform="translate(-702.988 -714.489)" fill="#fff"/>
        </g>
      </g>
      <g id="Grupo_97231" data-name="Grupo 97231" transform="translate(44.395 0)">
        <g id="Grupo_97227" data-name="Grupo 97227">
          <path id="Trazado_141213" data-name="Trazado 141213" d="M1424.627,542.059a.423.423,0,0,0,.019-.507c-.2-.3-.42-.589-.641-.872a.423.423,0,0,0-.667.522c.211.27.417.55.611.832a.423.423,0,0,0,.677.026Z" transform="translate(-1393.554 -533.659)" fill="#fb9e36"/>
          <path id="Trazado_141214" data-name="Trazado 141214" d="M1091.919,463.239a.423.423,0,0,1-.6,0,17.537,17.537,0,0,0-1.321-1.187q-.145-.118-.293-.233a.423.423,0,0,1-.075-.594.438.438,0,0,1,.594-.075q.155.121.307.244a18.364,18.364,0,0,1,1.384,1.244.423.423,0,0,1,.031.566Zm-3.987-2.63a17.528,17.528,0,0,0-1.908-.986.423.423,0,0,1,.342-.774,18.348,18.348,0,0,1,2,1.034.423.423,0,0,1-.434.727Zm-3.925-1.729a17.355,17.355,0,0,0-2.093-.487.423.423,0,0,1,.141-.835,18.235,18.235,0,0,1,2.195.511.423.423,0,0,1,.284.527.429.429,0,0,1-.077.145A.424.424,0,0,1,1084.007,458.879Zm-4.23-.712a17.467,17.467,0,0,0-2.148.04.423.423,0,0,1-.068-.844,18.353,18.353,0,0,1,2.253-.042.423.423,0,0,1-.037.846Zm-4.276.342a17.636,17.636,0,0,0-2.074.56.423.423,0,0,1-.27-.8,18.526,18.526,0,0,1,2.174-.587.423.423,0,0,1,.17.829Zm-4.063,1.37a17.383,17.383,0,0,0-1.873,1.048.423.423,0,0,1-.458-.711,18.23,18.23,0,0,1,1.964-1.1.423.423,0,0,1,.367.763Zm-3.6,2.321a17.4,17.4,0,0,0-1.56,1.477.423.423,0,0,1-.619-.578,18.371,18.371,0,0,1,1.636-1.549.423.423,0,0,1,.6.591A.431.431,0,0,1,1067.835,462.2Zm-4.655,5.114a.423.423,0,0,1-.165-.575,18.412,18.412,0,0,1,1.038-1.659c.057-.081.114-.162.172-.242a.423.423,0,0,1,.684.5c-.055.075-.109.151-.163.228a17.6,17.6,0,0,0-.992,1.584.412.412,0,0,1-.042.062A.423.423,0,0,1,1063.18,467.314Z" transform="translate(-1062.962 -457.305)" fill="#fb9e36"/>
        </g>
        <g id="Grupo_97228" data-name="Grupo 97228" transform="translate(11.795 18.356)">
          <path id="Trazado_141215" data-name="Trazado 141215" d="M1224.357,727.456a18.436,18.436,0,0,1-1.517,1.614.423.423,0,0,1-.58-.616,17.514,17.514,0,0,0,1.447-1.539.423.423,0,0,1,.654.537Zm.728-1.66a.423.423,0,0,1-.125-.585,17.7,17.7,0,0,0,1.04-1.841.423.423,0,0,1,.761.371,18.48,18.48,0,0,1-1.09,1.929.447.447,0,0,1-.027.037A.423.423,0,0,1,1225.085,725.8Zm-3.949,4.692a18.363,18.363,0,0,1-1.863,1.2.423.423,0,0,1-.415-.738,17.547,17.547,0,0,0,1.777-1.144.423.423,0,0,1,.579.608A.417.417,0,0,1,1221.136,730.488Zm5.935-8.532a.423.423,0,0,1-.262-.538,17.407,17.407,0,0,0,.565-2.037.423.423,0,1,1,.828.176,18.133,18.133,0,0,1-.592,2.136.423.423,0,0,1-.538.262Zm-9.792,10.7a18.384,18.384,0,0,1-2.1.716.423.423,0,0,1-.225-.816,17.4,17.4,0,0,0,2-.683.423.423,0,0,1,.322.783Zm-4.264,1.175a18.5,18.5,0,0,1-2.207.194.423.423,0,1,1-.023-.846,17.646,17.646,0,0,0,2.106-.185.423.423,0,0,1,.125.837Zm-4.423.12a18.3,18.3,0,0,1-2.19-.342.423.423,0,0,1,.181-.827,17.28,17.28,0,0,0,2.088.326.423.423,0,0,1,.382.461.419.419,0,0,1-.092.227A.423.423,0,0,1,1208.593,733.945Z" transform="translate(-1206.07 -715.83)" fill="#fb9e36"/>
          <path id="Trazado_141216" data-name="Trazado 141216" d="M1469.1,681.768a.421.421,0,0,0,.093-.23c.031-.361.052-.724.062-1.08a.423.423,0,0,0-.846-.023c-.009.339-.029.686-.059,1.031a.423.423,0,0,0,.75.3Z" transform="translate(-1446.73 -680.023)" fill="#fb9e36"/>
        </g>
        <g id="Grupo_97230" data-name="Grupo 97230" transform="translate(2.162 4.428)">
          <path id="Trazado_141217" data-name="Trazado 141217" d="M1116.085,520.467a.214.214,0,0,0-.183-.169l-2.587-.33a11.362,11.362,0,0,0-2.07-3.043l.64-2.526a.214.214,0,0,0-.09-.232l-2.616-1.715a.214.214,0,0,0-.248.01l-2.061,1.595a11.358,11.358,0,0,0-3.616-.685l-1.334-2.241a.214.214,0,0,0-.228-.1l-3.062.637a.214.214,0,0,0-.169.183l-.33,2.587a11.357,11.357,0,0,0-3.043,2.07l-2.526-.641a.214.214,0,0,0-.232.09l-1.715,2.616a.215.215,0,0,0,.01.249l1.595,2.061a11.358,11.358,0,0,0-.685,3.616l-2.241,1.334a.214.214,0,0,0-.1.228l.637,3.063a.215.215,0,0,0,.183.169l2.587.33a11.354,11.354,0,0,0,2.07,3.043l-.641,2.526a.214.214,0,0,0,.09.232l2.616,1.715a.214.214,0,0,0,.249-.01l2.061-1.594a11.359,11.359,0,0,0,3.616.685l1.334,2.24a.215.215,0,0,0,.228.1l3.063-.637a.214.214,0,0,0,.169-.183l.33-2.587a11.357,11.357,0,0,0,3.043-2.07l2.526.64a.214.214,0,0,0,.232-.09l1.715-2.616a.214.214,0,0,0-.01-.248l-1.594-2.061a11.36,11.36,0,0,0,.685-3.616l2.24-1.334a.214.214,0,0,0,.1-.228Z" transform="translate(-1089.188 -511.026)" fill="#fb9e36"/>
          <g id="Grupo_97229" data-name="Grupo 97229" transform="translate(10.57 10.57)">
            <path id="Trazado_141218" data-name="Trazado 141218" d="M1222.806,644.831a3.192,3.192,0,1,1,.325-.346A3.238,3.238,0,0,1,1222.806,644.831Zm-3.9-.764a2.354,2.354,0,0,0,3.327.141h0a2.354,2.354,0,0,0-3.186-3.467,2.354,2.354,0,0,0-.141,3.327Z" transform="translate(-1217.441 -639.276)" fill="#fff"/>
          </g>
          <path id="Trazado_141219" data-name="Trazado 141219" d="M1172.871,594.444q.253-.312.478-.655a8.019,8.019,0,0,0,.749-1.441l.026-.068a.423.423,0,1,0-.79-.3,7.144,7.144,0,0,1-.693,1.349h0l-.046.07a7.056,7.056,0,0,1-2.594,2.333,7.166,7.166,0,0,1-1.8.653l-.016,0-.047.01a7.078,7.078,0,0,1-5.357-1.017,7.225,7.225,0,0,1-.592-.432,7.125,7.125,0,1,1,10.911-8.634.423.423,0,1,0,.762-.369,7.971,7.971,0,1,0-12.207,9.659,8.137,8.137,0,0,0,.662.484A7.982,7.982,0,0,0,1172.871,594.444Z" transform="translate(-1152.98 -575.642)" fill="#fff"/>
        </g>
      </g>
    </g>
    <g id="Grupo_97238" data-name="Grupo 97238" transform="translate(169.788 418.949)">
      <path id="Trazado_141220" data-name="Trazado 141220" d="M805.441,3164.231s-.476,2.555-.722,5.086a1.746,1.746,0,0,0,1.652,1.907c3.372.172,10.586.515,13.176.424a.568.568,0,0,0,.507-.773,1.271,1.271,0,0,0-.644-.691l-11.867-5.592Z" transform="translate(-778.418 -3041.958)" fill="url(#linear-gradient-3)"/>
      <path id="Trazado_141221" data-name="Trazado 141221" d="M809.255,3141l.334,3.065s2.079.992,3.515-.089l-.832-3.419Z" transform="translate(-782.588 -3020.236)" fill="url(#linear-gradient-4)"/>
      <path id="Trazado_141222" data-name="Trazado 141222" d="M713.374,2446.786c-.164.8-1.223,39.883,2.789,57.441a.6.6,0,0,1-.355.688,10.348,10.348,0,0,1-3.41.659,1.024,1.024,0,0,1-1.009-.745c-1.156-4.076-6.685-24.495-7.246-43.955-.627-21.745.007-.74.007-.74l.617-13.432Z" transform="translate(-685.885 -2383.566)" fill="url(#linear-gradient-5)"/>
      <path id="Trazado_141223" data-name="Trazado 141223" d="M630.516,3178.843a18.405,18.405,0,0,0-1.461,4.711,1.065,1.065,0,0,0,.925,1.285c1.113.12,2.826.277,4.2.281a1.062,1.062,0,0,0,1.063-1.174,8.955,8.955,0,0,0-2.044-4.931Z" transform="translate(-617.218 -3055.366)" fill="url(#linear-gradient-6)"/>
      <path id="Trazado_141224" data-name="Trazado 141224" d="M639.839,3129.309l.8,4.637a2.993,2.993,0,0,0,2.5.2l-.358-4.985Z" transform="translate(-627.135 -3009.775)" fill="url(#linear-gradient-7)"/>
      <path id="Trazado_141225" data-name="Trazado 141225" d="M601.688,2438.064c-3.614,20.592.255,50.983,1.6,56.937a.926.926,0,0,0,.741.711,6.216,6.216,0,0,0,2.674-.081.849.849,0,0,0,.618-.776c.234-4.8.177-34.288,3.472-45.91a2.647,2.647,0,0,1,1.035-1.45l6.222-4.335.542-7.1Z" transform="translate(-590.75 -2373.803)" fill="url(#linear-gradient-8)"/>
      <g id="Grupo_97233" data-name="Grupo 97233" transform="translate(9.811 9.801)">
        <path id="Trazado_141226" data-name="Trazado 141226" d="M628.008,1971.176c-10.24-.267-21.568,2.484-21.568,2.484-3.223,17.784-.9,38.354-.9,38.354,7.909,2.155,16.885-1.11,16.885-1.11,1.389-7.433,7.737-28.328,7.737-28.328a33.736,33.736,0,0,0,12.559-3.854,21.96,21.96,0,0,1-4.254-9.12A34.366,34.366,0,0,1,628.008,1971.176Z" transform="translate(-604.731 -1955.588)" fill="#5cd8a0"/>
        <path id="Trazado_141227" data-name="Trazado 141227" d="M1034.014,1800.364a1.96,1.96,0,0,0-2.273-.662c-1.568,6.352-9.52,11.438-17.662,13.884a21.958,21.958,0,0,0,4.254,9.12C1031.878,1815.259,1034.014,1800.364,1034.014,1800.364Z" transform="translate(-980.341 -1799.573)" fill="url(#linear-gradient-9)"/>
      </g>
      <g id="Grupo_97234" data-name="Grupo 97234" transform="translate(61.234)">
        <path id="Trazado_141228" data-name="Trazado 141228" d="M1230.669,1691.555c.1.336-1.122.833-1.827-.542-.019-.656-.391-3.47.006-4a52.338,52.338,0,0,1,6.2-6.356.963.963,0,0,1,.108,1.339l-1.983,2.027a9.508,9.508,0,0,1,1.125,2.277,2.753,2.753,0,0,1-.294,2.022c-.351.617-.829,1.42-1.279,2.048A2.717,2.717,0,0,1,1230.669,1691.555Z" transform="translate(-1228.666 -1680.656)" fill="url(#linear-gradient-10)"/>
        <path id="Trazado_141229" data-name="Trazado 141229" d="M1246.238,1737.5l-1.8,1.5-.576,1.505,1.578,1.785a20.579,20.579,0,0,1,.97-3.636C1246.811,1738.01,1246.608,1737.694,1246.238,1737.5Z" transform="translate(-1242.606 -1732.816)" fill="url(#linear-gradient-11)"/>
      </g>
      <path id="Trazado_141230" data-name="Trazado 141230" d="M503.722,2028.8l-3.834-9.954s-9.628,6.408-11.28,14.635a22.638,22.638,0,0,1,8.295,2.308C497.647,2031.9,503.722,2028.8,503.722,2028.8Z" transform="translate(-488.368 -1990.969)" fill="#5cd8a0"/>
      <path id="Trazado_141231" data-name="Trazado 141231" d="M509.32,2201.139s-10.8,5.968-14.373.75a4.074,4.074,0,0,1-.717-3.173,22.638,22.638,0,0,0-8.295-2.308,11.375,11.375,0,0,0,1.162,7.809c6.237,11.673,23.619-.417,23.619-.417Z" transform="translate(-485.695 -2153.901)" fill="url(#linear-gradient-12)"/>
      <path id="Trazado_141232" data-name="Trazado 141232" d="M724.749,1886.621l-3.349,9.393a.34.34,0,0,0,.151.41,7.661,7.661,0,0,0,7.95-.459,1.6,1.6,0,0,0,.747-1.135l1.133-8.146Z" transform="translate(-701.956 -1869.646)" fill="url(#linear-gradient-13)"/>
      <g id="Grupo_97235" data-name="Grupo 97235" transform="translate(16.642 3.416)">
        <path id="Trazado_141233" data-name="Trazado 141233" d="M756.037,1781.556s3.514,6.77,3.03,9.487-4.918,2.479-8.769.232l-2.637-7.3Z" transform="translate(-742.712 -1776.656)" fill="url(#linear-gradient-14)"/>
        <path id="Trazado_141234" data-name="Trazado 141234" d="M695.405,1733.147a.278.278,0,0,0,.125-.405,7.25,7.25,0,0,1-.976-2.123s-.639-.418,1.646-.942,5.695-1.339,6.428-3.273c.715-1.886-1.071-6.663-4.029-2.9a.278.278,0,0,1-.44,0,2.862,2.862,0,0,0-3.475-1.166,2.626,2.626,0,0,0-1.822,2.52.276.276,0,0,1-.33.28,3.2,3.2,0,0,0-3.755,1.707c-.779,1.67-.292,2.624.155,3.093a.277.277,0,0,1-.123.458,1.666,1.666,0,0,0-1.193,1.89c.08,1.761,2.05,1.625,2.612,1.55a.278.278,0,0,1,.246.09c.475.536,2.619,2.815,4.96,3.11a.28.28,0,0,0,.3-.367l-.986-2.958a.279.279,0,0,1,.154-.344Z" transform="translate(-687.614 -1722.098)" fill="url(#linear-gradient-15)"/>
        <path id="Trazado_141235" data-name="Trazado 141235" d="M756.5,1851.424s-2.531-1.772-2.731-.3,2.274,2.154,3.508,1.617Z" transform="translate(-748.31 -1839.953)" fill="url(#linear-gradient-16)"/>
      </g>
      <g id="Grupo_97237" data-name="Grupo 97237" transform="translate(21.394 34.42)">
        <g id="Grupo_97236" data-name="Grupo 97236">
          <path id="Trazado_141236" data-name="Trazado 141236" d="M745.3,2120.531l5.882-20.542a.6.6,0,0,1,.507-.432c1.066-.124,4.154-.473,7.72-.775a87.589,87.589,0,0,1,12.263-.407.6.6,0,0,1,.491.865c-1.695,3.429-8.667,17.378-12.158,21.947a.6.6,0,0,1-.485.238l-13.648-.127A.6.6,0,0,1,745.3,2120.531Z" transform="translate(-745.279 -2098.282)" fill="url(#linear-gradient-17)"/>
          <path id="Trazado_141237" data-name="Trazado 141237" d="M756.491,2230.044s-.819-3.369-.489-4.565.971-2.732,3.106-2.391a31.24,31.24,0,0,1,4.653,1.241,1.222,1.222,0,0,1-1.75,1.055l1.006.778s-.144,1.247-1.514.581l.936,1.032a1.091,1.091,0,0,1-1.6.367C759.834,2227.486,759.35,2230.449,756.491,2230.044Z" transform="translate(-755.046 -2212.758)" fill="url(#linear-gradient-18)"/>
        </g>
        <path id="Trazado_141238" data-name="Trazado 141238" d="M911.991,2159.536a1.727,1.727,0,1,0,1.727-1.727A1.727,1.727,0,0,0,911.991,2159.536Z" transform="translate(-898.251 -2152.903)" fill="#91b3fa"/>
        <path id="Trazado_141239" data-name="Trazado 141239" d="M820.109,2120.757l1.2-4.063a1.393,1.393,0,0,1,1.047-.978c3.754-.783,14.028-.949,14.131-.951l-.007-.459c-.424.007-10.422.168-14.218.961a1.852,1.852,0,0,0-1.393,1.3l-1.2,4.063Z" transform="translate(-813.538 -2112.986)" fill="#bdd0fb"/>
      </g>
    </g>
    <g id="Grupo_97249" data-name="Grupo 97249" transform="translate(270.307 418.206)">
      <g id="Grupo_97239" data-name="Grupo 97239" transform="translate(79.719 0)">
        <path id="Trazado_141240" data-name="Trazado 141240" d="M2673.191,1819.575a.389.389,0,0,1,.719.076c.349,1.256,1.193,3.447,2.965,4.225.089.039.174.079.256.119a.9.9,0,0,0-.111-.815c-.551-.842.443-1.991.443-1.991a2.564,2.564,0,0,0,.835,1.65,2.464,2.464,0,0,1,.528,2.773c-.959,3.725-2.395,8.65,3.2,12.249s13.469-6.792,13.469-6.792l-3.909,12.393s-6.034,4.453-13.053-1.809-2.366-15.372-2.366-15.372S2670.813,1824.123,2673.191,1819.575Z" transform="translate(-2672.582 -1807.193)" fill="url(#linear-gradient-19)"/>
        <path id="Trazado_141241" data-name="Trazado 141241" d="M2933.138,1677.319s-1.62-7.268,6.705-5.344c0,0,4.042-.66,4.247,3.154,0,0,2.6,1.717.7,5.018,0,0,7.742-2.99,11.115,3.8s.272,10.52-2.978,11.493a3.237,3.237,0,0,1,1.387,4.308c-1.247,2.986-7.56,5.09-11.289,1.459,0,0-10.611,1.4-10.4-6.093,0,0-4.935-3.187.249-9.381S2933.138,1677.319,2933.138,1677.319Z" transform="translate(-2909.246 -1671.65)" fill="#12263f"/>
        <path id="Trazado_141242" data-name="Trazado 141242" d="M2884.572,1939.868a11.42,11.42,0,0,1,11.178,2.848,2.869,2.869,0,0,1,.827,2.859c-1.244,4.582-4.528,18.118-1.649,23.975,0,0-5.074,5.593-10.609,1.085,0,0-2.484-10.824-5.736-15.576-2.246-3.28,3.581-12.319,5.055-14.5A1.727,1.727,0,0,1,2884.572,1939.868Z" transform="translate(-2861.137 -1917.352)" fill="#5cd8a0"/>
        <path id="Trazado_141243" data-name="Trazado 141243" d="M2976.1,1834.4s2.474,7,2.66,10.086a5.292,5.292,0,0,1-5.311-.855s-.271-6.99-.661-8.242Z" transform="translate(-2948.043 -1820.985)" fill="url(#linear-gradient-20)"/>
        <path id="Trazado_141244" data-name="Trazado 141244" d="M2928.563,1718.041s-6.472,9.057-2.6,11.687,8.476-3.806,8.476-3.806,1.5-4.957-.069-6.639S2928.563,1718.041,2928.563,1718.041Z" transform="translate(-2903.946 -1714.171)" fill="url(#linear-gradient-21)"/>
        <path id="Trazado_141245" data-name="Trazado 141245" d="M2969.583,1691.01s-2.973.7-3.39,2.05,4.216,2.593,5.514,2.654l1.046,5.428s3.092-5.106,1.867-8.056S2969.583,1691.01,2969.583,1691.01Z" transform="translate(-2941.97 -1689.303)" fill="url(#linear-gradient-22)"/>
        <path id="Trazado_141246" data-name="Trazado 141246" d="M3027.3,1787.689s2.519-2.917,3.521-1.015-2.267,3.33-3.4,2.4Z" transform="translate(-2998.065 -1776.603)" fill="url(#linear-gradient-23)"/>
        <path id="Trazado_141247" data-name="Trazado 141247" d="M2859.889,2593.9c.019.491-.844,4.389-1.313,6.468a3.423,3.423,0,0,0,.369,2.456l16.26,27.367a3.726,3.726,0,0,1,.427,1.065,23.475,23.475,0,0,1,.594,7.3l-.841,1.747,3.638-.826.792-9.77-1.03-.628a4.9,4.9,0,0,1-1.979-2.317c-1.47-3.572-5.122-12.663-6.062-17.094-1.07-5.035-6.662-9.125-6.662-9.125l.982-2.323Z" transform="translate(-2843.169 -2517.892)" fill="url(#linear-gradient-24)"/>
        <path id="Trazado_141248" data-name="Trazado 141248" d="M3058.956,3026.406a22.217,22.217,0,0,1-2.2-4.327c-.231-1.212-.875-3.354-2.086-2.709a71.073,71.073,0,0,0-.374,8.191c.2,2.3-2.6,2.228-2.6,2.228a2.611,2.611,0,0,0-1.336.673.655.655,0,0,0,.439,1.1,15.756,15.756,0,0,0,3.9-.22,1.193,1.193,0,0,0,.962-1.1l.4-6.778,2.478,3.129Z" transform="translate(-3019.06 -2908.185)" fill="url(#linear-gradient-25)"/>
        <path id="Trazado_141249" data-name="Trazado 141249" d="M2955.642,2639.456s.573,24.48.651,27.957-.549,11.182-4.034,13.485l1.517,1.123a20.275,20.275,0,0,0,3.747-4.711,28.631,28.631,0,0,1,2.709-4.119l-.69-1.414a3.106,3.106,0,0,1-.252-1.993c.752-3.646,3.265-15.77,3.95-18.382a11.761,11.761,0,0,0-1.948-10.644C2958.477,2637.312,2955.642,2639.456,2955.642,2639.456Z" transform="translate(-2929.209 -2559.087)" fill="url(#linear-gradient-26)"/>
        <path id="Trazado_141250" data-name="Trazado 141250" d="M2939.836,3059.51a.214.214,0,0,0,.215-.184,31.633,31.633,0,0,1,.994-4.935c.453-.97,1.931-5.054,0-5.4,0,0-4.8,7.017-5.724,7.963a1.808,1.808,0,0,1-2.086.331,3.472,3.472,0,0,0-1.576,1.131.636.636,0,0,0,.5,1.022l3.235.031a2.276,2.276,0,0,0,2.134-1.434,12.158,12.158,0,0,1,2.688-4.434l-.593,5.672a.216.216,0,0,0,.213.238Z" transform="translate(-2910.184 -2935.473)" fill="url(#linear-gradient-27)"/>
        <path id="Trazado_141251" data-name="Trazado 141251" d="M2862.535,2268.3a11.486,11.486,0,0,1-.391,6.15l-6.947,24.26a.751.751,0,0,0,.47.914,46.342,46.342,0,0,0,18.234,2.211,1.059,1.059,0,0,0,.965-.824c.615-2.766,2.711-12.2,3.143-14.141,1.645-7.388,3.481-15.355-4.6-20.173C2869.688,2268.288,2866.215,2269.228,2862.535,2268.3Z" transform="translate(-2840.119 -2217.651)" fill="url(#linear-gradient-28)"/>
        <path id="Trazado_141252" data-name="Trazado 141252" d="M3026.839,1984.191s7.9,6.569,9.866,15.545-11.55,9.93-11.55,9.93-1.834-2.048-4.012-1.318-.168-3.575,2.379-3.563,1.368,2.026,4.972.393c3.511-1.59,5.681-6.509-3.277-13.966a4.058,4.058,0,0,1-1.183-1.611C3022.293,1985.221,3023.674,1982.349,3026.839,1984.191Z" transform="translate(-2991.563 -1957.912)" fill="url(#linear-gradient-29)"/>
      </g>
      <g id="Grupo_97248" data-name="Grupo 97248" transform="translate(0 22.264)">
        <g id="Grupo_97242" data-name="Grupo 97242" transform="translate(48.142 63.821)">
          <g id="Grupo_97240" data-name="Grupo 97240" transform="translate(14.57 7.261)">
            <rect id="Rectángulo_32968" data-name="Rectángulo 32968" width="2.819" height="30.491" fill="#7d97f4"/>
          </g>
          <g id="Grupo_97241" data-name="Grupo 97241" transform="translate(3.633 36.504)">
            <path id="Trazado_141253" data-name="Trazado 141253" d="M2358.22,3160.9h-24.694v-1.632a.2.2,0,0,1,.2-.2h24.287a.2.2,0,0,1,.2.2Z" transform="translate(-2333.526 -3159.063)" fill="#7d97f4"/>
          </g>
          <rect id="Rectángulo_32969" data-name="Rectángulo 32969" width="32.997" height="9.358" rx="4.679" fill="#7d97f4"/>
        </g>
        <g id="Grupo_97244" data-name="Grupo 97244" transform="translate(22.344)">
          <path id="Trazado_141254" data-name="Trazado 141254" d="M2084.177,3053.848s-9.115,3.926-8.593,8.035c0,0,9.422-1.807,11.108-4.5s.757-4.253.757-4.253Z" transform="translate(-2067.393 -2961.536)" fill="url(#linear-gradient-30)"/>
          <path id="Trazado_141255" data-name="Trazado 141255" d="M2163.5,3007.4l.462,4a1.323,1.323,0,0,1-.837,1.405,3.457,3.457,0,0,1-1.155.176,1.54,1.54,0,0,1-1.5-1.124l-.9-3.235Z" transform="translate(-2144.481 -2919.578)" fill="url(#linear-gradient-31)"/>
          <path id="Trazado_141256" data-name="Trazado 141256" d="M2129.151,2634.681s-16.765-.776-25.107,4.089.423,28.214.423,28.214a8.473,8.473,0,0,0,5.317-1.208s-4.478-17.093,3.3-20.067a44.779,44.779,0,0,1,17.79-2.53l-1.676-7.971Z" transform="translate(-2090.223 -2577.533)" fill="url(#linear-gradient-32)"/>
          <path id="Trazado_141257" data-name="Trazado 141257" d="M2060.475,3107.077c1.906-.418,7.56-2.76,8.418-2.729s2.075,1.318,2.075,1.318a2.285,2.285,0,0,1-.4,1.713,15.829,15.829,0,0,1-8.242,3.449,6.12,6.12,0,0,1-5.221-1.935A7.466,7.466,0,0,1,2060.475,3107.077Z" transform="translate(-2050.452 -3008.533)" fill="url(#linear-gradient-33)"/>
          <path id="Trazado_141258" data-name="Trazado 141258" d="M2053.241,3144.574a15.829,15.829,0,0,0,8.242-3.45,7.119,7.119,0,0,1-2.692,2.344c-3.687,2.083-9.779,1.779-10.987,1.31-.968-.375-.669-1.279.216-2.14A6.119,6.119,0,0,0,2053.241,3144.574Z" transform="translate(-2041.372 -3042.278)" fill="url(#linear-gradient-34)"/>
          <path id="Trazado_141259" data-name="Trazado 141259" d="M2192.2,3071.1a13.585,13.585,0,0,1-2.232,2.681,1.519,1.519,0,0,1-1.412.425,3.91,3.91,0,0,1-1.011-.355.986.986,0,0,1-.382-1.341l1.952-3.551Z" transform="translate(-2169.683 -2976.064)" fill="url(#linear-gradient-35)"/>
          <path id="Trazado_141260" data-name="Trazado 141260" d="M2232.934,2618.126s1.463,10.382-2.768,12.5-13.512,3.511-16.708,8.9-8.937,15.953-14.162,18.99c0,0-2.984-.97-3.856-2.438,0,0,6.2-16.3,8.788-20.264,2.24-3.432,5.517-8.375,10.171-10.513,1.332-.612,1.437-2.026,1.2-3.473l-.427-2.636Z" transform="translate(-2177.391 -2562.384)" fill="url(#linear-gradient-36)"/>
          <path id="Trazado_141261" data-name="Trazado 141261" d="M2160.6,2303.8c5.932,1.693,8.587-15,8.563-15.407l9.095,10.634s-5.419,9.536-13.6,10.551a9.658,9.658,0,0,1-5.309-.778A8.5,8.5,0,0,0,2160.6,2303.8Z" transform="translate(-2144.275 -2259.824)" fill="#5cd8a0"/>
          <path id="Trazado_141262" data-name="Trazado 141262" d="M1981.784,2405.716c2.585-1.062,4.779,1.058,4.779,1.058,2.562,2.622,4.594,3.946,6.207,4.406a8.5,8.5,0,0,1-1.253,5,13.226,13.226,0,0,1-5.827-5.9,1.11,1.11,0,0,0-1.464-.5c-.548.265-1.113.669-1.148,1.218-.07,1.083-1.358,1.147-1.366.747a16.035,16.035,0,0,1,1-2.539s-2.971,1.905-4.127,2.634a1.7,1.7,0,0,1-2.141-.474S1979.2,2406.778,1981.784,2405.716Z" transform="translate(-1976.442 -2367.207)" fill="url(#linear-gradient-37)"/>
          <path id="Trazado_141263" data-name="Trazado 141263" d="M2305.05,2188.34s-7.971-5.438-27.224,4.4a6.266,6.266,0,0,0-1.054,5.347c.929,2.833,12.36,18.168,12.8,25.367,0,0,7.814,4.6,17.958.04C2307.534,2223.491,2310.936,2204.482,2305.05,2188.34Z" transform="translate(-2251.792 -2166.644)" fill="#5cd8a0"/>
          <path id="Trazado_141264" data-name="Trazado 141264" d="M2351.333,2120.674l3.15,6.173a1.755,1.755,0,0,1-.182,1.892,5.013,5.013,0,0,1-5.769,1.606,2.706,2.706,0,0,1-1.844-1.963l-1.633-6.89Z" transform="translate(-2314.675 -2105.931)" fill="url(#linear-gradient-38)"/>
          <path id="Trazado_141265" data-name="Trazado 141265" d="M2589.878,2226.593c.54-3.752-9.376-11.025-9.376-11.025l3.473-10.53s18.921,13.5,14.942,24.53a7.707,7.707,0,0,1-2.458,3.549C2594.455,2229.006,2591.738,2227.3,2589.878,2226.593Z" transform="translate(-2530.717 -2183.341)" fill="#5cd8a0"/>
          <path id="Trazado_141266" data-name="Trazado 141266" d="M2432.8,2467.62s11.217,3.133,13.544-.281a1.779,1.779,0,0,0,.29-.76c1.859.706,4.577,2.414,6.58,6.523-5.326,4.189-15.594-.507-18.384-1.915a1.972,1.972,0,0,0-1.477-.124,13.468,13.468,0,0,1-3.67.738c-1.4-.077-2.906,4.988-5.292,3.706C2424.388,2475.508,2425.472,2466.854,2432.8,2467.62Z" transform="translate(-2387.469 -2423.327)" fill="url(#linear-gradient-39)"/>
          <g id="Grupo_97243" data-name="Grupo 97243" transform="translate(25.962)">
            <path id="Trazado_141267" data-name="Trazado 141267" d="M2298.111,1995.358c-.1.087-4.255,7.344-6.37,11.044a2.176,2.176,0,0,0,1.034,3.08l.916.393c1.252.537,3.945.986,5,.13l6.68-7.051S2300.358,1993.413,2298.111,1995.358Z" transform="translate(-2291.453 -1990.703)" fill="url(#linear-gradient-40)"/>
            <path id="Trazado_141268" data-name="Trazado 141268" d="M2357.452,1952.114a2.154,2.154,0,0,0,1.037-3.041,3.038,3.038,0,0,0-3.312-1.714.83.83,0,0,1-.881-.6.657.657,0,0,0-.581-.47.817.817,0,0,1-.645-1.023,2.477,2.477,0,0,0-1.235-2.968c-2.542-1.539-4.919.7-5.581,2.64s2.189,3.456,4.01,3.764c1.384.235,2.06,1.831,2.3,2.583a.824.824,0,0,1-.1.707l-2.031,3.086c.559.7,1.054,1.445,1.542,2.2.183-.2.343-.361.467-.475.882-.808,2.451-.391,3.1-.169a.814.814,0,0,0,.641-.047,2.15,2.15,0,0,0,.96-3.316A.83.83,0,0,1,2357.452,1952.114Z" transform="translate(-2341.647 -1941.787)" fill="#12263f"/>
            <path id="Trazado_141269" data-name="Trazado 141269" d="M2407.861,2110.572s1.3-3.337,2.774-3.151,2.58,1.71.675,3.293C2408.941,2112.682,2407.861,2110.572,2407.861,2110.572Z" transform="translate(-2398.267 -2093.763)" fill="url(#linear-gradient-41)"/>
          </g>
        </g>
        <g id="Grupo_97245" data-name="Grupo 97245" transform="translate(1.784 27.643)">
          <path id="Trazado_141270" data-name="Trazado 141270" d="M2047.179,2539.446h-.06l-26.2-.029a1.173,1.173,0,1,1,0-2.346l26.2.028a1.173,1.173,0,0,1,.057,2.344Z" transform="translate(-1995.613 -2515.654)" fill="#12263f"/>
          <path id="Trazado_141271" data-name="Trazado 141271" d="M1728.715,2277.188h21.823a4.16,4.16,0,0,1,3.762,2.385l10.089,21.393h-27.121a2.528,2.528,0,0,1-2.351-1.6l-7.824-19.8A1.743,1.743,0,0,1,1728.715,2277.188Z" transform="translate(-1726.97 -2277.188)" fill="#12263f"/>
          <path id="Trazado_141272" data-name="Trazado 141272" d="M1895.895,2385.942c.473,1.469.123,2.9-.78,3.187s-2.02-.665-2.493-2.134-.123-2.9.78-3.187S1895.422,2384.472,1895.895,2385.942Z" transform="translate(-1878.776 -2374.973)" fill="#ea7596"/>
        </g>
        <g id="Grupo_97247" data-name="Grupo 97247" transform="translate(0 51.186)">
          <g id="Grupo_97246" data-name="Grupo 97246" transform="translate(5.965 2.344)">
            <path id="Trazado_141273" data-name="Trazado 141273" d="M1778.808,2645.395a1.13,1.13,0,0,1-.435-.087,1.053,1.053,0,0,1-.576-1.4l23.095-51.976a1.115,1.115,0,0,1,1.447-.558,1.053,1.053,0,0,1,.577,1.4l-23.095,51.976A1.1,1.1,0,0,1,1778.808,2645.395Z" transform="translate(-1777.707 -2591.286)" fill="#91b3fa"/>
            <path id="Trazado_141274" data-name="Trazado 141274" d="M1837.35,2645.393a1.1,1.1,0,0,1-1.012-.645l-23.094-51.976a1.054,1.054,0,0,1,.576-1.4,1.115,1.115,0,0,1,1.447.558l23.095,51.976a1.054,1.054,0,0,1-.577,1.4A1.127,1.127,0,0,1,1837.35,2645.393Z" transform="translate(-1810.232 -2591.284)" fill="#91b3fa"/>
            <path id="Trazado_141275" data-name="Trazado 141275" d="M2646.191,2645.395a1.13,1.13,0,0,1-.435-.087,1.054,1.054,0,0,1-.576-1.4l23.094-51.976a1.115,1.115,0,0,1,1.447-.558,1.053,1.053,0,0,1,.576,1.4L2647.2,2644.75A1.1,1.1,0,0,1,2646.191,2645.395Z" transform="translate(-2573.603 -2591.286)" fill="#91b3fa"/>
            <path id="Trazado_141276" data-name="Trazado 141276" d="M2704.731,2645.393a1.1,1.1,0,0,1-1.012-.645l-23.094-51.976a1.054,1.054,0,0,1,.576-1.4,1.116,1.116,0,0,1,1.447.558l23.094,51.976a1.054,1.054,0,0,1-.576,1.4A1.129,1.129,0,0,1,2704.731,2645.393Z" transform="translate(-2606.125 -2591.284)" fill="#91b3fa"/>
          </g>
          <path id="Trazado_141277" data-name="Trazado 141277" d="M1812.609,2564.228a1.267,1.267,0,0,0-.219-.961,1,1,0,0,0-.8-.423H1706.525a1.17,1.17,0,0,0-1.007.617,1.477,1.477,0,0,0-.078,1.283l1.139,2.759a1.594,1.594,0,0,0,1.447,1.036h102.842a1.251,1.251,0,0,0,1.185-1.095Z" transform="translate(-1705.33 -2562.844)" fill="#91b3fa"/>
        </g>
      </g>
    </g>
  </g>
</svg>
