<svg xmlns="http://www.w3.org/2000/svg" xmlns:xlink="http://www.w3.org/1999/xlink" width="192.475" height="199.436" viewBox="0 0 192.475 199.436">
  <defs>
    <clipPath id="clip-path">
      <path id="Trazado_142471" data-name="Trazado 142471" d="M322.481,78.389l-16.53,1.572a3.092,3.092,0,0,1-3.373-2.786l-4.518-23.61a3.1,3.1,0,0,1,2.788-3.375l21.013-3.09c1.7-.162,3.994,2.978,4.156,4.68l-.748,23.236A3.1,3.1,0,0,1,322.481,78.389Z" transform="translate(-298.046 -47.094)" fill="none"/>
    </clipPath>
  </defs>
  <g id="Grupo_98341" data-name="Grupo 98341" transform="translate(-685.013 -923.237)">
    <ellipse id="Elipse_4516" data-name="Elipse 4516" cx="96.238" cy="90.914" rx="96.238" ry="90.914" transform="translate(685.013 940.846)" fill="#e8fff5"/>
    <g id="Grupo_98223" data-name="Grupo 98223" transform="translate(708.849 923.237)">
      <g id="Grupo_98047" data-name="Grupo 98047" transform="translate(18.071 95.161)">
        <path id="Trazado_142428" data-name="Trazado 142428" d="M315.423,55.484l6.153-.191a32.369,32.369,0,0,1-2.179,7.1c-1.119,2.713-7.477,7.288-4.165,9.276s6.7-11.571,9.041-12.378c2.271-.78,7.525.828,6.3,3.1s-4.545-.285-5.3.757-3.314,13.538-10.413,14.01-9.941-3.123-8.521-6.627S315.423,55.484,315.423,55.484Z" transform="translate(-305.979 -55.293)" fill="#ce8e3a"/>
      </g>
      <g id="Grupo_98050" data-name="Grupo 98050" transform="translate(84.524 64.45)">
        <g id="Grupo_98048" data-name="Grupo 98048">
          <circle id="Elipse_4525" data-name="Elipse 4525" cx="10.654" cy="10.654" r="10.654" fill="#062c3f"/>
        </g>
        <g id="Grupo_98049" data-name="Grupo 98049" transform="translate(3.318 3.156)">
          <path id="Trazado_142429" data-name="Trazado 142429" d="M349.53,40.991l2.267,4.594,5.069.737L353.2,49.9l.866,5.049-4.534-2.384L345,54.945l.866-5.049-3.668-3.576,5.069-.737Z" transform="translate(-342.194 -40.991)" fill="#fff"/>
        </g>
      </g>
      <g id="Grupo_98054" data-name="Grupo 98054" transform="translate(48.255 63.139)">
        <g id="Grupo_98052" data-name="Grupo 98052">
          <g id="Grupo_98051" data-name="Grupo 98051">
            <circle id="Elipse_4526" data-name="Elipse 4526" cx="10.654" cy="10.654" r="10.654" fill="#4396ca"/>
          </g>
        </g>
        <g id="Grupo_98053" data-name="Grupo 98053" transform="translate(4.241 6.489)">
          <path id="Trazado_142430" data-name="Trazado 142430" d="M334.94,42.344c-1.6-.857-3.687.22-4.664,1.705-.977-1.485-3.179-2.562-4.774-1.705a3.012,3.012,0,0,0-1.181,4.356c.907,1.688,5.945,5.8,5.955,5.753.01.05,5.048-4.065,5.953-5.753A3.046,3.046,0,0,0,334.94,42.344Z" transform="translate(-323.847 -42.04)" fill="#fff"/>
        </g>
      </g>
      <g id="Grupo_98060" data-name="Grupo 98060" transform="translate(65.868 42.459)">
        <g id="Grupo_98056" data-name="Grupo 98056">
          <g id="Grupo_98055" data-name="Grupo 98055">
            <circle id="Elipse_4527" data-name="Elipse 4527" cx="10.654" cy="10.654" r="10.654" fill="#025482"/>
          </g>
        </g>
        <g id="Grupo_98059" data-name="Grupo 98059" transform="translate(4.754 4.754)">
          <g id="Grupo_98057" data-name="Grupo 98057" transform="translate(4.685)">
            <rect id="Rectángulo_33308" data-name="Rectángulo 33308" width="2.429" height="11.8" fill="#fff"/>
          </g>
          <g id="Grupo_98058" data-name="Grupo 98058" transform="translate(0 4.685)">
            <rect id="Rectángulo_33309" data-name="Rectángulo 33309" width="11.8" height="2.429" fill="#fff"/>
          </g>
        </g>
      </g>
      <g id="Grupo_98066" data-name="Grupo 98066" transform="translate(59.69 79.585)">
        <g id="Grupo_98062" data-name="Grupo 98062" transform="translate(0 0)">
          <g id="Grupo_98061" data-name="Grupo 98061">
            <circle id="Elipse_4528" data-name="Elipse 4528" cx="13.951" cy="13.951" r="13.951" transform="translate(0 10.725) rotate(-22.605)" fill="#eab124"/>
          </g>
        </g>
        <g id="Grupo_98063" data-name="Grupo 98063" transform="translate(9.688 12.474)">
          <path id="Trazado_142431" data-name="Trazado 142431" d="M348.928,65.662H333.745a1.136,1.136,0,0,1-1.135-1.135V54.82a1.136,1.136,0,0,1,1.135-1.137h15.183a1.136,1.136,0,0,1,1.137,1.137v9.708A1.136,1.136,0,0,1,348.928,65.662Zm-14.047-2.271h12.912V55.954H334.881Z" transform="translate(-332.61 -53.683)" fill="#fff"/>
        </g>
        <g id="Grupo_98064" data-name="Grupo 98064" transform="translate(16.449 16.057)">
          <path id="Trazado_142432" data-name="Trazado 142432" d="M340.435,57.7a2.158,2.158,0,1,1-2.158-2.156A2.158,2.158,0,0,1,340.435,57.7Z" transform="translate(-336.119 -55.543)" fill="#fff"/>
        </g>
        <g id="Grupo_98065" data-name="Grupo 98065" transform="translate(21.086 10.447)">
          <path id="Trazado_142433" data-name="Trazado 142433" d="M339.946,56.632a1.42,1.42,0,0,1-1.42-1.42V54.051a1.42,1.42,0,1,1,2.84,0v1.162A1.42,1.42,0,0,1,339.946,56.632Z" transform="translate(-338.526 -52.631)" fill="#fff"/>
        </g>
      </g>
      <g id="Grupo_98074" data-name="Grupo 98074" transform="translate(90.179 34.09)">
        <g id="Grupo_98068" data-name="Grupo 98068">
          <g id="Grupo_98067" data-name="Grupo 98067">
            <path id="Trazado_142434" data-name="Trazado 142434" d="M369.227,36.506a12.91,12.91,0,1,1-12.91-12.912A12.911,12.911,0,0,1,369.227,36.506Z" transform="translate(-343.407 -23.594)" fill="#4396ca"/>
          </g>
        </g>
        <g id="Grupo_98069" data-name="Grupo 98069" transform="translate(6.42 6.308)">
          <path id="Trazado_142435" data-name="Trazado 142435" d="M347.875,39.421a1.137,1.137,0,0,1-.794-1.95l10.542-10.28a1.136,1.136,0,0,1,1.587,1.626L348.669,39.1A1.133,1.133,0,0,1,347.875,39.421Z" transform="translate(-346.739 -26.868)" fill="#fff"/>
        </g>
        <g id="Grupo_98070" data-name="Grupo 98070" transform="translate(6.645 6.142)">
          <path id="Trazado_142436" data-name="Trazado 142436" d="M351.8,29.256a2.473,2.473,0,1,1-2.472-2.474A2.472,2.472,0,0,1,351.8,29.256Z" transform="translate(-346.856 -26.782)" fill="#fff"/>
        </g>
        <g id="Grupo_98071" data-name="Grupo 98071" transform="translate(14.584 13.821)">
          <path id="Trazado_142437" data-name="Trazado 142437" d="M355.923,33.24a2.473,2.473,0,1,1-2.474-2.472A2.474,2.474,0,0,1,355.923,33.24Z" transform="translate(-350.977 -30.768)" fill="#fff"/>
        </g>
        <g id="Grupo_98072" data-name="Grupo 98072" transform="translate(16.027 15.263)">
          <circle id="Elipse_4529" data-name="Elipse 4529" cx="1.03" cy="1.03" r="1.03" fill="#4396ca"/>
        </g>
        <g id="Grupo_98073" data-name="Grupo 98073" transform="translate(8.088 7.585)">
          <circle id="Elipse_4530" data-name="Elipse 4530" cx="1.03" cy="1.03" r="1.03" fill="#4396ca"/>
        </g>
      </g>
      <g id="Grupo_98080" data-name="Grupo 98080" transform="translate(98.041 85.329)">
        <g id="Grupo_98076" data-name="Grupo 98076">
          <g id="Grupo_98075" data-name="Grupo 98075">
            <path id="Trazado_142438" data-name="Trazado 142438" d="M373.308,63.1A12.91,12.91,0,1,1,360.4,50.19,12.91,12.91,0,0,1,373.308,63.1Z" transform="translate(-347.488 -50.19)" fill="#025482"/>
          </g>
        </g>
        <g id="Grupo_98079" data-name="Grupo 98079" transform="translate(3.874 7.775)">
          <g id="Grupo_98077" data-name="Grupo 98077">
            <path id="Trazado_142439" data-name="Trazado 142439" d="M367.979,60.166s-3.56,5.256-9.749,4.917a11.988,11.988,0,0,1-8.731-4.917s2.543-5.766,8.731-5.936A10.323,10.323,0,0,1,367.979,60.166Z" transform="translate(-349.499 -54.226)" fill="#fff"/>
          </g>
          <g id="Grupo_98078" data-name="Grupo 98078" transform="translate(5.51 1.625)">
            <path id="Trazado_142440" data-name="Trazado 142440" d="M360.158,58.968a3.9,3.9,0,1,1-3.9-3.9A3.9,3.9,0,0,1,360.158,58.968Z" transform="translate(-352.359 -55.069)" fill="#025482"/>
          </g>
        </g>
      </g>
      <g id="Grupo_98084" data-name="Grupo 98084" transform="translate(55.066 3.097)">
        <g id="Grupo_98082" data-name="Grupo 98082">
          <g id="Grupo_98081" data-name="Grupo 98081">
            <circle id="Elipse_4531" data-name="Elipse 4531" cx="14.298" cy="14.298" r="14.298" transform="translate(0 20.221) rotate(-45)" fill="#ffcb2f"/>
          </g>
        </g>
        <g id="Grupo_98083" data-name="Grupo 98083" transform="translate(15.95 11.709)">
          <path id="Trazado_142441" data-name="Trazado 142441" d="M337.357,23.542c0-.9.035-1.089-.859-1.4-1.74-.632-3.038-1.826-3.038-3.739a3.876,3.876,0,0,1,3.318-3.865c.335-.069.528-.139.545-.6.017-.387.6-.353.913-.353.351,0,.316.158.316.422,0,.474.615.4,1.141.491.281.054,2.108.37,2.108.773,0,.141-.7,2.2-.948,2.2-.422,0-.861-.721-1.861-.721-.439,0-.368.6-.368.879v1.528c0,.825.052,1.089.894,1.4,2.056.719,3.389,2.054,3.389,4.213,0,2.493-1.614,4.179-3.668,4.179-.387,0-.545.281-.545.7,0,.439-.281.351-.649.351-.333,0-.6.089-.615-.3-.019-.578-.3-.755-.9-.755-.984,0-2.828-.859-2.828-1.194,0-.4.6-2.772.913-2.772.669,0,1.106,1.035,2.266,1.035.526,0,.474-.491.474-.842Zm0-5.936c0-.509.089-.859-.351-.859-.79,0-1.177.773-1.177,1.493a1.738,1.738,0,0,0,1.212,1.509c.264,0,.316-.649.316-1.158Zm1.266,7.727c0,.4,0,.684.509.684a1.362,1.362,0,0,0,1.4-1.387,2.034,2.034,0,0,0-1.562-1.58c-.387,0-.351.333-.351.684Z" transform="translate(-333.46 -13.585)" fill="#fff"/>
        </g>
      </g>
      <g id="Grupo_98088" data-name="Grupo 98088" transform="translate(111.863 50.167)">
        <g id="Grupo_98086" data-name="Grupo 98086" transform="translate(0 0)">
          <g id="Grupo_98085" data-name="Grupo 98085">
            <circle id="Elipse_4532" data-name="Elipse 4532" cx="15.576" cy="15.576" r="15.576" transform="translate(0 30.325) rotate(-76.764)" fill="#b9e8f9"/>
          </g>
        </g>
        <g id="Grupo_98087" data-name="Grupo 98087" transform="translate(7.315 11.731)">
          <path id="Trazado_142442" data-name="Trazado 142442" d="M377.446,38.094c.755.25,1.266,1.828.7,4.36s-1.406,8.3-1.406,8.3h-2.11s.984-6.188-.985-6.751-3.235,6.751-7.733,6.751-7.313.141-7.454-1.125,6.047-2.391,8.579-5.626C370.778,39.223,376.18,37.672,377.446,38.094Z" transform="translate(-358.459 -38.028)" fill="#fff"/>
        </g>
      </g>
      <g id="Grupo_98094" data-name="Grupo 98094" transform="translate(112.104 15.152)">
        <g id="Grupo_98090" data-name="Grupo 98090" transform="translate(0 0)">
          <g id="Grupo_98089" data-name="Grupo 98089">
            <circle id="Elipse_4533" data-name="Elipse 4533" cx="14.298" cy="14.298" r="14.298" transform="translate(0 20.221) rotate(-45)" fill="#ffd56c"/>
          </g>
        </g>
        <g id="Grupo_98093" data-name="Grupo 98093" transform="translate(11.127 14.056)">
          <g id="Grupo_98091" data-name="Grupo 98091">
            <path id="Trazado_142443" data-name="Trazado 142443" d="M377.232,33.263H361.7a1.136,1.136,0,0,1-1.137-1.137V22.2A1.136,1.136,0,0,1,361.7,21.06h15.532a1.136,1.136,0,0,1,1.135,1.137v9.93A1.136,1.136,0,0,1,377.232,33.263Zm-14.4-2.273H376.1V23.331H362.836Z" transform="translate(-360.563 -21.06)" fill="#fff"/>
          </g>
          <g id="Grupo_98092" data-name="Grupo 98092" transform="translate(0.455 0.227)">
            <path id="Trazado_142444" data-name="Trazado 142444" d="M369.467,29.216a1.141,1.141,0,0,1-.68-.227L360.8,23l1.364-1.819,7.284,5.466,6.859-5.446,1.412,1.78-7.544,5.992A1.136,1.136,0,0,1,369.467,29.216Z" transform="translate(-360.799 -21.178)" fill="#fff"/>
          </g>
        </g>
      </g>
      <g id="Grupo_98100" data-name="Grupo 98100" transform="translate(35.393 30.222)">
        <g id="Grupo_98097" data-name="Grupo 98097">
          <g id="Grupo_98096" data-name="Grupo 98096">
            <g id="Grupo_98095" data-name="Grupo 98095">
              <path id="Trazado_142445" data-name="Trazado 142445" d="M342.872,35.536a13.951,13.951,0,1,1-13.952-13.95A13.951,13.951,0,0,1,342.872,35.536Z" transform="translate(-314.97 -21.586)" fill="#062c3f"/>
            </g>
          </g>
        </g>
        <g id="Grupo_98098" data-name="Grupo 98098" transform="translate(3.965 3.965)">
          <path id="Trazado_142446" data-name="Trazado 142446" d="M327.013,43.617A9.986,9.986,0,1,1,337,33.629,10,10,0,0,1,327.013,43.617Zm0-17.7a7.714,7.714,0,1,0,7.714,7.714A7.725,7.725,0,0,0,327.013,25.915Z" transform="translate(-317.028 -23.644)" fill="#fff"/>
        </g>
        <g id="Grupo_98099" data-name="Grupo 98099" transform="translate(9.457 10.211)">
          <path id="Trazado_142447" data-name="Trazado 142447" d="M324.372,31.762a1.131,1.131,0,0,1-.51-.121L320.5,29.947a1.136,1.136,0,1,1,1.023-2.029l2.822,1.422,4.186-2.312a1.136,1.136,0,1,1,1.1,1.988l-4.71,2.6A1.14,1.14,0,0,1,324.372,31.762Z" transform="translate(-319.878 -26.886)" fill="#fff"/>
        </g>
      </g>
      <g id="Grupo_98106" data-name="Grupo 98106" transform="translate(89.921 0)">
        <g id="Grupo_98102" data-name="Grupo 98102" transform="translate(0 0)">
          <g id="Grupo_98101" data-name="Grupo 98101">
            <circle id="Elipse_4534" data-name="Elipse 4534" cx="12.91" cy="12.91" r="12.91" transform="translate(0 24.692) rotate(-73.005)" fill="#a6e2f7"/>
          </g>
        </g>
        <g id="Grupo_98105" data-name="Grupo 98105" transform="translate(9.482 9.497)">
          <g id="Grupo_98103" data-name="Grupo 98103" transform="translate(0 0.107)">
            <path id="Trazado_142448" data-name="Trazado 142448" d="M357.654,25.806a1.136,1.136,0,0,1-.8-.333L354.2,22.816l-2.441,2.441a1.136,1.136,0,0,1-1.929-.657L348.2,12.168a1.136,1.136,0,1,1,2.252-.295l1.324,10.145,1.613-1.611a1.129,1.129,0,0,1,.8-.333h0a1.136,1.136,0,0,1,.8.333l2.655,2.655,1.25-1.25a1.136,1.136,0,0,1,1.607,1.607l-2.054,2.054A1.129,1.129,0,0,1,357.654,25.806Z" transform="translate(-348.195 -10.885)" fill="#fff"/>
          </g>
          <g id="Grupo_98104" data-name="Grupo 98104" transform="translate(0.108)">
            <path id="Trazado_142449" data-name="Trazado 142449" d="M359.982,23.479a1.135,1.135,0,0,1-.8-1.938l1.25-1.25-2.657-2.657a1.137,1.137,0,0,1,0-1.607l1.613-1.613-10.145-1.324a1.136,1.136,0,1,1,.295-2.252l12.432,1.622a1.136,1.136,0,0,1,.657,1.928l-2.441,2.441,2.657,2.657a1.137,1.137,0,0,1,0,1.607l-2.054,2.054A1.132,1.132,0,0,1,359.982,23.479Z" transform="translate(-348.251 -10.829)" fill="#fff"/>
          </g>
        </g>
      </g>
      <g id="Grupo_98107" data-name="Grupo 98107" transform="translate(8.96 106.333)">
        <path id="Trazado_142450" data-name="Trazado 142450" d="M318.289,61.092,301.25,63.078l4.354,64.754,5.728-.568c-.426-7.385-.568-34.222-.994-48.706-.106-3.616,2.031-4.215,2.7-4.506,2.177-.946,4-1.759,8.093,4.079,6.674,9.515,11.359,13.207,14.2,22.154,4.52,14.235-2.323,22.013-2.323,22.013l4.685,3.481a26.8,26.8,0,0,0,4.171-8.313,32.122,32.122,0,0,0-.711-19.6C335.965,83.679,318.289,61.092,318.289,61.092Z" transform="translate(-301.25 -61.092)" fill="#4396ca"/>
      </g>
      <g id="Grupo_98108" data-name="Grupo 98108" transform="translate(13.257 172.116)">
        <path id="Trazado_142451" data-name="Trazado 142451" d="M309.35,95.254l-5.836-.017-.035,11.875a1.61,1.61,0,0,0,1.607,1.614l9.66.027c2.216.008,2.53-3.751-1.4-4.231-1.235-.15-3.512-.68-3.818-1.923A22.555,22.555,0,0,1,309.35,95.254Z" transform="translate(-303.48 -95.237)" fill="#eab124"/>
      </g>
      <g id="Grupo_98109" data-name="Grupo 98109" transform="translate(33.317 167.538)">
        <path id="Trazado_142452" data-name="Trazado 142452" d="M325.977,96.342l-4.685-3.481-7.082,9.533a1.612,1.612,0,0,0,.333,2.254l7.755,5.76c1.778,1.32,4.263-1.516,1.389-4.233-.9-.855-2.42-2.634-1.928-3.817A22.518,22.518,0,0,1,325.977,96.342Z" transform="translate(-313.892 -92.861)" fill="#eab124"/>
      </g>
      <g id="Grupo_98110" data-name="Grupo 98110" transform="translate(2.787 79.54)">
        <path id="Trazado_142453" data-name="Trazado 142453" d="M322.481,78.305l-16.53,1.572a3.092,3.092,0,0,1-3.373-2.786l-4.518-23.61a3.1,3.1,0,0,1,2.788-3.375l19.464-2.919a5.788,5.788,0,0,1,5.7,4.508l-.748,23.236A3.1,3.1,0,0,1,322.481,78.305Z" transform="translate(-298.046 -47.185)" fill="#062c3f"/>
      </g>
      <g id="Grupo_98111" data-name="Grupo 98111" transform="translate(21.456 79.446)">
        <path id="Trazado_142454" data-name="Trazado 142454" d="M307.736,47.9l1.069,17.366,12.563-1.273s-2.792-11.232-4.071-14.769c-.611-1.684-3.314-2.083-5.208-2.083A22.7,22.7,0,0,0,307.736,47.9Z" transform="translate(-307.736 -47.136)" fill="#062c3f"/>
      </g>
      <g id="Grupo_98112" data-name="Grupo 98112" transform="translate(11.924 71.861)">
        <rect id="Rectángulo_33310" data-name="Rectángulo 33310" width="6.282" height="9.804" transform="translate(0 0.937) rotate(-8.581)" fill="#d8a252"/>
      </g>
      <g id="Grupo_98113" data-name="Grupo 98113" transform="translate(3.939 59.093)">
        <circle id="Elipse_4535" data-name="Elipse 4535" cx="7.668" cy="7.668" r="7.668" transform="matrix(0.829, -0.56, 0.56, 0.829, 0, 8.588)" fill="#d8a252"/>
      </g>
      <g id="Grupo_98114" data-name="Grupo 98114" transform="translate(5.147 70.723)">
        <path id="Trazado_142455" data-name="Trazado 142455" d="M303.3,45.041a2.035,2.035,0,1,1-1.6-2.393A2.033,2.033,0,0,1,303.3,45.041Z" transform="translate(-299.27 -42.608)" fill="#d8a252"/>
      </g>
      <g id="Grupo_98129" data-name="Grupo 98129" transform="translate(34.422 102.135)">
        <g id="Grupo_98115" data-name="Grupo 98115" transform="translate(32.596 49.002)">
          <path id="Trazado_142456" data-name="Trazado 142456" d="M379.039,101.859H340.076a8.7,8.7,0,0,1-8.691-8.689v-.131a8.7,8.7,0,0,1,8.691-8.691h38.963a2.272,2.272,0,0,1,0,4.545H340.076a4.151,4.151,0,0,0-4.148,4.146v.131a4.153,4.153,0,0,0,4.148,4.146h38.963a2.271,2.271,0,1,1,0,4.543Z" transform="translate(-331.385 -84.348)" fill="#4396ca"/>
        </g>
        <g id="Grupo_98116" data-name="Grupo 98116" transform="translate(23.784 12.929)">
          <path id="Trazado_142457" data-name="Trazado 142457" d="M340.343,106.2a1.7,1.7,0,0,1-1.63-1.212l-11.9-39.368h66.426l-7.516,39.2a1.7,1.7,0,1,1-3.348-.643l6.739-35.145H331.4l10.573,34.973a1.705,1.705,0,0,1-1.139,2.125A1.682,1.682,0,0,1,340.343,106.2Z" transform="translate(-326.811 -65.624)" fill="#4396ca"/>
        </g>
        <g id="Grupo_98117" data-name="Grupo 98117" transform="translate(10.373 1.137)">
          <path id="Trazado_142458" data-name="Trazado 142458" d="M335.555,74.706a1.706,1.706,0,0,1-1.6-1.133l-3.8-10.662h-8.6a1.7,1.7,0,0,1,0-3.408h11l4.608,12.925a1.705,1.705,0,0,1-1.6,2.277Z" transform="translate(-319.85 -59.503)" fill="#4396ca"/>
        </g>
        <g id="Grupo_98118" data-name="Grupo 98118">
          <path id="Trazado_142459" data-name="Trazado 142459" d="M326.526,64.593h-9.221a2.84,2.84,0,0,1,0-5.68h9.221a2.84,2.84,0,1,1,0,5.68Z" transform="translate(-314.466 -58.913)" fill="#4396ca"/>
        </g>
        <g id="Grupo_98119" data-name="Grupo 98119" transform="translate(32.428 67.956)">
          <path id="Trazado_142460" data-name="Trazado 142460" d="M346.917,102a7.809,7.809,0,1,1-7.81-7.81A7.81,7.81,0,0,1,346.917,102Z" transform="translate(-331.298 -94.186)" fill="#a6e2f7"/>
        </g>
        <g id="Grupo_98120" data-name="Grupo 98120" transform="translate(69.158 67.956)">
          <path id="Trazado_142461" data-name="Trazado 142461" d="M365.982,102a7.809,7.809,0,1,1-7.808-7.81A7.809,7.809,0,0,1,365.982,102Z" transform="translate(-350.363 -94.186)" fill="#a6e2f7"/>
        </g>
        <g id="Grupo_98121" data-name="Grupo 98121" transform="translate(36.593 72.121)">
          <path id="Trazado_142462" data-name="Trazado 142462" d="M340.748,99.993a3.644,3.644,0,1,1-3.645-3.645A3.644,3.644,0,0,1,340.748,99.993Z" transform="translate(-333.46 -96.348)" fill="#fff"/>
        </g>
        <g id="Grupo_98122" data-name="Grupo 98122" transform="translate(73.702 72.121)">
          <circle id="Elipse_4536" data-name="Elipse 4536" cx="3.644" cy="3.644" r="3.644" fill="#fff"/>
        </g>
        <g id="Grupo_98123" data-name="Grupo 98123" transform="translate(37.397 14.326)">
          <path id="Trazado_142463" data-name="Trazado 142463" d="M341.637,104.6a1.7,1.7,0,0,1-1.676-1.412L333.9,68.345a1.7,1.7,0,1,1,3.358-.584l6.059,34.838a1.7,1.7,0,0,1-1.682,2Z" transform="translate(-333.877 -66.349)" fill="#4396ca"/>
        </g>
        <g id="Grupo_98124" data-name="Grupo 98124" transform="translate(49.704 13.947)">
          <path id="Trazado_142464" data-name="Trazado 142464" d="M344.239,104.02a1.705,1.705,0,0,1-1.7-1.591l-2.271-34.461a1.7,1.7,0,0,1,3.4-.223l2.271,34.459a1.7,1.7,0,0,1-1.588,1.813C344.315,104.018,344.278,104.02,344.239,104.02Z" transform="translate(-340.265 -66.152)" fill="#4396ca"/>
        </g>
        <g id="Grupo_98125" data-name="Grupo 98125" transform="translate(69.773 14.327)">
          <path id="Trazado_142465" data-name="Trazado 142465" d="M352.389,104.595a1.814,1.814,0,0,1-.268-.021,1.7,1.7,0,0,1-1.418-1.948l5.491-34.838a1.7,1.7,0,0,1,3.368.532l-5.493,34.836A1.7,1.7,0,0,1,352.389,104.595Z" transform="translate(-350.682 -66.349)" fill="#4396ca"/>
        </g>
        <g id="Grupo_98126" data-name="Grupo 98126" transform="translate(60.685 13.947)">
          <path id="Trazado_142466" data-name="Trazado 142466" d="M347.67,104.02c-.029,0-.056,0-.085,0a1.7,1.7,0,0,1-1.618-1.786l1.705-34.461a1.7,1.7,0,0,1,3.4.17l-1.7,34.459A1.706,1.706,0,0,1,347.67,104.02Z" transform="translate(-345.965 -66.152)" fill="#4396ca"/>
        </g>
        <g id="Grupo_98127" data-name="Grupo 98127" transform="translate(28.12 24.93)">
          <path id="Trazado_142467" data-name="Trazado 142467" d="M385.293,75.261H330.765a1.7,1.7,0,0,1,0-3.408h54.528a1.7,1.7,0,1,1,0,3.408Z" transform="translate(-329.062 -71.853)" fill="#4396ca"/>
        </g>
        <g id="Grupo_98128" data-name="Grupo 98128" transform="translate(32.663 37.046)">
          <path id="Trazado_142468" data-name="Trazado 142468" d="M381.214,81.55H333.125a1.7,1.7,0,1,1,0-3.408h48.089a1.7,1.7,0,1,1,0,3.408Z" transform="translate(-331.42 -78.142)" fill="#4396ca"/>
        </g>
      </g>
      <g id="Grupo_98130" data-name="Grupo 98130" transform="translate(1.67 96.356)">
        <path id="Trazado_142469" data-name="Trazado 142469" d="M297.466,57.464s6.342-2.083,6.342-1.42-2.782,12.124,5.965,13.821c8.047,1.562,14.941-9.417,17.609-10.128,2.84-.757,7.005,0,7.668,1.8s-.948,2.84-2.84,1.894-3.666-1.01-4.356-.474c-.715.557-8.248,14.18-20.637,12.307C300.637,74.267,297.751,66.457,297.466,57.464Z" transform="translate(-297.466 -55.913)" fill="#d8a252"/>
      </g>
      <g id="Grupo_98133" data-name="Grupo 98133" transform="translate(2.787 79.364)">
        <g id="Grupo_98132" data-name="Grupo 98132" clip-path="url(#clip-path)">
          <g id="Grupo_98131" data-name="Grupo 98131" transform="translate(8.014 -6.442)">
            <path id="Trazado_142470" data-name="Trazado 142470" d="M312.519,49.971a5.206,5.206,0,1,1-4.092-6.121A5.206,5.206,0,0,1,312.519,49.971Z" transform="translate(-302.206 -43.75)" fill="#d8a252"/>
          </g>
        </g>
      </g>
      <g id="Grupo_98134" data-name="Grupo 98134" transform="translate(0 82.54)">
        <path id="Trazado_142472" data-name="Trazado 142472" d="M305.218,49.946c3.424,4.025,1.289,16.343,1.289,16.343l-9.908-.43s.048-11.012,1.033-14.513C298.564,48.033,303.779,48.253,305.218,49.946Z" transform="translate(-296.599 -48.742)" fill="#0b465e"/>
      </g>
      <g id="Grupo_98135" data-name="Grupo 98135" transform="translate(6.826 56.849)">
        <path id="Trazado_142473" data-name="Trazado 142473" d="M300.288,49.2c0-2.273-1.514-8.616,5.206-9.847,4.857-.888,5.167.181,7.93-1.04,3.052-1.349,2.025-2.624,2.295-2.84.474-.38,1.514.875,1.894,3.052a5.959,5.959,0,0,1-2.84,6.414c-2.745,1.611-5.679.474-8.616,1.516s-.443,3.953-.378,4.734-1.873,1.63-2.273.189C302.56,47.97,300.288,49.2,300.288,49.2Z" transform="translate(-300.142 -35.407)" fill="#824a07"/>
      </g>
    </g>
  </g>
</svg>
