<svg xmlns="http://www.w3.org/2000/svg" width="274" height="274" viewBox="0 0 274 274">
  <g id="Grupo_98710" data-name="Grupo 98710" transform="translate(2046 -869)">
    <rect id="Rectángulo_32970" data-name="Rectángulo 32970" width="274" height="274" transform="translate(-2046 869)" fill="#d8faeb"/>
    <g id="procesamiento-de-datos" transform="translate(-1991 928.995)">
      <g id="Grupo_98670" data-name="Grupo 98670" transform="translate(3.613 14.065)">
        <g id="Grupo_98660" data-name="Grupo 98660" transform="translate(20.904 0)">
          <path id="Trazado_143294" data-name="Trazado 143294" d="M96.333,84.912a24.651,24.651,0,0,1-1.672-4.024L88.39,79.164V68.712l6.271-1.725a24.651,24.651,0,0,1,1.672-4.024l-3.214-5.644L98.868,51.6l-.026-.026V6H36.13V32.13H10V84.39H41.356a5.241,5.241,0,0,1,5.226,5.226v5.226a5.241,5.241,0,0,1-5.226,5.226V110.52a5.241,5.241,0,0,1,5.226,5.226v5.226a5.241,5.241,0,0,1-5.226,5.226v10.452a5.241,5.241,0,0,1,5.226,5.226V147.1h52.26V96.3l-5.722-5.749Z" transform="translate(-10 -6)" fill="#e6e9ed"/>
        </g>
        <g id="Grupo_98661" data-name="Grupo 98661" transform="translate(57.486 10.452)">
          <path id="Trazado_143295" data-name="Trazado 143295" d="M24,10H65.808V25.678H24Z" transform="translate(-24 -10)" fill="#ff826e"/>
        </g>
        <g id="Grupo_98662" data-name="Grupo 98662" transform="translate(20.904 0)">
          <path id="Trazado_143296" data-name="Trazado 143296" d="M36.13,6V32.13H10Z" transform="translate(-10 -6)" fill="#b4dd7f"/>
        </g>
        <g id="Grupo_98663" data-name="Grupo 98663" transform="translate(67.938 99.294)">
          <path id="Trazado_143297" data-name="Trazado 143297" d="M28,44H59.356V75.356H28Z" transform="translate(-28 -44)" fill="#b3ddff"/>
        </g>
        <g id="Grupo_98664" data-name="Grupo 98664" transform="translate(99.294 39.195)">
          <path id="Trazado_143298" data-name="Trazado 143298" d="M57.768,28.943a24.651,24.651,0,0,1,4.024-1.672L63.517,21H73.969l1.725,6.271a24.652,24.652,0,0,1,4.024,1.672l5.644-3.214,7.395,7.395-3.214,5.644a24.652,24.652,0,0,1,1.672,4.024l6.271,1.725V54.969l-6.271,1.725a24.652,24.652,0,0,1-1.672,4.024l3.214,5.644-7.395,7.395-5.644-3.214a24.651,24.651,0,0,1-4.024,1.672l-1.725,6.271H63.517l-1.725-6.271a24.652,24.652,0,0,1-4.024-1.672l-5.644,3.214L50.452,72.11,44.73,66.361l3.214-5.644a24.651,24.651,0,0,1-1.672-4.024L40,54.969V44.517l6.271-1.725a24.651,24.651,0,0,1,1.672-4.024L44.73,33.124,50.478,27.4l1.646-1.672Zm24.039,20.8A13.065,13.065,0,1,0,68.743,62.808,13.07,13.07,0,0,0,81.808,49.743Z" transform="translate(-40 -21)" fill="#f1d54e"/>
        </g>
        <g id="Grupo_98665" data-name="Grupo 98665" transform="translate(0 130.649)">
          <path id="Trazado_143299" data-name="Trazado 143299" d="M59.486,61.226v5.226a5.241,5.241,0,0,1-5.226,5.226H7.226A5.241,5.241,0,0,1,2,66.452V61.226A5.241,5.241,0,0,1,7.226,56H54.26A5.241,5.241,0,0,1,59.486,61.226Z" transform="translate(-2 -56)" fill="#ea7596"/>
        </g>
        <g id="Grupo_98666" data-name="Grupo 98666" transform="translate(0 104.52)">
          <path id="Trazado_143300" data-name="Trazado 143300" d="M59.486,51.226v5.226a5.241,5.241,0,0,1-5.226,5.226H7.226A5.241,5.241,0,0,1,2,56.452V51.226A5.241,5.241,0,0,1,7.226,46H54.26A5.241,5.241,0,0,1,59.486,51.226Z" transform="translate(-2 -46)" fill="#e8fff5"/>
        </g>
        <g id="Grupo_98667" data-name="Grupo 98667" transform="translate(0 78.39)">
          <path id="Trazado_143301" data-name="Trazado 143301" d="M59.486,41.226v5.226a5.241,5.241,0,0,1-5.226,5.226H7.226A5.241,5.241,0,0,1,2,46.452V41.226A5.241,5.241,0,0,1,7.226,36H54.26A5.241,5.241,0,0,1,59.486,41.226Z" transform="translate(-2 -36)" fill="#ea7596"/>
        </g>
        <g id="Grupo_98668" data-name="Grupo 98668" transform="translate(5.226 94.068)">
          <path id="Trazado_143302" data-name="Trazado 143302" d="M4,42H51.034V52.452H4Z" transform="translate(-4 -42)" fill="#b4dd7f"/>
        </g>
        <g id="Grupo_98669" data-name="Grupo 98669" transform="translate(5.226 120.197)">
          <path id="Trazado_143303" data-name="Trazado 143303" d="M4,52H51.034V62.452H4Z" transform="translate(-4 -52)" fill="#b4dd7f"/>
        </g>
      </g>
      <g id="Grupo_98671" data-name="Grupo 98671" transform="translate(1 1)">
        <path id="Trazado_143304" data-name="Trazado 143304" d="M60.678,26A15.678,15.678,0,1,0,76.356,41.678,15.694,15.694,0,0,0,60.678,26Zm0,26.13A10.452,10.452,0,1,1,71.13,41.678,10.462,10.462,0,0,1,60.678,52.13Z" transform="translate(69.971 39.325)" fill="#0a5936"/>
        <path id="Trazado_143305" data-name="Trazado 143305" d="M10.226,14.065a7.849,7.849,0,0,1,7.839-7.839h96.681a7.849,7.849,0,0,1,7.839,7.839V34.177l-5.665-8.5-4.348,2.9L125.2,47.519,137.823,28.58l-4.348-2.9-5.665,8.495V14.065A13.08,13.08,0,0,0,114.745,1H18.065A13.08,13.08,0,0,0,5,14.065V27.13h5.226Z" transform="translate(5.452 -1)" fill="#0a5936"/>
        <path id="Trazado_143306" data-name="Trazado 143306" d="M5,13h5.226v5.226H5Z" transform="translate(5.452 18.356)" fill="#0a5936"/>
        <path id="Trazado_143307" data-name="Trazado 143307" d="M5,17h5.226v5.226H5Z" transform="translate(5.452 24.808)" fill="#0a5936"/>
        <path id="Trazado_143308" data-name="Trazado 143308" d="M70.034,9H23V29.9H70.034ZM64.808,24.678H28.226V14.226H64.808Z" transform="translate(34.486 11.904)" fill="#0a5936"/>
        <path id="Trazado_143309" data-name="Trazado 143309" d="M163.005,82.773V68.331l-6.859-1.876c-.225-.6-.473-1.2-.747-1.79l3.528-6.182L148.715,48.271,142.533,51.8c-.593-.272-1.189-.523-1.79-.747l-1.874-6.856H124.43l-1.876,6.859c-.6.225-1.2.473-1.79.747l-4.792-2.736V5H49.565L21.9,32.661V83.39H8.839A7.849,7.849,0,0,0,1,91.229v5.226a7.828,7.828,0,0,0,5.226,7.358V110A7.822,7.822,0,0,0,1,117.358v5.226a7.828,7.828,0,0,0,5.226,7.358v6.19A7.822,7.822,0,0,0,1,143.488v5.226a7.849,7.849,0,0,0,7.839,7.839H55.873a7.828,7.828,0,0,0,7.358-5.226h52.741V102.036l4.792-2.736c.591.272,1.189.523,1.79.747l1.876,6.859h14.439l1.876-6.859c.6-.225,1.2-.476,1.79-.747l6.18,3.53,10.212-10.209L155.4,86.436c.272-.593.523-1.189.747-1.787ZM48.034,13.921V31.13H30.825ZM6.226,91.229a2.616,2.616,0,0,1,2.613-2.613H55.873a2.616,2.616,0,0,1,2.613,2.613v5.226a2.616,2.616,0,0,1-2.613,2.613H8.839a2.616,2.616,0,0,1-2.613-2.613ZM53.26,104.294v5.226H11.452v-5.226ZM6.226,117.358a2.616,2.616,0,0,1,2.613-2.613H55.873a2.616,2.616,0,0,1,2.613,2.613v5.226a2.616,2.616,0,0,1-2.613,2.613H8.839a2.616,2.616,0,0,1-2.613-2.613ZM53.26,130.423v5.226H11.452v-5.226Zm5.226,18.291a2.616,2.616,0,0,1-2.613,2.613H8.839a2.616,2.616,0,0,1-2.613-2.613v-5.226a2.616,2.616,0,0,1,2.613-2.613H55.873a2.616,2.616,0,0,1,2.613,2.613Zm5.226-2.613v-2.613a7.828,7.828,0,0,0-5.226-7.358v-6.19a7.828,7.828,0,0,0,5.226-7.358v-5.226A7.828,7.828,0,0,0,58.486,110v-6.19a7.828,7.828,0,0,0,5.226-7.358V91.223a7.849,7.849,0,0,0-7.839-7.839H27.13V36.356H53.26V10.226h57.486V52.112l-6.373,6.373,3.528,6.182c-.272.593-.523,1.189-.747,1.79l-6.859,1.874V82.773l6.859,1.876q.337.9.747,1.787l-3.528,6.185,6.373,6.37V146.1Zm88.7-54.361-4.573,4.57-5.171-2.953-1.27.674a20.716,20.716,0,0,1-3.577,1.495l-1.372.421-1.568,5.733h-6.465l-1.568-5.73-1.372-.421a20.923,20.923,0,0,1-3.577-1.495l-1.27-.674-5.171,2.953-4.573-4.57,2.95-5.171-.669-1.267a20.919,20.919,0,0,1-1.495-3.582l-.423-1.369-5.73-1.573V72.318l5.73-1.568.423-1.372a20.747,20.747,0,0,1,1.495-3.582l.669-1.27-2.95-5.171,4.573-4.573,5.171,2.95,1.27-.669a20.868,20.868,0,0,1,3.582-1.495l1.372-.423,1.568-5.73h6.465l1.568,5.73,1.372.423a20.746,20.746,0,0,1,3.582,1.495l1.27.669,5.171-2.95,4.573,4.573-2.95,5.171.669,1.27a20.866,20.866,0,0,1,1.495,3.582l.423,1.372,5.73,1.568V78.78l-5.73,1.57-.423,1.369a20.917,20.917,0,0,1-1.495,3.582l-.669,1.267Z" transform="translate(-1 5.452)" fill="#0a5936"/>
        <path id="Trazado_143310" data-name="Trazado 143310" d="M13,19h5.226v5.226H13Z" transform="translate(18.356 28.034)" fill="#0a5936"/>
        <path id="Trazado_143311" data-name="Trazado 143311" d="M17,19H79.712v5.226H17Z" transform="translate(24.808 28.034)" fill="#0a5936"/>
        <path id="Trazado_143312" data-name="Trazado 143312" d="M13,23H80.938v5.226H13Z" transform="translate(18.356 34.486)" fill="#0a5936"/>
        <path id="Trazado_143313" data-name="Trazado 143313" d="M13,27H80.938v5.226H13Z" transform="translate(18.356 40.938)" fill="#0a5936"/>
        <path id="Trazado_143314" data-name="Trazado 143314" d="M13,31H54.808v5.226H13Z" transform="translate(18.356 47.39)" fill="#0a5936"/>
        <path id="Trazado_143315" data-name="Trazado 143315" d="M31,31h5.226v5.226H31Z" transform="translate(47.39 47.39)" fill="#0a5936"/>
        <path id="Trazado_143316" data-name="Trazado 143316" d="M35,31h5.226v5.226H35Z" transform="translate(53.842 47.39)" fill="#0a5936"/>
        <path id="Trazado_143317" data-name="Trazado 143317" d="M27,79.582H63.582V43H27Zm5.226-31.356h26.13v26.13H32.226Z" transform="translate(40.938 66.745)" fill="#0a5936"/>
        <path id="Trazado_143318" data-name="Trazado 143318" d="M27,39H58.356v5.226H27Z" transform="translate(40.938 60.294)" fill="#0a5936"/>
      </g>
    </g>
  </g>
</svg>
