<svg xmlns="http://www.w3.org/2000/svg" width="128" height="129" viewBox="0 0 128 129">
  <g id="Grupo_98695" data-name="Grupo 98695" transform="translate(-708 -14092)">
    <g id="Elipse_4454" data-name="Elipse 4454" transform="translate(708 14092)" fill="#fff" stroke="#0a5936" stroke-width="3">
      <ellipse cx="64" cy="64.5" rx="64" ry="64.5" stroke="none"/>
      <ellipse cx="64" cy="64.5" rx="62.5" ry="63" fill="none"/>
    </g>
    <g id="lista-de-la-compra" transform="translate(680.39 14115)">
      <g id="Grupo_98687" data-name="Grupo 98687" transform="translate(67.007 66.761)">
        <path id="Trazado_143350" data-name="Trazado 143350" d="M100.435,415.606h55.171v14.28H100.435Z" transform="translate(-100.435 -415.606)" fill="#bed8fb"/>
      </g>
      <g id="Grupo_98688" data-name="Grupo 98688" transform="translate(67.007 16.783)">
        <path id="Trazado_143351" data-name="Trazado 143351" d="M100.435,104.476v58.092h49.979a5.193,5.193,0,0,0,5.193-5.193v-52.9Z" transform="translate(-100.435 -104.476)" fill="#f9f6f6"/>
      </g>
      <g id="Grupo_98689" data-name="Grupo 98689" transform="translate(112.767 16.783)">
        <path id="Trazado_143352" data-name="Trazado 143352" d="M390.494,104.476v52.9a5.193,5.193,0,0,1-5.193,5.193h4.219a5.193,5.193,0,0,0,5.193-5.193v-52.9Z" transform="translate(-385.301 -104.476)" fill="#dddaec"/>
      </g>
      <g id="Grupo_98690" data-name="Grupo 98690" transform="translate(67.007 6.397)">
        <path id="Trazado_143353" data-name="Trazado 143353" d="M100.435,39.825h55.171V50.21H100.435Z" transform="translate(-100.435 -39.825)" fill="#f1d54e"/>
      </g>
      <g id="Grupo_98691" data-name="Grupo 98691" transform="translate(117.96 6.397)">
        <path id="Trazado_143354" data-name="Trazado 143354" d="M417.626,39.825h4.219V50.21h-4.219Z" transform="translate(-417.626 -39.825)" fill="#dab46b"/>
      </g>
      <g id="Grupo_98692" data-name="Grupo 98692" transform="translate(61.815 69.682)">
        <path id="Trazado_143355" data-name="Trazado 143355" d="M68.11,433.789a5.192,5.192,0,0,0,5.193,5.193h49.979a5.193,5.193,0,0,1-5.193-5.193Z" transform="translate(-68.11 -433.789)" fill="#b1e4f9"/>
      </g>
      <g id="Grupo_98693" data-name="Grupo 98693" transform="translate(76.744 21.975)">
        <path id="Trazado_143356" data-name="Trazado 143356" d="M161.045,136.8h35.7v5.193h-35.7Z" transform="translate(-161.045 -136.801)" fill="#f1d54e"/>
      </g>
      <g id="Grupo_98694" data-name="Grupo 98694" transform="translate(60.61)">
        <path id="Trazado_143357" data-name="Trazado 143357" d="M122.179,152.27a1.2,1.2,0,0,0-1.2,1.2v44.017h0a3.988,3.988,0,0,1-7.976,0,1.2,1.2,0,0,0-1.2-1.2H68.211v-12.7a1.2,1.2,0,1,0-2.41,0v12.7H61.815a1.2,1.2,0,0,0-1.2,1.2,6.406,6.406,0,0,0,5.193,6.281v5.077a1.2,1.2,0,0,0,1.2,1.2h55.171a1.2,1.2,0,0,0,1.2-1.2V153.475a1.2,1.2,0,0,0-1.2-1.2ZM68.212,207.646v-3.757H98.435a1.2,1.2,0,1,0,0-2.41H67.007a3.994,3.994,0,0,1-3.8-2.782h47.5a6.375,6.375,0,0,0,1.284,2.782h-7.93a1.2,1.2,0,1,0,0,2.41h12.93a6.363,6.363,0,0,0,3.987-1.4v5.157Z" transform="translate(-60.61 -127.81)" fill="#0a5936"/>
        <path id="Trazado_143358" data-name="Trazado 143358" d="M150.512,6.4a1.2,1.2,0,0,0-1.2-1.2h-6.7a6.4,6.4,0,0,0-12.564,0H128a6.4,6.4,0,0,0-12.564,0H113.4a6.4,6.4,0,0,0-12.564,0h-6.7a1.2,1.2,0,0,0-1.2,1.2v43.76a1.2,1.2,0,0,0,2.41,0V17.988H148.1v2.055a1.2,1.2,0,0,0,2.41,0ZM136.326,2.41a4,4,0,0,1,3.8,2.783h-7.6A4,4,0,0,1,136.326,2.41Zm-14.6,0a4,4,0,0,1,3.8,2.783h-7.6A4,4,0,0,1,121.721,2.41Zm-14.6,0a4,4,0,0,1,3.8,2.783h-7.6A4,4,0,0,1,107.117,2.41ZM95.34,7.6h5.495a6.407,6.407,0,0,0,6.282,5.193,1.2,1.2,0,1,0,0-2.41,4,4,0,0,1-3.8-2.783h12.124a6.407,6.407,0,0,0,6.282,5.193,1.2,1.2,0,1,0,0-2.41,4,4,0,0,1-3.8-2.783h12.124a6.407,6.407,0,0,0,6.282,5.193,1.2,1.2,0,1,0,0-2.41,4,4,0,0,1-3.8-2.783H148.1v7.976H95.34Z" transform="translate(-87.738)" fill="#0a5936"/>
        <path id="Trazado_143359" data-name="Trazado 143359" d="M190.449,129.3h-35.7a1.2,1.2,0,0,0-1.2,1.2V135.7a1.2,1.2,0,0,0,1.2,1.2h35.7a1.2,1.2,0,0,0,1.2-1.2v-5.193A1.2,1.2,0,0,0,190.449,129.3Zm-1.2,5.193h-33.29v-2.783h33.29Z" transform="translate(-138.616 -108.531)" fill="#0a5936"/>
        <path id="Trazado_143360" data-name="Trazado 143360" d="M235.8,205.063H206.268a1.2,1.2,0,0,0,0,2.41H235.8a1.2,1.2,0,0,0,0-2.41Z" transform="translate(-181.859 -172.122)" fill="#0a5936"/>
        <path id="Trazado_143361" data-name="Trazado 143361" d="M206.268,239.8h16.227a1.2,1.2,0,1,0,0-2.41H206.268a1.2,1.2,0,1,0,0,2.41Z" transform="translate(-181.859 -199.255)" fill="#0a5936"/>
        <path id="Trazado_143362" data-name="Trazado 143362" d="M140.823,208.437a1.2,1.2,0,0,0-.112,1.7l1.855,2.115a1.2,1.2,0,0,0,.906.411q.045,0,.089,0a1.2,1.2,0,0,0,.924-.55l3.338-5.193a1.2,1.2,0,1,0-2.027-1.3l-2.473,3.847-.8-.913A1.2,1.2,0,0,0,140.823,208.437Z" transform="translate(-127.594 -172.12)" fill="#0a5936"/>
        <path id="Trazado_143363" data-name="Trazado 143363" d="M235.8,279.815H206.268a1.2,1.2,0,1,0,0,2.41H235.8a1.2,1.2,0,0,0,0-2.41Z" transform="translate(-181.859 -234.867)" fill="#0a5936"/>
        <path id="Trazado_143364" data-name="Trazado 143364" d="M206.268,314.55h16.227a1.2,1.2,0,1,0,0-2.41H206.268a1.2,1.2,0,1,0,0,2.41Z" transform="translate(-181.859 -261.999)" fill="#0a5936"/>
        <path id="Trazado_143365" data-name="Trazado 143365" d="M140.711,284.89l1.855,2.115a1.2,1.2,0,0,0,.906.411q.045,0,.089,0a1.2,1.2,0,0,0,.924-.55l3.338-5.193a1.2,1.2,0,1,0-2.027-1.3l-2.473,3.847-.8-.913a1.2,1.2,0,0,0-1.812,1.589Z" transform="translate(-127.593 -234.865)" fill="#0a5936"/>
        <path id="Trazado_143366" data-name="Trazado 143366" d="M237.006,355.772a1.2,1.2,0,0,0-1.2-1.2H206.268a1.2,1.2,0,1,0,0,2.41H235.8A1.2,1.2,0,0,0,237.006,355.772Z" transform="translate(-181.859 -297.611)" fill="#0a5936"/>
        <path id="Trazado_143367" data-name="Trazado 143367" d="M206.268,386.892a1.2,1.2,0,1,0,0,2.41h16.227a1.2,1.2,0,1,0,0-2.41Z" transform="translate(-181.859 -324.743)" fill="#0a5936"/>
        <path id="Trazado_143368" data-name="Trazado 143368" d="M140.711,359.642l1.855,2.115a1.2,1.2,0,0,0,.906.411q.045,0,.089,0a1.2,1.2,0,0,0,.924-.55l3.338-5.193a1.2,1.2,0,1,0-2.027-1.3l-2.473,3.847-.8-.913a1.2,1.2,0,1,0-1.812,1.589Z" transform="translate(-127.593 -297.609)" fill="#0a5936"/>
      </g>
    </g>
  </g>
</svg>
