<svg xmlns="http://www.w3.org/2000/svg" width="128" height="129" viewBox="0 0 128 129">
  <g id="Grupo_99307" data-name="Grupo 99307" transform="translate(-736 -14306)">
    <g id="Elipse_4454" data-name="Elipse 4454" transform="translate(736 14306)" fill="#fff" stroke="#0a5936" stroke-width="3">
      <ellipse cx="64" cy="64.5" rx="64" ry="64.5" stroke="none"/>
      <ellipse cx="64" cy="64.5" rx="62.5" ry="63" fill="none"/>
    </g>
    <g id="control-system" transform="translate(757.5 14328)">
      <g id="Grupo_98696" data-name="Grupo 98696" transform="translate(1.242 1.242)">
        <path id="Trazado_143369" data-name="Trazado 143369" d="M90,54.219V43.26a1.414,1.414,0,0,0-1.414-1.414h-5.1A1.417,1.417,0,0,1,82.1,40.765,34.089,34.089,0,0,0,77.97,30.8a1.416,1.416,0,0,1,.2-1.745l3.616-3.616a1.414,1.414,0,0,0,0-2l-7.749-7.749a1.414,1.414,0,0,0-2,0l-3.616,3.616a1.415,1.415,0,0,1-1.745.2,34.086,34.086,0,0,0-9.964-4.131A1.417,1.417,0,0,1,55.631,14V8.9a1.414,1.414,0,0,0-1.414-1.414H43.259A1.414,1.414,0,0,0,41.846,8.9V14a1.417,1.417,0,0,1-1.082,1.382A34.093,34.093,0,0,0,30.8,19.508a1.416,1.416,0,0,1-1.745-.2l-3.616-3.616a1.414,1.414,0,0,0-2,0L15.691,23.44a1.414,1.414,0,0,0,0,2l3.616,3.616a1.415,1.415,0,0,1,.2,1.745,34.088,34.088,0,0,0-4.131,9.964,1.417,1.417,0,0,1-1.382,1.082h-5.1A1.414,1.414,0,0,0,7.481,43.26V54.219a1.414,1.414,0,0,0,1.414,1.414h5.1a1.417,1.417,0,0,1,1.382,1.082,34.088,34.088,0,0,0,4.131,9.964,1.416,1.416,0,0,1-.2,1.745l-3.616,3.616a1.414,1.414,0,0,0,0,2l7.749,7.749a1.414,1.414,0,0,0,2,0l3.616-3.616a1.415,1.415,0,0,1,1.745-.2A34.088,34.088,0,0,0,40.764,82.1a1.417,1.417,0,0,1,1.082,1.382v5.1A1.414,1.414,0,0,0,43.259,90H54.218a1.414,1.414,0,0,0,1.414-1.414v-5.1A1.417,1.417,0,0,1,56.713,82.1a34.093,34.093,0,0,0,9.964-4.131,1.416,1.416,0,0,1,1.745.2l3.616,3.616a1.414,1.414,0,0,0,2,0l7.749-7.749a1.414,1.414,0,0,0,0-2L78.17,68.423a1.415,1.415,0,0,1-.2-1.745A34.088,34.088,0,0,0,82.1,56.714a1.417,1.417,0,0,1,1.382-1.082h5.1A1.414,1.414,0,0,0,90,54.219Z" transform="translate(-7.481 -7.482)" fill="#f1d54e"/>
      </g>
      <g id="Grupo_98697" data-name="Grupo 98697" transform="translate(44.666 70.669)">
        <path id="Trazado_143370" data-name="Trazado 143370" d="M282.709,426.06l1.036,1.314a34.054,34.054,0,0,1-8.887,3.5,1.417,1.417,0,0,0-1.082,1.382v5.1a1.413,1.413,0,0,1-1.413,1.413h-3.313a1.413,1.413,0,0,0,1.413-1.413v-6.658a1.418,1.418,0,0,1,1.082-1.381,47.879,47.879,0,0,0,9.418-3.454A1.514,1.514,0,0,1,282.709,426.06Z" transform="translate(-269.051 -425.677)" fill="#fb9e36"/>
      </g>
      <g id="Grupo_98698" data-name="Grupo 98698" transform="translate(44.666 1.243)">
        <path id="Trazado_143371" data-name="Trazado 143371" d="M274.858,15.379a37.417,37.417,0,0,1,9.524,3.865l-.929,1.447a1.417,1.417,0,0,1-1.746.2,43.748,43.748,0,0,0-10.162-4.229,1.47,1.47,0,0,1-1.082-1.383V8.9a1.413,1.413,0,0,0-1.413-1.413h3.313A1.413,1.413,0,0,1,273.776,8.9V14A1.417,1.417,0,0,0,274.858,15.379Z" transform="translate(-269.05 -7.485)" fill="#fb9e36"/>
      </g>
      <g id="Grupo_98699" data-name="Grupo 98699" transform="translate(65.143 49.392)">
        <path id="Trazado_143372" data-name="Trazado 143372" d="M401.182,297.517H404.5a1.417,1.417,0,0,0-1.381,1.082,34.125,34.125,0,0,1-4.131,9.965,1.413,1.413,0,0,0,.2,1.744l3.616,3.616a1.414,1.414,0,0,1,0,2l-7.749,7.749a1.414,1.414,0,0,1-2,0l-.656-.656,7.091-7.093a1.415,1.415,0,0,0,0-2l-3.616-3.616a1.413,1.413,0,0,1-.2-1.744A34.116,34.116,0,0,0,399.8,298.6,1.417,1.417,0,0,1,401.182,297.517Z" transform="translate(-392.395 -297.517)" fill="#fb9e36"/>
      </g>
      <g id="Grupo_98700" data-name="Grupo 98700" transform="translate(65.143 9.038)">
        <path id="Trazado_143373" data-name="Trazado 143373" d="M404.5,81.012h-3.313A1.417,1.417,0,0,1,399.8,79.93a34.125,34.125,0,0,0-4.131-9.965,1.413,1.413,0,0,1,.2-1.744l3.616-3.616a1.415,1.415,0,0,0,0-2L392.4,55.514l.656-.658a1.415,1.415,0,0,1,2,0l7.749,7.749a1.415,1.415,0,0,1,0,2l-3.616,3.616a1.413,1.413,0,0,0-.2,1.744,34.114,34.114,0,0,1,4.131,9.965A1.417,1.417,0,0,0,404.5,81.012Z" transform="translate(-392.396 -54.443)" fill="#fb9e36"/>
      </g>
      <g id="Grupo_98701" data-name="Grupo 98701" transform="translate(79.031 35.607)">
        <path id="Trazado_143374" data-name="Trazado 143374" d="M480.775,215.9v10.959a1.413,1.413,0,0,1-1.413,1.413h-3.313a1.413,1.413,0,0,0,1.413-1.413V215.9a1.413,1.413,0,0,0-1.413-1.413h3.313A1.413,1.413,0,0,1,480.775,215.9Z" transform="translate(-476.049 -214.483)" fill="#fb9e36"/>
      </g>
      <g id="Grupo_98702" data-name="Grupo 98702" transform="translate(17.101 17.101)">
        <circle id="Elipse_4592" data-name="Elipse 4592" cx="25.399" cy="25.399" r="25.399" fill="#faf7f7"/>
      </g>
      <g id="Grupo_98703" data-name="Grupo 98703" transform="translate(31.504 18.245)">
        <path id="Trazado_143375" data-name="Trazado 143375" d="M226.162,134.152a25.408,25.408,0,0,1-36.394,22.9A25.4,25.4,0,0,0,208.319,109.9,25.409,25.409,0,0,1,226.162,134.152Z" transform="translate(-189.768 -109.897)" fill="#ede1dd"/>
      </g>
      <g id="Grupo_98705" data-name="Grupo 98705" transform="translate(27.994 30.844)">
        <g id="Grupo_98704" data-name="Grupo 98704">
          <path id="Trazado_143376" data-name="Trazado 143376" d="M179.6,209.1a4.118,4.118,0,0,1-2.862-1.157l-6.859-6.629a4.118,4.118,0,1,1,5.724-5.923l3.829,3.7,11.059-11.978a4.118,4.118,0,1,1,6.052,5.587l-13.917,15.074a4.118,4.118,0,0,1-2.909,1.323l-.117,0Z" transform="translate(-168.621 -185.792)" fill="#5cd8a0"/>
        </g>
      </g>
      <g id="Grupo_98707" data-name="Grupo 98707" transform="translate(35.592 30.925)">
        <g id="Grupo_98706" data-name="Grupo 98706">
          <path id="Trazado_143377" data-name="Trazado 143377" d="M234.714,193.109,220.8,208.182a4.121,4.121,0,0,1-2.909,1.322c-.04,0-.078,0-.118,0a4.125,4.125,0,0,1-2.862-1.156l-.515-.5a4.34,4.34,0,0,0,2.485-1.338l14.689-15.91a4.344,4.344,0,0,0,.929-4.327,4.118,4.118,0,0,1,2.218,6.833Z" transform="translate(-214.393 -186.276)" fill="#5cb78e"/>
        </g>
      </g>
      <g id="Grupo_98708" data-name="Grupo 98708" transform="translate(0 0)">
        <path id="Trazado_143378" data-name="Trazado 143378" d="M82.343,34.365h-5.1a.176.176,0,0,1-.173-.128A35.288,35.288,0,0,0,72.789,23.91a.174.174,0,0,1,.021-.215l3.616-3.616a2.656,2.656,0,0,0,0-3.756L68.677,8.574a2.656,2.656,0,0,0-3.756,0l-3.616,3.616a.174.174,0,0,1-.215.021A35.288,35.288,0,0,0,50.762,7.929a.176.176,0,0,1-.128-.173v-5.1A2.659,2.659,0,0,0,47.979,0H37.021a2.659,2.659,0,0,0-2.656,2.656v5.1a.175.175,0,0,1-.128.173A35.292,35.292,0,0,0,23.909,12.21a.173.173,0,0,1-.215-.021L20.078,8.573a2.656,2.656,0,0,0-3.756,0L8.574,16.322a2.656,2.656,0,0,0,0,3.756l3.616,3.616a.174.174,0,0,1,.021.215A35.288,35.288,0,0,0,7.929,34.237a.176.176,0,0,1-.173.128h-5.1A2.659,2.659,0,0,0,0,37.021V47.979a2.659,2.659,0,0,0,2.656,2.656h5.1a.176.176,0,0,1,.173.128A35.288,35.288,0,0,0,12.21,61.09a.174.174,0,0,1-.021.215L8.574,64.922a2.656,2.656,0,0,0,0,3.756l7.749,7.748a2.656,2.656,0,0,0,3.756,0l3.616-3.616a.173.173,0,0,1,.215-.021,35.291,35.291,0,0,0,10.328,4.281.175.175,0,0,1,.127.173v5.1A2.659,2.659,0,0,0,37.021,85H47.979a2.659,2.659,0,0,0,2.656-2.656v-5.1a.176.176,0,0,1,.128-.173A35.3,35.3,0,0,0,61.09,72.79a.173.173,0,0,1,.215.021l3.616,3.616a2.656,2.656,0,0,0,3.756,0L70.505,74.6a1.242,1.242,0,0,0-1.757-1.757l-1.828,1.828a.171.171,0,0,1-.242,0l-3.616-3.616a2.651,2.651,0,0,0-3.274-.38,32.811,32.811,0,0,1-9.6,3.981,2.649,2.649,0,0,0-2.037,2.59v5.1a.172.172,0,0,1-.171.171H37.021a.172.172,0,0,1-.171-.171v-5.1a2.649,2.649,0,0,0-2.037-2.59,32.809,32.809,0,0,1-9.6-3.981,2.651,2.651,0,0,0-3.274.38l-3.616,3.616a.171.171,0,0,1-.242,0L10.33,66.921a.171.171,0,0,1,0-.242l3.616-3.616a2.651,2.651,0,0,0,.38-3.274,32.8,32.8,0,0,1-3.981-9.6,2.65,2.65,0,0,0-2.59-2.037h-5.1a.172.172,0,0,1-.171-.171V37.021a.172.172,0,0,1,.171-.171h5.1a2.649,2.649,0,0,0,2.59-2.037,32.8,32.8,0,0,1,3.981-9.6,2.651,2.651,0,0,0-.38-3.274l-3.616-3.616a.171.171,0,0,1,0-.242l7.749-7.749a.171.171,0,0,1,.242,0l3.616,3.616a2.651,2.651,0,0,0,3.274.38,32.8,32.8,0,0,1,9.6-3.981,2.65,2.65,0,0,0,2.037-2.59v-5.1a.172.172,0,0,1,.171-.171H47.979a.172.172,0,0,1,.171.171v5.1a2.649,2.649,0,0,0,2.036,2.59,32.8,32.8,0,0,1,9.6,3.981,2.651,2.651,0,0,0,3.274-.38l3.616-3.616a.171.171,0,0,1,.242,0l7.749,7.749a.171.171,0,0,1,0,.242l-3.616,3.616a2.651,2.651,0,0,0-.38,3.274,32.8,32.8,0,0,1,3.981,9.6,2.65,2.65,0,0,0,2.59,2.037h5.1a.172.172,0,0,1,.171.171V47.979a.172.172,0,0,1-.171.171h-5.1a2.649,2.649,0,0,0-2.59,2.036,32.8,32.8,0,0,1-3.981,9.6,2.651,2.651,0,0,0,.38,3.274l3.616,3.616a.171.171,0,0,1,0,.242l-1.849,1.849a1.242,1.242,0,0,0,1.757,1.757l1.849-1.849a2.656,2.656,0,0,0,0-3.756L72.81,61.305a.174.174,0,0,1-.021-.215,35.288,35.288,0,0,0,4.281-10.327.176.176,0,0,1,.173-.128h5.1A2.659,2.659,0,0,0,85,47.979V37.021a2.66,2.66,0,0,0-2.657-2.656Z" transform="translate(0 0)" fill="#0a5936"/>
        <path id="Trazado_143379" data-name="Trazado 143379" d="M97.222,117.19a1.241,1.241,0,0,0-1.411,1.047,26.643,26.643,0,1,0,26.354-22.713,26.65,26.65,0,0,0-24.764,16.8l-.05.127a1.242,1.242,0,1,0,2.311.912l.049-.124a24.172,24.172,0,1,1-1.7,8.927,24.469,24.469,0,0,1,.261-3.565A1.242,1.242,0,0,0,97.222,117.19Z" transform="translate(-79.666 -79.666)" fill="#0a5936"/>
        <path id="Trazado_143380" data-name="Trazado 143380" d="M173.369,204.119l.153,0a5.392,5.392,0,0,0,3.786-1.722l13.917-15.074a5.361,5.361,0,1,0-7.877-7.273l-10.2,11.044-2.915-2.817a5.361,5.361,0,0,0-7.451,7.709l6.859,6.629a5.334,5.334,0,0,0,3.725,1.506Zm-8.927-13.988a2.88,2.88,0,0,1,4.067-.069l3.829,3.7a1.242,1.242,0,0,0,1.776-.05l11.059-11.978a2.876,2.876,0,1,1,4.226,3.9L175.482,200.71a2.876,2.876,0,0,1-4.112.117l-6.858-6.629a2.88,2.88,0,0,1-.069-4.067Z" transform="translate(-134.399 -148.722)" fill="#0a5936"/>
      </g>
    </g>
  </g>
</svg>
