<svg xmlns="http://www.w3.org/2000/svg" width="128" height="129" viewBox="0 0 128 129">
  <g id="Grupo_98709" data-name="Grupo 98709" transform="translate(-736 -14411)">
    <g id="Elipse_4593" data-name="Elipse 4593" transform="translate(736 14411)" fill="#fff" stroke="#0a5936" stroke-width="3">
      <ellipse cx="64" cy="64.5" rx="64" ry="64.5" stroke="none"/>
      <ellipse cx="64" cy="64.5" rx="62.5" ry="63" fill="none"/>
    </g>
    <g id="retroalimentacion" transform="translate(755.348 14431.84)">
      <path id="Trazado_143381" data-name="Trazado 143381" d="M285.3,148.99H260.584A4.584,4.584,0,0,0,256,153.574h0v31.4h0a4.584,4.584,0,0,1,4.584-4.584H285.3Z" transform="translate(-211.348 -122.995)" fill="#ffefd5"/>
      <path id="Trazado_143382" data-name="Trazado 143382" d="M88,148.99h24.719a4.584,4.584,0,0,1,4.584,4.584h0v31.4h0a4.584,4.584,0,0,0-4.584-4.584H88Z" transform="translate(-72.651 -122.995)" fill="#5cd8a0"/>
      <rect id="Rectángulo_33458" data-name="Rectángulo 33458" width="58.606" height="6.804" transform="translate(15.349 57.391)" fill="#f1d54e"/>
      <circle id="Elipse_4594" data-name="Elipse 4594" cx="13.954" cy="13.954" r="13.954" transform="translate(59.647 50.242)" fill="#fff"/>
      <path id="Trazado_143383" data-name="Trazado 143383" d="M384.879,396.731v-.493a4.339,4.339,0,0,0-3.544-4.266l-2.518-.47-7.742,0-2.528.471A4.339,4.339,0,0,0,365,396.238v.493l9.941,4.626Z" transform="translate(-301.339 -323.206)" fill="#d2f6e6"/>
      <path id="Trazado_143384" data-name="Trazado 143384" d="M399.579,330.167h0a4.732,4.732,0,0,1,4.732,4.732v3.079a4.732,4.732,0,0,1-4.732,4.732h0a4.732,4.732,0,0,1-4.732-4.732V334.9A4.732,4.732,0,0,1,399.579,330.167Z" transform="translate(-325.977 -272.57)" fill="#ffcdac"/>
      <circle id="Elipse_4595" data-name="Elipse 4595" cx="13.954" cy="13.954" r="13.954" transform="translate(1.744 8.74)" fill="#ffefd5"/>
      <path id="Trazado_143385" data-name="Trazado 143385" d="M52.9,158.783v-.493a4.339,4.339,0,0,0-3.544-4.266l-2.518-.47-7.742,0-2.528.471a4.339,4.339,0,0,0-3.544,4.266v.493l9.941,4.626Z" transform="translate(-27.269 -126.762)" fill="#f1d54e"/>
      <path id="Trazado_143386" data-name="Trazado 143386" d="M67.605,92.219h0a4.732,4.732,0,0,1,4.732,4.732v3.079a4.732,4.732,0,0,1-4.732,4.732h0a4.732,4.732,0,0,1-4.732-4.732V96.951A4.732,4.732,0,0,1,67.605,92.219Z" transform="translate(-51.907 -76.126)" fill="#ffcdac"/>
      <path id="Trazado_143387" data-name="Trazado 143387" d="M55.887,287.357a41.173,41.173,0,0,1-52.4-39.609,1.744,1.744,0,1,0-3.488,0,44.685,44.685,0,0,0,56.835,42.966,1.744,1.744,0,0,0-.949-3.357Z" transform="translate(0 -203.087)" fill="#0a5936"/>
      <path id="Trazado_143388" data-name="Trazado 143388" d="M350.236,469.509a1.744,1.744,0,0,0,1.454,3.171l.074-.035a1.744,1.744,0,0,0-1.528-3.136Z" transform="translate(-288.316 -387.468)"/>
      <path id="Trazado_143389" data-name="Trazado 143389" d="M183.543,4.937a41.172,41.172,0,0,1,51.985,39.724,1.744,1.744,0,1,0,3.488,0A44.671,44.671,0,0,0,205.484,1.409a44.894,44.894,0,0,0-22.855.162,1.744,1.744,0,1,0,.913,3.367Z" transform="translate(-149.711 0)" fill="#0a5936"/>
      <path id="Trazado_143390" data-name="Trazado 143390" d="M144.392,26.178a1.744,1.744,0,1,0-.727-3.33l-.014.007a1.744,1.744,0,0,0,.741,3.324Z" transform="translate(-117.763 -18.725)"/>
      <path id="Trazado_143391" data-name="Trazado 143391" d="M75.721,81.7V58.622a1.744,1.744,0,0,0-1.744-1.744H49.258a6.31,6.31,0,0,0-4.584,1.973,6.31,6.31,0,0,0-4.584-1.973H31.381c.026-.371.041-.746.041-1.123a15.7,15.7,0,1,0-17.8,15.557V96.823a1.744,1.744,0,0,0,1.744,1.744H57.985A15.7,15.7,0,1,0,75.721,81.7ZM49.258,60.366H72.233V81.622a15.7,15.7,0,0,0-11.485,6.673,1.756,1.756,0,0,0-.259-.021H49.258a6.292,6.292,0,0,0-2.84.674V63.206A2.843,2.843,0,0,1,49.258,60.366Zm8.824,34.713H46.35a1.745,1.745,0,0,0,.067-.476,2.843,2.843,0,0,1,2.84-2.84h9.665A15.559,15.559,0,0,0,58.082,95.079ZM40.089,60.366a2.843,2.843,0,0,1,2.84,2.84V88.947a6.289,6.289,0,0,0-2.84-.674H17.115V71.39A15.736,15.736,0,0,0,30.73,60.366Zm-21.377-3.41a2.988,2.988,0,0,1-5.976,0V53.877a2.988,2.988,0,0,1,5.976,0Zm-7.376,4.758a6.462,6.462,0,0,0,8.776,0l1.686.314a2.6,2.6,0,0,1,2.119,2.551V64.8a12.187,12.187,0,0,1-16.386,0V64.58A2.6,2.6,0,0,1,9.65,62.029Zm4.388-18.17a12.2,12.2,0,0,1,10.8,17.89,6.079,6.079,0,0,0-4.09-2.835l-.429-.08a6.462,6.462,0,0,0,.192-1.563V53.877a6.476,6.476,0,0,0-12.953,0v3.079a6.462,6.462,0,0,0,.192,1.563l-.429.08a6.079,6.079,0,0,0-4.09,2.835,12.2,12.2,0,0,1,10.8-17.89Zm1.391,48.218H40.089a2.843,2.843,0,0,1,2.84,2.84,1.743,1.743,0,0,0,.067.476H17.115Zm48.32,14.54v-.219a2.6,2.6,0,0,1,2.119-2.551l1.686-.314a6.462,6.462,0,0,0,8.776,0l1.686.314a2.6,2.6,0,0,1,2.119,2.551v.219a12.187,12.187,0,0,1-16.386,0ZM76.616,98.46a2.988,2.988,0,0,1-5.976,0V95.381a2.988,2.988,0,0,1,5.976,0Zm7.815,4.478a6.078,6.078,0,0,0-4.09-2.835l-.429-.08A6.463,6.463,0,0,0,80.1,98.46V95.381a6.476,6.476,0,1,0-12.953,0V98.46a6.472,6.472,0,0,0,.192,1.563l-.429.08a6.078,6.078,0,0,0-4.09,2.835,12.209,12.209,0,1,1,21.606,0Z" transform="translate(-0.021 -33.061)" fill="#0a5936"/>
      <path id="Trazado_143392" data-name="Trazado 143392" d="M306.581,185.985h8.778a1.744,1.744,0,0,0,0-3.488h-8.778a1.744,1.744,0,0,0,0,3.488Z" transform="translate(-251.666 -150.657)" fill="#0a5936"/>
      <path id="Trazado_143393" data-name="Trazado 143393" d="M306.581,229.985h8.778a1.744,1.744,0,0,0,0-3.488h-8.778a1.744,1.744,0,0,0,0,3.488Z" transform="translate(-251.666 -186.983)" fill="#0a5936"/>
      <path id="Trazado_143394" data-name="Trazado 143394" d="M306.581,273.985h8.778a1.744,1.744,0,0,0,0-3.488h-8.778a1.744,1.744,0,0,0,0,3.488Z" transform="translate(-251.666 -223.308)" fill="#0a5936"/>
      <path id="Trazado_143395" data-name="Trazado 143395" d="M175.744,185.985h2.3a1.744,1.744,0,0,0,0-3.488h-2.3a1.744,1.744,0,0,0,0,3.488Z" transform="translate(-143.65 -150.657)" fill="#d2f6e6"/>
      <path id="Trazado_143396" data-name="Trazado 143396" d="M147.36,226.5h-8.778a1.744,1.744,0,1,0,0,3.488h8.778a1.744,1.744,0,0,0,0-3.488Z" transform="translate(-112.97 -186.983)" fill="#d2f6e6"/>
      <path id="Trazado_143397" data-name="Trazado 143397" d="M147.36,270.5h-8.778a1.744,1.744,0,0,0,0,3.488h8.778a1.744,1.744,0,0,0,0-3.488Z" transform="translate(-112.97 -223.308)" fill="#d2f6e6"/>
    </g>
  </g>
</svg>
