<svg xmlns="http://www.w3.org/2000/svg" width="128" height="129" viewBox="0 0 128 129">
  <g id="Grupo_99308" data-name="Grupo 99308" transform="translate(-736 -14625)">
    <g id="Elipse_4593" data-name="Elipse 4593" transform="translate(736 14625)" fill="#5cd8a0" stroke="#0a5936" stroke-width="3">
      <ellipse cx="64" cy="64.5" rx="64" ry="64.5" stroke="none"/>
      <ellipse cx="64" cy="64.5" rx="62.5" ry="63" fill="none"/>
    </g>
    <g id="sirena" transform="translate(697.312 14620.739)">
      <path id="Trazado_143398" data-name="Trazado 143398" d="M170.917,177.574h0a21.984,21.984,0,0,0-21.984,21.984v28.85H192.9v-28.85A21.984,21.984,0,0,0,170.917,177.574Z" transform="translate(-68.229 -135.683)" fill="#f1d54e"/>
      <path id="Trazado_143399" data-name="Trazado 143399" d="M175.528,178.06a22.074,22.074,0,0,0-4.61-.486h0a21.984,21.984,0,0,0-21.984,21.984v28.85h9.221v-28.85A21.991,21.991,0,0,1,175.528,178.06Z" transform="translate(-68.23 -135.683)" fill="#fb9e36"/>
      <rect id="Rectángulo_33461" data-name="Rectángulo 33461" width="6.445" height="13.228" transform="translate(99.23 79.499)" fill="#fff"/>
      <rect id="Rectángulo_33462" data-name="Rectángulo 33462" width="52.598" height="10.187" transform="translate(76.389 89.476)" fill="#5cd8a0"/>
      <rect id="Rectángulo_33463" data-name="Rectángulo 33463" width="4.314" height="10.187" transform="translate(76.389 89.476)" fill="#0e7889"/>
      <rect id="Rectángulo_33464" data-name="Rectángulo 33464" width="61.711" height="12.058" transform="translate(71.833 96.96)" fill="#d2f6e6"/>
      <rect id="Rectángulo_33465" data-name="Rectángulo 33465" width="4.556" height="12.058" transform="translate(71.833 96.96)" fill="#5cd8a0"/>
      <circle id="Elipse_4596" data-name="Elipse 4596" cx="7.796" cy="7.796" r="7.796" transform="translate(94.656 67.309)" fill="#fec007"/>
      <path id="Trazado_143400" data-name="Trazado 143400" d="M279.694,203.293a1.54,1.54,0,0,0-1.417,2.734,17.471,17.471,0,0,1,8.9,9.949,1.54,1.54,0,0,0,2.933-.941A20.522,20.522,0,0,0,279.694,203.293Z" transform="translate(-170.353 -155.983)" fill="#0a5936"/>
      <path id="Trazado_143401" data-name="Trazado 143401" d="M161.479,225.141h-3.016V219.2a1.54,1.54,0,0,0-1.54-1.54h-2.774V193.595a23.525,23.525,0,0,0-47.05,0v2.38a1.54,1.54,0,0,0,3.08,0V193.6a20.445,20.445,0,1,1,40.89,0v24.063H135.149v-4.791a9.308,9.308,0,0,0,3.938-4.654,1.54,1.54,0,0,0-2.87-1.118,6.224,6.224,0,0,1-3.178,3.4l-.08.035a6.258,6.258,0,1,1,3.119-8.3,1.54,1.54,0,0,0,2.8-1.281,9.335,9.335,0,1,0-13.254,11.9v4.807H110.178V202.04a1.54,1.54,0,1,0-3.08,0v15.618h-2.774a1.54,1.54,0,0,0-1.54,1.54v5.943H99.768a1.54,1.54,0,0,0-1.54,1.54v12.058a1.54,1.54,0,0,0,1.54,1.54H135.6a1.54,1.54,0,0,0,0-3.08h-34.29v-8.978h58.631V237.2H141.665a1.54,1.54,0,0,0,0,3.08h19.814a1.54,1.54,0,0,0,1.54-1.54V226.681A1.54,1.54,0,0,0,161.479,225.141Zm-32.773-11.135a9.341,9.341,0,0,0,1.682.155,9.5,9.5,0,0,0,1.681-.151v3.648h-3.363v-3.652Zm-22.841,6.732h49.518v4.4H105.865Z" transform="translate(-27.936 -129.72)" fill="#0a5936"/>
      <path id="Trazado_143402" data-name="Trazado 143402" d="M250.04,13.793c.851,0,1.54-.324,1.54-.724V.724c0-.4-.689-.724-1.54-.724s-1.54.324-1.54.724V13.069C248.5,13.469,249.189,13.793,250.04,13.793Z" transform="translate(-147.352 20.961)" fill="#0a5936"/>
      <path id="Trazado_143403" data-name="Trazado 143403" d="M1.54,13.793c.851,0,1.54-.324,1.54-.724V.724C3.08.324,2.391,0,1.54,0S0,.324,0,.724V13.069C0,13.469.689,13.793,1.54,13.793Z" transform="translate(128.46 27.858) rotate(45)" fill="#0a5936"/>
      <path id="Trazado_143404" data-name="Trazado 143404" d="M1.54,0c.851,0,1.54.324,1.54.724V13.069c0,.4-.689.724-1.54.724S0,13.469,0,13.069V.724C0,.324.689,0,1.54,0Z" transform="translate(86.67 37.611) rotate(135)" fill="#0a5936"/>
    </g>
  </g>
</svg>
