<svg xmlns="http://www.w3.org/2000/svg" xmlns:xlink="http://www.w3.org/1999/xlink" width="583.948" height="585.393" viewBox="0 0 583.948 585.393">
  <defs>
    <linearGradient id="linear-gradient" x1="0.918" y1="-0.764" x2="-1.18" y2="5.578" gradientUnits="objectBoundingBox">
      <stop offset="0" stop-color="#fdf53f"/>
      <stop offset="1" stop-color="#d93c65"/>
    </linearGradient>
    <linearGradient id="linear-gradient-2" x1="0.918" y1="-0.764" x2="-1.18" y2="5.578" xlink:href="#linear-gradient"/>
    <linearGradient id="linear-gradient-5" x1="0.918" y1="-0.764" x2="-1.18" y2="5.578" xlink:href="#linear-gradient"/>
    <linearGradient id="linear-gradient-6" x1="0.918" y1="-0.764" x2="-1.18" y2="5.578" gradientUnits="objectBoundingBox">
      <stop offset="0" stop-color="#cb236d"/>
      <stop offset="1" stop-color="#4c246d"/>
    </linearGradient>
    <linearGradient id="linear-gradient-7" x1="1.346" y1="-0.303" x2="-0.82" y2="1.752" xlink:href="#linear-gradient"/>
    <linearGradient id="linear-gradient-8" x1="1.582" y1="-0.178" x2="-0.938" y2="1.647" xlink:href="#linear-gradient"/>
    <linearGradient id="linear-gradient-9" x1="1.327" y1="-0.174" x2="-0.781" y2="1.65" xlink:href="#linear-gradient"/>
  </defs>
  <g id="Grupo_98743" data-name="Grupo 98743" transform="translate(0)">
    <path id="Trazado_143405" data-name="Trazado 143405" d="M1018.219,850.48c-56.265,132.481-206.142,206.7-336.115,186.679-21.149-3.258-79.131-12.962-130.465-58.741C452.816,890.287,431.683,715.78,511.4,592.8c58.02-89.508,162.027-140.247,260.854-137.709,21.287.547,102.869,3.916,174.565,63.035a268.89,268.89,0,0,1,54.69,62.053C1050.663,657.046,1054.888,764.14,1018.219,850.48Z" transform="translate(-462.604 -455)" fill="#d2f6e6"/>
    <g id="Grupo_98731" data-name="Grupo 98731" transform="translate(33.909 156.436)">
      <g id="Grupo_98720" data-name="Grupo 98720" transform="translate(0)">
        <path id="Trazado_143421" data-name="Trazado 143421" d="M1683.415,2582.308l-11.877,81.964h137.8l-17.948-81.964Z" transform="translate(-1451.943 -2292.665)" fill="#55a581"/>
        <path id="Trazado_143422" data-name="Trazado 143422" d="M624.311,1228.231v243.957a37.008,37.008,0,0,0,36.054,37c89.1,2.3,400.751,7.869,485.574,6.619a27.231,27.231,0,0,0,26.809-26.455c1.635-56.675,4.292-192.958-5.538-256.229a28.023,28.023,0,0,0-26.794-23.719c-74.659-2.388-405.025-9.972-489.807-8.068A26.9,26.9,0,0,0,624.311,1228.231Z" transform="translate(-624.311 -1201.029)" fill="#55a581"/>
        <path id="Trazado_143423" data-name="Trazado 143423" d="M697.311,1262.765v231.776a21.442,21.442,0,0,0,21.122,21.44l473,5.844a20.868,20.868,0,0,0,21.18-20.788l.791-229.705a15.262,15.262,0,0,0-14.89-15.314l-484.26-9.783A16.536,16.536,0,0,0,697.311,1262.765Z" transform="translate(-682.004 -1236.751)" fill="#f1d54e"/>
        <path id="Trazado_143424" data-name="Trazado 143424" d="M1213.7,2567.557h-.012l-518.858-8.84a.656.656,0,0,1-.645-.667.666.666,0,0,1,.667-.645l518.858,8.841a.656.656,0,0,1-.011,1.311Z" transform="translate(-679.532 -2272.984)" fill="#fff" opacity="0.65"/>
        <path id="Trazado_143425" data-name="Trazado 143425" d="M1677.339,2964.58H1475.666c-5.479,0-9.593-3.9-8.534-8.09l2.588-10.235c.778-3.078,4.164-5.338,8.186-5.463l194.42-6.067c4.2-.131,7.922,2.1,8.837,5.3l4.665,16.3C1687.04,2960.56,1682.906,2964.58,1677.339,2964.58Z" transform="translate(-1290.267 -2571.179)" fill="#55a581"/>
        <path id="Trazado_143426" data-name="Trazado 143426" d="M2023.72,2971.49a.656.656,0,0,1-.01-1.312l8.331-.121a.67.67,0,0,1,.665.646.655.655,0,0,1-.646.665l-8.331.122Z" transform="translate(-1729.757 -2599.105)" fill="#fff"/>
        <path id="Trazado_143427" data-name="Trazado 143427" d="M1500.893,2988.016a.657.657,0,0,1-.649-.759l1.189-7.444a8.3,8.3,0,0,1,8.091-7l88.364-1.292h.01a.656.656,0,0,1,.009,1.311l-88.364,1.293a6.992,6.992,0,0,0-6.815,5.9l-1.189,7.444A.656.656,0,0,1,1500.893,2988.016Z" transform="translate(-1316.562 -2600.26)" fill="#fff"/>
      </g>
      <g id="Grupo_98722" data-name="Grupo 98722" transform="translate(277.898 42.215)">
        <g id="Grupo_98721" data-name="Grupo 98721" opacity="0.53">
          <rect id="Rectángulo_33468" data-name="Rectángulo 33468" width="12.441" height="219.43" fill="#fff"/>
          <rect id="Rectángulo_33469" data-name="Rectángulo 33469" width="12.441" height="219.43" transform="translate(20.787)" fill="#fff"/>
          <rect id="Rectángulo_33470" data-name="Rectángulo 33470" width="12.441" height="219.43" transform="translate(41.574)" fill="#fff"/>
          <rect id="Rectángulo_33471" data-name="Rectángulo 33471" width="12.441" height="219.43" transform="translate(62.361)" fill="#fff"/>
          <rect id="Rectángulo_33472" data-name="Rectángulo 33472" width="12.441" height="219.43" transform="translate(83.148)" fill="#fff"/>
          <rect id="Rectángulo_33473" data-name="Rectángulo 33473" width="12.441" height="219.43" transform="translate(103.936)" fill="#fff"/>
          <rect id="Rectángulo_33474" data-name="Rectángulo 33474" width="12.441" height="219.43" transform="translate(124.723)" fill="#fff"/>
        </g>
        <rect id="Rectángulo_33475" data-name="Rectángulo 33475" width="12.441" height="114.836" transform="translate(0 104.594)" fill="#fb9e36"/>
        <rect id="Rectángulo_33476" data-name="Rectángulo 33476" width="12.441" height="75.369" transform="translate(20.787 144.061)" fill="#fb9e36"/>
        <rect id="Rectángulo_33477" data-name="Rectángulo 33477" width="12.441" height="172.91" transform="translate(41.574 46.52)" fill="#fb9e36"/>
        <rect id="Rectángulo_33478" data-name="Rectángulo 33478" width="12.441" height="41.539" transform="translate(62.361 177.891)" fill="#fb9e36"/>
        <rect id="Rectángulo_33479" data-name="Rectángulo 33479" width="12.441" height="149.793" transform="translate(83.148 69.637)" fill="#fb9e36"/>
        <rect id="Rectángulo_33480" data-name="Rectángulo 33480" width="12.441" height="123.857" transform="translate(103.936 95.573)" fill="#fb9e36"/>
        <rect id="Rectángulo_33481" data-name="Rectángulo 33481" width="12.441" height="95.666" transform="translate(124.723 123.764)" fill="#fb9e36"/>
      </g>
      <g id="Grupo_98723" data-name="Grupo 98723" transform="translate(42.494 147.873)">
        <path id="Trazado_143428" data-name="Trazado 143428" d="M1027.741,2021.206l-193.869-1.456a6.962,6.962,0,0,1-6.91-6.962v-99.607a6.962,6.962,0,0,1,6.962-6.962h193.869a6.962,6.962,0,0,1,6.962,6.962v101.063A6.963,6.963,0,0,1,1027.741,2021.206Z" transform="translate(-826.962 -1906.219)" fill="#fff" opacity="0.44"/>
        <path id="Trazado_143429" data-name="Trazado 143429" d="M1025.053,2021.349l-24.93-26.357-35.745,38.878-25.223-27.215L915.5,2033.4l-18.14-22.038-35.75,37.22v26.915a6.475,6.475,0,0,0,6.427,6.475l180.311,1.354a6.475,6.475,0,0,0,6.524-6.475v-73.221Z" transform="translate(-854.345 -1976.377)" fill="#fff" opacity="0.44"/>
        <rect id="Rectángulo_33482" data-name="Rectángulo 33482" width="0.656" height="62.707" transform="translate(170.861 44.239)" fill="#fff"/>
        <rect id="Rectángulo_33483" data-name="Rectángulo 33483" width="0.656" height="87.968" transform="translate(145.451 18.615)" fill="#fff"/>
        <rect id="Rectángulo_33484" data-name="Rectángulo 33484" width="0.656" height="49.296" transform="translate(109.705 57.019)" fill="#fff"/>
        <rect id="Rectángulo_33485" data-name="Rectángulo 33485" width="0.656" height="75.073" transform="translate(85.153 31.242)" fill="#fff"/>
        <rect id="Rectángulo_33486" data-name="Rectángulo 33486" width="0.656" height="50.095" transform="translate(60.827 56.22)" fill="#fff"/>
        <rect id="Rectángulo_33487" data-name="Rectángulo 33487" width="0.656" height="72.723" transform="translate(43.072 33.112)" fill="#fff"/>
        <circle id="Elipse_4597" data-name="Elipse 4597" cx="5.478" cy="5.478" r="5.478" transform="translate(35.653 33.112) rotate(-45)" fill="url(#linear-gradient)"/>
        <path id="Trazado_143430" data-name="Trazado 143430" d="M1108.614,2160.729a3.609,3.609,0,1,1-3.609-3.608A3.609,3.609,0,0,1,1108.614,2160.729Z" transform="translate(-1043.85 -2104.509)" fill="url(#linear-gradient-2)"/>
        <path id="Trazado_143431" data-name="Trazado 143431" d="M1224.619,2041.612a3.609,3.609,0,1,1-3.609-3.608A3.608,3.608,0,0,1,1224.619,2041.612Z" transform="translate(-1135.529 -2010.369)" fill="url(#linear-gradient-2)"/>
        <path id="Trazado_143432" data-name="Trazado 143432" d="M1341.707,2164.538a3.609,3.609,0,1,1-3.609-3.609A3.609,3.609,0,0,1,1341.707,2164.538Z" transform="translate(-1228.066 -2107.518)" fill="url(#linear-gradient-2)"/>
        <path id="Trazado_143433" data-name="Trazado 143433" d="M1512.174,1981.392a3.609,3.609,0,1,1-3.609-3.608A3.608,3.608,0,0,1,1512.174,1981.392Z" transform="translate(-1362.786 -1962.777)" fill="url(#linear-gradient-5)"/>
        <path id="Trazado_143434" data-name="Trazado 143434" d="M1633.352,2103.592a3.609,3.609,0,1,1-3.609-3.609A3.609,3.609,0,0,1,1633.352,2103.592Z" transform="translate(-1458.555 -2059.352)" fill="url(#linear-gradient-6)"/>
      </g>
      <g id="Grupo_98724" data-name="Grupo 98724" transform="translate(41.343 106.464)" opacity="0.48">
        <path id="Trazado_143435" data-name="Trazado 143435" d="M878.64,1827.135H825.5c-2.223,0-4.025,1.255-4.025,2.8s1.8,2.8,4.025,2.8H878.64c2.223,0,4.025-1.255,4.025-2.8S880.863,1827.135,878.64,1827.135Z" transform="translate(-821.47 -1802.31)" fill="#fff"/>
        <path id="Trazado_143436" data-name="Trazado 143436" d="M878.64,1767.94H825.5c-2.223,0-4.025,1.255-4.025,2.8s1.8,2.8,4.025,2.8H878.64c2.223,0,4.025-1.255,4.025-2.8S880.863,1767.94,878.64,1767.94Z" transform="translate(-821.47 -1755.527)" fill="#fff"/>
        <path id="Trazado_143437" data-name="Trazado 143437" d="M878.64,1708.745H825.5c-2.223,0-4.025,1.255-4.025,2.8s1.8,2.8,4.025,2.8H878.64c2.223,0,4.025-1.255,4.025-2.8S880.863,1708.745,878.64,1708.745Z" transform="translate(-821.47 -1708.745)" fill="#fff"/>
      </g>
      <g id="Grupo_98725" data-name="Grupo 98725" transform="translate(115.217 106.464)" opacity="0.48">
        <path id="Trazado_143438" data-name="Trazado 143438" d="M1230.941,1827.135H1177.8c-2.223,0-4.025,1.255-4.025,2.8s1.8,2.8,4.025,2.8h53.145c2.223,0,4.026-1.255,4.026-2.8S1233.164,1827.135,1230.941,1827.135Z" transform="translate(-1173.771 -1802.31)" fill="#fff"/>
        <path id="Trazado_143439" data-name="Trazado 143439" d="M1230.941,1767.94H1177.8c-2.223,0-4.025,1.255-4.025,2.8s1.8,2.8,4.025,2.8h53.145c2.223,0,4.026-1.255,4.026-2.8S1233.164,1767.94,1230.941,1767.94Z" transform="translate(-1173.771 -1755.527)" fill="#fff"/>
        <path id="Trazado_143440" data-name="Trazado 143440" d="M1230.941,1708.745H1177.8c-2.223,0-4.025,1.255-4.025,2.8s1.8,2.8,4.025,2.8h53.145c2.223,0,4.026-1.255,4.026-2.8S1233.164,1708.745,1230.941,1708.745Z" transform="translate(-1173.771 -1708.745)" fill="#fff"/>
      </g>
      <g id="Grupo_98726" data-name="Grupo 98726" transform="translate(189.092 106.464)" opacity="0.48">
        <path id="Trazado_143441" data-name="Trazado 143441" d="M1583.244,1827.135H1530.1c-2.223,0-4.026,1.255-4.026,2.8s1.8,2.8,4.026,2.8h53.145c2.223,0,4.025-1.255,4.025-2.8S1585.466,1827.135,1583.244,1827.135Z" transform="translate(-1526.073 -1802.31)" fill="#fff"/>
        <path id="Trazado_143442" data-name="Trazado 143442" d="M1583.244,1767.94H1530.1c-2.223,0-4.026,1.255-4.026,2.8s1.8,2.8,4.026,2.8h53.145c2.223,0,4.025-1.255,4.025-2.8S1585.466,1767.94,1583.244,1767.94Z" transform="translate(-1526.073 -1755.527)" fill="#fff"/>
        <path id="Trazado_143443" data-name="Trazado 143443" d="M1583.244,1708.745H1530.1c-2.223,0-4.026,1.255-4.026,2.8s1.8,2.8,4.026,2.8h53.145c2.223,0,4.025-1.255,4.025-2.8S1585.466,1708.745,1583.244,1708.745Z" transform="translate(-1526.073 -1708.745)" fill="#fff"/>
      </g>
      <g id="Grupo_98730" data-name="Grupo 98730" transform="translate(445.289 39.327)">
        <g id="Grupo_98727" data-name="Grupo 98727" transform="translate(1.234 79.037)">
          <ellipse id="Elipse_4598" data-name="Elipse 4598" cx="24.591" cy="24.591" rx="24.591" ry="24.591" fill="#fff" opacity="0.91"/>
          <path id="Trazado_143444" data-name="Trazado 143444" d="M2811.011,1805.989a15.8,15.8,0,1,1-14.612-9.793c.267,0,.532.008.8.02v-4c-.264-.01-.53-.017-.8-.017a19.783,19.783,0,1,0,18.285,12.2Z" transform="translate(-2771.809 -1786.596)" fill="url(#linear-gradient-7)"/>
          <path id="Trazado_143445" data-name="Trazado 143445" d="M2799.2,2049.71h-40.073a4.554,4.554,0,1,0,0,9.109H2799.2a4.554,4.554,0,0,0,0-9.109Z" transform="translate(-2754.401 -1990.112)" fill="#fff" opacity="0.5"/>
        </g>
        <g id="Grupo_98728" data-name="Grupo 98728" transform="translate(1.129)">
          <ellipse id="Elipse_4599" data-name="Elipse 4599" cx="24.591" cy="24.591" rx="24.591" ry="24.591" fill="#fff" opacity="0.91"/>
          <path id="Trazado_143446" data-name="Trazado 143446" d="M2804.041,1448.437a15.794,15.794,0,1,1-8.416-29.159q.4,0,.8.02v-4c-.265-.01-.53-.017-.8-.017a19.8,19.8,0,1,0,10.4,36.642Z" transform="translate(-2771.091 -1409.678)" fill="url(#linear-gradient-8)"/>
          <path id="Trazado_143447" data-name="Trazado 143447" d="M2799.708,1672.792h-40.073a4.554,4.554,0,1,0,0,9.109h40.073a4.554,4.554,0,1,0,0-9.109Z" transform="translate(-2754.695 -1613.194)" fill="#fff" opacity="0.5"/>
        </g>
        <g id="Grupo_98729" data-name="Grupo 98729" transform="translate(0 157.153)">
          <ellipse id="Elipse_4600" data-name="Elipse 4600" cx="24.591" cy="24.591" rx="24.591" ry="24.591" transform="translate(0 49.106) rotate(-86.83)" fill="#fff" opacity="0.91"/>
          <path id="Trazado_143448" data-name="Trazado 143448" d="M2811.453,2195.871a15.8,15.8,0,1,1-13.062-24.676c.267,0,.533.008.8.02v-4c-.264-.01-.53-.017-.8-.017a19.8,19.8,0,1,0,16.3,31.024Z" transform="translate(-2772.148 -2161.078)" fill="url(#linear-gradient-9)"/>
          <path id="Trazado_143449" data-name="Trazado 143449" d="M2758.714,2433.817h40.073a4.554,4.554,0,1,0,0-9.108h-40.073a4.554,4.554,0,1,0,0,9.108Z" transform="translate(-2752.837 -2364.594)" fill="#fff" opacity="0.5"/>
        </g>
      </g>
    </g>
    <g id="Grupo_98733" data-name="Grupo 98733" transform="translate(323.889 35.541)">
      <path id="Trazado_143450" data-name="Trazado 143450" d="M2244.937,625.608l-232.679-1.119c-2.8-.026-5.082,3.076-5.06,6.892l.515,92.059c.022,3.838,2.359,6.9,5.178,6.785l231.352-4.955c2.691-.11,4.841-3.086,4.875-6.75l.81-85.985C2249.965,628.742,2247.725,625.633,2244.937,625.608Z" transform="translate(-2007.198 -624.489)" fill="#f8fffc"/>
      <path id="Trazado_143451" data-name="Trazado 143451" d="M2028.808,746.586a.852.852,0,0,1-.768-.926l-.515-92.058a1.04,1.04,0,0,1,.192-.631.694.694,0,0,1,.575-.309l232.681,1.119a.69.69,0,0,1,.569.313,1.039,1.039,0,0,1,.191.63l-.811,85.985a.854.854,0,0,1-.739.922h-.005Zm-.518-93.328c-.015,0-.044,0-.091.065a.447.447,0,0,0-.078.276l.515,92.058c0,.2.109.334.165.334l231.363-4.955c.062,0,.158-.138.16-.332l.811-85.984a.451.451,0,0,0-.078-.276c-.047-.065-.077-.066-.09-.066Z" transform="translate(-2023.262 -646.754)" fill="#fff"/>
      <g id="Grupo_98732" data-name="Grupo 98732" transform="translate(14.495 13.634)">
        <rect id="Rectángulo_33488" data-name="Rectángulo 33488" width="11.323" height="43.271" transform="translate(0 35.054)" fill="#f1d54e"/>
        <rect id="Rectángulo_33489" data-name="Rectángulo 33489" width="11.323" height="28.399" transform="translate(18.92 49.926)" fill="#f1d54e"/>
        <rect id="Rectángulo_33490" data-name="Rectángulo 33490" width="11.323" height="65.154" transform="translate(37.84 13.172)" fill="#f1d54e"/>
        <rect id="Rectángulo_33491" data-name="Rectángulo 33491" width="11.323" height="15.652" transform="translate(56.761 62.673)" fill="#f1d54e"/>
        <rect id="Rectángulo_33492" data-name="Rectángulo 33492" width="11.323" height="56.443" transform="translate(75.681 21.882)" fill="#f1d54e"/>
        <rect id="Rectángulo_33493" data-name="Rectángulo 33493" width="11.323" height="46.67" transform="translate(94.601 31.655)" fill="#f1d54e"/>
        <rect id="Rectángulo_33494" data-name="Rectángulo 33494" width="11.323" height="36.048" transform="translate(113.521 42.278)" fill="#f1d54e"/>
        <rect id="Rectángulo_33495" data-name="Rectángulo 33495" width="11.323" height="78.325" transform="translate(132.442)" fill="#f1d54e"/>
        <rect id="Rectángulo_33496" data-name="Rectángulo 33496" width="11.323" height="70.04" transform="translate(151.362 8.286)" fill="#f1d54e"/>
        <rect id="Rectángulo_33497" data-name="Rectángulo 33497" width="11.323" height="57.505" transform="translate(170.282 20.82)" fill="#f1d54e"/>
        <rect id="Rectángulo_33498" data-name="Rectángulo 33498" width="11.323" height="14.2" transform="translate(189.202 64.126)" fill="#f1d54e"/>
        <rect id="Rectángulo_33499" data-name="Rectángulo 33499" width="11.323" height="41.784" transform="translate(208.122 36.542)" fill="#f1d54e"/>
      </g>
    </g>
    <g id="Grupo_98737" data-name="Grupo 98737" transform="translate(56.279 138.606)">
      <path id="Trazado_143452" data-name="Trazado 143452" d="M960.17,1117.076,735.872,1116c-2.7-.025-4.9,2.966-4.878,6.644l.5,88.743c.021,3.7,2.274,6.652,4.991,6.541l223.02-4.776c2.594-.106,4.667-2.975,4.7-6.506l.782-82.888C965.017,1120.1,962.858,1117.1,960.17,1117.076Z" transform="translate(-730.994 -1115.997)" fill="#5cd8a0"/>
      <path id="Trazado_143453" data-name="Trazado 143453" d="M751.825,1233.7a.821.821,0,0,1-.74-.893l-.5-88.742a1,1,0,0,1,.185-.608.669.669,0,0,1,.554-.3l224.3,1.078a.667.667,0,0,1,.549.3,1,1,0,0,1,.183.607l-.782,82.888a.824.824,0,0,1-.712.89h-.005Zm-.5-89.967c-.014,0-.043,0-.088.063a.432.432,0,0,0-.075.266l.5,88.742c0,.2.105.322.159.322l223.03-4.777c.058,0,.153-.132.154-.319l.782-82.887a.434.434,0,0,0-.075-.266c-.045-.063-.074-.063-.087-.063Z" transform="translate(-746.479 -1137.46)" fill="#fff"/>
      <g id="Grupo_98736" data-name="Grupo 98736" transform="translate(11.804 6.525)">
        <circle id="Elipse_4601" data-name="Elipse 4601" cx="23.222" cy="23.222" r="23.222" transform="translate(0 32.841) rotate(-45)" fill="#fff"/>
        <circle id="Elipse_4602" data-name="Elipse 4602" cx="23.222" cy="23.222" r="23.222" transform="translate(57.515 32.841) rotate(-45)" fill="#fff"/>
        <circle id="Elipse_4603" data-name="Elipse 4603" cx="23.222" cy="23.222" r="23.222" transform="translate(115.229 33.601) rotate(-45)" fill="#fff"/>
        <g id="Grupo_98734" data-name="Grupo 98734" transform="translate(14.147 14.906)">
          <path id="Trazado_143454" data-name="Trazado 143454" d="M887.244,1231.228a14.917,14.917,0,1,1-13.8-9.248q.378,0,.753.019v-3.781c-.25-.01-.5-.016-.753-.016a18.682,18.682,0,1,0,17.267,11.52Z" transform="translate(-854.751 -1218.201)" fill="url(#linear-gradient-7)"/>
          <path id="Trazado_143455" data-name="Trazado 143455" d="M1155.418,1249.516a14.916,14.916,0,1,1-7.948-27.537q.379,0,.752.019v-3.781c-.25-.01-.5-.016-.752-.016a18.695,18.695,0,1,0,9.823,34.6Z" transform="translate(-1071.315 -1218.201)" fill="url(#linear-gradient-8)"/>
          <path id="Trazado_143456" data-name="Trazado 143456" d="M1436.779,1245.282a14.916,14.916,0,1,1-12.335-23.3q.379,0,.752.019v-3.781c-.25-.01-.5-.016-.752-.016a18.695,18.695,0,1,0,15.4,29.3Z" transform="translate(-1290.209 -1218.201)" fill="url(#linear-gradient-9)"/>
        </g>
        <g id="Grupo_98735" data-name="Grupo 98735" transform="translate(9.785 65.9)">
          <path id="Trazado_143457" data-name="Trazado 143457" d="M876.094,1461.385H838.251a4.3,4.3,0,0,0,0,8.6h37.843a4.3,4.3,0,1,0,0-8.6Z" transform="translate(-833.95 -1461.385)" fill="#fff" opacity="0.5"/>
          <path id="Trazado_143458" data-name="Trazado 143458" d="M1151.325,1461.385h-37.843a4.3,4.3,0,1,0,0,8.6h37.843a4.3,4.3,0,1,0,0-8.6Z" transform="translate(-1051.468 -1461.385)" fill="#fff" opacity="0.5"/>
          <path id="Trazado_143459" data-name="Trazado 143459" d="M1386.975,1469.987h37.842a4.3,4.3,0,0,0,0-8.6h-37.842a4.3,4.3,0,0,0,0,8.6Z" transform="translate(-1267.611 -1461.385)" fill="#fff" opacity="0.5"/>
        </g>
      </g>
    </g>
  </g>
</svg>
