<svg id="Grupo_98744" data-name="Grupo 98744" xmlns="http://www.w3.org/2000/svg" xmlns:xlink="http://www.w3.org/1999/xlink" width="229.183" height="442.037" viewBox="0 0 229.183 442.037">
  <defs>
    <linearGradient id="linear-gradient" y1="0.5" x2="1" y2="0.5" gradientUnits="objectBoundingBox">
      <stop offset="0" stop-color="#f9b776"/>
      <stop offset="1" stop-color="#f47960"/>
    </linearGradient>
    <linearGradient id="linear-gradient-4" x1="85.659" y1="1.605" x2="87.659" y2="4.278" xlink:href="#linear-gradient"/>
    <linearGradient id="linear-gradient-5" x1="0.339" y1="0.706" x2="2.358" y2="-1.072" xlink:href="#linear-gradient"/>
    <linearGradient id="linear-gradient-9" x1="-35.658" y1="-16.018" x2="-35.98" y2="-17.084" xlink:href="#linear-gradient"/>
    <linearGradient id="linear-gradient-10" x1="-117.425" y1="-80.107" x2="-118.368" y2="-84.754" xlink:href="#linear-gradient"/>
  </defs>
  <path id="Trazado_143460" data-name="Trazado 143460" d="M899.392,3151.7s-1.534,8.686-2.287,17.285a5.925,5.925,0,0,0,5.668,6.419c11.451.477,35.946,1.4,44.735,1.012a1.928,1.928,0,0,0,1.7-2.641,4.318,4.318,0,0,0-2.207-2.325l-40.461-18.6Z" transform="translate(-805.165 -2735.38)" fill="#f1d54e"/>
  <path id="Trazado_143461" data-name="Trazado 143461" d="M901.31,3126.359l1.233,10.39s7.088,3.3,11.928-.416l-2.935-11.579Z" transform="translate(-808.34 -2715.143)" fill="url(#linear-gradient)"/>
  <path id="Trazado_143462" data-name="Trazado 143462" d="M808.1,2346.562c-.533,2.714-2.859,135.406,11.325,194.869a2.018,2.018,0,0,1-1.184,2.348,35.138,35.138,0,0,1-11.551,2.348,3.476,3.476,0,0,1-3.449-2.495c-4.055-13.8-23.482-82.921-26.017-148.953-2.832-73.785,0-2.512,0-2.512l1.661-45.609Z" transform="translate(-714.2 -2130.69)" fill="#12263f"/>
  <path id="Trazado_143463" data-name="Trazado 143463" d="M704.689,3169.9s-2.443,4.386-4.807,16.039a3.614,3.614,0,0,0,3.181,4.328c3.781.372,9.6.85,14.265.818a3.6,3.6,0,0,0,3.568-4.02c-.516-4.254-2.125-11.233-7.1-16.671Z" transform="translate(-657.005 -2749.051)" fill="#f1d54e"/>
  <path id="Trazado_143464" data-name="Trazado 143464" d="M710.8,3114.381l2.881,15.713s2.848,2.119,8.483.583l-1.375-16.906Z" transform="translate(-665.258 -2706.893)" fill="url(#linear-gradient)"/>
  <path id="Trazado_143465" data-name="Trazado 143465" d="M666.069,2340.781c-11.6,70.009,2.516,173.033,7.277,193.2a3.145,3.145,0,0,0,2.539,2.388,21.126,21.126,0,0,0,9.073-.362,2.882,2.882,0,0,0,2.072-2.654c.639-16.3-.511-116.383,10.3-155.936a8.989,8.989,0,0,1,3.465-4.956l20.98-14.914,1.608-24.109Z" transform="translate(-628.312 -2120.836)" fill="#12263f"/>
  <g id="Grupo_98738" data-name="Grupo 98738" transform="translate(33.425 33.449)">
    <path id="Trazado_143466" data-name="Trazado 143466" d="M740.391,1812.969c-34.764-.574-73.123,9.129-73.123,9.129-10.362,60.465-1.812,130.207-1.812,130.207,26.914,7.058,57.274-4.315,57.274-4.315,4.473-25.273,25.344-96.4,25.344-96.4,16.986-2.108,30.978-7.009,42.5-13.488-8.79-10.188-12.933-23.152-14.733-30.816C763.551,1811.106,751.113,1813.147,740.391,1812.969Z" transform="translate(-662.141 -1759.128)" fill="#17c878"/>
    <path id="Trazado_143467" data-name="Trazado 143467" d="M1186.072,1616.49a6.651,6.651,0,0,0-7.737-2.174c-5.116,21.61-31.941,39.132-59.5,47.7,1.8,7.664,5.943,20.627,14.733,30.816C1179.3,1667.114,1186.072,1616.49,1186.072,1616.49Z" transform="translate(-1005.135 -1613.856)" fill="url(#linear-gradient)"/>
  </g>
  <g id="Grupo_98739" data-name="Grupo 98739" transform="translate(206.625 0)">
    <path id="Trazado_143468" data-name="Trazado 143468" d="M1364.729,1516.636c.357,1.136-3.781,2.866-6.217-1.78-.085-2.227-1.439-11.766-.108-13.58,7.086-9.661,20.825-21.772,20.825-21.772a3.27,3.27,0,0,1,.409,4.542l-6.665,6.943c1.394,2.52,3.095,4.646,3.891,7.693a9.338,9.338,0,0,1-.931,6.874c-1.17,2.108-2.766,4.848-4.275,6.993A9.223,9.223,0,0,1,1364.729,1516.636Z" transform="translate(-1357.82 -1479.503)" fill="url(#linear-gradient-4)"/>
    <path id="Trazado_143469" data-name="Trazado 143469" d="M1382.9,1543.729l-6.073,5.149-1.907,5.126,5.415,6.008s1.821-10.172,3.174-12.373S1384.156,1544.373,1382.9,1543.729Z" transform="translate(-1370.659 -1527.739)" fill="url(#linear-gradient-5)"/>
  </g>
  <path id="Trazado_143470" data-name="Trazado 143470" d="M582.005,1900.438l-13.334-33.662s-32.472,22.063-37.812,50.037a76.855,76.855,0,0,1,28.228,7.565C561.489,1911.17,582.005,1900.438,582.005,1900.438Z" transform="translate(-530.119 -1770.359)" fill="#17c878"/>
  <path id="Trazado_143471" data-name="Trazado 143471" d="M608.149,2083.055s-36.458,20.6-48.759,3.011a13.831,13.831,0,0,1-2.536-10.745,76.837,76.837,0,0,0-28.228-7.565,38.608,38.608,0,0,0,4.2,26.467c21.548,39.417,80.151-2.178,80.151-2.178Z" transform="translate(-527.886 -1921.301)" fill="url(#linear-gradient)"/>
  <g id="Grupo_98740" data-name="Grupo 98740" transform="translate(75.803 105.813)">
    <path id="Trazado_143472" data-name="Trazado 143472" d="M832.437,2006.881l19.9-69.485a2.025,2.025,0,0,1,1.714-1.459c3.6-.421,14.051-1.6,26.112-2.622,14.528-1.229,31.4-2.225,41.481-1.377a2.033,2.033,0,0,1,1.662,2.925c-5.733,11.6-29.315,58.779-41.124,74.235a2.04,2.04,0,0,1-1.641.805l-46.165-.43A2.033,2.033,0,0,1,832.437,2006.881Z" transform="translate(-832.357 -1924.872)" fill="#f1d54e"/>
    <path id="Trazado_143473" data-name="Trazado 143473" d="M1027.372,1906.93l14.426-2.4a1.035,1.035,0,0,1,1.153,1.346l-1.428,4.327a1.036,1.036,0,0,1-.846.7l-13.882,1.855a1.036,1.036,0,0,1-1.145-1.262l.884-3.778A1.035,1.035,0,0,1,1027.372,1906.93Z" transform="translate(-977.506 -1904.511)" fill="#d2f6e6"/>
    <path id="Trazado_143474" data-name="Trazado 143474" d="M989.186,1932.182l1.188-6.19a1.432,1.432,0,0,1,1.261-1.154l29.137-2.956a1.431,1.431,0,0,1,1.536,1.758l-1.853,7.714a1.43,1.43,0,0,1-1.32,1.094l-28.472,1.433A1.431,1.431,0,0,1,989.186,1932.182Z" transform="translate(-950.121 -1917.551)" fill="#d2f6e6"/>
    <path id="Trazado_143475" data-name="Trazado 143475" d="M846.2,2095.011s-2.772-11.4-1.654-15.441,3.284-9.242,10.5-8.086a105.655,105.655,0,0,1,15.738,4.2s-.43,5.267-5.918,3.568l3.4,2.633s-.486,4.218-5.122,1.964l3.165,3.492s-1.991,3.463-5.4,1.242S855.867,2096.383,846.2,2095.011Z" transform="translate(-841.309 -2029.791)" fill="url(#linear-gradient)"/>
  </g>
  <path id="Trazado_143476" data-name="Trazado 143476" d="M801.44,1716.751l-11.062,31.989a1.152,1.152,0,0,0,.526,1.388c3.015,1.667,13.878,6.486,26.97-1.814a5.427,5.427,0,0,0,2.5-3.876l3.582-27.686Z" transform="translate(-724.978 -1657.685)" fill="url(#linear-gradient)"/>
  <g id="Grupo_98741" data-name="Grupo 98741" transform="translate(55.468 12.819)">
    <path id="Trazado_143477" data-name="Trazado 143477" d="M846.146,1597.768s12.147,22.865,10.589,32.1-16.611,8.573-29.756,1.072l-9.186-24.689Z" transform="translate(-801.084 -1581.143)" fill="url(#linear-gradient-9)"/>
    <path id="Trazado_143478" data-name="Trazado 143478" d="M777.154,1568.665a.942.942,0,0,0,.411-1.38,24.592,24.592,0,0,1-3.379-7.174s-2.184-1.4,5.558-3.251,19.285-4.729,21.712-11.318c2.366-6.424-3.85-22.581-13.767-9.708a.942.942,0,0,1-1.493.01c-1.626-2.116-5.9-6.507-11.834-3.845-5.553,2.492-6.179,6.561-6.1,8.612a.937.937,0,0,1-1.11.959c-2.808-.535-9.545-1-12.69,5.916-2.59,5.693-.906,8.916.627,10.492a.94.94,0,0,1-.4,1.56c-1.846.565-4.228,2.13-3.99,6.452.33,5.977,7.012,5.45,8.914,5.178a.942.942,0,0,1,.837.3c1.632,1.8,8.981,9.47,16.935,10.394a.95.95,0,0,0,1-1.256l-3.442-10.007a.947.947,0,0,1,.512-1.174Z" transform="translate(-750.678 -1530.992)" fill="#12263f"/>
    <path id="Trazado_143479" data-name="Trazado 143479" d="M834.484,1679.151s-8.649-5.934-9.28-.937,7.788,7.238,11.959,5.375Z" transform="translate(-806.624 -1640.057)" fill="url(#linear-gradient-10)"/>
  </g>
</svg>
