<svg xmlns="http://www.w3.org/2000/svg" xmlns:xlink="http://www.w3.org/1999/xlink" width="192.475" height="188.01" viewBox="0 0 192.475 188.01">
  <defs>
    <clipPath id="clip-path">
      <path id="Trazado_142505" data-name="Trazado 142505" d="M81.569,186.247l-19.4-2.347a3.643,3.643,0,0,1-3.18-4.054l.74-28.286a3.642,3.642,0,0,1,4.054-3.18l24.942,1.727c2,.241,3.845,4.429,3.6,6.426l-6.7,26.533A3.643,3.643,0,0,1,81.569,186.247Z" transform="translate(-58.959 -148.353)" fill="none"/>
    </clipPath>
  </defs>
  <g id="Grupo_98222" data-name="Grupo 98222" transform="translate(-299.174 -2802.173)">
    <ellipse id="Elipse_4516" data-name="Elipse 4516" cx="96.238" cy="90.914" rx="96.238" ry="90.914" transform="translate(299.174 2808.355)" fill="#e8fff5"/>
    <g id="Grupo_98221" data-name="Grupo 98221" transform="translate(292.544 2682.306)">
      <g id="Grupo_98138" data-name="Grupo 98138" transform="translate(48.766 157.17)">
        <path id="Trazado_142474" data-name="Trazado 142474" d="M41.706,151.959c0-2.556,4.624-13.193,4.624-13.193s4.626,10.637,4.626,13.193a4.625,4.625,0,0,1-9.251,0Z" transform="translate(-41.706 -138.767)" fill="#a0d5ea"/>
      </g>
      <g id="Grupo_98139" data-name="Grupo 98139" transform="translate(53.311 168.896)">
        <path id="Trazado_142475" data-name="Trazado 142475" d="M44.321,200.379a.311.311,0,0,1-.312-.31V145.02a.311.311,0,1,1,.622,0v55.05A.309.309,0,0,1,44.321,200.379Z" transform="translate(-44.009 -144.708)" fill="#61b3db"/>
      </g>
      <g id="Grupo_98140" data-name="Grupo 98140" transform="translate(95.13 197.373)">
        <path id="Trazado_142476" data-name="Trazado 142476" d="M79.6,159.136l7.175,1.018a37.983,37.983,0,0,1-3.953,7.8c-1.847,2.923-10.143,6.95-6.7,9.922s7.662-4.165,10.542-4.626c2.791-.448,8.562,2.477,6.677,4.863s-5.213-1.243-6.3-.189-4.131,7.125-12.46,6.243-10.9-5.623-8.546-9.4S79.6,159.136,79.6,159.136Z" transform="translate(-65.196 -159.136)" fill="#ce8e3a"/>
      </g>
      <g id="Grupo_98141" data-name="Grupo 98141" transform="translate(85.521 153.646)">
        <path id="Trazado_142477" data-name="Trazado 142477" d="M60.328,165.387s.819-12.642,4.263-20.476c4.848-11.033,16.964-8.943,20.809-3.428s2.674,24.656,2.674,24.656Z" transform="translate(-60.328 -136.981)" fill="#ffcb2f"/>
      </g>
      <g id="Grupo_98142" data-name="Grupo 98142" transform="translate(34.456 234.287)">
        <rect id="Rectángulo_33311" data-name="Rectángulo 33311" width="71.709" height="62.85" rx="2.71" fill="#ffcb2f"/>
      </g>
      <g id="Grupo_98143" data-name="Grupo 98143" transform="translate(94.632 214.144)">
        <path id="Trazado_142478" data-name="Trazado 142478" d="M66.864,167.633s15.863,4.9,26.272,9.667c4.011,1.84,10.82,5.181,12.48,7.577,2.007,2.9,2.548,49.115,2.548,49.115l-6.871-.02s-2-40.681-2.335-42.686-34.015-13.039-34.015-13.039Z" transform="translate(-64.944 -167.633)" fill="#114960"/>
      </g>
      <g id="Grupo_98144" data-name="Grupo 98144" transform="translate(81.691 209.284)">
        <path id="Trazado_142479" data-name="Trazado 142479" d="M62.135,168.945a17.327,17.327,0,0,0-3.677,12.034c.48,5.037,2.317,9.654,9.359,9.279,12.537-.669,27.08,4.261,27.33,5.432.391,1.828-11.2,40.681-11.2,40.681l6.871.02s17.716-41.62,17.288-44.768c-.529-3.9-18.374-10.69-25.742-13.986-6.351-2.84,2.978-10.713.5-11.866C77.711,163.372,62.135,168.945,62.135,168.945Z" transform="translate(-58.388 -165.17)" fill="#062c3f"/>
      </g>
      <g id="Grupo_98145" data-name="Grupo 98145" transform="translate(103.318 177.475)">
        <path id="Trazado_142480" data-name="Trazado 142480" d="M72.479,149.091,69.345,169.33l14.766,1.693s-.385-13.617-.969-18c-.278-2.092-3.286-3.229-5.463-3.7A26.728,26.728,0,0,0,72.479,149.091Z" transform="translate(-69.345 -149.055)" fill="#318ebc"/>
      </g>
      <g id="Grupo_98148" data-name="Grupo 98148" transform="translate(144.085 153.54)">
        <g id="Grupo_98146" data-name="Grupo 98146" transform="translate(0)">
          <circle id="Elipse_4537" data-name="Elipse 4537" cx="18.893" cy="18.893" r="18.893" transform="translate(0 14.46) rotate(-22.5)" fill="#ffcb2f"/>
        </g>
        <g id="Grupo_98147" data-name="Grupo 98147" transform="translate(11.675 11.389)">
          <path id="Trazado_142481" data-name="Trazado 142481" d="M108.925,142.7l4.02,8.146,8.99,1.306-6.5,6.341,1.536,8.953-8.041-4.227-8.041,4.227,1.536-8.953-6.5-6.341,8.99-1.306Z" transform="translate(-95.915 -142.698)" fill="#fff"/>
        </g>
      </g>
      <g id="Grupo_98151" data-name="Grupo 98151" transform="translate(95.429 119.868)">
        <g id="Grupo_98149" data-name="Grupo 98149">
          <circle id="Elipse_4538" data-name="Elipse 4538" cx="14.659" cy="14.659" r="14.659" fill="#025482"/>
        </g>
        <g id="Grupo_98150" data-name="Grupo 98150" transform="translate(4.564 4.342)">
          <path id="Trazado_142482" data-name="Trazado 142482" d="M77.754,122.068l3.119,6.32,6.975,1.014-5.047,4.92,1.191,6.947-6.238-3.28-6.238,3.28,1.191-6.947L67.66,129.4l6.975-1.014Z" transform="translate(-67.66 -122.068)" fill="#fff"/>
        </g>
      </g>
      <g id="Grupo_98155" data-name="Grupo 98155" transform="translate(143.087 200.467)">
        <g id="Grupo_98153" data-name="Grupo 98153">
          <g id="Grupo_98152" data-name="Grupo 98152">
            <circle id="Elipse_4539" data-name="Elipse 4539" cx="14.213" cy="14.213" r="14.213" fill="#4396ca"/>
          </g>
        </g>
        <g id="Grupo_98154" data-name="Grupo 98154" transform="translate(5.658 8.657)">
          <path id="Trazado_142483" data-name="Trazado 142483" d="M107.157,165.5c-2.13-1.143-4.919.292-6.223,2.274-1.3-1.982-4.238-3.417-6.367-2.274-2.252,1.21-2.785,3.557-1.575,5.811s7.93,7.741,7.942,7.674c.014.067,6.734-5.422,7.944-7.674A4.064,4.064,0,0,0,107.157,165.5Z" transform="translate(-92.36 -165.089)" fill="#fff"/>
        </g>
      </g>
      <g id="Grupo_98161" data-name="Grupo 98161" transform="translate(130.903 125.569)">
        <g id="Grupo_98157" data-name="Grupo 98157" transform="translate(0)">
          <g id="Grupo_98156" data-name="Grupo 98156">
            <path id="Trazado_142484" data-name="Trazado 142484" d="M99.044,130.617a7.861,7.861,0,1,1-7.861-7.861A7.862,7.862,0,0,1,99.044,130.617Z" transform="translate(-83.321 -122.756)" fill="#ffcb2f"/>
          </g>
        </g>
        <g id="Grupo_98160" data-name="Grupo 98160" transform="translate(3.508 3.508)">
          <g id="Grupo_98158" data-name="Grupo 98158" transform="translate(3.457)">
            <rect id="Rectángulo_33312" data-name="Rectángulo 33312" width="1.792" height="8.706" fill="#fff"/>
          </g>
          <g id="Grupo_98159" data-name="Grupo 98159" transform="translate(0 3.457)">
            <rect id="Rectángulo_33313" data-name="Rectángulo 33313" width="8.706" height="1.792" fill="#fff"/>
          </g>
        </g>
      </g>
      <g id="Grupo_98167" data-name="Grupo 98167" transform="translate(139.47 230.363)">
        <g id="Grupo_98163" data-name="Grupo 98163">
          <g id="Grupo_98162" data-name="Grupo 98162">
            <circle id="Elipse_4540" data-name="Elipse 4540" cx="4.964" cy="4.964" r="4.964" fill="#025482"/>
          </g>
        </g>
        <g id="Grupo_98166" data-name="Grupo 98166" transform="translate(2.215 2.215)">
          <g id="Grupo_98164" data-name="Grupo 98164" transform="translate(2.183)">
            <rect id="Rectángulo_33314" data-name="Rectángulo 33314" width="1.132" height="5.498" fill="#fff"/>
          </g>
          <g id="Grupo_98165" data-name="Grupo 98165" transform="translate(0 2.183)">
            <rect id="Rectángulo_33315" data-name="Rectángulo 33315" width="5.498" height="1.132" fill="#fff"/>
          </g>
        </g>
      </g>
      <g id="Grupo_98173" data-name="Grupo 98173" transform="translate(125.164 179.489)">
        <g id="Grupo_98169" data-name="Grupo 98169">
          <g id="Grupo_98168" data-name="Grupo 98168">
            <path id="Trazado_142485" data-name="Trazado 142485" d="M100.776,160.258A10.182,10.182,0,1,1,90.6,150.075,10.18,10.18,0,0,1,100.776,160.258Z" transform="translate(-80.413 -150.075)" fill="#ffd56c"/>
          </g>
        </g>
        <g id="Grupo_98172" data-name="Grupo 98172" transform="translate(3.053 6.135)">
          <g id="Grupo_98170" data-name="Grupo 98170">
            <path id="Trazado_142486" data-name="Trazado 142486" d="M96.536,157.867s-2.807,4.147-7.688,3.878a9.453,9.453,0,0,1-6.888-3.878s2.005-4.548,6.888-4.68A8.139,8.139,0,0,1,96.536,157.867Z" transform="translate(-81.96 -153.183)" fill="#fff"/>
          </g>
          <g id="Grupo_98171" data-name="Grupo 98171" transform="translate(4.346 1.281)">
            <path id="Trazado_142487" data-name="Trazado 142487" d="M90.314,156.907a3.076,3.076,0,1,1-3.075-3.075A3.075,3.075,0,0,1,90.314,156.907Z" transform="translate(-84.162 -153.832)" fill="#ffd56c"/>
          </g>
        </g>
      </g>
      <g id="Grupo_98179" data-name="Grupo 98179" transform="translate(121.037 146.712)">
        <g id="Grupo_98175" data-name="Grupo 98175">
          <g id="Grupo_98174" data-name="Grupo 98174">
            <circle id="Elipse_4541" data-name="Elipse 4541" cx="13.042" cy="13.042" r="13.042" fill="#062c3f"/>
          </g>
        </g>
        <g id="Grupo_98178" data-name="Grupo 98178" transform="translate(4.541 7.211)">
          <g id="Grupo_98176" data-name="Grupo 98176">
            <path id="Trazado_142488" data-name="Trazado 142488" d="M96.034,148.666H81.866a1.243,1.243,0,0,1-1.243-1.243v-9.058a1.243,1.243,0,0,1,1.243-1.243H96.034a1.243,1.243,0,0,1,1.243,1.243v9.058A1.243,1.243,0,0,1,96.034,148.666ZM83.11,146.18H94.791v-6.571H83.11Z" transform="translate(-80.623 -137.122)" fill="#fff"/>
          </g>
          <g id="Grupo_98177" data-name="Grupo 98177" transform="translate(0.497 0.249)">
            <path id="Trazado_142489" data-name="Trazado 142489" d="M88.906,144.952a1.242,1.242,0,0,1-.746-.249l-7.285-5.465,1.492-1.99,6.517,4.889,6.13-4.867,1.545,1.948-6.88,5.465A1.241,1.241,0,0,1,88.906,144.952Z" transform="translate(-80.875 -137.248)" fill="#fff"/>
          </g>
        </g>
      </g>
      <g id="Grupo_98190" data-name="Grupo 98190" transform="translate(53.401 125.098)">
        <g id="Grupo_98180" data-name="Grupo 98180">
          <circle id="Elipse_4542" data-name="Elipse 4542" cx="19.167" cy="19.167" r="19.167" fill="#97e4ff"/>
        </g>
        <g id="Grupo_98189" data-name="Grupo 98189" transform="translate(3.573 5.865)">
          <g id="Grupo_98181" data-name="Grupo 98181" transform="translate(0 9.963)">
            <path id="Trazado_142490" data-name="Trazado 142490" d="M52.994,144.793a7.128,7.128,0,1,1,7.129-7.127A7.136,7.136,0,0,1,52.994,144.793Zm0-11.769a4.641,4.641,0,1,0,4.642,4.642A4.647,4.647,0,0,0,52.994,133.024Z" transform="translate(-45.865 -130.537)" fill="#fff"/>
          </g>
          <g id="Grupo_98182" data-name="Grupo 98182" transform="translate(16.309 10.281)">
            <path id="Trazado_142491" data-name="Trazado 142491" d="M61.255,144.954a7.128,7.128,0,1,1,7.129-7.127A7.136,7.136,0,0,1,61.255,144.954Zm0-11.769a4.641,4.641,0,1,0,4.642,4.642A4.647,4.647,0,0,0,61.255,133.185Z" transform="translate(-54.128 -130.698)" fill="#fff"/>
          </g>
          <g id="Grupo_98183" data-name="Grupo 98183" transform="translate(6.385 7.773)">
            <path id="Trazado_142492" data-name="Trazado 142492" d="M60.457,139.767h-.016l-10.111-.118a1.243,1.243,0,0,1-1.074-1.845l4.283-7.735a1.244,1.244,0,0,1,2.086-.138l5.83,7.853a1.243,1.243,0,0,1-1,1.984Zm-8.017-2.582,5.525.065-3.186-4.289Z" transform="translate(-49.1 -129.427)" fill="#fff"/>
          </g>
          <g id="Grupo_98184" data-name="Grupo 98184" transform="translate(9.003 2.539)">
            <path id="Trazado_142493" data-name="Trazado 142493" d="M56.073,130.691a1.244,1.244,0,0,1-.385-.061l-4.4-1.427a1.244,1.244,0,0,1,.768-2.367l4.4,1.429a1.243,1.243,0,0,1-.383,2.426Z" transform="translate(-50.426 -126.775)" fill="#fff"/>
          </g>
          <g id="Grupo_98185" data-name="Grupo 98185" transform="translate(22.193 2.539)">
            <path id="Trazado_142494" data-name="Trazado 142494" d="M58.354,142.349c-.045,0-.091,0-.138-.006a1.245,1.245,0,0,1-1.1-1.374l1.445-13.088a1.243,1.243,0,1,1,2.471.274L59.59,141.242A1.246,1.246,0,0,1,58.354,142.349Z" transform="translate(-57.109 -126.775)" fill="#fff"/>
          </g>
          <g id="Grupo_98186" data-name="Grupo 98186" transform="translate(20.623)">
            <path id="Trazado_142495" data-name="Trazado 142495" d="M64.537,132.735a1.239,1.239,0,0,1-.7-.215l-6.979-4.759a1.243,1.243,0,0,1,1.4-2.055l6.981,4.759a1.242,1.242,0,0,1-.7,2.27Z" transform="translate(-56.313 -125.489)" fill="#fff"/>
          </g>
          <g id="Grupo_98187" data-name="Grupo 98187" transform="translate(17.742 15.627)">
            <rect id="Rectángulo_33316" data-name="Rectángulo 33316" width="5.695" height="2.487" fill="#fff"/>
          </g>
          <g id="Grupo_98188" data-name="Grupo 98188" transform="translate(10.788 3.61)">
            <path id="Trazado_142496" data-name="Trazado 142496" d="M52.574,134.206a1.243,1.243,0,0,1-1.243-1.243v-4.4a1.243,1.243,0,0,1,2.487,0v4.4A1.245,1.245,0,0,1,52.574,134.206Z" transform="translate(-51.331 -127.318)" fill="#fff"/>
          </g>
        </g>
      </g>
      <g id="Grupo_98191" data-name="Grupo 98191" transform="translate(107.207 280.484)">
        <path id="Trazado_142497" data-name="Trazado 142497" d="M78.225,201.264l-6.871-.02-.039,13.98a1.9,1.9,0,0,0,1.891,1.9l11.373.032c2.605.008,2.976-4.417-1.644-4.98-1.455-.178-4.135-.8-4.5-2.264A26.531,26.531,0,0,1,78.225,201.264Z" transform="translate(-71.315 -201.244)" fill="#abedff"/>
      </g>
      <g id="Grupo_98192" data-name="Grupo 98192" transform="translate(130.943 280.484)">
        <path id="Trazado_142498" data-name="Trazado 142498" d="M90.251,201.264l-6.871-.02-.039,13.98a1.9,1.9,0,0,0,1.891,1.9l11.373.032c2.605.008,2.976-4.417-1.646-4.98-1.455-.178-4.133-.8-4.494-2.264A26.531,26.531,0,0,1,90.251,201.264Z" transform="translate(-83.341 -201.244)" fill="#abedff"/>
      </g>
      <g id="Grupo_98193" data-name="Grupo 98193" transform="translate(82.818 176.091)">
        <path id="Trazado_142499" data-name="Trazado 142499" d="M82.6,189.837,62.165,183.9a3.643,3.643,0,0,1-3.18-4.054l.74-28.286a3.642,3.642,0,0,1,4.054-3.18L86.9,149.916a6.812,6.812,0,0,1,5.426,6.618l-5.673,30.123A3.643,3.643,0,0,1,82.6,189.837Z" transform="translate(-58.959 -148.353)" fill="#4396ca"/>
      </g>
      <g id="Grupo_98194" data-name="Grupo 98194" transform="translate(96.598 166.598)">
        <rect id="Rectángulo_33317" data-name="Rectángulo 33317" width="11.54" height="7.394" transform="translate(0 11.515) rotate(-86.249)" fill="#d8a252"/>
      </g>
      <g id="Grupo_98195" data-name="Grupo 98195" transform="translate(92.154 154.723)">
        <path id="Trazado_142500" data-name="Trazado 142500" d="M80.991,150.163a9.026,9.026,0,1,1-4.666-11.882A9.026,9.026,0,0,1,80.991,150.163Z" transform="translate(-63.688 -137.527)" fill="#d8a252"/>
      </g>
      <g id="Grupo_98196" data-name="Grupo 98196" transform="translate(96.414 216.568)">
        <path id="Trazado_142501" data-name="Trazado 142501" d="M72.363,177.191l-6.516-5.767,18.442-2.563Z" transform="translate(-65.847 -168.861)" fill="#66c7e2"/>
      </g>
      <g id="Grupo_98197" data-name="Grupo 98197" transform="translate(89.514 162.964)">
        <path id="Trazado_142502" data-name="Trazado 142502" d="M66.944,145.057A2.4,2.4,0,1,1,65.7,141.9,2.4,2.4,0,0,1,66.944,145.057Z" transform="translate(-62.351 -141.702)" fill="#d8a252"/>
      </g>
      <g id="Grupo_98198" data-name="Grupo 98198" transform="translate(78.456 192.527)">
        <path id="Trazado_142503" data-name="Trazado 142503" d="M57.543,157.049s7.816-.8,7.65-.039-6.247,13.244,3.385,17.395c8.86,3.819,15.182,5.933,18.427,5.787,3.456-.158,8.057,1.761,8.367,3.995s-3.626,3.618-5.566,2.053-2.771-2.065-3.7-1.622c-.963.46-8.051.618-21.828-4.65C56.965,177.169,55.609,167.462,57.543,157.049Z" transform="translate(-56.748 -156.68)" fill="#d8a252"/>
      </g>
      <g id="Grupo_98201" data-name="Grupo 98201" transform="translate(82.818 176.091)">
        <g id="Grupo_98200" data-name="Grupo 98200" clip-path="url(#clip-path)">
          <g id="Grupo_98199" data-name="Grupo 98199" transform="translate(11.762 -8.465)">
            <path id="Trazado_142504" data-name="Trazado 142504" d="M76.666,152.645a6.129,6.129,0,1,1-3.168-8.069A6.128,6.128,0,0,1,76.666,152.645Z" transform="translate(-64.918 -144.065)" fill="#d8a252"/>
          </g>
        </g>
      </g>
      <g id="Grupo_98202" data-name="Grupo 98202" transform="translate(76.89 175.947)">
        <path id="Trazado_142506" data-name="Trazado 142506" d="M69.868,150.688c2.923,5.489-2.627,19.12-2.627,19.12l-11.286-2.986s2.822-12.652,4.836-16.429C62.7,146.815,68.638,148.38,69.868,150.688Z" transform="translate(-55.955 -148.28)" fill="#58b1dd"/>
      </g>
      <g id="Grupo_98203" data-name="Grupo 98203" transform="translate(37.285 197.221)">
        <path id="Trazado_142507" data-name="Trazado 142507" d="M41.946,171.659c-1.806-1.808-6.057-12.6-6.057-12.6s10.792,4.251,12.6,6.057a4.626,4.626,0,0,1-6.541,6.543Z" transform="translate(-35.889 -159.059)" fill="#a0d5ea"/>
      </g>
      <g id="Grupo_98204" data-name="Grupo 98204" transform="translate(37.285 176.718)">
        <path id="Trazado_142508" data-name="Trazado 142508" d="M41.946,161.269c-1.806-1.806-6.057-12.6-6.057-12.6s10.792,4.249,12.6,6.057a4.625,4.625,0,0,1-6.541,6.541Z" transform="translate(-35.889 -148.671)" fill="#a0d5ea"/>
      </g>
      <g id="Grupo_98205" data-name="Grupo 98205" transform="translate(56.898 197.221)">
        <path id="Trazado_142509" data-name="Trazado 142509" d="M53.723,171.659c1.806-1.808,6.057-12.6,6.057-12.6s-10.792,4.251-12.6,6.057a4.626,4.626,0,0,0,6.541,6.543Z" transform="translate(-45.826 -159.059)" fill="#a0d5ea"/>
      </g>
      <g id="Grupo_98206" data-name="Grupo 98206" transform="translate(56.898 176.718)">
        <path id="Trazado_142510" data-name="Trazado 142510" d="M53.723,161.269c1.806-1.806,6.057-12.6,6.057-12.6s-10.792,4.249-12.6,6.057a4.625,4.625,0,0,0,6.541,6.541Z" transform="translate(-45.826 -148.671)" fill="#a0d5ea"/>
      </g>
      <g id="Grupo_98207" data-name="Grupo 98207" transform="translate(91.622 153.542)">
        <path id="Trazado_142511" data-name="Trazado 142511" d="M63.419,146.3s6.194-.484,9.361-1.922a10.268,10.268,0,0,0,4.93-4.261s.5,4.848,3.176,7.186,2.674,1.589,2.674,1.589-.584-7.439-6.6-10.615-9.026,0-11.2,2.005S63.419,146.3,63.419,146.3Z" transform="translate(-63.419 -136.929)" fill="#ffcb2f"/>
      </g>
      <g id="Grupo_98208" data-name="Grupo 98208" transform="translate(102.93 206.35)">
        <rect id="Rectángulo_33318" data-name="Rectángulo 33318" width="18.554" height="28.918" transform="translate(0 18.548) rotate(-88.576)" fill="#97e4ff"/>
      </g>
      <g id="Grupo_98209" data-name="Grupo 98209" transform="translate(115.86 213.058)">
        <circle id="Elipse_4543" data-name="Elipse 4543" cx="2.507" cy="2.507" r="2.507" fill="#abedff"/>
      </g>
      <g id="Grupo_98210" data-name="Grupo 98210" transform="translate(44.717 217.125)">
        <path id="Trazado_142512" data-name="Trazado 142512" d="M41.037,169.143H56.529a1.383,1.383,0,0,1,1.366,1.6l-2.242,14.395a1.383,1.383,0,0,1-1.368,1.17h-11a1.381,1.381,0,0,1-1.366-1.17L39.671,170.74A1.383,1.383,0,0,1,41.037,169.143Z" transform="translate(-39.655 -169.143)" fill="#abedff"/>
      </g>
      <g id="Grupo_98211" data-name="Grupo 98211" transform="translate(44.62 184.275)">
        <path id="Trazado_142513" data-name="Trazado 142513" d="M48.368,163.074l-8.686-10.06a.311.311,0,1,1,.47-.407l8.25,9.555,9.125-9.125a.311.311,0,1,1,.44.438Z" transform="translate(-39.605 -152.5)" fill="#61b3db"/>
      </g>
      <g id="Grupo_98212" data-name="Grupo 98212" transform="translate(44.842 205.003)">
        <path id="Trazado_142514" data-name="Trazado 142514" d="M48.26,172.21l-8.454-8.681a.311.311,0,0,1,.446-.434l8.039,8.256,9.361-8.272a.31.31,0,1,1,.411.466Z" transform="translate(-39.718 -163.001)" fill="#61b3db"/>
      </g>
      <g id="Grupo_98220" data-name="Grupo 98220" transform="translate(151.976 135.291)">
        <g id="Grupo_98214" data-name="Grupo 98214" transform="translate(0)">
          <g id="Grupo_98213" data-name="Grupo 98213">
            <circle id="Elipse_4544" data-name="Elipse 4544" cx="10.239" cy="10.239" r="10.239" fill="#4396ca"/>
          </g>
        </g>
        <g id="Grupo_98215" data-name="Grupo 98215" transform="translate(4.75 4.66)">
          <path id="Trazado_142515" data-name="Trazado 142515" d="M97.647,140.684a1.243,1.243,0,0,1-.868-2.134l8.361-8.154a1.244,1.244,0,0,1,1.737,1.78l-8.361,8.154A1.239,1.239,0,0,1,97.647,140.684Z" transform="translate(-96.404 -130.043)" fill="#fff"/>
        </g>
        <g id="Grupo_98216" data-name="Grupo 98216" transform="translate(5.271 4.871)">
          <circle id="Elipse_4545" data-name="Elipse 4545" cx="1.961" cy="1.961" r="1.961" fill="#fff"/>
        </g>
        <g id="Grupo_98217" data-name="Grupo 98217" transform="translate(11.568 10.96)">
          <path id="Trazado_142516" data-name="Trazado 142516" d="M103.78,135.2a1.961,1.961,0,1,1-1.96-1.962A1.961,1.961,0,0,1,103.78,135.2Z" transform="translate(-99.858 -133.235)" fill="#fff"/>
        </g>
        <g id="Grupo_98218" data-name="Grupo 98218" transform="translate(12.712 12.105)">
          <path id="Trazado_142517" data-name="Trazado 142517" d="M102.072,134.632a.817.817,0,1,1-.817-.817A.817.817,0,0,1,102.072,134.632Z" transform="translate(-100.438 -133.815)" fill="#4396ca"/>
        </g>
        <g id="Grupo_98219" data-name="Grupo 98219" transform="translate(6.415 6.015)">
          <circle id="Elipse_4546" data-name="Elipse 4546" cx="0.817" cy="0.817" r="0.817" fill="#4396ca"/>
        </g>
      </g>
    </g>
  </g>
</svg>
