<svg xmlns="http://www.w3.org/2000/svg" width="168" height="167" viewBox="0 0 168 167">
  <g id="Grupo_99468" data-name="Grupo 99468" transform="translate(-814.919 -1585)">
    <g id="Rectángulo_32955" data-name="Rectángulo 32955" transform="translate(814.919 1702)" fill="#5cd8a0" stroke="#0a5936" stroke-width="3">
      <rect width="168" height="50" rx="12" stroke="none"/>
      <rect x="1.5" y="1.5" width="165" height="47" rx="10.5" fill="none"/>
    </g>
    <path id="Feature_One" data-name="Feature One" d="M-64.985-2.637h5.967V0h-9.395V-14.219h3.428ZM-52.612.2a5.432,5.432,0,0,1-3.936-1.45,5.008,5.008,0,0,1-1.5-3.774V-5.3a6.489,6.489,0,0,1,.6-2.861A4.395,4.395,0,0,1-55.7-10.083a5.292,5.292,0,0,1,2.734-.679A4.574,4.574,0,0,1-49.448-9.38a5.43,5.43,0,0,1,1.289,3.853v1.279H-54.7a2.372,2.372,0,0,0,.771,1.4,2.3,2.3,0,0,0,1.543.508,2.958,2.958,0,0,0,2.441-1.094l1.5,1.777A4.2,4.2,0,0,1-50.186-.308,5.891,5.891,0,0,1-52.612.2Zm-.371-8.418q-1.445,0-1.719,1.914h3.32v-.254a1.63,1.63,0,0,0-.4-1.226A1.593,1.593,0,0,0-52.983-8.223Zm5.762,2.861a7.134,7.134,0,0,1,.527-2.832,4.245,4.245,0,0,1,1.514-1.9,3.99,3.99,0,0,1,2.295-.669,3.173,3.173,0,0,1,2.578,1.113l.117-.918H-37.2V-.4a4.455,4.455,0,0,1-.649,2.427,4.167,4.167,0,0,1-1.88,1.582,6.91,6.91,0,0,1-2.852.552,5.961,5.961,0,0,1-2.251-.439A4.063,4.063,0,0,1-46.5,2.578L-45.122.645A3.018,3.018,0,0,0-42.7,1.729,1.96,1.96,0,0,0-40.513-.518V-.85A3.09,3.09,0,0,1-42.905.2,3.819,3.819,0,0,1-46.03-1.284a6.13,6.13,0,0,1-1.191-3.96Zm3.3.205A3.759,3.759,0,0,0-43.433-3.1a1.541,1.541,0,0,0,1.367.757,1.748,1.748,0,0,0,1.553-.713V-7.5a1.7,1.7,0,0,0-1.533-.723,1.551,1.551,0,0,0-1.377.786A4.287,4.287,0,0,0-43.921-5.156ZM-29.38,0a3.716,3.716,0,0,1-.312-.947A3.06,3.06,0,0,1-32.231.2a3.749,3.749,0,0,1-2.539-.9,2.875,2.875,0,0,1-1.045-2.271,2.955,2.955,0,0,1,1.27-2.6,6.468,6.468,0,0,1,3.691-.879h1.016v-.557q0-1.455-1.26-1.455a1.027,1.027,0,0,0-1.172,1.152h-3.291a2.955,2.955,0,0,1,1.3-2.49,5.474,5.474,0,0,1,3.325-.957,4.8,4.8,0,0,1,3.193.986,3.429,3.429,0,0,1,1.2,2.705v4.678a4.79,4.79,0,0,0,.449,2.227V0ZM-31.44-2.148a1.836,1.836,0,0,0,1.021-.264,1.653,1.653,0,0,0,.581-.6V-4.7H-30.8q-1.719,0-1.719,1.543a.942.942,0,0,0,.3.728A1.1,1.1,0,0,0-31.44-2.148ZM-21.245,0h-3.3V-15h3.3Zm11.23-4.609,1.758-5.957h3.525L-9.038,1.768l-.186.449a3.272,3.272,0,0,1-3.242,2.051,5.139,5.139,0,0,1-1.357-.2V1.719h.43a2.252,2.252,0,0,0,1.06-.2A1.215,1.215,0,0,0-11.792.8l.264-.7L-15.2-10.566h3.516Zm14.7-.215V0H1.255V-14.219H6.929a6.608,6.608,0,0,1,2.886.6,4.526,4.526,0,0,1,1.943,1.709,4.667,4.667,0,0,1,.688,2.515,4.114,4.114,0,0,1-1.489,3.325A6.179,6.179,0,0,1,6.87-4.824Zm0-2.646H6.929a2.118,2.118,0,0,0,1.519-.5A1.85,1.85,0,0,0,8.97-9.375a2.287,2.287,0,0,0-.537-1.592,1.9,1.9,0,0,0-1.465-.605H4.683Zm8.9,2.09A6.236,6.236,0,0,1,14.194-8.2a4.4,4.4,0,0,1,1.768-1.9,5.323,5.323,0,0,1,2.705-.664,4.858,4.858,0,0,1,3.74,1.47,5.64,5.64,0,0,1,1.367,4v.117A5.472,5.472,0,0,1,22.4-1.255,4.871,4.871,0,0,1,18.687.2a4.927,4.927,0,0,1-3.623-1.353,5.29,5.29,0,0,1-1.475-3.667Zm3.291.205a3.932,3.932,0,0,0,.459,2.148,1.529,1.529,0,0,0,1.357.684q1.758,0,1.8-2.705v-.332q0-2.842-1.816-2.842-1.65,0-1.787,2.451ZM28.7,0H25.4V-15h3.3Zm5.615,0H31V-10.566h3.311Zm-1.23-14.8h3.477l-2.715,3.066H31.157Zm7.178,1.611v2.627H42v2.285H40.259v4.834a1.234,1.234,0,0,0,.215.83,1.152,1.152,0,0,0,.85.234,4.828,4.828,0,0,0,.82-.059V-.088A6.074,6.074,0,0,1,40.288.2a3.448,3.448,0,0,1-2.51-.8,3.282,3.282,0,0,1-.811-2.432V-8.281H35.62v-2.285h1.348v-2.627ZM46.763,0h-3.3V-10.566h3.3Zm-3.5-13.291a1.469,1.469,0,0,1,.508-1.152,1.916,1.916,0,0,1,1.318-.449,1.916,1.916,0,0,1,1.318.449,1.469,1.469,0,0,1,.508,1.152,1.469,1.469,0,0,1-.508,1.152,1.916,1.916,0,0,1-1.318.449,1.916,1.916,0,0,1-1.318-.449A1.469,1.469,0,0,1,43.267-13.291Zm9.99,10.947a1.464,1.464,0,0,0,1.074-.376A1.379,1.379,0,0,0,54.7-3.77h3.086A3.653,3.653,0,0,1,56.543-.918,4.631,4.631,0,0,1,53.335.2,4.689,4.689,0,0,1,49.7-1.25a5.7,5.7,0,0,1-1.328-4v-.137a6.436,6.436,0,0,1,.591-2.827,4.3,4.3,0,0,1,1.7-1.885,5.081,5.081,0,0,1,2.637-.659,4.573,4.573,0,0,1,3.271,1.143,4.053,4.053,0,0,1,1.211,3.1H54.7a1.807,1.807,0,0,0-.4-1.26,1.382,1.382,0,0,0-1.074-.439q-1.279,0-1.494,1.631a11.507,11.507,0,0,0-.068,1.426,4.52,4.52,0,0,0,.381,2.207A1.319,1.319,0,0,0,53.257-2.344Zm5.508-3.037A6.236,6.236,0,0,1,59.38-8.2a4.4,4.4,0,0,1,1.768-1.9,5.323,5.323,0,0,1,2.705-.664,4.858,4.858,0,0,1,3.74,1.47,5.64,5.64,0,0,1,1.367,4v.117a5.472,5.472,0,0,1-1.372,3.921A4.871,4.871,0,0,1,63.872.2a4.927,4.927,0,0,1-3.623-1.353,5.29,5.29,0,0,1-1.475-3.667Zm3.291.205a3.932,3.932,0,0,0,.459,2.148,1.529,1.529,0,0,0,1.357.684q1.758,0,1.8-2.705v-.332q0-2.842-1.816-2.842-1.65,0-1.787,2.451Z" transform="translate(898.919 1735)" fill="#12263f"/>
    <g id="Trazado_140999" data-name="Trazado 140999" transform="translate(834.919 1585)" fill="#fff">
      <path d="M 64 127.5 C 55.56334686279297 127.5 47.37974548339844 125.8350524902344 39.67650985717773 122.551399230957 C 35.97372817993164 120.973014831543 32.40221786499023 119.0193099975586 29.06119918823242 116.7445297241211 C 25.75130844116211 114.4909439086914 22.63874626159668 111.9027481079102 19.80994606018066 109.0518569946289 C 16.9809627532959 106.2007598876953 14.41258144378662 103.0635452270508 12.17614555358887 99.72734832763672 C 9.918381690979004 96.35929107666016 7.979236125946045 92.75879669189453 6.412563800811768 89.02583312988281 C 3.152818202972412 81.25872802734375 1.5 73.00705718994141 1.5 64.5 C 1.5 55.99294662475586 3.152818202972412 47.74127197265625 6.412563800811768 39.97416305541992 C 7.979236125946045 36.2411994934082 9.918381690979004 32.64070892333984 12.17614555358887 29.27265548706055 C 14.41258144378662 25.93645477294922 16.9809627532959 22.79923629760742 19.80994606018066 19.94814491271973 C 22.63874626159668 17.09725379943848 25.75130844116211 14.50905418395996 29.06119918823242 12.25547313690186 C 32.40221786499023 9.980690956115723 35.97372817993164 8.026981353759766 39.67650985717773 6.448599815368652 C 47.37974548339844 3.164945363998413 55.56334686279297 1.5 64 1.5 C 72.43665313720703 1.5 80.62025451660156 3.164945363998413 88.32349395751953 6.448599815368652 C 92.02627563476562 8.026981353759766 95.5977783203125 9.980690956115723 98.93879699707031 12.25547313690186 C 102.2486877441406 14.50905418395996 105.3612518310547 17.09725379943848 108.190055847168 19.94814491271973 C 111.0190353393555 22.79923629760742 113.5874176025391 25.93645477294922 115.8238525390625 29.27265548706055 C 118.0816192626953 32.64070892333984 120.0207672119141 36.2411994934082 121.5874328613281 39.97416305541992 C 124.8471832275391 47.74127197265625 126.5 55.99294662475586 126.5 64.5 C 126.5 73.00705718994141 124.8471832275391 81.25872802734375 121.5874328613281 89.02583312988281 C 120.0207672119141 92.75879669189453 118.0816192626953 96.35929107666016 115.8238525390625 99.72734832763672 C 113.5874176025391 103.0635452270508 111.0190353393555 106.2007598876953 108.190055847168 109.0518569946289 C 105.3612518310547 111.9027481079102 102.2486877441406 114.4909439086914 98.93879699707031 116.7445297241211 C 95.5977783203125 119.0193099975586 92.02627563476562 120.973014831543 88.32349395751953 122.551399230957 C 80.62025451660156 125.8350524902344 72.43665313720703 127.5 64 127.5 Z" stroke="none"/>
      <path d="M 64 3 C 55.76663970947266 3 47.78092193603516 4.624519348144531 40.26470184326172 7.828460693359375 C 36.65138244628906 9.368698120117188 33.16602325439453 11.27532196044922 29.90538024902344 13.49537658691406 C 26.67453765869141 15.69513702392578 23.63617706298828 18.22164154052734 20.87471771240234 21.00466156005859 C 18.11287689208984 23.78810119628906 15.60546112060547 26.85086059570312 13.42209625244141 30.10787963867188 C 11.21804046630859 33.39582061767578 9.325042724609375 36.91062164306641 7.795700073242188 40.55464172363281 C 4.613502502441406 48.136962890625 3 56.19333648681641 3 64.5 C 3 72.80665588378906 4.613502502441406 80.863037109375 7.795700073242188 88.44535827636719 C 9.325042724609375 92.08937835693359 11.21804046630859 95.60417938232422 13.42209625244141 98.89212036132812 C 15.60546112060547 102.1491394042969 18.11287689208984 105.2118988037109 20.87471771240234 107.9953384399414 C 23.63617706298828 110.7783584594727 26.67453765869141 113.3048629760742 29.90538024902344 115.5046234130859 C 33.16602325439453 117.7246780395508 36.65138244628906 119.6313018798828 40.26470184326172 121.1715393066406 C 47.78092193603516 124.3754806518555 55.76663970947266 126 64 126 C 72.23336029052734 126 80.21908569335938 124.3754806518555 87.73529815673828 121.1715393066406 C 91.34861755371094 119.6313018798828 94.833984375 117.7246780395508 98.09461975097656 115.5046234130859 C 101.3254623413086 113.3048629760742 104.3638153076172 110.7783584594727 107.1252822875977 107.9953384399414 C 109.8871154785156 105.2118988037109 112.3945388793945 102.1491394042969 114.5778961181641 98.89212036132812 C 116.7819595336914 95.60417938232422 118.6749572753906 92.08937835693359 120.2042999267578 88.44535827636719 C 123.3864974975586 80.863037109375 125 72.80665588378906 125 64.5 C 125 56.19333648681641 123.3864974975586 48.136962890625 120.2042999267578 40.55464172363281 C 118.6749572753906 36.91062164306641 116.7819595336914 33.39582061767578 114.5778961181641 30.10787963867188 C 112.3945388793945 26.85086059570312 109.8871154785156 23.78810119628906 107.1252822875977 21.00466156005859 C 104.3638153076172 18.22164154052734 101.3254623413086 15.69513702392578 98.09461975097656 13.49537658691406 C 94.833984375 11.27532196044922 91.34861755371094 9.368698120117188 87.73529815673828 7.828460693359375 C 80.21908569335938 4.624519348144531 72.23336029052734 3 64 3 M 64 0 C 99.34622192382812 0 128 28.87763977050781 128 64.5 C 128 100.1223602294922 99.34622192382812 129 64 129 C 28.65377807617188 129 0 100.1223602294922 0 64.5 C 0 28.87763977050781 28.65377807617188 0 64 0 Z" stroke="none" fill="#0a5936"/>
    </g>
    <g id="ley" transform="translate(861.302 1602.356)">
      <g id="Grupo_97126" data-name="Grupo 97126" transform="translate(1.099 12.27)">
        <g id="Grupo_97124" data-name="Grupo 97124">
          <path id="Trazado_140945" data-name="Trazado 140945" d="M271.174,393.652H243.826a3.322,3.322,0,0,0-3.322,3.322V403H274.5v-6.026A3.322,3.322,0,0,0,271.174,393.652Z" transform="translate(-206.262 -338.549)" fill="#17c878"/>
          <path id="Trazado_140946" data-name="Trazado 140946" d="M251.1,393.649a3.323,3.323,0,0,0-3.323,3.323V403H240.5v-6.026a3.323,3.323,0,0,1,3.321-3.323Z" transform="translate(-206.261 -338.546)" fill="#5cd8a0"/>
          <g id="Grupo_97122" data-name="Grupo 97122">
            <path id="Trazado_140947" data-name="Trazado 140947" d="M8.75,234.6a4.327,4.327,0,0,1,0-6.12l16.923-16.923,6.12,6.12L14.87,234.6a4.327,4.327,0,0,1-6.12,0Z" transform="translate(-7.483 -183.211)" fill="#f1d54e"/>
            <path id="Trazado_140948" data-name="Trazado 140948" d="M10.316,235.595a4.279,4.279,0,0,1-1.565-1,4.327,4.327,0,0,1,0-6.119l16.923-16.923,2.566,2.566L11.317,231.041a4.323,4.323,0,0,0-1,4.554Z" transform="translate(-7.484 -183.208)" fill="#fb9e36"/>
            <path id="Trazado_140949" data-name="Trazado 140949" d="M0,0H29.8V20.26H0Z" transform="translate(26.912 4.667) rotate(45)" fill="#f1d54e"/>
            <path id="Trazado_140950" data-name="Trazado 140950" d="M0,0H5.508V20.26H0Z" transform="translate(44.089 21.841) rotate(45)" fill="#f1d54e"/>
            <path id="Trazado_140951" data-name="Trazado 140951" d="M0,0H29.8V6.2H0Z" transform="translate(16.974 14.606) rotate(45)" fill="#fb9e36"/>
            <path id="Trazado_140952" data-name="Trazado 140952" d="M62.48,39.541a3.836,3.836,0,0,1,0-5.424L76.806,19.791a3.836,3.836,0,0,1,5.424,5.424L67.9,39.541A3.836,3.836,0,0,1,62.48,39.541Z" transform="translate(-53.44 -18.667)" fill="#f1d54e"/>
            <path id="Trazado_140953" data-name="Trazado 140953" d="M74.3,85.691l-6.4,6.4a3.836,3.836,0,0,1-5.425-5.425l6.4-6.4A3.836,3.836,0,0,0,74.3,85.691Z" transform="translate(-53.439 -71.214)" fill="#fb9e36"/>
            <path id="Trazado_140954" data-name="Trazado 140954" d="M217.233,194.294a3.836,3.836,0,0,1,0-5.424l14.326-14.326a3.836,3.836,0,0,1,5.424,5.424l-14.326,14.326A3.836,3.836,0,0,1,217.233,194.294Z" transform="translate(-185.452 -150.68)" fill="#f1d54e"/>
            <path id="Trazado_140955" data-name="Trazado 140955" d="M229.054,240.444l-6.4,6.4a3.836,3.836,0,0,1-5.425-5.425l6.4-6.4a3.836,3.836,0,0,0,5.425,5.425Z" transform="translate(-185.451 -203.227)" fill="#fb9e36"/>
            <path id="Trazado_140956" data-name="Trazado 140956" d="M113.544,199.285l-8.137-8.137a2.8,2.8,0,0,1,3.964-3.964l8.137,8.137a2.8,2.8,0,0,1-3.964,3.964Z" transform="translate(-90.317 -161.721)" fill="#f1d54e"/>
            <path id="Trazado_140957" data-name="Trazado 140957" d="M109.376,195.108l-3.965-3.965a2.8,2.8,0,1,1,3.964-3.964l3.965,3.965a2.8,2.8,0,1,0-3.964,3.964Z" transform="translate(-90.319 -161.715)" fill="#fb9e36"/>
          </g>
          <path id="Trazado_140958" data-name="Trazado 140958" d="M247.216,435.853H212.07a4.222,4.222,0,1,0,0,8.444h35.146a4.222,4.222,0,1,0,0-8.444Z" transform="translate(-178.405 -374.548)" fill="#5cd8a0"/>
          <path id="Trazado_140959" data-name="Trazado 140959" d="M219.314,443.061A4.2,4.2,0,0,0,222.3,444.3H212.071a4.222,4.222,0,1,1,0-8.444H222.3a4.221,4.221,0,0,0-2.986,7.207Z" transform="translate(-178.406 -374.549)" fill="#17c878"/>
          <g id="Grupo_97123" data-name="Grupo 97123" transform="translate(51.238 32.699)">
            <path id="Trazado_140960" data-name="Trazado 140960" d="M357.521,247.659l.262.07a1.821,1.821,0,0,0,2.191-1.175l.947-2.789a1.821,1.821,0,0,0-1.259-2.346l-.652-.173a1.821,1.821,0,0,0-2.254,1.416l-.557,2.892A1.821,1.821,0,0,0,357.521,247.659Z" transform="translate(-356.165 -241.185)" fill="#dce6fd"/>
            <path id="Trazado_140961" data-name="Trazado 140961" d="M402.718,277.844l.192.191a1.821,1.821,0,0,0,2.485.078l2.214-1.942a1.821,1.821,0,0,0,.083-2.661l-.479-.475a1.821,1.821,0,0,0-2.66.1l-1.928,2.226A1.822,1.822,0,0,0,402.718,277.844Z" transform="translate(-395.418 -267.903)" fill="#dce6fd"/>
            <path id="Trazado_140962" data-name="Trazado 140962" d="M430.213,329.684l.071.262a1.821,1.821,0,0,0,2.113,1.31l2.889-.575a1.821,1.821,0,0,0,1.4-2.263l-.177-.651a1.821,1.821,0,0,0-2.354-1.244l-2.783.964A1.822,1.822,0,0,0,430.213,329.684Z" transform="translate(-419.277 -313.896)" fill="#dce6fd"/>
          </g>
        </g>
        <path id="Trazado_140963" data-name="Trazado 140963" d="M366.779,45.689a4.2,4.2,0,0,1-2.932-1.195l-6.419-6.273a4.195,4.195,0,1,1,5.864-6l2.5,2.448,4.309-7.686a4.195,4.195,0,1,1,7.318,4.1l-6.985,12.46a4.194,4.194,0,0,1-3.659,2.144Z" transform="translate(-304.927 -23.931)" fill="#17c878"/>
        <g id="Grupo_97125" data-name="Grupo 97125" transform="translate(51.238 0.907)">
          <path id="Trazado_140964" data-name="Trazado 140964" d="M424.725,37.537l5.917-10.555a4.173,4.173,0,0,1,1.345-1.444c-.085-.056-.17-.113-.26-.163a4.2,4.2,0,0,0-5.711,1.608l-4.309,7.686Z" transform="translate(-412.077 -24.838)" fill="#17c878"/>
          <path id="Trazado_140965" data-name="Trazado 140965" d="M368.473,80.422l-6.419-6.273a4.191,4.191,0,0,1,.619-6.5,4.194,4.194,0,0,0-5.244,6.5l6.419,6.273a4.191,4.191,0,0,0,5.244.5A4.209,4.209,0,0,1,368.473,80.422Z" transform="translate(-356.165 -60.766)" fill="#5cd8a0"/>
        </g>
      </g>
      <g id="Grupo_97127" data-name="Grupo 97127" transform="translate(0 11.168)">
        <path id="Trazado_140966" data-name="Trazado 140966" d="M31.41,50.549a4.938,4.938,0,0,0,7.673,6.115L53.41,42.338a4.937,4.937,0,0,0-6.115-7.674L31.36,18.73a4.938,4.938,0,0,0-7.674-6.116L22.5,13.8a1.1,1.1,0,0,0,1.559,1.559l1.186-1.186a2.734,2.734,0,0,1,3.868,3.864l0,0L14.784,32.364l0,0A2.734,2.734,0,0,1,10.919,28.5L20.944,18.474a1.1,1.1,0,1,0-1.559-1.559L9.36,26.939a4.938,4.938,0,0,0,6.115,7.674l1.414,1.414a3.9,3.9,0,0,0-1.479,6.449l.229.229L1.587,56.758a5.429,5.429,0,0,0,7.678,7.678L23.317,50.384l.229.229A3.9,3.9,0,0,0,30,49.135ZM51.851,36.913a2.737,2.737,0,0,1,0,3.866L37.525,55.105a2.734,2.734,0,0,1-3.866-3.866L47.985,36.914a2.737,2.737,0,0,1,3.866,0ZM32.88,48.9,17.122,33.144,29.89,20.377,45.647,36.134ZM7.707,62.878a3.225,3.225,0,0,1-4.561-4.561L17.2,44.265l4.561,4.561Zm19.8-13.823a1.7,1.7,0,0,1-2.405,0l-8.137-8.137a1.7,1.7,0,0,1,2.405-2.406l8.137,8.137A1.7,1.7,0,0,1,27.511,49.055Z" transform="translate(0 -11.168)" fill="#0a5936"/>
        <path id="Trazado_140967" data-name="Trazado 140967" d="M241.343,392.378v-1.8a4.429,4.429,0,0,0-4.423-4.425H216.4a1.1,1.1,0,1,0,0,2.2H236.92a2.222,2.222,0,0,1,2.219,2.22v1.777H207.351v-1.777a2.223,2.223,0,0,1,2.22-2.22h2.435a1.1,1.1,0,1,0,0-2.2h-2.435a4.43,4.43,0,0,0-4.425,4.425v1.8A5.324,5.324,0,0,0,205.672,403h35.146a5.324,5.324,0,0,0,.525-10.622Zm-.525,8.418H205.672a3.12,3.12,0,0,1,0-6.24h35.146a3.12,3.12,0,0,1,0,6.24Z" transform="translate(-170.907 -331.047)" fill="#0a5936"/>
        <path id="Trazado_140968" data-name="Trazado 140968" d="M355.377,235.405a2.933,2.933,0,0,0-1.828-1.444l-.652-.173a2.924,2.924,0,0,0-3.619,2.273l-.557,2.892a2.932,2.932,0,0,0,2.122,3.379h0l.262.07a2.9,2.9,0,0,0,.743.1,2.935,2.935,0,0,0,2.773-1.983l.947-2.789a2.933,2.933,0,0,0-.192-2.322Zm-1.9,1.613-.947,2.789a.721.721,0,0,1-.865.464l-.262-.069a.721.721,0,0,1-.522-.831l.557-2.892a.719.719,0,0,1,.89-.559l.652.173a.719.719,0,0,1,.5.926Z" transform="translate(-297.433 -200.992)" fill="#0a5936"/>
        <path id="Trazado_140969" data-name="Trazado 140969" d="M395.561,272.229l.193.191a2.932,2.932,0,0,0,3.988.125l2.214-1.942a2.923,2.923,0,0,0,.133-4.271l-.478-.476a2.923,2.923,0,0,0-4.27.159l-1.928,2.226a2.933,2.933,0,0,0,.149,3.988Zm1.517-2.544,1.928-2.226a.719.719,0,0,1,1.05-.039l.478.476a.719.719,0,0,1-.033,1.051l-2.214,1.942a.721.721,0,0,1-.981-.031l-.193-.191A.722.722,0,0,1,397.079,269.685Z" transform="translate(-336.701 -227.705)" fill="#0a5936"/>
        <path id="Trazado_140970" data-name="Trazado 140970" d="M422.827,323.846a2.924,2.924,0,0,0,3.392,2.1l2.889-.575a2.923,2.923,0,0,0,2.251-3.632l-.176-.651a2.923,2.923,0,0,0-3.778-2l-2.783.964a2.932,2.932,0,0,0-1.865,3.528Zm2.515-1.707,2.783-.964a.715.715,0,0,1,.235-.04.726.726,0,0,1,.336.084.714.714,0,0,1,.358.448l.177.651a.719.719,0,0,1-.554.894l-2.889.575a.721.721,0,0,1-.834-.517l-.071-.262A.721.721,0,0,1,425.342,322.139Z" transform="translate(-360.547 -273.707)" fill="#0a5936"/>
        <path id="Trazado_140971" data-name="Trazado 140971" d="M356.679,38.893a5.268,5.268,0,0,0,3.7,1.509A5.3,5.3,0,0,0,365,37.7l6.985-12.46a5.3,5.3,0,1,0-9.241-5.181l-3.606,6.431-1.476-1.442a5.3,5.3,0,0,0-7.4,7.577ZM351.751,26.67a3.072,3.072,0,0,1,2.176-.931h.037a3.071,3.071,0,0,1,2.161.881l2.5,2.448a1.1,1.1,0,0,0,1.732-.249l4.309-7.686a3.093,3.093,0,1,1,5.4,3.025l-6.985,12.46a3.093,3.093,0,0,1-2.7,1.58,3.075,3.075,0,0,1-2.161-.881L351.8,31.044a3.093,3.093,0,0,1-.05-4.374Z" transform="translate(-297.43 -16.44)" fill="#0a5936"/>
      </g>
    </g>
  </g>
</svg>
