<svg xmlns="http://www.w3.org/2000/svg" width="152" height="153" viewBox="0 0 152 153">
  <g id="Grupo_99307" data-name="Grupo 99307" transform="translate(-468 -3388)">
    <g id="Grupo_97406" data-name="Grupo 97406" transform="translate(0 2444)">
      <ellipse id="Elipse_4192" data-name="Elipse 4192" cx="76" cy="76.5" rx="76" ry="76.5" transform="translate(468 944)" fill="#fff"/>
    </g>
    <g id="equipo" transform="translate(500.492 3413.796)">
      <g id="Grupo_98034" data-name="Grupo 98034" transform="translate(22.526 28.64)">
        <g id="Grupo_98030" data-name="Grupo 98030">
          <path id="Trazado_142390" data-name="Trazado 142390" d="M137.66,199.084a19.482,19.482,0,1,1,19.456,0" transform="translate(-127.906 -162.718)" fill="#ffd89e"/>
        </g>
        <g id="Grupo_98033" data-name="Grupo 98033" transform="translate(9.754 7.247)">
          <g id="Grupo_98031" data-name="Grupo 98031" transform="translate(1.724 0)">
            <ellipse id="Elipse_4517" data-name="Elipse 4517" cx="7.977" cy="7.978" rx="7.977" ry="7.978" transform="translate(0 0.08) rotate(-0.286)" fill="#ffcbbe"/>
          </g>
          <g id="Grupo_98032" data-name="Grupo 98032" transform="translate(0 20.569)">
            <path id="Trazado_142391" data-name="Trazado 142391" d="M202.777,323.413V329.3a19.5,19.5,0,0,1-19.456,0v-5.891a2.66,2.66,0,0,1,2.659-2.659h14.138A2.66,2.66,0,0,1,202.777,323.413Z" transform="translate(-183.321 -320.754)" fill="#f5737f"/>
          </g>
        </g>
      </g>
      <g id="Grupo_98036" data-name="Grupo 98036" transform="translate(64.637 21.979)">
        <g id="Grupo_98035" data-name="Grupo 98035">
          <path id="Trazado_142392" data-name="Trazado 142392" d="M368.921,128.39a1.76,1.76,0,1,1,1.722-1.4A1.777,1.777,0,0,1,368.921,128.39Z" transform="translate(-367.163 -124.874)"/>
        </g>
      </g>
      <g id="Grupo_98037" data-name="Grupo 98037" transform="translate(73.454 1.723)">
        <ellipse id="Elipse_4518" data-name="Elipse 4518" cx="7.444" cy="7.444" rx="7.444" ry="7.444" transform="translate(0 14.889) rotate(-89.714)" fill="#f5737f"/>
      </g>
      <g id="Grupo_98038" data-name="Grupo 98038" transform="translate(1.74 70.26)">
        <ellipse id="Elipse_4519" data-name="Elipse 4519" cx="9.028" cy="9.027" rx="9.028" ry="9.027" transform="translate(0 18.056) rotate(-89.771)" fill="#9bc6ff"/>
      </g>
      <g id="Grupo_98039" data-name="Grupo 98039" transform="translate(61.012 67.105)">
        <ellipse id="Elipse_4520" data-name="Elipse 4520" cx="10.106" cy="10.106" rx="10.106" ry="10.106" transform="translate(0 0.141) rotate(-0.401)" fill="#8481e2"/>
      </g>
      <g id="Grupo_98043" data-name="Grupo 98043" transform="translate(0.016)">
        <g id="Grupo_98041" data-name="Grupo 98041" transform="translate(4.646 10.775)">
          <g id="Grupo_98040" data-name="Grupo 98040" transform="translate(0)">
            <ellipse id="Elipse_4521" data-name="Elipse 4521" cx="7.068" cy="7.067" rx="7.068" ry="7.067" transform="translate(0 14.135) rotate(-89.714)" fill="#ffcb7c"/>
          </g>
        </g>
        <g id="Grupo_98042" data-name="Grupo 98042">
          <path id="Trazado_142393" data-name="Trazado 142393" d="M193.006,213.656a9.738,9.738,0,1,0-9.737-9.738A9.748,9.748,0,0,0,193.006,213.656Zm0-15.955a6.218,6.218,0,1,1-6.217,6.218A6.224,6.224,0,0,1,193.006,197.7Z" transform="translate(-151.015 -160.003)" fill="#0a5936"/>
          <path id="Trazado_142394" data-name="Trazado 142394" d="M403.846,0a9.2,9.2,0,0,0-7.631,14.346l-3.783,3.783a1.76,1.76,0,1,0,2.489,2.489l3.783-3.783A9.2,9.2,0,1,0,403.846,0Zm0,14.889A5.684,5.684,0,1,1,409.53,9.2,5.691,5.691,0,0,1,403.846,14.889Z" transform="translate(-322.939)" fill="#0a5936"/>
          <path id="Trazado_142395" data-name="Trazado 142395" d="M71.218,107.757a11.8,11.8,0,0,0-7.1,2.363l-5.9-5.9a21.206,21.206,0,0,0,0-27.437l5.018-5.018a1.76,1.76,0,1,0-2.489-2.489l-5.018,5.018a21.2,21.2,0,0,0-27.433,0l-9.167-9.167a8.835,8.835,0,1,0-2.489,2.489L25.8,76.778a21.206,21.206,0,0,0,0,27.437l-8.718,8.719a10.8,10.8,0,1,0,2.489,2.489l8.715-8.715a21.2,21.2,0,0,0,27.445,0l5.914,5.914a11.861,11.861,0,1,0,9.574-4.865ZM6.458,60.252a5.307,5.307,0,1,1,5.307,5.308A5.313,5.313,0,0,1,6.458,60.252ZM42.007,72.773A17.722,17.722,0,0,1,53.5,103.988v-2.5a4.424,4.424,0,0,0-4.419-4.419H34.939a4.424,4.424,0,0,0-4.419,4.419v2.5A17.722,17.722,0,0,1,42.007,72.773Zm-31.2,56.2a7.268,7.268,0,1,1,7.267-7.268A7.276,7.276,0,0,1,10.8,128.97ZM49.975,106.33a17.755,17.755,0,0,1-15.936,0v-4.842a.9.9,0,0,1,.9-.9H49.076a.9.9,0,0,1,.9.9v4.842Zm21.242,21.64a8.346,8.346,0,1,1,8.345-8.346,8.355,8.355,0,0,1-8.345,8.346Z" transform="translate(-0.016 -42.373)" fill="#0a5936"/>
        </g>
      </g>
    </g>
  </g>
</svg>
