<svg xmlns="http://www.w3.org/2000/svg" width="168" height="167" viewBox="0 0 168 167">
  <g id="Grupo_99466" data-name="Grupo 99466" transform="translate(-616.919 -1768)">
    <g id="Rectángulo_32956" data-name="Rectángulo 32956" transform="translate(616.919 1885)" fill="#5cd8a0" stroke="#0a5936" stroke-width="3">
      <rect width="168" height="50" rx="12" stroke="none"/>
      <rect x="1.5" y="1.5" width="165" height="47" rx="10.5" fill="none"/>
    </g>
    <path id="Feature_One" data-name="Feature One" d="M-43.2-11.572h-4.268V0H-50.9V-11.572h-4.189v-2.646H-43.2ZM-37.666.2A5.432,5.432,0,0,1-41.6-1.255a5.008,5.008,0,0,1-1.5-3.774V-5.3a6.489,6.489,0,0,1,.6-2.861,4.395,4.395,0,0,1,1.753-1.919,5.292,5.292,0,0,1,2.734-.679A4.574,4.574,0,0,1-34.5-9.38a5.43,5.43,0,0,1,1.289,3.853v1.279h-6.543a2.372,2.372,0,0,0,.771,1.4,2.3,2.3,0,0,0,1.543.508A2.958,2.958,0,0,0-35-3.437l1.5,1.777A4.2,4.2,0,0,1-35.239-.308,5.891,5.891,0,0,1-37.666.2Zm-.371-8.418q-1.445,0-1.719,1.914h3.32v-.254a1.63,1.63,0,0,0-.4-1.226A1.593,1.593,0,0,0-38.037-8.223Zm10.615,5.879a1.464,1.464,0,0,0,1.074-.376,1.379,1.379,0,0,0,.371-1.05h3.086A3.653,3.653,0,0,1-24.136-.918,4.631,4.631,0,0,1-27.344.2,4.689,4.689,0,0,1-30.977-1.25a5.7,5.7,0,0,1-1.328-4v-.137a6.436,6.436,0,0,1,.591-2.827,4.3,4.3,0,0,1,1.7-1.885,5.081,5.081,0,0,1,2.637-.659A4.573,4.573,0,0,1-24.1-9.619a4.053,4.053,0,0,1,1.211,3.1h-3.086a1.807,1.807,0,0,0-.4-1.26,1.382,1.382,0,0,0-1.074-.439q-1.279,0-1.494,1.631a11.508,11.508,0,0,0-.068,1.426,4.52,4.52,0,0,0,.381,2.207A1.319,1.319,0,0,0-27.422-2.344Zm8.945-8.223.107,1.24a3.583,3.583,0,0,1,3.018-1.436,3.015,3.015,0,0,1,2.466.986,4.7,4.7,0,0,1,.845,2.969V0h-3.3V-6.67a1.783,1.783,0,0,0-.322-1.177,1.491,1.491,0,0,0-1.172-.376,1.569,1.569,0,0,0-1.436.762V0h-3.291V-10.566Zm7.842,5.186A6.236,6.236,0,0,1-10.02-8.2a4.4,4.4,0,0,1,1.768-1.9,5.323,5.323,0,0,1,2.705-.664,4.858,4.858,0,0,1,3.74,1.47,5.64,5.64,0,0,1,1.367,4v.117A5.472,5.472,0,0,1-1.812-1.255,4.871,4.871,0,0,1-5.527.2,4.927,4.927,0,0,1-9.15-1.157a5.29,5.29,0,0,1-1.475-3.667Zm3.291.205a3.932,3.932,0,0,0,.459,2.148,1.529,1.529,0,0,0,1.357.684q1.758,0,1.8-2.705v-.332q0-2.842-1.816-2.842-1.65,0-1.787,2.451ZM4.482,0h-3.3V-15h3.3ZM6.094-5.381A6.236,6.236,0,0,1,6.709-8.2a4.4,4.4,0,0,1,1.768-1.9,5.323,5.323,0,0,1,2.705-.664,4.858,4.858,0,0,1,3.74,1.47,5.64,5.64,0,0,1,1.367,4v.117a5.472,5.472,0,0,1-1.372,3.921A4.871,4.871,0,0,1,11.2.2,4.927,4.927,0,0,1,7.578-1.157,5.29,5.29,0,0,1,6.1-4.824Zm3.291.205a3.932,3.932,0,0,0,.459,2.148,1.529,1.529,0,0,0,1.357.684q1.758,0,1.8-2.705v-.332q0-2.842-1.816-2.842-1.65,0-1.787,2.451ZM11.631-15h3.477l-2.715,3.066H9.707Zm5.723,9.639a7.134,7.134,0,0,1,.527-2.832,4.245,4.245,0,0,1,1.514-1.9,3.99,3.99,0,0,1,2.295-.669,3.173,3.173,0,0,1,2.578,1.113l.117-.918h2.988V-.4a4.455,4.455,0,0,1-.649,2.427,4.167,4.167,0,0,1-1.88,1.582,6.91,6.91,0,0,1-2.852.552,5.961,5.961,0,0,1-2.251-.439,4.063,4.063,0,0,1-1.665-1.143L19.453.645a3.018,3.018,0,0,0,2.422,1.084A1.96,1.96,0,0,0,24.063-.518V-.85A3.09,3.09,0,0,1,21.67.2a3.819,3.819,0,0,1-3.125-1.479,6.13,6.13,0,0,1-1.191-3.96Zm3.3.205A3.759,3.759,0,0,0,21.143-3.1a1.541,1.541,0,0,0,1.367.757,1.748,1.748,0,0,0,1.553-.713V-7.5a1.7,1.7,0,0,0-1.533-.723,1.551,1.551,0,0,0-1.377.786A4.287,4.287,0,0,0,20.654-5.156ZM32.715,0h-3.3V-10.566h3.3Zm-3.5-13.291a1.469,1.469,0,0,1,.508-1.152,1.916,1.916,0,0,1,1.318-.449,1.916,1.916,0,0,1,1.318.449,1.469,1.469,0,0,1,.508,1.152,1.469,1.469,0,0,1-.508,1.152,1.916,1.916,0,0,1-1.318.449,1.916,1.916,0,0,1-1.318-.449A1.469,1.469,0,0,1,29.219-13.291Zm9.99,10.947a1.464,1.464,0,0,0,1.074-.376,1.379,1.379,0,0,0,.371-1.05H43.74A3.653,3.653,0,0,1,42.5-.918,4.631,4.631,0,0,1,39.287.2,4.689,4.689,0,0,1,35.654-1.25a5.7,5.7,0,0,1-1.328-4v-.137a6.436,6.436,0,0,1,.591-2.827,4.3,4.3,0,0,1,1.7-1.885,5.081,5.081,0,0,1,2.637-.659,4.573,4.573,0,0,1,3.271,1.143,4.053,4.053,0,0,1,1.211,3.1H40.654a1.807,1.807,0,0,0-.4-1.26,1.382,1.382,0,0,0-1.074-.439q-1.279,0-1.494,1.631a11.507,11.507,0,0,0-.068,1.426A4.52,4.52,0,0,0,38-2.959,1.319,1.319,0,0,0,39.209-2.344Zm5.508-3.037A6.236,6.236,0,0,1,45.332-8.2,4.4,4.4,0,0,1,47.1-10.1a5.323,5.323,0,0,1,2.705-.664,4.858,4.858,0,0,1,3.74,1.47,5.64,5.64,0,0,1,1.367,4v.117A5.472,5.472,0,0,1,53.54-1.255,4.871,4.871,0,0,1,49.824.2,4.927,4.927,0,0,1,46.2-1.157a5.29,5.29,0,0,1-1.475-3.667Zm3.291.205a3.932,3.932,0,0,0,.459,2.148,1.529,1.529,0,0,0,1.357.684q1.758,0,1.8-2.705v-.332q0-2.842-1.816-2.842-1.65,0-1.787,2.451Z" transform="translate(700.919 1918)" fill="#12263f"/>
    <g id="Elipse_4455" data-name="Elipse 4455" transform="translate(636.919 1768)" fill="#fff" stroke="#0a5936" stroke-width="3">
      <ellipse cx="64" cy="64.5" rx="64" ry="64.5" stroke="none"/>
      <ellipse cx="64" cy="64.5" rx="62.5" ry="63" fill="none"/>
    </g>
    <g id="wifi" transform="translate(664.243 1830.836)">
      <g id="Grupo_97136" data-name="Grupo 97136" transform="translate(1.074 -44.514)">
        <g id="Grupo_97131" data-name="Grupo 97131" transform="translate(0 27.626)">
          <g id="Grupo_97130" data-name="Grupo 97130">
            <g id="Grupo_97129" data-name="Grupo 97129" transform="translate(2.373)">
              <path id="Trazado_140972" data-name="Trazado 140972" d="M85.775,148.315a4.747,4.747,0,0,1,4.747,4.747v35.132H24.065V153.062a4.747,4.747,0,0,1,4.747-4.747Z" transform="translate(-24.065 -148.315)" fill="#b3ddff"/>
              <path id="Trazado_140973" data-name="Trazado 140973" d="M114.16,216.581V183.823a2.374,2.374,0,0,0-2.373-2.373H59.571a2.374,2.374,0,0,0-2.373,2.373v32.758Z" transform="translate(-52.45 -176.703)" fill="#5cd8a0"/>
              <path id="Trazado_140975" data-name="Trazado 140975" d="M418.53,181.45h-3.3a2.373,2.373,0,0,1,2.373,2.373v32.758h3.3V183.823A2.374,2.374,0,0,0,418.53,181.45Z" transform="translate(-359.194 -176.703)" fill="#17c878"/>
            </g>
            <path id="Trazado_140976" data-name="Trazado 140976" d="M7.5,422.557v3.857a4.747,4.747,0,0,0,4.747,4.747H73.956a4.747,4.747,0,0,0,4.747-4.747v-3.857a.89.89,0,0,0-.89-.89H8.39a.89.89,0,0,0-.89.89Z" transform="translate(-7.5 -382.505)" fill="#b3ddff"/>
            <path id="Trazado_140977" data-name="Trazado 140977" d="M455.519,421.668h-3.3a.89.89,0,0,1,.89.89v3.857a4.747,4.747,0,0,1-4.747,4.747h3.3a4.747,4.747,0,0,0,4.747-4.747v-3.857A.89.89,0,0,0,455.519,421.668Z" transform="translate(-385.206 -382.506)" fill="#abc1d1"/>
          </g>
        </g>
        <g id="Grupo_97135" data-name="Grupo 97135" transform="translate(2.034 0)">
          <circle id="Elipse_4456" data-name="Elipse 4456" cx="23.734" cy="23.734" r="23.734" transform="translate(0 33.561) rotate(-45)" fill="#f1d54e"/>
          <g id="Grupo_97133" data-name="Grupo 97133" transform="translate(17.297 21.692)">
            <g id="Grupo_97132" data-name="Grupo 97132">
              <circle id="Elipse_4457" data-name="Elipse 4457" cx="2.373" cy="2.373" r="2.373" transform="translate(13.738 23.53) rotate(-85.241)" fill="#f5f5f5"/>
              <path id="Trazado_140978" data-name="Trazado 140978" d="M144.538,117.356a1.191,1.191,0,0,0,1.71-.091,16.612,16.612,0,0,1,24.908,0,1.191,1.191,0,0,0,1.71.091l1.731-1.623a1.188,1.188,0,0,0,.076-1.656,21.358,21.358,0,0,0-31.941,0,1.188,1.188,0,0,0,.076,1.656Z" transform="translate(-142.431 -106.9)" fill="#f5f5f5"/>
              <path id="Trazado_140979" data-name="Trazado 140979" d="M192.932,180.628a1.191,1.191,0,0,0,1.737-.123,7.117,7.117,0,0,1,10.987,0,1.191,1.191,0,0,0,1.737.123L209.126,179a1.191,1.191,0,0,0,.089-1.641,11.86,11.86,0,0,0-18.1,0A1.191,1.191,0,0,0,191.2,179Z" transform="translate(-183.892 -163.672)" fill="#f5f5f5"/>
            </g>
          </g>
          <g id="Grupo_97134" data-name="Grupo 97134" transform="translate(31.92 21.692)">
            <path id="Trazado_140980" data-name="Trazado 140980" d="M262.118,114.076a21.307,21.307,0,0,0-15.971-7.177c-.554,0-1.1.022-1.648.064a21.309,21.309,0,0,1,14.323,7.113,1.188,1.188,0,0,1-.076,1.656l-.844.791q.36.36.7.741a1.191,1.191,0,0,0,1.71.091l1.731-1.623A1.188,1.188,0,0,0,262.118,114.076Z" transform="translate(-244.5 -106.899)" fill="#e0e0e0"/>
            <path id="Trazado_140981" data-name="Trazado 140981" d="M255.2,177.363a11.875,11.875,0,0,0-10.7-4.083,11.847,11.847,0,0,1,7.4,4.083,1.191,1.191,0,0,1-.089,1.641l-.848.795a7.188,7.188,0,0,1,.673.707,1.191,1.191,0,0,0,1.737.123L255.111,179A1.191,1.191,0,0,0,255.2,177.363Z" transform="translate(-244.5 -163.672)" fill="#e0e0e0"/>
            <path id="Trazado_140982" data-name="Trazado 140982" d="M246.148,239.433a2.364,2.364,0,0,0-1.648.667,2.368,2.368,0,0,1,0,3.412,2.373,2.373,0,1,0,1.648-4.079Z" transform="translate(-244.5 -220.445)" fill="#e0e0e0"/>
          </g>
          <path id="Trazado_140983" data-name="Trazado 140983" d="M246.148,24.065c-.554,0-1.1.02-1.648.058a23.734,23.734,0,0,1,0,47.353c.544.037,1.094.058,1.648.058a23.734,23.734,0,1,0,0-47.469Z" transform="translate(-212.58 -14.24)" fill="#fb9e36"/>
        </g>
      </g>
      <g id="Grupo_97137" data-name="Grupo 97137" transform="translate(0 -35.764)">
        <path id="Trazado_140984" data-name="Trazado 140984" d="M71.387,73.528h-.408V40.187a5.828,5.828,0,0,0-5.821-5.821H60.475a24.81,24.81,0,0,0-47.6,0H8.195a5.828,5.828,0,0,0-5.821,5.821V73.528H1.965A1.967,1.967,0,0,0,0,75.492v3.857a5.828,5.828,0,0,0,5.821,5.821H67.531a5.828,5.828,0,0,0,5.821-5.821V75.492A1.967,1.967,0,0,0,71.387,73.528Zm-6.23-37.013a3.676,3.676,0,0,1,3.672,3.672V73.528h-2.6V42.561a3.452,3.452,0,0,0-3.448-3.448h-1.4a24.752,24.752,0,0,0-.375-2.6ZM9.269,73.528V42.561a1.3,1.3,0,0,1,1.3-1.3h1.3c0,.037,0,.075,0,.112a24.809,24.809,0,0,0,49.618,0c0-.038,0-.075,0-.112h1.3a1.3,1.3,0,0,1,1.3,1.3V73.528ZM42.42,75.677l-.4,1.614a1.3,1.3,0,0,1-1.26.984H32.6a1.3,1.3,0,0,1-1.26-.984l-.4-1.614ZM36.676,18.714a22.66,22.66,0,1,1-22.66,22.66,22.686,22.686,0,0,1,22.66-22.66ZM4.522,40.187a3.676,3.676,0,0,1,3.672-3.672h4.152a24.716,24.716,0,0,0-.375,2.6h-1.4A3.452,3.452,0,0,0,7.12,42.561V73.528h-2.6Zm59.56,42.835H51.991v-1.3a1.3,1.3,0,0,1,1.3-1.3h9.494a1.3,1.3,0,0,1,1.3,1.3Zm7.12-3.672a3.676,3.676,0,0,1-3.672,3.672h-1.3v-1.3a3.452,3.452,0,0,0-3.448-3.448H53.29a3.452,3.452,0,0,0-3.448,3.448v1.3H18.763v-1.3a1.074,1.074,0,1,0-2.149,0v1.3h-2.6v-1.3a1.074,1.074,0,1,0-2.149,0v1.3h-2.6v-1.3a1.074,1.074,0,1,0-2.149,0v1.3h-1.3a3.676,3.676,0,0,1-3.672-3.672V75.677H28.717l.534,2.135A3.443,3.443,0,0,0,32.6,80.424h8.161A3.443,3.443,0,0,0,44.1,77.812l.534-2.135H71.2Z" transform="translate(0 -16.565)" fill="#0a5936"/>
        <path id="Trazado_140985" data-name="Trazado 140985" d="M235.381,231.933a3.448,3.448,0,1,0,3.448,3.448A3.452,3.452,0,0,0,235.381,231.933Zm0,4.747a1.3,1.3,0,1,1,1.3-1.3A1.3,1.3,0,0,1,235.381,236.68Z" transform="translate(-198.705 -201.078)" fill="#0a5936"/>
        <path id="Trazado_140986" data-name="Trazado 140986" d="M135.616,110.09l1.731,1.623a2.234,2.234,0,0,0,1.539.61l.109,0a2.294,2.294,0,0,0,1.6-.77,15.537,15.537,0,0,1,23.3,0,2.294,2.294,0,0,0,1.6.77,2.229,2.229,0,0,0,1.648-.607l1.731-1.623a2.25,2.25,0,0,0,.144-3.153,22.433,22.433,0,0,0-33.548,0A2.251,2.251,0,0,0,135.616,110.09Zm1.462-1.726a20.284,20.284,0,0,1,30.335,0,.114.114,0,0,1-.008.158l-1.731,1.623a.1.1,0,0,1-.077.029.13.13,0,0,1-.093-.046,17.686,17.686,0,0,0-26.518,0,.13.13,0,0,1-.093.046.1.1,0,0,1-.077-.028l-1.731-1.623A.115.115,0,0,1,137.079,108.364Z" transform="translate(-115.57 -87.532)" fill="#0a5936"/>
        <path id="Trazado_140987" data-name="Trazado 140987" d="M193.733,165.666a12.922,12.922,0,0,0-9.872,4.576,2.265,2.265,0,0,0,.173,3.119l1.733,1.625a2.261,2.261,0,0,0,1.685.6,2.293,2.293,0,0,0,1.615-.828,6.043,6.043,0,0,1,9.33,0,2.294,2.294,0,0,0,1.615.828c.048,0,.095,0,.142,0a2.263,2.263,0,0,0,1.543-.609l1.733-1.625a2.265,2.265,0,0,0,.173-3.119A12.922,12.922,0,0,0,193.733,165.666Zm8.228,6.128-1.733,1.625a.1.1,0,0,1-.078.028.132.132,0,0,1-.095-.051,8.192,8.192,0,0,0-12.645,0,.132.132,0,0,1-.1.051.1.1,0,0,1-.078-.028h0l-1.733-1.625a.117.117,0,0,1,0-.162,10.786,10.786,0,0,1,16.465,0A.117.117,0,0,1,201.962,171.794Z" transform="translate(-157.057 -144.305)" fill="#0a5936"/>
      </g>
    </g>
  </g>
</svg>
