<svg xmlns="http://www.w3.org/2000/svg" xmlns:xlink="http://www.w3.org/1999/xlink" width="152" height="153" viewBox="0 0 152 153">
  <defs>
    <clipPath id="clip-path">
      <circle id="Elipse_4566" data-name="Elipse 4566" cx="36" cy="36" r="36" transform="translate(1034.259 3441.259)" fill="#fff"/>
    </clipPath>
  </defs>
  <g id="Grupo_99308" data-name="Grupo 99308" transform="translate(-982 -3388)">
    <g id="Grupo_97847" data-name="Grupo 97847" transform="translate(0 2444)">
      <ellipse id="Elipse_4193" data-name="Elipse 4193" cx="76" cy="76.5" rx="76" ry="76.5" transform="translate(982 944)" fill="#fff"/>
    </g>
    <g id="Enmascarar_grupo_71" data-name="Enmascarar grupo 71" transform="translate(-12.259 -14.259)" clip-path="url(#clip-path)">
      <g id="equipo" transform="translate(997.645 3394.029)">
        <g id="Grupo_98034" data-name="Grupo 98034" transform="translate(38.866 49.45)">
          <g id="Grupo_98030" data-name="Grupo 98030">
            <path id="Trazado_142390" data-name="Trazado 142390" d="M144.747,225.509a33.637,33.637,0,1,1,33.594,0" transform="translate(-127.906 -162.718)" fill="#ffd89e"/>
          </g>
          <g id="Grupo_98033" data-name="Grupo 98033" transform="translate(16.841 12.512)">
            <g id="Grupo_98031" data-name="Grupo 98031" transform="translate(2.977 0)">
              <ellipse id="Elipse_4517" data-name="Elipse 4517" cx="13.773" cy="13.774" rx="13.773" ry="13.774" transform="translate(0 0.138) rotate(-0.286)" fill="#ffcbbe"/>
            </g>
            <g id="Grupo_98032" data-name="Grupo 98032" transform="translate(0 35.515)">
              <path id="Trazado_142391" data-name="Trazado 142391" d="M216.914,325.346v10.172a33.675,33.675,0,0,1-33.593,0V325.346a4.593,4.593,0,0,1,4.592-4.592h24.41A4.593,4.593,0,0,1,216.914,325.346Z" transform="translate(-183.321 -320.754)" fill="#f5737f"/>
            </g>
          </g>
        </g>
        <g id="Grupo_98036" data-name="Grupo 98036" transform="translate(111.576 37.949)">
          <g id="Grupo_98035" data-name="Grupo 98035">
            <path id="Trazado_142392" data-name="Trazado 142392" d="M370.2,130.945a3.038,3.038,0,1,1,2.974-2.422A3.069,3.069,0,0,1,370.2,130.945Z" transform="translate(-367.163 -124.874)"/>
          </g>
        </g>
        <g id="Grupo_98037" data-name="Grupo 98037" transform="translate(126.799 2.975)">
          <ellipse id="Elipse_4518" data-name="Elipse 4518" cx="12.854" cy="12.853" rx="12.854" ry="12.853" transform="translate(0 25.707) rotate(-89.714)" fill="#f5737f"/>
        </g>
        <g id="Grupo_98038" data-name="Grupo 98038" transform="translate(2.976 121.311)">
          <ellipse id="Elipse_4519" data-name="Elipse 4519" cx="15.588" cy="15.587" rx="15.588" ry="15.587" transform="translate(0 31.175) rotate(-89.771)" fill="#9bc6ff"/>
        </g>
        <g id="Grupo_98039" data-name="Grupo 98039" transform="translate(105.316 115.864)">
          <ellipse id="Elipse_4520" data-name="Elipse 4520" cx="17.449" cy="17.45" rx="17.449" ry="17.45" transform="translate(0 0.244) rotate(-0.401)" fill="#8481e2"/>
        </g>
        <g id="Grupo_98043" data-name="Grupo 98043" transform="translate(0)">
          <g id="Grupo_98041" data-name="Grupo 98041" transform="translate(8.022 18.604)">
            <g id="Grupo_98040" data-name="Grupo 98040" transform="translate(0)">
              <ellipse id="Elipse_4521" data-name="Elipse 4521" cx="12.203" cy="12.202" rx="12.203" ry="12.202" transform="translate(0 24.406) rotate(-89.714)" fill="#ffcb7c"/>
            </g>
          </g>
          <g id="Grupo_98042" data-name="Grupo 98042">
            <path id="Trazado_142393" data-name="Trazado 142393" d="M200.081,227.807a16.813,16.813,0,1,0-16.812-16.813A16.832,16.832,0,0,0,200.081,227.807Zm0-27.548a10.735,10.735,0,1,1-10.734,10.735A10.747,10.747,0,0,1,200.081,200.259Z" transform="translate(-127.579 -135.17)" fill="#0a5936"/>
            <path id="Trazado_142394" data-name="Trazado 142394" d="M412.514,0a15.886,15.886,0,0,0-13.175,24.771L392.807,31.3a3.039,3.039,0,1,0,4.3,4.3l6.531-6.532A15.89,15.89,0,1,0,412.514,0Zm0,25.707a9.815,9.815,0,1,1,9.814-9.815A9.825,9.825,0,0,1,412.514,25.707Z" transform="translate(-272.819)" fill="#0a5936"/>
            <path id="Trazado_142395" data-name="Trazado 142395" d="M122.954,148.69a20.381,20.381,0,0,0-12.255,4.08l-10.195-10.2a36.614,36.614,0,0,0,0-47.372l8.664-8.665a3.039,3.039,0,1,0-4.3-4.3L96.2,90.9a36.6,36.6,0,0,0-47.365,0L33.009,75.075a15.255,15.255,0,1,0-4.3,4.3L44.539,95.2a36.614,36.614,0,0,0,0,47.373L29.481,157.628a18.645,18.645,0,1,0,4.3,4.3l15.047-15.048a36.605,36.605,0,0,0,47.386,0l10.211,10.212a20.48,20.48,0,1,0,16.531-8.4ZM11.139,66.666A9.163,9.163,0,1,1,20.3,75.83,9.174,9.174,0,0,1,11.139,66.666Zm61.38,21.619a30.6,30.6,0,0,1,19.836,53.9v-4.317a7.639,7.639,0,0,0-7.63-7.631H60.314a7.639,7.639,0,0,0-7.631,7.631v4.317a30.6,30.6,0,0,1,19.836-53.9Zm-53.877,97.03a12.549,12.549,0,1,1,12.548-12.549A12.562,12.562,0,0,1,18.641,185.315Zm67.635-39.089a30.655,30.655,0,0,1-27.515,0v-8.361a1.554,1.554,0,0,1,1.553-1.553h24.41a1.554,1.554,0,0,1,1.552,1.553v8.361Zm36.677,37.364a14.411,14.411,0,1,1,14.409-14.411,14.426,14.426,0,0,1-14.409,14.411Z" transform="translate(-0.016 -35.796)" fill="#0a5936"/>
          </g>
        </g>
      </g>
    </g>
  </g>
</svg>
