<svg xmlns="http://www.w3.org/2000/svg" width="241" height="198" viewBox="0 0 241 198">
  <g id="Grupo_99255" data-name="Grupo 99255" transform="translate(-3322.5 8388)">
    <g id="Grupo_99244" data-name="Grupo 99244" transform="translate(2318 -11700)">
      <g id="Grupo_98029" data-name="Grupo 98029" transform="translate(726.581 2778)">
        <rect id="Rectángulo_32944" data-name="Rectángulo 32944" width="241" height="198" transform="translate(277.919 534)" fill="#d7fced"/>
      </g>
    </g>
    <g id="enjuague" transform="translate(3354 -8376.516)">
      <g id="Grupo_99253" data-name="Grupo 99253" transform="translate(3.791 3.791)">
        <g id="Grupo_99246" data-name="Grupo 99246" transform="translate(8.372 19.536)">
          <path id="Trazado_144916" data-name="Trazado 144916" d="M83.143,9V25.745H35.7a2.8,2.8,0,0,0-2.791,2.791V53.653h6.865a4.284,4.284,0,0,1,3.572,6.67L28.862,82.036a5.2,5.2,0,0,1-8.652,0L5.726,60.323A4.284,4.284,0,0,1,9.3,53.653h6.865v-30.7A13.959,13.959,0,0,1,30.117,9Z" transform="translate(-5 -9)" fill="#ea7596"/>
        </g>
        <g id="Grupo_99247" data-name="Grupo 99247" transform="translate(80.934 72.562)">
          <path id="Trazado_144917" data-name="Trazado 144917" d="M108.418,52.029a4.284,4.284,0,0,1-3.572,6.67H97.98V89.4a13.959,13.959,0,0,1-13.954,13.954H31V86.607H78.444a2.8,2.8,0,0,0,2.791-2.791V58.7H74.369a4.284,4.284,0,0,1-3.572-6.67L85.282,30.316a5.2,5.2,0,0,1,8.652,0Z" transform="translate(-31 -28)" fill="#ea7596"/>
        </g>
        <g id="Grupo_99248" data-name="Grupo 99248" transform="translate(75.352 103.261)">
          <path id="Trazado_144918" data-name="Trazado 144918" d="M45.745,39v5.582a5.6,5.6,0,0,1-5.582,5.582H34.582A5.6,5.6,0,0,1,29,44.582V39H45.745Z" transform="translate(-29 -39)" fill="#aab2bd"/>
        </g>
        <g id="Grupo_99249" data-name="Grupo 99249" transform="translate(61.403 53.021)">
          <path id="Trazado_144919" data-name="Trazado 144919" d="M54.7,69.033v2.2H37.951V69.145a8.264,8.264,0,0,0-3.628-7,22.321,22.321,0,1,1,24.057-.028A8.168,8.168,0,0,0,54.7,69.033Z" transform="translate(-24.002 -20.998)" fill="#ffeaa7"/>
        </g>
        <g id="Grupo_99250" data-name="Grupo 99250" transform="translate(0 111.633)">
          <path id="Trazado_144920" data-name="Trazado 144920" d="M57.817,64.327V75.49l-7.061,2.344c-.167.419-.307.809-.5,1.2L53.6,85.7l-7.9,7.9-6.67-3.349c-.391.2-.781.335-1.2.5L35.49,97.817H24.327l-2.344-7.061c-.419-.167-.809-.307-1.2-.5L14.112,93.6l-7.9-7.9,3.349-6.67c-.2-.391-.335-.781-.5-1.2L2,75.49V64.327l7.061-2.344c.167-.419.307-.809.5-1.2l-3.349-6.67,7.9-7.9,6.67,3.349c.391-.2.781-.335,1.2-.5L24.327,42H35.49l2.344,7.061c.419.167.809.307,1.2.5l6.67-3.349,7.9,7.9-3.349,6.67c.2.391.335.781.5,1.2ZM41.072,69.908A11.163,11.163,0,1,0,29.908,81.072,11.16,11.16,0,0,0,41.072,69.908Z" transform="translate(-2 -42)" fill="#f1d54e"/>
        </g>
        <g id="Grupo_99251" data-name="Grupo 99251" transform="translate(111.633)">
          <path id="Trazado_144921" data-name="Trazado 144921" d="M97.817,24.327V35.49l-7.061,2.344c-.167.419-.307.809-.5,1.2L93.6,45.7l-7.9,7.9-6.67-3.349c-.391.2-.781.335-1.2.5L75.49,57.817H64.327l-2.344-7.061c-.419-.167-.809-.307-1.2-.5L54.112,53.6l-7.9-7.9,3.349-6.67c-.2-.391-.335-.781-.5-1.2L42,35.49V24.327l7.061-2.344c.167-.419.307-.809.5-1.2l-3.349-6.67,7.9-7.9,6.67,3.349c.391-.2.781-.335,1.2-.5L64.327,2H75.49l2.344,7.061c.419.167.809.307,1.2.5L85.7,6.214l7.9,7.9-3.349,6.67c.2.391.335.781.5,1.2ZM81.072,29.908A11.163,11.163,0,1,0,69.908,41.072,11.16,11.16,0,0,0,81.072,29.908Z" transform="translate(-42 -2)" fill="#f1d54e"/>
        </g>
        <g id="Grupo_99252" data-name="Grupo 99252" transform="translate(78.143 69.771)">
          <circle id="Elipse_4663" data-name="Elipse 4663" cx="5.5" cy="5.5" r="5.5" transform="translate(0.066 0.438)" fill="#fcd770"/>
        </g>
      </g>
      <g id="Grupo_99254" data-name="Grupo 99254" transform="translate(1 1)">
        <path id="Trazado_144922" data-name="Trazado 144922" d="M102.4,24.105l-6.854-2.283,3.232-6.461L88.037,4.622,81.576,7.854,79.293,1H64.108L61.825,7.854,55.364,4.622,44.625,15.362l3.232,6.461L41,24.105V39.29l6.854,2.283-3.232,6.461L55.362,58.773l6.461-3.232L64.105,62.4H79.29l2.283-6.854,6.461,3.232L98.773,48.037l-3.232-6.461,6.857-2.283ZM96.817,35.269,90.409,37.4,89.94,38.64c-.137.36-.279.709-.43,1.055L88.969,40.9l3.017,6.034-5.049,5.049L80.9,48.969l-1.208.541c-.346.153-.695.293-1.055.43l-1.236.469-2.135,6.408H68.127l-2.135-6.408-1.236-.469c-.36-.137-.709-.279-1.055-.43l-1.208-.541-6.034,3.017L51.41,46.937,54.427,40.9l-.541-1.208c-.153-.346-.293-.695-.43-1.055L52.987,37.4l-6.4-2.135V28.127l6.408-2.135.469-1.236c.137-.36.279-.709.43-1.055l.541-1.208-3.017-6.031,5.049-5.049,6.034,3.017,1.208-.541c.346-.153.695-.293,1.055-.43l1.236-.469L68.13,6.582h7.142l2.135,6.408,1.236.469c.36.137.709.279,1.055.43l1.208.541,6.034-3.017,5.049,5.049-3.017,6.034.541,1.208c.154.346.293.695.43,1.055l.469,1.236,6.4,2.135Z" transform="translate(70.633 -1)" fill="#0a5936"/>
        <path id="Trazado_144923" data-name="Trazado 144923" d="M60.954,7A13.954,13.954,0,1,0,74.908,20.954,13.97,13.97,0,0,0,60.954,7Zm0,22.327a8.372,8.372,0,1,1,8.372-8.372A8.383,8.383,0,0,1,60.954,29.327Z" transform="translate(81.378 9.745)" fill="#0a5936"/>
        <path id="Trazado_144924" data-name="Trazado 144924" d="M58.776,55.362,48.037,44.622l-6.461,3.232L39.293,41H24.105l-2.283,6.854-6.461-3.232L4.622,55.362l3.232,6.461L1,64.105V79.29l6.854,2.283L4.622,88.034,15.362,98.773l6.461-3.232,2.283,6.857H39.29l2.283-6.854,6.461,3.232L58.773,88.037l-3.232-6.461L62.4,79.293V64.108l-6.854-2.283ZM56.817,68.13v7.142l-6.408,2.135-.469,1.236c-.137.36-.279.709-.43,1.055l-.541,1.208,3.017,6.034-5.049,5.049L40.9,88.972l-1.208.541c-.346.154-.695.293-1.055.43l-1.236.469-2.135,6.4H28.127l-2.135-6.408-1.236-.469c-.36-.137-.709-.279-1.055-.43l-1.208-.541-6.031,3.017-5.049-5.049L14.429,80.9l-.541-1.208c-.153-.346-.293-.695-.43-1.055L12.989,77.4,6.582,75.269V68.127l6.408-2.135.469-1.236c.137-.36.279-.709.43-1.055l.541-1.208-3.017-6.031,5.049-5.049,6.034,3.017,1.208-.541c.346-.153.695-.293,1.055-.43l1.236-.469,2.135-6.408h7.142l2.135,6.408,1.236.469c.36.137.709.279,1.055.43l1.208.541,6.034-3.017,5.049,5.049-3.017,6.034.541,1.208c.153.346.293.695.43,1.055l.469,1.236Z" transform="translate(-1 70.633)" fill="#0a5936"/>
        <path id="Trazado_144925" data-name="Trazado 144925" d="M20.954,47A13.954,13.954,0,1,0,34.908,60.954,13.97,13.97,0,0,0,20.954,47Zm0,22.327a8.372,8.372,0,1,1,8.372-8.372A8.383,8.383,0,0,1,20.954,69.327Z" transform="translate(9.745 81.378)" fill="#0a5936"/>
        <path id="Trazado_144926" data-name="Trazado 144926" d="M36.955,70.932v7.675a8.383,8.383,0,0,0,8.372,8.372h5.582a8.383,8.383,0,0,0,8.372-8.372V70.818a5.375,5.375,0,0,1,2.406-4.577,25.121,25.121,0,1,0-27.079.039A5.485,5.485,0,0,1,36.955,70.932ZM50.909,81.4H45.327a2.792,2.792,0,0,1-2.791-2.791V75.816H53.7v2.791A2.792,2.792,0,0,1,50.909,81.4ZM45.327,45.117a2.791,2.791,0,1,1,2.791,2.791A2.792,2.792,0,0,1,45.327,45.117ZM28.75,42.533a19.6,19.6,0,0,1,17.08-16.82,20.242,20.242,0,0,1,2.314-.134,19.306,19.306,0,0,1,12.983,4.962A19.526,19.526,0,0,1,58.67,61.547a10.88,10.88,0,0,0-4.934,8.688H50.909V52.976a8.373,8.373,0,1,0-5.582,0V70.235H42.495a10.879,10.879,0,0,0-4.881-8.66A19.455,19.455,0,0,1,28.75,42.533Z" transform="translate(38.398 33.026)" fill="#0a5936"/>
        <path id="Trazado_144927" data-name="Trazado 144927" d="M96.269,30.564a8.008,8.008,0,0,0-13.323,0L68.467,52.279a7.079,7.079,0,0,0,5.889,11h4.089V85.607H31v5.582H78.444a5.587,5.587,0,0,0,5.582-5.582V57.7h-9.67a1.493,1.493,0,0,1-1.242-2.322L87.592,33.662a2.513,2.513,0,0,1,4.033,0L106.1,55.377a1.478,1.478,0,0,1,.251.829,1.5,1.5,0,0,1-1.5,1.493h-9.67v33.49a11.175,11.175,0,0,1-11.163,11.163H31v5.582H84.026a16.762,16.762,0,0,0,16.745-16.745V63.281h4.089a7.074,7.074,0,0,0,5.886-11Z" transform="translate(52.725 45.561)" fill="#0a5936"/>
        <path id="Trazado_144928" data-name="Trazado 144928" d="M27,54h5.582v5.582H27Z" transform="translate(45.561 93.914)" fill="#0a5936"/>
        <path id="Trazado_144929" data-name="Trazado 144929" d="M19.665,85.37a8.008,8.008,0,0,0,13.323,0L47.467,63.655a7.079,7.079,0,0,0-5.889-11H37.49V30.327H84.934V24.745H37.49a5.587,5.587,0,0,0-5.582,5.582V58.235h9.67a1.493,1.493,0,0,1,1.242,2.322L28.342,82.272a2.513,2.513,0,0,1-4.033,0L9.833,60.557a1.478,1.478,0,0,1-.251-.829,1.5,1.5,0,0,1,1.493-1.493h9.67V24.745A11.175,11.175,0,0,1,31.908,13.582H84.934V8H31.908A16.762,16.762,0,0,0,15.163,24.745V52.653H11.075a7.074,7.074,0,0,0-5.886,11Z" transform="translate(4.372 11.536)" fill="#0a5936"/>
        <path id="Trazado_144930" data-name="Trazado 144930" d="M35,8h5.582v5.582H35Z" transform="translate(59.888 11.536)" fill="#0a5936"/>
      </g>
    </g>
  </g>
</svg>
