<svg xmlns="http://www.w3.org/2000/svg" width="241" height="198" viewBox="0 0 241 198">
  <g id="Grupo_99256" data-name="Grupo 99256" transform="translate(-1004.5 -3312)">
    <g id="Grupo_99244" data-name="Grupo 99244">
      <g id="Grupo_98029" data-name="Grupo 98029" transform="translate(726.581 2778)">
        <rect id="Rectángulo_32944" data-name="Rectángulo 32944" width="241" height="198" transform="translate(277.919 534)" fill="#d7fced"/>
      </g>
    </g>
    <g id="gallina" transform="translate(1040.319 3342.672)">
      <path id="Trazado_144903" data-name="Trazado 144903" d="M67.686,341.9l-15.92,15.92a14.291,14.291,0,0,0,10.105,24.4,23.6,23.6,0,0,0,23.6-23.6V341.9Z" transform="translate(-32.585 -232.354)" fill="#ea7596"/>
      <path id="Trazado_144904" data-name="Trazado 144904" d="M82.949,341.9V348.5a23.6,23.6,0,0,1-23.6,23.6,14.26,14.26,0,0,1-11.59-5.953,14.128,14.128,0,0,0-.175,1.767,14.291,14.291,0,0,0,14.291,14.291,23.6,23.6,0,0,0,23.6-23.6V341.9Z" transform="translate(-32.585 -232.355)" fill="#dc4655"/>
      <path id="Trazado_144905" data-name="Trazado 144905" d="M256.428,34.087c-11.335-8.27-26.01-10.455-26.01-10.455l1.249-6.247a5.061,5.061,0,0,0-5.464-6.029,74.641,74.641,0,0,0-25.049,7.223l-2.816-5.633a5.026,5.026,0,0,0-6.876-2.218c-14.338,7.922-23.15,21.746-23.15,21.746l-3.072-1.344a5,5,0,0,0-6.189,1.754c-9.086,13.944-9.265,38.749-9.265,38.749l86.528-15.158,19.952-14.2A5.046,5.046,0,0,0,256.428,34.087Z" transform="translate(-102.579 -5.143)" fill="#ea7596"/>
      <g id="Grupo_99243" data-name="Grupo 99243" transform="translate(47.206 4.981)">
        <path id="Trazado_144906" data-name="Trazado 144906" d="M312.781,36.751c.061-.031.115-.061.176-.091Z" transform="translate(-261.412 -28.297)" fill="#dc4655"/>
        <path id="Trazado_144907" data-name="Trazado 144907" d="M198.339,12.945a5.025,5.025,0,0,0-6.876-2.218c-14.338,7.922-23.15,21.746-23.15,21.746l-3.072-1.344a5.248,5.248,0,0,0-6.3,1.928c-8.975,13.975-9.152,38.575-9.152,38.575L168.1,68.423c0-8.842,5.2-19.754,10.106-27.107,5.784-8.664,12.016-17.214,22.948-22.737Z" transform="translate(-149.786 -10.124)" fill="#dc4655"/>
      </g>
      <path id="Trazado_144908" data-name="Trazado 144908" d="M191.745,85.085c-31.487,1.119-55.987,27.954-55.987,59.461V169.3a15.15,15.15,0,0,1,10.106,14.277v32.843H251.97V143.153A58.107,58.107,0,0,0,191.745,85.085Z" transform="translate(-92.973 -56.454)" fill="#edebed"/>
      <path id="Trazado_144909" data-name="Trazado 144909" d="M209.022,87.057a58.2,58.2,0,0,0-20.269-1.787c-30.245,2.638-53,28.873-53,59.233v24.8a15.15,15.15,0,0,1,10.106,14.277v32.843h20.211V143.153A58.121,58.121,0,0,1,209.022,87.057Z" transform="translate(-92.973 -56.453)" fill="#dbd9dc"/>
      <path id="Trazado_144910" data-name="Trazado 144910" d="M59.712,232.669c-1.1-1.77-3.356-3.024-4.914-2.87-11.012,1.09-44.867,5.6-46.972,34.834L11.2,267.54H43.092a15.069,15.069,0,0,1,10.075,3.843,3.847,3.847,0,0,0,5.361-.183C73.916,254.709,61.464,235.481,59.712,232.669Z" transform="translate(-5.36 -155.577)" fill="#f1d54e"/>
      <path id="Trazado_144911" data-name="Trazado 144911" d="M59.987,318.016c-29.291,0-41.15,5.195-45.475,8.077l1.058,1.871h32.1a15.069,15.069,0,0,1,10.075,3.843,3.847,3.847,0,0,0,5.361-.183,27.383,27.383,0,0,0,6.927-12.6A84,84,0,0,0,59.987,318.016Z" transform="translate(-9.938 -216)" fill="#ebaf4b"/>
      <path id="Trazado_144912" data-name="Trazado 144912" d="M232.778,220.011h0a8.868,8.868,0,0,1-8.842-8.842v-5.053a8.868,8.868,0,0,1,8.842-8.842h0a8.868,8.868,0,0,1,8.842,8.842v5.053A8.868,8.868,0,0,1,232.778,220.011Z" transform="translate(-153.361 -133.311)" fill="#4b3f4e"/>
      <path id="Trazado_144913" data-name="Trazado 144913" d="M249.247,197.273a8.655,8.655,0,0,0-1.263.128v12.5a5.053,5.053,0,1,0,10.105,0v-3.789A8.868,8.868,0,0,0,249.247,197.273Z" transform="translate(-169.83 -133.31)" fill="#5d5360"/>
      <circle id="Elipse_4662" data-name="Elipse 4662" cx="3.788" cy="3.788" r="3.788" transform="translate(75.629 66.489)" fill="#fff"/>
      <path id="Trazado_144914" data-name="Trazado 144914" d="M145.412,45.774l9.624-6.7a7.479,7.479,0,0,0,3.194-6.046,7.23,7.23,0,0,0-2.988-5.994c-9-6.568-19.843-9.424-24.616-10.429l.78-3.9a7.424,7.424,0,0,0-8.026-8.843,78.75,78.75,0,0,0-23.735,6.428L97.874,6.745a7.513,7.513,0,0,0-4.47-3.8,7.2,7.2,0,0,0-5.664.565C75.876,10.071,67.769,20.354,64.889,24.381l-1.28-.56a7.318,7.318,0,0,0-9.117,2.628c-8.8,13.507-9.575,34.307-9.642,37.521a59.713,59.713,0,0,0-2.791,8.713,71.4,71.4,0,0,0-21.516,6.673A39.482,39.482,0,0,0,6.189,91.378,34.814,34.814,0,0,0,0,111.963a2.364,2.364,0,0,0,2.364,2.364h24.61l-9.464,9.464a16.655,16.655,0,0,0,11.777,28.432,25.949,25.949,0,0,0,21.24-11.057v18.8a2.364,2.364,0,1,0,4.727,0V127.122c0-.145-.06-1.391-.06-1.391A17.542,17.542,0,0,0,37.732,109.6H11.115c6.661-2.529,19.176-5.378,41.776-5.378a2.364,2.364,0,0,0,0-4.727c-28.379,0-41.777,4.342-47.843,7.609,1.386-10.279,7.309-18.188,17.667-23.548,9.863-5.1,21.082-6.561,26.892-6.975a2.66,2.66,0,0,1,2.61,1.523,146.229,146.229,0,0,1,6.012,14.4A2.364,2.364,0,1,0,62.713,91a147.106,147.106,0,0,0-6.223-14.924,7.354,7.354,0,0,0-7.219-4.217c-.66.047-1.39.108-2.173.184A55.776,55.776,0,0,1,127.55,37.733a2.364,2.364,0,1,0,2.264-4.15A60.435,60.435,0,0,0,50.54,53.232c1.061-7.43,3.279-17.091,7.912-24.2a2.64,2.64,0,0,1,3.262-.879L64.786,29.5a2.363,2.363,0,0,0,2.94-.895c.085-.133,8.647-13.4,22.3-20.948A2.51,2.51,0,0,1,92,7.465,2.761,2.761,0,0,1,93.645,8.86l2.816,5.633a2.364,2.364,0,0,0,3.233,1.025A72.625,72.625,0,0,1,123.87,8.563a2.64,2.64,0,0,1,2.245.863,2.679,2.679,0,0,1,.656,2.351l-1.249,6.247a2.365,2.365,0,0,0,1.968,2.8c.142.021,14.257,2.214,24.967,10.027a2.554,2.554,0,0,1,1.048,2.122,2.707,2.707,0,0,1-1.168,2.219l-10.315,7.181q-1.682-1.559-3.493-3.007a2.364,2.364,0,1,0-2.945,3.7A55.5,55.5,0,0,1,156.634,86.7v73.264a2.364,2.364,0,0,0,4.727,0V86.7A60.127,60.127,0,0,0,145.412,45.774ZM47.989,119.48a18.453,18.453,0,0,1-13.177,16.159,2.364,2.364,0,0,0,1.1,4.6A23.175,23.175,0,0,0,50.45,128a21.265,21.265,0,0,1-21.163,19.495,11.927,11.927,0,0,1-8.434-20.361l12.806-12.806h4.074A12.782,12.782,0,0,1,47.989,119.48Z" fill="#0a5936"/>
      <path id="Trazado_144915" data-name="Trazado 144915" d="M234.617,195.052a2.364,2.364,0,0,0-1.12,3.149,6.419,6.419,0,0,1,.623,2.777v5.053a6.479,6.479,0,0,1-12.957,0v-5.053a6.486,6.486,0,0,1,6.478-6.479,2.364,2.364,0,1,0,0-4.727,11.219,11.219,0,0,0-11.206,11.206v5.053a11.206,11.206,0,0,0,22.412,0v-5.053a11.109,11.109,0,0,0-1.08-4.806A2.363,2.363,0,0,0,234.617,195.052Z" transform="translate(-148.224 -128.173)" fill="#0a5936"/>
    </g>
  </g>
</svg>
