<svg xmlns="http://www.w3.org/2000/svg" width="152" height="153" viewBox="0 0 152 153">
  <g id="Grupo_99307" data-name="Grupo 99307" transform="translate(-468 -4278)">
    <ellipse id="Elipse_4192" data-name="Elipse 4192" cx="76" cy="76.5" rx="76" ry="76.5" transform="translate(468 4278)" fill="#fff"/>
    <g id="executive" transform="translate(502.426 4308.364)">
      <g id="Grupo_97830" data-name="Grupo 97830" transform="translate(2.423 2.423)">
        <g id="Grupo_97813" data-name="Grupo 97813" transform="translate(35.953 11.382)">
          <path id="Trazado_142115" data-name="Trazado 142115" d="M53.918,11.423V22.8H52.751A15.927,15.927,0,0,0,37.528,34.1a15.689,15.689,0,0,0-7.555-3.856l-1.665-.327-1.039-3.13v-.014a5.685,5.685,0,0,0,3.884-5.392h1.423A4.252,4.252,0,0,0,35.764,14.3l.014-.014.768-3.073A12.045,12.045,0,0,0,36.774,10H52.5A1.427,1.427,0,0,1,53.918,11.423Z" transform="translate(-27.27 -10)" fill="#e6e9ed"/>
        </g>
        <g id="Grupo_97814" data-name="Grupo 97814" transform="translate(0 11.382)">
          <path id="Trazado_142116" data-name="Trazado 142116" d="M24.764,21.382a5.685,5.685,0,0,0,3.884,5.392v.014l-1.039,3.13-1.665.327a14.381,14.381,0,0,0-2.319.654A15.622,15.622,0,0,0,13.382,45.569v4.268H52.066a16.08,16.08,0,0,0,2.248,1.906l5.62,3.927a4.3,4.3,0,0,1,1.821,3.5V69.755A5.663,5.663,0,0,0,64.6,74.678V82.56a1.427,1.427,0,0,1-1.423,1.423H3.423A1.427,1.427,0,0,1,2,82.56V11.423A1.427,1.427,0,0,1,3.423,10h16.12l.7,4.183a4.27,4.27,0,0,0,3.1,7.2Z" transform="translate(-2 -10)" fill="#e6e9ed"/>
        </g>
        <g id="Grupo_97815" data-name="Grupo 97815" transform="translate(17.073 0)">
          <path id="Trazado_142117" data-name="Trazado 142117" d="M41.2,17.479a4.258,4.258,0,0,0-3.016-1.252H36.764V14.8H29.65l-7.114-4.268a5.141,5.141,0,0,0-2.845,4.61v1.081H18.268a4.252,4.252,0,0,0-3.1,1.337l-.7-4.183-.4-2.419A5.791,5.791,0,0,1,14,10.1a5.3,5.3,0,0,1,3.628-5.037l.64-.213A5.141,5.141,0,0,1,22.878,2h9.447a10.134,10.134,0,0,1,10.13,10.13,12.081,12.081,0,0,1-.071,1.252,12.044,12.044,0,0,1-.228,1.209l-.768,3.073-.014.014a1.147,1.147,0,0,0-.171-.2Z" transform="translate(-14 -2)" fill="#d3d3d3"/>
        </g>
        <g id="Grupo_97816" data-name="Grupo 97816" transform="translate(11.382 32.282)">
          <path id="Trazado_142118" data-name="Trazado 142118" d="M22.8,33.667l3.713-2.974L28.5,33.667,25.65,43.627H10V39.358A15.622,15.622,0,0,1,20.244,24.69Z" transform="translate(-10 -24.69)" fill="#f1d54e"/>
        </g>
        <g id="Grupo_97817" data-name="Grupo 97817" transform="translate(32.723 32.282)">
          <path id="Trazado_142119" data-name="Trazado 142119" d="M26.978,30.694l3.713,2.974,2.561-8.977a15.635,15.635,0,0,1,5.236,3.2,15.886,15.886,0,0,0,3.856,15.736h-14.5L25,33.667Z" transform="translate(-25 -24.69)" fill="#f1d54e"/>
        </g>
        <g id="Grupo_97818" data-name="Grupo 97818" transform="translate(27.032 41.259)">
          <path id="Trazado_142120" data-name="Trazado 142120" d="M26.691,31l2.845,9.959H21L23.845,31Z" transform="translate(-21 -31)" fill="#ff826e"/>
        </g>
        <g id="Grupo_97819" data-name="Grupo 97819" transform="translate(27.9 35.569)">
          <path id="Trazado_142121" data-name="Trazado 142121" d="M28.411,29.717l-1.978,2.974H23.588L21.61,29.717,25.01,27Z" transform="translate(-21.61 -27)" fill="#fc6e51"/>
        </g>
        <g id="Grupo_97820" data-name="Grupo 97820" transform="translate(31.3 31.3)">
          <path id="Trazado_142122" data-name="Trazado 142122" d="M24,28.268,29.691,24l1.665.327a15.507,15.507,0,0,1,2.319.654l-2.561,8.977L27.4,30.986Z" transform="translate(-24 -24)" fill="#a0d468"/>
        </g>
        <g id="Grupo_97821" data-name="Grupo 97821" transform="translate(21.626 31.3)">
          <path id="Trazado_142123" data-name="Trazado 142123" d="M21.184,24l5.691,4.268-3.4,2.717-3.713,2.974L17.2,24.982a14.38,14.38,0,0,1,2.319-.654Z" transform="translate(-17.2 -24)" fill="#a0d468"/>
        </g>
        <g id="Grupo_97822" data-name="Grupo 97822" transform="translate(59.755 71.137)">
          <path id="Trazado_142124" data-name="Trazado 142124" d="M44,52H55.382a5.683,5.683,0,0,1-8.536,4.923A5.663,5.663,0,0,1,44,52Z" transform="translate(-44 -52)" fill="#aab2bd"/>
        </g>
        <g id="Grupo_97823" data-name="Grupo 97823" transform="translate(59.755 65.446)">
          <path id="Trazado_142125" data-name="Trazado 142125" d="M44,48H55.382v5.691H44Z" transform="translate(-44 -48)" fill="#aab2bd"/>
        </g>
        <g id="Grupo_97824" data-name="Grupo 97824" transform="translate(45.528 24.187)">
          <path id="Trazado_142126" data-name="Trazado 142126" d="M59.609,60.259H48.227V55.365a4.3,4.3,0,0,0-1.821-3.5l-5.62-3.927a15.944,15.944,0,0,1-4.994-5.691A15.91,15.91,0,0,1,49.906,19h8.024a15.906,15.906,0,0,1,9.12,28.939l-5.62,3.927a4.3,4.3,0,0,0-1.821,3.5Z" transform="translate(-34 -19)" fill="#ffeaa7"/>
        </g>
        <g id="Grupo_97825" data-name="Grupo 97825" transform="translate(56.91 36.991)">
          <path id="Trazado_142127" data-name="Trazado 142127" d="M50.536,45.073,42,33.691l2.845-4.268,2.845,1.423L50.536,28l2.845,2.845,2.845-1.423,2.845,4.268Z" transform="translate(-42 -28)" fill="#fcd770"/>
        </g>
        <g id="Grupo_97826" data-name="Grupo 97826" transform="translate(39.837 14.227)">
          <path id="Trazado_142128" data-name="Trazado 142128" d="M31.423,12a4.258,4.258,0,0,1,3.016,1.252,1.147,1.147,0,0,1,.171.2,4.252,4.252,0,0,1-3.187,7.085H30V12Z" transform="translate(-30 -12)" fill="#f0d0b4"/>
        </g>
        <g id="Grupo_97827" data-name="Grupo 97827" transform="translate(25.609 28.156)">
          <path id="Trazado_142129" data-name="Trazado 142129" d="M31.382,24.934,25.691,29.2,20,24.934l1.039-3.13V21.79a5.41,5.41,0,0,0,1.807.3h5.691a5.41,5.41,0,0,0,1.807-.3V21.8Z" transform="translate(-20 -21.79)" fill="#f0d0b4"/>
        </g>
        <g id="Grupo_97828" data-name="Grupo 97828" transform="translate(22.764 8.536)">
          <path id="Trazado_142130" data-name="Trazado 142130" d="M35.073,13.691v8.536a5.685,5.685,0,0,1-3.884,5.392,5.41,5.41,0,0,1-1.807.3H23.691a5.41,5.41,0,0,1-1.807-.3A5.685,5.685,0,0,1,18,22.227V12.61A5.141,5.141,0,0,1,20.845,8l7.114,4.268h7.114Z" transform="translate(-18 -8)" fill="#f0d0b4"/>
        </g>
        <g id="Grupo_97829" data-name="Grupo 97829" transform="translate(17.073 14.227)">
          <path id="Trazado_142131" data-name="Trazado 142131" d="M19.691,12v8.536H18.268a4.268,4.268,0,0,1,0-8.536Z" transform="translate(-14 -12)" fill="#f0d0b4"/>
        </g>
      </g>
      <g id="Grupo_97831" data-name="Grupo 97831" transform="translate(1 1)">
        <path id="Trazado_142132" data-name="Trazado 142132" d="M21,17.612v2.845h4.268a5.993,5.993,0,0,0,5.391-3.332l.149-.3-2.545-1.273-.149.3a3.164,3.164,0,0,1-2.845,1.759Z" transform="translate(7.455 5.152)" fill="#0a5936"/>
        <path id="Trazado_142133" data-name="Trazado 142133" d="M0,0H2.845V8.3H0Z" transform="translate(32.014 8.319) rotate(-59.026)" fill="#0a5936"/>
        <path id="Trazado_142134" data-name="Trazado 142134" d="M9,41H20.382v2.845H9Z" transform="translate(2.382 15.91)" fill="#0a5936"/>
        <path id="Trazado_142135" data-name="Trazado 142135" d="M19,41H30.382v2.845H19Z" transform="translate(6.609 15.91)" fill="#0a5936"/>
        <path id="Trazado_142136" data-name="Trazado 142136" d="M9,45H51.682v2.845H9Z" transform="translate(2.382 17.601)" fill="#0a5936"/>
        <path id="Trazado_142137" data-name="Trazado 142137" d="M9,49H51.682v2.845H9Z" transform="translate(2.382 19.292)" fill="#0a5936"/>
        <path id="Trazado_142138" data-name="Trazado 142138" d="M9,57h2.845v2.845H9Z" transform="translate(2.382 22.674)" fill="#0a5936"/>
        <path id="Trazado_142139" data-name="Trazado 142139" d="M13,57h2.845v2.845H13Z" transform="translate(4.073 22.674)" fill="#0a5936"/>
        <path id="Trazado_142140" data-name="Trazado 142140" d="M17,57h2.845v2.845H17Z" transform="translate(5.764 22.674)" fill="#0a5936"/>
        <path id="Trazado_142141" data-name="Trazado 142141" d="M9,53H51.682v2.845H9Z" transform="translate(2.382 20.983)" fill="#0a5936"/>
        <path id="Trazado_142142" data-name="Trazado 142142" d="M52.477,52.784v-6.64l8.857-11.807-4.1-6.151L54.18,29.712l-3.126-3.126-3.126,3.126-3.053-1.525-4.1,6.151,8.857,11.807v6.64ZM44.261,34.24l1.591-2.386,2.638,1.32,2.565-2.565,2.565,2.565,2.638-1.32,1.591,2.386L52.477,41.4V35.711H49.632V41.4Z" transform="translate(15.815 9.816)" fill="#0a5936"/>
        <path id="Trazado_142143" data-name="Trazado 142143" d="M43,47H57.227v2.845H43Z" transform="translate(16.755 18.446)" fill="#0a5936"/>
        <path id="Trazado_142144" data-name="Trazado 142144" d="M71.881,25.187H66.446V15.227A2.848,2.848,0,0,0,63.6,12.382H49.365A11.566,11.566,0,0,0,37.816,1H28.368a6.528,6.528,0,0,0-5.574,3.092l-.117.038a6.74,6.74,0,0,0-4.513,7.5l.127.755H3.845A2.848,2.848,0,0,0,1,15.227V86.364A2.848,2.848,0,0,0,3.845,89.21H63.6a2.848,2.848,0,0,0,2.845-2.845V80.53a7.114,7.114,0,0,0,8.536-6.97V72.137H60.755V73.56A7.081,7.081,0,0,0,63.6,79.214v7.151H3.845V15.227H18.764l.4,2.373a5.64,5.64,0,0,0-1.087,3.318,5.7,5.7,0,0,0,5.691,5.691h.144a7.107,7.107,0,0,0,3.426,4.708l-.39,1.172-.861.172a17.089,17.089,0,0,0-13.7,16.712v5.691H51.94a17.1,17.1,0,0,0,1.979,1.646l5.623,3.937a2.842,2.842,0,0,1,1.214,2.33V63.6H63.6v-.623a5.7,5.7,0,0,0-2.427-4.662l-5.623-3.937a14.482,14.482,0,0,1,8.306-26.346h8.026a14.482,14.482,0,0,1,8.3,26.346l-5.623,3.937a5.7,5.7,0,0,0-2.427,4.662V63.6h2.845v-.623a2.842,2.842,0,0,1,1.214-2.33l5.623-3.937a17.328,17.328,0,0,0-9.938-31.524Zm.013,49.8a4.269,4.269,0,0,1-8.05,0ZM46.528,20.918a2.848,2.848,0,0,1-2.845,2.845V18.073A2.848,2.848,0,0,1,46.528,20.918Zm-25.609,0a2.848,2.848,0,0,1,2.845-2.845v5.691A2.848,2.848,0,0,1,20.918,20.918ZM28.095,9.337l-.7.35a6.521,6.521,0,0,0-3.609,5.54h-.023a5.641,5.641,0,0,0-2.049.4l-.744-4.469a3.8,3.8,0,0,1-.053-.636A3.884,3.884,0,0,1,23.576,6.83l1.2-.4.265-.528a3.7,3.7,0,0,1,3.331-2.059h9.448A8.71,8.71,0,0,1,46.267,14.67L46,15.732a5.642,5.642,0,0,0-2.319-.505H40.837v9.959a4.273,4.273,0,0,1-4.268,4.268H30.878a4.273,4.273,0,0,1-4.268-4.268V15.563a3.7,3.7,0,0,1,1.434-2.938l6.371,3.823,1.464-2.44ZM33.374,45.1h.7L36.1,52.219H31.341Zm1.01-2.845H33.061l-.834-1.251,1.5-1.2,1.5,1.2Zm1.662-4.233,3.712-2.784,1.049.209c.285.057.556.154.837.228l-1.586,5.556ZM30.878,32.3h5.691a6.931,6.931,0,0,0,.847-.075l.324.976-4.016,3.012L29.707,33.2l.329-.986A6.836,6.836,0,0,0,30.878,32.3Zm-4.238,3.151,1.049-.209L31.4,38.027l-4.011,3.208L25.8,35.659c.28-.074.558-.151.842-.208ZM15.227,49.373a14.243,14.243,0,0,1,7.895-12.718l2.706,9.474L30,42.794l.753,1.13-2.369,8.295H15.227Zm34.28,2.845H39.065L36.7,43.924l.753-1.13,4.169,3.335,2.7-9.467a14.116,14.116,0,0,1,2.709,1.781,17.138,17.138,0,0,0,2.477,13.775ZM47.99,35.57a17.027,17.027,0,0,0-6.626-2.908L40.5,32.49l-.381-1.144a7.139,7.139,0,0,0,3.417-4.736h.142a5.683,5.683,0,0,0,4.741-8.83l.6-2.419c.011-.044.014-.09.024-.134H63.6V25.2A17.345,17.345,0,0,0,47.99,35.57Z" transform="translate(-1 -1)" fill="#0a5936"/>
      </g>
    </g>
  </g>
</svg>
