<svg xmlns="http://www.w3.org/2000/svg" width="152" height="153" viewBox="0 0 152 153">
  <g id="Grupo_99308" data-name="Grupo 99308" transform="translate(-982 -4278)">
    <ellipse id="Elipse_4504" data-name="Elipse 4504" cx="76" cy="76.5" rx="76" ry="76.5" transform="translate(982 4278)" fill="#fff"/>
    <g id="dashboard" transform="translate(1012 4313.807)">
      <g id="Grupo_97845" data-name="Grupo 97845" transform="translate(2.439 2.439)">
        <g id="Grupo_97832" data-name="Grupo 97832" transform="translate(0 10.07)">
          <path id="Trazado_142145" data-name="Trazado 142145" d="M2,9V63.667H59.544a7.193,7.193,0,0,1,14.386,0h5.754V9Z" transform="translate(-2 -9)" fill="#e6e9ed"/>
        </g>
        <g id="Grupo_97833" data-name="Grupo 97833" transform="translate(5.754 47.474)">
          <path id="Trazado_142146" data-name="Trazado 142146" d="M6,35h5.754V46.509H6Z" transform="translate(-6 -35)" fill="#fcd770"/>
        </g>
        <g id="Grupo_97834" data-name="Grupo 97834" transform="translate(17.263 50.351)">
          <path id="Trazado_142147" data-name="Trazado 142147" d="M14,37h5.754v8.632H14Z" transform="translate(-14 -37)" fill="#fcd770"/>
        </g>
        <g id="Grupo_97835" data-name="Grupo 97835" transform="translate(28.772 38.842)">
          <path id="Trazado_142148" data-name="Trazado 142148" d="M22,29h5.754V49.14H22Z" transform="translate(-22 -29)" fill="#fcd770"/>
        </g>
        <g id="Grupo_97836" data-name="Grupo 97836" transform="translate(40.281 44.597)">
          <path id="Trazado_142149" data-name="Trazado 142149" d="M35.754,33v9.38a21.681,21.681,0,0,0-2.1,5.006H30V33Z" transform="translate(-30 -33)" fill="#fcd770"/>
        </g>
        <g id="Grupo_97837" data-name="Grupo 97837" transform="translate(51.79 51.79)">
          <path id="Trazado_142150" data-name="Trazado 142150" d="M50.947,38A12.948,12.948,0,0,0,38,50.947a12.947,12.947,0,0,0,25.895,0A12.948,12.948,0,0,0,50.947,38Zm0,20.14a7.193,7.193,0,1,1,7.193-7.193A7.2,7.2,0,0,1,50.947,58.14Z" transform="translate(-38 -38)" fill="#ccd1d9"/>
        </g>
        <g id="Grupo_97838" data-name="Grupo 97838" transform="translate(46.05 71.211)">
          <path id="Trazado_142151" data-name="Trazado 142151" d="M63.9,51.5l7.481,4.316a21.578,21.578,0,0,1-37.375,0L41.491,51.5a12.937,12.937,0,0,0,22.413,0Z" transform="translate(-34.01 -51.5)" fill="#fcd770"/>
        </g>
        <g id="Grupo_97839" data-name="Grupo 97839" transform="translate(64.737 43.158)">
          <path id="Trazado_142152" data-name="Trazado 142152" d="M68.579,53.579a21.413,21.413,0,0,1-2.892,10.79l-7.481-4.316a12.815,12.815,0,0,0,1.741-6.474A12.948,12.948,0,0,0,47,40.632V32A21.579,21.579,0,0,1,68.579,53.579Z" transform="translate(-47 -32)" fill="#ff826e"/>
        </g>
        <g id="Grupo_97840" data-name="Grupo 97840" transform="translate(43.158 43.158)">
          <path id="Trazado_142153" data-name="Trazado 142153" d="M53.579,32v8.632A12.948,12.948,0,0,0,40.632,53.579a12.815,12.815,0,0,0,1.741,6.474l-7.481,4.316A21.413,21.413,0,0,1,32,53.579,21.586,21.586,0,0,1,53.579,32Z" transform="translate(-32 -32)" fill="#d2f6e6"/>
        </g>
        <g id="Grupo_97841" data-name="Grupo 97841" transform="translate(34.526 28.772)">
          <path id="Trazado_142154" data-name="Trazado 142154" d="M30.906,22.849a2.813,2.813,0,0,1,.849,2.028A2.877,2.877,0,1,1,28.877,22,2.813,2.813,0,0,1,30.906,22.849Z" transform="translate(-26 -22)" fill="#ff826e"/>
        </g>
        <g id="Grupo_97842" data-name="Grupo 97842" transform="translate(47.474 15.825)">
          <path id="Trazado_142155" data-name="Trazado 142155" d="M39.906,17.906A2.877,2.877,0,0,1,35,15.877a2.877,2.877,0,0,1,5.754,0A2.813,2.813,0,0,1,39.906,17.906Z" transform="translate(-35 -13)" fill="#ff826e"/>
        </g>
        <g id="Grupo_97843" data-name="Grupo 97843" transform="translate(56.105 24.456)">
          <path id="Trazado_142156" data-name="Trazado 142156" d="M45.906,19.849a2.813,2.813,0,0,1,.849,2.028,2.877,2.877,0,1,1-5.754,0,2.869,2.869,0,0,1,4.906-2.028Z" transform="translate(-41 -19)" fill="#ff826e"/>
        </g>
        <g id="Grupo_97844" data-name="Grupo 97844" transform="translate(69.053)">
          <path id="Trazado_142157" data-name="Trazado 142157" d="M58.632,2a8.632,8.632,0,0,1,0,17.263,8.629,8.629,0,0,1-8.5-7.193A7.869,7.869,0,0,1,50,10.632,8.638,8.638,0,0,1,58.632,2Z" transform="translate(-50 -2)" fill="#ff826e"/>
        </g>
      </g>
      <g id="Grupo_97846" data-name="Grupo 97846" transform="translate(1 1)">
        <path id="Trazado_142158" data-name="Trazado 142158" d="M81.562,49.236V21.025A10.065,10.065,0,1,0,70.053,11.07H1V68.614H44.231a23,23,0,1,0,37.33-19.378ZM80.123,3.877A7.193,7.193,0,1,1,72.93,11.07,7.2,7.2,0,0,1,80.123,3.877ZM3.877,13.947h66.6a10.064,10.064,0,0,0,1.593,3.143l-8.8,8.8a4.166,4.166,0,0,0-3.7,0l-2.9-2.9a4.276,4.276,0,0,0,.432-1.85,4.316,4.316,0,1,0-8.632,0,4.245,4.245,0,0,0,.433,1.849L41.692,30.2a4.276,4.276,0,0,0-1.85-.432,4.316,4.316,0,1,0,4.316,4.316,4.245,4.245,0,0,0-.433-1.849l7.215-7.215a4.172,4.172,0,0,0,3.7,0l2.9,2.9a4.276,4.276,0,0,0-.432,1.85,4.316,4.316,0,1,0,8.632,0,4.245,4.245,0,0,0-.433-1.849l8.8-8.8a10.009,10.009,0,0,0,4.581,1.9V47.274A22.878,22.878,0,0,0,49.912,52V45.6H41.281V62.86h3.3a23.078,23.078,0,0,0-.347,2.877H3.877ZM61.421,28.333a1.439,1.439,0,1,1-1.439,1.439A1.44,1.44,0,0,1,61.421,28.333ZM51.351,21.14a1.439,1.439,0,1,1,1.439,1.439A1.44,1.44,0,0,1,51.351,21.14ZM41.281,34.088a1.439,1.439,0,1,1-1.439-1.439A1.44,1.44,0,0,1,41.281,34.088Zm25.895,44.6A11.509,11.509,0,1,1,78.685,67.176,11.522,11.522,0,0,1,67.176,78.685ZM47.035,56.057a22.844,22.844,0,0,0-1.71,3.926H44.158V48.474h2.877Zm18.7-8.948v5.754A14.356,14.356,0,0,0,54.071,73.08l-4.991,2.882A20.071,20.071,0,0,1,65.737,47.109Zm1.439,40.208a20.13,20.13,0,0,1-16.671-8.855l5.011-2.893a14.339,14.339,0,0,0,23.32,0l5.011,2.893A20.13,20.13,0,0,1,67.176,87.316ZM85.27,75.961,80.28,73.08A14.356,14.356,0,0,0,68.614,52.863V47.109A20.071,20.071,0,0,1,85.27,75.961Z" transform="translate(-1 -1)" fill="#0a5936"/>
        <path id="Trazado_142159" data-name="Trazado 142159" d="M49.632,41a8.632,8.632,0,1,0,8.632,8.632A8.64,8.64,0,0,0,49.632,41Zm0,14.386a5.754,5.754,0,1,1,5.754-5.754A5.76,5.76,0,0,1,49.632,55.386Z" transform="translate(16.544 16.544)" fill="#0a5936"/>
        <path id="Trazado_142160" data-name="Trazado 142160" d="M5,12H7.877v2.877H5Z" transform="translate(0.754 3.825)" fill="#0a5936"/>
        <path id="Trazado_142161" data-name="Trazado 142161" d="M9,12H29.14v2.877H9Z" transform="translate(2.509 3.825)" fill="#0a5936"/>
        <path id="Trazado_142162" data-name="Trazado 142162" d="M5,16H7.877v2.877H5Z" transform="translate(0.754 5.579)" fill="#0a5936"/>
        <path id="Trazado_142163" data-name="Trazado 142163" d="M9,16H29.14v2.877H9Z" transform="translate(2.509 5.579)" fill="#0a5936"/>
        <path id="Trazado_142164" data-name="Trazado 142164" d="M5,20H7.877v2.877H5Z" transform="translate(0.754 7.333)" fill="#0a5936"/>
        <path id="Trazado_142165" data-name="Trazado 142165" d="M9,20H29.14v2.877H9Z" transform="translate(2.509 7.333)" fill="#0a5936"/>
        <path id="Trazado_142166" data-name="Trazado 142166" d="M5,24H7.877v2.877H5Z" transform="translate(0.754 9.088)" fill="#0a5936"/>
        <path id="Trazado_142167" data-name="Trazado 142167" d="M9,24H29.14v2.877H9Z" transform="translate(2.509 9.088)" fill="#0a5936"/>
        <path id="Trazado_142168" data-name="Trazado 142168" d="M5,48.386h8.632V34H5ZM7.877,36.877h2.877v8.632H7.877Z" transform="translate(0.754 13.474)" fill="#0a5936"/>
        <path id="Trazado_142169" data-name="Trazado 142169" d="M13,47.509h8.632V36H13Zm2.877-8.632h2.877v5.754H15.877Z" transform="translate(4.263 14.351)" fill="#0a5936"/>
        <path id="Trazado_142170" data-name="Trazado 142170" d="M21,51.018h8.632V28H21Zm2.877-20.14h2.877V48.14H23.877Z" transform="translate(7.772 10.842)" fill="#0a5936"/>
      </g>
    </g>
  </g>
</svg>
