<svg xmlns="http://www.w3.org/2000/svg" xmlns:xlink="http://www.w3.org/1999/xlink" width="451" height="349" viewBox="0 0 451 349">
  <defs>
    <linearGradient id="linear-gradient" y1="0.5" x2="1" y2="0.5" gradientUnits="objectBoundingBox">
      <stop offset="0.494" stop-color="#ebeff2"/>
      <stop offset="1" stop-color="#fff"/>
    </linearGradient>
    <linearGradient id="linear-gradient-2" x1="0.329" y1="0.554" x2="-0.255" y2="0.738" gradientUnits="objectBoundingBox">
      <stop offset="0" stop-color="#fcb148"/>
      <stop offset="0.052" stop-color="#fdb946"/>
      <stop offset="0.142" stop-color="#fec144"/>
      <stop offset="0.318" stop-color="#ffc444"/>
      <stop offset="0.485" stop-color="#fdb946"/>
      <stop offset="0.775" stop-color="#f99c4c"/>
      <stop offset="0.866" stop-color="#f8924f"/>
      <stop offset="1" stop-color="#f8924f"/>
    </linearGradient>
    <linearGradient id="linear-gradient-3" x1="0.727" y1="0.007" x2="0.207" y2="1.135" gradientUnits="objectBoundingBox">
      <stop offset="0" stop-color="#ffdb44"/>
      <stop offset="1" stop-color="#feef06"/>
    </linearGradient>
    <linearGradient id="linear-gradient-4" x1="0.636" y1="1.231" x2="0.531" y2="0.666" xlink:href="#linear-gradient-2"/>
    <linearGradient id="linear-gradient-5" x1="0.409" y1="0.31" x2="0.858" y2="1.247" xlink:href="#linear-gradient-2"/>
    <linearGradient id="linear-gradient-6" x1="0.253" y1="0.019" x2="0.711" y2="1.039" xlink:href="#linear-gradient-3"/>
    <linearGradient id="linear-gradient-7" x1="0.464" y1="0.369" x2="1.215" y2="1.306" xlink:href="#linear-gradient-2"/>
    <linearGradient id="linear-gradient-8" x1="0.405" y1="0.935" x2="0.732" y2="0.104" gradientUnits="objectBoundingBox">
      <stop offset="0.004" stop-color="#6165d7"/>
      <stop offset="1" stop-color="#aa80f9"/>
    </linearGradient>
    <linearGradient id="linear-gradient-9" x1="-30.122" y1="0.268" x2="-29.86" y2="1.66" gradientUnits="objectBoundingBox">
      <stop offset="0" stop-color="#ffc444"/>
      <stop offset="0.996" stop-color="#f36f56"/>
    </linearGradient>
    <linearGradient id="linear-gradient-10" x1="12.129" y1="-8.998" x2="12.344" y2="-7.192" xlink:href="#linear-gradient-9"/>
    <linearGradient id="linear-gradient-11" x1="-23.874" y1="2.261" x2="-23.874" y2="-7.281" xlink:href="#linear-gradient-9"/>
    <linearGradient id="linear-gradient-12" x1="-3.727" y1="0.108" x2="-3.898" y2="1.072" gradientUnits="objectBoundingBox">
      <stop offset="0" stop-color="#311944"/>
      <stop offset="1" stop-color="#893976"/>
    </linearGradient>
    <linearGradient id="linear-gradient-14" x1="-10.778" y1="1.366" x2="-11.767" y2="-2.607" gradientUnits="objectBoundingBox">
      <stop offset="0" stop-color="#ff9085"/>
      <stop offset="1" stop-color="#fb6fbb"/>
    </linearGradient>
    <linearGradient id="linear-gradient-15" x1="47.182" y1="-57.255" x2="47.182" y2="-67.358" xlink:href="#linear-gradient-9"/>
    <linearGradient id="linear-gradient-16" x1="67.261" y1="-25.302" x2="65.225" y2="-28.083" xlink:href="#linear-gradient-14"/>
    <linearGradient id="linear-gradient-17" x1="-4.803" y1="0.532" x2="-7.215" y2="0.475" xlink:href="#linear-gradient-12"/>
    <linearGradient id="linear-gradient-18" x1="2.833" y1="-0.262" x2="3.296" y2="1.504" xlink:href="#linear-gradient-14"/>
    <linearGradient id="linear-gradient-19" x1="-6.171" y1="0.365" x2="-6.823" y2="1.225" xlink:href="#linear-gradient-9"/>
    <linearGradient id="linear-gradient-20" x1="-1.165" y1="1.03" x2="-0.631" y2="-0.052" gradientUnits="objectBoundingBox">
      <stop offset="0" stop-color="#444b8c"/>
      <stop offset="0.996" stop-color="#26264f"/>
    </linearGradient>
  </defs>
  <g id="Grupo_98942" data-name="Grupo 98942" transform="translate(-624 10207)">
    <g id="Grupo_98941" data-name="Grupo 98941" transform="translate(190.522 -10622.623)">
      <path id="Trazado_143824" data-name="Trazado 143824" d="M659.9,429.808c-33.681,13.392-36.907,47.626-67.234,50.564-26.424,2.56-36.468-22.221-55.01-17.781-28.244,6.764-46,74.1-34.657,129.467,11.713,57.17,60.925,133.171,142.454,138.357,91.534,5.823,160.793-81.622,165.022-158.36.457-8.3,3.158-77.834-50-118.909C757.813,451.093,705.428,411.7,659.9,429.808Z" transform="translate(0 0)" fill="#f4f7fa"/>
      <g id="Grupo_98936" data-name="Grupo 98936" transform="translate(505.336 555.858)">
        <g id="Grupo_98934" data-name="Grupo 98934" transform="translate(0 0)">
          <g id="Grupo_98933" data-name="Grupo 98933">
            <path id="Trazado_143838" data-name="Trazado 143838" d="M937.313,2967.471l-319.43-2.761v8.169a4.338,4.338,0,0,0,3.28,4.439l90.325,16.088a12.5,12.5,0,0,0,3.241.151l219.113-18.342a4.133,4.133,0,0,0,3.471-4.333Z" transform="translate(-610.152 -2804.958)" fill="#bfc8d6"/>
            <g id="Grupo_98932" data-name="Grupo 98932">
              <path id="Trazado_143839" data-name="Trazado 143839" d="M759.917,1717.751,556.894,1732.7a6.154,6.154,0,0,1-6.587-6.348V1575.163a6.716,6.716,0,0,1,6.587-6.833H759.917c2.993,0,5.413,2.765,5.413,6.177v136.669C765.33,1714.587,762.91,1717.531,759.917,1717.751Z" transform="translate(-550.307 -1568.33)" fill="#bfc8d6"/>
              <path id="Trazado_143840" data-name="Trazado 143840" d="M788.213,1717.751,585.19,1732.7a6.154,6.154,0,0,1-6.587-6.348V1575.163a6.716,6.716,0,0,1,6.587-6.833H788.213c2.993,0,5.413,2.765,5.413,6.177v136.669C793.626,1714.587,791.206,1717.531,788.213,1717.751Z" transform="translate(-575.366 -1568.33)" fill="#fff"/>
              <path id="Trazado_143841" data-name="Trazado 143841" d="M850.252,1776.064l-189.1,12.982a5.045,5.045,0,0,1-5.359-5.21V1651.472a5.5,5.5,0,0,1,5.359-5.6l189.1-.815c2.469-.011,4.466,2.255,4.466,5.061v120.559C854.718,1773.482,852.721,1775.894,850.252,1776.064Z" transform="translate(-643.729 -1636.278)" fill="#d8dee8"/>
              <path id="Trazado_143842" data-name="Trazado 143842" d="M1549.963,1584.8a2.346,2.346,0,1,1-2.335-2.542A2.455,2.455,0,0,1,1549.963,1584.8Z" transform="translate(-1431.457 -1580.663)" fill="#fff"/>
              <path id="Trazado_143843" data-name="Trazado 143843" d="M585.189,1732.7l202-14.87,1.028-.076a5.451,5.451,0,0,0,3.576-1.81c-14.536-.8-23.564-5.954-29.388-11.284-11.7-10.7-9.667-21.26-22.28-28.3-15.731-8.778-28.1,2.345-40.039-8.63-7.237-6.654-3.684-11.615-12.589-21.558-9.863-11.012-16.285-7.311-26.2-17.222-12.533-12.532-6.265-22.282-17.061-31.28-13.1-10.916-27.222-.813-39.69-11.281-5.378-4.515-8.328-11.079-9.869-18.06H585.19a6.716,6.716,0,0,0-6.587,6.833v151.186A6.154,6.154,0,0,0,585.189,1732.7Z" transform="translate(-575.366 -1568.329)" fill="#fff" opacity="0.48" style="mix-blend-mode: soft-light;isolation: isolate"/>
            </g>
            <path id="Trazado_143844" data-name="Trazado 143844" d="M832.565,2866.821l-214.682,15.731,93.605,16.672a12.531,12.531,0,0,0,3.241.151l222.584-18.633L835.98,2866.928A16.421,16.421,0,0,0,832.565,2866.821Z" transform="translate(-610.152 -2718.229)" fill="url(#linear-gradient)"/>
            <path id="Trazado_143845" data-name="Trazado 143845" d="M891.7,2902.958l178.729-13.292,55.315,7.48-177.19,14.209Z" transform="translate(-852.64 -2738.498)" fill="#d8dee8"/>
          </g>
        </g>
        <g id="Grupo_98935" data-name="Grupo 98935" transform="translate(77.735 23.628)">
          <path id="Trazado_143846" data-name="Trazado 143846" d="M1309.879,1801.681c-6.126-19.668-25.824-31.023-44-25.363s-27.939,26.193-21.813,45.861,25.824,31.023,44,25.363S1316,1821.349,1309.879,1801.681Zm-28.487,24.013.125,5.367-5.157.119-.117-5a21.158,21.158,0,0,1-9-2.054l1.435-6.193a18.593,18.593,0,0,0,8.789,2.112c3-.069,5.025-1.275,4.976-3.38-.046-2-1.76-3.223-5.684-4.449-5.675-1.763-9.577-4.306-9.7-9.41-.107-4.63,3.071-8.337,8.675-9.573l-.116-5,5.157-.119.107,4.631a18.951,18.951,0,0,1,7.671,1.559l-1.388,5.982a17.459,17.459,0,0,0-7.62-1.613c-3.42.079-4.491,1.579-4.456,3.052.04,1.736,1.908,2.8,6.42,4.378,6.314,2.065,8.906,4.9,9.017,9.635C1290.641,1820.425,1287.419,1824.5,1281.392,1825.694Z" transform="translate(-1240.815 -1774.863)" fill="#97a6b7" opacity="0.3" style="mix-blend-mode: multiply;isolation: isolate"/>
          <path id="Trazado_143847" data-name="Trazado 143847" d="M1301.837,2533.707a4.781,4.781,0,0,1-4.479,4.755l-62.151,3.416a4.894,4.894,0,0,1-5.427-4.642v-10.287a5.444,5.444,0,0,1,5.454-5.1l62.086-1.892a4.34,4.34,0,0,1,4.518,4.366Z" transform="translate(-1229.78 -2434.71)" fill="#97a6b7" opacity="0.3" style="mix-blend-mode: multiply;isolation: isolate"/>
        </g>
      </g>
      <g id="Grupo_98938" data-name="Grupo 98938" transform="translate(589.132 478.631)">
        <path id="Trazado_143848" data-name="Trazado 143848" d="M1436.109,1007.8c0,41.488-32.441,74.125-73.905,72.852-43.151-1.325-79.443-38.593-79.443-83.19s36.292-76.971,79.443-72.478C1403.668,929.3,1436.109,966.313,1436.109,1007.8Z" transform="translate(-1282.761 -920.991)" fill="url(#linear-gradient-2)"/>
        <path id="Trazado_143849" data-name="Trazado 143849" d="M1534.045,976.532c0,41.488-32.441,74.125-73.9,72.852-43.151-1.325-79.443-38.593-79.443-83.19s36.292-76.972,79.443-72.478C1501.6,898.033,1534.045,935.044,1534.045,976.532Z" transform="translate(-1369.492 -893.299)" fill="url(#linear-gradient-3)"/>
        <path id="Trazado_143850" data-name="Trazado 143850" d="M1559.8,1004c0,39.661-31.04,70.808-70.65,69.525-41.147-1.332-75.695-36.9-75.695-79.391s34.547-73.4,75.695-69.185C1528.764,929.011,1559.8,964.343,1559.8,1004Z" transform="translate(-1398.506 -920.991)" fill="url(#linear-gradient-4)"/>
        <path id="Trazado_143851" data-name="Trazado 143851" d="M1578.136,1023.62c0,38.353-30.035,68.435-68.319,67.15-39.719-1.333-73.026-35.684-73.026-76.679s33.307-70.854,73.026-66.833C1548.1,951.135,1578.136,985.267,1578.136,1023.62Z" transform="translate(-1419.169 -940.764)" fill="url(#linear-gradient-5)"/>
        <g id="Grupo_98937" data-name="Grupo 98937" transform="translate(55.21 19.526)">
          <path id="Trazado_143852" data-name="Trazado 143852" d="M1800.391,1063.987h0a4.176,4.176,0,0,1,3.686,4.1v7.061a103.839,103.839,0,0,1,12.238,2.123q4.518,1.062,8.976,2.528a4.128,4.128,0,0,1,2.812,4.237l-.867,8.855a3.319,3.319,0,0,1-4.739,2.754,51.152,51.152,0,0,0-6.021-2.243,54.581,54.581,0,0,0-11.358-2.122l-1.042-.086v20.223c10.628,2.974,18.432,6.973,23.476,12a25.379,25.379,0,0,1,7.521,18.739q0,12.152-8.317,19.481-8.372,7.378-23.527,8.284v7.794a3.545,3.545,0,0,1-3.689,3.6l-.066,0a3.918,3.918,0,0,1-3.7-3.908v-7.688l-1.642-.074a107.938,107.938,0,0,1-13.63-1.453,88.658,88.658,0,0,1-9.419-2.166,4.059,4.059,0,0,1-2.955-4.2l1.02-11.382a3.6,3.6,0,0,1,5.032-2.97,73.925,73.925,0,0,0,8.284,2.719,72.615,72.615,0,0,0,13.244,2.213l.065-22.5q-15.3-3.786-22.856-11.215-7.562-7.463-7.571-19.085,0-12.018,8.208-18.537c5.437-4.318,13.167-6.467,23.138-6.461v-7.219A3.334,3.334,0,0,1,1800.391,1063.987Zm-3.7,26.995a12.458,12.458,0,0,0-7.371,2.6,7.578,7.578,0,0,0-2.645,6.07,8.148,8.148,0,0,0,2.447,6.033,17.332,17.332,0,0,0,7.569,3.861Zm6.538,40.734v20.629q5.141.01,7.89-2.453a8.831,8.831,0,0,0,2.746-6.944,9.486,9.486,0,0,0-2.552-6.789Q1808.757,1133.455,1803.231,1131.716Z" transform="translate(-1765.346 -1063.97)" fill="url(#linear-gradient-6)"/>
        </g>
        <path id="Trazado_143853" data-name="Trazado 143853" d="M1497.452,1035.911c2.308-22.8,23.26-32.449,20.526-53.42-1.685-12.925-11.482-23.818-22.41-32.322-33.147,3.476-58.779,30.923-58.779,66.821,0,40.995,33.307,75.345,73.026,76.679a68.962,68.962,0,0,0,11.285-.551C1505.327,1077.422,1495.469,1055.5,1497.452,1035.911Z" transform="translate(-1419.168 -943.663)" opacity="0.3" fill="url(#linear-gradient-7)" style="mix-blend-mode: multiply;isolation: isolate"/>
      </g>
      <g id="Grupo_98939" data-name="Grupo 98939" transform="translate(524.575 429.212)">
        <path id="Trazado_143854" data-name="Trazado 143854" d="M932.822,546.256v.324a138.477,138.477,0,0,0-10.95-12.359c-.057-.138-.152-.275-.208-.413a72.964,72.964,0,0,0-6.972-12.869A71.035,71.035,0,0,0,903.557,508.2c-.526-.518-1.135-.976-1.7-1.465-.287-.239-.577-.486-.869-.725l-.426-.364c-.15-.121-.3-.231-.454-.348q-.9-.686-1.814-1.385l-.453-.348-.478-.324c-.316-.219-.632-.437-.947-.652-1.247-.9-2.591-1.684-3.9-2.51-.668-.4-1.368-.769-2.048-1.15-.336-.19-.68-.385-1.024-.571s-.708-.352-1.057-.526a66.114,66.114,0,0,0-18.034-6.02l-2.364-.389c-.789-.109-1.591-.178-2.376-.271l-1.19-.134-1.194-.065-1.194-.073c-.4-.02-.789-.061-1.19-.053-.793,0-1.587-.012-2.385-.016-.194,0-.4-.012-.587,0l-.531.028-1.061.057-1.053.053c-.093,0-.158,0-.279.012l-1.081.081-1.445.1-1.081.081-.182.012-.065,0s-.376,0,.255.012l-2.336.344c-.384.061-.773.1-1.158.182l-1.146.231-1.146.227-.571.113c-.19.036-.376.093-.563.138-.749.19-1.5.376-2.243.571-.376.081-.741.211-1.105.32l-1.093.344-1.093.328-1.069.393c-.712.267-1.425.5-2.117.785s-1.38.583-2.065.879a59.325,59.325,0,0,0-14.5,9.125l-.785.656-.745.7c-.494.461-1,.9-1.474,1.376-.02.016-.036.041-.057.057-.915.947-1.842,1.838-2.664,2.818-.219.239-.433.482-.644.724l-.324.356-.3.38c-.4.494-.8.992-1.194,1.482-.1.121-.2.239-.3.364l-.271.381c-.186.255-.368.51-.55.757-.356.51-.745.98-1.065,1.506a56.313,56.313,0,0,0-6.165,11.958,54.654,54.654,0,0,0-2.732,10.663c-.053.4-.105.794-.158,1.182s-.121.761-.138,1.137c-.061.753-.122,1.47-.182,2.154-.041.7-.041,1.364-.069,1.992-.012.316-.032.624-.036.919.012.3.02.6.024.883.008.571.016,1.109.024,1.611a2.014,2.014,0,0,0,.028.312c.012.093.024.186.036.275.016.178.041.154.057.316.012.138.028.2.04.2h26.649l-16.193,17.953-37.644,41.17L718.472,550.39h28.309a4.379,4.379,0,0,0,.13-.866c.109-.822.227-1.623.356-2.6.073-.486.138-.939.215-1.461.04-.255.077-.5.117-.765s.073-.547.125-.777c.2-.98.4-2.012.623-3.113.117-.547.231-1.105.352-1.68s.284-1.158.437-1.757c.307-1.194.607-2.449.98-3.74q.6-1.925,1.235-4c.207-.7.478-1.38.729-2.089l.785-2.141a102.274,102.274,0,0,1,9.21-18.367A100.845,100.845,0,0,1,777.2,488.582c.733-.749,1.542-1.433,2.324-2.15.4-.352.789-.708,1.186-1.065l.6-.534.615-.51c.83-.676,1.668-1.36,2.5-2.044l.632-.51.656-.486c.441-.328.879-.652,1.32-.976,1.729-1.324,3.587-2.518,5.433-3.749.931-.6,1.894-1.158,2.854-1.737.474-.283.955-.567,1.437-.858l1.482-.8a95.868,95.868,0,0,1,25.617-9.55c1.13-.223,2.267-.449,3.4-.672s2.287-.356,3.429-.53l1.716-.243,1.729-.17,1.724-.166c.575-.053,1.146-.117,1.725-.138,1.15-.052,2.3-.19,3.457-.243.283-.012.575-.121.862-.121h.866l1.72.1,1.721.057c.575,0,1.15.077,1.72.105l3.421.206c.777.012.267.02.466.024l.089.012.182.02.356.048.721.089,1.433.178.721.089.356.045.441.061,1.814.267,1.813.275.9.142c.3.049.559.113.842.17,1.105.235,2.21.474,3.315.7.551.109,1.093.267,1.635.409l1.631.433,1.619.433,1.6.506c1.061.344,2.125.668,3.166,1.04,1.041.389,2.073.777,3.1,1.166a88.924,88.924,0,0,1,22.087,12.655c.4.312.806.627,1.206.939s.777.652,1.162.984c.769.656,1.542,1.287,2.283,1.959,1.461,1.372,2.919,2.688,4.251,4.113.34.348.672.7,1.012,1.044l.5.518.478.538q.953,1.081,1.882,2.146l.466.534.445.55c.287.368.583.733.87,1.1.575.733,1.178,1.429,1.7,2.186a89.179,89.179,0,0,1,7.477,11.938c1,1.923,1.9,3.838,2.688,5.728a84.439,84.439,0,0,1,5,16.16c.109.615.227,1.219.336,1.814s.231,1.17.3,1.749c.154,1.154.308,2.259.449,3.324.121,1.069.186,2.1.275,3.073.036.486.085.959.113,1.429s.113.915.134,1.36C932.681,544.629,932.822,545.475,932.822,546.256Z" transform="translate(-718.472 -461.33)" fill="#5cd8a0"/>
        <path id="Trazado_143855" data-name="Trazado 143855" d="M1688.408,718.513v.324a138.483,138.483,0,0,0-10.95-12.359c-.057-.138-.152-.275-.209-.413a72.969,72.969,0,0,0-6.972-12.869,71.043,71.043,0,0,0-11.135-12.744c-.526-.518-1.135-.976-1.7-1.466-.287-.239-.578-.486-.869-.725l-.426-.364c-.15-.122-.3-.231-.454-.348q-.9-.686-1.814-1.385l-.454-.348-.478-.324c-.316-.219-.631-.437-.947-.652-1.247-.9-2.591-1.684-3.9-2.51-.668-.4-1.368-.769-2.048-1.15-.336-.19-.68-.385-1.024-.571s-.709-.352-1.057-.526a66.114,66.114,0,0,0-18.035-6.02l-2.364-.389c-.789-.109-1.591-.178-2.376-.271l-1.19-.134-1.194-.065-1.194-.073c-.4-.02-.789-.061-1.19-.053-.793,0-1.587-.012-2.385-.016-.194,0-.4-.012-.587,0l-.531.028-1.061.057-1.052.053c-.093,0-.158,0-.279.012l-1.081.081-1.445.1-1.081.081-.182.012-.065,0s-.376,0,.255.012l-2.336.344c-.384.061-.773.1-1.158.182l-1.146.231-1.146.227-.571.113c-.19.036-.376.093-.563.138-.749.19-1.5.377-2.243.571-.376.081-.741.211-1.1.32l-1.093.344-1.093.328-1.069.393c-.712.267-1.425.5-2.117.785s-1.38.583-2.065.878a59.326,59.326,0,0,0-14.5,9.125l-.785.656-.745.7c-.494.461-1,.9-1.474,1.376-.02.016-.036.041-.057.057,11.962-14.812,31.341-24.435,53.209-24.435,22.406,0,42.2,10.1,54.075,25.528,1,1.923,1.9,3.838,2.688,5.728a84.44,84.44,0,0,1,5,16.16c.109.615.227,1.219.336,1.814s.231,1.17.3,1.749c.154,1.154.308,2.259.449,3.324.121,1.069.186,2.1.275,3.073.036.486.085.959.113,1.429s.113.915.134,1.36C1688.266,716.885,1688.408,717.731,1688.408,718.513Z" transform="translate(-1474.057 -633.586)" opacity="0.4" fill="url(#linear-gradient-8)" style="mix-blend-mode: multiply;isolation: isolate"/>
      </g>
      <g id="Grupo_98940" data-name="Grupo 98940" transform="translate(499.87 583.994)">
        <path id="Trazado_143856" data-name="Trazado 143856" d="M1138.109,1860.762a5.859,5.859,0,0,1-1.835-2.419c-.484-1.244-.143-1.8-.75-2.575a3.086,3.086,0,0,0-3.427-.928,1.386,1.386,0,0,0-.68.538c-.481.811.586,2.217,1.438,2.965a12.857,12.857,0,0,0,1.585,1,6.543,6.543,0,0,1,2.169,2.752Z" transform="translate(-1059.362 -1850.021)" fill="url(#linear-gradient-9)"/>
        <path id="Trazado_143857" data-name="Trazado 143857" d="M879.27,1818.2a5.861,5.861,0,0,0,2.633-1.511c.931-.957.834-1.6,1.7-2.078a3.087,3.087,0,0,1,3.517.483,1.387,1.387,0,0,1,.416.761c.126.935-1.4,1.812-2.481,2.169a12.8,12.8,0,0,1-1.85.3,6.546,6.546,0,0,0-3.071,1.688Z" transform="translate(-836.169 -1814.265)" fill="url(#linear-gradient-10)"/>
        <path id="Trazado_143858" data-name="Trazado 143858" d="M721.5,1837.107c.473,2.254-1.963,4.259-3.721,6.228-3.526,3.949-7.216,11-5.861,17.043a13.142,13.142,0,0,0,6.463,8.568c3.606,1.822,5.766.164,9.517,2.328.277.16,5.02,2.972,5.158,6.767.17,4.682-6.714,9.663-12.606,10.044-10.776.7-23.761-13.634-23.156-27.854.659-15.481,17.293-27.77,22.079-25.686A3.946,3.946,0,0,1,721.5,1837.107Z" transform="translate(-674.996 -1832.019)" fill="#f1d54e"/>
        <path id="Trazado_143859" data-name="Trazado 143859" d="M930.314,3259.213l.386,3.922-1.827-.331-1.228-3.685Z" transform="translate(-879.01 -3093.821)" fill="url(#linear-gradient-11)"/>
        <path id="Trazado_143860" data-name="Trazado 143860" d="M853.675,2626.473a98.714,98.714,0,0,0,2.088,17.791c1.107,5.234,1.752,6.139,2.1,9.758.751,7.876-1.787,9-2.253,17.906a54.223,54.223,0,0,0,3.127,20.623,56.29,56.29,0,0,0,2.546,6.171c.9.786,2.279.484,3.732.189.535-8.916,1.2-17.307,1.738-26.224q2.589-20.12,5.179-40.239Z" transform="translate(-813.502 -2533.552)" fill="url(#linear-gradient-12)"/>
        <path id="Trazado_143861" data-name="Trazado 143861" d="M865.012,2698.911c.535-8.916,1.2-17.307,1.738-26.224q2.589-20.12,5.179-40.239l-18.254-5.975c.013.461.036.906.054,1.359,8.537,7.414,10.208,13.286,10.124,17.292-.1,4.858-2.758,7.267-2.239,14.311.371,5.037,1.885,5.924,1.885,10.469,0,5.852-2.513,9.143-3.736,12.525-1.182,3.269-1.6,7.9.681,14.483.3.68.583,1.289.836,1.811C862.181,2699.508,863.559,2699.207,865.012,2698.911Z" transform="translate(-813.502 -2533.552)" opacity="0.3" fill="url(#linear-gradient-12)" style="mix-blend-mode: multiply;isolation: isolate"/>
        <path id="Trazado_143862" data-name="Trazado 143862" d="M930.863,3280.018c-.865-1.072-1.659-.993-1.8-1.72a1.483,1.483,0,0,1,.781-1.515,2.018,2.018,0,0,1,1.827.38c1.353.921.949,2.309,2.23,2.941a3.455,3.455,0,0,1,1.094.682c.181.177.629.615.516.908-.131.339-.947.31-1.722.281a3.38,3.38,0,0,1-1.837-.339C931.336,3281.238,931.53,3280.845,930.863,3280.018Z" transform="translate(-880.244 -3109.366)" fill="url(#linear-gradient-14)"/>
        <path id="Trazado_143863" data-name="Trazado 143863" d="M926.881,2996.951l-3.416,1.337-1-1.567,2.671-1.795Z" transform="translate(-874.426 -2859.854)" fill="url(#linear-gradient-15)"/>
        <path id="Trazado_143864" data-name="Trazado 143864" d="M911.764,3008.075c.2-1.362-.4-1.893.04-2.491a1.482,1.482,0,0,1,1.642-.454c.768.307.925,1.362.96,1.6.241,1.619-1.052,2.263-.648,3.634a3.463,3.463,0,0,1,.241,1.267c-.007.253-.025.88-.318.995-.338.134-.87-.485-1.375-1.074-.607-.706-.91-1.059-1-1.579C911.189,3009.25,911.609,3009.127,911.764,3008.075Z" transform="translate(-864.524 -2868.812)" fill="url(#linear-gradient-16)"/>
        <path id="Trazado_143865" data-name="Trazado 143865" d="M955.021,2572.355a94.337,94.337,0,0,1,9.342,30.862c.526,4.543.475,7.353-.834,10.177-4.685,10.106-21.037,10.773-23.522,10.844l-2.452-5.022a25.115,25.115,0,0,1,8.625-9.491c3.457-2.174,4.809-1.709,5.672-3.169,3.463-5.862-15.231-18.557-12.438-27.008C940.38,2576.623,944.1,2573.658,955.021,2572.355Z" transform="translate(-887.786 -2485.626)" fill="url(#linear-gradient-17)"/>
        <path id="Trazado_143866" data-name="Trazado 143866" d="M555.972,2161.157c6.877,1.181,12.112,2.41,14.45,6.012,2.469,3.8-1.456,6.668-2.524,15.015-1.634,12.779,5.713,17.553,3.6,30.42a32.568,32.568,0,0,1-1.432,5.564,13.162,13.162,0,0,1-5.434,6.753,34.085,34.085,0,0,1-6.881,3.326c-6.973,2.439-10.413,1.021-19.795,1.558-15.346.877-17.643,5.327-24.576,2.59-7.007-2.766-12.078-10.24-10.592-13.434.89-1.913,3.7-.718,7.724-3.067,5.189-3.026,4.318-7.157,8.528-10.7,6.048-5.09,11.865.051,17.038-4.375,5.232-4.477,5.857-15.365,3.633-21.846-1.453-4.233-1.48-8.837-2.558-13.18a2.794,2.794,0,0,1,.064-1.589c.858-2.5,5.426-2.976,8.879-3.306A39.437,39.437,0,0,1,555.972,2161.157Z" transform="translate(-502.527 -2121.076)" fill="#f1d54e"/>
        <path id="Trazado_143867" data-name="Trazado 143867" d="M521.97,2503.738c2.125-1.416.974-5.429,4.121-7.56,2.921-1.978,5.2.608,9.5-.711,5.521-1.692,5.232-7.008,10.523-8.7,3.8-1.22,4.952,1.208,10.44,1.313a21.819,21.819,0,0,0,17.207-7.963,19.555,19.555,0,0,0,3.6-7.533c1.465,4.732,3.056,9.307,1.921,16.213a32.817,32.817,0,0,1-2,7.059,9.776,9.776,0,0,1-3.471,4.335,34.357,34.357,0,0,1-8.276,4.249c-6.973,2.439-10.413,1.021-19.795,1.557-15.346.877-17.643,5.328-24.576,2.591a19.9,19.9,0,0,1-9.846-8.724C517.384,2504.272,520.428,2504.766,521.97,2503.738Z" transform="translate(-510.313 -2397.266)" opacity="0.3" fill="url(#linear-gradient-18)" style="mix-blend-mode: multiply;isolation: isolate"/>
        <path id="Trazado_143868" data-name="Trazado 143868" d="M938.955,2060.582s1.9,3.557,2.014,6.054-2.7,2.314-2.7,2.314l.106,1.575a3.414,3.414,0,0,0,2.227,2.975l1.112.409s-7.256,1.553-11.218-1.246l1.142-.112a3.413,3.413,0,0,0,3.063-3.05l.069-.674S933.515,2061.046,938.955,2060.582Z" transform="translate(-881.538 -2032.402)" fill="url(#linear-gradient-19)"/>
        <path id="Trazado_143869" data-name="Trazado 143869" d="M985.315,1899.656c-1.077,2.036.712,4.635,1.859,7.012,2.3,4.768,3.9,12.56.934,18a13.141,13.141,0,0,1-8.575,6.453c-3.969.757-5.588-1.432-9.79-.387-.31.077-5.645,1.472-6.824,5.082-1.455,4.453,3.788,11.14,9.347,13.131,10.166,3.642,26.6-6.552,29.94-20.388,3.637-15.063-8.964-31.462-14.138-30.779A3.945,3.945,0,0,0,985.315,1899.656Z" transform="translate(-910.031 -1888.207)" fill="#f1d54e"/>
        <path id="Trazado_143870" data-name="Trazado 143870" d="M586.874,2021.18c-.375-.031-.685-.507-.941-.365s-.24.841-.006,1.328a1.757,1.757,0,0,0,.68.729,4.6,4.6,0,0,0-.812,1.839,6.363,6.363,0,0,0,1.017,4.1c1.8,3.826-1,9.875-4.067,12.93-2.494,2.483-3.657,1.485-5.146,3.513-2.9,3.947,1.1,8.286-.4,13.6-2.279,8.078-15.034,10.481-15.563,10.575-.208.036-.348.06-.565.094-5.722.909-14.395,2.287-20.5-2.41-4.57-3.513-6.666-9.629-6.32-15.016a17.4,17.4,0,0,1,4.9-11.185c.7-.7,4.815-4.813,10.381-4.863,2.948-.027,3.543,1.012,5.8.37,3.087-.88,4.988-3.686,6.168-5.427,2.17-3.2,1.288-3.886,2.849-5.461,3.059-3.085,6.647-.663,9.914-3.385,3.22-2.684,1.277-6.326,4.386-8.649,3.207-2.4,9.341-1.559,10.648,1.294C590.423,2017.243,588.023,2021.276,586.874,2021.18Z" transform="translate(-530.59 -1989.463)" fill="url(#linear-gradient-20)"/>
      </g>
    </g>
    <rect id="Rectángulo_33510" data-name="Rectángulo 33510" width="451" height="349" transform="translate(624 -10207)" fill="none"/>
  </g>
</svg>
