<svg xmlns="http://www.w3.org/2000/svg" width="209.79" height="181.828" viewBox="0 0 209.79 181.828">
  <g id="Grupo_98342" data-name="Grupo 98342" transform="translate(-704 -4011.177)">
    <ellipse id="Elipse_4516" data-name="Elipse 4516" cx="96.238" cy="90.914" rx="96.238" ry="90.914" transform="translate(704 4011.177)" fill="#e8fff5"/>
    <g id="Grupo_98338" data-name="Grupo 98338" transform="translate(695.836 3800.555)">
      <g id="Grupo_98227" data-name="Grupo 98227" transform="translate(113.796 282.138)">
        <g id="Grupo_98225" data-name="Grupo 98225">
          <g id="Grupo_98224" data-name="Grupo 98224">
            <path id="Trazado_142518" data-name="Trazado 142518" d="M84.176,265.613a6.867,6.867,0,1,1-6.868-6.866A6.868,6.868,0,0,1,84.176,265.613Z" transform="translate(-70.441 -258.747)" fill="#4396ca"/>
          </g>
        </g>
        <g id="Grupo_98226" data-name="Grupo 98226" transform="translate(2.656 4.541)">
          <path id="Trazado_142519" data-name="Trazado 142519" d="M75.467,266.505a1.1,1.1,0,0,1-.687-.24l-2.5-2a1.1,1.1,0,0,1,1.371-1.715L75.5,264.03l3.7-2.641a1.1,1.1,0,1,1,1.278,1.786L76.1,266.3A1.1,1.1,0,0,1,75.467,266.505Z" transform="translate(-71.867 -261.185)" fill="#fff"/>
        </g>
      </g>
      <g id="Grupo_98230" data-name="Grupo 98230" transform="translate(110.645 231.621)">
        <g id="Grupo_98228" data-name="Grupo 98228">
          <path id="Trazado_142520" data-name="Trazado 142520" d="M83.124,238.81a7.188,7.188,0,1,1-7.187-7.189A7.187,7.187,0,0,1,83.124,238.81Z" transform="translate(-68.749 -231.621)" fill="#ffcb2f"/>
        </g>
        <g id="Grupo_98229" data-name="Grupo 98229" transform="translate(2.239 2.13)">
          <path id="Trazado_142521" data-name="Trazado 142521" d="M74.9,232.765l1.529,3.1,3.42.5-2.475,2.412.584,3.406L74.9,240.571l-3.059,1.608.584-3.406-2.475-2.412,3.42-.5Z" transform="translate(-69.951 -232.765)" fill="#fff"/>
        </g>
      </g>
      <g id="Grupo_98234" data-name="Grupo 98234" transform="translate(132.676 297.007)">
        <g id="Grupo_98232" data-name="Grupo 98232">
          <g id="Grupo_98231" data-name="Grupo 98231">
            <path id="Trazado_142522" data-name="Trazado 142522" d="M99.621,276.253a9.521,9.521,0,1,1-9.52-9.522A9.521,9.521,0,0,1,99.621,276.253Z" transform="translate(-80.579 -266.731)" fill="#4396ca"/>
          </g>
        </g>
        <g id="Grupo_98233" data-name="Grupo 98233" transform="translate(3.791 5.799)">
          <path id="Trazado_142523" data-name="Trazado 142523" d="M92.527,270.117c-1.427-.767-3.294.2-4.168,1.523-.873-1.328-2.84-2.291-4.267-1.523a2.692,2.692,0,0,0-1.054,3.892c.81,1.508,5.311,5.185,5.321,5.14.009.045,4.511-3.632,5.321-5.14A2.721,2.721,0,0,0,92.527,270.117Z" transform="translate(-82.615 -269.845)" fill="#fff"/>
        </g>
      </g>
      <g id="Grupo_98240" data-name="Grupo 98240" transform="translate(58.681 297.378)">
        <g id="Grupo_98236" data-name="Grupo 98236">
          <g id="Grupo_98235" data-name="Grupo 98235">
            <path id="Trazado_142524" data-name="Trazado 142524" d="M52.159,269.47a6.272,6.272,0,1,1-8.773-1.307A6.272,6.272,0,0,1,52.159,269.47Z" transform="translate(-40.846 -266.93)" fill="#025482"/>
          </g>
        </g>
        <g id="Grupo_98239" data-name="Grupo 98239" transform="translate(3.055 3.056)">
          <g id="Grupo_98237" data-name="Grupo 98237" transform="translate(0.575 0)">
            <rect id="Rectángulo_33319" data-name="Rectángulo 33319" width="1.43" height="6.947" transform="translate(0 0.851) rotate(-36.528)" fill="#fff"/>
          </g>
          <g id="Grupo_98238" data-name="Grupo 98238" transform="translate(0 0.575)">
            <rect id="Rectángulo_33320" data-name="Rectángulo 33320" width="6.947" height="1.43" transform="matrix(0.804, -0.595, 0.595, 0.804, 0, 4.135)" fill="#fff"/>
          </g>
        </g>
      </g>
      <g id="Grupo_98253" data-name="Grupo 98253" transform="translate(20.164 310.738)">
        <g id="Grupo_98241" data-name="Grupo 98241" transform="translate(8.468)">
          <path id="Trazado_142525" data-name="Trazado 142525" d="M52.892,336.088H29.9a5.3,5.3,0,0,1-5.188-5.414V279.518A5.3,5.3,0,0,1,29.9,274.1H52.892a5.305,5.305,0,0,1,5.19,5.414v51.156A5.306,5.306,0,0,1,52.892,336.088Z" transform="translate(-24.711 -274.104)" fill="#062c3f"/>
        </g>
        <g id="Grupo_98242" data-name="Grupo 98242" transform="translate(11.195 3.043)">
          <path id="Trazado_142526" data-name="Trazado 142526" d="M48.577,329.786H31.559c-2.974,0-5.384-2.114-5.384-4.721V280.459c0-2.607,2.41-4.721,5.384-4.721H48.577c2.972,0,5.382,2.114,5.382,4.721v44.606C53.959,327.673,51.549,329.786,48.577,329.786Z" transform="translate(-26.175 -275.738)" fill="#4396ca"/>
        </g>
        <g id="Grupo_98243" data-name="Grupo 98243" transform="translate(20.897 58.278)">
          <path id="Trazado_142527" data-name="Trazado 142527" d="M41.039,306.432a1.034,1.034,0,0,1-1.034,1.034H32.419a1.034,1.034,0,0,1-1.034-1.034h0a1.035,1.035,0,0,1,1.034-1.035h7.587a1.035,1.035,0,0,1,1.034,1.035Z" transform="translate(-31.385 -305.397)" fill="#3287b2"/>
        </g>
        <g id="Grupo_98244" data-name="Grupo 98244" transform="translate(14.373 24.568)">
          <rect id="Rectángulo_33321" data-name="Rectángulo 33321" width="21.216" height="10.321" rx="1.001" fill="#025482"/>
        </g>
        <g id="Grupo_98249" data-name="Grupo 98249" transform="translate(0 28.812)">
          <g id="Grupo_98245" data-name="Grupo 98245">
            <path id="Trazado_142528" data-name="Trazado 142528" d="M22.788,327.494c-1.557-3.287-3.676-21.783-2.024-24.925.67-1.274,6.168-12.993,7.688-12.993.914,0-.538,14.208.914,13.91.864-.177,7.138-6.04,10.8-8.785,3.09-2.317,6.406,1.829,4.026,4.209-2.745,2.745-9.023,11.535-9.15,13-.734,8.418-.661,15.243-.661,15.243Z" transform="translate(-20.164 -289.575)" fill="#efbd7d"/>
          </g>
          <g id="Grupo_98246" data-name="Grupo 98246" transform="translate(19.465 6.053)">
            <circle id="Elipse_4547" data-name="Elipse 4547" cx="1.816" cy="1.816" r="1.816" fill="#ef9a6f"/>
          </g>
          <g id="Grupo_98247" data-name="Grupo 98247" transform="translate(2.365 37.399)">
            <path id="Trazado_142529" data-name="Trazado 142529" d="M21.434,309.657h11.85v10.736a1.211,1.211,0,0,1-1.212,1.21H22.645a1.21,1.21,0,0,1-1.211-1.21Z" transform="translate(-21.434 -309.657)" fill="#cdeefc"/>
          </g>
          <g id="Grupo_98248" data-name="Grupo 98248" transform="translate(0.548 35.669)">
            <path id="Trazado_142530" data-name="Trazado 142530" d="M21.929,308.728h12.2v5.537h-12.2a1.472,1.472,0,0,1-1.471-1.471V310.2A1.472,1.472,0,0,1,21.929,308.728Z" transform="translate(-20.458 -308.728)" fill="#e6f9ff"/>
          </g>
        </g>
        <g id="Grupo_98250" data-name="Grupo 98250" transform="translate(20.309 28.119)">
          <path id="Trazado_142531" data-name="Trazado 142531" d="M31.069,292.561V289.2h1.7a1,1,0,0,1,.777.268.884.884,0,0,1,.242.613.773.773,0,0,1-.142.454.72.72,0,0,1-.421.277.75.75,0,0,1,.652.784,1.053,1.053,0,0,1-.231.669,1.227,1.227,0,0,1-.981.292Zm.95-2.071H32.5a.312.312,0,0,0,.253-.091.3.3,0,0,0,.074-.2c0-.186-.115-.279-.345-.279h-.46Zm0,1.324h.5a.363.363,0,0,0,.274-.093.3.3,0,0,0,.088-.209.322.322,0,0,0-.086-.212.4.4,0,0,0-.311-.1h-.467Z" transform="translate(-31.069 -289.203)" fill="#fff"/>
          <path id="Trazado_142532" data-name="Trazado 142532" d="M35.684,289.2v2.224a1.055,1.055,0,0,1-.376.909,1.593,1.593,0,0,1-.978.277,1.755,1.755,0,0,1-1.021-.266.976.976,0,0,1-.386-.866V289.2h1.048v2.157a.508.508,0,0,0,.1.354.43.43,0,0,0,.326.11.536.536,0,0,0,.305-.08.306.306,0,0,0,.142-.181,2,2,0,0,0,.024-.395V289.2Z" transform="translate(-29.469 -289.203)" fill="#fff"/>
          <path id="Trazado_142533" data-name="Trazado 142533" d="M37.81,289.2l-1.052,1.937v1.421h-1V291.14l-1.13-1.937h1.129l.588,1.106.564-1.106Z" transform="translate(-28.003 -289.203)" fill="#fff"/>
        </g>
        <g id="Grupo_98251" data-name="Grupo 98251" transform="translate(28.239 5.853)" opacity="0.19">
          <path id="Trazado_142534" data-name="Trazado 142534" d="M38.474,296.76a1.573,1.573,0,0,1-1.574,1.574h0a1.573,1.573,0,0,1-1.574-1.574v-17.94a1.573,1.573,0,0,1,1.574-1.574h0a1.573,1.573,0,0,1,1.574,1.574Z" transform="translate(-35.327 -277.247)" fill="#fff"/>
        </g>
        <g id="Grupo_98252" data-name="Grupo 98252" transform="translate(33.118 5.853)" opacity="0.19">
          <path id="Trazado_142535" data-name="Trazado 142535" d="M41.094,285.274a1.574,1.574,0,0,1-1.574,1.572h0a1.572,1.572,0,0,1-1.574-1.572v-6.453a1.573,1.573,0,0,1,1.574-1.574h0a1.574,1.574,0,0,1,1.574,1.574Z" transform="translate(-37.947 -277.247)" fill="#fff"/>
        </g>
      </g>
      <g id="Grupo_98260" data-name="Grupo 98260" transform="translate(28.966 280.659)">
        <g id="Grupo_98256" data-name="Grupo 98256">
          <g id="Grupo_98255" data-name="Grupo 98255">
            <g id="Grupo_98254" data-name="Grupo 98254">
              <circle id="Elipse_4548" data-name="Elipse 4548" cx="13.486" cy="13.486" r="13.486" fill="#062c3f"/>
            </g>
          </g>
        </g>
        <g id="Grupo_98257" data-name="Grupo 98257" transform="translate(5.217 7.91)">
          <path id="Trazado_142536" data-name="Trazado 142536" d="M43.468,273.78H28.789a1.1,1.1,0,0,1-1.1-1.1V263.3a1.1,1.1,0,0,1,1.1-1.1H43.468a1.1,1.1,0,0,1,1.1,1.1v9.382A1.1,1.1,0,0,1,43.468,273.78Zm-13.58-2.2H42.369V264.4H29.888Z" transform="translate(-27.692 -262.2)" fill="#fff"/>
        </g>
        <g id="Grupo_98258" data-name="Grupo 98258" transform="translate(11.752 11.374)">
          <path id="Trazado_142537" data-name="Trazado 142537" d="M35.373,266.144a2.086,2.086,0,1,1-2.086-2.084A2.086,2.086,0,0,1,35.373,266.144Z" transform="translate(-31.201 -264.06)" fill="#fff"/>
        </g>
        <g id="Grupo_98259" data-name="Grupo 98259" transform="translate(16.235 5.951)">
          <path id="Trazado_142538" data-name="Trazado 142538" d="M34.981,265.016a1.373,1.373,0,0,1-1.373-1.372v-1.123a1.373,1.373,0,1,1,2.745,0v1.123A1.373,1.373,0,0,1,34.981,265.016Z" transform="translate(-33.608 -261.148)" fill="#fff"/>
        </g>
      </g>
      <g id="Grupo_98268" data-name="Grupo 98268" transform="translate(54.103 264.621)">
        <g id="Grupo_98262" data-name="Grupo 98262" transform="translate(0 0)">
          <g id="Grupo_98261" data-name="Grupo 98261">
            <circle id="Elipse_4549" data-name="Elipse 4549" cx="13.761" cy="13.761" r="13.761" transform="matrix(0.263, -0.965, 0.965, 0.263, 0, 26.554)" fill="#4396ca"/>
          </g>
        </g>
        <g id="Grupo_98263" data-name="Grupo 98263" transform="translate(10.088 9.967)">
          <path id="Trazado_142539" data-name="Trazado 142539" d="M44.9,267.848a1.1,1.1,0,0,1-.767-1.885L55.374,255a1.1,1.1,0,0,1,1.533,1.572l-11.237,10.96A1.09,1.09,0,0,1,44.9,267.848Z" transform="translate(-43.805 -254.693)" fill="#fff"/>
        </g>
        <g id="Grupo_98264" data-name="Grupo 98264" transform="translate(10.215 9.679)">
          <path id="Trazado_142540" data-name="Trazado 142540" d="M49.145,257.173a2.636,2.636,0,1,1-2.635-2.635A2.636,2.636,0,0,1,49.145,257.173Z" transform="translate(-43.873 -254.538)" fill="#fff"/>
        </g>
        <g id="Grupo_98265" data-name="Grupo 98265" transform="translate(18.677 17.862)">
          <circle id="Elipse_4550" data-name="Elipse 4550" cx="2.636" cy="2.636" r="2.636" fill="#fff"/>
        </g>
        <g id="Grupo_98266" data-name="Grupo 98266" transform="translate(20.215 19.4)">
          <circle id="Elipse_4551" data-name="Elipse 4551" cx="1.098" cy="1.098" r="1.098" fill="#4396ca"/>
        </g>
        <g id="Grupo_98267" data-name="Grupo 98267" transform="translate(11.753 11.215)">
          <path id="Trazado_142541" data-name="Trazado 142541" d="M46.895,256.462a1.1,1.1,0,1,1-1.1-1.1A1.1,1.1,0,0,1,46.895,256.462Z" transform="translate(-44.699 -255.363)" fill="#4396ca"/>
        </g>
      </g>
      <g id="Grupo_98274" data-name="Grupo 98274" transform="translate(76.191 237.308)">
        <g id="Grupo_98270" data-name="Grupo 98270" transform="translate(0 0)">
          <g id="Grupo_98269" data-name="Grupo 98269">
            <circle id="Elipse_4552" data-name="Elipse 4552" cx="19.617" cy="19.617" r="19.617" transform="translate(0 27.743) rotate(-45)" fill="#ffd56c"/>
          </g>
        </g>
        <g id="Grupo_98273" data-name="Grupo 98273" transform="translate(14.011 19.943)">
          <g id="Grupo_98271" data-name="Grupo 98271">
            <path id="Trazado_142542" data-name="Trazado 142542" d="M85.854,254.406s-5.41,7.988-14.813,7.472c-8.634-.473-13.269-7.472-13.269-7.472s3.864-8.758,13.269-9.015A15.684,15.684,0,0,1,85.854,254.406Z" transform="translate(-57.772 -245.383)" fill="#fff"/>
          </g>
          <g id="Grupo_98272" data-name="Grupo 98272" transform="translate(8.373 2.466)">
            <circle id="Elipse_4553" data-name="Elipse 4553" cx="5.926" cy="5.926" r="5.926" fill="#ffd56c"/>
          </g>
        </g>
      </g>
      <g id="Grupo_98278" data-name="Grupo 98278" transform="translate(39.1 261.673)">
        <g id="Grupo_98276" data-name="Grupo 98276">
          <g id="Grupo_98275" data-name="Grupo 98275">
            <path id="Trazado_142543" data-name="Trazado 142543" d="M46.994,256.088a8.331,8.331,0,1,1-8.33-8.33A8.331,8.331,0,0,1,46.994,256.088Z" transform="translate(-30.332 -247.758)" fill="#ffcb2f"/>
          </g>
        </g>
        <g id="Grupo_98277" data-name="Grupo 98277" transform="translate(5.842 3.372)">
          <path id="Trazado_142544" data-name="Trazado 142544" d="M35.741,255.37c0-.521.02-.635-.5-.819a2.326,2.326,0,0,1-1.771-2.179,2.257,2.257,0,0,1,1.933-2.25c.2-.041.307-.082.318-.348.009-.225.346-.2.531-.2.2,0,.184.093.184.246,0,.276.359.235.665.285.164.032,1.229.216,1.229.451,0,.082-.41,1.279-.553,1.279-.246,0-.5-.419-1.084-.419-.257,0-.216.348-.216.51v.89c0,.48.032.635.521.819a2.539,2.539,0,0,1,1.974,2.455,2.225,2.225,0,0,1-2.138,2.434c-.223,0-.317.164-.317.41s-.164.2-.378.2c-.194,0-.348.05-.358-.173-.011-.339-.175-.441-.521-.441-.574,0-1.648-.5-1.648-.695,0-.235.348-1.617.533-1.617.389,0,.644.6,1.32.6.305,0,.276-.287.276-.492Zm0-3.458c0-.3.05-.5-.2-.5-.46,0-.685.449-.685.87a1.015,1.015,0,0,0,.706.879c.153,0,.184-.378.184-.674Zm.736,4.5c0,.235,0,.4.3.4a.794.794,0,0,0,.818-.808,1.184,1.184,0,0,0-.911-.92c-.225,0-.2.194-.2.4Z" transform="translate(-33.469 -249.569)" fill="#fff"/>
        </g>
      </g>
      <g id="Grupo_98282" data-name="Grupo 98282" transform="translate(81.353 232.658)">
        <g id="Grupo_98280" data-name="Grupo 98280">
          <g id="Grupo_98279" data-name="Grupo 98279">
            <circle id="Elipse_4554" data-name="Elipse 4554" cx="7.233" cy="7.233" r="7.233" fill="#cdeefc"/>
          </g>
        </g>
        <g id="Grupo_98281" data-name="Grupo 98281" transform="translate(1.932 3.983)">
          <path id="Trazado_142545" data-name="Trazado 142545" d="M62.875,234.347c.35.117.588.849.328,2.024s-.654,3.853-.654,3.853h-.98s.456-2.874-.458-3.134-1.5,3.134-3.591,3.134-3.4.065-3.462-.521,2.808-1.112,3.984-2.613C59.78,234.872,62.288,234.152,62.875,234.347Z" transform="translate(-54.057 -234.317)" fill="#fff"/>
        </g>
      </g>
      <g id="Grupo_98288" data-name="Grupo 98288" transform="translate(61.852 243.866)">
        <g id="Grupo_98284" data-name="Grupo 98284">
          <g id="Grupo_98283" data-name="Grupo 98283">
            <path id="Trazado_142546" data-name="Trazado 142546" d="M63.969,248.906a10.71,10.71,0,1,1-10.71-10.71A10.711,10.711,0,0,1,63.969,248.906Z" transform="translate(-42.549 -238.196)" fill="#062c3f"/>
          </g>
        </g>
        <g id="Grupo_98287" data-name="Grupo 98287" transform="translate(3.652 5.846)">
          <g id="Grupo_98285" data-name="Grupo 98285">
            <path id="Trazado_142547" data-name="Trazado 142547" d="M57.241,250.969H45.609a1.1,1.1,0,0,1-1.1-1.1v-7.438a1.1,1.1,0,0,1,1.1-1.1H57.241a1.1,1.1,0,0,1,1.1,1.1v7.438A1.1,1.1,0,0,1,57.241,250.969Zm-10.535-2.2h9.438v-5.241H46.706Z" transform="translate(-44.51 -241.335)" fill="#fff"/>
          </g>
          <g id="Grupo_98286" data-name="Grupo 98286" transform="translate(0.44 0.22)">
            <path id="Trazado_142548" data-name="Trazado 142548" d="M51.387,247.917a1.092,1.092,0,0,1-.659-.22l-5.982-4.488,1.317-1.756,5.3,3.98,4.987-3.961,1.367,1.719-5.652,4.488A1.1,1.1,0,0,1,51.387,247.917Z" transform="translate(-44.746 -241.453)" fill="#fff"/>
          </g>
        </g>
      </g>
      <g id="Grupo_98294" data-name="Grupo 98294" transform="translate(154.498 252.909)">
        <g id="Grupo_98291" data-name="Grupo 98291">
          <g id="Grupo_98290" data-name="Grupo 98290">
            <g id="Grupo_98289" data-name="Grupo 98289">
              <circle id="Elipse_4555" data-name="Elipse 4555" cx="11.839" cy="11.839" r="11.839" fill="#062c3f"/>
            </g>
          </g>
        </g>
        <g id="Grupo_98292" data-name="Grupo 98292" transform="translate(3.23 3.231)">
          <path id="Trazado_142549" data-name="Trazado 142549" d="M102.64,262a8.608,8.608,0,1,1,8.608-8.608A8.618,8.618,0,0,1,102.64,262Zm0-15.02a6.412,6.412,0,1,0,6.41,6.412A6.418,6.418,0,0,0,102.64,246.983Z" transform="translate(-94.031 -244.787)" fill="#fff"/>
        </g>
        <g id="Grupo_98293" data-name="Grupo 98293" transform="translate(7.891 8.531)">
          <path id="Trazado_142550" data-name="Trazado 142550" d="M100.483,252.038a1.082,1.082,0,0,1-.5-.117l-2.849-1.436a1.1,1.1,0,0,1,.989-1.961l2.332,1.175,3.49-1.929a1.1,1.1,0,0,1,1.063,1.922l-4,2.211A1.1,1.1,0,0,1,100.483,252.038Z" transform="translate(-96.534 -247.633)" fill="#fff"/>
        </g>
      </g>
      <g id="Grupo_98300" data-name="Grupo 98300" transform="translate(120.585 234.475)">
        <g id="Grupo_98296" data-name="Grupo 98296" transform="translate(0 0)">
          <g id="Grupo_98295" data-name="Grupo 98295">
            <circle id="Elipse_4556" data-name="Elipse 4556" cx="13.944" cy="13.944" r="13.944" transform="translate(0 10.672) rotate(-22.5)" fill="#a6e2f7"/>
          </g>
        </g>
        <g id="Grupo_98299" data-name="Grupo 98299" transform="translate(11.178 11.193)">
          <g id="Grupo_98297" data-name="Grupo 98297" transform="translate(0 0.118)">
            <path id="Trazado_142551" data-name="Trazado 142551" d="M90.177,255.085a1.1,1.1,0,0,1-.777-.322L86.441,251.8l-2.726,2.726a1.1,1.1,0,0,1-1.866-.635L80.1,240.467a1.1,1.1,0,1,1,2.177-.283L83.739,251.4l1.926-1.927a1.1,1.1,0,0,1,1.553,0l2.959,2.961,1.443-1.443a1.1,1.1,0,0,1,1.551,1.553l-2.218,2.218A1.1,1.1,0,0,1,90.177,255.085Z" transform="translate(-80.089 -239.227)" fill="#fff"/>
          </g>
          <g id="Grupo_98298" data-name="Grupo 98298" transform="translate(0.117)">
            <path id="Trazado_142552" data-name="Trazado 142552" d="M92.693,252.571a1.1,1.1,0,0,1-.777-1.875l1.441-1.441L90.4,246.293a1.094,1.094,0,0,1,0-1.551l1.926-1.928-11.217-1.462a1.1,1.1,0,0,1,.285-2.179l13.427,1.752a1.1,1.1,0,0,1,.633,1.864l-2.726,2.728,2.961,2.959a1.1,1.1,0,0,1,0,1.553l-2.22,2.218A1.092,1.092,0,0,1,92.693,252.571Z" transform="translate(-80.152 -239.164)" fill="#fff"/>
          </g>
        </g>
      </g>
      <g id="Grupo_98315" data-name="Grupo 98315" transform="translate(127.832 305.324)">
        <g id="Grupo_98301" data-name="Grupo 98301" transform="translate(7.703 49.027)">
          <path id="Trazado_142553" data-name="Trazado 142553" d="M123.309,314.893h-39a2.2,2.2,0,1,1,0-4.393h39a4.231,4.231,0,0,0,4.227-4.227v-.128a4.232,4.232,0,0,0-4.227-4.228h-39a2.2,2.2,0,1,1,0-4.393h39a8.632,8.632,0,0,1,8.621,8.621v.128A8.63,8.63,0,0,1,123.309,314.893Z" transform="translate(-82.114 -297.523)" fill="#efc30a"/>
        </g>
        <g id="Grupo_98302" data-name="Grupo 98302" transform="translate(0 12.904)">
          <path id="Trazado_142554" data-name="Trazado 142554" d="M130.847,318.622a1.649,1.649,0,0,1-1.577-2.125l10.606-35.077H81.965l6.758,35.243a1.647,1.647,0,1,1-3.235.622l-7.511-39.159h66.336l-11.889,39.325A1.651,1.651,0,0,1,130.847,318.622Z" transform="translate(-77.978 -278.126)" fill="#efc30a"/>
        </g>
        <g id="Grupo_98303" data-name="Grupo 98303" transform="translate(62.469 1.099)">
          <path id="Trazado_142555" data-name="Trazado 142555" d="M113.171,286.887a1.65,1.65,0,0,1-1.553-2.2l4.6-12.9h10.967a1.647,1.647,0,0,1,0,3.294h-8.643l-3.82,10.71A1.65,1.65,0,0,1,113.171,286.887Z" transform="translate(-111.521 -271.787)" fill="#efc30a"/>
        </g>
        <g id="Grupo_98304" data-name="Grupo 98304" transform="translate(75.403)">
          <path id="Trazado_142556" data-name="Trazado 142556" d="M130.44,276.689h-9.228a2.746,2.746,0,0,1,0-5.492h9.228a2.746,2.746,0,0,1,0,5.492Z" transform="translate(-118.467 -271.197)" fill="#efc30a"/>
        </g>
        <g id="Grupo_98305" data-name="Grupo 98305" transform="translate(42.129 67.919)">
          <path id="Trazado_142557" data-name="Trazado 142557" d="M100.6,315.483a7.817,7.817,0,1,0,7.816-7.816A7.816,7.816,0,0,0,100.6,315.483Z" transform="translate(-100.6 -307.667)" fill="#78d6ef"/>
        </g>
        <g id="Grupo_98306" data-name="Grupo 98306" transform="translate(5.367 67.919)">
          <circle id="Elipse_4557" data-name="Elipse 4557" cx="7.816" cy="7.816" r="7.816" fill="#78d6ef"/>
        </g>
        <g id="Grupo_98307" data-name="Grupo 98307" transform="translate(46.299 72.089)">
          <path id="Trazado_142558" data-name="Trazado 142558" d="M102.839,313.552a3.647,3.647,0,1,0,3.646-3.646A3.648,3.648,0,0,0,102.839,313.552Z" transform="translate(-102.839 -309.906)" fill="#fff"/>
        </g>
        <g id="Grupo_98308" data-name="Grupo 98308" transform="translate(9.157 72.088)">
          <circle id="Elipse_4558" data-name="Elipse 4558" cx="3.647" cy="3.647" r="3.647" fill="#fff"/>
        </g>
        <g id="Grupo_98309" data-name="Grupo 98309" transform="translate(43.371 14.3)">
          <path id="Trazado_142559" data-name="Trazado 142559" d="M102.917,317.039a1.647,1.647,0,0,1-1.626-1.929l6.066-34.868a1.647,1.647,0,0,1,3.246.564l-6.066,34.868A1.647,1.647,0,0,1,102.917,317.039Z" transform="translate(-101.267 -278.876)" fill="#efc30a"/>
        </g>
        <g id="Grupo_98310" data-name="Grupo 98310" transform="translate(34.844 13.921)">
          <path id="Trazado_142560" data-name="Trazado 142560" d="M98.338,316.456c-.037,0-.074,0-.11,0a1.647,1.647,0,0,1-1.536-1.752l2.274-34.488a1.647,1.647,0,0,1,3.287.216l-2.274,34.49A1.648,1.648,0,0,1,98.338,316.456Z" transform="translate(-96.688 -278.672)" fill="#efc30a"/>
        </g>
        <g id="Grupo_98311" data-name="Grupo 98311" transform="translate(11.535 14.302)">
          <path id="Trazado_142561" data-name="Trazado 142561" d="M91.314,317.038a1.648,1.648,0,0,1-1.626-1.391l-5.5-34.868a1.648,1.648,0,0,1,3.255-.512l5.5,34.868a1.648,1.648,0,0,1-1.371,1.883A1.74,1.74,0,0,1,91.314,317.038Z" transform="translate(-84.172 -278.877)" fill="#efc30a"/>
        </g>
        <g id="Grupo_98312" data-name="Grupo 98312" transform="translate(24.422 13.921)">
          <path id="Trazado_142562" data-name="Trazado 142562" d="M94.442,316.456A1.646,1.646,0,0,1,92.8,314.89L91.094,280.4a1.647,1.647,0,0,1,3.291-.164l1.7,34.49a1.646,1.646,0,0,1-1.562,1.726C94.5,316.456,94.47,316.456,94.442,316.456Z" transform="translate(-91.092 -278.672)" fill="#efc30a"/>
        </g>
        <g id="Grupo_98313" data-name="Grupo 98313" transform="translate(4.146 24.912)">
          <path id="Trazado_142563" data-name="Trazado 142563" d="M136.427,287.868H81.852a1.647,1.647,0,1,1,0-3.294h54.575a1.647,1.647,0,0,1,0,3.294Z" transform="translate(-80.204 -284.574)" fill="#efc30a"/>
        </g>
        <g id="Grupo_98314" data-name="Grupo 98314" transform="translate(6.041 37.042)">
          <path id="Trazado_142564" data-name="Trazado 142564" d="M131,294.381H82.868a1.647,1.647,0,0,1,0-3.294H131a1.647,1.647,0,0,1,0,3.294Z" transform="translate(-81.222 -291.087)" fill="#efc30a"/>
        </g>
      </g>
      <g id="Grupo_98316" data-name="Grupo 98316" transform="translate(48.606 251.357)">
        <circle id="Elipse_4559" data-name="Elipse 4559" cx="3.272" cy="3.272" r="3.272" fill="#4396ca"/>
      </g>
      <g id="Grupo_98317" data-name="Grupo 98317" transform="translate(178.055 273.985)">
        <path id="Trazado_142565" data-name="Trazado 142565" d="M112.634,258.213a3.844,3.844,0,1,1-3.844-3.844A3.844,3.844,0,0,1,112.634,258.213Z" transform="translate(-104.946 -254.369)" fill="#025482"/>
      </g>
      <g id="Grupo_98318" data-name="Grupo 98318" transform="translate(100.378 234.863)">
        <path id="Trazado_142566" data-name="Trazado 142566" d="M68.726,236.107a2.745,2.745,0,1,1-2.745-2.745A2.745,2.745,0,0,1,68.726,236.107Z" transform="translate(-63.236 -233.362)" fill="#025482"/>
      </g>
      <g id="Grupo_98319" data-name="Grupo 98319" transform="translate(192.514 291.556)">
        <path id="Trazado_142567" data-name="Trazado 142567" d="M117.835,266.365a2.563,2.563,0,1,1-2.563-2.561A2.562,2.562,0,0,1,117.835,266.365Z" transform="translate(-112.71 -263.804)" fill="#97e4ff"/>
      </g>
      <g id="Grupo_98320" data-name="Grupo 98320" transform="translate(124.811 297.181)">
        <circle id="Elipse_4560" data-name="Elipse 4560" cx="2.928" cy="2.928" r="2.928" fill="#ffd56c"/>
      </g>
      <g id="Grupo_98331" data-name="Grupo 98331" transform="translate(149.533 278.397)">
        <g id="Grupo_98321" data-name="Grupo 98321" transform="translate(0 0)">
          <circle id="Elipse_4561" data-name="Elipse 4561" cx="16.655" cy="16.655" r="16.655" transform="matrix(0.23, -0.973, 0.973, 0.23, 0, 32.419)" fill="#97e4ff"/>
        </g>
        <g id="Grupo_98330" data-name="Grupo 98330" transform="translate(6.469 8.46)">
          <g id="Grupo_98322" data-name="Grupo 98322" transform="translate(0 8.657)">
            <path id="Trazado_142568" data-name="Trazado 142568" d="M99.317,278.354a6.212,6.212,0,1,1,6.211-6.213A6.22,6.22,0,0,1,99.317,278.354Zm0-10.228a4.015,4.015,0,1,0,4.015,4.015A4.021,4.021,0,0,0,99.317,268.126Z" transform="translate(-93.104 -265.93)" fill="#fff"/>
          </g>
          <g id="Grupo_98323" data-name="Grupo 98323" transform="translate(14.17 8.931)">
            <path id="Trazado_142569" data-name="Trazado 142569" d="M106.926,278.5a6.213,6.213,0,1,1,6.211-6.213A6.22,6.22,0,0,1,106.926,278.5Zm0-10.228a4.015,4.015,0,1,0,4.015,4.015A4.021,4.021,0,0,0,106.926,268.275Z" transform="translate(-100.713 -266.077)" fill="#fff"/>
          </g>
          <g id="Grupo_98324" data-name="Grupo 98324" transform="translate(5.548 6.753)">
            <path id="Trazado_142570" data-name="Trazado 142570" d="M105.968,273.928h-.011l-8.788-.1a1.1,1.1,0,0,1-.948-1.63l3.721-6.719a1.1,1.1,0,0,1,.888-.564,1.087,1.087,0,0,1,.955.441l5.066,6.824a1.1,1.1,0,0,1-.883,1.752Zm-6.935-2.278,4.734.056-2.73-3.676Z" transform="translate(-96.083 -264.907)" fill="#fff"/>
          </g>
          <g id="Grupo_98325" data-name="Grupo 98325" transform="translate(7.822 2.205)">
            <path id="Trazado_142571" data-name="Trazado 142571" d="M102.228,265.9a1.083,1.083,0,0,1-.339-.054l-3.825-1.24a1.1,1.1,0,0,1,.678-2.09l3.825,1.24a1.1,1.1,0,0,1-.339,2.143Z" transform="translate(-97.304 -262.465)" fill="#fff"/>
          </g>
          <g id="Grupo_98326" data-name="Grupo 98326" transform="translate(19.285 2.207)">
            <path id="Trazado_142572" data-name="Trazado 142572" d="M104.559,276.033a.908.908,0,0,1-.123-.007,1.1,1.1,0,0,1-.97-1.211l1.253-11.373a1.1,1.1,0,0,1,2.184.242l-1.255,11.371A1.1,1.1,0,0,1,104.559,276.033Z" transform="translate(-103.459 -262.466)" fill="#fff"/>
          </g>
          <g id="Grupo_98327" data-name="Grupo 98327" transform="translate(17.92)">
            <path id="Trazado_142573" data-name="Trazado 142573" d="M109.888,267.613a1.089,1.089,0,0,1-.618-.192l-6.064-4.134a1.1,1.1,0,0,1,1.237-1.814l6.066,4.134a1.1,1.1,0,0,1-.62,2.006Z" transform="translate(-102.726 -261.281)" fill="#fff"/>
          </g>
          <g id="Grupo_98328" data-name="Grupo 98328" transform="translate(15.434 13.577)">
            <rect id="Rectángulo_33322" data-name="Rectángulo 33322" width="4.949" height="2.196" fill="#fff"/>
          </g>
          <g id="Grupo_98329" data-name="Grupo 98329" transform="translate(9.373 3.136)">
            <path id="Trazado_142574" data-name="Trazado 142574" d="M99.236,268.986a1.1,1.1,0,0,1-1.1-1.1v-3.825a1.1,1.1,0,0,1,2.2,0v3.825A1.1,1.1,0,0,1,99.236,268.986Z" transform="translate(-98.137 -262.965)" fill="#fff"/>
          </g>
        </g>
      </g>
      <g id="Grupo_98337" data-name="Grupo 98337" transform="translate(129.648 269.532)">
        <g id="Grupo_98332" data-name="Grupo 98332" transform="translate(0)">
          <path id="Trazado_142575" data-name="Trazado 142575" d="M103.478,264.24a12.262,12.262,0,1,1-12.263-12.262A12.261,12.261,0,0,1,103.478,264.24Z" transform="translate(-78.953 -251.978)" fill="#ffcb2f"/>
        </g>
        <g id="Grupo_98336" data-name="Grupo 98336" transform="translate(2.928 8.446)">
          <g id="Grupo_98333" data-name="Grupo 98333">
            <path id="Trazado_142576" data-name="Trazado 142576" d="M84.63,264.722a4.1,4.1,0,1,1,4.1-4.1A4.11,4.11,0,0,1,84.63,264.722Zm0-6.013a1.908,1.908,0,1,0,1.909,1.909A1.912,1.912,0,0,0,84.63,258.709Z" transform="translate(-80.525 -256.513)" fill="#fff"/>
          </g>
          <g id="Grupo_98334" data-name="Grupo 98334" transform="translate(9.727)">
            <path id="Trazado_142577" data-name="Trazado 142577" d="M89.853,264.722a4.1,4.1,0,1,1,4.1-4.1A4.11,4.11,0,0,1,89.853,264.722Zm0-6.013a1.908,1.908,0,1,0,1.909,1.909A1.912,1.912,0,0,0,89.853,258.709Z" transform="translate(-85.748 -256.513)" fill="#fff"/>
          </g>
          <g id="Grupo_98335" data-name="Grupo 98335" transform="translate(7.465 3.006)">
            <rect id="Rectángulo_33323" data-name="Rectángulo 33323" width="3.006" height="2.196" fill="#fff"/>
          </g>
        </g>
      </g>
    </g>
  </g>
</svg>
