<svg xmlns="http://www.w3.org/2000/svg" xmlns:xlink="http://www.w3.org/1999/xlink" width="1320" height="513.752" viewBox="0 0 1320 513.752">
  <defs>
    <clipPath id="clip-path">
      <path id="Rectangle_652" data-name="Rectangle 652" d="M20.787,0H1299.213C1310.693,0,1320,8.4,1320,18.772V488.063c0,10.367-9.307,18.772-20.787,18.772H20.787C9.307,506.835,0,498.431,0,488.063V18.772C0,8.4,9.307,0,20.787,0Z" transform="translate(140.333 70)" fill="#17c878"/>
    </clipPath>
    <linearGradient id="linear-gradient" x1="0.05" y1="0.218" x2="0.22" y2="0.338" gradientUnits="objectBoundingBox">
      <stop offset="0" stop-color="#0a5936" stop-opacity="0.251"/>
      <stop offset="1" stop-color="#0a5936" stop-opacity="0"/>
    </linearGradient>
  </defs>
  <g id="Grupo_97958" data-name="Grupo 97958" transform="translate(-140.333 -63.083)">
    <path id="Rectangle_652-2" data-name="Rectangle 652" d="M20.787,0H1299.213C1310.693,0,1320,8.4,1320,18.772V488.063c0,10.367-9.307,18.772-20.787,18.772H20.787C9.307,506.835,0,498.431,0,488.063V18.772C0,8.4,9.307,0,20.787,0Z" transform="translate(140.333 70)" fill="#17c878" style="mix-blend-mode: multiply;isolation: isolate"/>
    <g id="Enmascarar_grupo_70" data-name="Enmascarar grupo 70" transform="translate(0 -6.917)" clip-path="url(#clip-path)">
      <g id="Grupo_96433" data-name="Grupo 96433" transform="translate(5.211)">
        <circle id="Elipse_4271" data-name="Elipse 4271" cx="366.5" cy="366.5" r="366.5" transform="translate(573 255) rotate(90)" opacity="0.43" fill="url(#linear-gradient)" style="mix-blend-mode: multiply;isolation: isolate"/>
        <circle id="Elipse_4272" data-name="Elipse 4272" cx="366.5" cy="366.5" r="366.5" transform="translate(332.578 401.5) rotate(-90)" opacity="0.43" fill="url(#linear-gradient)" style="mix-blend-mode: multiply;isolation: isolate"/>
      </g>
      <g id="Grupo_96434" data-name="Grupo 96434" transform="translate(660)">
        <circle id="Elipse_4271-2" data-name="Elipse 4271" cx="366.5" cy="366.5" r="366.5" transform="translate(573 255) rotate(90)" opacity="0.43" fill="url(#linear-gradient)" style="mix-blend-mode: multiply;isolation: isolate"/>
        <circle id="Elipse_4272-2" data-name="Elipse 4272" cx="366.5" cy="366.5" r="366.5" transform="translate(332.578 401.5) rotate(-90)" opacity="0.43" fill="url(#linear-gradient)" style="mix-blend-mode: multiply;isolation: isolate"/>
      </g>
      <g id="Grupo_96435" data-name="Grupo 96435" transform="translate(754 68)" opacity="0.69">
        <circle id="Elipse_4271-3" data-name="Elipse 4271" cx="366.5" cy="366.5" r="366.5" transform="translate(573 255) rotate(90)" opacity="0.43" fill="url(#linear-gradient)" style="mix-blend-mode: multiply;isolation: isolate"/>
        <circle id="Elipse_4272-3" data-name="Elipse 4272" cx="366.5" cy="366.5" r="366.5" transform="translate(332.578 401.5) rotate(-90)" opacity="0.43" fill="url(#linear-gradient)" style="mix-blend-mode: multiply;isolation: isolate"/>
      </g>
      <g id="Grupo_96436" data-name="Grupo 96436" transform="translate(554 -88)" opacity="0.69">
        <circle id="Elipse_4271-4" data-name="Elipse 4271" cx="366.5" cy="366.5" r="366.5" transform="translate(573 255) rotate(90)" opacity="0.43" fill="url(#linear-gradient)" style="mix-blend-mode: multiply;isolation: isolate"/>
        <circle id="Elipse_4272-4" data-name="Elipse 4272" cx="366.5" cy="366.5" r="366.5" transform="translate(332.578 401.5) rotate(-90)" opacity="0.43" fill="url(#linear-gradient)" style="mix-blend-mode: multiply;isolation: isolate"/>
      </g>
    </g>
  </g>
</svg>
